<svg fill="none" height="1056" viewBox="0 0 1440 1056" width="1440" xmlns="http://www.w3.org/2000/svg" xmlns:xlink="http://www.w3.org/1999/xlink"><linearGradient id="a" gradientUnits="userSpaceOnUse" x1="671.5" x2="768.5" y1="96" y2="96"><stop offset="0"/><stop offset="1" stop-opacity=".64"/></linearGradient><linearGradient id="b" gradientUnits="userSpaceOnUse" x1="720" x2="720" y1="976" y2="1056"><stop offset="0" stop-color="#fff"/><stop offset="1" stop-color="#f8f8f8"/></linearGradient><path d="m0 192c0-67.21 0-100.81 13.08-126.48a120 120 0 0 1 52.44-52.44c25.67-13.08 59.27-13.08 126.48-13.08h1056c67.21 0 100.81 0 126.48 13.08a119.97 119.97 0 0 1 52.44 52.44c13.08 25.67 13.08 59.27 13.08 126.48v864h-1440z" fill="#fff"/><rect fill="url(#a)" height="32" rx="16" width="97" x="671.5" y="80"/><path d="m690.49 101.41v-8.47c0-.333.1-.658.28-.933l2.27-3.38c.358-.542 1.25-.925 2.01-.642.82.275 1.36 1.19 1.18 2.01l-.434 2.73a.84.84 0 0 0 .175.65c.142.16.35.26.575.26h3.42c.659 0 1.23.266 1.56.733.32.45.38 1.03.166 1.62l-2.05 6.24c-.258 1.03-1.38 1.88-2.5 1.88h-3.25c-.558 0-1.34-.192-1.7-.55l-1.07-.825c-.409-.309-.65-.8-.65-1.32zm-2.65-10.09h-.859c-1.29 0-1.82.5-1.82 1.73v8.38c0 1.23.525 1.73 1.82 1.73h.859c1.29 0 1.82-.5 1.82-1.73v-8.38c0-1.23-.525-1.73-1.82-1.73zm20.55 9.68v-10.19h3.82c.784 0 1.44.146 1.97.438a2.93 2.93 0 0 1 1.21 1.2c.273.51.41 1.09.41 1.74 0 .652-.139 1.23-.417 1.74a2.93 2.93 0 0 1 -1.22 1.2c-.537.29-1.2.43-1.98.43h-2.53v-1.52h2.28c.46 0 .836-.078 1.13-.233.3-.159.51-.378.65-.656.14-.282.21-.604.21-.964 0-.364-.07-.683-.212-.957a1.41 1.41 0 0 0 -.649-.642c-.292-.155-.67-.233-1.14-.233h-1.69v8.647h-1.85zm8.21 0v-10.19h3.82c.783 0 1.44.137 1.97.41a2.81 2.81 0 0 1 1.21 1.15c.274.49.41 1.05.41 1.7 0 .652-.139 1.22-.417 1.7-.273.48-.679.85-1.22 1.11-.538.26-1.2.39-1.98.39h-2.71v-1.52h2.46c.461 0 .837-.064 1.13-.191a1.31 1.31 0 0 0 .65-.56c.141-.251.21-.557.21-.917s-.071-.667-.212-.923a1.35 1.35 0 0 0 -.65-.588c-.291-.136-.67-.205-1.14-.205h-1.69v8.634h-1.85zm5.72 0-2.47-4.62h2.01l2.52 4.62zm7.01.137c-.889 0-1.69-.208-2.4-.622-.707-.415-1.26-1.01-1.68-1.79-.406-.78-.609-1.72-.609-2.81 0-1.1.203-2.04.609-2.82.41-.784.97-1.38 1.68-1.8.71-.415 1.51-.622 2.4-.622s1.69.207 2.39.622 1.26 1.01 1.67 1.8c.411.78.616 1.72.616 2.82 0 1.09-.205 2.03-.616 2.81-.41.78-.966 1.38-1.67 1.79-.701.41-1.5.622-2.39.622zm0-1.66a2.64 2.64 0 0 0 1.46-.41c.424-.273.76-.675-1.2.241-.533.36-1.19.362-1.96 0-.775-.121-1.43-.362-1.96-.242" fill="#fff"/><path d="m440.66 172-11.48-40.74h7.93l7.36 29.94h.356l7.85-29.94h7.25l7.79 29.97h.41l7.3-29.97h7.99l-11.536 40.74h-7.3l-8.15-28.55h-.328l-8.112 28.55zm52.16-17.88v17.88h-7.19v-40.74h7.03v15.39h.383c.711-1.73 1.81-3.1 3.31-4.1s3.42-1.5 5.77-1.5c2.12 0 3.96.446 5.52 1.34 1.59.893 2.82 2.2 3.69 3.91.875 1.71 1.31 3.8 1.31 6.26v19.44h-7.22v-18.32c0-2.08-.529-3.68-1.59-4.81-1.06-1.15-2.53-1.72-4.43-1.72-1.28 0-2.42.273-3.42.82-.984.55-1.76 1.34-2.32 2.38-.565 1.02-.848 2.28-.848 3.77zm33.37 18.51c-1.95 0-3.7-.346-5.25-1.04-1.55-.711-2.77-1.75-3.66-3.12-.894-1.37-1.34-3.05-1.34-5.06 0-1.71.319-3.13.957-4.27a7.41 7.41 0 0 1 2.6-2.71c1.11-.674 2.36-1.18 3.75-1.53a27.39 27.39 0 0 1 4.29-.765c1.8-.201 3.26-.374 4.38-.52 1.11-.146 1.91-.383 2.41-.711.51-.328.76-.838.76-1.53v-.137c0-1.48-.437-2.62-1.31-3.44-.875-.821-2.15-1.23-3.83-1.23-1.77 0-3.17.383-4.21 1.15-1.02.765-1.71 1.67-2.08 2.71l-6.7-.957c.528-1.86 1.4-3.41 2.62-4.65 1.22-1.26 2.71-2.2 4.46-2.82 1.77-.638 3.72-.957 5.85-.957 1.46 0 2.92.173 4.38.519 1.46.329 2.8.894 4.02 1.7 1.22.802 2.2 1.88 2.92 3.23.73 1.35 1.09 3.04 1.09 5.06v20.448h-6.92v-4.21h-.219c-.437.84-1.06 1.63-1.86 2.38-.784.73-1.77 1.32-2.95 1.78-1.17.456-2.55.684-4.16.684zm1.83-5.3c1.46 0 2.72-.282 3.77-.847 1.06-.584 1.88-1.35 2.46-2.3a5.98 5.98 0 0 0 .875-3.15v-3.58c-.237.18-.62.36-1.15.52-.529.14-1.13.282-1.8.41-.675.13-1.34.237-2.328-.638.09-1.19.164-1.67.219-1.08.146-2.04.392-2.9.738-.838.33-1.5.784-2 1.37-.492.58-.738 1.34-.738 2.27 0 1.33.483 2.33 1.45 3.01.966" fill="#000"/><path d="m429.99 210.2c-.833 0-1.55-.133-2.16-.398-.609-.271-1.09-.646-1.44-1.12a3.26 3.26 0 0 1 -.586-1.68h1.45c.41.44.19.8.445 1.09.261.29.591.5.992.64s.834.21 1.3.211c.54 0 1.02-.089 1.45-.266s.77-.425 1.02-.742c.25-.318.38-.69.38-1.12 0-.385-.109-.697-.328-.937a2.43 2.43 0 0 0 -.86-.586 8.78 8.78 0 0 0 -1.14-.398l-1.42-.407c-.912-.26-1.63-.632-2.16-1.12-.526-.489-.789-1.13-.789-1.91 0-.651.17-1.22.523-1.7.354-.49.83-.87 1.43-1.14.604-.27 1.28-.406 2.02-.406.75 0 1.42.136 2 .406.58.266 1.05.631 1.39 1.09.344.46.526.98.547 1.56h-1.38a1.78 1.78 0 0 0 -.828-1.34c-.479-.318-1.07-.477-1.78-.477-.511 0-.959.08-1.34.25-.385.17-.685.4-.899.69-.213.29-.32.62-.32 1 0 .411.13.744.38 1 .255.25.557.45.906.59.354.14.675.25.961.34l1.17.329c.302.08.638.2 1.01.336.38.14.73.33 1.08.57.35.239.63.547.86.922.22.37.34.828.34 1.38 0 .625-.164 1.19-.492 1.7-.328.5-.805.91-1.43 1.21s-1.39.445-2.28.445zm9.38-8.94v1.14h-4.51v-1.14zm-3.2-2.08h1.33v8.31c0 .453.09.786.28 1 .188.21.485.31.891.31.089 0 .18-.5.27-.015a4.69 4.69 0 0 0 .32-.047l.281 1.2a2.22 2.22 0 0 1 -.461.11 3.03 3.03 0 0 1 -.539.05c-.703 0-1.28-.208-1.72-.625-.437-.416-.656-.958-.656-1.62v-8.67zm7.92 11c-.787 0-1.48-.188-2.07-.563-.594-.375-1.06-.901-1.39-1.58-.328-.677-.492-1.46-.492-2.36 0-.912.16-1.71.492-2.38.333-.683.8-1.21 1.39-1.59.593-.375 1.28-.563 2.07-.563s1.48.188 2.08.563c.59.375 1.06.903 1.39 1.59.333.68.5 1.47.5 2.38 0 .895-.167 1.68-.5 2.36-.334.68-.797 1.2-1.39 1.58s-1.29.563-2.08.563zm0-1.2c.604 0 1.1-.153 1.48-.461.39-.307.67-.711.86-1.21a4.64 4.64 0 0 0 .281-1.62 4.69 4.69 0 0 0 -.281-1.64 2.74 2.74 0 0 0 -.86-1.22c-.385-.312-.88-.469-1.48-.469-.594 0-1.08.157-1.47.469a2.74 2.74 0 0 0 -.859 1.22 4.67 4.67 0 0 0 -.281 1.64c0 .578.09 1.12.281 1.62.187.5.474.9.859 1.21.386.31.875.46 1.47.461zm5.27 4.28v-12h1.28v1.39h.156c.099-.151.24-.344.41-.578.18-.239.43-.453.77-.64.33-.188.78-.282 1.35-.282.74 0 1.38.185 1.94.555.56.365.99.885 1.3 1.56.318.67.477 1.47.477 2.38 0 .922-.156 1.72-.469 2.41-.312.68-.747 1.2-1.3 1.57-.558.37-1.2.555-1.93.555-.557 0-1-.094-1.34-.282-.338-.192-.599-.409-.781-.648a10.52 10.52 0 0 1 -.422-.602h-.109v4.61h-1.33zm3.81-4.28c.557 0 1.02-.148 1.4-.445.38-.302.66-.706.84-1.21a4.7 4.7 0 0 0 .289-1.69 4.65 4.65 0 0 0 -.281-1.66 2.64 2.64 0 0 0 -.844-1.18c-.369-.292-.838-.438-1.41-.438-.547 0-1.138-1.38.414-.37.27-.651.65-.844 1.15-.187.49-.281 1.06-.281 1.72 0 .656.1 1.24.289 1.74.193.5.474.89.844 1.18.375" fill="#7e8890"/><path d="m240 336c0-17.67 14.33-32 32-32h240c17.67 0 32 14.33 32 32v196c0 17.67-14.33 32-32 32h-240c-17.67 0-32-14.33-32-32z" fill="#f4f4f4"/><path d="m264 344c0-8.84 7.16-16 16-16h24c8.84 0 16 7.16 16 16v24c0 8.84-7.16 16-16 16h-24c-8.84 0-16-7.16-16-16z" fill="#fff"/><path d="m292 366a8.67 8.67 0 1 0 0-17.34 8.67 8.67 0 0 0 0 17.34z" fill="#292d32" opacity=".4"/><path d="m292 357.75c-.41 0-.75-.34-.75-.75v-5c0-.41.34-.75.75-.75s.75.34.75.75v5c0 .41-.34.75-.75.75zm2.89-10.3h-5.78c-.4 0-.72-.32-.72-.72s.32-.73.72-.73h5.78c.4 0 .72.32.72.72s-.32.73-.72.73z" fill="#292d32"/><path d="m270.19 411.23c-1.13 0-2.12-.176-2.95-.528-.833-.351-1.48-.862-1.95-1.53-.469-.677-.723-1.5-.762-2.46h2.6c.39.51.195.93.469 1.27a2.53 2.53 0 0 0 1.07.752c.449.17.947.25 1.49.254.57 0 1.08-.088 1.51-.264.44-.176.78-.42 1.02-.733.25-.312.37-.677.37-1.09 0-.378-.11-.687-.332-.928-.221-.247-.527-.456-.918-.625a8.74 8.74 0 0 0 -1.38-.449l-1.65-.43c-1.2-.306-2.14-.771-2.83-1.4-.69-.632-1.03-1.47-1.03-2.52 0-.859.23-1.61.693-2.25.462-.645 1.09-1.15 1.9-1.5.807-.358 1.72-.537 2.73-.537 1.03 0 1.94.179 2.73.537.78.358 1.39.853 1.84 1.48.442.63.673 1.36.693 2.18h-2.55c-.065-.625-.342-1.11-.83-1.45-.482-.345-1.12-.518-1.9-.518-.547 0-1.02.082-1.42.244-.391.16-.69.39-.899.67a1.62 1.62 0 0 0 -.312.98c0 .403.12.735.36.996.25.254.56.459.94.615s.77.287 1.17.391l1.36.342c.547.13 1.07.306 1.58.527.51.215.96.488 1.37.82.41.326.73.723.97 1.19.241.47.361 1.02.361 1.65 0 .846-.218 1.59-.654 2.25-.436.64-1.06 1.15-1.89 1.51-.82.36-1.81.547-2.97.547zm9.93 0c-.696 0-1.32-.124-1.88-.371a3.04 3.04 0 0 1 -1.31-1.11c-.319-.488-.479-1.09-.479-1.81 0-.612.11-1.12.342-1.52.228-.403.54-.726.93-.967a4.82 4.82 0 0 1 1.34-.547 9.8 9.8 0 0 1 1.53-.273 88.49 88.49 0 0 0 1.56-.185c.398-.53.68-.137.86-.254.18-.118.27-.3.27-.547v-.049c0-.527-.156-.938-.469-1.23-.312-.293-.768-.439-1.37-.439-.631 0-1.13.137-1.5.41-.364.27-.612.6-.742.97l-2.39-.342c.188-.664.5-1.22.937-1.66a4.08 4.08 0 0 1 1.59-1.01 6.11 6.11 0 0 1 2.09-.342c.521 0 1.04.062 1.56.186.52.117 1 .319 1.44.605.44.287.78.671 1.04 1.15.26.48.39 1.08.39 1.81v7.295h-2.47v-1.5h-.079a3.16 3.16 0 0 1 -1.72 1.48c-.417.16-.912.25-1.49.245zm.655-1.9c.52 0 .97-.101 1.35-.303.38-.208.67-.481.88-.82.21-.345.31-.719.31-1.12v-1.28a1.36 1.36 0 0 1 -.41.19 8.36 8.36 0 0 1 -.645.15 16.01 16.01 0 0 1 -.713.12c-.228.03-.426.06-.596.08a4.28 4.28 0 0 0 -1.03.264c-.299.12-.537.28-.713.49-.175.21-.263.48-.263.81 0 .475.17.833.52 1.07.345.24.785.36 1.32.361zm16.16-9.25-3.895 10.92h-2.85l-3.88-10.92h2.74l2.53 8.12h.117l2.51-8.12h2.71zm5.3 11.13c-1.09 0-2.04-.228-2.83-.684a4.67 4.67 0 0 1 -1.84-1.95c-.423-.84-.635-1.83-.635-2.97 0-1.13.212-2.11.635-2.96.423-.852 1.02-1.52 1.79-1.99.768-.475 1.67-.713 2.71-.713a5.59 5.59 0 0 1 1.9.323c.606.21 1.14.546 1.6.996.47.449.84 1.02 1.1 1.72.267.69.401 1.51.401 2.47v.801h-8.95v-1.73h7.67l-1.2.508c0-.618-.094-1.16-.283-1.61a2.39 2.39 0 0 0 -.84-1.08c-.371-.261-.833-.391-1.39-.391-.554 0-1.03.13-1.42.391-.391.26-.687.61-.889 1.05a3.44 3.44 0 0 0 -.303 1.46v1.2c0 .664.11 1.23.342 1.71.234.47.56.83.977 1.07.423.25.914.37 1.47.371.37 0 .697-.53-.156.31-.105.57-.261.78-.469.22" fill="#000"/><path d="m265.03 442v-11.64h3.94c.911 0 1.66.157 2.23.469.58.307 1.02.732 1.3 1.27.281.54.422 1.15.422 1.84 0 .682-.141 1.29-.422 1.82-.276.53-.706.95-1.29 1.25-.578.3-1.32.445-2.23.445h-3.17v-1.26h3.13c.624 0 1.13-.092 1.51-.274s.66-.44.83-.773c.17-.339.26-.74.26-1.2 0-.469-.088-.878-.265-1.23a1.79 1.79 0 0 0 -.828-.813c-.381-.192-.886-.289-1.52-.289h-2.48v10.385h-1.41zm6.7 0-2.81-5.23h1.59l2.86 5.23zm6.17.188c-.838 0-1.56-.188-2.18-.563a3.71 3.71 0 0 1 -1.41-1.57c-.328-.677-.492-1.46-.492-2.35 0-.896.16-1.69.484-2.37.323-.682.78-1.22 1.36-1.6.588-.385 1.28-.578 2.06-.578.45 0 .904.08 1.35.227.45.151.85.396 1.22.734.37.339.66.787.88 1.34.218.56.328 1.24.328 2.06v.578h-6.74v-1.16h6.01l-.617.44c0-.583-.091-1.1-.274-1.55a2.35 2.35 0 0 0 -.82-1.07c-.359-.26-.807-.391-1.34-.391-.536 0-.997.13-1.38.399-.381.26-.672.6-.875 1.02a3.08 3.08 0 0 0 -.305 1.36v.765c0 .662.11 1.22.344 1.68.229.46.549.81.961 1.05.411.23.888.35 1.43.351a2.9 2.9 0 0 0 .953-.148c.287-.104.53-.258.74-.461.21-.208.37-.464.48-.766l1.3.375a2.86 2.86 0 0 1 -.687 1.16 3.33 3.33 0 0 1 -1.19.773 4.42 4.42 0 0 1 -1.59.274zm8.41 0c-.812 0-1.51-.193-2.11-.579a3.88 3.88 0 0 1 -1.37-1.6c-.318-.677-.477-1.45-.477-2.32 0-.891.16-1.68.493-2.35.328-.682.79-1.22 1.38-1.6.593-.385 1.28-.578 2.07-.578.61 0 1.17.115 1.66.344.5.224.9.542 1.21.953.32.412.51.891.59 1.44h-1.34a2.08 2.08 0 0 0 -.367-.75 1.89 1.89 0 0 0 -.703-.563c-.287-.146-.628-.219-1.02-.219-.52 0-.976.14-1.37.407-.39.27-.695.65-.914 1.15-.219.49-.328 1.06-.328 1.73 0 .671.11 1.26.32 1.76.214.5.516.89.907 1.16.396.28.856.41 1.38.414.53 0 .977-.135 1.35-.406a1.94 1.94 0 0 0 .742-1.12h1.34c-.73.52-.26.98-.562 1.39a3.19 3.19 0 0 1 -1.18.984c-.485.24-1.05.36-1.7.36zm8.36 0c-.839 0-1.56-.188-2.18-.563a3.71 3.71 0 0 1 -1.41-1.57c-.328-.677-.492-1.46-.492-2.35 0-.896.16-1.69.484-2.37.323-.682.78-1.22 1.36-1.6.588-.385 1.28-.578 2.06-.578.45 0 .904.08 1.35.227.45.151.85.396 1.22.734.37.339.66.787.88 1.34.219.56.328 1.24.328 2.06v.578h-6.73v-1.16h6.01l-.617.44c0-.583-.092-1.1-.274-1.55a2.36 2.36 0 0 0 -.82-1.07c-.36-.26-.808-.391-1.34-.391s-.997.13-1.38.399c-.38.26-.672.6-.875 1.02a3.1 3.1 0 0 0 -.304 1.36v.765c0 .662.11 1.22.343 1.68.229.46.55.81.961 1.05.412.23.888.35 1.43.351a2.9 2.9 0 0 0 .953-.148c.286-.104.53-.258.74-.461.21-.208.37-.464.48-.766l1.3.375a2.86 2.86 0 0 1 -.688 1.16 3.33 3.33 0 0 1 -1.19.773 4.42 4.42 0 0 1 -1.59.274zm4.88-.188v-8.73h1.33v8.73zm.672-10.19a.943.94 0 0 1 -.672-.265.85.848 0 0 1 -.281-.641c0-.25.09-.463.28-.64a.944.94 0 0 1 .672-.266c.26 0 .484.09.672.27a.85.85 0 0 1 .281.64c0 .25-.94.46-.281.64a.946.95 0 0 1 -.672.26zm2.38 13.45v-12h1.28v1.39h.156c.099-.151.24-.344.41-.578.18-.239.43-.453.77-.64.33-.188.78-.282 1.35-.282.74 0 1.38.185 1.94.555.56.365.99.885 1.3 1.56.317.67.476 1.47.476 2.38 0 .922-.156 1.72-.469 2.41-.312.68-.747 1.2-1.3 1.57-.557.37-1.2.555-1.93.555-.557 0-1-.094-1.34-.282-.338-.192-.599-.409-.781-.648a10.52 10.52 0 0 1 -.422-.602h-.109v4.61h-1.33zm3.81-4.28c.558 0 1.02-.148 1.4-.445.38-.302.66-.706.84-1.21.193-.505.29-1.07.29-1.69a4.65 4.65 0 0 0 -.282-1.66c-.187-.495-.468-.888-.844-1.18-.369-.292-.838-.438-1.41-.438-.547 0-1.138-1.38.414-.37.27-.651.65-.843 1.15-.188.49-.282 1.06-.282 1.72 0 .656.1 1.24.289 1.74.193.5.474.89.844 1.18.375" fill="#9192a1"/><path d="m568 336c0-17.67 14.33-32 32-32h240c17.67 0 32 14.33 32 32v196c0 17.67-14.33 32-32 32h-240c-17.67 0-32-14.33-32-32z" fill="#f4f4f4"/><path d="m592 344c0-8.84 7.16-16 16-16h24c8.84 0 16 7.16 16 16v24c0 8.84-7.16 16-16 16h-24c-8.84 0-16-7.16-16-16z" fill="#fff"/><path d="m630.18 357.66c-.15-1.65-.59-3.41-3.8-3.41h-12.76c-3.21 0-3.64 1.76-3.8 3.41l-.56 6.09c-.7.76.18 1.52.7 2.09.53.58 1.28.91 2.08.91h1.88c1.62 0 1.93-.93 2.13-1.54l.2-.6c.23-.69.29-.86 1.19-.86h5.12c.9 0 .93.1 1.19.86l.2.6c.2.61.51 1.54 2.13 1.54h1.88c.79 0 1.55-.33 2.08-.91.52-.57.77-1.33.7-2.09l-.56-6.09z" fill="#000" opacity=".4"/><path d="m629 351.25h-1.02l-.38-1.81c-.36-1.75-1.11-3.36-4.09-3.36h-7.02c-2.98 0-3.73 1.61-4.09 3.36l-.38 1.81h-1.02c-.41 0-.75.34-.75.75s.34.75.75.75h.71l-.42 2c.54-.31 1.29-.5 2.33-.5h12.76c1.04 0 1.79.19 2.33.5l-.42-2h.71c.41 0 .75-.34.75-.75s-.34-.75-.75-.75zm-12 8.5h-3c-.41 0-.75-.34-.75-.75s.34-.75.75-.75h3c.41 0 .75.34.75.75s-.34.75-.75.75zm9 0h-3c-.41 0-.75-.34-.75-.75s.34-.75.75-.75h3c.41 0 .75.34.75.75s-.34.75-.75.75zm-20.97 36.7v14.55h-2.36l-6.85-9.91h-.127v9.91h-2.64v-14.55h2.36l6.85 9.91h.127v-9.91zm6.64 14.77c-1.09 0-2.04-.228-2.83-.684a4.67 4.67 0 0 1 -1.84-1.95c-.423-.84-.634-1.83-.634-2.97 0-1.13.211-2.11.634-2.96.423-.852 1.02-1.52 1.79-1.99.769-.475 1.67-.713 2.71-.713.67 0 1.31.108 1.91.323a4.35 4.35 0 0 1 1.6.996c.469.45.837 1.02 1.1 1.72.267.69.4 1.51.4 2.47v.801h-8.95v-1.73h7.67l-1.2.508c0-.618-.095-1.16-.284-1.61a2.38 2.38 0 0 0 -.839-1.08c-.372-.261-.834-.391-1.39-.391-.554 0-1.03.13-1.42.391-.391.26-.687.61-.889 1.05a3.44 3.44 0 0 0 -.303 1.46v1.2c0 .664.11 1.23.342 1.71.235.47.56.83.977 1.07.423.25.914.37 1.47.371.37 0 .697-.53-.156.31-.105.57-.261.78-.469.22" fill="#000"/><path d="m593.03 466v-11.64h1.41v10.39h5.42v1.25zm11.61.188c-.787 0-1.48-.188-2.07-.563-.593-.375-1.06-.901-1.39-1.58-.328-.677-.492-1.46-.492-2.36 0-.912.16-1.71.492-2.38.333-.683.8-1.21 1.39-1.59.594-.375 1.28-.563 2.07-.563s1.48.188 2.08.563c.59.375 1.06.903 1.39 1.59.334.68.5 1.47.5 2.38 0 .895-.166 1.68-.5 2.36-.333.68-.797 1.2-1.39 1.58-.594.38-1.29.563-2.08.563zm0-1.2c.604 0 1.1-.153 1.48-.461a2.74 2.74 0 0 0 .859-1.21 4.62 4.62 0 0 0 .282-1.62c0-.589-.094-1.14-.282-1.64a2.74 2.74 0 0 0 -.859-1.22c-.385-.312-.88-.469-1.48-.469-.594 0-1.08.157-1.47.469a2.74 2.74 0 0 0 -.86 1.22 4.69 4.69 0 0 0 -.281 1.64c0 .578.09 1.12.281 1.62.188.5.474.9.86 1.21.385.31.875.46 1.47.461zm8.78 4.47c-.974 0-1.75-.177-2.31-.531-.562-.354-.979-.761-1.25-1.22l1.06-.75c.12.16.273.34.461.55.187.21.443.39.765.54.323.15.748.23 1.27.227.7 0 1.28-.17 1.74-.508.46-.339.69-.873.7-1.6v-1.76h-.125a6.06 6.06 0 0 1 -.414.59c-.177.23-.435.43-.773.62-.333.18-.787.26-1.36.265-.704 0-1.33-.166-1.89-.5-.557-.333-1-.817-1.33-1.45-.323-.635-.485-1.41-.485-2.31 0-.896.16-1.68.469-2.34.318-.667.76-1.18 1.32-1.55.563-.37 1.21-.555 1.95-.555.57 0 1.02.094 1.35.282.34.187.6.401.77.64a9.3 9.3 0 0 1 .422.58h.14v-1.39h1.28v8.98c0 .75-.17 1.36-.508 1.83-.334.47-.787.82-1.36 1.04-.567.22-1.2.336-1.9.336zm-.047-4.8c.807 0 1.42-.273 1.85-.82s.65-1.3.648-2.27c0-.63-.094-1.18-.281-1.66-.188-.479-.469-.854-.844-1.12-.37-.276-.828-.414-1.38-.414-.568 0-1.04.146-1.42.438a2.6 2.6 0 0 0 -.844 1.16 4.44 4.44 0 0 0 -.281 1.61c0 .605.09 1.14.281 1.61.193.46.48.83.86 1.09s.849.39 1.41.39zm13.06-7.39v1.14h-4.52v-1.14zm-3.2-2.08h1.33v8.31c0 .453.09.786.28 1 .187.21.484.31.89.31.089 0 .18-.5.27-.15.1-.11.21-.26.32-.047l.281 1.2a2.21 2.21 0 0 1 -.461.11 3.02 3.02 0 0 1 -.539.05c-.703 0-1.28-.208-1.72-.625-.438-.416-.657-.958-.657-1.62v-8.67zm4.487 10.812v-8.73h1.28v1.33h.094a2.08 2.08 0 0 1 .867-1.05 2.56 2.56 0 0 1 1.41-.406c.099 0 .221.367.01.146" fill="#9192a1"/><path d="m896 336c0-17.67 14.33-32 32-32h240c17.67 0 32 14.33 32 32v196c0 17.67-14.33 32-32 32h-240c-17.67 0-32-14.33-32-32z" fill="#f4f4f4"/><path d="m920 344c0-8.84 7.16-16 16-16h24c8.84 0 16 7.16 16 16v24c0 8.84-7.16 16-16 16h-24c-8.84 0-16-7.16-16-16z" fill="#fff"/><path d="m956.5 354.19h-2.89c-2.37 0-4.3-1.93-4.3-4.3v-2.89c0-.55-.45-1-1-1h-4.24c-3.08 0-5.57 2-5.57 5.57v8.86c0 3.57 2.49 5.57 5.57 5.57h7.86c3.08 0 5.57-2 5.57-5.57v-5.24c0-.55-.45-1-1-1z" fill="#000" opacity=".4"/><path d="m951.8 346.21c-.41-.41-1.12-.13-1.12.44v3.49c0 1.46 1.24 2.67 2.75 2.67.95.01 2.27.01 3.4.1.57 0 .87-.67.47-1.07-1.44-1.45-4.02-4.06-5.5-5.54zm-2.3 11.54h-6c-.41 0-.75-.34-.75-.75s.34-.75.75-.75h6c.41 0 .75.34.75.75s-.34.75-.75.75zm-2 4h-4c-.41 0-.75-.34-.75-.75s.34-.75.75-.75h4c.41 0 .75.34.75.75s-.34.75-.75.75zm-24.57 49.25h-2.82l5.14-14.55h3.24l5.12 14.55h-2.81l-3.89-11.56h-.117zm.097-5.7h7.67v2.11h-7.67zm15.88 5.92c-1.09 0-2.02-.238-2.8-.713a4.76 4.76 0 0 1 -1.8-1.99c-.417-.847-.625-1.82-.625-2.92 0-1.11.212-2.09.635-2.94a4.75 4.75 0 0 1 1.81-1.98c.782-.482 1.7-.723 2.76-.723.89 0 1.68.163 2.36.489a4.01 4.01 0 0 1 1.63 1.38c.41.59.645 1.27.703 2.06h-2.46a2.49 2.49 0 0 0 -.38-.947 2.03 2.03 0 0 0 -.743-.664c-.299-.163-.657-.244-1.07-.244-.527 0-.989.14-1.39.429-.39.28-.696.68-.918 1.21-.221.53-.332 1.16-.332 1.9 0 .742.11 1.38.323 1.92.214.53.52.95.918 1.24.397.29.862.43 1.4.43.57 0 1.04-.166 1.44-.499.4-.332.65-.791.76-1.38h2.46c-.58.77-.286 1.46-.683 2.05a4.11 4.11 0 0 1 -1.61 1.4c-.677.33-1.47.498-2.38.498zm10.62 0c-1.09 0-2.02-.238-2.8-.713a4.76 4.76 0 0 1 -1.8-1.99c-.416-.847-.625-1.82-.625-2.92 0-1.11.212-2.09.635-2.94a4.75 4.75 0 0 1 1.81-1.98c.781-.482 1.7-.723 2.76-.723.89 0 1.68.163 2.36.489a4.01 4.01 0 0 1 1.63 1.38c.411.58.645 1.27.704 2.06h-2.46a2.48 2.48 0 0 0 -.381-.947 2.03 2.03 0 0 0 -.742-.664c-.3-.163-.658-.244-1.07-.244-.527 0-.989.14-1.39.429-.391.28-.697.68-.918 1.21-.222.53-.332 1.16-.332 1.9 0 .742.11 1.38.322 1.92.215.53.521.95.918 1.24s.863.43 1.4.43c.57 0 1.04-.166 1.44-.499.4-.332.65-.791.76-1.38h2.46c-.59.77-.287 1.46-.684 2.05a4.11 4.11 0 0 1 -1.61 1.4c-.677.33-1.47.498-2.38.498zm10.62 0c-1.07 0-1.99-.235-2.77-.703a4.76 4.76 0 0 1 -1.82-1.97c-.423-.846-.634-1.83-.634-2.95 0-1.13.211-2.11.634-2.96.43-.853 1.04-1.51 1.82-1.98.781-.468 1.71-.703 2.77-.703s1.99.235 2.77.703c.781.47 1.39 1.13 1.82 1.98s.645 1.83.645 2.96c0 1.12-.215 2.1-.645 2.95a4.76 4.76 0 0 1 -1.82 1.97c-.782.47-1.71.703-2.77.703zm0-2.07c.593 0 1.08-.157 1.47-.469.38-.319.67-.749.86-1.29.196-.541.29-1.14.293-1.8 0-.671-.097-1.28-.293-1.82-.188-.54-.475-.966-.859-1.28-.384-.319-.872-.478-1.47-.478-.579 0-1.06.159-1.46.478-.391.31-.683.74-.879 1.28-.189.54-.283 1.15-.283 1.82 0 .657.09 1.26.283 1.8.196.54.488.97.879 1.29.391.31.876.47 1.46.469zm13.4-2.73v-6.34h2.57v10.92h-2.49v-1.94h-.117a3.33 3.33 0 0 1 -1.21 1.5c-.56.39-1.25.582-2.07.576-.716 0-1.35-.157-1.89-.469-.541-.319-.967-.785-1.28-1.4-.306-.618-.459-1.36-.459-2.24v-6.95h2.57v6.56c0 .683.19 1.23.566 1.64.384.41.886.61 1.5.606.38 0 .742-.092 1.09-.274.36-.182.65-.456.88-.82.23-.365.34-.824.34-1.38zm6.84-1.81v6.39h-2.57v-10.92h2.52v1.86h.127a3.13 3.13 0 0 1 1.16-1.46c.534-.364 1.21-.547 2.03-.547.75 0 1.41.16 1.97.479s.99.788 1.3 1.41c.312.61.468 1.35.468 2.23v6.948h-2.57v-6.54c0-.729-.189-1.3-.566-1.71-.378-.417-.899-.625-1.56-.625-.449 0-.849.1-1.2.293a2.11 2.11 0 0 0 -.82.85c-.196.36-.293.81-.293 1.35zm14.15-4.53v1.99h-6.26v-1.99zm-4.73-2.6h2.57v10.23c0 .429.09.748.28.957.19.202.49.303.9.303.11 0 .234-.1.37-.3.14-.19.26-.42.37-.068l.439 2.01c-.273.08-.55.15-.83.19-.28.05-.56.07-.84.07-1.01 0-1.81-.266-2.39-.8-.58-.541-.869-1.28-.869-2.21v-10.65zm9.09 13.74c-.697 0-1.32-.124-1.88-.371a3.04 3.04 0 0 1 -1.31-1.11c-.319-.488-.478-1.09-.478-1.81 0-.612.11-1.12.341-1.52.228-.403.54-.726.93-.967a4.82 4.82 0 0 1 1.34-.547 9.82 9.82 0 0 1 1.53-.273 75.89 75.89 0 0 0 1.56-.185c.4-.53.69-.137.86-.254.19-.118.28-.3.28-.547v-.049c0-.527-.16-.938-.47-1.23-.31-.293-.77-.439-1.37-.439-.631 0-1.13.137-1.5.41-.365.27-.612.6-.742.97l-2.39-.342c.189-.664.5-1.22.937-1.66a4.09 4.09 0 0 1 1.59-1.01 6.12 6.12 0 0 1 2.09-.342c.52 0 1.04.062 1.56.186.52.117 1 .319 1.44.605.44.287.78.671 1.04 1.15.26.48.39 1.08.39 1.81v7.305h-2.47v-1.5h-.07a3.23 3.23 0 0 1 -1.72 1.48c-.42.16-.914.25-1.49.245zm.654-1.9c.523 0 .973-.101 1.34-.303.38-.208.68-.481.88-.82.21-.345.32-.719.32-1.12v-1.28c-.9.06-.23.13-.41.19-.19.05-.41.1-.65.15s-.48.08-.71.12c-.23.03-.428.06-.597.08a4.28 4.28 0 0 0 -1.03.264c-.3.12-.537.28-.713.49s-.264.48-.264.81c0 .475.17.833.52 1.07.345.24.784.36 1.32.361zm9.37-4.72v6.4h-2.57v-10.92h2.52v1.86h.13a3.07 3.07 0 0 1 1.16-1.46c.53-.364 1.21-.547 2.03-.547.75 0 1.41.16 1.97.479s.99.788 1.3 1.41c.31.61.47 1.35.47 2.23v6.948h-2.57v-6.54c0-.729-.19-1.3-.57-1.71-.37-.417-.89-.625-1.56-.625-.45 0-.85.1-1.2.293-.34.2-.62.48-.82.85-.19.36-.29.81-.29 1.35zm14.15-4.53v1.99h-6.26v-1.99zm-4.72-2.6h2.56v10.23c0 .429.1.748.29.957.19.202.49.303.9.303.11 0 .23-.1.37-.3.13-.19.26-.42.37-.068l.44 2.01c-.28.08-.55.15-.83.19-.28.05-.56.07-.84.07-1.02 0-1.82-.266-2.39-.8-.58-.541-.87-1.28-.87-2.21v-10.65zm12.19 6.41v2.12h-6.54v-2.11h6.54zm1.86 7.11v-14.55h5.46c1.12 0 2.06.196 2.81.586.76.391 1.34.938 1.73 1.64.39.7.59 1.51.59 2.43 0 .931-.2 1.74-.6 2.42-.39.68-.97 1.21-1.74 1.58s-1.71.557-2.83.557h-3.88v-2.18h3.52c.66 0 1.19-.091 1.61-.273s.73-.449.93-.801c.2-.358.3-.794.3-1.31 0-.514-.1-.953-.3-1.32-.2-.371-.51-.651-.93-.84-.42-.195-.96-.293-1.62-.293h-2.41v12.364h-2.64zm8.17 0-3.52-6.6h2.87l3.6 6.6zm8.47.215c-1.1 0-2.04-.228-2.84-.684a4.68 4.68 0 0 1 -1.83-1.95c-.43-.84-.64-1.83-.64-2.97 0-1.13.21-2.11.64-2.96a4.81 4.81 0 0 1 1.78-1.99c.77-.475 1.68-.713 2.72-.713.67 0 1.3.108 1.9.323.61.214 1.14.546 1.61.996.46.449.83 1.02 1.1 1.72.27.69.4 1.51.4 2.47v.801h-8.95v-1.73h7.67l-1.2.508c0-.618-.1-1.16-.28-1.61a2.4 2.4 0 0 0 -.84-1.08c-.38-.261-.84-.391-1.39-.391s-1.03.13-1.42.391c-.39.26-.68.61-.89 1.05-.2.44-.3.92-.3 1.46v1.2c0 .664.12 1.23.34 1.71.24.47.56.83.98 1.07.42.25.91.37 1.47.371.37 0 .7-.052 1-.156a2 2 0 0 0 .78-.469c.22-.215.39-.479.51-.791l2.4.283a3.71 3.71 0 0 1 -.87 1.66c-.41.47-.95.83-1.61 1.09-.65.25-1.4.381-2.24.381zm9.18.01c-.7 0-1.32-.124-1.87-.371a3.01 3.01 0 0 1 -1.31-1.11c-.32-.488-.48-1.09-.48-1.81 0-.612.11-1.12.34-1.52.23-.403.54-.726.93-.967s.84-.423 1.34-.547c.49-.13 1-.221 1.53-.273.64-.072 1.16-.133 1.56-.185.4-.53.68-.137.86-.254.18-.118.27-.3.27-.547v-.049c0-.527-.15-.938-.46-1.23-.32-.293-.77-.439-1.37-.439-.63 0-1.13.137-1.51.41-.36.27-.61.6-.74.97l-2.39-.342c.19-.664.5-1.22.94-1.66.43-.449.96-.785 1.59-1.01a6.12 6.12 0 0 1 2.09-.342c.52 0 1.04.062 1.56.186.52.117 1 .319 1.44.605.43.287.78.671 1.04 1.15.26.48.39 1.08.39 1.81v7.31h-2.47v-1.5h-.08c-.15.3-.37.58-.66.85-.28.26-.63.47-1.06.634-.41.16-.91.25-1.48.245zm.65-1.9c.53 0 .97-.101 1.35-.303.38-.208.67-.481.88-.82.21-.345.31-.719.31-1.12v-1.28c-.8.06-.22.13-.41.19-.19.05-.4.1-.64.15s-.48.08-.71.12c-.23.03-.43.06-.6.08-.38.05-.73.14-1.04.264-.29.12-.53.28-.71.49-.17.21-.26.48-.26.81 0 .475.17.833.52 1.07.34.24.78.36 1.31.361zm10.83 1.86c-.85 0-1.62-.218-2.3-.654-.68-.443-1.22-1.08-1.61-1.92s-.58-1.86-.58-3.06c0-1.22.2-2.24.59-3.08.41-.833.95-1.46 1.62-1.89.68-.43 1.44-.645 2.28-.645.64 0 1.17.108 1.58.323.41.214.74.475.98.781.25.299.43.579.56.84h.11v-5.44h2.56v14.57h-2.51v-1.73h-.16c-.13.27-.32.55-.57.85-.25.29-.58.55-.99.76s-.93.31-1.56.312zm.71-2.11c.55 0 1.01-.147 1.39-.44.38-.299.68-.712.88-1.24.2-.534.3-1.15.3-1.85 0-.71-.1-1.32-.3-1.85-.2-.527-.49-.934-.87-1.22s-.84-.429-1.4-.429-1.04.149-1.42.449c-.39.3-.68.71-.87 1.24s-.29 1.13-.29 1.81.1 1.28.3 1.82c.19.53.48.95.86 1.26s.86.46 1.42.459zm8.39 6c-.35.01-.68-.02-.98-.078a3.77 3.77 0 0 1 -.71-.186l.6-2.13" fill="#000"/><path d="m925.72 466.16c-.99 0-1.87-.242-2.65-.726-.776-.485-1.39-1.17-1.83-2.06-.443-.896-.664-1.96-.664-3.18 0-1.23.221-2.29.664-3.19.443-.896 1.05-1.59 1.83-2.07.776-.485 1.66-.727 2.65-.727.58 0 1.13.086 1.65.258s.99.422 1.41.75c.42.323.76.721 1.04 1.2.282.47.474 1 .579 1.59h-1.41a2.93 2.93 0 0 0 -1.19-1.84 3.13 3.13 0 0 0 -.969-.476 3.72 3.72 0 0 0 -1.11-.164c-.703 0-1.34.179-1.91.539-.573.35-1.03.88-1.37 1.58-.334.69-.5 1.54-.5 2.56 0 1.166 1.85.5 2.55.338" fill="#9192a1"/><path d="m404 628c0-17.67 14.33-32 32-32h240c17.67 0 32 14.33 32 32v196c0 17.67-14.33 32-32 32h-240c-17.67 0-32-14.33-32-32z" fill="#f4f4f4"/><path d="m428 636c0-8.84 7.16-16 16-16h24c8.84 0 16 7.16 16 16v24c0 8.84-7.16 16-16 16h-24c-8.84 0-16-7.16-16-16z" fill="#fff"/><g fill="#000"><path d="m459 658c-.41 0-.75-.34-.75-.75v-18.5c0-.41.34-.75.75-.75s.75.34.75.75v18.5c0 .41-.34.75-.75.75z"/><path d="m450 656h6v-16h-6c-2.21 0-4 1.79-4 4v8c0 2.21 1.79 4 4 4zm12 0h-3v-16h3c2.21 0 4 1.79 4 4v8c0 2.21-1.79 4-4 4z" opacity=".4"/><path d="m451 652.25c-.41 0-.75-.34-.75-.75v-7c0-.41.34-.75.75-.75s.75.34.75.75v7c0 .41-.34.75-.75.75zm-17 50.75h-3.69v-2.29h3.55c1.01 0 1.85-.182 2.53-.547.68-.371 1.19-.928 1.53-1.67.345-.742.52-1.67.517-2.78s-.169-2.04-.507-2.77c-.339-.735-.843-1.28-1.51-1.65-.671-.371-1.5-.557-2.49-.557h-3.7v-2.29h3.86c1.45 0 2.69.29 3.72.869a5.87 5.87 0 0 1 2.4 2.5c.56 1.09.84 2.39.84 3.9s-.28 2.81-.84 3.91a5.89 5.89 0 0 1 -2.42 2.51c-1.05.579-2.31.869-3.79.869zm-2.31-14.55v14.55h-2.64v-14.55zm15.54 14.77c-1.07 0-1.99-.235-2.77-.703a4.76 4.76 0 0 1 -1.82-1.97c-.423-.846-.635-1.83-.635-2.95 0-1.13.212-2.11.635-2.96a4.74 4.74 0 0 1 1.82-1.98c.781-.468 1.71-.703 2.77-.703 1.07 0 1.99.235 2.77.703a4.74 4.74 0 0 1 1.82 1.98c.43.85.645 1.83.645 2.96 0 1.12-.215 2.1-.645 2.95a4.76 4.76 0 0 1 -1.82 1.97c-.781.47-1.71.703-2.77.703zm0-2.07c.592 0 1.08-.157 1.46-.469.38-.319.67-.749.86-1.29.195-.541.29-1.14.293-1.8 0-.671-.098-1.28-.293-1.82-.189-.54-.475-.966-.86-1.28-.384-.319-.872-.478-1.46-.478-.58 0-1.06.159-1.46.478-.391.31-.684.74-.879 1.28a5.48 5.48 0 0 0 -.284 1.82c0 .657.1 1.26.284 1.8.195.54.488.97.879 1.29.39.31.875.47 1.46.469zm11.21 2.07c-1.09 0-2.02-.238-2.8-.713a4.76 4.76 0 0 1 -1.8-1.99c-.416-.847-.625-1.82-.625-2.92 0-1.11.212-2.09.635-2.94a4.75 4.75 0 0 1 1.81-1.98c.781-.482 1.7-.723 2.76-.723.89 0 1.68.163 2.36.489a4.01 4.01 0 0 1 1.63 1.38c.411.58.645 1.27.704 2.06h-2.46a2.48 2.48 0 0 0 -.381-.947 2.03 2.03 0 0 0 -.742-.664c-.3-.163-.658-.244-1.07-.244-.527 0-.989.14-1.39.429-.391.28-.697.68-.918 1.21-.222.53-.332 1.16-.332 1.9 0 .742.11 1.38.322 1.92.215.53.521.95.918 1.24s.863.43 1.4.43c.57 0 1.04-.166 1.44-.499.4-.332.65-.791.76-1.38h2.46c-.59.77-.287 1.46-.684 2.05a4.11 4.11 0 0 1 -1.61 1.4c-.677.33-1.47.498-2.38.498zm12.82-4.79v-6.34h2.57v10.91h-2.49v-1.94h-.118a3.32 3.32 0 0 1 -1.21 1.5c-.559.39-1.25.582-2.07.576-.716 0-1.35-.157-1.89-.469-.541-.319-.967-.785-1.28-1.4-.306-.618-.459-1.36-.459-2.24v-6.95h2.57v6.56c0 .683.19 1.23.566 1.64.384.41.885.61 1.5.606.38 0 .742-.092 1.09-.274.36-.182.65-.456.88-.82.23-.365.34-.824.34-1.38zm4.27 4.58v-10.92h2.45v1.86h.137a2.9 2.9 0 0 1 1.13-1.47c.527-.358 1.15-.537 1.88-.537.74 0 1.37.179 1.88.537s.86.847 1.06 1.47h.117a3.08 3.08 0 0 1 1.23-1.46c.573-.364 1.26-.547 2.05-.547 1 0 1.82.319 2.45.957.64.632.96 1.56.957 2.77v7.33h-2.58v-6.93c0-.67-.183-1.16-.547-1.47-.358-.319-.798-.479-1.32-.479-.619 0-1.1.196-1.45.586-.345.38-.517.88-.517 1.49v6.803h-2.54v-7.03c0-.567-.166-1.02-.498-1.35-.333-.338-.772-.508-1.32-.508-.371 0-.709.1-1.01.283a2.05 2.05 0 0 0 -.733.79 2.5 2.5 0 0 0 -.264 1.17v6.645h-2.57zm21.88.215c-1.09 0-2.04-.228-2.83-.684a4.67 4.67 0 0 1 -1.84-1.95c-.423-.84-.635-1.83-.635-2.97 0-1.13.212-2.11.635-2.96.423-.852 1.02-1.52 1.79-1.99.769-.475 1.67-.713 2.71-.713a5.59 5.59 0 0 1 1.9.323c.606.21 1.14.546 1.6.996.47.449.84 1.02 1.1 1.72.266.69.4 1.51.4 2.47v.801h-8.95v-1.73h7.67l-1.2.508c0-.618-.094-1.16-.283-1.61a2.39 2.39 0 0 0 -.84-1.08c-.371-.261-.833-.391-1.39-.391-.554 0-1.03.13-1.42.391-.391.26-.687.61-.889 1.05a3.44 3.44 0 0 0 -.303 1.46v1.2c0 .664.11 1.23.342 1.71.234.47.56.83.977 1.07.423.25.914.37 1.47.371.37 0 .697-.53-.156.31-.105.57-.261.78-.469.22"/></g><path d="m429.03 758v-11.64h3.94c.911 0 1.66.157 2.23.469.58.307 1.02.732 1.3 1.27.281.54.422 1.15.422 1.84 0 .682-.141 1.29-.422 1.82-.276.53-.706.95-1.29 1.25-.578.3-1.32.445-2.23.445h-3.17v-1.26h3.13c.624 0 1.13-.092 1.51-.274s.66-.44.83-.773c.17-.339.26-.74.26-1.2 0-.469-.088-.878-.265-1.23a1.79 1.79 0 0 0 -.828-.813c-.381-.192-.886-.289-1.52-.289h-2.48v10.385h-1.41zm6.7 0-2.81-5.23h1.59l2.86 5.23zm6.17.188c-.838 0-1.56-.188-2.18-.563a3.71 3.71 0 0 1 -1.41-1.57c-.328-.677-.492-1.46-.492-2.35 0-.896.16-1.69.484-2.37.323-.682.78-1.22 1.36-1.6.588-.385 1.28-.578 2.06-.578.45 0 .904.08 1.35.227.45.151.85.396 1.22.734.37.339.66.787.88 1.34.218.56.328 1.24.328 2.06v.578h-6.74v-1.16h6.01l-.617.44c0-.583-.091-1.1-.274-1.55a2.35 2.35 0 0 0 -.82-1.07c-.359-.26-.807-.391-1.34-.391-.536 0-.997.13-1.38.399-.381.26-.672.6-.875 1.02a3.08 3.08 0 0 0 -.305 1.36v.765c0 .662.11 1.22.344 1.68.229.46.549.81.961 1.05.411.23.888.35 1.43.351a2.9 2.9 0 0 0 .953-.148c.287-.104.53-.258.74-.461.21-.208.37-.464.48-.766l1.3.375a2.86 2.86 0 0 1 -.687 1.16 3.33 3.33 0 0 1 -1.19.773 4.42 4.42 0 0 1 -1.59.274zm8.41 0c-.812 0-1.51-.193-2.11-.579a3.88 3.88 0 0 1 -1.37-1.6c-.318-.677-.477-1.45-.477-2.32 0-.891.16-1.68.493-2.35.328-.682.79-1.22 1.38-1.6.593-.385 1.28-.578 2.07-.578.61 0 1.17.115 1.66.344.5.224.9.542 1.21.953.32.412.51.891.59 1.44h-1.34a2.08 2.08 0 0 0 -.367-.75 1.89 1.89 0 0 0 -.703-.563c-.287-.146-.628-.219-1.02-.219-.52 0-.976.14-1.37.407-.39.27-.695.65-.914 1.15-.219.49-.328 1.06-.328 1.73 0 .671.11 1.26.32 1.76.214.5.516.89.907 1.16.396.28.856.41 1.38.414.53 0 .977-.135 1.35-.406a1.94 1.94 0 0 0 .742-1.12h1.34c-.73.52-.26.98-.562 1.39a3.19 3.19 0 0 1 -1.18.984c-.485.24-1.05.36-1.7.36zm8.36 0c-.839 0-1.56-.188-2.18-.563a3.71 3.71 0 0 1 -1.41-1.57c-.328-.677-.492-1.46-.492-2.35 0-.896.16-1.69.484-2.37.323-.682.78-1.22 1.36-1.6.588-.385 1.28-.578 2.06-.578.45 0 .904.08 1.35.227.45.151.85.396 1.22.734.37.339.66.787.88 1.34.219.56.328 1.24.328 2.06v.578h-6.73v-1.16h6.01l-.617.44c0-.583-.092-1.1-.274-1.55a2.36 2.36 0 0 0 -.82-1.07c-.36-.26-.808-.391-1.34-.391s-.997.13-1.38.399c-.38.26-.672.6-.875 1.02a3.1 3.1 0 0 0 -.304 1.36v.765c0 .662.11 1.22.343 1.68.229.46.55.81.961 1.05.412.23.888.35 1.43.351a2.9 2.9 0 0 0 .953-.148c.286-.104.53-.258.74-.461.21-.208.37-.464.48-.766l1.3.375a2.86 2.86 0 0 1 -.688 1.16 3.33 3.33 0 0 1 -1.19.773 4.42 4.42 0 0 1 -1.59.274zm4.88-.188v-8.73h1.33v8.73zm.672-10.19a.943.94 0 0 1 -.672-.265.85.848 0 0 1 -.281-.641c0-.25.09-.463.28-.64a.944.94 0 0 1 .672-.266c.26 0 .484.09.672.27a.85.85 0 0 1 .281.64c0 .25-.94.46-.281.64a.946.95 0 0 1 -.672.26zm2.38 13.45v-12h1.28v1.39h.156c.099-.151.24-.344.41-.578.18-.239.43-.453.77-.64.33-.188.78-.282 1.35-.282.74 0 1.38.185 1.94.555.56.365.99.885 1.3 1.56.317.67.476 1.47.476 2.38 0 .922-.156 1.72-.469 2.41-.312.68-.747 1.2-1.3 1.57-.557.37-1.2.555-1.93.555-.557 0-1-.094-1.34-.282-.338-.192-.599-.409-.781-.648a10.52 10.52 0 0 1 -.422-.602h-.109v4.61h-1.33zm3.81-4.28c.558 0 1.02-.148 1.4-.445.38-.302.66-.706.84-1.21.193-.505.29-1.07.29-1.69a4.65 4.65 0 0 0 -.282-1.66c-.187-.495-.468-.888-.844-1.18-.369-.292-.838-.438-1.41-.438-.547 0-1.138-1.38.414-.37.27-.651.65-.843 1.15-.188.49-.282 1.06-.282 1.72 0 .656.1 1.24.289 1.74.193.5.474.89.844 1.18.375" fill="#9192a1"/><path d="m732 628c0-17.67 14.33-32 32-32h240c17.67 0 32 14.33 32 32v196c0 17.67-14.33 32-32 32h-240c-17.67 0-32-14.33-32-32z" fill="#f4f4f4"/><path d="m756 636c0-8.84 7.16-16 16-16h24c8.84 0 16 7.16 16 16v24c0 8.84-7.16 16-16 16h-24c-8.84 0-16-7.16-16-16z" fill="#fff"/><path d="m784 658c5.52 0 10-4.48 10-10s-4.48-10-10-10-10 4.48-10 10 4.48 10 10 10z" stroke="#000" stroke-linecap="round" stroke-linejoin="round" stroke-width="1.5"/><g opacity=".4" stroke-linecap="round" stroke-linejoin="round" stroke-width="1.5"><path d="m780 639h1a28.42 28.42 0 0 0 0 18h-1m7-18a28.42 28.42 0 0 1 0 18" stroke="#000"/><path d="m775 652v-1a28.42 28.42 0 0 0 18 0v1" stroke="#000"/><path d="m775 645a28.42 28.42 0 0 1 18 0" stroke="#292d32"/></g><path d="m757.05 688.45h3.23l4.32 10.54h.166l4.33-10.54h3.27v14.55h-2.59v-10h-.117l-4.04 9.95h-1.89l-4-9.97h-.136v10.02h-2.54v-14.55zm21.87 14.77c-1.07 0-1.99-.235-2.77-.703a4.76 4.76 0 0 1 -1.82-1.97c-.423-.846-.635-1.83-.635-2.95 0-1.13.212-2.11.635-2.96.43-.853 1.03-1.51 1.82-1.98.781-.468 1.71-.703 2.77-.703s1.99.235 2.77.703c.782.47 1.39 1.13 1.82 1.98s.644 1.83.644 2.96c0 1.12-.214 2.1-.644 2.95a4.76 4.76 0 0 1 -1.82 1.97c-.781.47-1.71.703-2.77.703zm0-2.07c.592 0 1.08-.157 1.47-.469.38-.319.67-.749.86-1.29.196-.541.29-1.14.293-1.8 0-.671-.097-1.28-.293-1.82-.189-.54-.475-.966-.859-1.28-.384-.319-.873-.478-1.47-.478-.579 0-1.06.159-1.46.478-.391.31-.684.74-.879 1.28-.189.54-.283 1.15-.283 1.82 0 .657.09 1.26.283 1.8.195.54.488.97.879 1.29.391.31.876.47 1.46.469zm12.24 2.05c-.618 0-1.14-.104-1.55-.312a3.35 3.35 0 0 1 -.996-.762 4.32 4.32 0 0 1 -.567-.85h-.156v1.724h-2.52v-14.55h2.57v5.44h.107c.13-.261.32-.541.56-.84.24-.306.57-.567.98-.781.42-.215.95-.323 1.59-.323.84 0 1.6.215 2.28.645s1.21 1.06 1.61 1.89c.404.83.605 1.86.605 3.08 0 1.2-.195 2.22-.586 3.06-.39.84-.927 1.48-1.61 1.92-.677.44-1.45.654-2.31.654zm-.703-2.11c.567 0 1.04-.153 1.42-.459s.67-.726.87-1.26c.196-.534.29-1.14.293-1.82s-.097-1.28-.293-1.81c-.195-.527-.481-.941-.859-1.24-.378-.3-.853-.449-1.43-.449-.553 0-1.02.143-1.41.429-.378.29-.667.69-.869 1.22-.195.52-.293 1.14-.293 1.85 0 .703.1 1.32.293 1.85.202.53.495.94.879 1.24.384.29.849.44 1.4.44zm6.43 1.91v-10.92h2.57v10.92zm1.29-12.45a1.49 1.49 0 0 1 -1.05-.41 1.3 1.3 0 0 1 -.44-.987c0-.39.15-.722.44-.996a1.49 1.49 0 0 1 1.05-.41c.404 0 .752.14 1.04.41.29.274.44.602.44.987" fill="#000"/><path d="m760.72 758.2c-.834 0-1.55-.133-2.16-.398-.61-.271-1.09-.646-1.44-1.12a3.26 3.26 0 0 1 -.586-1.68h1.45c.42.44.19.8.446 1.09.26.29.591.5.992.64s.833.21 1.3.211c.54 0 1.02-.089 1.45-.266s.77-.425 1.02-.742c.25-.318.37-.69.37-1.12 0-.385-.109-.697-.328-.937a2.42 2.42 0 0 0 -.859-.586 8.74 8.74 0 0 0 -1.14-.398l-1.42-.407c-.911-.26-1.63-.632-2.16-1.12-.526-.489-.789-1.13-.789-1.91 0-.651.17-1.22.524-1.7.354-.49.83-.87 1.43-1.14a4.89 4.89 0 0 1 2.02-.406c.75 0 1.42.136 2 .406.58.266 1.05.631 1.39 1.09.343.46.526.98.547 1.56h-1.38a1.78 1.78 0 0 0 -.829-1.34c-.479-.318-1.07-.477-1.78-.477-.51 0-.958.08-1.34.25-.386.17-.685.4-.899.69-.213.29-.32.62-.32 1 0 .411.13.744.38 1 .255.25.557.45.906.59.354.14.674.25.961.34l1.17.329c.302.08.638.2 1.01.336.38.14.73.33 1.08.57.35.239.63.547.86.922.22.37.34.828.34 1.38 0 .625-.164 1.19-.492 1.7-.328.5-.805.91-1.43 1.21s-1.39.445-2.28.445zm9.12-.015c-.813 0-1.52-.193-2.11-.579a3.88 3.88 0 0 1 -1.37-1.6c-.318-.677-.476-1.45-.476-2.32 0-.891.16-1.68.492-2.35.328-.682.79-1.22 1.38-1.6.594-.385 1.28-.578 2.07-.578.62 0 1.17.115 1.66.344.5.224.9.542 1.21.953.32.412.51.891.59 1.44h-1.34a2.1 2.1 0 0 0 -.368-.75 1.89 1.89 0 0 0 -.703-.563c-.286-.146-.627-.219-1.02-.219-.521 0-.977.14-1.37.407-.391.27-.696.65-.915 1.15-.218.49-.328 1.06-.328 1.73 0 .671.11 1.26.321 1.76.213.5.515.89.906 1.16.396.28.857.41 1.38.414s.976-.135 1.35-.406c.375-.276.62-.651.74-1.12h1.34c-.73.52-.26.98-.562 1.39a3.18 3.18 0 0 1 -1.18.984c-.484.24-1.05.36-1.7.36zm7.26.015a3.57 3.57 0 0 1 -1.51-.312 2.59 2.59 0 0 1 -1.08-.922c-.265-.401-.398-.886-.398-1.45 0-.5.1-.904.3-1.21.198-.313.46-.558.79-.735a4.18 4.18 0 0 1 1.09-.406c.401-.88.8-.159 1.21-.211.53-.68.96-.12 1.29-.156.33-.37.58-.99.73-.188.16-.88.23-.239.24-.453v-.047c0-.557-.154-.989-.461-1.3-.302-.312-.763-.468-1.38-.468-.636 0-1.14.14-1.5.422-.365.28-.62.57-.766.89l-1.28-.453c.229-.531.53-.945.91-1.24a3.53 3.53 0 0 1 1.25-.625c.453-.12.9-.18 1.34-.18.28 0 .604.03.969.1.364.06.718.2 1.06.406.35.203.64.513.86.93.23.411.34.963.34 1.66v5.748h-1.34v-1.19h-.063a2.32 2.32 0 0 1 -.453.61 2.79 2.79 0 0 1 -.852.55c-.349.15-.778.23-1.29.226zm.203-1.2c.532 0 .98-.104 1.34-.312a2.16 2.16 0 0 0 .828-.805 2.09 2.09 0 0 0 .282-1.04v-1.24c-.58.07-.183.13-.375.19a6.58 6.58 0 0 1 -.657.14c-.244.04-.484.08-.718.11l-.563.06a5.07 5.07 0 0 0 -.976.23 1.73 1.73 0 0 0 -.735.45c-.182.2-.273.47-.273.81 0 .463.17.815.51 1.05.349.24.792.35 1.33.352zm6.84-4.25v5.25h-1.33v-8.73h1.28v1.38h.125c.204-.448.51-.808.93-1.08.417-.27.96-.406 1.62-.406.59 0 1.1.12 1.55.36.44.239.79.604 1.03 1.09.25.48.375 1.1.375 1.84v5.546h-1.33v-5.45c0-.682-.179-1.22-.539-1.6-.359-.39-.849-.586-1.47-.586-.427 0-.809.09-1.15.282a2.04 2.04 0 0 0 -.805.81c-.192.35-.289.79-.289 1.3zm14.58 5.44c-.786 0-1.48-.188-2.07-.563-.594-.375-1.06-.901-1.39-1.58-.328-.677-.492-1.46-.492-2.36 0-.912.16-1.71.492-2.38.334-.683.8-1.21 1.39-1.59s1.28-.563 2.07-.563c.792 0 1.49.188 2.08.563s1.06.903 1.39 1.59c.333.68.5 1.47.5 2.38 0 .895-.167 1.68-.5 2.36s-.797 1.2-1.39 1.58-1.29.563-2.08.563zm0-1.2c.605 0 1.1-.153 1.49-.461a2.74 2.74 0 0 0 .859-1.21 4.62 4.62 0 0 0 .281-1.62c0-.589-.093-1.14-.281-1.64a2.74 2.74 0 0 0 -.859-1.22c-.386-.312-.88-.469-1.49-.469-.593 0-1.08.157-1.47.469a2.74 2.74 0 0 0 -.86 1.22 4.69 4.69 0 0 0 -.281 1.64c0 .578.09 1.12.281 1.62.188.5.474.9.86 1.21.385.31.875.46 1.47.461zm6.59-4.23v5.24h-1.313v-8.73h1.28v1.38h.125c.203-.448.51-.808.93-1.08.417-.27.96-.406 1.62-.406.59 0 1.1.12 1.55.36.44.239.79.604 1.03 1.09.25.48.375 1.1.375 1.84v5.546h-1.33v-5.45c0-.682-.18-1.22-.539-1.6-.359-.39-.849-.586-1.47-.586-.427 0-.81.09-1.15.282a2.04 2.04 0 0 0 -.805.81c-.193.35-.289.79-.289 1.3zm14.83-3.48v1.14h-4.51v-1.14zm-3.2-2.08h1.33v8.31c0 .453.09.786.28 1 .188.21.485.31.891.31.089 0 .18-.5.27-.15.1-.11.21-.26.32-.047l.281 1.2a2.22 2.22 0 0 1 -.461.11 3.03 3.03 0 0 1 -.539.05c-.703 0-1.28-.208-1.72-.625-.437-.416-.656-.958-.656-1.62v-8.67zm6 5.56v5.24h-1.33v-11.64h1.33v4.28h.125c.203-.453.51-.813.91-1.08.412-.27.96-.406 1.65-.406.59 0 1.11.12 1.56.36.45.234.8.596 1.05 1.09.25.48.375 1.1.375 1.85v5.546h-1.34v-5.45c0-.698-.179-1.24-.539-1.62-.359-.381-.857-.571-1.49-.571a2.42 2.42 0 0 0 -1.18.282 2.08 2.08 0 0 0 -.82.81c-.198.35-.297.79-.297 1.3zm11.057 5.43c-.839 0-1.56-.188-2.18-.563a3.71 3.71 0 0 1 -1.41-1.57c-.328-.677-.492-1.46-.492-2.35 0-.896.16-1.69.484-2.37.323-.682.78-1.22 1.36-1.6.588-.385 1.28-.578 2.06-.578.45 0 .904.08 1.35.227a3.35 3.35 0 0 1 1.22.734c.37.34.664.79.883 1.34.219.56.328 1.24.328 2.06v.578h-6.73v-1.16h6.01l-.617.44c0-.583-.092-1.1-.274-1.55a2.36 2.36 0 0 0 -.82-1.07c-.36-.26-.807-.391-1.34-.391-.536 0-.997.13-1.38.399-.38.26-.672.6-.875 1.02a3.1 3.1 0 0 0 -.304 1.36v.765c0 .662.11 1.22.343 1.68.23.46.55.81.961 1.05.412.23.888.35 1.43.351a2.9 2.9 0 0 0 .953-.148c.287-.104.53-.258.74-.461.21-.208.37-.464.48-.766l1.3.375a2.86 2.86 0 0 1 -.688 1.16 3.32 3.32 0 0 1 -1.19.773 4.42 4.42 0 0 1 -1.59.274zm12.14 3.27c-.974 0-1.75-.177-2.31-.531-.562-.354-.979-.761-1.25-1.22l1.06-.75c.119.16.273.34.461.55.187.21.442.39.765.54s.748.23 1.27.227c.7 0 1.28-.17 1.74-.508.46-.339.69-.873.7-1.6v-1.76h-.125a6.44 6.44 0 0 1 -.414.59c-.177.23-.435.43-.773.62-.334.18-.787.26-1.36.265-.703 0-1.33-.166-1.89-.5-.558-.333-1-.817-1.33-1.45-.323-.635-.485-1.41-.485-2.31 0-.896.16-1.68.469-2.34.318-.667.76-1.18 1.32-1.55.563-.37 1.21-.555 1.95-.555.57 0 1.02.094 1.35.282.34.187.6.401.77.64.18.234.32.427.42.578h.141v-1.39h1.28v8.98c0 .75-.169 1.36-.508 1.83-.333.47-.786.82-1.36 1.04-.568.22-1.2.336-1.9.336zm-.047-4.8c.807 0 1.42-.273 1.85-.82s.65-1.3.649-2.27c0-.63-.094-1.18-.282-1.66-.187-.479-.468-.854-.843-1.12-.37-.276-.828-.414-1.38-.414-.568 0-1.04.146-1.42.438a2.6 2.6 0 0 0 -.844 1.16 4.44 4.44 0 0 0 -.281 1.61c0 .605.09 1.14.281 1.61.193.46.479.83.86 1.09.38.26.848.39 1.41.39zm9.06 1.53c-.786 0-1.48-.188-2.07-.563-.594-.375-1.06-.901-1.39-1.58-.328-.677-.492-1.46-.492-2.36 0-.912.16-1.71.492-2.38.334-.683.8-1.21 1.39-1.59s1.28-.563 2.07-.563c.792 0 1.49.188 2.08.563s1.06.903 1.39 1.59c.333.68.5 1.47.5 2.38 0 .895-.167 1.68-.5 2.36s-.797 1.2-1.39 1.58-1.29.563-2.08.563zm0-1.2c.604 0 1.1-.153 1.49-.461.38-.307.67-.711.86-1.21a4.62 4.62 0 0 0 .281-1.62c0-.589-.093-1.14-.281-1.64a2.75 2.75 0 0 0 -.859-1.22c-.386-.312-.881-.469-1.49-.469-.594 0-1.08.157-1.47.469a2.74 2.74 0 0 0 -.86 1.22 4.69 4.69 0 0 0 -.281 1.64c0 .578.09 1.12.281 1.62.188.5.474.9.86 1.21.385.31.874.46 1.47.461zm9.02 1.02v-8.73h1.33v8.72h-1.33zm.672-10.19a.943.94 0 0 1 -.672-.265.85.848 0 0 1 -.281-.641c0-.25.09-.463.28-.64a.944.94 0 0 1 .672-.266c.26 0 .484.09.672.27a.85.85 0 0 1 .281.64c0 .25-.94.46-.281.64a.946.95 0 0 1 -.672.26zm3.7 4.94v5.24h-1.33v-8.73h1.28v1.38h.125c.203-.448.51-.808.93-1.08.416-.27.95-.406 1.62-.406.59 0 1.1.12 1.55.36.44.239.79.604 1.03 1.09.25.48.375 1.1.375 1.84v5.546h-1.33v-5.45c0-.682-.18-1.22-.539-1.6-.36-.39-.849-.586-1.47-.586-.427 0-.81.09-1.15.282a2.04 2.04 0 0 0 -.805.81c-.193.35-.289.79-.289 1.3zm14.83-3.48v1.14h-4.52v-1.14zm-3.2-2.08h1.33v8.31c0 .453.09.786.28 1 .188.21.485.31.891.31.088 0 .18-.5.27-.15.1-.11.21-.26.32-.047l.281 1.2a2.22 2.22 0 0 1 -.461.11 3.03 3.03 0 0 1 -.539.05c-.703 0-1.28-.208-1.72-.625-.437-.416-.656-.958-.656-1.62v-8.67zm6 5.56v5.24h-1.33v-11.64h1.33v4.28h.125c.203-.453.51-.813.91-1.08.411-.27.96-.406 1.65-.406.59 0 1.11.12 1.56.36.45.234.8.596 1.05 1.09.25.48.375 1.1.375 1.85v5.546h-1.345v-5.45c0-.698-.18-1.24-.539-1.62-.359-.381-.857-.571-1.49-.571a2.42 2.42 0 0 0 -1.18.282 2.08 2.08 0 0 0 -.82.81c-.198.35-.297.79-.297 1.3zm11.05 5.44c-.839 0-1.56-.188-2.18-.563a3.71 3.71 0 0 1 -1.41-1.57c-.328-.677-.492-1.46-.492-2.35 0-.896.16-1.69.484-2.37.323-.682.78-1.22 1.36-1.6.589-.385 1.28-.578 2.06-.578a4.2 4.2 0 0 1 1.35.227c.448.15.855.4 1.22.734.37.339.66.787.88 1.34.219.56.328 1.24.328 2.06v.578h-6.73v-1.16h6.01l-.618.44c0-.583-.091-1.1-.273-1.55a2.36 2.36 0 0 0 -.82-1.07c-.36-.26-.808-.391-1.34-.391-.537 0-.998.13-1.38.399-.38.26-.672.6-.875 1.02a3.1 3.1 0 0 0 -.305 1.36v.765c0 .662.12 1.22.344 1.68.229.46.55.81.961 1.05.412.23.888.35 1.43.351.35 0 .666-.49.95-.148.29-.104.53-.258.74-.461.21-.208.37-.464.48-.766l1.3.375a2.86 2.86 0 0 1 -.688 1.16 3.33 3.33 0 0 1 -1.19.773 4.41 4.41 0 0 1 -1.59.274zm11.19.015a3.58 3.58 0 0 1 -1.51-.312 2.59 2.59 0 0 1 -1.08-.922c-.265-.401-.398-.886-.398-1.45 0-.5.1-.904.3-1.21.198-.313.46-.558.79-.735a4.18 4.18 0 0 1 1.09-.406c.401-.88.8-.159 1.21-.211.53-.68.96-.12 1.29-.156.33-.37.58-.99.73-.188.16-.88.23-.239.23-.453v-.047c0-.557-.153-.989-.46-1.3-.303-.312-.763-.468-1.38-.468-.636 0-1.14.14-1.5.422-.365.28-.62.57-.766.89l-1.28-.453c.229-.531.53-.945.91-1.24a3.53 3.53 0 0 1 1.25-.625c.453-.12.9-.18 1.34-.18.28 0 .604.03.969.1.364.06.718.2 1.06.406.35.203.64.513.86.93.23.411.34.963.34 1.66v5.733h-1.34v-1.19h-.07c-.89.19-.24.39-.453.61a2.81 2.81 0 0 1 -.852.55c-.349.15-.778.23-1.29.226zm.203-1.2c.532 0 .98-.104 1.34-.312a2.16 2.16 0 0 0 .828-.805c.188-.334.28-.68.28-1.04v-1.24c-.57.07-.182.13-.374.19a6.58 6.58 0 0 1 -.657.14c-.245.04-.484.08-.719.11l-.562.06a5.1 5.1 0 0 0 -.977.23 1.73 1.73 0 0 0 -.734.45c-.182.2-.273.47-.273.81 0 .463.17.815.51 1.05.349.24.792.35 1.33.352zm5.52 4.27v-12h1.28v1.39h.156c.099-.151.24-.344.42-.578.18-.239.43-.453.76-.64.33-.188.78-.282 1.35-.282.73 0 1.38.185 1.94.555.56.365.99.885 1.3 1.56.318.67.476 1.47.476 2.38 0 .922-.156 1.72-.468 2.41-.313.68-.748 1.2-1.3 1.57-.557.37-1.2.555-1.93.555-.557 0-1-.094-1.34-.282a2.55 2.55 0 0 1 -.782-.648 10.52 10.52 0 0 1 -.422-.602h-.109v4.61h-1.33zm3.81-4.28c.557 0 1.02-.148 1.4-.445.38-.302.66-.706.84-1.21a4.72 4.72 0 0 0 .289-1.69c0-.615-.094-1.17-.281-1.66-.188-.495-.469-.888-.844-1.18-.37-.292-.839-.438-1.41-.438-.547 0-1.01.138-1.38.414-.369.27-.651.65-.843 1.15-.188.49-.281 1.06-.281 1.72 0 .656.1 1.24.289 1.74.192.5.474.89.843 1.18.375.28.831.42 1.37.422zm5.17 4.28v-12h1.28v1.39h.156c.099-.151.24-.344.41-.578.18-.239.43-.453.77-.64.33-.188.78-.282 1.35-.282.73 0 1.38.185 1.94.555.56.365.99.885 1.3 1.56.318.67.477 1.47.477 2.38 0 .922-.156 1.72-.469 2.41-.312.68-.747 1.2-1.3 1.57-.557.37-1.2.555-1.93.555-.558 0-1-.094-1.34-.282-.339-.192-.599-.409-.781-.648a10.03 10.03 0 0 1 -.422-.602h-.109v4.61h-1.33zm3.81-4.28c.557 0 1.02-.148 1.4-.445.38-.302.66-.706.84-1.21a4.7 4.7 0 0 0 .289-1.69c0-.615-.094-1.17-.281-1.66-.188-.495-.469-.888-.844-1.18-.37-.292-.838-.438-1.41-.438-.547 0-1.138-1.38.414-.37.27-.651.65-.844 1.15-.187.49-.281 1.06-.281 1.72 0 .656.1 1.24.289 1.74.193.5.474.89.844 1.18.375" fill="#9192a1"/><path d="m602.5 945.6c0-8.96 0-13.44 1.74-16.86a16 16 0 0 1 6.99-6.99c3.43-1.75 7.91-1.75 16.87-1.75h183.8c8.96 0 13.44 0 16.86 1.74a16 16 0 0 1 6.99 6.99c1.74 3.42 1.74 7.9 1.74 16.86v4.8c0 8.96 0 13.44-1.74 16.86a16 16 0 0 1 -6.99 6.99c-3.42 1.76-7.9 1.76-16.86 1.76h-183.8c-8.96 0-13.44 0-16.86-1.74a16 16 0 0 1 -6.99-6.99c-1.74-3.42-1.74-7.9-1.74-16.86v-4.8z" fill="#000"/><path d="m656.39 954.16c-1.02 0-1.94-.237-2.74-.711-.802-.474-1.43-1.16-1.9-2.05-.458-.89-.688-1.96-.688-3.21 0-1.26.232-2.33.696-3.22.469-.896 1.1-1.58 1.91-2.06.807-.474 1.72-.711 2.73-.711.64 0 1.24.091 1.8.274.56.182 1.06.45 1.5.804.44.349.79.779 1.07 1.29.281.51.466 1.08.554 1.73h-2.12a2.57 2.57 0 0 0 -.336-.938c-.162-.27-.365-.5-.61-.687a2.42 2.42 0 0 0 -.82-.43 3.22 3.22 0 0 0 -.992-.148c-.636 0-1.2.159-1.69.476-.489.31-.872.78-1.15 1.39-.276.61-.414 1.35-.414 2.23 0 .885.14 1.63.414 2.24.281.6.664 1.06 1.15 1.38.49.31 1.05.461 1.68.461.35 0 .674-.45.98-.133.3-.94.58-.232.82-.414.25-.188.46-.412.62-.672.17-.266.28-.57.35-.914h2.12a4.61 4.61 0 0 1 -1.55 2.85 4.75 4.75 0 0 1 -1.49.86 5.46 5.46 0 0 1 -1.89.312zm8.24-11.8v11.64h-2.06v-11.64zm4.04 11.82a3.64 3.64 0 0 1 -1.5-.297 2.43 2.43 0 0 1 -1.05-.891c-.255-.39-.383-.872-.383-1.45 0-.49.09-.896.27-1.22a2.1 2.1 0 0 1 .742-.773 3.84 3.84 0 0 1 1.07-.438 7.91 7.91 0 0 1 1.23-.219c.515-.57.93-.106 1.25-.148.32-.42.55-.109.69-.203.15-.94.22-.24.22-.438v-.039c0-.422-.125-.75-.375-.984s-.615-.352-1.09-.352c-.505 0-.906.11-1.2.328-.292.22-.49.48-.594.77l-1.91-.274a3.04 3.04 0 0 1 .75-1.33 3.27 3.27 0 0 1 1.27-.804 4.88 4.88 0 0 1 1.67-.274c.416 0 .833.05 1.25.149.42.93.8.255 1.15.484s.63.537.84.922.31.867.31 1.45v5.851h-1.98v-1.2h-.063a2.56 2.56 0 0 1 -.531.68 2.58 2.58 0 0 1 -.844.51c-.333.13-.729.2-1.19.196zm.523-1.52c.417 0 .776-.081 1.08-.242.3-.167.54-.386.7-.656.17-.276.25-.576.25-.899v-1.02a1.1 1.1 0 0 1 -.329.15 6.12 6.12 0 0 1 -.515.12c-.193.04-.383.07-.571.09-.182.03-.341.05-.476.06a3.41 3.41 0 0 0 -.828.21c-.24.09-.43.22-.57.39-.141.17-.211.38-.211.65 0 .38.14.666.41.859.28.193.63.289 1.05.289zm5.6 1.34v-8.73h2.06v8.73zm1.03-9.96c-.328 0-.609-.109-.844-.328a1.04 1.04 0 0 1 -.351-.789c0-.313.12-.578.35-.797.24-.219.52-.328.84-.328s.602.11.836.33.352.48.352.79c0 .313-.118.58-.352.8a1.18 1.18 0 0 1 -.836.33zm2.55 9.96v-8.73h1.96v1.49h.109c.183-.5.49-.891.91-1.17.421-.287.92-.43 1.5-.43.59 0 1.09.143 1.5.43.41.286.69.677.85 1.17h.094c.198-.485.53-.873.98-1.16.459-.292 1-.438 1.64-.438.8 0 1.46.255 1.96.766.51.505.76 1.25.765 2.22v5.852h-2.06v-5.55c0-.536-.146-.93-.438-1.18-.286-.255-.638-.382-1.05-.382-.495 0-.88.16-1.16.468-.277.31-.415.7-.415 1.19v5.454h-2.03v-5.62c0-.453-.133-.813-.398-1.08-.266-.271-.617-.406-1.05-.406-.297 0-.568.08-.812.23a1.63 1.63 0 0 0 -.586.63 2 2 0 0 0 -.211.94v5.306h-2.06zm18.45 3.27a3.71 3.71 0 0 1 -.781-.063 3.08 3.08 0 0 1 -.57-.148l.484-1.6.101.03c.417.11.771.12 1.06.24.3-.94.53-.378.71-.852l.172-.468-3.16-8.92h2.18l2.01 6.6h.094l2.02-6.6h2.2l-3.5 9.79a3.92 3.92 0 0 1 -.641 1.19 2.55 2.55 0 0 1 -.984.76c-.391.18-.854.27-1.39.266zm10.85-3.09c-.854 0-1.59-.188-2.22-.563a3.81 3.81 0 0 1 -1.45-1.58c-.339-.677-.508-1.46-.508-2.36 0-.901.17-1.69.508-2.37a3.79 3.79 0 0 1 1.45-1.59c.625-.375 1.36-.563 2.22-.563.85 0 1.59.188 2.22.563.62.375 1.11.903 1.45 1.59.343.68.515 1.47.515 2.37 0 .896-.172 1.68-.515 2.36a3.81 3.81 0 0 1 -1.45 1.58c-.625.38-1.36.563-2.22.563zm0-1.66c.474 0 .864-.125 1.17-.375.31-.256.54-.599.69-1.03.156-.432.23-.911.23-1.44 0-.537-.078-1.02-.234-1.45-.151-.433-.38-.774-.687-1.02-.308-.255-.698-.383-1.17-.383-.464 0-.852.13-1.16.383-.313.25-.547.59-.704 1.02a4.38 4.38 0 0 0 -.226 1.45c0 .526.08 1.226 1.44.157.43.391.78.704 1.03.312" fill="#fff"/><path d="m0 976h1440v80h-1440z" fill="url(#b)"/></svg>