<svg xmlns="http://www.w3.org/2000/svg" width="327" height="126" fill="none" viewBox="0 0 327 126">
  <path fill="#fff" d="M14.707 29.883c-2.67 0-5.02-.606-7.05-1.817-2.019-1.21-3.595-2.93-4.727-5.156-1.133-2.226-1.7-4.87-1.7-7.93 0-3.125.58-5.807 1.739-8.046 1.172-2.24 2.76-3.952 4.765-5.137C9.74.599 12.012 0 14.551 0c1.614 0 3.112.234 4.492.703 1.393.469 2.63 1.14 3.71 2.012a10.873 10.873 0 0 1 2.657 3.066 11.137 11.137 0 0 1 1.406 3.907h-5.37a7.587 7.587 0 0 0-.977-2.07 6.058 6.058 0 0 0-1.485-1.563 6.024 6.024 0 0 0-1.953-.996c-.729-.222-1.536-.332-2.422-.332-1.55 0-2.936.397-4.16 1.191-1.224.781-2.187 1.934-2.89 3.457-.69 1.51-1.036 3.36-1.036 5.547 0 2.2.345 4.062 1.036 5.586.69 1.523 1.653 2.682 2.89 3.476 1.237.782 2.67 1.172 4.297 1.172 1.471 0 2.748-.28 3.828-.84a6.058 6.058 0 0 0 2.5-2.421c.586-1.042.88-2.273.88-3.692l1.21.195h-7.91v-4.12H27.07v3.476c0 2.5-.527 4.655-1.582 6.465-1.054 1.81-2.52 3.21-4.394 4.199-1.862.977-3.991 1.465-6.387 1.465Zm25.01.039c-2.187 0-4.075-.456-5.664-1.367-1.588-.925-2.812-2.227-3.672-3.907-.846-1.68-1.27-3.658-1.27-5.937 0-2.253.424-4.225 1.27-5.918.847-1.706 2.038-3.034 3.575-3.984 1.536-.95 3.346-1.426 5.43-1.426 1.34 0 2.61.215 3.808.644a8.738 8.738 0 0 1 3.203 1.993c.937.898 1.673 2.044 2.207 3.437.534 1.38.8 3.027.8 4.941V20h-17.89v-3.457h15.332l-2.402 1.016c0-1.237-.19-2.312-.567-3.223-.377-.925-.937-1.647-1.68-2.168-.742-.52-1.666-.781-2.773-.781-1.107 0-2.05.26-2.832.781a4.94 4.94 0 0 0-1.777 2.11c-.404.872-.606 1.848-.606 2.929v2.402c0 1.328.228 2.468.684 3.418.469.938 1.12 1.654 1.953 2.149.846.495 1.83.742 2.95.742a6.02 6.02 0 0 0 1.992-.313 4.114 4.114 0 0 0 1.562-.937c.443-.43.781-.957 1.016-1.582l4.804.566a7.693 7.693 0 0 1-1.738 3.32c-.833.938-1.907 1.667-3.223 2.188-1.302.508-2.8.762-4.492.762Zm22.96-22.266v3.985h-12.52V7.656h12.52Zm-9.454-5.195h5.137V22.93c0 .86.189 1.497.567 1.914.377.403.976.605 1.796.605.222 0 .47-.02.743-.058.273-.04.52-.085.742-.137l.879 4.023c-.547.17-1.1.293-1.66.371-.56.092-1.12.137-1.68.137-2.031 0-3.626-.534-4.785-1.601-1.16-1.081-1.739-2.553-1.739-4.415V2.462ZM76.35 37.656a9.275 9.275 0 0 1-1.953-.156c-.586-.104-1.061-.228-1.426-.371l1.211-4.004.254.078c1.042.274 1.927.293 2.656.059.743-.235 1.335-.944 1.778-2.13l.43-1.171-7.891-22.305h5.449l5.02 16.504h.234L87.15 7.656h5.488l-8.75 24.473c-.403 1.159-.937 2.148-1.601 2.969a6.394 6.394 0 0 1-2.461 1.894c-.977.443-2.136.664-3.477.664Zm26.729-7.734c-2.135 0-3.984-.469-5.547-1.406-1.562-.938-2.773-2.253-3.633-3.946-.846-1.692-1.27-3.659-1.27-5.898 0-2.253.424-4.225 1.27-5.918.86-1.706 2.07-3.027 3.633-3.965 1.563-.937 3.412-1.406 5.547-1.406 2.136 0 3.984.469 5.547 1.406 1.563.938 2.773 2.26 3.633 3.965.859 1.693 1.289 3.665 1.289 5.918 0 2.24-.43 4.206-1.289 5.898-.86 1.693-2.07 3.008-3.633 3.946-1.563.937-3.411 1.406-5.547 1.406Zm0-4.14c1.185 0 2.162-.313 2.93-.938.768-.638 1.341-1.498 1.719-2.578.39-1.081.585-2.279.585-3.594 0-1.341-.195-2.552-.585-3.633-.378-1.08-.951-1.934-1.719-2.559-.768-.638-1.745-.957-2.93-.957-1.159 0-2.129.32-2.91.957-.781.625-1.367 1.478-1.758 2.56-.377 1.08-.566 2.29-.566 3.632 0 1.315.189 2.513.566 3.594.39 1.08.977 1.94 1.758 2.578.781.625 1.751.937 2.91.937Zm26.807-5.45V7.656h5.137v21.836h-4.981v-3.887h-.234c-.495 1.224-1.302 2.227-2.422 3.008-1.12.782-2.5 1.166-4.14 1.153-1.433 0-2.696-.313-3.79-.938-1.08-.638-1.933-1.569-2.558-2.793-.612-1.237-.918-2.728-.918-4.473V7.656h5.137v13.125c0 1.367.377 2.461 1.132 3.282.769.82 1.771 1.224 3.008 1.21.755 0 1.485-.182 2.188-.546.716-.365 1.302-.912 1.758-1.641.455-.73.683-1.647.683-2.754Zm8.545 9.16V7.656h4.981v3.672h.234c.391-1.276 1.075-2.252 2.051-2.93.977-.69 2.09-1.035 3.34-1.035.273 0 .586.013.937.04.365.025.664.058.899.097v4.727c-.221-.079-.567-.144-1.035-.196a12.241 12.241 0 0 0-1.348-.078c-.95 0-1.797.202-2.539.606a4.592 4.592 0 0 0-1.758 1.66c-.416.703-.625 1.523-.625 2.46v12.813h-5.137Zm22.013 8.164v-30h5.039v3.614h.313c.26-.521.631-1.081 1.113-1.68.482-.612 1.133-1.133 1.953-1.563.833-.43 1.894-.644 3.184-.644 1.679 0 3.196.43 4.55 1.289 1.354.86 2.429 2.122 3.223 3.789.807 1.667 1.211 3.717 1.211 6.152 0 2.396-.391 4.434-1.172 6.114-.781 1.68-1.855 2.962-3.223 3.847-1.354.873-2.89 1.309-4.609 1.309-1.237 0-2.272-.209-3.105-.625-.821-.43-1.485-.938-1.993-1.524-.494-.599-.872-1.165-1.132-1.699h-.215v11.621h-5.137Zm10.176-11.992c1.133 0 2.077-.306 2.832-.918.768-.612 1.347-1.452 1.738-2.52.391-1.067.586-2.278.586-3.632s-.195-2.559-.586-3.614c-.391-1.054-.963-1.881-1.719-2.48-.755-.599-1.705-.898-2.851-.898-1.107 0-2.045.286-2.813.859-.755.573-1.334 1.387-1.738 2.441-.391 1.042-.586 2.272-.586 3.692 0 1.406.195 2.643.586 3.71.404 1.055.99 1.882 1.758 2.481.768.586 1.699.88 2.793.88Zm22.529 4.258c-2.187 0-4.075-.456-5.664-1.367-1.588-.925-2.812-2.227-3.672-3.907-.846-1.68-1.269-3.658-1.269-5.937 0-2.253.423-4.225 1.269-5.918.847-1.706 2.038-3.034 3.575-3.984 1.536-.95 3.346-1.426 5.429-1.426 1.342 0 2.611.215 3.809.644a8.732 8.732 0 0 1 3.203 1.993c.938.898 1.673 2.044 2.207 3.437.534 1.38.801 3.027.801 4.941V20h-17.891v-3.457h15.332l-2.402 1.016c0-1.237-.189-2.312-.566-3.223-.378-.925-.938-1.647-1.68-2.168-.742-.52-1.667-.781-2.774-.781-1.106 0-2.05.26-2.832.781a4.944 4.944 0 0 0-1.777 2.11c-.404.872-.605 1.848-.605 2.929v2.402c0 1.328.227 2.468.683 3.418.469.938 1.12 1.654 1.953 2.149.847.495 1.83.742 2.95.742.729 0 1.393-.104 1.992-.313a4.106 4.106 0 0 0 1.562-.937c.443-.43.781-.957 1.016-1.582l4.805.566a7.693 7.693 0 0 1-1.739 3.32c-.833.938-1.907 1.667-3.222 2.188-1.302.508-2.8.762-4.493.762Zm12.081-.43V7.656h4.98v3.672h.235c.39-1.276 1.074-2.252 2.051-2.93.976-.69 2.089-1.035 3.339-1.035.274 0 .586.013.938.04.364.025.664.058.898.097v4.727c-.221-.079-.566-.144-1.035-.196a12.238 12.238 0 0 0-1.347-.078c-.951 0-1.797.202-2.54.606a4.582 4.582 0 0 0-1.757 1.66c-.417.703-.625 1.523-.625 2.46v12.813h-5.137Zm31.201-16.035-4.668.488c-.195-.716-.618-1.347-1.269-1.894-.651-.56-1.569-.84-2.754-.84-1.068 0-1.966.234-2.695.703-.716.469-1.074 1.068-1.074 1.797 0 .638.234 1.165.703 1.582.481.404 1.276.73 2.382.977l3.731.78c2.044.43 3.574 1.134 4.59 2.11 1.015.977 1.523 2.24 1.523 3.79 0 1.366-.397 2.577-1.191 3.632-.794 1.055-1.895 1.875-3.301 2.461-1.393.586-3.001.879-4.824.879-2.669 0-4.818-.56-6.446-1.68-1.614-1.133-2.584-2.702-2.91-4.707l5.02-.469c.221.977.703 1.72 1.445 2.227.755.495 1.719.742 2.891.742 1.224 0 2.207-.247 2.949-.742.742-.508 1.113-1.126 1.113-1.855 0-1.224-.976-2.058-2.929-2.5l-3.731-.782c-2.096-.455-3.646-1.191-4.648-2.207-1.003-1.028-1.504-2.337-1.504-3.926 0-1.354.371-2.526 1.113-3.515.742-.99 1.777-1.758 3.106-2.305 1.328-.547 2.864-.82 4.609-.82 2.565 0 4.577.553 6.035 1.66 1.471 1.094 2.383 2.565 2.734 4.414Zm12.354 16.465c-2.135 0-3.984-.469-5.546-1.406-1.563-.938-2.774-2.253-3.633-3.946-.847-1.692-1.27-3.659-1.27-5.898 0-2.253.423-4.225 1.27-5.918.859-1.706 2.07-3.027 3.633-3.965 1.562-.937 3.411-1.406 5.546-1.406 2.136 0 3.985.469 5.547 1.406 1.563.938 2.774 2.26 3.633 3.965.859 1.693 1.289 3.665 1.289 5.918 0 2.24-.43 4.206-1.289 5.898-.859 1.693-2.07 3.008-3.633 3.946-1.562.937-3.411 1.406-5.547 1.406Zm0-4.14c1.185 0 2.162-.313 2.93-.938.768-.638 1.341-1.498 1.719-2.578.39-1.081.586-2.279.586-3.594 0-1.341-.196-2.552-.586-3.633-.378-1.08-.951-1.934-1.719-2.559-.768-.638-1.745-.957-2.93-.957-1.158 0-2.129.32-2.91.957-.781.625-1.367 1.478-1.758 2.56-.377 1.08-.566 2.29-.566 3.632 0 1.315.189 2.513.566 3.594.391 1.08.977 1.94 1.758 2.578.781.625 1.752.937 2.91.937Zm18.038-9.063v12.773h-5.137V7.656h5.039v3.73h.254c.495-1.223 1.27-2.193 2.324-2.91 1.068-.729 2.422-1.093 4.063-1.093 1.51 0 2.825.319 3.945.957 1.12.638 1.986 1.575 2.598 2.812.625 1.224.937 2.709.937 4.454v13.886h-5.136V16.406c0-1.458-.378-2.597-1.133-3.418-.755-.833-1.797-1.25-3.125-1.25-.899 0-1.699.196-2.403.586-.69.39-1.237.957-1.64 1.7-.391.729-.586 1.627-.586 2.695Zm23.721 13.222c-1.393 0-2.643-.247-3.75-.742-1.107-.508-1.979-1.25-2.617-2.226-.638-.977-.957-2.181-.957-3.614 0-1.224.228-2.24.683-3.047a5.293 5.293 0 0 1 1.856-1.933 9.618 9.618 0 0 1 2.676-1.094c.989-.26 2.011-.443 3.066-.547a165.7 165.7 0 0 0 3.125-.37c.794-.105 1.367-.274 1.719-.509.364-.234.547-.599.547-1.093v-.098c0-1.055-.313-1.875-.938-2.461-.625-.586-1.536-.879-2.734-.879-1.263 0-2.266.274-3.008.82-.729.547-1.224 1.192-1.484 1.934l-4.786-.684c.378-1.328 1.003-2.434 1.875-3.32.873-.898 1.934-1.569 3.184-2.012 1.263-.455 2.656-.683 4.18-.683 1.041 0 2.083.124 3.125.37a8.65 8.65 0 0 1 2.871 1.212 6.273 6.273 0 0 1 2.09 2.305c.52.963.781 2.168.781 3.613v14.61h-4.942v-3.009h-.156c-.312.6-.755 1.166-1.328 1.7-.56.52-1.263.944-2.109 1.27-.834.325-1.823.487-2.969.487Zm1.309-3.789c1.041 0 1.94-.201 2.695-.605.755-.417 1.341-.964 1.758-1.64.416-.69.625-1.44.625-2.247v-2.558c-.17.13-.443.253-.821.37a16.16 16.16 0 0 1-1.289.294c-.481.09-.957.169-1.425.234-.456.065-.853.117-1.192.156a8.599 8.599 0 0 0-2.07.528c-.599.234-1.074.56-1.426.976-.352.417-.527.957-.527 1.621 0 .95.345 1.667 1.035 2.149s1.569.722 2.637.722ZM310.592.391v29.101h-5.137V.391h5.137ZM1.738 73.492V51.656h4.98v3.672h.235c.39-1.276 1.074-2.253 2.05-2.93.977-.69 2.09-1.035 3.34-1.035.274 0 .587.013.938.04.365.025.664.058.899.097v4.727c-.222-.079-.567-.144-1.035-.196a12.234 12.234 0 0 0-1.348-.078c-.95 0-1.797.202-2.54.606a4.588 4.588 0 0 0-1.757 1.66c-.417.703-.625 1.523-.625 2.46v12.813H1.738Zm22.745.43c-2.188 0-4.076-.456-5.664-1.367-1.589-.925-2.813-2.227-3.672-3.907-.847-1.68-1.27-3.658-1.27-5.937 0-2.253.423-4.225 1.27-5.918.846-1.706 2.038-3.034 3.574-3.984 1.537-.95 3.346-1.426 5.43-1.426 1.34 0 2.61.215 3.808.644a8.738 8.738 0 0 1 3.204 1.992c.937.899 1.673 2.045 2.207 3.438.533 1.38.8 3.027.8 4.941V64H16.28v-3.457h15.332l-2.403 1.016c0-1.237-.188-2.312-.566-3.223-.378-.925-.938-1.647-1.68-2.168-.742-.52-1.666-.781-2.773-.781-1.107 0-2.05.26-2.832.781a4.94 4.94 0 0 0-1.777 2.11c-.404.872-.606 1.848-.606 2.929v2.402c0 1.328.228 2.468.684 3.418.468.938 1.12 1.654 1.953 2.149.846.495 1.83.742 2.949.742a6.01 6.01 0 0 0 1.992-.313 4.114 4.114 0 0 0 1.563-.937c.442-.43.78-.957 1.015-1.582l4.805.566a7.694 7.694 0 0 1-1.738 3.32c-.834.938-1.908 1.667-3.223 2.188-1.302.508-2.8.762-4.492.762Zm21.592 0c-2.175 0-4.043-.475-5.606-1.426-1.562-.963-2.76-2.292-3.593-3.984-.834-1.693-1.25-3.64-1.25-5.84 0-2.227.423-4.186 1.27-5.879.846-1.693 2.05-3.014 3.613-3.965 1.562-.963 3.404-1.445 5.527-1.445 1.784 0 3.36.325 4.727.976 1.367.651 2.454 1.57 3.261 2.754.82 1.172 1.29 2.546 1.407 4.121h-4.922a4.963 4.963 0 0 0-.762-1.894 4.057 4.057 0 0 0-1.484-1.328c-.6-.326-1.316-.489-2.149-.489-1.055 0-1.98.287-2.773.86-.782.56-1.394 1.367-1.836 2.422-.443 1.054-.664 2.317-.664 3.789 0 1.484.215 2.767.644 3.847.43 1.068 1.042 1.895 1.836 2.48.794.574 1.725.86 2.793.86 1.133 0 2.09-.332 2.871-.996.794-.664 1.302-1.582 1.524-2.754h4.922c-.118 1.55-.573 2.917-1.368 4.102-.794 1.185-1.868 2.116-3.222 2.793-1.355.664-2.943.996-4.766.996Zm21.397 0c-2.188 0-4.076-.456-5.664-1.367-1.589-.925-2.813-2.227-3.672-3.907-.846-1.68-1.27-3.658-1.27-5.937 0-2.253.424-4.225 1.27-5.918.846-1.706 2.038-3.034 3.574-3.984 1.537-.95 3.346-1.426 5.43-1.426 1.341 0 2.61.215 3.808.644a8.738 8.738 0 0 1 3.204 1.992c.937.899 1.673 2.045 2.207 3.438.533 1.38.8 3.027.8 4.941V64H59.27v-3.457H74.6l-2.403 1.016c0-1.237-.188-2.312-.566-3.223-.378-.925-.938-1.647-1.68-2.168-.742-.52-1.666-.781-2.773-.781-1.107 0-2.05.26-2.832.781a4.94 4.94 0 0 0-1.777 2.11c-.404.872-.606 1.848-.606 2.929v2.402c0 1.328.228 2.468.684 3.418.468.938 1.12 1.654 1.953 2.149.846.495 1.83.742 2.949.742a6.01 6.01 0 0 0 1.992-.313 4.114 4.114 0 0 0 1.563-.937c.442-.43.78-.957 1.015-1.582l4.805.566a7.693 7.693 0 0 1-1.738 3.32c-.834.938-1.908 1.667-3.223 2.188-1.302.508-2.8.762-4.492.762Zm12.08-.43V51.656h5.137v21.836h-5.137ZM82.13 48.59c-.82 0-1.523-.274-2.109-.82-.586-.547-.879-1.205-.879-1.973 0-.781.293-1.445.88-1.992.585-.547 1.288-.82 2.108-.82.808 0 1.504.273 2.09.82.586.547.88 1.204.88 1.972 0 .782-.294 1.446-.88 1.992a2.958 2.958 0 0 1-2.09.82Zm5.968 33.066v-30h5.039v3.614h.312c.26-.521.632-1.081 1.114-1.68.481-.612 1.132-1.133 1.953-1.563.833-.43 1.894-.644 3.183-.644 1.68 0 3.197.43 4.551 1.289 1.354.86 2.428 2.122 3.223 3.789.807 1.667 1.211 3.717 1.211 6.152 0 2.396-.391 4.434-1.172 6.114-.782 1.68-1.856 2.962-3.223 3.847-1.354.873-2.891 1.309-4.61 1.309-1.236 0-2.271-.209-3.105-.625-.82-.43-1.484-.938-1.992-1.524-.495-.599-.872-1.165-1.133-1.699h-.215v11.621h-5.136Zm10.175-11.992c1.133 0 2.077-.306 2.832-.918.769-.612 1.348-1.452 1.739-2.52.39-1.067.586-2.278.586-3.632s-.196-2.559-.586-3.614c-.391-1.054-.964-1.881-1.719-2.48-.755-.599-1.706-.898-2.852-.898-1.106 0-2.044.286-2.812.859-.755.573-1.335 1.387-1.738 2.441-.391 1.042-.586 2.273-.586 3.692 0 1.406.195 2.643.586 3.71.403 1.055.99 1.882 1.758 2.481.768.586 1.699.88 2.792.88Zm23.741-18.008v3.985h-12.519v-3.985h12.519Zm-9.453-5.195h5.137V66.93c0 .86.188 1.497.566 1.914.378.403.977.605 1.797.605.221 0 .469-.02.742-.058a8.84 8.84 0 0 0 .742-.137l.879 4.023c-.547.17-1.1.293-1.66.371-.56.092-1.12.137-1.68.137-2.031 0-3.626-.534-4.785-1.601-1.159-1.081-1.738-2.552-1.738-4.415V46.461Zm19.923 27.031V51.656h4.902v3.73h.273c.456-1.25 1.211-2.226 2.266-2.929 1.055-.716 2.305-1.074 3.75-1.074 1.484 0 2.734.358 3.75 1.074 1.016.716 1.725 1.693 2.129 2.93h.234c.495-1.211 1.315-2.181 2.461-2.91 1.146-.73 2.513-1.094 4.102-1.094 2.005 0 3.639.638 4.902 1.914 1.276 1.263 1.914 3.112 1.914 5.547v14.648h-5.156V59.625c0-1.341-.365-2.324-1.094-2.95-.716-.637-1.595-.956-2.637-.956-1.237 0-2.2.39-2.89 1.172-.69.768-1.035 1.757-1.035 2.968v13.633h-5.078V59.43c0-1.133-.332-2.032-.997-2.696-.664-.677-1.542-1.015-2.636-1.015a3.79 3.79 0 0 0-2.031.566 4.091 4.091 0 0 0-1.465 1.582c-.352.677-.528 1.459-.528 2.344v13.281h-5.136Zm40.381.45c-1.393 0-2.643-.248-3.75-.743-1.107-.508-1.979-1.25-2.617-2.226-.638-.977-.957-2.181-.957-3.614 0-1.224.227-2.24.683-3.046a5.285 5.285 0 0 1 1.856-1.934 9.624 9.624 0 0 1 2.675-1.094c.99-.26 2.012-.443 3.067-.547a165.7 165.7 0 0 0 3.125-.37c.794-.105 1.367-.274 1.719-.509.364-.234.546-.599.546-1.093v-.098c0-1.055-.312-1.875-.937-2.461-.625-.586-1.536-.879-2.734-.879-1.263 0-2.266.274-3.008.82-.729.547-1.224 1.192-1.485 1.934l-4.785-.684c.378-1.328 1.003-2.434 1.875-3.32.873-.898 1.934-1.569 3.184-2.012 1.263-.455 2.656-.683 4.18-.683 1.041 0 2.083.123 3.125.37a8.65 8.65 0 0 1 2.871 1.212 6.263 6.263 0 0 1 2.089 2.304c.521.964.782 2.169.782 3.614v14.61h-4.942v-3.009h-.156c-.312.6-.755 1.166-1.328 1.7-.56.52-1.263.944-2.109 1.27-.834.325-1.823.487-2.969.487Zm1.308-3.79c1.042 0 1.941-.201 2.696-.605.755-.417 1.341-.964 1.758-1.64.416-.69.625-1.44.625-2.247v-2.558c-.17.13-.443.254-.821.37a16.16 16.16 0 0 1-1.289.294c-.482.09-.957.169-1.426.234-.455.065-.852.117-1.191.156a8.599 8.599 0 0 0-2.07.528c-.599.234-1.075.56-1.426.976-.352.417-.527.957-.527 1.621 0 .95.345 1.667 1.035 2.149.69.481 1.569.722 2.636.722Zm18.741-9.433v12.773h-5.137V51.656h5.039v3.73h.254c.495-1.223 1.27-2.193 2.325-2.91 1.067-.729 2.421-1.093 4.062-1.093 1.51 0 2.826.319 3.945.957 1.12.638 1.986 1.575 2.598 2.812.625 1.224.938 2.709.938 4.453v13.887h-5.137V60.406c0-1.458-.378-2.597-1.133-3.418-.755-.833-1.797-1.25-3.125-1.25-.898 0-1.699.196-2.402.586-.69.39-1.237.957-1.641 1.7-.391.729-.586 1.627-.586 2.695Zm23.721 13.222c-1.393 0-2.643-.247-3.75-.742-1.107-.508-1.979-1.25-2.617-2.226-.638-.977-.957-2.181-.957-3.614 0-1.224.228-2.24.684-3.046a5.282 5.282 0 0 1 1.855-1.934 9.618 9.618 0 0 1 2.676-1.094c.989-.26 2.012-.443 3.066-.547a165.7 165.7 0 0 0 3.125-.37c.794-.105 1.367-.274 1.719-.509.365-.234.547-.599.547-1.093v-.098c0-1.055-.313-1.875-.938-2.461-.625-.586-1.536-.879-2.734-.879-1.263 0-2.266.274-3.008.82-.729.547-1.224 1.192-1.484 1.934l-4.785-.684c.377-1.328 1.002-2.434 1.875-3.32.872-.898 1.933-1.569 3.183-2.012 1.263-.455 2.656-.683 4.18-.683 1.042 0 2.083.123 3.125.37a8.633 8.633 0 0 1 2.871 1.212 6.274 6.274 0 0 1 2.09 2.304c.521.964.781 2.169.781 3.614v14.61h-4.941v-3.009h-.157c-.312.6-.755 1.166-1.328 1.7-.56.52-1.263.944-2.109 1.27-.833.325-1.823.487-2.969.487Zm1.309-3.789c1.041 0 1.94-.201 2.695-.605.755-.417 1.341-.964 1.758-1.64.417-.69.625-1.44.625-2.247v-2.558c-.169.13-.443.254-.82.37-.378.105-.808.203-1.289.294-.482.09-.958.169-1.426.234-.456.065-.853.117-1.192.156a8.599 8.599 0 0 0-2.07.528c-.599.234-1.074.56-1.426.976-.351.417-.527.957-.527 1.621 0 .95.345 1.667 1.035 2.149.69.481 1.569.722 2.637.722Zm23.057 11.973c-2.774 0-4.955-.54-6.543-1.621-1.589-1.068-2.611-2.363-3.067-3.887l4.61-1.133c.208.43.514.853.918 1.27.403.43.944.781 1.621 1.055.677.286 1.53.43 2.558.43 1.459 0 2.663-.359 3.614-1.075.963-.703 1.445-1.855 1.445-3.457v-4.121h-.293c-.247.52-.625 1.061-1.133 1.621-.508.547-1.178 1.016-2.011 1.406-.821.378-1.862.567-3.125.567-1.667 0-3.184-.397-4.551-1.192-1.354-.794-2.435-1.979-3.242-3.554-.795-1.576-1.192-3.549-1.192-5.918 0-2.396.397-4.42 1.192-6.075.807-1.653 1.894-2.91 3.261-3.77 1.367-.858 2.891-1.288 4.571-1.288 1.276 0 2.33.215 3.164.644.833.43 1.497.95 1.992 1.563.495.599.879 1.159 1.152 1.68h.274v-3.614h5.019v22.188c0 1.862-.443 3.405-1.328 4.629-.885 1.224-2.103 2.135-3.652 2.734-1.537.612-3.288.918-5.254.918Zm.039-12.988c1.64 0 2.903-.586 3.789-1.758.898-1.185 1.348-2.82 1.348-4.902 0-1.38-.196-2.585-.586-3.614-.391-1.028-.97-1.83-1.739-2.402-.768-.573-1.705-.86-2.812-.86-1.146 0-2.103.3-2.871.899-.768.599-1.348 1.42-1.739 2.46-.377 1.03-.566 2.201-.566 3.517 0 1.328.195 2.493.586 3.496.391 1.002.97 1.784 1.738 2.343.782.547 1.732.82 2.852.82Zm23.252 4.785c-2.187 0-4.075-.456-5.664-1.367-1.588-.925-2.812-2.227-3.672-3.907-.846-1.68-1.269-3.658-1.269-5.937 0-2.253.423-4.225 1.269-5.918.847-1.706 2.038-3.034 3.574-3.984 1.537-.95 3.347-1.426 5.43-1.426a11.2 11.2 0 0 1 3.809.644 8.741 8.741 0 0 1 3.203 1.992c.937.899 1.673 2.045 2.207 3.438.534 1.38.801 3.027.801 4.941V64h-17.891v-3.457h15.332l-2.402 1.016c0-1.237-.189-2.312-.567-3.223-.377-.925-.937-1.647-1.679-2.168-.743-.52-1.667-.781-2.774-.781s-2.051.26-2.832.781a4.937 4.937 0 0 0-1.777 2.11c-.404.872-.606 1.848-.606 2.929v2.402c0 1.328.228 2.468.684 3.418.469.938 1.12 1.654 1.953 2.149.846.495 1.83.742 2.949.742a6.04 6.04 0 0 0 1.993-.313 4.122 4.122 0 0 0 1.562-.937c.443-.43.781-.957 1.016-1.582l4.804.566a7.691 7.691 0 0 1-1.738 3.32c-.833.938-1.908 1.667-3.223 2.188-1.302.508-2.799.762-4.492.762Zm12.081-.43V51.656h4.98v3.672h.234c.391-1.276 1.075-2.253 2.051-2.93.977-.69 2.09-1.035 3.34-1.035.274 0 .586.013.938.04.364.025.664.058.898.097v4.727c-.221-.079-.566-.144-1.035-.196a12.241 12.241 0 0 0-1.348-.078c-.95 0-1.797.202-2.539.606a4.592 4.592 0 0 0-1.758 1.66c-.416.703-.625 1.523-.625 2.46v12.813h-5.136Zm22.012 0V51.656h5.137v21.836h-5.137Zm2.578-24.902c-.82 0-1.523-.274-2.109-.82-.586-.547-.879-1.205-.879-1.973 0-.781.293-1.445.879-1.992.586-.547 1.289-.82 2.109-.82.808 0 1.504.273 2.09.82.586.547.879 1.204.879 1.972 0 .782-.293 1.446-.879 1.992a2.958 2.958 0 0 1-2.09.82Zm11.104 12.129v12.773h-5.137V51.656h5.04v3.73h.253c.495-1.223 1.27-2.193 2.325-2.91 1.067-.729 2.422-1.093 4.062-1.093 1.511 0 2.826.319 3.945.957 1.12.638 1.986 1.575 2.598 2.812.625 1.224.938 2.709.938 4.453v13.887h-5.137V60.406c0-1.458-.378-2.597-1.133-3.418-.755-.833-1.797-1.25-3.125-1.25-.898 0-1.699.196-2.402.586-.69.39-1.237.957-1.641 1.7-.39.729-.586 1.627-.586 2.695ZM4.941 125.656a9.295 9.295 0 0 1-1.953-.156c-.586-.104-1.06-.228-1.425-.371l1.21-4.004.254.078c1.042.274 1.927.293 2.657.059.742-.235 1.334-.944 1.777-2.129l.43-1.172L0 95.656h5.45l5.019 16.504h.234l5.04-16.504h5.487l-8.75 24.473c-.403 1.159-.937 2.148-1.601 2.969a6.4 6.4 0 0 1-2.461 1.894c-.977.443-2.135.664-3.477.664Zm26.73-7.734c-2.136 0-3.985-.469-5.548-1.406-1.562-.938-2.773-2.253-3.632-3.946-.847-1.692-1.27-3.659-1.27-5.898 0-2.253.423-4.225 1.27-5.918.859-1.706 2.07-3.027 3.632-3.965 1.563-.937 3.412-1.406 5.547-1.406 2.136 0 3.985.469 5.547 1.406 1.563.938 2.774 2.26 3.633 3.965.86 1.693 1.29 3.665 1.29 5.918 0 2.239-.43 4.206-1.29 5.898-.86 1.693-2.07 3.008-3.633 3.946-1.562.937-3.411 1.406-5.547 1.406Zm0-4.141c1.184 0 2.16-.312 2.929-.937.768-.638 1.341-1.498 1.719-2.578.39-1.081.586-2.279.586-3.594 0-1.341-.196-2.552-.586-3.633-.378-1.081-.95-1.934-1.719-2.559-.768-.638-1.745-.957-2.93-.957-1.159 0-2.129.32-2.91.957-.781.625-1.367 1.478-1.758 2.559-.377 1.081-.566 2.292-.566 3.633 0 1.315.189 2.513.566 3.594.391 1.08.977 1.94 1.758 2.578.781.625 1.752.937 2.91.937Zm26.806-5.449V95.656h5.137v21.836h-4.98v-3.887h-.235c-.495 1.224-1.302 2.227-2.422 3.008-1.12.782-2.5 1.166-4.14 1.153-1.433 0-2.696-.313-3.79-.938-1.08-.638-1.933-1.569-2.558-2.793-.612-1.237-.918-2.728-.918-4.473V95.656h5.137v13.125c0 1.367.377 2.461 1.133 3.281.768.821 1.77 1.224 3.007 1.211a4.7 4.7 0 0 0 2.188-.546c.716-.365 1.302-.912 1.758-1.641.456-.729.683-1.647.683-2.754Zm8.546 9.16V95.656h4.98v3.672h.234c.391-1.276 1.075-2.252 2.051-2.93.977-.69 2.09-1.035 3.34-1.035.274 0 .586.013.938.04.364.025.664.058.898.097v4.727c-.221-.079-.566-.144-1.035-.196a12.283 12.283 0 0 0-1.348-.078c-.95 0-1.797.202-2.539.606a4.584 4.584 0 0 0-1.758 1.66c-.416.703-.625 1.523-.625 2.461v12.812h-5.136Zm20.118 2.8h40v-40h-40v40Zm41.494 5.364v-30h5.039v3.613h.313c.26-.52.631-1.08 1.113-1.68.482-.611 1.133-1.132 1.953-1.562.833-.43 1.895-.644 3.184-.644 1.679 0 3.196.43 4.55 1.289 1.355.86 2.429 2.122 3.223 3.789.807 1.667 1.211 3.717 1.211 6.152 0 2.396-.391 4.434-1.172 6.114-.781 1.679-1.855 2.962-3.222 3.847-1.355.873-2.891 1.309-4.61 1.309-1.237 0-2.272-.209-3.105-.625-.821-.43-1.485-.938-1.992-1.524-.495-.599-.873-1.165-1.133-1.699h-.215v11.621h-5.137Zm10.176-11.992c1.133 0 2.077-.306 2.832-.918.768-.612 1.348-1.452 1.738-2.519.391-1.068.586-2.279.586-3.633s-.195-2.559-.586-3.614c-.39-1.054-.963-1.881-1.719-2.48-.755-.599-1.705-.898-2.851-.898-1.107 0-2.044.286-2.813.859-.755.573-1.334 1.387-1.738 2.441-.39 1.042-.586 2.272-.586 3.692 0 1.406.196 2.643.586 3.711.404 1.054.99 1.881 1.758 2.48.768.586 1.699.879 2.793.879Zm17.998-8.945v12.773h-5.136V88.391h5.019v10.996h.274c.507-1.237 1.295-2.214 2.363-2.93 1.068-.716 2.441-1.074 4.121-1.074 1.51 0 2.826.319 3.945.957 1.133.638 2.012 1.569 2.637 2.793.625 1.224.938 2.715.938 4.472v13.887h-5.157v-13.086c0-1.484-.377-2.63-1.133-3.437-.755-.821-1.809-1.23-3.164-1.23-.911 0-1.725.195-2.441.585a4.175 4.175 0 0 0-1.66 1.699c-.404.73-.606 1.628-.606 2.696Zm27.061 13.203c-2.135 0-3.984-.469-5.547-1.406-1.562-.938-2.773-2.253-3.632-3.946-.847-1.692-1.27-3.659-1.27-5.898 0-2.253.423-4.225 1.27-5.918.859-1.706 2.07-3.027 3.632-3.965 1.563-.937 3.412-1.406 5.547-1.406 2.136 0 3.985.469 5.547 1.406 1.563.938 2.774 2.26 3.633 3.965.859 1.693 1.289 3.665 1.289 5.918 0 2.239-.43 4.206-1.289 5.898-.859 1.693-2.07 3.008-3.633 3.946-1.562.937-3.411 1.406-5.547 1.406Zm0-4.141c1.185 0 2.162-.312 2.93-.937.768-.638 1.341-1.498 1.719-2.578.39-1.081.586-2.279.586-3.594 0-1.341-.196-2.552-.586-3.633-.378-1.081-.951-1.934-1.719-2.559-.768-.638-1.745-.957-2.93-.957-1.159 0-2.129.32-2.91.957-.781.625-1.367 1.478-1.758 2.559-.377 1.081-.566 2.292-.566 3.633 0 1.315.189 2.513.566 3.594.391 1.08.977 1.94 1.758 2.578.781.625 1.751.937 2.91.937Zm18.038-9.062v12.773h-5.137V95.656h5.039v3.73h.254c.495-1.223 1.27-2.193 2.324-2.91 1.068-.729 2.422-1.093 4.063-1.093 1.51 0 2.825.319 3.945.957 1.12.638 1.986 1.575 2.598 2.812.625 1.224.937 2.709.937 4.453v13.887h-5.136v-13.086c0-1.458-.378-2.597-1.133-3.418-.755-.833-1.797-1.25-3.125-1.25-.899 0-1.7.196-2.403.586-.69.391-1.237.957-1.64 1.699-.391.73-.586 1.628-.586 2.696Zm27.1 13.203c-2.188 0-4.076-.456-5.664-1.367-1.589-.925-2.813-2.227-3.672-3.907-.846-1.679-1.27-3.658-1.27-5.937 0-2.253.424-4.225 1.27-5.918.846-1.706 2.038-3.034 3.574-3.984 1.537-.95 3.346-1.426 5.43-1.426 1.341 0 2.61.215 3.808.644a8.745 8.745 0 0 1 3.204 1.992c.937.899 1.673 2.045 2.207 3.438.533 1.38.8 3.027.8 4.941V108h-17.89v-3.457h15.332l-2.403 1.016c0-1.237-.188-2.312-.566-3.223-.378-.925-.938-1.647-1.68-2.168-.742-.52-1.666-.781-2.773-.781-1.107 0-2.051.26-2.832.781a4.949 4.949 0 0 0-1.778 2.109c-.403.873-.605 1.849-.605 2.93v2.402c0 1.329.228 2.468.684 3.418.468.938 1.119 1.654 1.953 2.149.846.495 1.829.742 2.949.742.729 0 1.393-.104 1.992-.313a4.107 4.107 0 0 0 1.563-.937c.442-.43.781-.957 1.015-1.582l4.805.566a7.707 7.707 0 0 1-1.738 3.321c-.834.937-1.908 1.666-3.223 2.187-1.302.508-2.799.762-4.492.762Z"/>
</svg>
