<svg xmlns="http://www.w3.org/2000/svg" width="239" height="169" fill="none" viewBox="0 0 239 169">
  <path fill="#9192A1" d="M.477 68.069a.5.5 0 1 0 .046.999l-.023-.5-.023-.499ZM235.411 160l.429.256-.429-.256ZM230.41.494a.5.5 0 0 0-.506-.494l-4.499.057a.5.5 0 1 0 .012 1l4-.05.05 3.999a.501.501 0 0 0 1-.013l-.057-4.5ZM.5 68.569l.023.499c1.345-.061 2.691-.115 4.038-.162l-.017-.5-.018-.5c-1.35.048-2.7.102-4.049.163l.023.5Zm12.143-.364.008.5c2.695-.04 5.392-.054 8.09-.041l.002-.5.002-.5c-2.703-.013-5.407 0-8.11.04l.008.5Zm16.2.075-.012.5c2.698.064 5.393.153 8.085.267l.022-.499.02-.5a436.431 436.431 0 0 0-8.103-.268l-.012.5Zm16.186.685-.03.5c2.697.163 5.39.35 8.075.562l.039-.499.039-.498c-2.691-.212-5.39-.4-8.093-.564l-.03.499Zm16.15 1.27-.048.497c2.691.26 5.374.542 8.046.847l.057-.497.057-.497a463.747 463.747 0 0 0-8.064-.849l-.048.498ZM77.28 72.07l-.065.496c2.683.353 5.354.729 8.01 1.125l.074-.494.074-.495a469.158 469.158 0 0 0-8.028-1.127l-.065.495Zm16.01 2.39-.083.494c2.678.447 5.34.916 7.983 1.406l.091-.492.091-.492c-2.649-.49-5.316-.96-8-1.408l-.083.493Zm15.946 2.953-.099.49c2.656.54 5.291 1.102 7.902 1.682l.109-.488.108-.488a448.908 448.908 0 0 0-7.92-1.686l-.1.49Zm15.802 3.514-.118.486c2.648.64 5.269 1.3 7.861 1.98l.127-.484.126-.484a425.317 425.317 0 0 0-7.879-1.984l-.117.486Zm15.688 4.113-.137.48c2.618.742 5.203 1.503 7.75 2.282l.146-.478.147-.478a392.318 392.318 0 0 0-7.77-2.288l-.136.482Zm15.46 4.73-.156.475c2.601.857 5.16 1.734 7.672 2.629l.168-.471.167-.472a346.339 346.339 0 0 0-7.694-2.636l-.157.475Zm15.293 5.449-.18.466c2.56.986 5.066 1.989 7.513 3.009l.192-.462.192-.461a292.08 292.08 0 0 0-7.538-3.019l-.179.467Zm14.954 6.244-.206.455a232.411 232.411 0 0 1 7.302 3.464l.223-.448.222-.447a231.056 231.056 0 0 0-7.334-3.479l-.207.455Zm14.502 7.216-.24.439a167.304 167.304 0 0 1 6.992 4.047l.261-.426.262-.427a169.026 169.026 0 0 0-7.034-4.071l-.241.438Zm13.798 8.488-.286.41a105.462 105.462 0 0 1 6.428 4.842l.317-.387.316-.387a106.03 106.03 0 0 0-6.489-4.888l-.286.41Zm12.446 10.269-.355.352c2.016 2.03 3.776 4.067 5.265 6.103l.403-.295.404-.295c-1.523-2.083-3.316-4.158-5.362-6.217l-.355.352Zm9.35 13.138-.46.195c1.09 2.573 1.714 5.128 1.846 7.652l.499-.026.5-.026c-.139-2.655-.795-5.324-1.924-7.99l-.461.195Zm.648 15.769-.469-.176a22.188 22.188 0 0 1-1.728 3.577l.43.256.429.256a23.234 23.234 0 0 0 1.806-3.738l-.468-.175ZM235.411 160l-.43-.256a26.788 26.788 0 0 1-2.333 3.359l.386.318.386.318a27.96 27.96 0 0 0 2.42-3.483l-.429-.256Zm-9.145 8.017-.099-.491c-2.407.483-4.883-.215-7.358-2.003l-.292.405-.293.406c2.632 1.901 5.387 2.725 8.14 2.173l-.098-.49Zm-13.441-8.118.408-.289c-1.438-2.028-2.83-4.402-4.154-7.082l-.448.222-.449.221c1.343 2.718 2.762 5.139 4.236 7.217l.407-.289Zm-7.484-14.816.469-.175a110.01 110.01 0 0 1-2.584-7.832l-.48.14-.48.139a110.992 110.992 0 0 0 2.607 7.903l.468-.175Zm-4.661-15.934.488-.109a152.335 152.335 0 0 1-1.589-8.156l-.493.082-.493.083c.471 2.819 1.006 5.56 1.6 8.209l.487-.109Zm-2.752-16.397.497-.057a171.323 171.323 0 0 1-.752-8.248l-.499.034-.498.033c.188 2.813.441 5.582.755 8.295l.497-.057Zm-1.111-16.574.5-.01c-.053-2.735-.042-5.501.037-8.288l-.5-.014-.5-.015c-.08 2.804-.09 5.586-.037 8.336l.5-.01Zm.474-16.614.498.039c.212-2.74.492-5.49.844-8.245l-.496-.063-.496-.064c-.355 2.771-.636 5.54-.849 8.295l.499.038Zm2.118-16.484.492.09a149.15 149.15 0 0 1 1.707-8.107l-.486-.116-.486-.117a149.463 149.463 0 0 0-1.719 8.16l.492.09Zm3.889-16.155.478.146a132.185 132.185 0 0 1 2.649-7.844l-.468-.175-.469-.175a133.686 133.686 0 0 0-2.669 7.903l.479.145Zm5.821-15.557.456.206a116.8 116.8 0 0 1 3.668-7.416l-.44-.237-.44-.238a117.888 117.888 0 0 0-3.699 7.479l.455.206Zm7.902-14.605.421.27a105.104 105.104 0 0 1 4.732-6.778l-.398-.302-.398-.303a105.908 105.908 0 0 0-4.778 6.843l.421.27Zm10.041-13.216.372.334a98.4 98.4 0 0 1 2.835-3.032L229.911.5l-.358-.349a98.876 98.876 0 0 0-2.863 3.062l.372.334Z" opacity=".6"/>
</svg>
