<svg fill="none" height="772" viewBox="0 0 1440 772" width="1440" xmlns="http://www.w3.org/2000/svg" xmlns:xlink="http://www.w3.org/1999/xlink"><pattern id="a" height="1" patternContentUnits="objectBoundingBox" width="1"/><pattern id="b" height="1" patternContentUnits="objectBoundingBox" width="1"/><pattern id="c" height="1" patternContentUnits="objectBoundingBox" width="1"/><linearGradient id="d" gradientUnits="userSpaceOnUse" x1="285.27" x2="280" y1="683.5" y2="688.76"><stop offset="0" stop-color="#505668"/><stop offset=".053" stop-color="#6c7180"/><stop offset=".33" stop-color="#fff"/><stop offset=".509" stop-color="#cdced3"/><stop offset=".847" stop-color="#737886"/><stop offset="1" stop-color="#505668"/></linearGradient><linearGradient id="e" gradientUnits="userSpaceOnUse" x1="279.37" x2="279.37" y1="709.85" y2="688.91"><stop offset="0" stop-color="#f8f8f8"/><stop offset=".214" stop-color="#f5f5f5"/><stop offset=".37" stop-color="#ebeced"/><stop offset=".507" stop-color="#dbdcdf"/><stop offset=".633" stop-color="#c5c7cc"/><stop offset=".752" stop-color="#a8abb3"/><stop offset=".866" stop-color="#848995"/><stop offset=".973" stop-color="#5b6171"/><stop offset="1" stop-color="#505668"/></linearGradient><clipPath id="f"><rect height="240" rx="40" width="240" x="600" y="80"/></clipPath><clipPath id="g"><path d="m1153 688h24v24h-24z"/></clipPath><path d="m0 64c0-35.35 28.65-64 64-64h1312c35.35 0 64 28.65 64 64v708h-1440z" fill="#000"/><g clip-path="url(#f)"><rect fill="#fff" fill-opacity=".24" height="240" rx="40" width="240" x="600" y="80"/><path d="m637 105h166v340h-166z" fill="url(#a)"/><path d="m637 105h166v340h-166z" fill="url(#b)"/><path d="m637 105h166v340h-166z" fill="url(#c)"/></g><path d="m444.18 416.55c-3.57 0-6.77-.83-9.6-2.49-2.81-1.66-5.02-4.05-6.64-7.16-1.6-3.12-2.41-6.86-2.41-11.24 0-4.39.811-8.15 2.43-11.27 1.64-3.14 3.87-5.53 6.67-7.19 2.83-1.66 6.01-2.49 9.54-2.49 2.24 0 4.34.319 6.29.957 1.97.638 3.72 1.58 5.25 2.82 1.53 1.22 2.78 2.73 3.75 4.51.985 1.77 1.63 3.78 1.94 6.04h-7.44c-.2-1.24-.592-2.33-1.18-3.28a8.45 8.45 0 0 0 -2.13-2.41 8.47 8.47 0 0 0 -2.87-1.5c-1.07-.347-2.23-.52-3.47-.52-2.22 0-4.19.556-5.91 1.67-1.71 1.09-3.05 2.72-4.02 4.87-.966 2.13-1.45 4.73-1.45 7.79 0 3.1.483 5.71 1.45 7.85.984 2.11 2.32 3.72 4.02 4.81 1.71 1.08 3.67 1.61 5.88 1.61 1.22 0 2.36-.155 3.42-.465a9.44 9.44 0 0 0 2.87-1.45 8.56 8.56 0 0 0 2.16-2.35c.583-.93.99-2 1.23-3.2h7.44a16.14 16.14 0 0 1 -1.8 5.5 15.8 15.8 0 0 1 -3.61 4.48c-1.48 1.28-3.21 2.28-5.2 3.01-1.99.729-4.19 1.09-6.62 1.09zm28.29-41.29v40.74h-7.19v-40.74zm13.58 41.37c-1.95 0-3.7-.346-5.25-1.04-1.55-.711-2.77-1.75-3.66-3.12-.893-1.37-1.34-3.05-1.34-5.06 0-1.71.319-3.13.957-4.27a7.4 7.4 0 0 1 2.6-2.71c1.11-.674 2.36-1.18 3.75-1.53a27.43 27.43 0 0 1 4.29-.765 234.76 234.76 0 0 0 4.38-.52c1.11-.146 1.91-.383 2.41-.711.51-.328.76-.838.76-1.53v-.137c0-1.48-.437-2.62-1.31-3.44-.875-.821-2.15-1.23-3.83-1.23-1.77 0-3.17.383-4.21 1.15-1.02.765-1.71 1.67-2.08 2.71l-6.7-.957c.529-1.86 1.4-3.41 2.62-4.65 1.22-1.26 2.71-2.2 4.46-2.82 1.77-.638 3.72-.957 5.85-.957a18.9 18.9 0 0 1 4.38.519c1.46.329 2.8.894 4.02 1.7 1.22.802 2.2 1.88 2.93 3.23.729 1.35 1.09 3.04 1.09 5.06v20.448h-6.92v-4.21h-.219c-.437.84-1.06 1.63-1.86 2.38-.784.73-1.77 1.32-2.95 1.78-1.17.456-2.55.684-4.16.684zm1.83-5.3c1.46 0 2.72-.282 3.77-.847 1.06-.584 1.88-1.35 2.46-2.3a5.98 5.98 0 0 0 .875-3.15v-3.58c-.237.18-.62.36-1.15.52a23.25 23.25 0 0 1 -1.8.41c-.675.13-1.34.237-2.328-.638.09-1.19.164-1.67.219-1.08.146-2.04.392-2.9.738-.838" fill="#fff"/><path d="m476.48 461h-1.85l5.35-14.55h1.82l5.32 14.55h-1.84l-4.36-12.25h-.117zm.684-5.68h7.44v1.56h-7.44zm12.65-8.87v14.55h-1.76v-14.55zm8.19 7.54v1.56h-6.37v-1.56zm1.61 11.09v-15h1.6v1.74h.195c.124-.188.3-.429.52-.722.22-.3.54-.567.96-.801.42-.235.98-.352 1.69-.352.92 0 1.73.231 2.42.694.7.455 1.24 1.11 1.63 1.95.397.84.595 1.83.595 2.98s-.195 2.15-.586 3.01c-.39.85-.934 1.5-1.63 1.96-.697.46-1.5.693-2.41.693-.697 0-1.26-.117-1.68-.351-.423-.241-.749-.511-.977-.811a12.57 12.57 0 0 1 -.527-.752h-.137v5.76h-1.66zm4.77-5.35c.696 0 1.28-.185 1.75-.556.47-.378.82-.882 1.05-1.51.241-.631.36-1.33.362-2.11 0-.768-.117-1.46-.352-2.08-.234-.619-.586-1.11-1.05-1.48-.462-.364-1.05-.547-1.76-.547-.684 0-1.26.173-1.72.518-.462.34-.814.82-1.05 1.44-.234.61-.351 1.33-.351 2.15s.12 1.55.361 2.18c.241.62.592 1.12 1.05 1.47.468.35 1.04.527 1.71.527zm10.48 1.5c-.983 0-1.85-.234-2.59-.703s-1.32-1.13-1.74-1.97c-.41-.847-.615-1.83-.615-2.95 0-1.14.205-2.13.615-2.98.417-.854-1.51 1.74-1.98.742-.468 1.6-.703 2.59-.703.99 0 1.85.235 2.6.703.74.469 1.32 1.13 1.74 1.98.416.85.625 1.84.625 2.98 0 1.12-.209 2.1-.625 2.95-.417.85-.997 1.5-1.74 1.97-.742" fill="#fff" opacity=".6"/><path d="m575.6 500.5h108.8c4.49 0 7.83.001 10.47.217 2.64.215 4.54.642 6.17 1.47a15.51 15.51 0 0 1 6.77 6.77c.83 1.63 1.26 3.53 1.47 6.17.216 2.64.217 5.98.217 10.47v4.8c0 4.49-.001 7.83-.217 10.47-.215 2.64-.642 4.54-1.47 6.17a15.51 15.51 0 0 1 -6.77 6.77c-1.63.83-3.53 1.26-6.17 1.47-2.64.216-5.98.217-10.47.217h-108.8c-4.49 0-7.83-.001-10.47-.217-2.64-.215-4.54-.642-6.17-1.47a15.51 15.51 0 0 1 -6.77-6.77c-.83-1.63-1.26-3.53-1.47-6.17-.216-2.64-.217-5.98-.217-10.47v-4.8c0-4.49.001-7.83.217-10.47.215-2.64.642-4.54 1.47-6.17a15.51 15.51 0 0 1 6.77-6.77c1.63-.83 3.53-1.26 6.17-1.47 1.98-.162 4.35-.203 7.31-.213z" stroke="#fff"/><path d="m609.29 534v-11.64h2.11v9.88h5.13v1.76zm12.17.172c-.854 0-1.59-.188-2.22-.563a3.81 3.81 0 0 1 -1.45-1.58c-.338-.677-.508-1.46-.508-2.36 0-.901.17-1.69.508-2.37a3.79 3.79 0 0 1 1.45-1.59c.625-.375 1.36-.563 2.22-.563.85 0 1.59.188 2.22.563a3.79 3.79 0 0 1 1.45 1.59c.344.68.515 1.47.515 2.37 0 .896-.171 1.68-.515 2.36a3.81 3.81 0 0 1 -1.45 1.58c-.625.38-1.36.563-2.22.563zm0-1.66c.474 0 .865-.125 1.17-.375.31-.256.54-.599.69-1.03.157-.432.24-.911.24-1.44a4.23 4.23 0 0 0 -.235-1.45c-.151-.433-.38-.774-.687-1.02-.307-.255-.698-.383-1.17-.383-.464 0-.852.13-1.16.383-.313.25-.547.59-.703 1.02a4.38 4.38 0 0 0 -.227 1.45c0 .526.08 1.227 1.44.156.43.39.78.703 1.03.312" fill="#fff"/><path d="m781.6 534.16c-.678 0-1.3-.12-1.86-.359-.557-.245-1-.609-1.33-1.09-.328-.484-.492-1.08-.492-1.8v-.179h2.09v.179c0 .313.06.584.2.813.13.229.32.403.56.523s.52.18.83.18c.34 0 .625-.7.86-.211.24-.141.42-.352.54-.633s.19-.625.19-1.03v-8.19h2.08v8.19c0 .75-.151 1.4-.453 1.94a3.05 3.05 0 0 1 -1.27 1.24c-.547.29-1.2.429-1.95.429zm9.09.016c-.855 0-1.59-.188-2.22-.563a3.8 3.8 0 0 1 -1.45-1.58c-.339-.677-.508-1.46-.508-2.36 0-.901.17-1.69.508-2.37a3.79 3.79 0 0 1 1.45-1.59c.625-.375 1.36-.563 2.22-.563.85 0 1.59.188 2.22.563.62.375 1.11.903 1.45 1.59.344.68.516 1.47.516 2.37 0 .896-.172 1.68-.516 2.36a3.8 3.8 0 0 1 -1.45 1.58c-.625.38-1.36.563-2.22.563zm0-1.66c.473 0 .864-.125 1.17-.375.31-.256.54-.599.69-1.03.156-.432.23-.911.23-1.44 0-.537-.078-1.02-.234-1.45-.151-.433-.38-.774-.688-1.02-.307-.255-.698-.383-1.17-.383-.464 0-.852.13-1.17.383-.312.25-.546.59-.703 1.02a4.38 4.38 0 0 0 -.226 1.45c0 .526.08 1.226 1.44.157.43.391.78.703 1.03.313" fill="#000"/><path d="m240 688c0-11.05 8.95-20 20-20h24c11.05 0 20 8.95 20 20v24c0 11.05-8.95 20-20 20h-24c-11.05 0-20-8.95-20-20z" fill="#fff"/><path d="m276.65 676.22c.392-.3.7.164 1.06.301.44.177.85.412 1.21.724.68.582 1.24 1.25 1.89 1.85.866.88 1.76 1.75 2.62 2.63.337.31.653.64.974.96 1.24 1.19 2.42 2.45 3.67 3.64.361.39.767.73 1.12 1.13.308.34.669.62.975.96.375.42.827.75 1.19 1.19.328.34.609.71.794 1.14.18.45.34.89.376 1.38-.212-.467-.415-.915-.765-1.3-.282-.321-.632-.541-1-.749-.385-.192-.754-.37-1.18-.438-.89-.159-1.83-.16-2.73-.134-.771.03-1.54.066-2.31.104-1.04-.016-1.97.119-3-.102-.497-.121-.979-.276-1.4-.576l-.076-.036a3.81 3.81 0 0 1 -.412-.401c-.135-.169-.187-.223-.33-.386-.038-.078-.059-.163-.102-.24a4.24 4.24 0 0 1 -.431-1.38c-.102-.627-.062-1.3-.074-1.94-.034-.958-.01-1.92-.013-2.88-.01-1.31-.071-2.56-.552-3.8-.277-.718-.799-1.33-1.5-1.67z" fill="url(#d)"/><path d="m280.14 688.94c.42.3.903.46 1.4.576 1.03.221 1.96.086 3.102.77-.038 1.54-.07 2.31-.104.9-.026 1.84-.025 2.73.134.43.68.8.246 1.18.438.37.208.72.428 1.749.35.383.55.831.76 1.3.51.22.101.44.113.67.064 1.05-.136 2.16-.369 3.19-.224.98-.586 1.95-.958 2.89-.321.77" fill="url(#e)"/><path d="m283.19 707.92c.584.96 1.27 1.86 1.86 2.81a3650.79 3650.79 0 0 0 3.93 6.26c.713 1.16 1.47 2.29 2.17 3.45.211.36.472.65.595 1.05.138.41.109.88-.052 1.28-.178.44-.545.77-.975.96-.405.16-.815.15-1.24.145-2.19.001-4.38-.002-6.56 0-.376.01-.745 0-1.11-.083-.914-.201-1.72-.721-2.32-1.43-.225-.252-.382-.535-.559-.819-.844-1.32-1.67-2.66-2.52-3.98-.896-1.42-1.78-2.84-2.69-4.25-.728-1.16-1.46-2.31-2.19-3.47 1.17-.041 2.35-.008 3.52-.016a19.44 19.44 0 0 0 3.32-.249c.998-.192 1.99-.456 2.94-.831a11.42 11.42 0 0 0 1.89-.831z" fill="#8f92a1"/><path d="m264 687.23-9.86-10.46a2.65 2.65 0 0 0 -.901 1.55c-.74.36-.5.75-.056 1.11.001 14 .005 28 .002 42-.014 1.28 1.08 2.41 2.35 2.44 1.79.003 3.59-.001 5.38.002a2.75 2.75 0 0 0 .936-.135c.94-.336 1.63-1.24 1.65-2.25-.005-10.91-.006-21.84-.006-32.75" fill="#000"/><path d="m279.22 687.88a4.22 4.22 0 0 1 -.432-1.38c-.101-.628-.062-1.3-.074-1.94-.034-.957.02-1.92.014-2.88-.01-1.31-.049-2.59-.578-3.8-.308-.705-.8-1.33-1.5-1.67-.267-.044-.527-.096-.798-.1-6.46.003-12.92 0-19.38.002-.465-.909-.019-1.36.109-.35" fill="#f9efe5"/><path d="m284.42 709.79-.312.11c-2.12.6-4.46.695-6.66.639-1.07-.013-2.15-.164-3.22-.281-.891-.095-1.81-.427-2.72-.405 1.73-.044 3.51.03 5.24-.077 2.2-.208 4.58-.921 6.53-1.9l1.14 1.91z" fill="#505668"/><path d="m315.2 710.84v-24.08h9.23c1.89 0 3.48.323 4.75.97 1.29.646 2.26 1.55 2.92 2.71.66 1.15.99 2.49.99 4.02 0 1.54-.335 2.88-1.01 4.01-.66 1.13-1.64 2-2.94 2.62-1.3.614-2.9.921-4.79.921h-6.55v-3.6h5.94c1.11 0 2.02-.151 2.72-.453.72-.301 1.24-.743 1.57-1.32.341-.593.51-1.31.512-2.17 0-.851-.171-1.58-.512-2.18-.341-.615-.864-1.08-1.57-1.39-.704-.324-1.62-.485-2.74-.485h-4.08v20.43h-4.44zm13.82 0-5.96-10.93h4.85l6.09 10.93h-4.99zm13.97.356c-1.85 0-3.44-.377-4.79-1.13a7.79 7.79 0 0 1 -3.1-3.23c-.716-1.39-1.07-3.03-1.07-4.91 0-1.86.357-3.5 1.07-4.9.715-1.41 1.72-2.51 3.02-3.3 1.3-.787 2.83-1.18 4.59-1.18 1.13 0 2.21.178 3.22.533a7.41 7.41 0 0 1 2.71 1.65c.792.74 1.41 1.69 1.86 2.84.452 1.14.677 2.5.677 4.09v1.33h-15.12v-2.86h12.96l-2.03.84c0-1.02-.16-1.91-.479-2.67-.319-.765-.792-1.36-1.42-1.79-.627-.431-1.41-.647-2.34-.647-.935 0-1.73.216-2.39.647a4.11 4.11 0 0 0 -1.5 1.75c-.341.72-.512 1.53-.512 2.42v1.99c0 1.1.193 2.04.578 2.83.396.77.947 1.37 1.65 1.78.715.41 1.55.614 2.49.614a5.21 5.21 0 0 0 1.68-.258 3.48 3.48 0 0 0 1.32-.776c.375-.355.66-.792.86-1.31l4.06.469a6.32 6.32 0 0 1 -1.47 2.75c-.705.78-1.61 1.38-2.72 1.81-1.1.421-2.37.631-3.8.631zm17.91 0c-1.84 0-3.42-.394-4.74-1.18a7.93 7.93 0 0 1 -3.04-3.3c-.705-1.4-1.06-3.01-1.06-4.83 0-1.84.358-3.46 1.07-4.87.716-1.4 1.73-2.49 3.05-3.28 1.32-.797 2.88-1.2 4.67-1.2 1.51 0 2.84.269 4.808 1.16.539 2.07 1.3 2.76 2.28.693" fill="#fff"/><g clip-path="url(#g)"><path d="m1165 712c6.63 0 12-5.37 12-12s-5.37-12-12-12-12 5.37-12 12 5.37 12 12 12z" fill="#fff"/><g fill="#d52b1e"><path d="m1153 700c0 4.81 2.83 8.95 6.91 10.87v-21.74c-4.08 1.92-6.91 6.06-6.91 10.87zm16.17 10.87c4.08-1.92 6.91-6.06 6.91-10.87s-2.83-8.95-6.91-10.87z"/><path d="m1167.03 701.57 2.55-1.28-1.28-.638v-1.28l-2.55 1.28 1.28-2.55h-1.28l-1.28-1.92-1.28 1.92h-1.28l1.28 2.55-2.55-1.28v1.28l-1.28.638 2.55 1.28-.638.64h2.55v2.79h1.28v-2.8h2.55l-.638-.639z"/></g></g><path d="m1182.28 705v-10.18h6.14v1.09h-4.91v3.44h4.6v1.09h-4.6v3.46h4.99v1.1zm16.44-10.18v10.18h-1.19l-5.55-7.99h-.1v7.99h-1.23v-10.18h1.19l5.57 8.01h.1v-8.01z" fill="#fff"/></svg>