<svg xmlns="http://www.w3.org/2000/svg" width="40" height="40" fill="none" viewBox="0 0 40 40">
  <path fill="#2C2C2C" d="M0 12.5C0 5.596 5.596 0 12.5 0h15C34.404 0 40 5.596 40 12.5v15C40 34.404 34.404 40 27.5 40h-15C5.596 40 0 34.404 0 27.5v-15Z"/>
  <path fill="url(#a)" d="M22.904 5.136c.245-.002.439.103.66.189.276.11.534.257.759.452.428.364.775.785 1.184 1.16.54.552 1.097 1.09 1.636 1.645.21.193.408.399.609.602.777.745 1.515 1.534 2.292 2.278.226.244.48.458.7.705.193.212.419.388.61.601.235.262.517.471.744.74.206.212.38.443.497.716.112.279.212.557.235.86-.133-.292-.26-.572-.478-.811-.177-.201-.396-.339-.627-.468-.24-.12-.471-.232-.74-.274-.555-.1-1.14-.1-1.704-.084-.482.021-.964.041-1.445.065-.65-.01-1.232.075-1.876-.064-.31-.075-.612-.172-.875-.36l-.047-.022a2.439 2.439 0 0 1-.258-.25c-.084-.107-.116-.14-.206-.242-.024-.049-.037-.102-.064-.15a2.644 2.644 0 0 1-.27-.863c-.063-.392-.038-.811-.045-1.21-.022-.6-.007-1.199-.009-1.798-.006-.822-.044-1.6-.344-2.375a1.9 1.9 0 0 0-.938-1.042Z"/>
  <path fill="url(#b)" d="M25.086 13.088c.262.188.564.285.874.36.645.139 1.226.054 1.876.064.482-.024.963-.044 1.445-.065.564-.016 1.15-.015 1.705.084.268.042.5.153.74.274.23.13.45.267.626.468.219.24.345.519.478.811.032.14.064.277.07.421.041.66-.084 1.351-.23 1.993-.14.614-.366 1.22-.598 1.805-.2.481-.457.954-.71 1.41a11.55 11.55 0 0 1-1.193 1.658 11.22 11.22 0 0 1-1.807 1.707 11.178 11.178 0 0 1-1.625 1.012c-.09.045-.188.084-.276.126a6.559 6.559 0 0 1-.652.256c-.591.235-1.211.4-1.835.52a12.14 12.14 0 0 1-2.076.155c-.733.005-1.469-.015-2.202.01-.544-.842-1.074-1.693-1.616-2.537-.487-.752-.951-1.518-1.444-2.267-.128-.201-.262-.377-.305-.618-.036-.228-.047-.49.05-.706.147-.33.44-.594.782-.707.21-.069.454-.049.673-.05 1.444.002 2.892 0 4.336.002a3.978 3.978 0 0 0 1.145-.2 3.825 3.825 0 0 0 1.472-.912c.778-.788 1.218-1.905 1.11-3.016-.051-.422-.13-.831-.313-1.218a3.907 3.907 0 0 0-.548-.862l.048.022Z"/>
  <path fill="#8F92A1" d="M26.99 24.953c.366.598.792 1.165 1.165 1.76.818 1.307 1.634 2.604 2.455 3.91.446.724.919 1.43 1.358 2.158.131.226.294.405.371.654.087.257.068.55-.032.801-.112.273-.34.484-.61.598-.252.1-.51.093-.775.091H26.82c-.235.004-.466 0-.696-.052a2.686 2.686 0 0 1-1.45-.892c-.141-.157-.24-.334-.35-.512-.527-.827-1.042-1.662-1.574-2.486-.56-.887-1.113-1.778-1.684-2.657-.455-.724-.913-1.446-1.37-2.169.733-.025 1.468-.005 2.202-.01a12.14 12.14 0 0 0 2.075-.155c.624-.12 1.244-.285 1.835-.52.428-.149.766-.29 1.183-.52Z"/>
  <path fill="#000" d="M14.996 12.015 8.836 5.48a1.658 1.658 0 0 0-.563.97c-.046.223-.031.469-.035.697 0 8.75.003 17.5.001 26.25-.008.8.674 1.504 1.47 1.527 1.12.002 2.242 0 3.36.001.2 0 .397-.017.586-.084a1.558 1.558 0 0 0 1.03-1.405c-.003-6.819-.004-13.65-.004-20.469 0-.157.003-.31.045-.463.045-.183.143-.35.27-.489Z"/>
  <path fill="#F9EFE5" d="M24.51 12.424a2.639 2.639 0 0 1-.27-.863c-.063-.392-.039-.811-.046-1.211-.021-.598.01-1.199.008-1.797-.006-.822-.03-1.617-.361-2.375-.193-.44-.5-.833-.938-1.042-.166-.027-.328-.06-.498-.062l-12.11.001c-.29 0-.568-.012-.852.068a1.75 1.75 0 0 0-.607.337l6.136 6.563a2.15 2.15 0 0 1 .26-.233c.178-.114.402-.158.61-.165 2.118-.003 4.297.004 6.406-.004.867.006 1.683.362 2.325.933-.024-.049-.037-.102-.063-.15Z"/>
  <path fill="#505668" d="m27.764 26.118-.195.069c-1.325.374-2.786.434-4.162.399-.672-.008-1.346-.103-2.014-.176-.556-.06-1.132-.267-1.698-.253 1.082-.028 2.195.019 3.275-.048 1.376-.13 2.86-.576 4.081-1.186l.713 1.195Z"/>
  <defs>
    <linearGradient id="a" x1="28.29" x2="24.999" y1="9.687" y2="12.978" gradientUnits="userSpaceOnUse">
      <stop stop-color="#505668"/>
      <stop offset=".053" stop-color="#6C7180"/>
      <stop offset=".33" stop-color="#fff"/>
      <stop offset=".509" stop-color="#CDCED3"/>
      <stop offset=".847" stop-color="#737886"/>
      <stop offset="1" stop-color="#505668"/>
    </linearGradient>
    <linearGradient id="b" x1="24.607" x2="24.607" y1="26.157" y2="13.066" gradientUnits="userSpaceOnUse">
      <stop stop-color="#F8F8F8"/>
      <stop offset=".214" stop-color="#F5F5F5"/>
      <stop offset=".37" stop-color="#EBECED"/>
      <stop offset=".507" stop-color="#DBDCDF"/>
      <stop offset=".633" stop-color="#C5C7CC"/>
      <stop offset=".752" stop-color="#A8ABB3"/>
      <stop offset=".866" stop-color="#848995"/>
      <stop offset=".973" stop-color="#5B6171"/>
      <stop offset="1" stop-color="#505668"/>
    </linearGradient>
  </defs>
</svg>
