<svg fill="none" height="24" viewBox="0 0 120 24" width="120" xmlns="http://www.w3.org/2000/svg"><path d="m7 18.778v-15.05h5.768c1.183 0 2.173.201 2.971.605.805.404 1.414.97 1.827 1.697.412.72.619 1.56.619 2.515 0 .963-.21 1.798-.63 2.505-.413.708-1.025 1.253-1.836 1.637-.812.384-1.81.576-2.992.576h-4.097v-2.253h3.715c.694 0 1.262-.094 1.702-.283.447-.188.774-.464.98-.828.214-.37.32-.822.32-1.354s-.106-.986-.32-1.363c-.213-.384-.54-.674-.98-.869-.44-.202-1.011-.303-1.713-.303h-2.548v12.768zm8.636 0-3.725-6.828h3.034l3.807 6.828zm8.73.222c-1.156 0-2.154-.236-2.993-.707a4.87 4.87 0 0 1 -1.94-2.02c-.447-.869-.67-1.893-.67-3.071 0-1.165.223-2.185.67-3.06a4.988 4.988 0 0 1 1.889-2.061c.811-.492 1.768-.738 2.868-.738.709 0 1.38.112 2.012.334.64.222 1.204.565 1.692 1.03.496.465.884 1.057 1.166 1.778.282.714.423 1.566.423 2.555v.829h-9.451v-1.789h8.1l-1.27.525c0-.64-.1-1.195-.299-1.667a2.48 2.48 0 0 0 -.887-1.12c-.392-.27-.88-.405-1.465-.405s-1.084.135-1.496.404a2.57 2.57 0 0 0 -.94 1.091c-.212.451-.32.956-.32 1.515v1.243c0 .687.121 1.276.362 1.767.248.485.592.856 1.032 1.112.447.255.966.383 1.558.383a3.25 3.25 0 0 0 1.052-.161c.323-.108.599-.27.826-.485.233-.222.412-.495.536-.818l2.538.293a3.95 3.95 0 0 1 -.918 1.717c-.44.485-1.008.862-1.702 1.131-.688.263-1.48.394-2.373.394zm11.194 0c-1.148 0-2.135-.246-2.96-.737a4.957 4.957 0 0 1 -1.899-2.061c-.44-.875-.66-1.882-.66-3.02 0-1.152.223-2.165.67-3.04a4.96 4.96 0 0 1 1.91-2.051c.825-.498 1.798-.748 2.92-.748.942 0 1.774.169 2.496.505a4.226 4.226 0 0 1 1.723 1.425c.434.606.681 1.316.743 2.131h-2.6a2.537 2.537 0 0 0 -.402-.98 2.13 2.13 0 0 0 -.784-.687c-.317-.168-.695-.252-1.136-.252-.557 0-1.045.148-1.465.444-.412.29-.736.707-.97 1.253-.233.545-.35 1.198-.35 1.96 0 .767.113 1.43.34 1.99.227.552.55.98.97 1.282.42.296.911.445 1.475.445.599 0 1.105-.172 1.517-.516.42-.343.688-.818.805-1.424h2.6c-.062.801-.303 1.509-.722 2.121a4.313 4.313 0 0 1 -1.703 1.445c-.715.343-1.554.515-2.517.515zm11.093 0c-1.155 0-2.153-.236-2.992-.707a4.87 4.87 0 0 1 -1.94-2.02c-.447-.869-.67-1.893-.67-3.071 0-1.165.223-2.185.67-3.06a4.987 4.987 0 0 1 1.889-2.062c.812-.492 1.768-.738 2.869-.738.708 0 1.379.112 2.012.334.64.222 1.203.565 1.692 1.03.495.465.884 1.057 1.166 1.778.282.714.423 1.566.423 2.555v.829h-9.452v-1.788h8.1l-1.27.525c0-.64-.1-1.195-.3-1.667a2.48 2.48 0 0 0 -.886-1.12c-.393-.27-.881-.405-1.466-.405-.584 0-1.083.135-1.496.404a2.57 2.57 0 0 0 -.939 1.091c-.213.451-.32.956-.32 1.515v1.243c0 .687.12 1.276.362 1.767.247.485.591.856 1.031 1.112.447.255.967.383 1.558.383a3.25 3.25 0 0 0 1.053-.161c.323-.108.598-.27.825-.485.234-.222.413-.495.537-.818l2.538.293a3.95 3.95 0 0 1 -.918 1.717c-.44.485-1.008.862-1.703 1.131-.688.263-1.479.394-2.373.394zm6.171-.222v-11.293h2.713v11.293zm1.362-12.879c-.434 0-.805-.141-1.115-.424a1.332 1.332 0 0 1 -.464-1.02c0-.404.155-.748.464-1.03.31-.284.681-.425 1.115-.425.426 0 .794.141 1.104.424s.464.623.464 1.02c0 .404-.155.748-.464 1.03-.31.284-.678.425-1.104.425zm2.941 17.101v-15.515h2.662v1.869h.165a4.93 4.93 0 0 1 .588-.87c.254-.316.598-.585 1.032-.807.44-.222 1-.334 1.681-.334.888 0 1.69.223 2.405.667.715.445 1.282 1.098 1.702 1.96.427.862.64 1.922.64 3.181 0 1.24-.207 2.293-.62 3.162-.412.869-.98 1.532-1.702 1.99-.715.451-1.527.677-2.435.677-.653 0-1.2-.108-1.64-.323a3.547 3.547 0 0 1 -1.053-.788 4.51 4.51 0 0 1 -.598-.88h-.114v6.011zm5.375-6.202c.599 0 1.097-.158 1.496-.475.406-.316.712-.75.919-1.303.206-.552.31-1.178.31-1.879 0-.7-.104-1.323-.31-1.868-.207-.546-.51-.973-.908-1.283-.4-.31-.901-.465-1.507-.465-.584 0-1.08.148-1.486.445-.398.296-.704.717-.918 1.262-.206.539-.31 1.175-.31 1.91 0 .727.104 1.366.31 1.919.214.545.523.973.929 1.282.406.303.898.455 1.475.455zm12.331-9.313v2.06h-6.614v-2.06zm-4.994-2.687h2.713v10.586c0 .444.1.774.3.99.2.209.516.313.949.313.117 0 .248-.01.392-.03a4.6 4.6 0 0 0 .392-.071l.464 2.08a5.666 5.666 0 0 1 -.877.193 5.64 5.64 0 0 1 -.887.07c-1.073 0-1.916-.276-2.528-.828-.612-.559-.918-1.32-.918-2.283zm12.867 14.182c-1.342 0-2.549-.307-3.622-.92-1.066-.612-1.909-1.494-2.528-2.646-.612-1.151-.918-2.535-.918-4.151 0-1.623.306-3.01.918-4.162.62-1.158 1.462-2.044 2.528-2.657 1.073-.612 2.28-.919 3.622-.919 1.348 0 2.552.307 3.611.92 1.06.612 1.899 1.498 2.518 2.656.619 1.152.928 2.539.928 4.162 0 1.616-.31 3-.928 4.151-.62 1.152-1.459 2.034-2.518 2.647-1.06.612-2.263.919-3.611.919zm0-2.445c.832 0 1.568-.202 2.208-.606s1.142-.996 1.506-1.777c.365-.788.547-1.751.547-2.89 0-1.144-.182-2.11-.547-2.898-.364-.788-.867-1.384-1.506-1.788-.64-.404-1.376-.606-2.208-.606-.833 0-1.572.202-2.219.606-.64.404-1.141 1-1.506 1.788s-.547 1.754-.547 2.899c0 1.138.182 2.1.547 2.889.365.78.867 1.373 1.506 1.777.647.404 1.386.606 2.219.606zm11.071-4.363v6.606h-2.713v-11.293h2.662v1.93h.134a3.256 3.256 0 0 1 1.228-1.506c.564-.377 1.28-.566 2.146-.566.798 0 1.492.165 2.084.495a3.34 3.34 0 0 1 1.372 1.455c.33.633.496 1.4.496 2.303v7.182h-2.714v-6.768c0-.754-.2-1.343-.598-1.768-.4-.43-.95-.646-1.651-.646-.475 0-.898.101-1.27.303a2.2 2.2 0 0 0 -.866.879c-.207.377-.31.841-.31 1.394zm14.105 6.828c-1.155 0-2.153-.236-2.992-.707a4.872 4.872 0 0 1 -1.94-2.02c-.447-.869-.67-1.893-.67-3.071 0-1.165.223-2.185.67-3.06a4.987 4.987 0 0 1 1.889-2.061c.811-.492 1.767-.738 2.868-.738.708 0 1.379.112 2.012.334.64.222 1.204.565 1.692 1.03.495.465.884 1.057 1.166 1.778.282.714.423 1.566.423 2.555v.829h-9.451v-1.789h8.099l-1.269.525c0-.64-.1-1.195-.299-1.667a2.477 2.477 0 0 0 -.887-1.12c-.392-.27-.881-.405-1.465-.405-.585 0-1.084.135-1.497.404a2.58 2.58 0 0 0 -.939 1.091 3.505 3.505 0 0 0 -.319 1.515v1.243c0 .687.12 1.276.361 1.767a2.63 2.63 0 0 0 1.032 1.112c.447.255.966.383 1.558.383.385 0 .736-.054 1.052-.161.323-.108.598-.27.825-.485.234-.222.413-.495.537-.818l2.538.293a3.95 3.95 0 0 1 -.918 1.717c-.44.485-1.008.862-1.703 1.131-.687.263-1.478.394-2.373.394z" fill="#000"/></svg>