<svg xmlns="http://www.w3.org/2000/svg" width="1440" height="300" fill="none" viewBox="0 0 1440 300">
  <g clip-path="url(#a)">
    <path fill="#fff" d="M100 131.2c0-17.922 0-26.883 3.488-33.728a32 32 0 0 1 13.984-13.984C124.317 80 133.278 80 151.2 80h1137.6c17.92 0 26.88 0 33.73 3.488a32.006 32.006 0 0 1 13.98 13.984c3.49 6.845 3.49 15.806 3.49 33.728v37.6c0 17.922 0 26.883-3.49 33.728a32.007 32.007 0 0 1-13.98 13.984C1315.68 220 1306.72 220 1288.8 220H151.2c-17.922 0-26.883 0-33.728-3.488a32 32 0 0 1-13.984-13.984C100 195.683 100 186.722 100 168.8v-37.6Z"/>
    <path fill="#000" d="M101.047 145.688v-3.36l9.891-15.609h2.781v4.781h-1.703l-6.657 10.531v.188h13.797v3.469h-18.109ZM112.141 150v-5.328l.062-1.516v-16.437h3.969V150h-4.031Zm11.523.266c-.708 0-1.307-.24-1.796-.719a2.45 2.45 0 0 1-.719-1.781c0-.698.239-1.287.719-1.766.489-.49 1.088-.734 1.796-.734.709 0 1.302.244 1.782.734.489.479.734 1.068.734 1.766s-.245 1.291-.734 1.781c-.48.479-1.073.719-1.782.719Zm13.071.046c-1.687 0-3.182-.281-4.484-.843-1.302-.573-2.323-1.354-3.063-2.344a5.522 5.522 0 0 1-1.094-3.359c0-.969.214-1.865.641-2.688a6.042 6.042 0 0 1 1.734-2.062 5.696 5.696 0 0 1 2.485-1.063v-.141c-1.198-.27-2.167-.885-2.906-1.843-.74-.959-1.11-2.068-1.11-3.328 0-1.198.333-2.266 1-3.203.677-.938 1.604-1.678 2.781-2.219 1.177-.542 2.516-.813 4.016-.813 1.49 0 2.823.271 4 .813 1.177.541 2.104 1.281 2.781 2.219.677.937 1.016 2.005 1.016 3.203 0 1.26-.375 2.369-1.125 3.328-.75.958-1.708 1.573-2.875 1.843v.141a5.68 5.68 0 0 1 2.453 1.063 5.967 5.967 0 0 1 1.75 2.062c.438.823.656 1.719.656 2.688 0 1.25-.37 2.369-1.109 3.359-.74.99-1.761 1.771-3.063 2.344-1.302.562-2.796.843-4.484.843Zm0-3.234c.875 0 1.635-.151 2.281-.453.646-.302 1.146-.724 1.5-1.266.354-.552.532-1.182.532-1.89 0-.74-.188-1.396-.563-1.969a3.841 3.841 0 0 0-1.531-1.344c-.646-.333-1.386-.5-2.219-.5s-1.578.167-2.234.5a3.844 3.844 0 0 0-1.532 1.344c-.364.562-.546 1.219-.546 1.969 0 .708.177 1.338.531 1.89.354.542.854.964 1.5 1.266.646.302 1.406.453 2.281.453Zm0-10.609c.708 0 1.339-.141 1.891-.422a3.407 3.407 0 0 0 1.312-1.203c.323-.521.485-1.115.485-1.782 0-.677-.157-1.265-.469-1.765a3.104 3.104 0 0 0-1.297-1.156c-.552-.282-1.193-.422-1.922-.422-.729 0-1.375.14-1.937.422-.553.27-.985.656-1.297 1.156-.302.5-.453 1.088-.453 1.765 0 .667.156 1.256.468 1.766.313.511.745.912 1.297 1.203.563.292 1.203.438 1.922.438Z"/>
    <path fill="#7E8890" d="M101.516 172h-1.485l4.281-11.641h1.454L110.031 172h-1.469l-3.484-9.797h-.094L101.516 172Zm.546-4.547h5.954v1.25h-5.954v-1.25Zm14.891-4.187L113.734 172h-1.375l-3.218-8.734h1.453l2.406 6.968h.094l2.406-6.968h1.453Zm4.375 8.922c-.838 0-1.565-.188-2.18-.563a3.71 3.71 0 0 1-1.406-1.57c-.328-.677-.492-1.461-.492-2.352 0-.896.161-1.685.484-2.367.323-.682.776-1.216 1.36-1.602.588-.385 1.276-.578 2.062-.578.453 0 .904.076 1.352.227.448.151.854.396 1.219.734.369.339.664.787.882 1.344.219.557.329 1.242.329 2.055v.578h-6.735v-1.156h6.008l-.617.437c0-.583-.091-1.102-.274-1.555a2.354 2.354 0 0 0-.82-1.07c-.359-.26-.807-.391-1.344-.391-.536 0-.997.133-1.383.399-.38.26-.671.601-.875 1.023a3.095 3.095 0 0 0-.304 1.36v.765c0 .662.114 1.222.344 1.68.229.458.549.807.96 1.047.412.234.888.351 1.43.351a2.9 2.9 0 0 0 .953-.148c.287-.104.534-.258.742-.461.209-.208.368-.464.477-.766l1.297.375a2.864 2.864 0 0 1-.688 1.157 3.317 3.317 0 0 1-1.187.773 4.416 4.416 0 0 1-1.594.274Zm4.875-.188v-8.734h1.281v1.328h.094a2.09 2.09 0 0 1 .867-1.047 2.563 2.563 0 0 1 1.414-.406c.099 0 .222.002.368.007.145 0 .257.003.335.008v1.36a4.24 4.24 0 0 0-.312-.047 3.998 3.998 0 0 0-.516-.031c-.422 0-.799.088-1.132.265a2.038 2.038 0 0 0-.79.727 1.987 1.987 0 0 0-.281 1.054V172h-1.328Zm7.766.203a3.572 3.572 0 0 1-1.508-.312 2.587 2.587 0 0 1-1.078-.922c-.266-.401-.399-.886-.399-1.453 0-.5.099-.904.297-1.211.198-.313.461-.558.789-.735a4.193 4.193 0 0 1 1.094-.406c.401-.088.805-.159 1.211-.211.531-.068.961-.12 1.289-.156.333-.037.576-.099.727-.188.156-.088.234-.239.234-.453v-.047c0-.557-.154-.989-.461-1.297-.302-.312-.763-.468-1.383-.468-.635 0-1.135.14-1.5.422-.364.276-.62.573-.765.89l-1.282-.453c.23-.531.534-.945.914-1.242a3.542 3.542 0 0 1 1.25-.625c.454-.12.899-.18 1.336-.18.282 0 .605.034.969.102.365.062.719.198 1.063.406.349.203.635.513.859.93.229.411.344.963.344 1.656V172h-1.344v-1.188h-.063a2.32 2.32 0 0 1-.453.61 2.788 2.788 0 0 1-.851.555c-.349.151-.779.226-1.289.226Zm.203-1.203c.531 0 .979-.104 1.344-.312.364-.209.64-.477.828-.805a2.1 2.1 0 0 0 .281-1.039v-1.235c-.057.068-.182.131-.375.188a6.557 6.557 0 0 1-.656.141c-.245.041-.485.078-.719.109l-.563.062a5.085 5.085 0 0 0-.976.227 1.727 1.727 0 0 0-.734.445c-.183.198-.274.469-.274.813 0 .463.172.815.516 1.054.349.235.791.352 1.328.352Zm9.031 4.453c-.974 0-1.745-.177-2.312-.531-.563-.354-.98-.761-1.25-1.219l1.062-.75c.12.162.274.344.461.547.188.208.443.388.766.539.323.151.747.227 1.273.227.703 0 1.284-.17 1.742-.508.464-.339.696-.873.696-1.602v-1.765h-.125a6.438 6.438 0 0 1-.414.586c-.178.229-.435.434-.774.617-.333.177-.786.265-1.359.265-.703 0-1.334-.166-1.891-.5-.557-.333-1-.817-1.328-1.453-.323-.635-.484-1.406-.484-2.312 0-.896.156-1.675.468-2.336.318-.667.758-1.182 1.321-1.547.562-.37 1.211-.555 1.945-.555.568 0 1.018.094 1.352.282.338.187.596.401.773.64a9.3 9.3 0 0 1 .422.578h.141v-1.39h1.281v8.984c0 .75-.17 1.359-.508 1.828a2.87 2.87 0 0 1-1.359 1.039c-.568.224-1.201.336-1.899.336Zm-.047-4.797c.808 0 1.425-.273 1.852-.82.432-.547.648-1.305.648-2.274 0-.63-.094-1.184-.281-1.664-.187-.479-.469-.854-.844-1.125-.37-.276-.828-.414-1.375-.414-.567 0-1.041.146-1.422.438a2.59 2.59 0 0 0-.843 1.156 4.416 4.416 0 0 0-.282 1.609c0 .605.094 1.141.282 1.61.192.463.479.828.859 1.094.38.26.849.39 1.406.39Zm9.188 1.532c-.839 0-1.565-.188-2.18-.563a3.71 3.71 0 0 1-1.406-1.57c-.328-.677-.492-1.461-.492-2.352 0-.896.161-1.685.484-2.367.323-.682.776-1.216 1.359-1.602.589-.385 1.276-.578 2.063-.578a4.2 4.2 0 0 1 1.351.227c.448.151.855.396 1.219.734.37.339.664.787.883 1.344.219.557.328 1.242.328 2.055v.578h-6.734v-1.156h6.008l-.618.437c0-.583-.091-1.102-.273-1.555a2.361 2.361 0 0 0-.82-1.07c-.36-.26-.808-.391-1.344-.391-.537 0-.998.133-1.383.399-.38.26-.672.601-.875 1.023a3.096 3.096 0 0 0-.305 1.36v.765c0 .662.115 1.222.344 1.68.229.458.55.807.961 1.047.412.234.888.351 1.43.351.349 0 .666-.049.953-.148.286-.104.534-.258.742-.461.208-.208.367-.464.477-.766l1.296.375a2.85 2.85 0 0 1-.687 1.157 3.334 3.334 0 0 1-1.187.773 4.42 4.42 0 0 1-1.594.274Zm8.625-.188v-8.734h1.281v1.328h.094a2.08 2.08 0 0 1 .867-1.047 2.56 2.56 0 0 1 1.414-.406c.099 0 .221.002.367.007.146 0 .258.003.336.008v1.36a4.335 4.335 0 0 0-.312-.047 4.02 4.02 0 0 0-.516-.031 2.38 2.38 0 0 0-1.133.265 2.042 2.042 0 0 0-.789.727 1.987 1.987 0 0 0-.281 1.054V172h-1.328Zm7.765.203a3.568 3.568 0 0 1-1.507-.312 2.59 2.59 0 0 1-1.079-.922c-.265-.401-.398-.886-.398-1.453 0-.5.099-.904.297-1.211.198-.313.461-.558.789-.735a4.18 4.18 0 0 1 1.094-.406c.401-.088.804-.159 1.211-.211.531-.068.961-.12 1.289-.156.333-.037.575-.099.726-.188.156-.088.235-.239.235-.453v-.047c0-.557-.154-.989-.461-1.297-.302-.312-.763-.468-1.383-.468-.636 0-1.136.14-1.5.422-.365.276-.62.573-.766.89l-1.281-.453c.229-.531.534-.945.914-1.242a3.526 3.526 0 0 1 1.25-.625c.453-.12.898-.18 1.336-.18.281 0 .604.034.969.102a3.02 3.02 0 0 1 1.062.406c.349.203.636.513.86.93.229.411.343.963.343 1.656V172h-1.343v-1.188h-.063a2.32 2.32 0 0 1-.453.61 2.794 2.794 0 0 1-.852.555c-.349.151-.778.226-1.289.226Zm.204-1.203c.531 0 .979-.104 1.343-.312a2.16 2.16 0 0 0 .828-.805 2.09 2.09 0 0 0 .282-1.039v-1.235c-.058.068-.183.131-.375.188a6.581 6.581 0 0 1-.657.141c-.244.041-.484.078-.718.109l-.563.062a5.068 5.068 0 0 0-.976.227 1.73 1.73 0 0 0-.735.445c-.182.198-.273.469-.273.813 0 .463.172.815.515 1.054.349.235.792.352 1.329.352Zm9.296-7.734v1.14h-4.515v-1.14h4.515Zm-3.203-2.078h1.328v8.312c0 .453.094.786.282 1 .187.208.484.312.89.312.089 0 .18-.005.274-.015.099-.011.205-.026.32-.047l.281 1.203a2.206 2.206 0 0 1-.461.109 3.018 3.018 0 0 1-.539.047c-.703 0-1.276-.208-1.718-.625-.438-.416-.657-.958-.657-1.625v-8.671ZM179.516 172v-8.734h1.328V172h-1.328Zm.672-10.188a.943.943 0 0 1-.672-.265.849.849 0 0 1-.282-.641c0-.25.094-.463.282-.64a.944.944 0 0 1 .672-.266c.26 0 .484.089.671.266.188.177.282.39.282.64s-.094.464-.282.641a.942.942 0 0 1-.671.265Zm3.703 4.938V172h-1.329v-8.734h1.282v1.375h.125c.203-.448.513-.808.929-1.079.417-.27.956-.406 1.618-.406.588 0 1.104.12 1.546.36.443.239.787.604 1.032 1.093.25.485.375 1.099.375 1.844V172h-1.328v-5.453c0-.682-.18-1.216-.539-1.602-.36-.39-.849-.586-1.469-.586-.427 0-.81.094-1.149.282a2.046 2.046 0 0 0-.804.812c-.193.354-.289.787-.289 1.297Zm10.812 8.703c-.974 0-1.745-.177-2.312-.531-.563-.354-.98-.761-1.25-1.219l1.062-.75c.12.162.274.344.461.547.188.208.443.388.766.539.323.151.747.227 1.273.227.703 0 1.284-.17 1.742-.508.464-.339.696-.873.696-1.602v-1.765h-.125a6.438 6.438 0 0 1-.414.586c-.178.229-.435.434-.774.617-.333.177-.786.265-1.359.265-.703 0-1.334-.166-1.891-.5-.557-.333-1-.817-1.328-1.453-.323-.635-.484-1.406-.484-2.312 0-.896.156-1.675.468-2.336.318-.667.758-1.182 1.321-1.547.562-.37 1.211-.555 1.945-.555.568 0 1.018.094 1.352.282.338.187.596.401.773.64a9.3 9.3 0 0 1 .422.578h.141v-1.39h1.281v8.984c0 .75-.17 1.359-.508 1.828a2.87 2.87 0 0 1-1.359 1.039c-.568.224-1.201.336-1.899.336Zm-.047-4.797c.808 0 1.425-.273 1.852-.82.432-.547.648-1.305.648-2.274 0-.63-.094-1.184-.281-1.664-.187-.479-.469-.854-.844-1.125-.37-.276-.828-.414-1.375-.414-.567 0-1.041.146-1.422.438a2.59 2.59 0 0 0-.843 1.156 4.416 4.416 0 0 0-.282 1.609c0 .605.094 1.141.282 1.61.192.463.479.828.859 1.094.38.26.849.39 1.406.39Z"/>
    <path fill="#000" d="M334.625 126.719V150h-4.187v-19.172h-.141l-5.438 3.484v-3.874l5.782-3.719h3.984Zm10.93 23.593c-1.521 0-2.88-.281-4.078-.843-1.188-.573-2.136-1.36-2.844-2.36-.698-1-1.068-2.145-1.109-3.437h4.094c.062.948.468 1.724 1.218 2.328.761.604 1.667.906 2.719.906.833 0 1.568-.187 2.203-.562a4.124 4.124 0 0 0 1.5-1.578c.375-.677.563-1.448.563-2.313 0-.885-.188-1.667-.563-2.344a4.102 4.102 0 0 0-1.547-1.609c-.656-.396-1.411-.594-2.265-.594-.709 0-1.396.136-2.063.406-.667.261-1.198.605-1.594 1.032l-3.828-.625 1.219-12h13.516v3.531H342.68l-.672 6.172h.125c.438-.521 1.047-.943 1.828-1.266.792-.333 1.662-.5 2.61-.5 1.416 0 2.672.334 3.765 1a7.052 7.052 0 0 1 2.61 2.719c.635 1.156.953 2.484.953 3.984 0 1.532-.354 2.901-1.063 4.11a7.594 7.594 0 0 1-2.937 2.828c-1.25.677-2.698 1.015-4.344 1.015Zm19.227 0c-1.886 0-3.5-.468-4.844-1.406-1.333-.948-2.354-2.307-3.062-4.078-.709-1.781-1.063-3.932-1.063-6.453 0-2.521.354-4.672 1.063-6.453.708-1.792 1.729-3.156 3.062-4.094 1.344-.948 2.958-1.422 4.844-1.422 1.875 0 3.484.474 4.828 1.422 1.344.948 2.37 2.313 3.078 4.094.708 1.781 1.063 3.932 1.063 6.453 0 2.521-.355 4.672-1.063 6.453-.708 1.771-1.729 3.13-3.062 4.078-1.334.938-2.948 1.406-4.844 1.406Zm0-3.531c1.01 0 1.864-.328 2.562-.984.709-.656 1.245-1.609 1.61-2.859.375-1.261.562-2.782.562-4.563 0-1.792-.187-3.318-.562-4.578-.365-1.261-.901-2.219-1.61-2.875-.698-.667-1.552-1-2.562-1-1.521 0-2.693.739-3.516 2.219-.812 1.468-1.218 3.547-1.218 6.234 0 1.781.182 3.302.546 4.563.365 1.25.901 2.203 1.61 2.859.708.656 1.567.984 2.578.984ZM376.228 150v-23.281h4.218v10.703h.282l9.093-10.703h5.141l-9 10.453L395.04 150h-5.078l-6.938-9.969-2.578 3.047V150h-4.218Zm24.742-1.375v-15.734h3.563v15.734h-3.563Zm-6.078-6.078v-3.578h15.719v3.578h-15.719Z"/>
    <path fill="#7E8890" d="M325.031 160.359h1.688l3.953 9.657h.14l3.954-9.657h1.742V172h-1.383v-8.844h-.109L331.352 172h-1.266l-3.617-8.844h-.11V172h-1.328v-11.641ZM338.406 172v-8.734h1.328V172h-1.328Zm.672-10.188a.946.946 0 0 1-.672-.265.852.852 0 0 1-.281-.641.85.85 0 0 1 .281-.64.947.947 0 0 1 .672-.266c.261 0 .484.089.672.266.188.177.281.39.281.64s-.093.464-.281.641a.944.944 0 0 1-.672.265Zm3.703-1.453V172h-1.328v-11.641h1.328Zm5.375 11.829c-.838 0-1.565-.188-2.179-.563a3.705 3.705 0 0 1-1.407-1.57c-.328-.677-.492-1.461-.492-2.352 0-.896.162-1.685.484-2.367.323-.682.777-1.216 1.36-1.602.588-.385 1.276-.578 2.062-.578.454 0 .904.076 1.352.227.448.151.854.396 1.219.734.369.339.664.787.883 1.344.218.557.328 1.242.328 2.055v.578h-6.735v-1.156h6.008l-.617.437c0-.583-.091-1.102-.274-1.555a2.354 2.354 0 0 0-.82-1.07c-.359-.26-.807-.391-1.344-.391-.536 0-.997.133-1.382.399-.381.26-.672.601-.875 1.023a3.082 3.082 0 0 0-.305 1.36v.765c0 .662.114 1.222.344 1.68.229.458.549.807.961 1.047.411.234.888.351 1.429.351a2.9 2.9 0 0 0 .953-.148c.287-.104.534-.258.743-.461.208-.208.367-.464.476-.766l1.297.375a2.862 2.862 0 0 1-.687 1.157 3.33 3.33 0 0 1-1.188.773 4.416 4.416 0 0 1-1.594.274Zm11.047-6.954-1.203.328a2.32 2.32 0 0 0-.594-.843c-.276-.271-.708-.407-1.297-.407-.531 0-.974.126-1.328.376-.354.244-.531.552-.531.921 0 .334.12.599.359.797.245.198.625.36 1.141.485l1.297.312c.776.188 1.354.477 1.734.867.386.391.578.888.578 1.492 0 .5-.143.948-.429 1.344-.287.396-.685.709-1.196.938-.51.229-1.104.344-1.781.344-.891 0-1.627-.196-2.211-.586-.578-.391-.945-.956-1.101-1.696l1.265-.312c.12.468.349.82.688 1.054.344.235.791.352 1.344.352.619 0 1.114-.133 1.484-.398.375-.271.562-.592.562-.961 0-.615-.432-1.026-1.296-1.235l-1.454-.344c-.802-.192-1.39-.486-1.765-.882s-.563-.894-.563-1.492c0-.495.138-.933.414-1.313.282-.38.664-.677 1.149-.891a3.953 3.953 0 0 1 1.64-.328c.87 0 1.55.193 2.039.578.495.381.847.881 1.055 1.5Zm8.969-1.968v1.14h-4.516v-1.14h4.516Zm-3.203-2.078h1.328v8.312c0 .453.094.786.281 1 .188.208.484.312.891.312.088 0 .179-.005.273-.015.099-.011.206-.026.32-.047l.282 1.203a2.221 2.221 0 0 1-.461.109 3.026 3.026 0 0 1-.539.047c-.703 0-1.276-.208-1.719-.625-.437-.416-.656-.958-.656-1.625v-8.671ZM369.453 172v-8.734h1.281v1.328h.094a2.09 2.09 0 0 1 .867-1.047 2.563 2.563 0 0 1 1.414-.406c.099 0 .222.002.368.007.145 0 .257.003.335.008v1.36a4.24 4.24 0 0 0-.312-.047 3.998 3.998 0 0 0-.516-.031c-.422 0-.799.088-1.132.265a2.038 2.038 0 0 0-.79.727 1.987 1.987 0 0 0-.281 1.054V172h-1.328Zm7.766.203a3.572 3.572 0 0 1-1.508-.312 2.587 2.587 0 0 1-1.078-.922c-.266-.401-.399-.886-.399-1.453 0-.5.099-.904.297-1.211.198-.313.461-.558.789-.735a4.193 4.193 0 0 1 1.094-.406c.401-.088.805-.159 1.211-.211.531-.068.961-.12 1.289-.156.333-.037.576-.099.727-.188.156-.088.234-.239.234-.453v-.047c0-.557-.154-.989-.461-1.297-.302-.312-.763-.468-1.383-.468-.635 0-1.135.14-1.5.422-.364.276-.62.573-.765.89l-1.282-.453c.23-.531.534-.945.914-1.242a3.542 3.542 0 0 1 1.25-.625c.454-.12.899-.18 1.336-.18.282 0 .605.034.969.102.365.062.719.198 1.063.406.349.203.635.513.859.93.229.411.344.963.344 1.656V172h-1.344v-1.188h-.063a2.32 2.32 0 0 1-.453.61 2.788 2.788 0 0 1-.851.555c-.349.151-.779.226-1.289.226Zm.203-1.203c.531 0 .979-.104 1.344-.312.364-.209.64-.477.828-.805a2.1 2.1 0 0 0 .281-1.039v-1.235c-.057.068-.182.131-.375.188a6.557 6.557 0 0 1-.656.141c-.245.041-.485.078-.719.109l-.563.062a5.085 5.085 0 0 0-.976.227 1.727 1.727 0 0 0-.734.445c-.183.198-.274.469-.274.813 0 .463.172.815.516 1.054.349.235.791.352 1.328.352Zm9.047 1.188c-.813 0-1.516-.193-2.11-.579a3.88 3.88 0 0 1-1.367-1.601c-.318-.677-.476-1.451-.476-2.32 0-.891.164-1.675.492-2.352.328-.682.786-1.216 1.375-1.602.594-.385 1.284-.578 2.07-.578.615 0 1.167.115 1.656.344.495.224.899.542 1.211.953.318.412.513.891.586 1.438h-1.344a2.08 2.08 0 0 0-.367-.75 1.887 1.887 0 0 0-.703-.563c-.286-.146-.627-.219-1.023-.219-.521 0-.977.136-1.367.407-.391.27-.696.653-.914 1.148-.219.49-.329 1.065-.329 1.727 0 .671.107 1.26.321 1.765.213.5.515.888.906 1.164.396.276.857.414 1.383.414s.976-.135 1.351-.406c.375-.276.623-.651.742-1.125h1.344c-.073.516-.26.979-.562 1.391a3.18 3.18 0 0 1-1.18.984c-.484.24-1.049.36-1.695.36Zm5.953-3.376-.031-1.656h.281l3.812-3.89h1.657l-4.063 4.125h-.125l-1.531 1.421Zm-1.25 3.188v-11.641h1.328V172h-1.328Zm5.531 0-3.406-4.312.953-.938 4.172 5.25h-1.719Zm5.719.188c-.839 0-1.565-.188-2.18-.563a3.71 3.71 0 0 1-1.406-1.57c-.328-.677-.492-1.461-.492-2.352 0-.896.161-1.685.484-2.367.323-.682.776-1.216 1.36-1.602.588-.385 1.276-.578 2.062-.578.453 0 .904.076 1.352.227.447.151.854.396 1.218.734.37.339.664.787.883 1.344.219.557.328 1.242.328 2.055v.578h-6.734v-1.156h6.008l-.617.437c0-.583-.092-1.102-.274-1.555a2.361 2.361 0 0 0-.82-1.07c-.36-.26-.808-.391-1.344-.391s-.997.133-1.383.399c-.38.26-.672.601-.875 1.023a3.095 3.095 0 0 0-.304 1.36v.765c0 .662.114 1.222.343 1.68.229.458.55.807.961 1.047.412.234.888.351 1.43.351a2.9 2.9 0 0 0 .953-.148c.286-.104.534-.258.742-.461.209-.208.367-.464.477-.766l1.297.375a2.864 2.864 0 0 1-.688 1.157 3.326 3.326 0 0 1-1.187.773 4.42 4.42 0 0 1-1.594.274Zm8.156 0c-.729 0-1.372-.185-1.93-.555-.557-.37-.992-.893-1.304-1.571-.313-.682-.469-1.484-.469-2.406 0-.916.156-1.711.469-2.383.317-.677.755-1.197 1.312-1.562.558-.37 1.203-.555 1.938-.555.573 0 1.023.094 1.351.282.334.187.589.401.766.64.177.234.315.427.414.578h.109v-4.297h1.328V172h-1.281v-1.344h-.156c-.099.156-.24.357-.422.602-.182.239-.443.456-.781.648-.333.188-.781.282-1.344.282Zm.172-1.204c.542 0 .997-.14 1.367-.422.37-.286.651-.679.844-1.179.193-.505.289-1.086.289-1.742 0-.657-.094-1.23-.281-1.719-.188-.495-.469-.878-.844-1.149-.37-.276-.828-.414-1.375-.414-.562 0-1.031.146-1.406.438-.375.292-.656.685-.844 1.18a4.65 4.65 0 0 0-.281 1.664c0 .619.093 1.182.281 1.687.193.505.477.909.852 1.211.375.297.841.445 1.398.445Z"/>
    <path fill="#000" d="M558.625 126.719V150h-4.187v-19.172h-.141l-5.438 3.484v-3.874l5.782-3.719h3.984ZM561.446 150v-3.031l8.093-7.938a40.851 40.851 0 0 0 1.907-2.078c.52-.604.911-1.187 1.172-1.75.26-.573.39-1.182.39-1.828 0-.729-.167-1.359-.5-1.891a3.253 3.253 0 0 0-1.375-1.218c-.573-.282-1.229-.422-1.969-.422-.77 0-1.442.156-2.015.468a3.37 3.37 0 0 0-1.344 1.329c-.312.573-.469 1.255-.469 2.047h-4c0-1.469.334-2.745 1-3.829.677-1.093 1.61-1.942 2.797-2.547 1.188-.604 2.547-.906 4.078-.906 1.573 0 2.948.292 4.125.875 1.177.584 2.094 1.386 2.75 2.407.657 1.01.985 2.166.985 3.468 0 .875-.167 1.735-.5 2.578-.334.834-.922 1.766-1.766 2.797-.833 1.021-2.005 2.255-3.516 3.703l-4 4.078v.172h10.125V150h-15.968Zm18.633 0v-23.281h4.219v10.703h.281l9.094-10.703h5.14l-9 10.453L598.891 150h-5.078l-6.937-9.969-2.578 3.047V150h-4.219Zm24.742-1.375v-15.734h3.563v15.734h-3.563Zm-6.078-6.078v-3.578h15.719v3.578h-15.719Z"/>
    <path fill="#7E8890" d="M549.031 172v-11.641h3.938c.911 0 1.656.157 2.234.469.583.307 1.016.732 1.297 1.274.281.536.422 1.148.422 1.836 0 .682-.141 1.289-.422 1.82-.276.531-.706.948-1.289 1.25-.578.297-1.32.445-2.227.445h-3.172v-1.265h3.126c.624 0 1.127-.092 1.507-.274.381-.182.657-.44.828-.773.172-.339.258-.74.258-1.203 0-.469-.088-.878-.265-1.227a1.793 1.793 0 0 0-.828-.813c-.381-.192-.886-.289-1.516-.289h-2.484V172h-1.407Zm6.703 0-2.812-5.234h1.594l2.859 5.234h-1.641Zm6.172.188c-.838 0-1.565-.188-2.179-.563a3.705 3.705 0 0 1-1.407-1.57c-.328-.677-.492-1.461-.492-2.352 0-.896.162-1.685.484-2.367.323-.682.777-1.216 1.36-1.602.588-.385 1.276-.578 2.062-.578.454 0 .904.076 1.352.227.448.151.854.396 1.219.734.369.339.664.787.883 1.344.218.557.328 1.242.328 2.055v.578h-6.735v-1.156h6.008l-.617.437c0-.583-.091-1.102-.274-1.555a2.354 2.354 0 0 0-.82-1.07c-.359-.26-.807-.391-1.344-.391-.536 0-.997.133-1.382.399-.381.26-.672.601-.875 1.023a3.082 3.082 0 0 0-.305 1.36v.765c0 .662.114 1.222.344 1.68.229.458.549.807.961 1.047.411.234.888.351 1.429.351a2.9 2.9 0 0 0 .953-.148c.287-.104.534-.258.743-.461.208-.208.367-.464.476-.766l1.297.375a2.862 2.862 0 0 1-.687 1.157 3.33 3.33 0 0 1-1.188.773 4.416 4.416 0 0 1-1.594.274Zm4.875 3.078v-12h1.281v1.39h.157c.099-.151.237-.344.414-.578.177-.239.432-.453.765-.64.334-.188.784-.282 1.352-.282.734 0 1.38.185 1.938.555.557.365.992.885 1.304 1.562.318.672.477 1.467.477 2.383 0 .922-.157 1.724-.469 2.406-.312.678-.747 1.201-1.305 1.571-.557.37-1.2.555-1.929.555-.558 0-1.006-.094-1.344-.282-.339-.192-.599-.409-.781-.648a10.029 10.029 0 0 1-.422-.602h-.11v4.61h-1.328Zm3.813-4.282c.557 0 1.023-.148 1.398-.445.375-.302.656-.706.844-1.211a4.695 4.695 0 0 0 .289-1.687c0-.615-.094-1.17-.281-1.664-.188-.495-.469-.888-.844-1.18-.37-.292-.839-.438-1.406-.438-.547 0-1.005.138-1.375.414-.37.271-.651.654-.844 1.149-.187.489-.281 1.062-.281 1.719 0 .656.096 1.237.289 1.742.193.5.474.893.844 1.179.375.282.83.422 1.367.422Zm8.703 1.204c-.787 0-1.477-.188-2.07-.563-.594-.375-1.058-.901-1.391-1.578-.328-.677-.492-1.464-.492-2.359 0-.912.164-1.706.492-2.383.333-.683.797-1.211 1.391-1.586.593-.375 1.283-.563 2.07-.563.792 0 1.484.188 2.078.563.594.375 1.057.903 1.391 1.586.333.677.5 1.471.5 2.383 0 .895-.167 1.682-.5 2.359-.334.677-.797 1.203-1.391 1.578s-1.286.563-2.078.563Zm0-1.204c.604 0 1.099-.153 1.484-.461.386-.307.672-.711.86-1.211a4.638 4.638 0 0 0 .281-1.624 4.69 4.69 0 0 0-.281-1.641 2.739 2.739 0 0 0-.86-1.219c-.385-.312-.88-.469-1.484-.469-.594 0-1.083.157-1.469.469a2.737 2.737 0 0 0-.859 1.219 4.667 4.667 0 0 0-.281 1.641c0 .578.093 1.119.281 1.624.187.5.474.904.859 1.211.386.308.875.461 1.469.461Zm5.265 1.016v-8.734h1.282v1.328h.094a2.08 2.08 0 0 1 .867-1.047 2.56 2.56 0 0 1 1.414-.406c.099 0 .221.002.367.007.146 0 .258.003.336.008v1.36a4.301 4.301 0 0 0-.313-.047 3.993 3.993 0 0 0-.515-.031c-.422 0-.8.088-1.133.265a2.042 2.042 0 0 0-.789.727 1.978 1.978 0 0 0-.281 1.054V172h-1.329Zm9.532-8.734v1.14h-4.516v-1.14h4.516Zm-3.203-2.078h1.328v8.312c0 .453.093.786.281 1 .188.208.484.312.891.312.088 0 .179-.005.273-.015.099-.011.206-.026.32-.047l.282 1.203a2.221 2.221 0 0 1-.461.109 3.026 3.026 0 0 1-.539.047c-.704 0-1.276-.208-1.719-.625-.438-.416-.656-.958-.656-1.625v-8.671Zm10.5 4.046-1.203.328a2.332 2.332 0 0 0-.594-.843c-.276-.271-.709-.407-1.297-.407-.531 0-.974.126-1.328.376-.354.244-.531.552-.531.921 0 .334.119.599.359.797.245.198.625.36 1.141.485l1.296.312c.776.188 1.355.477 1.735.867.385.391.578.888.578 1.492 0 .5-.143.948-.43 1.344-.286.396-.685.709-1.195.938-.511.229-1.104.344-1.781.344-.891 0-1.628-.196-2.211-.586-.578-.391-.946-.956-1.102-1.696l1.266-.312c.12.468.349.82.687 1.054.344.235.792.352 1.344.352.62 0 1.115-.133 1.484-.398.375-.271.563-.592.563-.961 0-.615-.432-1.026-1.297-1.235l-1.453-.344c-.802-.192-1.391-.486-1.766-.882s-.562-.894-.562-1.492c0-.495.138-.933.414-1.313a2.8 2.8 0 0 1 1.148-.891 3.96 3.96 0 0 1 1.641-.328c.87 0 1.549.193 2.039.578.495.381.846.881 1.055 1.5Zm8.703 10.219c-.974 0-1.745-.177-2.313-.531-.562-.354-.979-.761-1.25-1.219l1.063-.75c.12.162.273.344.461.547.187.208.442.388.765.539.323.151.748.227 1.274.227.703 0 1.284-.17 1.742-.508.463-.339.695-.873.695-1.602v-1.765h-.125a6.438 6.438 0 0 1-.414.586c-.177.229-.435.434-.773.617-.334.177-.787.265-1.36.265-.703 0-1.333-.166-1.89-.5-.558-.333-1-.817-1.328-1.453-.323-.635-.485-1.406-.485-2.312 0-.896.156-1.675.469-2.336.318-.667.758-1.182 1.32-1.547.563-.37 1.211-.555 1.946-.555.567 0 1.018.094 1.351.282.339.187.597.401.774.64a9.3 9.3 0 0 1 .422.578h.14v-1.39h1.281v8.984c0 .75-.169 1.359-.507 1.828-.334.474-.787.82-1.36 1.039-.568.224-1.2.336-1.898.336Zm-.047-4.797c.807 0 1.424-.273 1.851-.82.433-.547.649-1.305.649-2.274 0-.63-.094-1.184-.281-1.664-.188-.479-.469-.854-.844-1.125-.37-.276-.828-.414-1.375-.414-.568 0-1.042.146-1.422.438a2.599 2.599 0 0 0-.844 1.156 4.437 4.437 0 0 0-.281 1.609c0 .605.094 1.141.281 1.61.193.463.479.828.86 1.094.38.26.849.39 1.406.39Zm9.187 1.532c-.838 0-1.565-.188-2.179-.563a3.712 3.712 0 0 1-1.407-1.57c-.328-.677-.492-1.461-.492-2.352 0-.896.162-1.685.485-2.367.323-.682.776-1.216 1.359-1.602.589-.385 1.276-.578 2.062-.578.454 0 .904.076 1.352.227.448.151.854.396 1.219.734.37.339.664.787.883 1.344.218.557.328 1.242.328 2.055v.578h-6.735v-1.156h6.008l-.617.437c0-.583-.091-1.102-.273-1.555a2.363 2.363 0 0 0-.821-1.07c-.359-.26-.807-.391-1.344-.391-.536 0-.997.133-1.382.399-.381.26-.672.601-.875 1.023a3.096 3.096 0 0 0-.305 1.36v.765c0 .662.115 1.222.344 1.68.229.458.549.807.961 1.047.411.234.888.351 1.429.351.349 0 .667-.049.954-.148.286-.104.533-.258.742-.461.208-.208.367-.464.476-.766l1.297.375a2.85 2.85 0 0 1-.687 1.157 3.33 3.33 0 0 1-1.188.773 4.416 4.416 0 0 1-1.594.274Zm6.204-5.438V172h-1.329v-8.734h1.282v1.375h.125c.203-.448.513-.808.929-1.079.417-.27.956-.406 1.617-.406.589 0 1.105.12 1.547.36.443.239.787.604 1.032 1.093.25.485.375 1.099.375 1.844V172h-1.328v-5.453c0-.682-.18-1.216-.54-1.602-.359-.39-.849-.586-1.468-.586-.427 0-.81.094-1.149.282a2.04 2.04 0 0 0-.804.812c-.193.354-.289.787-.289 1.297Zm10.953 5.438c-.839 0-1.565-.188-2.18-.563a3.71 3.71 0 0 1-1.406-1.57c-.328-.677-.493-1.461-.493-2.352 0-.896.162-1.685.485-2.367.323-.682.776-1.216 1.359-1.602.589-.385 1.276-.578 2.063-.578.453 0 .903.076 1.351.227.448.151.854.396 1.219.734.37.339.664.787.883 1.344.219.557.328 1.242.328 2.055v.578h-6.734v-1.156h6.007l-.617.437c0-.583-.091-1.102-.273-1.555a2.356 2.356 0 0 0-.821-1.07c-.359-.26-.807-.391-1.343-.391-.537 0-.998.133-1.383.399-.38.26-.672.601-.875 1.023a3.096 3.096 0 0 0-.305 1.36v.765c0 .662.115 1.222.344 1.68.229.458.549.807.961 1.047.411.234.888.351 1.43.351.349 0 .666-.049.953-.148.286-.104.534-.258.742-.461.208-.208.367-.464.476-.766l1.297.375a2.85 2.85 0 0 1-.687 1.157 3.33 3.33 0 0 1-1.188.773 4.414 4.414 0 0 1-1.593.274Zm4.875-.188v-8.734h1.281v1.328h.094a2.08 2.08 0 0 1 .867-1.047 2.56 2.56 0 0 1 1.414-.406c.099 0 .221.002.367.007.146 0 .258.003.336.008v1.36a4.301 4.301 0 0 0-.313-.047 3.993 3.993 0 0 0-.515-.031c-.422 0-.8.088-1.133.265a2.042 2.042 0 0 0-.789.727 1.987 1.987 0 0 0-.281 1.054V172h-1.328Zm7.765.203a3.576 3.576 0 0 1-1.508-.312 2.593 2.593 0 0 1-1.078-.922c-.265-.401-.398-.886-.398-1.453 0-.5.099-.904.297-1.211.198-.313.461-.558.789-.735a4.18 4.18 0 0 1 1.094-.406c.401-.088.804-.159 1.211-.211a73.9 73.9 0 0 1 1.289-.156c.333-.037.575-.099.726-.188.156-.088.235-.239.235-.453v-.047c0-.557-.154-.989-.461-1.297-.303-.312-.763-.468-1.383-.468-.636 0-1.136.14-1.5.422-.365.276-.62.573-.766.89l-1.281-.453c.229-.531.534-.945.914-1.242a3.526 3.526 0 0 1 1.25-.625c.453-.12.898-.18 1.336-.18.281 0 .604.034.969.102.364.062.718.198 1.062.406.349.203.636.513.86.93.229.411.343.963.343 1.656V172h-1.343v-1.188h-.063c-.089.188-.24.391-.453.61a2.806 2.806 0 0 1-.852.555c-.349.151-.778.226-1.289.226Zm.203-1.203c.532 0 .98-.104 1.344-.312a2.16 2.16 0 0 0 .828-.805 2.09 2.09 0 0 0 .282-1.039v-1.235c-.058.068-.183.131-.376.188a6.496 6.496 0 0 1-.656.141c-.245.041-.484.078-.718.109l-.563.062a5.096 5.096 0 0 0-.977.227 1.733 1.733 0 0 0-.734.445c-.182.198-.273.469-.273.813 0 .463.171.815.515 1.054.349.235.792.352 1.328.352Zm9.297-7.734v1.14h-4.515v-1.14h4.515Zm-3.203-2.078h1.328v8.312c0 .453.094.786.282 1 .187.208.484.312.89.312.089 0 .18-.005.274-.015.099-.011.205-.026.32-.047l.281 1.203a2.221 2.221 0 0 1-.461.109 3.026 3.026 0 0 1-.539.047c-.703 0-1.276-.208-1.719-.625-.437-.416-.656-.958-.656-1.625v-8.671Zm8.047 11c-.839 0-1.565-.188-2.18-.563a3.71 3.71 0 0 1-1.406-1.57c-.328-.677-.492-1.461-.492-2.352 0-.896.161-1.685.484-2.367.323-.682.776-1.216 1.36-1.602.588-.385 1.276-.578 2.062-.578.453 0 .904.076 1.352.227a3.35 3.35 0 0 1 1.218.734c.37.339.665.787.883 1.344.219.557.328 1.242.328 2.055v.578h-6.734v-1.156h6.008l-.617.437c0-.583-.092-1.102-.274-1.555a2.361 2.361 0 0 0-.82-1.07c-.359-.26-.807-.391-1.344-.391-.536 0-.997.133-1.383.399-.38.26-.672.601-.875 1.023a3.095 3.095 0 0 0-.304 1.36v.765c0 .662.114 1.222.343 1.68.23.458.55.807.961 1.047.412.234.888.351 1.43.351a2.9 2.9 0 0 0 .953-.148c.287-.104.534-.258.742-.461.209-.208.368-.464.477-.766l1.297.375a2.864 2.864 0 0 1-.688 1.157 3.317 3.317 0 0 1-1.187.773 4.416 4.416 0 0 1-1.594.274Zm8.156 0c-.729 0-1.372-.185-1.929-.555-.558-.37-.993-.893-1.305-1.571-.313-.682-.469-1.484-.469-2.406 0-.916.156-1.711.469-2.383.318-.677.755-1.197 1.312-1.562.558-.37 1.203-.555 1.938-.555.573 0 1.023.094 1.351.282.334.187.589.401.766.64.177.234.315.427.414.578h.11v-4.297h1.328V172h-1.282v-1.344h-.156c-.099.156-.239.357-.422.602-.182.239-.442.456-.781.648-.333.188-.781.282-1.344.282Zm.172-1.204c.542 0 .998-.14 1.367-.422.37-.286.651-.679.844-1.179.193-.505.289-1.086.289-1.742 0-.657-.094-1.23-.281-1.719-.188-.495-.469-.878-.844-1.149-.37-.276-.828-.414-1.375-.414-.562 0-1.031.146-1.406.438-.375.292-.656.685-.844 1.18a4.672 4.672 0 0 0-.281 1.664c0 .619.094 1.182.281 1.687.193.505.477.909.852 1.211.375.297.841.445 1.398.445Z"/>
    <path fill="#000" d="M782.625 126.719V150h-4.187v-19.172h-.141l-5.438 3.484v-3.874l5.782-3.719h3.984Zm11.446 23.593c-1.886 0-3.5-.468-4.844-1.406-1.333-.948-2.354-2.307-3.063-4.078-.708-1.781-1.062-3.932-1.062-6.453 0-2.521.354-4.672 1.062-6.453.709-1.792 1.73-3.156 3.063-4.094 1.344-.948 2.958-1.422 4.844-1.422 1.875 0 3.484.474 4.828 1.422 1.344.948 2.37 2.313 3.078 4.094.708 1.781 1.062 3.932 1.062 6.453 0 2.521-.354 4.672-1.062 6.453-.708 1.771-1.729 3.13-3.063 4.078-1.333.938-2.948 1.406-4.843 1.406Zm0-3.531c1.01 0 1.864-.328 2.562-.984.708-.656 1.245-1.609 1.61-2.859.375-1.261.562-2.782.562-4.563 0-1.792-.187-3.318-.562-4.578-.365-1.261-.902-2.219-1.61-2.875-.698-.667-1.552-1-2.562-1-1.521 0-2.693.739-3.516 2.219-.812 1.468-1.219 3.547-1.219 6.234 0 1.781.183 3.302.547 4.563.365 1.25.901 2.203 1.61 2.859.708.656 1.567.984 2.578.984Zm19.836 3.531c-1.886 0-3.5-.468-4.844-1.406-1.333-.948-2.354-2.307-3.062-4.078-.709-1.781-1.063-3.932-1.063-6.453 0-2.521.354-4.672 1.063-6.453.708-1.792 1.729-3.156 3.062-4.094 1.344-.948 2.958-1.422 4.844-1.422 1.875 0 3.484.474 4.828 1.422 1.344.948 2.37 2.313 3.078 4.094.708 1.781 1.063 3.932 1.063 6.453 0 2.521-.355 4.672-1.063 6.453-.708 1.771-1.729 3.13-3.062 4.078-1.334.938-2.948 1.406-4.844 1.406Zm0-3.531c1.01 0 1.864-.328 2.562-.984.709-.656 1.245-1.609 1.61-2.859.375-1.261.562-2.782.562-4.563 0-1.792-.187-3.318-.562-4.578-.365-1.261-.901-2.219-1.61-2.875-.698-.667-1.552-1-2.562-1-1.521 0-2.693.739-3.516 2.219-.812 1.468-1.218 3.547-1.218 6.234 0 1.781.182 3.302.546 4.563.365 1.25.901 2.203 1.61 2.859.708.656 1.567.984 2.578.984ZM825.353 150v-23.281h4.218v10.703h.282l9.093-10.703h5.141l-9 10.453L844.165 150h-5.078l-6.938-9.969-2.578 3.047V150h-4.218Zm24.742-1.375v-15.734h3.563v15.734h-3.563Zm-6.078-6.078v-3.578h15.719v3.578h-15.719Z"/>
    <path fill="#7E8890" d="M773.031 172v-11.641h3.938c.911 0 1.656.157 2.234.469.583.307 1.016.732 1.297 1.274.281.536.422 1.148.422 1.836 0 .682-.141 1.289-.422 1.82-.276.531-.706.948-1.289 1.25-.578.297-1.32.445-2.227.445h-3.172v-1.265h3.126c.624 0 1.127-.092 1.507-.274.381-.182.657-.44.828-.773.172-.339.258-.74.258-1.203 0-.469-.088-.878-.265-1.227a1.793 1.793 0 0 0-.828-.813c-.381-.192-.886-.289-1.516-.289h-2.484V172h-1.407Zm6.703 0-2.812-5.234h1.594l2.859 5.234h-1.641Zm6.172.188c-.838 0-1.565-.188-2.179-.563a3.705 3.705 0 0 1-1.407-1.57c-.328-.677-.492-1.461-.492-2.352 0-.896.162-1.685.484-2.367.323-.682.777-1.216 1.36-1.602.588-.385 1.276-.578 2.062-.578.454 0 .904.076 1.352.227.448.151.854.396 1.219.734.369.339.664.787.883 1.344.218.557.328 1.242.328 2.055v.578h-6.735v-1.156h6.008l-.617.437c0-.583-.091-1.102-.274-1.555a2.354 2.354 0 0 0-.82-1.07c-.359-.26-.807-.391-1.344-.391-.536 0-.997.133-1.382.399-.381.26-.672.601-.875 1.023a3.082 3.082 0 0 0-.305 1.36v.765c0 .662.114 1.222.344 1.68.229.458.549.807.961 1.047.411.234.888.351 1.429.351a2.9 2.9 0 0 0 .953-.148c.287-.104.534-.258.743-.461.208-.208.367-.464.476-.766l1.297.375a2.862 2.862 0 0 1-.687 1.157 3.33 3.33 0 0 1-1.188.773 4.416 4.416 0 0 1-1.594.274Zm8.406 0c-.812 0-1.515-.193-2.109-.579a3.88 3.88 0 0 1-1.367-1.601c-.318-.677-.477-1.451-.477-2.32 0-.891.164-1.675.493-2.352.328-.682.786-1.216 1.375-1.602.593-.385 1.283-.578 2.07-.578.614 0 1.167.115 1.656.344.495.224.899.542 1.211.953.318.412.513.891.586 1.438h-1.344a2.08 2.08 0 0 0-.367-.75 1.887 1.887 0 0 0-.703-.563c-.287-.146-.628-.219-1.024-.219-.52 0-.976.136-1.367.407-.39.27-.695.653-.914 1.148-.219.49-.328 1.065-.328 1.727 0 .671.107 1.26.32 1.765.214.5.516.888.907 1.164.396.276.856.414 1.382.414.527 0 .977-.135 1.352-.406a1.94 1.94 0 0 0 .742-1.125h1.344c-.073.516-.26.979-.562 1.391a3.188 3.188 0 0 1-1.18.984c-.485.24-1.05.36-1.696.36Zm8.36 0c-.839 0-1.565-.188-2.18-.563a3.71 3.71 0 0 1-1.406-1.57c-.328-.677-.492-1.461-.492-2.352 0-.896.161-1.685.484-2.367.323-.682.776-1.216 1.36-1.602.588-.385 1.276-.578 2.062-.578.453 0 .904.076 1.352.227.447.151.854.396 1.218.734.37.339.664.787.883 1.344.219.557.328 1.242.328 2.055v.578h-6.734v-1.156h6.008l-.617.437c0-.583-.092-1.102-.274-1.555a2.361 2.361 0 0 0-.82-1.07c-.36-.26-.808-.391-1.344-.391s-.997.133-1.383.399c-.38.26-.672.601-.875 1.023a3.095 3.095 0 0 0-.304 1.36v.765c0 .662.114 1.222.343 1.68.229.458.55.807.961 1.047.412.234.888.351 1.43.351a2.9 2.9 0 0 0 .953-.148c.286-.104.534-.258.742-.461.209-.208.367-.464.477-.766l1.297.375a2.864 2.864 0 0 1-.688 1.157 3.326 3.326 0 0 1-1.187.773 4.42 4.42 0 0 1-1.594.274Zm4.875-.188v-8.734h1.328V172h-1.328Zm.672-10.188a.943.943 0 0 1-.672-.265.848.848 0 0 1-.281-.641c0-.25.093-.463.281-.64a.944.944 0 0 1 .672-.266c.26 0 .484.089.672.266a.85.85 0 0 1 .281.64c0 .25-.094.464-.281.641a.946.946 0 0 1-.672.265Zm2.375 13.454v-12h1.281v1.39h.156c.099-.151.237-.344.414-.578.177-.239.433-.453.766-.64.333-.188.784-.282 1.351-.282.735 0 1.381.185 1.938.555.557.365.992.885 1.305 1.562.317.672.476 1.467.476 2.383 0 .922-.156 1.724-.469 2.406-.312.678-.747 1.201-1.304 1.571-.557.37-1.201.555-1.93.555-.557 0-1.005-.094-1.344-.282-.338-.192-.599-.409-.781-.648a10.517 10.517 0 0 1-.422-.602h-.109v4.61h-1.328Zm3.812-4.282c.558 0 1.024-.148 1.399-.445.375-.302.656-.706.843-1.211.193-.505.29-1.068.29-1.687a4.65 4.65 0 0 0-.282-1.664c-.187-.495-.468-.888-.844-1.18-.369-.292-.838-.438-1.406-.438-.547 0-1.005.138-1.375.414-.37.271-.651.654-.843 1.149-.188.489-.282 1.062-.282 1.719 0 .656.097 1.237.289 1.742.193.5.474.893.844 1.179.375.282.831.422 1.367.422Zm8.953-7.718v1.14h-4.515v-1.14h4.515Zm-3.203-2.078h1.328v8.312c0 .453.094.786.282 1 .187.208.484.312.89.312.089 0 .18-.005.274-.015.099-.011.205-.026.32-.047l.281 1.203a2.206 2.206 0 0 1-.461.109 3.018 3.018 0 0 1-.539.047c-.703 0-1.276-.208-1.719-.625-.437-.416-.656-.958-.656-1.625v-8.671Zm10.5 4.046-1.203.328a2.307 2.307 0 0 0-.594-.843c-.276-.271-.708-.407-1.297-.407-.531 0-.973.126-1.328.376-.354.244-.531.552-.531.921 0 .334.12.599.359.797.245.198.626.36 1.141.485l1.297.312c.776.188 1.354.477 1.734.867.386.391.578.888.578 1.492 0 .5-.143.948-.429 1.344-.287.396-.685.709-1.195.938-.511.229-1.105.344-1.782.344-.89 0-1.627-.196-2.211-.586-.578-.391-.945-.956-1.101-1.696l1.265-.312c.12.468.349.82.688 1.054.344.235.792.352 1.344.352.619 0 1.114-.133 1.484-.398.375-.271.563-.592.563-.961 0-.615-.433-1.026-1.297-1.235l-1.453-.344c-.803-.192-1.391-.486-1.766-.882s-.563-.894-.563-1.492c0-.495.138-.933.414-1.313a2.81 2.81 0 0 1 1.149-.891 3.953 3.953 0 0 1 1.64-.328c.87 0 1.55.193 2.04.578a3.09 3.09 0 0 1 1.054 1.5Zm11.36 0-1.204.328a2.316 2.316 0 0 0-.593-.843c-.276-.271-.709-.407-1.297-.407-.531 0-.974.126-1.328.376-.354.244-.532.552-.532.921 0 .334.12.599.36.797.245.198.625.36 1.14.485l1.297.312c.776.188 1.355.477 1.735.867.385.391.578.888.578 1.492 0 .5-.143.948-.43 1.344-.286.396-.685.709-1.195.938-.511.229-1.104.344-1.781.344-.891 0-1.628-.196-2.211-.586-.578-.391-.946-.956-1.102-1.696l1.266-.312c.12.468.349.82.687 1.054.344.235.792.352 1.344.352.62 0 1.115-.133 1.484-.398.375-.271.563-.592.563-.961 0-.615-.432-1.026-1.297-1.235l-1.453-.344c-.802-.192-1.391-.486-1.766-.882s-.562-.894-.562-1.492c0-.495.138-.933.414-1.313a2.8 2.8 0 0 1 1.148-.891 3.958 3.958 0 0 1 1.641-.328c.87 0 1.549.193 2.039.578.495.381.846.881 1.055 1.5Zm4.968 6.954c-.812 0-1.515-.193-2.109-.579a3.873 3.873 0 0 1-1.367-1.601c-.318-.677-.477-1.451-.477-2.32 0-.891.164-1.675.492-2.352.329-.682.787-1.216 1.375-1.602.594-.385 1.284-.578 2.071-.578.614 0 1.166.115 1.656.344.495.224.898.542 1.211.953.318.412.513.891.586 1.438h-1.344a2.096 2.096 0 0 0-.367-.75 1.895 1.895 0 0 0-.703-.563c-.287-.146-.628-.219-1.024-.219-.52 0-.976.136-1.367.407-.39.27-.695.653-.914 1.148-.219.49-.328 1.065-.328 1.727 0 .671.107 1.26.32 1.765.214.5.516.888.907 1.164.395.276.856.414 1.382.414.526 0 .977-.135 1.352-.406a1.94 1.94 0 0 0 .742-1.125h1.344a3.034 3.034 0 0 1-.563 1.391c-.297.411-.69.739-1.179.984-.485.24-1.05.36-1.696.36Zm7.266.015a3.572 3.572 0 0 1-1.508-.312 2.593 2.593 0 0 1-1.078-.922c-.266-.401-.398-.886-.398-1.453 0-.5.099-.904.296-1.211.198-.313.461-.558.79-.735a4.172 4.172 0 0 1 1.093-.406c.401-.088.805-.159 1.211-.211.532-.068.961-.12 1.289-.156.334-.037.576-.099.727-.188.156-.088.234-.239.234-.453v-.047c0-.557-.153-.989-.461-1.297-.302-.312-.763-.468-1.383-.468-.635 0-1.135.14-1.5.422-.364.276-.619.573-.765.89l-1.281-.453c.229-.531.533-.945.914-1.242a3.526 3.526 0 0 1 1.25-.625c.453-.12.898-.18 1.336-.18.281 0 .604.034.968.102.365.062.719.198 1.063.406.349.203.635.513.859.93.229.411.344.963.344 1.656V172h-1.344v-1.188h-.062c-.089.188-.24.391-.453.61a2.806 2.806 0 0 1-.852.555c-.349.151-.779.226-1.289.226Zm.203-1.203c.531 0 .979-.104 1.344-.312.364-.209.641-.477.828-.805a2.1 2.1 0 0 0 .281-1.039v-1.235c-.057.068-.182.131-.375.188a6.496 6.496 0 0 1-.656.141c-.245.041-.484.078-.719.109l-.562.062a5.078 5.078 0 0 0-.977.227 1.727 1.727 0 0 0-.734.445c-.182.198-.274.469-.274.813 0 .463.172.815.516 1.054.349.235.792.352 1.328.352Zm6.844-4.25V172h-1.328v-8.734h1.281v1.375h.125c.203-.448.513-.808.93-1.079.416-.27.955-.406 1.617-.406.588 0 1.104.12 1.547.36.442.239.786.604 1.031 1.093.25.485.375 1.099.375 1.844V172h-1.328v-5.453c0-.682-.18-1.216-.539-1.602-.36-.39-.849-.586-1.469-.586-.427 0-.81.094-1.148.282a2.042 2.042 0 0 0-.805.812c-.193.354-.289.787-.289 1.297Zm8.625 0V172h-1.328v-8.734h1.281v1.375H870c.203-.448.513-.808.93-1.079.416-.27.955-.406 1.617-.406.588 0 1.104.12 1.547.36.442.239.786.604 1.031 1.093.25.485.375 1.099.375 1.844V172h-1.328v-5.453c0-.682-.18-1.216-.539-1.602-.36-.39-.849-.586-1.469-.586-.427 0-.81.094-1.148.282a2.042 2.042 0 0 0-.805.812c-.193.354-.289.787-.289 1.297Zm10.953 5.438c-.839 0-1.565-.188-2.18-.563a3.71 3.71 0 0 1-1.406-1.57c-.328-.677-.492-1.461-.492-2.352 0-.896.161-1.685.484-2.367.323-.682.776-1.216 1.36-1.602.588-.385 1.276-.578 2.062-.578.453 0 .904.076 1.352.227a3.35 3.35 0 0 1 1.218.734c.37.339.665.787.883 1.344.219.557.328 1.242.328 2.055v.578h-6.734v-1.156h6.008l-.617.437c0-.583-.092-1.102-.274-1.555a2.361 2.361 0 0 0-.82-1.07c-.359-.26-.807-.391-1.344-.391-.536 0-.997.133-1.383.399-.38.26-.672.601-.875 1.023a3.095 3.095 0 0 0-.304 1.36v.765c0 .662.114 1.222.343 1.68.23.458.55.807.961 1.047.412.234.888.351 1.43.351a2.9 2.9 0 0 0 .953-.148c.287-.104.534-.258.742-.461.209-.208.368-.464.477-.766l1.297.375a2.864 2.864 0 0 1-.688 1.157 3.317 3.317 0 0 1-1.187.773 4.416 4.416 0 0 1-1.594.274Zm8.156 0c-.729 0-1.372-.185-1.929-.555-.558-.37-.993-.893-1.305-1.571-.313-.682-.469-1.484-.469-2.406 0-.916.156-1.711.469-2.383.318-.677.755-1.197 1.312-1.562.558-.37 1.203-.555 1.938-.555.573 0 1.023.094 1.351.282.334.187.589.401.766.64.177.234.315.427.414.578h.11v-4.297h1.328V172h-1.282v-1.344h-.156c-.099.156-.239.357-.422.602-.182.239-.442.456-.781.648-.333.188-.781.282-1.344.282Zm.172-1.204c.542 0 .998-.14 1.367-.422.37-.286.651-.679.844-1.179.193-.505.289-1.086.289-1.742 0-.657-.094-1.23-.281-1.719-.188-.495-.469-.878-.844-1.149-.37-.276-.828-.414-1.375-.414-.562 0-1.031.146-1.406.438-.375.292-.656.685-.844 1.18a4.672 4.672 0 0 0-.281 1.664c0 .619.094 1.182.281 1.687.193.505.477.909.852 1.211.375.297.841.445 1.398.445Z"/>
    <path fill="#000" d="M1006.62 126.719V150h-4.18v-19.172h-.14l-5.441 3.484v-3.874l5.781-3.719h3.98Zm11.45 23.593c-1.88 0-3.5-.468-4.84-1.406-1.34-.948-2.36-2.307-3.07-4.078-.7-1.781-1.06-3.932-1.06-6.453 0-2.521.36-4.672 1.06-6.453.71-1.792 1.73-3.156 3.07-4.094 1.34-.948 2.96-1.422 4.84-1.422s3.49.474 4.83 1.422c1.34.948 2.37 2.313 3.08 4.094.71 1.781 1.06 3.932 1.06 6.453 0 2.521-.35 4.672-1.06 6.453-.71 1.771-1.73 3.13-3.07 4.078-1.33.938-2.94 1.406-4.84 1.406Zm0-3.531c1.01 0 1.87-.328 2.56-.984.71-.656 1.25-1.609 1.61-2.859.38-1.261.57-2.782.57-4.563 0-1.792-.19-3.318-.57-4.578-.36-1.261-.9-2.219-1.61-2.875-.69-.667-1.55-1-2.56-1-1.52 0-2.69.739-3.51 2.219-.82 1.468-1.22 3.547-1.22 6.234 0 1.781.18 3.302.54 4.563.37 1.25.9 2.203 1.61 2.859.71.656 1.57.984 2.58.984Zm11.45 3.219v-23.281h4.22v10.703h.28l9.09-10.703h5.14l-9 10.453 9.08 12.828h-5.08l-6.94-9.969-2.57 3.047V150h-4.22Zm24.74-1.375v-15.734h3.56v15.734h-3.56Zm-6.08-6.078v-3.578h15.72v3.578h-15.72Z"/>
    <path fill="#7E8890" d="M997.516 172h-1.485l4.279-11.641h1.46l4.26 11.641h-1.47l-3.48-9.797h-.1L997.516 172Zm.546-4.547h5.958v1.25h-5.958v-1.25Zm12.388 4.735c-.81 0-1.51-.193-2.11-.579a3.902 3.902 0 0 1-1.36-1.601c-.32-.677-.48-1.451-.48-2.32 0-.891.16-1.675.49-2.352.33-.682.79-1.216 1.38-1.602.59-.385 1.28-.578 2.07-.578.61 0 1.16.115 1.65.344.5.224.9.542 1.21.953.32.412.52.891.59 1.438h-1.34a2.087 2.087 0 0 0-.37-.75 1.918 1.918 0 0 0-.7-.563c-.29-.146-.63-.219-1.03-.219-.52 0-.97.136-1.36.407-.39.27-.7.653-.92 1.148-.22.49-.33 1.065-.33 1.727 0 .671.11 1.26.32 1.765.22.5.52.888.91 1.164.4.276.86.414 1.38.414.53 0 .98-.135 1.35-.406.38-.276.63-.651.75-1.125h1.34c-.07.516-.26.979-.56 1.391-.3.411-.69.739-1.18.984-.49.24-1.05.36-1.7.36Zm8.49-8.922v1.14h-4.52v-1.14h4.52Zm-3.21-2.078h1.33v8.312c0 .453.1.786.28 1 .19.208.49.312.89.312.09 0 .18-.005.28-.015.1-.011.2-.026.32-.047l.28 1.203c-.13.047-.28.083-.46.109-.18.032-.36.047-.54.047-.7 0-1.28-.208-1.72-.625-.44-.416-.66-.958-.66-1.625v-8.671Zm4.49 10.812v-8.734h1.33V172h-1.33Zm.67-10.188a.945.945 0 0 1-.67-.265.84.84 0 0 1-.28-.641c0-.25.09-.463.28-.64a.946.946 0 0 1 .67-.266c.26 0 .49.089.67.266.19.177.28.39.28.64a.84.84 0 0 1-.28.641.928.928 0 0 1-.67.265Zm9.5 1.454-3.22 8.734h-1.37l-3.22-8.734h1.45l2.41 6.968h.09l2.41-6.968h1.45Zm4.38 8.922c-.84 0-1.57-.188-2.18-.563a3.725 3.725 0 0 1-1.41-1.57c-.33-.677-.49-1.461-.49-2.352 0-.896.16-1.685.48-2.367.32-.682.78-1.216 1.36-1.602.59-.385 1.28-.578 2.06-.578.46 0 .91.076 1.36.227.44.151.85.396 1.21.734.37.339.67.787.89 1.344.22.557.33 1.242.33 2.055v.578h-6.74v-1.156h6.01l-.62.437c0-.583-.09-1.102-.27-1.555-.18-.453-.46-.81-.82-1.07-.36-.26-.81-.391-1.35-.391-.53 0-.99.133-1.38.399-.38.26-.67.601-.87 1.023-.21.422-.31.875-.31 1.36v.765c0 .662.12 1.222.35 1.68.22.458.54.807.96 1.047.41.234.88.351 1.43.351.34 0 .66-.049.95-.148.29-.104.53-.258.74-.461.21-.208.37-.464.48-.766l1.29.375c-.13.438-.36.823-.68 1.157-.32.328-.72.586-1.19.773-.47.182-1.01.274-1.59.274Zm14.12-3.75v-5.172h1.33V172h-1.33v-1.484h-.09c-.21.442-.53.82-.96 1.132-.43.313-.98.467-1.64.461-.54 0-1.03-.117-1.45-.351-.42-.24-.76-.604-1-1.094-.24-.49-.36-1.107-.36-1.852v-5.546h1.33v5.468c0 .631.18 1.136.54 1.516.36.38.82.568 1.38.562.33 0 .67-.083 1.02-.25.35-.171.64-.432.87-.781.24-.354.36-.802.36-1.343Zm9.22-3.204-1.2.328a2.428 2.428 0 0 0-.6-.843c-.27-.271-.71-.407-1.29-.407-.54 0-.98.126-1.33.376-.36.244-.53.552-.53.921 0 .334.12.599.36.797.24.198.62.36 1.14.485l1.29.312c.78.188 1.36.477 1.74.867.38.391.58.888.58 1.492 0 .5-.15.948-.43 1.344-.29.396-.69.709-1.2.938-.51.229-1.1.344-1.78.344-.89 0-1.63-.196-2.21-.586-.58-.391-.95-.956-1.1-1.696l1.26-.312c.12.468.35.82.69 1.054.34.235.79.352 1.34.352.62 0 1.12-.133 1.49-.398.37-.271.56-.592.56-.961 0-.615-.43-1.026-1.3-1.235l-1.45-.344c-.8-.192-1.39-.486-1.76-.882-.38-.396-.57-.894-.57-1.492 0-.495.14-.933.42-1.313.28-.38.66-.677 1.15-.891.48-.218 1.03-.328 1.64-.328.87 0 1.55.193 2.03.578.5.381.85.881 1.06 1.5Zm5.09 6.954c-.84 0-1.56-.188-2.18-.563-.61-.375-1.07-.898-1.4-1.57-.33-.677-.5-1.461-.5-2.352 0-.896.17-1.685.49-2.367.32-.682.78-1.216 1.36-1.602.59-.385 1.27-.578 2.06-.578.45 0 .9.076 1.35.227.45.151.86.396 1.22.734.37.339.67.787.88 1.344.22.557.33 1.242.33 2.055v.578h-6.73v-1.156h6.01l-.62.437c0-.583-.09-1.102-.27-1.555-.19-.453-.46-.81-.82-1.07-.36-.26-.81-.391-1.35-.391s-1 .133-1.38.399c-.38.26-.67.601-.88 1.023-.2.422-.3.875-.3 1.36v.765c0 .662.11 1.222.34 1.68.23.458.55.807.96 1.047.41.234.89.351 1.43.351.35 0 .67-.049.96-.148.28-.104.53-.258.74-.461.21-.208.37-.464.48-.766l1.29.375a2.73 2.73 0 0 1-.69 1.157c-.31.328-.71.586-1.18.773-.48.182-1.01.274-1.6.274Zm4.88-.188v-8.734h1.28v1.328h.09c.16-.433.45-.782.87-1.047.42-.271.89-.406 1.41-.406.1 0 .23.002.37.007.15 0 .26.003.34.008v1.36a4.265 4.265 0 0 0-.32-.047 3.926 3.926 0 0 0-.51-.031c-.42 0-.8.088-1.13.265-.34.177-.6.419-.79.727a1.96 1.96 0 0 0-.28 1.054V172h-1.33Zm11.37-6.766-1.2.328c-.11-.296-.31-.578-.59-.843-.28-.271-.71-.407-1.3-.407-.53 0-.97.126-1.33.376-.35.244-.53.552-.53.921 0 .334.12.599.36.797.24.198.62.36 1.14.485l1.3.312c.77.188 1.35.477 1.73.867.39.391.58.888.58 1.492 0 .5-.14.948-.43 1.344-.29.396-.69.709-1.2.938-.51.229-1.1.344-1.78.344-.89 0-1.62-.196-2.21-.586-.58-.391-.94-.956-1.1-1.696l1.27-.312c.12.468.35.82.68 1.054.35.235.8.352 1.35.352.62 0 1.11-.133 1.48-.398.38-.271.56-.592.56-.961 0-.615-.43-1.026-1.29-1.235l-1.46-.344c-.8-.192-1.39-.486-1.76-.882-.38-.396-.56-.894-.56-1.492 0-.495.13-.933.41-1.313.28-.38.66-.677 1.15-.891.48-.218 1.03-.328 1.64-.328.87 0 1.55.193 2.04.578.49.381.84.881 1.05 1.5Z"/>
    <path fill="#000" d="M1221.05 145.688v-3.36l9.89-15.609h2.78v4.781h-1.7l-6.66 10.531v.188h13.8v3.469h-18.11Zm11.09 4.312v-5.328l.06-1.516v-16.437h3.97V150h-4.03Zm11.52.266c-.7 0-1.3-.24-1.79-.719a2.45 2.45 0 0 1-.72-1.781c0-.698.24-1.287.72-1.766a2.44 2.44 0 0 1 1.79-.734c.71 0 1.31.244 1.79.734.49.479.73 1.068.73 1.766a2.42 2.42 0 0 1-.73 1.781c-.48.479-1.08.719-1.79.719Zm13.08.046c-1.69 0-3.19-.281-4.49-.843-1.3-.573-2.32-1.354-3.06-2.344a5.52 5.52 0 0 1-1.1-3.359c0-.969.22-1.865.65-2.688.42-.823 1-1.51 1.73-2.062a5.712 5.712 0 0 1 2.48-1.063v-.141a4.942 4.942 0 0 1-2.9-1.843c-.74-.959-1.11-2.068-1.11-3.328 0-1.198.33-2.266 1-3.203.68-.938 1.6-1.678 2.78-2.219 1.18-.542 2.52-.813 4.02-.813 1.48 0 2.82.271 4 .813 1.17.541 2.1 1.281 2.78 2.219.67.937 1.01 2.005 1.01 3.203 0 1.26-.37 2.369-1.12 3.328-.75.958-1.71 1.573-2.88 1.843v.141c.9.156 1.72.511 2.46 1.063a6.11 6.11 0 0 1 1.75 2.062c.43.823.65 1.719.65 2.688 0 1.25-.37 2.369-1.11 3.359-.74.99-1.76 1.771-3.06 2.344-1.3.562-2.8.843-4.48.843Zm0-3.234c.87 0 1.63-.151 2.28-.453.64-.302 1.14-.724 1.5-1.266.35-.552.53-1.182.53-1.89 0-.74-.19-1.396-.56-1.969a3.874 3.874 0 0 0-1.54-1.344c-.64-.333-1.38-.5-2.21-.5-.84 0-1.58.167-2.24.5-.65.323-1.16.771-1.53 1.344-.37.562-.55 1.219-.55 1.969 0 .708.18 1.338.53 1.89.36.542.86.964 1.5 1.266.65.302 1.41.453 2.29.453Zm0-10.609c.7 0 1.33-.141 1.89-.422.55-.292.99-.693 1.31-1.203.32-.521.48-1.115.48-1.782 0-.677-.15-1.265-.47-1.765a3.08 3.08 0 0 0-1.29-1.156c-.56-.282-1.2-.422-1.92-.422-.73 0-1.38.14-1.94.422-.55.27-.99.656-1.3 1.156-.3.5-.45 1.088-.45 1.765 0 .667.15 1.256.47 1.766.31.511.74.912 1.29 1.203.57.292 1.21.438 1.93.438Z"/>
    <path fill="#7E8890" d="M1221.52 172h-1.49l4.28-11.641h1.46l4.26 11.641h-1.47l-3.48-9.797h-.1l-3.46 9.797Zm.54-4.547h5.96v1.25h-5.96v-1.25Zm14.89-4.187-3.22 8.734h-1.37l-3.22-8.734h1.45l2.41 6.968h.09l2.41-6.968h1.45Zm4.38 8.922c-.84 0-1.57-.188-2.18-.563a3.725 3.725 0 0 1-1.41-1.57c-.33-.677-.49-1.461-.49-2.352 0-.896.16-1.685.48-2.367.33-.682.78-1.216 1.36-1.602.59-.385 1.28-.578 2.07-.578.45 0 .9.076 1.35.227.45.151.85.396 1.22.734.37.339.66.787.88 1.344.22.557.33 1.242.33 2.055v.578h-6.74v-1.156h6.01l-.62.437c0-.583-.09-1.102-.27-1.555-.18-.453-.46-.81-.82-1.07-.36-.26-.81-.391-1.34-.391-.54 0-1 .133-1.39.399-.38.26-.67.601-.87 1.023-.2.422-.31.875-.31 1.36v.765c0 .662.12 1.222.35 1.68.23.458.55.807.96 1.047.41.234.89.351 1.43.351.35 0 .66-.049.95-.148.29-.104.54-.258.74-.461.21-.208.37-.464.48-.766l1.3.375a2.95 2.95 0 0 1-.69 1.157c-.32.328-.71.586-1.19.773-.47.182-1 .274-1.59.274Zm4.87-.188v-8.734h1.28v1.328h.1c.16-.433.45-.782.87-1.047.42-.271.89-.406 1.41-.406.1 0 .22.002.37.007.14 0 .25.003.33.008v1.36a3.713 3.713 0 0 0-.31-.047 3.974 3.974 0 0 0-.52-.031c-.42 0-.8.088-1.13.265-.33.177-.59.419-.79.727a1.96 1.96 0 0 0-.28 1.054V172h-1.33Zm7.77.203c-.55 0-1.06-.104-1.51-.312a2.643 2.643 0 0 1-1.08-.922c-.26-.401-.4-.886-.4-1.453 0-.5.1-.904.3-1.211.2-.313.46-.558.79-.735.33-.182.7-.317 1.09-.406.41-.088.81-.159 1.22-.211.53-.068.96-.12 1.28-.156.34-.037.58-.099.73-.188.16-.088.23-.239.23-.453v-.047c0-.557-.15-.989-.46-1.297-.3-.312-.76-.468-1.38-.468-.63 0-1.13.14-1.5.422-.36.276-.62.573-.76.89l-1.29-.453c.23-.531.54-.945.92-1.242.38-.297.8-.505 1.25-.625.45-.12.9-.18 1.33-.18.29 0 .61.034.97.102.37.062.72.198 1.07.406.34.203.63.513.85.93.23.411.35.963.35 1.656V172h-1.35v-1.188h-.06c-.09.188-.24.391-.45.61-.21.213-.5.398-.85.555-.35.151-.78.226-1.29.226Zm.2-1.203c.53 0 .98-.104 1.35-.312.36-.209.64-.477.82-.805.19-.334.28-.68.28-1.039v-1.235c-.05.068-.18.131-.37.188-.19.052-.41.099-.66.141-.24.041-.48.078-.71.109l-.57.062c-.35.047-.67.123-.97.227-.31.099-.55.247-.74.445-.18.198-.27.469-.27.813 0 .463.17.815.51 1.054.35.235.8.352 1.33.352Zm9.03 4.453c-.97 0-1.74-.177-2.31-.531-.56-.354-.98-.761-1.25-1.219l1.06-.75c.12.162.28.344.46.547.19.208.45.388.77.539.32.151.75.227 1.27.227.71 0 1.29-.17 1.75-.508.46-.339.69-.873.69-1.602v-1.765h-.12a9 9 0 0 1-.42.586 2.4 2.4 0 0 1-.77.617c-.34.177-.79.265-1.36.265-.7 0-1.33-.166-1.89-.5-.56-.333-1-.817-1.33-1.453-.32-.635-.48-1.406-.48-2.312 0-.896.15-1.675.46-2.336.32-.667.76-1.182 1.32-1.547.57-.37 1.22-.555 1.95-.555.57 0 1.02.094 1.35.282.34.187.6.401.77.64.19.234.33.427.43.578h.14v-1.39h1.28v8.984c0 .75-.17 1.359-.51 1.828-.33.474-.79.82-1.36 1.039-.57.224-1.2.336-1.9.336Zm-.04-4.797c.8 0 1.42-.273 1.85-.82.43-.547.65-1.305.65-2.274 0-.63-.1-1.184-.28-1.664-.19-.479-.47-.854-.85-1.125-.37-.276-.83-.414-1.37-.414-.57 0-1.05.146-1.43.438-.37.286-.65.672-.84 1.156a4.374 4.374 0 0 0-.28 1.609c0 .605.09 1.141.28 1.61.19.463.48.828.86 1.094.38.26.85.39 1.41.39Zm9.18 1.532c-.83 0-1.56-.188-2.18-.563-.61-.375-1.07-.898-1.4-1.57-.33-.677-.49-1.461-.49-2.352 0-.896.16-1.685.48-2.367.32-.682.78-1.216 1.36-1.602.59-.385 1.28-.578 2.06-.578.45 0 .91.076 1.35.227.45.151.86.396 1.22.734.37.339.67.787.88 1.344.22.557.33 1.242.33 2.055v.578h-6.73v-1.156h6.01l-.62.437c0-.583-.09-1.102-.27-1.555-.19-.453-.46-.81-.82-1.07-.36-.26-.81-.391-1.35-.391-.53 0-1 .133-1.38.399-.38.26-.67.601-.88 1.023-.2.422-.3.875-.3 1.36v.765c0 .662.11 1.222.34 1.68.23.458.55.807.96 1.047.42.234.89.351 1.43.351.35 0 .67-.049.96-.148.28-.104.53-.258.74-.461.21-.208.37-.464.48-.766l1.29.375a2.73 2.73 0 0 1-.69 1.157c-.31.328-.71.586-1.18.773-.48.182-1.01.274-1.6.274Zm8.63-.188v-8.734h1.28v1.328h.09c.17-.433.45-.782.87-1.047.42-.271.89-.406 1.41-.406.1 0 .23.002.37.007.15 0 .26.003.34.008v1.36a4.62 4.62 0 0 0-.83-.078c-.42 0-.8.088-1.13.265-.34.177-.6.419-.79.727a1.96 1.96 0 0 0-.28 1.054V172h-1.33Zm7.76.203c-.55 0-1.05-.104-1.5-.312a2.52 2.52 0 0 1-1.08-.922c-.27-.401-.4-.886-.4-1.453 0-.5.1-.904.3-1.211.19-.313.46-.558.79-.735a4.06 4.06 0 0 1 1.09-.406c.4-.088.8-.159 1.21-.211.53-.068.96-.12 1.29-.156.33-.037.58-.099.73-.188.15-.088.23-.239.23-.453v-.047c0-.557-.15-.989-.46-1.297-.3-.312-.76-.468-1.38-.468-.64 0-1.14.14-1.5.422-.37.276-.62.573-.77.89l-1.28-.453c.23-.531.53-.945.91-1.242.39-.297.81-.505 1.25-.625.46-.12.9-.18 1.34-.18.28 0 .6.034.97.102.36.062.72.198 1.06.406.35.203.64.513.86.93.23.411.34.963.34 1.656V172h-1.34v-1.188h-.06c-.09.188-.24.391-.45.61-.22.213-.5.398-.86.555-.35.151-.78.226-1.29.226Zm.21-1.203c.53 0 .98-.104 1.34-.312.37-.209.64-.477.83-.805.19-.334.28-.68.28-1.039v-1.235c-.06.068-.18.131-.37.188-.19.052-.41.099-.66.141-.25.041-.48.078-.72.109l-.56.062c-.35.047-.68.123-.98.227-.3.099-.55.247-.73.445-.19.198-.28.469-.28.813 0 .463.18.815.52 1.054.35.235.79.352 1.33.352Zm9.29-7.734v1.14h-4.51v-1.14h4.51Zm-3.2-2.078h1.33v8.312c0 .453.09.786.28 1 .19.208.48.312.89.312.09 0 .18-.005.27-.015.1-.011.21-.026.32-.047l.29 1.203c-.13.047-.28.083-.46.109-.18.032-.36.047-.54.047-.71 0-1.28-.208-1.72-.625-.44-.416-.66-.958-.66-1.625v-8.671Zm4.49 10.812v-8.734h1.32V172h-1.32Zm.67-10.188a.928.928 0 0 1-.67-.265.85.85 0 0 1 0-1.281.93.93 0 0 1 .67-.266c.26 0 .48.089.67.266.19.177.28.39.28.64a.84.84 0 0 1-.28.641.945.945 0 0 1-.67.265Zm3.7 4.938V172h-1.33v-8.734h1.28v1.375h.13c.2-.448.51-.808.93-1.079.42-.27.95-.406 1.62-.406.58 0 1.1.12 1.54.36.45.239.79.604 1.03 1.093.25.485.38 1.099.38 1.844V172h-1.33v-5.453c0-.682-.18-1.216-.54-1.602-.36-.39-.85-.586-1.47-.586-.42 0-.81.094-1.15.282-.33.187-.6.458-.8.812-.19.354-.29.787-.29 1.297Zm10.81 8.703c-.97 0-1.74-.177-2.31-.531-.56-.354-.98-.761-1.25-1.219l1.06-.75c.12.162.28.344.46.547.19.208.45.388.77.539.32.151.75.227 1.27.227.71 0 1.29-.17 1.75-.508.46-.339.69-.873.69-1.602v-1.765h-.12a9 9 0 0 1-.42.586 2.4 2.4 0 0 1-.77.617c-.34.177-.79.265-1.36.265-.7 0-1.33-.166-1.89-.5-.56-.333-1-.817-1.33-1.453-.32-.635-.48-1.406-.48-2.312 0-.896.15-1.675.46-2.336.32-.667.76-1.182 1.32-1.547.57-.37 1.22-.555 1.95-.555.57 0 1.02.094 1.35.282.34.187.6.401.77.64.19.234.33.427.43.578h.14v-1.39h1.28v8.984c0 .75-.17 1.359-.51 1.828-.33.474-.79.82-1.36 1.039-.57.224-1.2.336-1.9.336Zm-.04-4.797c.8 0 1.42-.273 1.85-.82.43-.547.65-1.305.65-2.274 0-.63-.1-1.184-.28-1.664-.19-.479-.47-.854-.85-1.125-.37-.276-.83-.414-1.37-.414-.57 0-1.05.146-1.43.438-.37.286-.65.672-.84 1.156a4.374 4.374 0 0 0-.28 1.609c0 .605.09 1.141.28 1.61.19.463.48.828.86 1.094.38.26.85.39 1.41.39Z"/>
    <path fill="url(#b)" d="M1040 80h268c17.67 0 32 14.327 32 32v76c0 17.673-14.33 32-32 32h-268V80Z"/>
    <path fill="url(#c)" d="M400 80H132c-17.673 0-32 14.327-32 32v76c0 17.673 14.327 32 32 32h268V80Z"/>
  </g>
  <defs>
    <linearGradient id="b" x1="1340" x2="1040" y1="150" y2="150" gradientUnits="userSpaceOnUse">
      <stop stop-color="#fff"/>
      <stop offset="1" stop-color="#fff" stop-opacity="0"/>
    </linearGradient>
    <linearGradient id="c" x1="100" x2="400" y1="150" y2="150" gradientUnits="userSpaceOnUse">
      <stop stop-color="#fff"/>
      <stop offset="1" stop-color="#fff" stop-opacity="0"/>
    </linearGradient>
    <clipPath id="a">
      <path fill="#fff" d="M100 131.2c0-17.922 0-26.883 3.488-33.728a32 32 0 0 1 13.984-13.984C124.317 80 133.278 80 151.2 80h1137.6c17.92 0 26.88 0 33.73 3.488a32.006 32.006 0 0 1 13.98 13.984c3.49 6.845 3.49 15.806 3.49 33.728v37.6c0 17.922 0 26.883-3.49 33.728a32.007 32.007 0 0 1-13.98 13.984C1315.68 220 1306.72 220 1288.8 220H151.2c-17.922 0-26.883 0-33.728-3.488a32 32 0 0 1-13.984-13.984C100 195.683 100 186.722 100 168.8v-37.6Z"/>
    </clipPath>
  </defs>
</svg>
