<svg fill="none" height="1656" viewBox="0 0 1440 1656" width="1440" xmlns="http://www.w3.org/2000/svg" xmlns:xlink="http://www.w3.org/1999/xlink"><clipPath id="a"><path d="m240 624c0-17.67 14.33-32 32-32h240c17.67 0 32 14.33 32 32v512c0 17.67-14.33 32-32 32h-240c-17.67 0-32-14.33-32-32z"/></clipPath><clipPath id="b"><path d="m240 888h304v280h-304z"/></clipPath><clipPath id="c"><path d="m568 888h304v280h-304z"/></clipPath><clipPath id="d"><path d="m896 888h304v280h-304z"/></clipPath><pattern id="e" height="1" patternContentUnits="objectBoundingBox" width="1"/><pattern id="f" height="1" patternContentUnits="objectBoundingBox" width="1"/><pattern id="g" height="1" patternContentUnits="objectBoundingBox" width="1"/><linearGradient id="h" gradientUnits="userSpaceOnUse" x1="668" x2="772" y1="96" y2="96"><stop offset="0"/><stop offset="1" stop-opacity=".64"/></linearGradient><linearGradient id="i" gradientUnits="userSpaceOnUse" x1="320" x2="1120" y1="180" y2="180"><stop offset="0" stop-color="#ffdcb4"/><stop offset="1" stop-color="#e89d2c"/></linearGradient><filter id="j" color-interpolation-filters="sRGB" filterUnits="userSpaceOnUse" height="1106" width="1238" x="101" y="550"><feFlood flood-opacity="0" result="BackgroundImageFix"/><feColorMatrix in="SourceAlpha" result="hardAlpha" values="0 0 0 0 0 0 0 0 0 0 0 0 0 0 0 0 0 0 127 0"/><feOffset dy="22"/><feGaussianBlur stdDeviation="24"/><feColorMatrix values="0 0 0 0 .48 0 0 0 0 .48 0 0 0 0 .48 0 0 0 .1 0"/><feBlend in2="BackgroundImageFix" result="effect1_dropShadow_5640_65205"/><feColorMatrix in="SourceAlpha" result="hardAlpha" values="0 0 0 0 0 0 0 0 0 0 0 0 0 0 0 0 0 0 127 0"/><feOffset dy="87"/><feGaussianBlur stdDeviation="43.5"/><feColorMatrix values="0 0 0 0 .48 0 0 0 0 .48 0 0 0 0 .48 0 0 0 .09 0"/><feBlend in2="effect1_dropShadow_5640_65205" result="effect2_dropShadow_5640_65205"/><feColorMatrix in="SourceAlpha" result="hardAlpha" values="0 0 0 0 0 0 0 0 0 0 0 0 0 0 0 0 0 0 127 0"/><feOffset dy="196"/><feGaussianBlur stdDeviation="59"/><feColorMatrix values="0 0 0 0 .48 0 0 0 0 .48 0 0 0 0 .48 0 0 0 .05 0"/><feBlend in2="effect2_dropShadow_5640_65205" result="effect3_dropShadow_5640_65205"/><feColorMatrix in="SourceAlpha" result="hardAlpha" values="0 0 0 0 0 0 0 0 0 0 0 0 0 0 0 0 0 0 127 0"/><feOffset dy="349"/><feGaussianBlur stdDeviation="69.5"/><feColorMatrix values="0 0 0 0 .48 0 0 0 0 .48 0 0 0 0 .48 0 0 0 .01 0"/><feBlend in2="effect3_dropShadow_5640_65205" result="effect4_dropShadow_5640_65205"/><feBlend in="SourceGraphic" in2="effect4_dropShadow_5640_65205" result="shape"/></filter><rect fill="url(#h)" height="32" rx="16" width="104" x="668" y="80"/><path d="m689.38 92.73v2.38l-.842-.292c-.425-.15-.683-.292-.683-1.02 0-.591.44-1.07.983-1.07h.542zm2.77 5.46c0 .591-.442 1.07-.983 1.07h-.542v-2.38l.842.29c.425.15.683.29.683 1.02z" fill="#fff"/><path d="m693.49 87.67h-6.98c-3.03 0-4.84 1.81-4.84 4.84v6.98c0 3.03 1.81 4.84 4.84 4.84h6.98c3.03 0 4.84-1.81 4.84-4.84v-6.98c0-3.03-1.81-4.84-4.84-4.84zm-1.61 8.33c.65.22 1.52.7 1.52 2.19 0 1.28-1 2.33-2.23 2.33h-.542v.48a.63.63 0 0 1 -.625.62.63.63 0 0 1 -.625-.625v-.483h-.3c-1.37 0-2.48-1.16-2.48-2.58a.624.62 0 1 1 1.25 0c0 .733.55 1.32 1.23 1.32h.3v-2.83l-1.258-.422c-.65-.225-1.52-.7-1.52-2.19 0-1.28 1-2.33 2.23-2.33h.541v-.48a.63.63 0 0 1 .625-.625.63.63 0 0 1 .625.62v.483h.3c1.37 0 2.48 1.16 2.48 2.58a.624.62 0 1 1 -1.25 0c0-.733-.55-1.32-1.23-1.32h-.3v2.83l1.26.442zm12.93 5v-10.19h3.82c.784 0 1.44.146 1.97.438a2.94 2.94 0 0 1 1.21 1.2c.273.51.41 1.09.41 1.74 0 .652-.139 1.23-.417 1.74a2.94 2.94 0 0 1 -1.22 1.2c-.538.29-1.2.43-1.98.43h-2.53v-1.52h2.28c.46 0 .836-.078 1.13-.233a1.48 1.48 0 0 0 .649-.656 2.13 2.13 0 0 0 .212-.964 2.06 2.06 0 0 0 -.212-.957 1.41 1.41 0 0 0 -.649-.642c-.292-.155-.67-.233-1.14-.233h-1.69v8.647h-1.84zm8.21 0v-10.19h3.82c.784 0 1.44.137 1.97.41.53.274.94.657 1.21 1.15.273.49.41 1.05.41 1.7 0 .652-.139 1.22-.417 1.7-.273.48-.679.85-1.22 1.11-.538.26-1.2.39-1.98.39h-2.71v-1.52h2.46c.46 0 .836-.064 1.13-.191a1.3 1.3 0 0 0 .649-.56c.141-.251.21-.557.21-.917s-.071-.667-.212-.923a1.34 1.34 0 0 0 -.649-.588c-.292-.136-.67-.205-1.14-.205h-1.69v8.634h-1.85zm5.72 0-2.47-4.62h2.01l2.52 4.62zm4.43-10.19v10.19h-1.84v-10.19zm5.61 10.32c-.893 0-1.69-.208-2.4-.622-.702-.415-1.26-1.01-1.66-1.79-.401-.78-.602-1.72-.602-2.81 0-1.1.203-2.04.608-2.82.411-.784.97-1.38 1.67-1.8.707-.415 1.5-.622 2.39-.622.56 0 1.08.08 1.57.239.49.16.93.394 1.31.704.38.305.69.681.94 1.13.247.44.408.95.486 1.51h-1.86a2.24 2.24 0 0 0 -.293-.82 2.11 2.11 0 0 0 -.534-.601 2.12 2.12 0 0 0 -.717-.376 2.82 2.82 0 0 0 -.869-.13 2.65 2.65 0 0 0 -1.48.417c-.429.27-.764.68-1 1.22-.242.53-.362 1.18-.362 1.95 0 .775.12 1.43.362 1.96.246.53.581.93 1 1.2.428.27.918.4 1.47.403.31 0 .59-.38.85-.116.26-.82.5-.203.72-.362a2.13 2.13 0 0 0 .54-.588c.146-.232.25-.499.31-.8h1.86a4.05 4.05 0 0 1 -.451 1.37 3.94 3.94 0 0 1 -.903 1.12 4.15 4.15 0 0 1 -1.3.752 4.76 4.76 0 0 1 -1.66.274zm7.05-10.32v10.19h-1.85v-10.19zm9.58 0v10.19h-1.66l-4.79-6.94h-.089v6.94h-1.84v-10.19h1.65l4.79 6.94h.089v-6.94zm5.66 10.32c-.934 0-1.76-.212-2.47-.636-.706-.424-1.26-1.02-1.65-1.8-.397-.779-.595-1.7-.595-2.77 0-1.09.203-2.03.609-2.82.41-.783.97-1.38 1.67-1.8.701-.42 1.5-.63 2.38-.63.56 0 1.09.083 1.57.247.49.164.92.399 1.3.704.38.3.69.659.93 1.07.246.41.41.87.492 1.37h-1.88a2.67 2.67 0 0 0 -.341-.724 2.13 2.13 0 0 0 -.52-.547 2.1 2.1 0 0 0 -.684-.349 2.91 2.91 0 0 0 -.847-.116c-.542 0-1.03.139-1.46.417-.429.27-.766.68-1.01 1.21-.241.53-.362 1.18-.362 1.94 0 .77.12 1.42.362 1.96.242.53.579.94 1.01 1.22.433.27.934.41 1.5.41.52 0 .961-.098 1.34-.293.38-.201.67-.484.88-.848.21-.365.31-.795.31-1.29l.424.07h-2.77v-1.44h4.14v1.22c0 .875-.184 1.63-.554 2.26a3.78 3.78 0 0 1 -1.54 1.47c-.651.34-1.4.513-2.23.513z" fill="#fff"/><path d="m600.53 142.47c-.185-1.74-.968-3.09-2.35-4.06-1.37-.968-3.14-1.45-5.33-1.45-1.54 0-2.86.232-3.96.696s-1.94 1.09-2.53 1.89c-.583.8-.881 1.7-.895 2.73 0 .848.19 1.58.577 2.21a5.27 5.27 0 0 0 1.61 1.59c.676.42 1.43.782 2.25 1.07.822.29 1.65.537 2.49.736l3.82.954c1.54.358 3.02.842 4.43 1.45a15.65 15.65 0 0 1 3.84 2.31 10.23 10.23 0 0 1 2.7 3.36c.663 1.31.995 2.85.995 4.61 0 2.39-.61 4.49-1.83 6.3-1.22 1.8-2.98 3.21-5.29 4.24-2.29 1.01-5.07 1.51-8.33 1.51-3.17 0-5.92-.49-8.25-1.47-2.32-.981-4.14-2.41-5.45-4.3-1.3-1.88-2-4.18-2.11-6.88h7.26c.106 1.42.543 2.6 1.31 3.54.769.94 1.77 1.64 3 2.11 1.25.464 2.64.696 4.18.696 1.6 0 3.01-.238 4.22-.715 1.22-.491 2.17-1.17 2.86-2.03.689-.875 1.04-1.9 1.05-3.06-.014-1.06-.325-1.94-.935-2.62-.61-.703-1.47-1.29-2.56-1.75-1.09-.478-2.36-.902-3.82-1.27l-4.63-1.19c-3.35-.862-6.01-2.17-7.96-3.92-1.94-1.76-2.9-4.1-2.9-7.02 0-2.4.65-4.5 1.95-6.3 1.31-1.8 3.1-3.2 5.35-4.2 2.25-1.01 4.81-1.51 7.66-1.51 2.89 0 5.42.504 7.6 1.51 2.19.995 3.9 2.38 5.15 4.16 1.25 1.76 1.89 3.79 1.93 6.08h-7.1zm28.61-1.01v5.57h-17.56v-5.57zm-13.22-7.32h7.2v28.68c0 .968.15 1.71.438 2.23.304.5.702.85 1.19 1.03.49.19 1.03.278 1.63.278.45 0 .862-.033 1.23-.99.39-.66.68-.126.88-.179l1.21 5.63c-.384.13-.934.28-1.65.437-.703.16-1.56.252-2.58.279-1.8.053-3.43-.219-4.87-.816-1.45-.61-2.59-1.55-3.44-2.82-.835-1.27-1.25-2.86-1.23-4.77v-29.87zm27.48 38.48c-1.94 0-3.68-.344-5.23-1.03-1.54-.702-2.76-1.74-3.66-3.1-.889-1.36-1.33-3.05-1.33-5.05 0-1.72.319-3.15.955-4.28a7.39 7.39 0 0 1 2.6-2.7c1.1-.676 2.34-1.19 3.72-1.53a30.21 30.21 0 0 1 4.32-.776c1.79-.186 3.24-.351 4.36-.497 1.11-.159 1.92-.398 2.43-.716.52-.331.78-.842.78-1.53v-.12c0-1.5-.444-2.66-1.33-3.48-.889-.822-2.17-1.23-3.84-1.23-1.76 0-3.16.385-4.2 1.15-1.02.769-1.71 1.68-2.07 2.72l-6.72-.954c.53-1.86 1.41-3.41 2.62-4.65 1.22-1.26 2.71-2.2 4.47-2.82 1.76-.636 3.71-.954 5.85-.954 1.47 0 2.94.172 4.39.517 1.46.345 2.79.915 4 1.71 1.21.782 2.17 1.85 2.9 3.2.743 1.35 1.11 3.04 1.11 5.07v20.43h-6.92v-4.2h-.238c-.438.85-1.05 1.64-1.85 2.39-.782.73-1.77 1.32-2.96 1.77-1.18.438-2.56.656-4.16.656zm1.87-5.29c1.45 0 2.7-.285 3.76-.855 1.06-.584 1.88-1.35 2.45-2.31a5.88 5.88 0 0 0 .875-3.12v-3.6c-.226.19-.61.36-1.15.517a16.23 16.23 0 0 1 -1.79.418c-.663.12-1.32.225-1.97.318-.65.09-1.21.172-1.69.239-1.07.145-2.04.384-2.88.716-.848.33-1.52.795-2.01 1.39-.49.58-.735 1.34-.735 2.27 0 1.32.484 2.33 1.45 3.968" fill="#000"/><path d="m644.7 193.46v-6.18h32.49v6.18h-12.59v34.54h-7.32v-34.54zm45.08 16.64v17.9h-7.2v-40.73h7.04v15.37h.358c.716-1.72 1.82-3.08 3.32-4.08 1.51-1.01 3.43-1.51 5.77-1.51 2.12 0 3.97.444 5.55 1.33 1.58.888 2.8 2.19 3.66 3.9.875 1.71 1.31 3.8 1.31 6.26v19.46h-7.2v-18.34c0-2.06-.53-3.65-1.59-4.79-1.05-1.15-2.52-1.73-4.41-1.73-1.27 0-2.41.278-3.42.835-.994.54-1.78 1.33-2.35 2.37-.557 1.03-.836 2.29-.836 3.76zm39.91 18.5c-2.98 0-5.57-.657-7.76-1.97-2.19-1.31-3.88-3.15-5.09-5.51-1.19-2.36-1.79-5.12-1.79-8.27 0-3.16.596-5.92 1.79-8.29 1.21-2.37 2.9-4.22 5.09-5.53s4.77-1.97 7.76-1.97c2.98 0 5.57.656 7.76 1.97 2.19 1.31 3.88 3.15 5.07 5.53 1.21 2.37 1.81 5.14 1.81 8.29s-.603 5.91-1.81 8.27c-1.19 2.36-2.88 4.2-5.07 5.51s-4.77 1.97-7.76 1.97zm.04-5.77c1.62 0 2.97-.445 4.06-1.33 1.09-.901 1.9-2.11 2.43-3.62.543-1.51.815-3.19.815-5.05 0-1.87-.272-3.56-.815-5.07-.531-1.52-1.34-2.74-2.43-3.64-1.09-.901-2.44-1.35-4.06-1.35-1.66 0-3.04.451-4.14 1.35-1.09.902-1.9 2.12-2.45 3.64-.53 1.51-.795 3.2-.795 5.07 0 1.86.265 3.54.795 5.05.544 1.51 1.36 2.72 2.45 3.62 1.1.888 2.48 1.33 4.14 1.33zm39.62-7.68v-17.7h7.2v30.55h-6.98v-5.43h-.318c-.69 1.71-1.82 3.11-3.4 4.2-1.56 1.09-3.49 1.63-5.79 1.63-2 0-3.77-.444-5.31-1.33-1.52-.901-2.72-2.21-3.58-3.92-.862-1.72-1.29-3.81-1.29-6.25v-19.45h7.2v18.34c0 1.94.531 3.47 1.59 4.61 1.06 1.14 2.45 1.71 4.18 1.71 1.06 0 2.09-.259 3.08-.776s1.81-1.29 2.45-2.31c.649-1.03.974-2.33.974-3.88zm38.18-9.62-6.56.716a5.26 5.26 0 0 0 -.974-1.87c-.451-.583-1.06-1.05-1.83-1.41-.769-.358-1.71-.537-2.82-.537-1.5 0-2.76.325-3.78.975-1.01.649-1.5 1.49-1.49 2.52-.14.89.311 1.61.974 2.17.676.56 1.79 1.01 3.34 1.37l5.21 1.11c2.89.623 5.04 1.61 6.44 2.96 1.42 1.35 2.13 3.12 2.15 5.31-.013 1.92-.577 3.62-1.69 5.09-1.1 1.46-2.63 2.6-4.59 3.42-1.96.822-4.22 1.23-6.76 1.23-3.74 0-6.75-.783-9.03-2.35-2.28-1.58-3.64-3.77-4.08-6.58l7.02-.677c.319 1.38.995 2.42 2.03 3.12 1.03.702 2.38 1.05 4.04 1.05 1.71 0 3.08-.352 4.12-1.05 1.05-.703 1.57-1.57 1.57-2.6 0-.875-.338-1.6-1.01-2.17-.663-.57-1.7-1.01-3.1-1.31l-5.21-1.09c-2.93-.61-5.1-1.64-6.5-3.08-1.41-1.46-2.1-3.3-2.09-5.53-.014-1.88.497-3.51 1.53-4.89 1.05-1.39 2.5-2.47 4.36-3.22 1.87-.769 4.02-1.15 6.46-1.15 3.58 0 6.4.762 8.45 2.29 2.07 1.52 3.35 3.59 3.84 6.18zm14.82 23.09c-1.94 0-3.68-.344-5.23-1.03-1.54-.702-2.76-1.74-3.66-3.1-.889-1.36-1.33-3.05-1.33-5.05 0-1.72.319-3.15.955-4.28a7.39 7.39 0 0 1 2.6-2.7c1.1-.676 2.34-1.19 3.72-1.53a30.21 30.21 0 0 1 4.32-.776c1.79-.186 3.24-.351 4.36-.497 1.11-.159 1.92-.398 2.43-.716.52-.331.78-.842.78-1.53v-.12c0-1.5-.444-2.66-1.33-3.48-.889-.822-2.17-1.23-3.84-1.23-1.76 0-3.16.385-4.2 1.15-1.02.769-1.71 1.68-2.07 2.72l-6.72-.954c.53-1.86 1.41-3.41 2.62-4.65 1.22-1.26 2.71-2.2 4.47-2.82 1.76-.636 3.71-.954 5.85-.954 1.47 0 2.94.172 4.39.517 1.46.345 2.79.915 4 1.71 1.21.782 2.17 1.85 2.9 3.2.743 1.35 1.11 3.04 1.11 5.07v20.43h-6.92v-4.2h-.238c-.438.85-1.05 1.64-1.85 2.39-.782.73-1.77 1.32-2.96 1.77-1.18.438-2.56.656-4.16.656zm1.87-5.29c1.45 0 2.7-.285 3.76-.855 1.06-.584 1.88-1.35 2.45-2.31a5.88 5.88 0 0 0 .875-3.12v-3.6c-.226.19-.61.36-1.15.517-.53.16-1.13.299-1.79.418-.663.12-1.32.225-1.97.318-.65.09-1.21.172-1.69.239-1.07.145-2.04.384-2.88.716-.848.33-1.52.795-2.01 1.39-.49.58-.735 1.34-.735 2.27 0 1.32.484 2.33 1.45 3.968" fill="url(#i)"/><path d="m546.42 266v-11.64h4.07c.811 0 1.48.14 2.01.42.53.277.92.65 1.18 1.12.257.47.386.98.386 1.55 0 .5-.89.91-.267 1.24a2.07 2.07 0 0 1 -.693.77 3.17 3.17 0 0 1 -.926.42v.12c.356.02.714.15 1.07.375.36.227.66.553.9.977.24.425.36.943.36 1.56 0 .583-.133 1.11-.398 1.57-.265.47-.684.84-1.26 1.11-.572.27-1.32.409-2.23.409h-4.2zm1.41-1.25h2.79c.921 0 1.57-.178 1.96-.534.39-.36.59-.796.59-1.31 0-.394-.101-.757-.301-1.09a2.19 2.19 0 0 0 -.858-.807c-.372-.204-.811-.306-1.32-.306h-2.86v4.04zm0-5.27h2.61c.425 0 .807-.083 1.15-.25.34-.166.62-.401.82-.704a1.86 1.86 0 0 0 .307-1.07c0-.512-.178-.946-.534-1.3-.356-.359-.92-.539-1.69-.539h-2.66v3.86zm14.31 2.96v-5.16h1.34v8.72h-1.34v-1.48h-.091c-.204.44-.522.82-.954 1.13s-.978.46-1.64.461a2.92 2.92 0 0 1 -1.45-.358c-.424-.243-.758-.606-1-1.09-.243-.489-.364-1.1-.364-1.85v-5.54h1.34v5.45c0 .637.18 1.14.534 1.52.36.38.818.57 1.38.568.33 0 .672-.085 1.02-.256.35-.17.64-.431.88-.784.24-.352.36-.801.36-1.35zm3.8 3.57v-8.73h1.34v8.72h-1.34zm.682-10.18a.951.95 0 0 1 -.676-.267.86.857 0 0 1 -.279-.642c0-.25.09-.464.28-.642a.951.95 0 0 1 .676-.267c.261 0 .485.09.67.27.19.18.284.39.284.64s-.94.46-.284.64a.932.93 0 0 1 -.67.27zm4.46-1.45v11.62h-1.34v-11.64h1.34zm6.25 2.91v1.14h-4.52v-1.14zm-3.2-2.09h1.34v8.32c0 .379.06.663.16.852a.853.85 0 0 0 .432.38c.178.06.366.09.563.09.147 0 .269-.7.36-.023l.228-.45.27 1.21a2.72 2.72 0 0 1 -.38.1c-.163.04-.37.06-.62.06-.378 0-.75-.082-1.11-.245a2.22 2.22 0 0 1 -.898-.744c-.235-.333-.352-.754-.352-1.26v-8.68zm13.61 2.09v1.14h-4.71v-1.14zm-3.302 8.71v-9.93c0-.5.12-.916.35-1.25a2.19 2.19 0 0 1 .915-.75c.375-.166.77-.25 1.19-.25.33 0 .598.03.807.08.208.05.363.1.465.15l-.386 1.16a5.96 5.96 0 0 0 -.284-.086 1.73 1.73 0 0 0 -.466-.051c-.443 0-.763.11-.96.33-.193.22-.29.55-.29.98v9.617h-1.34zm8.36.182c-.788 0-1.48-.188-2.07-.563-.591-.375-1.05-.899-1.39-1.57-.33-.674-.495-1.46-.495-2.36 0-.909.16-1.7.495-2.38.333-.678.79-1.2 1.39-1.58.595-.375 1.29-.563 2.07-.563.79 0 1.48.188 2.07.563.6.375 1.06.901 1.39 1.58.333.68.5 1.47.5 2.38 0 .901-.167 1.69-.5 2.36-.33.67-.792 1.2-1.39 1.57-.591.38-1.28.563-2.07.563zm0-1.21c.598 0 1.09-.153 1.48-.46s.67-.71.86-1.21c.186-.5.28-1.04.279-1.62 0-.584-.093-1.13-.279-1.63a2.73 2.73 0 0 0 -.858-1.22c-.386-.311-.879-.466-1.48-.466-.599 0-1.09.155-1.48.466-.387.31-.673.72-.858 1.22a4.67 4.67 0 0 0 -.279 1.63c0 .583.09 1.12.279 1.62.185.5.471.9.858 1.21.386.31.878.46 1.48.46zm6 1.02v-8.73h1.3v1.32h.091c.159-.432.45-.782.86-1.05a2.54 2.54 0 0 1 1.41-.404" fill="#7e8890"/><g fill="#000"><path d="m519.03 367-4.93-17.45h3.4l3.15 12.83h.162l3.36-12.83h3.09l3.37 12.84h.153l3.15-12.84h3.4l-4.935 17.45h-3.12l-3.49-12.25h-.136l-3.504 12.25zm23.2-7.67v7.67h-3.08v-17.45h3.02v6.59h.153a3.78 3.78 0 0 1 1.42-1.75c.647-.431 1.47-.647 2.47-.647.91 0 1.7.19 2.38.571.68.38 1.2.937 1.57 1.67.375.73.563 1.63.563 2.69v8.326h-3.09v-7.86c0-.881-.227-1.56-.681-2.05-.449-.494-1.08-.741-1.89-.741-.546 0-1.03.119-1.47.358a2.5 2.5 0 0 0 -1.01 1.01c-.239.44-.358.98-.358 1.61zm15.16 7.93c-.83 0-1.58-.148-2.24-.443a3.65 3.65 0 0 1 -1.57-1.33c-.381-.585-.571-1.31-.571-2.16 0-.739.14-1.35.409-1.83a3.17 3.17 0 0 1 1.12-1.16 5.64 5.64 0 0 1 1.59-.656 12.99 12.99 0 0 1 1.85-.332c.767-.08 1.39-.151 1.87-.213.48-.69.82-.171 1.04-.307.22-.142.33-.361.33-.657v-.051c0-.642-.19-1.14-.571-1.49-.38-.352-.929-.529-1.65-.529-.755 0-1.35.165-1.8.495-.437.33-.733.72-.886 1.17l-2.88-.409c.227-.795.6-1.46 1.12-1.99a4.89 4.89 0 0 1 1.92-1.21c.755-.273 1.59-.409 2.5-.409.63 0 1.26.073 1.88.221a5.3 5.3 0 0 1 1.71.733c.517.34.932.79 1.24 1.37.318.58.478 1.3.478 2.17v8.757h-2.97v-1.8h-.103a3.76 3.76 0 0 1 -.792 1.02c-.336.31-.759.57-1.27.759-.506.19-1.1.281-1.78.281zm.801-2.27c.619 0 1.16-.122 1.61-.366.45-.25.8-.58 1.05-.989s.38-.855.38-1.34v-1.54c-.97.08-.262.15-.495.22a6.94 6.94 0 0 1 -.767.18c-.284.05-.565.1-.843.14l-.725.1c-.46.06-.872.16-1.24.306a2.05 2.05 0 0 0 -.86.6c-.211.25-.316.57-.316.97 0 .568.21.997.62 1.29.415.29.944.43 1.59.435zm15.51-11.09v2.39h-7.53v-2.39zm-5.67-3.14h3.08v12.29c0 .415.06.733.19.955.13.216.3.364.51.443.21.8.44.12.7.12.19 0 .369-.15.53-.43.16-.28.29-.54.38-.077l.52 2.41a6.95 6.95 0 0 1 -.707.19c-.301.07-.67.11-1.11.119-.773.02-1.47-.094-2.09-.349a3.25 3.25 0 0 1 -1.47-1.21c-.358-.545-.535-1.23-.529-2.04v-12.8zm11.23-1.23v1.74c0 .5-.097 1.02-.29 1.56a6.69 6.69 0 0 1 -.776 1.53 5.88 5.88 0 0 1 -1.12 1.24l-1.43-.929c.312-.471.58-.98.82-1.52.233-.552.35-1.17.349-1.87v-1.76h2.46zm10.91 7.82-2.81.307a2.25 2.25 0 0 0 -.417-.801 2.07 2.07 0 0 0 -.784-.605c-.33-.154-.733-.23-1.21-.23-.642 0-1.18.139-1.62.417-.432.28-.645.64-.639 1.08-.6.38.133.69.417.93.29.24.768.43 1.43.588l2.23.477c1.24.267 2.16.69 2.76 1.27.608.58.914 1.34.92 2.28-.6.82-.247 1.55-.724 2.18-.472.62-1.13 1.11-1.97 1.47-.841.35-1.81.529-2.9.529-1.6 0-2.89-.336-3.87-1.01-.977-.676-1.56-1.62-1.75-2.82l3.01-.29c.137.59.426 1.04.87 1.34.443.3 1.02.452 1.73.452.73 0 1.32-.151 1.76-.452.45-.301.67-.673.67-1.12 0-.375-.145-.685-.435-.929-.284-.245-.727-.432-1.33-.563l-2.23-.468c-1.26-.262-2.19-.702-2.79-1.32-.602-.625-.901-1.42-.895-2.37-.006-.807.21-1.5.656-2.1.449-.597 1.07-1.06 1.87-1.38.801-.33 1.72-.494 2.77-.494 1.53 0 2.74.326 3.62.98.89.653 1.44 1.54 1.65 2.65zm8.309 9.65v-13.09h3.08v13.09zm1.55-14.95c-.488 0-.909-.162-1.26-.486-.352-.329-.528-.724-.528-1.18 0-.466.18-.861.53-1.19a1.78 1.78 0 0 1 1.26-.494c.495 0 .915.16 1.26.494.35.324.53.719.53 1.19 0 .46-.176.85-.528 1.18a1.78 1.78 0 0 1 -1.26.486zm7.55 7.28v7.67h-3.08v-13.09h2.95v2.23h.153a3.75 3.75 0 0 1 1.44-1.75c.664-.431 1.49-.647 2.46-.647.9 0 1.69.193 2.36.579.68.387 1.2.946 1.57 1.68.375.73.559 1.62.554 2.67v8.328h-3.09v-7.86c0-.875-.227-1.56-.681-2.05-.449-.494-1.07-.741-1.87-.741-.54 0-1.02.119-1.44.358a2.47 2.47 0 0 0 -.98 1.01c-.233.44-.35.98-.35 1.61zm17.01 7.93c-1.31 0-2.43-.287-3.37-.861a5.75 5.75 0 0 1 -2.16-2.38c-.5-1.02-.75-2.19-.75-3.51 0-1.33.255-2.5.767-3.52.511-1.02 1.23-1.82 2.16-2.39.938-.573 2.05-.86 3.32-.86 1.06 0 2.196 2.82.588.82.386 1.48.934 1.97 1.65.489"/><path d="m400.74 391.45a2 2 0 0 1 2.94-1.22l1.32.766c.622.36 1.39.362 2.01 0l1.31-.766a2 2 0 0 1 2.94 1.22l.388 1.47c.184.7.727 1.24 1.42 1.42l1.47.389a2 2 0 0 1 1.22 2.94l-.767 1.32a2 2 0 0 0 0 2.01l.767 1.31a2 2 0 0 1 -1.22 2.94l-1.47.388a2 2 0 0 0 -1.42 1.42l-.388 1.47a2 2 0 0 1 -2.94 1.22l-1.31-.767a2 2 0 0 0 -2.01 0l-1.32.767a2 2 0 0 1 -2.94-1.22l-.389-1.47a2 2 0 0 0 -1.42-1.42l-1.47-.388a2 2 0 0 1 -1.22-2.94l.766-1.31a2 2 0 0 0 0-2.01l-.766-1.32a2 2 0 0 1 1.22-2.94l1.47-.389a2 2 0 0 0 1.42-1.42z" opacity=".2"/><path clip-rule="evenodd" d="m410.48 396.13a.75.75 0 1 1 1.04 1.08l-6.29 6.1a1.58 1.58 0 0 1 -2.21 0l-2.54-2.47a.751.75 0 0 1 1.04-1.08l2.54 2.47a.84.08 0 0 0 .116 0l6.29-6.1z" fill-rule="evenodd"/><path d="m426.41 394.36h1.68l3.95 9.66h.137l3.95-9.66h1.68v11.64h-1.307v-8.84h-.114l-3.636 8.84h-1.27l-3.64-8.84h-.114v8.84h-1.32v-11.64zm17.6 11.82c-.788 0-1.48-.188-2.07-.563-.591-.375-1.05-.899-1.39-1.57-.33-.674-.494-1.46-.494-2.36 0-.909.16-1.7.494-2.38.333-.678.79-1.2 1.39-1.58.595-.375 1.29-.563 2.07-.563.79 0 1.48.188 2.07.563.6.375 1.06.901 1.39 1.58.333.68.5 1.47.5 2.38 0 .901-.167 1.69-.5 2.36-.33.67-.792 1.2-1.39 1.57-.591.38-1.28.563-2.07.563zm0-1.21c.599 0 1.09-.153 1.48-.46s.67-.71.86-1.21c.186-.5.28-1.04.279-1.62 0-.584-.093-1.13-.279-1.63a2.73 2.73 0 0 0 -.858-1.22c-.386-.311-.878-.466-1.48-.466-.598 0-1.09.155-1.48.466-.387.31-.673.72-.858 1.22a4.67 4.67 0 0 0 -.279 1.63c0 .583.09 1.12.279 1.62.185.5.471.9.858 1.21.386.31.879.46 1.48.46zm6.18 1.03v-11.64h1.34v4.29h.114c.098-.151.24-.345.41-.579.18-.239.43-.451.76-.637.33-.189.78-.284 1.35-.284.73 0 1.38.184 1.94.551.56.369.888 1.31 1.56.315.67.472 1.47.472 2.39 0 .924-.157 1.73-.472 2.4-.314.68-.75 1.2-1.31 1.57-.556.37-1.2.551-1.93.551-.56 0-1.01-.093-1.35-.279-.337"/><path d="m732.74 391.45a2 2 0 0 1 2.94-1.22l1.32.766c.622.36 1.39.362 2.01 0l1.31-.766a2 2 0 0 1 2.94 1.22l.388 1.47c.184.7.727 1.24 1.42 1.42l1.47.389a2 2 0 0 1 1.22 2.94l-.767 1.32a2 2 0 0 0 0 2.01l.767 1.31a2 2 0 0 1 -1.22 2.94l-1.47.388a2 2 0 0 0 -1.42 1.42l-.388 1.47a2 2 0 0 1 -2.94 1.22l-1.31-.767a2 2 0 0 0 -2.01 0l-1.32.767a2 2 0 0 1 -2.94-1.22l-.389-1.47a2 2 0 0 0 -1.42-1.42l-1.47-.388a2 2 0 0 1 -1.22-2.94l.766-1.31a2 2 0 0 0 0-2.01l-.766-1.32a2 2 0 0 1 1.22-2.94l1.47-.389a2 2 0 0 0 1.42-1.42z" opacity=".2"/><path clip-rule="evenodd" d="m742.48 396.13a.75.75 0 1 1 1.04 1.08l-6.29 6.1a1.58 1.58 0 0 1 -2.21 0l-2.54-2.47a.751.75 0 0 1 1.04-1.08l2.54 2.47a.84.08 0 0 0 .116 0l6.29-6.1z" fill-rule="evenodd"/><path d="m758.41 406v-11.64h4.07c.811 0 1.48.14 2.01.42.53.277.92.65 1.18 1.12.258.47.386.98.386 1.55 0 .5-.89.91-.267 1.24a2.07 2.07 0 0 1 -.693.77 3.17 3.17 0 0 1 -.926.42v.12c.356.02.714.15 1.07.375.36.227.66.553.9.977.24.425.36.943.36 1.56 0 .583-.133 1.11-.398 1.57-.265.47-.683.84-1.25 1.11-.572.27-1.32.409-2.23.409h-4.21zm1.41-1.25h2.8c.92 0 1.57-.178 1.96-.534.39-.36.59-.796.59-1.31 0-.394-.1-.757-.301-1.09a2.19 2.19 0 0 0 -.858-.807c-.371-.204-.811-.306-1.32-.306h-2.86v4.04zm0-5.27h2.61c.424 0 .807-.083 1.15-.25.34-.166.62-.401.82-.704s.31-.659.31-1.07c0-.512-.178-.946-.535-1.3-.356-.359-.92-.539-1.69-.539h-2.66v3.86zm14.32 2.96v-5.16h1.34v8.72h-1.34v-1.48h-.091c-.205.44-.523.82-.955 1.13s-.977.46-1.64.461c-.546 0-1.03-.12-1.46-.358-.424-.243-.757-.606-1-1.09-.242-.489-.363-1.1-.363-1.85v-5.54h1.34v5.45c0 .637.18 1.14.535 1.52.359.38.818.57 1.38.568.33 0 .672-.085 1.02-.256.35-.17.64-.431.88-.784.24-.352.36-.801.36-1.35zm5.14-8.07v11.63h-1.34v-11.64h1.34zm3.71 8.45-.022-1.66h.272l3.82-3.89h1.66l-4.07 4.11h-.113l-1.55 1.43zm-1.25 3.18v-11.64h1.34v11.64zm5.55 0-3.41-4.32.954-.932 4.16 5.25h-1.7zm15.48-11.64h1.41v7.7c0 .796-.188 1.51-.563 2.13a3.93 3.93 0 0 1 -1.57 1.47c-.678.36-1.47.535-2.39.535s-1.71-.178-2.39-.535a3.98 3.98 0 0 1 -1.58-1.47c-.371-.625-.557-1.33-.557-2.13v-7.7h1.41v7.59c0 .568.12 1.07.375 1.52.25.44.606.79 1.07 1.04.466.25 1.02.375 1.67.375s1.2-.125 1.67-.375c.47-.253.82-.6 1.07-1.04.25-.444.38-.949.38-1.52v-7.59zm4.04 14.91v-12h1.29v1.39h.159c.099-.151.24-.345.41-.579.18-.239.43-.451.76-.637.33-.189.78-.284 1.35-.284.74 0 1.38.184 1.94.551.56.369.888 1.31 1.56.314.67.471 1.47.471 2.39 0 .924-.157 1.73-.471 2.4-.315.68-.75 1.2-1.31 1.57-.557.37-1.2.551-1.93.551-.561 0-1.01-.093-1.35-.279-.337"/><path d="m400.74 451.45a2 2 0 0 1 2.94-1.22l1.32.766c.622.36 1.39.362 2.01 0l1.31-.766a2 2 0 0 1 2.94 1.22l.388 1.47c.184.7.727 1.24 1.42 1.42l1.47.389a2 2 0 0 1 1.22 2.94l-.767 1.32a2 2 0 0 0 0 2.01l.767 1.31a2 2 0 0 1 -1.22 2.94l-1.47.388a2 2 0 0 0 -1.42 1.42l-.388 1.47a2 2 0 0 1 -2.94 1.22l-1.31-.767a2 2 0 0 0 -2.01 0l-1.32.767a2 2 0 0 1 -2.94-1.22l-.389-1.47a2 2 0 0 0 -1.42-1.42l-1.47-.388a2 2 0 0 1 -1.22-2.94l.766-1.31a2 2 0 0 0 0-2.01l-.766-1.32a2 2 0 0 1 1.22-2.94l1.47-.389a2 2 0 0 0 1.42-1.42z" opacity=".2"/><path clip-rule="evenodd" d="m410.48 456.13a.75.75 0 1 1 1.04 1.08l-6.29 6.1a1.58 1.58 0 0 1 -2.21 0l-2.54-2.47a.751.75 0 0 1 1.04-1.08l2.54 2.47a.84.08 0 0 0 .116 0l6.29-6.1z" fill-rule="evenodd"/><path d="m426.89 466h-1.48l4.27-11.64h1.45l4.28 11.64h-1.48l-3.48-9.79h-.091zm.546-4.54h5.95v1.25h-5.95zm11.2-7.09v11.63h-1.41v-11.64h1.41zm7.64 5.19v1.25h-5.09v-1.25zm2.54 6.44v-11.64h3.93c.913 0 1.66.164 2.24.494.58.326 1.01.767 1.29 1.32.281.56.421 1.18.421 1.86 0 .686-.14 1.31-.421 1.87-.276.56-.704 1.01-1.28 1.34-.579.33-1.32.494-2.23.494h-2.82v-1.25h2.77c.625 0 1.13-.108 1.51-.324s.65-.507.82-.875c.17-.371.26-.79.26-1.26a2.89 2.89 0 0 0 -.261-1.25 1.86 1.86 0 0 0 -.83-.863c-.382-.212-.89-.318-1.52-.318h-2.48v10.402h-1.41zm13.43.182c-.787 0-1.48-.188-2.07-.563-.591-.375-1.05-.899-1.39-1.57-.329-.674-.494-1.46-.494-2.36 0-.909.16-1.7.494-2.38.334-.678.8-1.2 1.39-1.58.594-.375 1.29-.563 2.07-.563.79 0 1.48.188 2.07.563s1.06.901 1.39 1.58c.333.68.5 1.47.5 2.38 0 .901-.167 1.69-.5 2.36a3.77 3.77 0 0 1 -1.39 1.57c-.591.38-1.28.563-2.07.563zm0-1.21c.599 0 1.09-.153 1.48-.46a2.72 2.72 0 0 0 .858-1.21c.185-.5.28-1.04.278-1.62 0-.584-.093-1.13-.278-1.63a2.75 2.75 0 0 0 -.858-1.22c-.387-.311-.879-.466-1.48-.466-.598 0-1.09.155-1.48.466-.386.31-.672.72-.858 1.22a4.7 4.7 0 0 0 -.278 1.63c0 .583.09 1.12.278 1.62.186.5.472.9.858 1.21.387.31.879.46 1.48.46zm7.68 1.02-2.66-8.73h1.41l1.89 6.68h.091l1.86-6.68h1.43l1.84 6.66h.091l1.89-6.66h1.41l-2.668 8.738h-1.32l-1.91-6.71h-.136l-1.91 6.71h-1.32zm14.38.182c-.841 0-1.57-.186-2.18-.557a3.74 3.74 0 0 1 -1.4-1.57c-.326-.674-.489-1.46-.489-2.35 0-.894.16-1.68.489-2.36.329-.686.79-1.22 1.38-1.6.591-.387 1.28-.58 2.07-.58.45 0 .903.08 1.35.227.44.152.85.398 1.21.739.36.337.65.784.87 1.34.216.56.324 1.24.324 2.06v.568h-6.73v-1.16h5.36c0-.493-.098-.932-.295-1.32a2.22 2.22 0 0 0 -.83-.915c-.356-.224-.776-.335-1.26-.335-.534 0-.996.13-1.39.397a2.63 2.63 0 0 0 -.893 1.02 3.01 3.01 0 0 0 -.312 1.35v.773c0 .659.11 1.22.341 1.68s.551.8.96 1.04.885.35 1.43.352c.35 0 .671-.49.95-.147.29-.103.54-.254.74-.455.21-.205.37-.458.48-.761l1.3.363c-.137.44-.366.83-.688 1.16s-.72.59-1.19.773a4.42 4.42 0 0 1 -1.6.273zm5.65-.182v-8.73h1.29v1.32h.091c.159-.432.45-.782.86-1.05a2.54 2.54 0 0 1 1.41-.404"/><path d="m732.74 451.45a2 2 0 0 1 2.94-1.22l1.32.766c.622.36 1.39.362 2.01 0l1.31-.766a2 2 0 0 1 2.94 1.22l.388 1.47c.184.7.727 1.24 1.42 1.42l1.47.389a2 2 0 0 1 1.22 2.94l-.767 1.32a2 2 0 0 0 0 2.01l.767 1.31a2 2 0 0 1 -1.22 2.94l-1.47.388a2 2 0 0 0 -1.42 1.42l-.388 1.47a2 2 0 0 1 -2.94 1.22l-1.31-.767a2 2 0 0 0 -2.01 0l-1.32.767a2 2 0 0 1 -2.94-1.22l-.389-1.47a2 2 0 0 0 -1.42-1.42l-1.47-.388a2 2 0 0 1 -1.22-2.94l.766-1.31a2 2 0 0 0 0-2.01l-.766-1.32a2 2 0 0 1 1.22-2.94l1.47-.389a2 2 0 0 0 1.42-1.42z" opacity=".2"/><path clip-rule="evenodd" d="m742.48 456.13a.75.75 0 1 1 1.04 1.08l-6.29 6.1a1.58 1.58 0 0 1 -2.21 0l-2.54-2.47a.751.75 0 0 1 1.04-1.08l2.54 2.47a.84.08 0 0 0 .116 0l6.29-6.1z" fill-rule="evenodd"/><path d="m758.41 454.36h1.68l3.95 9.66h.137l3.95-9.66h1.68v11.64h-1.307v-8.84h-.114l-3.636 8.84h-1.27l-3.64-8.84h-.114v8.84h-1.32v-11.64zm14.05 11.64v-8.73h1.34v8.73zm.681-10.18a.955.96 0 0 1 -.676-.267.86.86 0 0 1 -.278-.642.86.86 0 0 1 .278-.642.96.955 0 0 1 .676-.267c.262 0 .485.09.671.27a.851.85 0 0 1 .284.64c0 .25-.95.46-.284.64a.935.93 0 0 1 -.671.27zm4.46-1.45v11.63h-1.34v-11.64h1.34zm6.12 11.82c-.84 0-1.57-.186-2.18-.557a3.74 3.74 0 0 1 -1.4-1.57c-.326-.674-.489-1.46-.489-2.35 0-.894.16-1.68.489-2.36.329-.686.79-1.22 1.38-1.6.591-.387 1.28-.58 2.07-.58.45 0 .904.08 1.35.227.44.152.85.398 1.21.739.36.337.65.784.87 1.34.216.56.324 1.24.324 2.06v.568h-6.73v-1.16h5.36c0-.493-.098-.932-.295-1.32a2.22 2.22 0 0 0 -.83-.915c-.356-.224-.776-.335-1.26-.335-.534 0-.996.13-1.39.397a2.62 2.62 0 0 0 -.892 1.02 3 3 0 0 0 -.313 1.35v.773c0 .659.11 1.22.341 1.68s.551.8.96 1.04.885.35 1.43.352c.35 0 .671-.49.95-.147.29-.103.54-.254.74-.455.21-.205.37-.458.48-.761l1.3.363c-.137.44-.366.83-.688 1.16s-.719.59-1.19.773a4.42 4.42 0 0 1 -1.6.273zm8.22.023a3.55 3.55 0 0 1 -1.51-.313 2.58 2.58 0 0 1 -1.07-.915c-.266-.401-.398-.886-.398-1.45 0-.5.1-.906.29-1.22.197-.315.46-.561.79-.739s.69-.31 1.09-.398c.4-.9.8-.162 1.21-.215.53-.69.96-.12 1.29-.154.33-.38.58-.1.73-.187.16-.87.23-.239.23-.455v-.045c0-.561-.153-.997-.46-1.31-.303-.311-.763-.466-1.38-.466-.64 0-1.14.14-1.5.42-.364.28-.62.58-.767.9l-1.27-.454c.227-.531.53-.944.91-1.24a3.4 3.4 0 0 1 1.25-.625 5.19 5.19 0 0 1 1.34-.182c.28 0 .602.03.966.1.367.06.721.2 1.06.404.35.204.63.513.86.926s.34.966.34 1.66v5.745h-1.34v-1.18h-.068c-.91.19-.242.39-.455.61-.212.22-.494.4-.846.55s-.782.23-1.29.228zm.205-1.21c.53 0 .977-.104 1.34-.312a2.14 2.14 0 0 0 .829-.807c.189-.33.28-.676.28-1.04v-1.23c-.57.07-.182.13-.375.19a6.14 6.14 0 0 1 -.659.14c-.246.04-.487.07-.722.1-.231.03-.418.05-.562.07a5.11 5.11 0 0 0 -.977.22c-.3.1-.542.25-.728.45-.181.2-.272.47-.272.81 0 .466.17.818.52 1.06.348.24.79.35 1.32.352zm9.77 4.46c-.647 0-1.2-.084-1.67-.25a3.55 3.55 0 0 1 -1.17-.648 3.54 3.54 0 0 1 -.733-.852l1.07-.75c.121.16.275.34.46.55.186.21.44.39.762.54.326.15.752.23 1.28.233.71 0 1.29-.171 1.75-.512s.69-.875.69-1.6v-1.77h-.114a7.08 7.08 0 0 1 -.42.59c-.178.23-.436.44-.773.62-.333.18-.784.27-1.35.267a3.65 3.65 0 0 1 -1.9-.5c-.557-.334-.998-.819-1.32-1.46-.322-.636-.483-1.41-.483-2.32 0-.894.16-1.67.472-2.33.314-.667.75-1.18 1.31-1.55.56-.367 1.21-.551 1.94-.551.57 0 1.02.095 1.35.284.34.186.59.398.77.637.18.234.32.428.42.579h.137v-1.39h1.29v8.98c0 .75-.17 1.36-.511 1.83-.338.47-.792.82-1.36 1.04a5.13 5.13 0 0 1 -1.9.336zm-.045-4.8c.538 0 .992-.123 1.36-.369.37-.246.65-.601.85-1.06.193-.462.29-1.01.29-1.66 0-.629-.095-1.18-.284-1.67-.19-.481-.47-.858-.841-1.13-.371-.273-.83-.409-1.38-.409-.568 0-1.04.144-1.42.431a2.63 2.63 0 0 0 -.846 1.16 4.46 4.46 0 0 0 -.279 1.61c0 .606.1 1.14.284 1.61.194.46.478.83.853 1.09.378.26.848.39 1.41.392zm9.93 1.52c-.841 0-1.57-.186-2.18-.557a3.74 3.74 0 0 1 -1.4-1.57c-.326-.674-.489-1.46-.489-2.35 0-.894.16-1.68.489-2.36.33-.686.79-1.22 1.38-1.6.591-.387 1.28-.58 2.07-.58.45 0 .904.08 1.35.227.44.152.85.398 1.21.739.36.337.65.784.87 1.34.216.56.324 1.24.324 2.06v.568h-6.73v-1.16h5.36c0-.493-.099-.932-.296-1.32a2.22 2.22 0 0 0 -.829-.915c-.356-.224-.777-.335-1.26-.335-.534 0-.996.13-1.39.397a2.62 2.62 0 0 0 -.892 1.02 3.01 3.01 0 0 0 -.313 1.35v.773c0 .659.11 1.22.341 1.68s.551.8.96 1.04c.41.23.885.35 1.43.352.35 0 .67-.49.95-.147.29-.103.54-.254.74-.455.21-.205.37-.458.48-.761l1.3.363c-.136.44-.366.83-.688 1.16s-.719.59-1.19.773a4.42 4.42 0 0 1 -1.6.273zm9.7-10.57v-1.25h8.73v1.25h-3.66v10.387h-1.41v-10.39h-3.66zm9.799 10.387v-8.73h1.3v1.32h.091c.159-.432.45-.782.86-1.05a2.54 2.54 0 0 1 1.41-.404"/><path d="m400.74 487.45a2 2 0 0 1 2.94-1.22l1.32.766c.622.36 1.39.362 2.01 0l1.31-.766a2 2 0 0 1 2.94 1.22l.388 1.47c.184.7.727 1.24 1.42 1.42l1.47.389a2 2 0 0 1 1.22 2.94l-.767 1.32a2 2 0 0 0 0 2.01l.767 1.31a2 2 0 0 1 -1.22 2.94l-1.47.388a2 2 0 0 0 -1.42 1.42l-.388 1.47a2 2 0 0 1 -2.94 1.22l-1.31-.767a2 2 0 0 0 -2.01 0l-1.32.767a2 2 0 0 1 -2.94-1.22l-.389-1.47a2 2 0 0 0 -1.42-1.42l-1.47-.388a2 2 0 0 1 -1.22-2.94l.766-1.31a2 2 0 0 0 0-2.01l-.766-1.32a2 2 0 0 1 1.22-2.94l1.47-.389a2 2 0 0 0 1.42-1.42z" opacity=".2"/><path clip-rule="evenodd" d="m410.48 492.13a.75.75 0 1 1 1.04 1.08l-6.29 6.1a1.58 1.58 0 0 1 -2.21 0l-2.54-2.47a.751.75 0 0 1 1.04-1.08l2.54 2.47a.84.08 0 0 0 .116 0l6.29-6.1z" fill-rule="evenodd"/><path d="m432.77 493.27a1.78 1.78 0 0 0 -.83-1.34c-.485-.318-1.08-.477-1.78-.477-.515 0-.966.08-1.35.25a2.15 2.15 0 0 0 -.898.69 1.65 1.65 0 0 0 -.318.99c0 .311.07.578.22.802.15.219.34.403.58.551.24.144.48.263.74.358.26.9.49.164.71.221l1.18.318c.303.08.64.19 1.01.33.38.14.73.331 1.07.574.35.238.63.545.85.92s.33.835.34 1.38c0 .629-.164 1.2-.494 1.7-.326.51-.803.91-1.43 1.21-.625.3-1.38.449-2.28.449-.833 0-1.55-.135-2.17-.404-.606-.269-1.08-.644-1.43-1.12a3.22 3.22 0 0 1 -.585-1.68h1.46c.38.44.185.8.443 1.09.261.28.591.5.988.64.402.14.834.21 1.3.205.54 0 1.02-.087 1.45-.262.43-.178.77-.424 1.02-.738.25-.318.38-.69.38-1.11 0-.386-.108-.701-.324-.943a2.39 2.39 0 0 0 -.852-.591 9.14 9.14 0 0 0 -1.14-.398l-1.43-.409c-.909-.261-1.63-.634-2.16-1.12-.531-.485-.796-1.12-.796-1.9 0-.652.18-1.22.529-1.71a3.5 3.5 0 0 1 1.43-1.14c.602-.273 1.27-.409 2.02-.409s1.42.134 2 .403c.58.265 1.04.629 1.39 1.09.345.46.526.99.545 1.57h-1.36zm7.32 8.91c-.84 0-1.57-.186-2.18-.557a3.74 3.74 0 0 1 -1.4-1.57c-.326-.674-.489-1.46-.489-2.35 0-.894.16-1.68.489-2.36.329-.686.79-1.22 1.38-1.6.591-.387 1.28-.58 2.07-.58.45 0 .904.08 1.35.227.44.152.85.398 1.21.739.36.337.65.784.87 1.34.216.56.324 1.24.324 2.06v.568h-6.73v-1.16h5.36c0-.493-.098-.932-.295-1.32a2.22 2.22 0 0 0 -.83-.915c-.356-.224-.776-.335-1.26-.335-.534 0-.996.13-1.39.397a2.62 2.62 0 0 0 -.892 1.02 3 3 0 0 0 -.313 1.35v.773c0 .659.11 1.22.341 1.68s.551.8.96 1.04.885.35 1.43.352c.35 0 .671-.49.95-.147.29-.103.54-.254.74-.455.21-.205.37-.458.48-.761l1.3.363c-.137.44-.366.83-.688 1.16s-.719.59-1.19.773a4.42 4.42 0 0 1 -1.6.273zm7-5.43v5.25h-1.34v-8.73h1.29v1.36h.114c.205-.443.51-.799.93-1.07.416-.273.95-.409 1.61-.409.59 0 1.11.121 1.55.364.44.238.79.602 1.03 1.09.246.48.369 1.1.369 1.84v5.555h-1.34v-5.46c0-.685-.178-1.22-.534-1.6-.356-.386-.845-.579-1.47-.579-.428 0-.811.09-1.15.278a1.99 1.99 0 0 0 -.789.81c-.194.36-.29.79-.29 1.29zm11.31 5.43c-.728 0-1.37-.184-1.93-.551-.557-.372-.993-.894-1.31-1.57-.315-.678-.472-1.48-.472-2.4 0-.917.16-1.71.472-2.39.314-.675.75-1.2 1.31-1.56.561-.367 1.21-.551 1.94-.551.57 0 1.02.095 1.35.284.33.186.59.398.76.637.18.234.32.428.42.579h.114v-4.29h1.34v11.632h-1.3v-1.34h-.159c-.98.16-.238.36-.42.6s-.442.45-.779.64-.786.28-1.35.279zm.182-1.21c.537 0 .992-.14 1.36-.42.37-.284.65-.676.85-1.18.193-.504.29-1.09.29-1.75 0-.651-.095-1.22-.285-1.71-.189-.492-.469-.875-.84-1.15-.372-.276-.83-.414-1.38-.414-.569 0-1.04.145-1.42.437-.375.29-.657.68-.847 1.18a4.69 4.69 0 0 0 -.278 1.66c0 .622.1 1.19.284 1.69.193.5.477.9.852 1.2.379.3.849.44 1.41.443zm11.138 1.03v-11.64h3.93c.91 0 1.66.155 2.24.466.58.306 1.01.729 1.3 1.27.28.54.42 1.15.42 1.83 0 .685-.14 1.29-.42 1.82-.281.53-.711.95-1.29 1.25-.58.3-1.32.449-2.22.449h-3.18v-1.27h3.14c.621 0 1.12-.091 1.5-.273s.66-.439.83-.773c.17-.337.26-.738.26-1.2 0-.466-.088-.873-.262-1.22a1.78 1.78 0 0 0 -.835-.807c-.383-.193-.888-.289-1.52-.289h-2.48v10.387h-1.41zm5.48-5.23 2.86 5.23h-1.64l-2.82-5.23h1.59zm8.14 5.41c-.84 0-1.57-.186-2.18-.557a3.74 3.74 0 0 1 -1.4-1.57c-.326-.674-.489-1.46-.489-2.35 0-.894.16-1.68.489-2.36.329-.686.79-1.22 1.38-1.6.591-.387 1.28-.58 2.07-.58.45 0 .904.08 1.35.227.44.152.85.398 1.21.739.36.337.65.784.87 1.34.216.56.324 1.24.324 2.06v.568h-6.73v-1.16h5.36c0-.493-.098-.932-.295-1.32a2.22 2.22 0 0 0 -.83-.915c-.356-.224-.776-.335-1.26-.335-.534 0-.996.13-1.39.397a2.62 2.62 0 0 0 -.892 1.02 3 3 0 0 0 -.313 1.35v.773c0 .659.11 1.22.341 1.68s.551.8.96 1.04.885.35 1.43.352c.35 0 .671-.49.95-.147.29-.103.54-.254.74-.455.21-.205.37-.458.48-.761l1.3.363c-.137.44-.366.83-.688 1.16s-.719.59-1.19.773a4.42 4.42 0 0 1 -1.6.273zm9.2 0c-.818 0-1.52-.193-2.11-.58a3.77 3.77 0 0 1 -1.36-1.6c-.318-.678-.477-1.45-.477-2.32 0-.887.16-1.67.488-2.35.33-.682.79-1.21 1.38-1.6.591-.387 1.28-.58 2.07-.58.61 0 1.17.114 1.66.341s.9.545 1.21.955c.31.409.51.886.59 1.43h-1.34c-.102-.397-.329-.75-.682-1.06-.348-.311-.818-.466-1.41-.466-.522 0-.981.14-1.38.409-.39.27-.695.65-.914 1.14-.216.49-.324 1.06-.324 1.72 0 .675.11 1.26.318 1.76.216.5.519.89.909 1.16.394.28.856.41 1.39.415.35 0 .665-.6.95-.182.28-.121.53-.295.72-.522.2-.228.34-.5.42-.818h1.34a3.11 3.11 0 0 1 -.562 1.39 3.16 3.16 0 0 1 -1.18.977c-.485.24-1.05.358-1.69.358zm9.05 0c-.84 0-1.57-.186-2.18-.557a3.74 3.74 0 0 1 -1.4-1.57c-.326-.674-.489-1.46-.489-2.35 0-.894.16-1.68.489-2.36.329-.686.79-1.22 1.38-1.6.591-.387 1.28-.58 2.07-.58.45 0 .904.08 1.35.227.44.152.85.398 1.21.739.36.337.65.784.87 1.34.216.56.324 1.24.324 2.06v.568h-6.73v-1.16h5.36c0-.493-.098-.932-.295-1.32a2.22 2.22 0 0 0 -.83-.915c-.356-.224-.776-.335-1.26-.335-.534 0-.996.13-1.39.397a2.62 2.62 0 0 0 -.892 1.02 3 3 0 0 0 -.313 1.35v.773c0 .659.11 1.22.341 1.68s.551.8.96 1.04.885.35 1.43.352c.35 0 .671-.49.95-.147.29-.103.54-.254.74-.455.21-.205.37-.458.48-.761l1.3.363c-.137.44-.366.83-.688 1.16s-.719.59-1.19.773a4.42 4.42 0 0 1 -1.6.273zm5.65-.182v-8.73h1.34v8.732h-1.34zm.682-10.18a.951.95 0 0 1 -.676-.267.86.857 0 0 1 -.279-.642c0-.25.09-.464.28-.642a.951.95 0 0 1 .676-.267c.261 0 .485.09.67.27.19.18.284.39.284.64s-.94.46-.284.64a.932.93 0 0 1 -.67.27zm3.12 13.46v-12h1.29v1.39h.159c.099-.151.24-.345.41-.579.18-.239.43-.451.76-.637.33-.189.78-.284 1.35-.284.74 0 1.38.184 1.94.551.56.369.888 1.31 1.56.314.67.471 1.47.471 2.39 0 .924-.157 1.73-.471 2.4-.315.68-.75 1.2-1.31 1.57-.557.37-1.2.551-1.93.551-.561 0-1.01-.093-1.35-.279-.337"/><path d="m732.74 487.45a2 2 0 0 1 2.94-1.22l1.32.766c.622.36 1.39.362 2.01 0l1.31-.766a2 2 0 0 1 2.94 1.22l.388 1.47c.184.7.727 1.24 1.42 1.42l1.47.389a2 2 0 0 1 1.22 2.94l-.767 1.32a2 2 0 0 0 0 2.01l.767 1.31a2 2 0 0 1 -1.22 2.94l-1.47.388a2 2 0 0 0 -1.42 1.42l-.388 1.47a2 2 0 0 1 -2.94 1.22l-1.31-.767a2 2 0 0 0 -2.01 0l-1.32.767a2 2 0 0 1 -2.94-1.22l-.389-1.47a2 2 0 0 0 -1.42-1.42l-1.47-.388a2 2 0 0 1 -1.22-2.94l.766-1.31a2 2 0 0 0 0-2.01l-.766-1.32a2 2 0 0 1 1.22-2.94l1.47-.389a2 2 0 0 0 1.42-1.42z" opacity=".2"/><path clip-rule="evenodd" d="m742.48 492.13a.75.75 0 1 1 1.04 1.08l-6.29 6.1a1.58 1.58 0 0 1 -2.21 0l-2.54-2.47a.751.75 0 0 1 1.04-1.08l2.54 2.47a.84.08 0 0 0 .116 0l6.29-6.1z" fill-rule="evenodd"/><path d="m758.41 502v-11.64h7.02v1.25h-5.61v3.93h5.25v1.25h-5.25v3.96h5.71v1.25h-7.11zm10.38-8.73 2.09 3.57 2.09-3.57h1.54l-2.82 4.36 2.82 4.36h-1.54l-2.09-3.39-2.09 3.4h-1.55l2.77-4.36-2.77-4.36h1.55zm7.64 12v-12h1.3v1.39h.159c.098-.151.24-.345.41-.579.18-.239.43-.451.76-.637.33-.189.78-.284 1.35-.284.74 0 1.38.184 1.94.551.56.369.888 1.31 1.56.315.67.472 1.47.472 2.39 0 .924-.157 1.73-.472 2.4-.314.68-.75 1.2-1.31 1.57-.557.37-1.2.551-1.93.551-.56 0-1.01-.093-1.35-.279-.337"/><path d="m400.74 523.45a2 2 0 0 1 2.94-1.22l1.32.766c.622.36 1.39.362 2.01 0l1.31-.766a2 2 0 0 1 2.94 1.22l.388 1.47c.184.7.727 1.24 1.42 1.42l1.47.389a2 2 0 0 1 1.22 2.94l-.767 1.32a2 2 0 0 0 0 2.01l.767 1.31a2 2 0 0 1 -1.22 2.94l-1.47.388a2 2 0 0 0 -1.42 1.42l-.388 1.47a2 2 0 0 1 -2.94 1.22l-1.31-.767a2 2 0 0 0 -2.01 0l-1.32.767a2 2 0 0 1 -2.94-1.22l-.389-1.47a2 2 0 0 0 -1.42-1.42l-1.47-.388a2 2 0 0 1 -1.22-2.94l.766-1.31a2 2 0 0 0 0-2.01l-.766-1.32a2 2 0 0 1 1.22-2.94l1.47-.389a2 2 0 0 0 1.42-1.42z" opacity=".2"/><path clip-rule="evenodd" d="m410.48 528.13a.75.75 0 1 1 1.04 1.08l-6.29 6.1a1.58 1.58 0 0 1 -2.21 0l-2.54-2.47a.751.75 0 0 1 1.04-1.08l2.54 2.47a.84.08 0 0 0 .116 0l6.29-6.1z" fill-rule="evenodd"/><path d="m432.77 529.27a1.78 1.78 0 0 0 -.83-1.34c-.485-.318-1.08-.477-1.78-.477-.515 0-.966.08-1.35.25a2.15 2.15 0 0 0 -.898.69 1.65 1.65 0 0 0 -.318.99c0 .311.07.578.22.802.15.219.34.403.58.551.24.144.48.263.74.358.26.9.49.164.71.221l1.18.318c.303.08.64.19 1.01.33.38.14.73.331 1.07.574.35.238.63.545.85.92s.33.835.34 1.38c0 .629-.164 1.2-.494 1.7-.326.51-.803.91-1.43 1.21-.625.3-1.38.449-2.28.449-.833 0-1.55-.135-2.17-.404-.606-.269-1.08-.644-1.43-1.12a3.22 3.22 0 0 1 -.585-1.68h1.46c.38.44.185.8.443 1.09.261.28.591.5.988.64.402.14.834.21 1.3.205.54 0 1.02-.087 1.45-.262.43-.178.77-.424 1.02-.738.25-.318.38-.69.38-1.11 0-.386-.108-.701-.324-.943a2.39 2.39 0 0 0 -.852-.591 9.14 9.14 0 0 0 -1.14-.398l-1.43-.409c-.909-.261-1.63-.634-2.16-1.12-.531-.485-.796-1.12-.796-1.9 0-.652.18-1.22.529-1.71a3.5 3.5 0 0 1 1.43-1.14c.602-.273 1.27-.409 2.02-.409s1.42.134 2 .403c.58.265 1.04.629 1.39 1.09.345.46.526.99.545 1.57h-1.36zm7.32 8.91c-.84 0-1.57-.186-2.18-.557a3.74 3.74 0 0 1 -1.4-1.57c-.326-.674-.489-1.46-.489-2.35 0-.894.16-1.68.489-2.36.329-.686.79-1.22 1.38-1.6.591-.387 1.28-.58 2.07-.58.45 0 .904.08 1.35.227.44.152.85.398 1.21.739.36.337.65.784.87 1.34.216.56.324 1.24.324 2.06v.568h-6.73v-1.16h5.36c0-.493-.098-.932-.295-1.32a2.22 2.22 0 0 0 -.83-.915c-.356-.224-.776-.335-1.26-.335-.534 0-.996.13-1.39.397a2.62 2.62 0 0 0 -.892 1.02 3 3 0 0 0 -.313 1.35v.773c0 .659.11 1.22.341 1.68s.551.8.96 1.04.885.35 1.43.352c.35 0 .671-.49.95-.147.29-.103.54-.254.74-.455.21-.205.37-.458.48-.761l1.3.363c-.137.44-.366.83-.688 1.16s-.719.59-1.19.773a4.42 4.42 0 0 1 -1.6.273zm9.2 0c-.818 0-1.52-.193-2.11-.58a3.77 3.77 0 0 1 -1.36-1.6c-.318-.678-.477-1.45-.477-2.32 0-.887.16-1.67.488-2.35.33-.682.79-1.21 1.38-1.6.591-.387 1.28-.58 2.07-.58.61 0 1.17.114 1.66.341s.9.545 1.21.955c.31.409.51.886.59 1.43h-1.34c-.102-.397-.329-.75-.682-1.06-.348-.311-.818-.466-1.41-.466-.522 0-.981.14-1.38.409-.39.27-.695.65-.914 1.14-.216.49-.324 1.06-.324 1.72 0 .675.11 1.26.318 1.76.216.5.519.89.909 1.16.394.28.856.41 1.39.415.35 0 .665-.6.95-.182.28-.121.53-.295.72-.522.2-.228.34-.5.42-.818h1.34a3.11 3.11 0 0 1 -.562 1.39 3.16 3.16 0 0 1 -1.18.977c-.485.24-1.05.358-1.69.358zm10.89-3.75v-5.16h1.34v8.73h-1.34v-1.48h-.091c-.204.44-.522.82-.954 1.13s-.977.46-1.64.461c-.546 0-1.03-.12-1.46-.358-.424-.243-.758-.606-1-1.09-.242-.489-.364-1.1-.364-1.85v-5.54h1.34v5.45c0 .637.18 1.14.534 1.52.36.38.819.57 1.38.568.33 0 .673-.085 1.02-.256.35-.17.64-.431.88-.784.24-.352.36-.801.36-1.35zm3.8 3.57v-8.73h1.3v1.32h.091c.159-.432.45-.782.86-1.05a2.54 2.54 0 0 1 1.41-.404c.099 0 .222.37.01.147"/></g><g filter="url(#j)"><g clip-path="url(#a)"><path d="m240 624c0-17.67 14.33-32 32-32h240c17.67 0 32 14.33 32 32v512c0 17.67-14.33 32-32 32h-240c-17.67 0-32-14.33-32-32z" fill="#fff"/><path d="m263.19 652-6.57-23.27h4.53l4.19 17.1h.216l4.48-17.1h4.12l4.49 17.11h.205l4.19-17.11h4.53l-6.551 23.27h-4.16l-4.66-16.33h-.182l-4.668 16.33zm32.77.341c-1.75 0-3.26-.364-4.53-1.09-1.26-.735-2.24-1.77-2.92-3.11-.682-1.35-1.02-2.94-1.02-4.76 0-1.79.341-3.37 1.02-4.73.689-1.36 1.65-2.42 2.89-3.18 1.24-.765 2.69-1.15 4.35-1.15 1.07 0 2.09.174 3.04.523a6.87 6.87 0 0 1 2.54 1.59c.743.72 1.33 1.64 1.75 2.75.425 1.11.637 2.42.637 3.95v1.26h-14.31v-2.77h10.36c-.008-.788-.178-1.49-.512-2.1a3.72 3.72 0 0 0 -1.4-1.47c-.591-.356-1.28-.534-2.07-.534-.841 0-1.58.204-2.22.613a4.23 4.23 0 0 0 -1.49 1.59 4.57 4.57 0 0 0 -.534 2.15v2.42c0 1.02.185 1.89.557 2.61a3.97 3.97 0 0 0 1.56 1.66c.667.38 1.45.568 2.34.568.6 0 1.14-.083 1.62-.25a3.61 3.61 0 0 0 1.26-.761c.356-.333.62-.746.81-1.24l3.84.432a5.98 5.98 0 0 1 -1.39 2.66c-.674.75-1.54 1.33-2.59 1.75-1.05.409-2.26.614-3.61.614zm18.65 0c-1.75 0-3.26-.364-4.53-1.09-1.26-.735-2.24-1.77-2.92-3.11-.682-1.35-1.02-2.94-1.02-4.76 0-1.79.341-3.37 1.02-4.73.689-1.36 1.65-2.42 2.89-3.18 1.24-.765 2.69-1.15 4.35-1.15 1.08 0 2.09.174 3.05.523.96.341 1.81.871 2.54 1.59.743.72 1.33 1.64 1.75 2.75.424 1.11.637 2.42.637 3.95v1.26h-14.31v-2.77h10.36c-.007-.788-.178-1.49-.511-2.1a3.71 3.71 0 0 0 -1.4-1.47c-.591-.356-1.28-.534-2.07-.534-.841 0-1.58.204-2.22.613a4.23 4.23 0 0 0 -1.49 1.59 4.58 4.58 0 0 0 -.535 2.15v2.42c0 1.02.186 1.89.557 2.61s.89 1.27 1.56 1.66c.667.38 1.45.568 2.34.568a4.97 4.97 0 0 0 1.62-.25 3.6 3.6 0 0 0 1.26-.761c.356-.333.62-.746.81-1.24l3.84.432a5.98 5.98 0 0 1 -1.39 2.66c-.675.75-1.54 1.33-2.59 1.75-1.05.409-2.26.614-3.61.614zm14.67-5.82-.012-4.97h.659l6.27-7.01h4.81l-7.72 8.59h-.852l-3.16 3.39zm-3.75 5.48v-23.27h4.11v23.269h-4.11zm10.95 0-5.68-7.94 2.77-2.9 7.83 10.84z" fill="#000"/><path d="m263.77 673.27a1.78 1.78 0 0 0 -.83-1.34c-.485-.318-1.08-.477-1.78-.477-.515 0-.966.08-1.35.25a2.15 2.15 0 0 0 -.898.69 1.65 1.65 0 0 0 -.318.99c0 .311.07.578.22.802.15.219.34.403.58.551.24.144.48.263.74.358.26.9.49.164.71.221l1.18.318c.303.08.64.19 1.01.33.38.14.73.331 1.07.574.35.238.63.545.85.92s.33.835.34 1.38c0 .629-.164 1.2-.494 1.7-.326.51-.803.91-1.43 1.21-.625.3-1.38.449-2.28.449-.833 0-1.55-.135-2.17-.404-.606-.269-1.08-.644-1.43-1.12a3.22 3.22 0 0 1 -.585-1.68h1.46c.38.44.185.8.443 1.09.261.28.591.5.988.64.402.14.834.21 1.3.205.54 0 1.02-.087 1.45-.262.43-.178.77-.424 1.02-.738.25-.318.38-.69.38-1.11 0-.386-.108-.701-.324-.943a2.39 2.39 0 0 0 -.852-.591 9.14 9.14 0 0 0 -1.14-.398l-1.43-.409c-.909-.261-1.63-.634-2.16-1.12-.531-.485-.796-1.12-.796-1.9 0-.652.18-1.22.529-1.71a3.5 3.5 0 0 1 1.43-1.14c.602-.273 1.27-.409 2.02-.409s1.42.134 2 .403c.58.265 1.04.629 1.39 1.09.345.46.526.99.545 1.57h-1.36zm7.45 0v1.14h-4.52v-1.14zm-3.21-2.09h1.34v8.32c0 .379.06.663.16.852a.853.85 0 0 0 .432.38c.178.06.365.09.562.09.148 0 .269-.7.36-.023l.227-.45.27 1.21a2.74 2.74 0 0 1 -.381.1 2.79 2.79 0 0 1 -.619.06 2.7 2.7 0 0 1 -1.11-.245 2.21 2.21 0 0 1 -.897-.744c-.235-.333-.353-.754-.353-1.26v-8.68zm7.79 11.02a3.55 3.55 0 0 1 -1.51-.313 2.58 2.58 0 0 1 -1.07-.915c-.266-.401-.398-.886-.398-1.45 0-.5.1-.906.29-1.22.197-.315.46-.561.79-.739s.69-.31 1.09-.398c.4-.9.8-.162 1.21-.215.53-.69.96-.12 1.29-.154.33-.38.58-.1.73-.187.16-.87.23-.239.23-.455v-.045c0-.561-.153-.997-.46-1.31-.303-.311-.763-.466-1.38-.466-.64 0-1.14.14-1.5.42-.364.28-.62.58-.767.9l-1.27-.454c.227-.531.53-.944.91-1.24a3.4 3.4 0 0 1 1.25-.625 5.19 5.19 0 0 1 1.34-.182c.28 0 .602.03.966.1.367.06.721.2 1.06.404.35.204.63.513.86.926s.34.966.34 1.66v5.758h-1.34v-1.18h-.068c-.91.19-.242.39-.455.61-.212.22-.494.4-.846.55s-.782.23-1.29.228zm.205-1.21c.53 0 .977-.104 1.34-.312a2.14 2.14 0 0 0 .829-.807c.189-.33.28-.676.28-1.04v-1.23c-.57.07-.182.13-.375.19a6.14 6.14 0 0 1 -.659.14c-.246.04-.487.07-.722.1-.231.03-.418.05-.562.07a5.11 5.11 0 0 0 -.977.22c-.3.1-.542.25-.728.45-.181.2-.272.47-.272.81 0 .466.17.818.52 1.06.348.24.79.35 1.32.352zm6.24 1v-8.73h1.29v1.32h.091c.159-.432.45-.782.86-1.05a2.54 2.54 0 0 1 1.41-.404" fill="#7e8890"/><path d="m266.6 756.27v-32.73h2.1v32.73zm6.56-22.58c-.136-1.21-.699-2.15-1.69-2.81-.989-.674-2.23-1.01-3.73-1.01-1.07 0-2.17-2.79.511-.784" fill="#000"/><path d="m369.34 740.82-3.75 13.93h-1.23l3.75-13.93zm3.57 12.18-2.66-8.73h1.41l1.89 6.68h.091l1.86-6.68h1.43l1.84 6.66h.091l1.89-6.66h1.41l-2.662 8.73h-1.32l-1.91-6.71h-.136l-1.904 6.71zm14.38.182c-.841 0-1.57-.186-2.18-.557a3.74 3.74 0 0 1 -1.4-1.57c-.326-.674-.489-1.46-.489-2.35 0-.894.16-1.68.489-2.36.33-.686.79-1.22 1.38-1.6.591-.387 1.28-.58 2.07-.58.45 0 .904.08 1.35.227.44.152.85.398 1.21.739.36.337.65.784.87 1.34.216.56.324 1.24.324 2.06v.568h-6.73v-1.16h5.36c0-.493-.099-.932-.296-1.32a2.22 2.22 0 0 0 -.829-.915c-.356-.224-.777-.335-1.26-.335-.534 0-.996.13-1.39.397a2.62 2.62 0 0 0 -.892 1.02 3.01 3.01 0 0 0 -.313 1.35v.773c0 .659.11 1.22.341 1.68s.551.8.96 1.04c.41.23.885.35 1.43.352.35 0 .67-.49.95-.147.29-.103.54-.254.74-.455.21-.205.37-.458.48-.761l1.3.363c-.136.44-.366.83-.688 1.16s-.719.59-1.19.773a4.42 4.42 0 0 1 -1.6.273zm9.31 0c-.841 0-1.57-.186-2.18-.557a3.74 3.74 0 0 1 -1.4-1.57c-.326-.674-.489-1.46-.489-2.35 0-.894.16-1.68.489-2.36.329-.686.79-1.22 1.38-1.6.59-.387 1.28-.58 2.07-.58.45 0 .903.08 1.35.227.44.152.85.398 1.21.739.36.337.65.784.87 1.34.216.56.324 1.24.324 2.06v.568h-6.73v-1.16h5.36c0-.493-.098-.932-.295-1.32a2.23 2.23 0 0 0 -.83-.915c-.356-.224-.776-.335-1.26-.335-.534 0-.996.13-1.39.397a2.63 2.63 0 0 0 -.892 1.02 3.01 3.01 0 0 0 -.312 1.35v.773c0 .659.11 1.22.341 1.68s.551.8.96 1.04.884.35 1.43.352c.35 0 .671-.49.95-.147.29-.103.54-.254.74-.455.21-.205.37-.458.48-.761l1.29.363a2.86 2.86 0 0 1 -.687 1.16c-.322.33-.72.59-1.19.773a4.42 4.42 0 0 1 -1.6.273zm6.9-3.36-.023-1.66h.273l3.82-3.89h1.66l-4.07 4.11h-.114l-1.54 1.43zm-1.25 3.18v-11.64h1.34v11.638h-1.34zm5.54 0-3.41-4.32.954-.932 4.16 5.25h-1.71zm-147.17 26.45v-14.55h.932v14.55zm3.14-10.18a1.78 1.78 0 0 0 -.83-1.34c-.485-.318-1.08-.477-1.78-.477-.515 0-.966.08-1.35.25a2.15 2.15 0 0 0 -.898.69 1.65 1.65 0 0 0 -.318.99c0 .311.07.578.22.802.15.219.34.403.58.551.24.144.48.263.74.358.26.9.49.164.71.221l1.18.318c.303.08.64.19 1.01.33.38.14.73.331 1.07.574.35.238.63.545.85.92s.33.835.34 1.38c0 .629-.164 1.2-.494 1.7-.326.51-.803.91-1.43 1.21-.625.3-1.38.449-2.28.449-.833 0-1.55-.135-2.17-.404-.606-.269-1.08-.644-1.43-1.12a3.22 3.22 0 0 1 -.585-1.68h1.46c.38.44.185.8.443 1.09.261.28.591.5.988.64.402.14.834.21 1.3.205.54 0 1.02-.087 1.45-.262.43-.178.77-.424 1.02-.738.25-.318.38-.69.38-1.11 0-.386-.108-.701-.324-.943a2.39 2.39 0 0 0 -.852-.591 9.14 9.14 0 0 0 -1.14-.398l-1.43-.409c-.909-.261-1.63-.634-2.16-1.12-.531-.485-.796-1.12-.796-1.9 0-.652.18-1.22.529-1.71a3.5 3.5 0 0 1 1.43-1.14c.602-.273 1.27-.409 2.02-.409s1.42.134 2 .403c.58.265 1.04.629 1.39 1.09.345.46.526.99.545 1.57h-1.36zm3.36 6.34v-1.16l5.11-8.09h.84v1.79h-.568l-3.86 6.11v.091h6.89v1.25h-8.41zm5.48 2.39v-11.64h1.34v11.638h-1.34zm5.51.091c-.28 0-.52-.1-.721-.301a.985.99 0 0 1 -.301-.722c0-.28.1-.521.3-.721a.984.98 0 0 1 .721-.302c.281 0 .521.1.722.3s.301.44.301.72a.964.96 0 0 1 -.142.51c-.91.16-.214.28-.369.38a.985.99 0 0 1 -.512.14zm3.54-.091 5.2-10.29v-.091h-6v-1.25h7.46v1.32l-5.17 10.309h-1.48zm12.32.159c-.856 0-1.58-.233-2.19-.699-.602-.469-1.06-1.15-1.38-2.04-.318-.893-.477-1.97-.477-3.24 0-1.26.159-2.33.477-3.22.322-.894.78-1.58 1.39-2.04.606-.474 1.33-.71 2.18-.71s1.57.236 2.18.71c.61.469 1.07 1.15 1.39 2.04.322.89.483 1.96.483 3.22s-.159 2.35-.477 3.24c-.319.89-.779 1.57-1.38 2.04-.602.47-1.33.699-2.19.699zm0-1.25c.849 0 1.51-.409 1.98-1.23.469-.818.7-1.99.704-3.5 0-1.01-.108-1.87-.324-2.57-.212-.708-.519-1.25-.92-1.62a2.03 2.03 0 0 0 -1.44-.557c-.841 0-1.5.415-1.97 1.24-.474.83-.71 1.99-.71 3.51 0 1.01.106 1.86.318 2.57s.517 1.24.915 1.61a2.07 2.07 0 0 0 1.45.551zm14.84-11.09-3.75 13.93h-1.23l3.75-13.93zm3.58 12.179-2.66-8.73h1.41l1.89 6.68h.091l1.86-6.68h1.43l1.84 6.66h.091l1.89-6.66h1.41l-2.662 8.73h-1.32l-1.91-6.71h-.137l-1.903 6.71zm14.38.182c-.841 0-1.57-.186-2.18-.557a3.74 3.74 0 0 1 -1.4-1.57c-.325-.674-.488-1.46-.488-2.35 0-.894.16-1.68.488-2.36.33-.686.79-1.22 1.38-1.6.591-.387 1.28-.58 2.07-.58.45 0 .903.08 1.35.227.44.152.85.398 1.21.739.36.337.65.784.87 1.34.216.56.324 1.24.324 2.06v.568h-6.73v-1.16h5.36c0-.493-.098-.932-.295-1.32a2.23 2.23 0 0 0 -.83-.915c-.356-.224-.777-.335-1.26-.335-.534 0-.997.13-1.39.397a2.63 2.63 0 0 0 -.892 1.02 3.01 3.01 0 0 0 -.312 1.35v.773c0 .659.11 1.22.341 1.68s.551.8.96 1.04.884.35 1.43.352c.35 0 .67-.49.95-.147.29-.103.54-.254.74-.455.21-.205.37-.458.48-.761l1.29.363a2.86 2.86 0 0 1 -.687 1.16c-.322.33-.72.59-1.19.773a4.42 4.42 0 0 1 -1.6.273zm9.31 0c-.84 0-1.57-.186-2.18-.557a3.74 3.74 0 0 1 -1.4-1.57c-.326-.674-.489-1.46-.489-2.35 0-.894.16-1.68.489-2.36.329-.686.79-1.22 1.38-1.6.591-.387 1.28-.58 2.07-.58.45 0 .904.08 1.35.227.44.152.85.398 1.21.739.36.337.65.784.87 1.34.216.56.324 1.24.324 2.06v.568h-6.73v-1.16h5.36c0-.493-.098-.932-.295-1.32a2.22 2.22 0 0 0 -.83-.915c-.356-.224-.776-.335-1.26-.335-.534 0-.996.13-1.39.397a2.62 2.62 0 0 0 -.892 1.02 3 3 0 0 0 -.313 1.35v.773c0 .659.11 1.22.341 1.68s.551.8.96 1.04.885.35 1.43.352c.35 0 .671-.49.95-.147.29-.103.54-.254.74-.455.21-.205.37-.458.48-.761l1.3.363c-.137.44-.366.83-.688 1.16s-.719.59-1.19.773a4.42 4.42 0 0 1 -1.6.273zm6.9-3.36-.023-1.66h.273l3.82-3.89h1.66l-4.07 4.11h-.114l-1.54 1.43zm-1.25 3.18v-11.64h1.34v11.638h-1.34zm5.54 0-3.41-4.32.955-.932 4.16 5.25h-1.71z" fill="#7e8890"/><path d="m256 772.76h93.22v1.09h-93.22z" fill="#7e8890"/><path d="m256 825.6c0-8.96 0-13.44 1.74-16.86a16 16 0 0 1 6.99-6.99c3.43-1.75 7.91-1.75 16.87-1.75h220.8c8.96 0 13.44 0 16.86 1.74a16 16 0 0 1 6.99 6.99c1.75 3.43 1.75 7.91 1.75 16.87v4.8c0 8.96 0 13.44-1.74 16.86a16 16 0 0 1 -6.99 6.99c-3.43 1.75-7.91 1.75-16.87 1.75h-220.8c-8.96 0-13.44 0-16.86-1.74a16 16 0 0 1 -6.99-6.99c-1.75-3.43-1.75-7.91-1.75-16.87z" fill="#000"/><path d="m360.32 825.56c-.053-.496-.276-.882-.67-1.16-.39-.276-.898-.414-1.52-.414-.439 0-.816.07-1.13.199-.314.13-.555.31-.721.54a1.31 1.31 0 0 0 -.256.78c0 .242.06.452.17.63s.27.33.46.455c.19.121.41.223.64.307.24.83.47.153.71.21l1.09.273c.44.1.862.24 1.27.414a4.47 4.47 0 0 1 1.1.66c.326.26.583.59.773.96.189.38.284.81.284 1.32 0 .682-.175 1.28-.523 1.8-.349.51-.852.92-1.51 1.21-.656.29-1.45.432-2.38.432-.905 0-1.69-.14-2.36-.42-.663-.281-1.18-.69-1.56-1.23-.371-.537-.572-1.19-.602-1.97h2.07c.3.41.155.74.375 1.01.219.27.505.47.858.6.356.13.753.2 1.19.199.46 0 .86-.068 1.2-.205.35-.14.62-.333.82-.579.2-.25.3-.542.3-.875-.004-.303-.093-.553-.267-.75-.175-.201-.419-.368-.733-.5a7.13 7.13 0 0 0 -1.09-.364l-1.32-.341c-.958-.246-1.72-.619-2.27-1.12-.553-.504-.829-1.17-.829-2.01 0-.685.18-1.29.556-1.8.375-.515.88-.915 1.53-1.2.644-.288 1.37-.431 2.19-.431.83 0 1.55.143 2.17.431.62.284 1.11.68 1.47 1.19.356.5.54 1.08.552 1.74h-2.03zm9.54 4.77v-5.06h2.06v8.73h-1.99v-1.55h-.091a2.63 2.63 0 0 1 -.971 1.2c-.447.31-.999.47-1.65.466-.572 0-1.08-.127-1.52-.381a2.65 2.65 0 0 1 -1.02-1.12c-.246-.493-.369-1.09-.369-1.78v-5.56h2.06v5.24c0 .553.15.993.45 1.32.303.32.701.49 1.19.488.3 0 .596-.74.88-.221a1.8 1.8 0 0 0 .699-.659c.186-.296.28-.665.28-1.11zm4.26 3.67v-11.64h2.06v4.35h.085c.106-.212.26-.438.45-.676.19-.243.46-.449.78-.62.33-.174.75-.261 1.26-.261.67 0 1.28.172 1.82.517.54.341.98.847 1.29 1.52.322.67.483 1.49.483 2.46 0 .958-.157 1.77-.472 2.44-.314.67-.742 1.18-1.28 1.53a3.3 3.3 0 0 1 -1.84.528c-.5 0-.914-.083-1.24-.25a2.5 2.5 0 0 1 -.795-.602 3.93 3.93 0 0 1 -.461-.676h-.119v1.38h-2.02zm2.02-4.36c0 .565.08 1.06.239 1.48.163.43.396.76.7.307.23.678.35 1.11.352.45 0 .836-.121 1.14-.364.31-.246.54-.581.69-1.159-.428.24-.915.24-1.46 0-.541-.077-1.02-.233-1.44-.155-.42-.386-.75-.693-.988-.307-.239-.689-.358-1.15-.358-.439 0-.812.12-1.12.346-.307.23-.54.55-.699.97-.155.42" fill="#fff"/><g clip-path="url(#b)"><path d="m124 890.5h532v278h-532z" fill="url(#e)"/></g></g><path d="m568 624c0-17.67 14.33-32 32-32h240c17.67 0 32 14.33 32 32v512c0 17.67-14.33 32-32 32h-240c-17.67 0-32-14.33-32-32z" fill="#fff"/><path d="m586.29 628.73h5.16l6.91 16.86h.272l6.91-16.86h5.16v23.27h-4.05v-15.99h-.216l-6.43 15.92h-3.02l-6.43-15.96h-.216v16.03h-4.05zm36.11 23.61c-1.7 0-3.18-.375-4.43-1.12-1.25-.75-2.22-1.8-2.91-3.15-.681-1.35-1.02-2.92-1.02-4.73 0-1.8.341-3.38 1.02-4.74.69-1.36 1.66-2.41 2.91-3.16s2.73-1.12 4.43-1.12c1.71 0 3.18.375 4.43 1.12 1.25.75 2.22 1.8 2.9 3.16.689 1.36 1.03 2.94 1.03 4.74s-.345 3.38-1.03 4.73c-.682 1.35-1.65 2.4-2.9 3.15s-2.73 1.12-4.43 1.12zm.023-3.3c.924 0 1.7-.253 2.32-.761.62-.515 1.08-1.2 1.39-2.07.31-.864.47-1.83.465-2.89 0-1.07-.155-2.04-.465-2.9-.303-.871-.766-1.56-1.39-2.08-.621-.515-1.39-.772-2.32-.772-.947 0-1.74.257-2.36.772-.621.51-1.09 1.21-1.4 2.08-.303.86-.455 1.83-.455 2.9 0 1.06.152 2.02.455 2.89.31.86.776 1.55 1.4 2.07.629.51 1.42.761 2.36.761zm15.63-7.27v10.23h-4.11v-17.45h3.93v2.97h.205a4.99 4.99 0 0 1 1.92-2.33c.887-.576 1.98-.864 3.28-.864 1.21 0 2.25.258 3.15.773s1.6 1.26 2.09 2.24c.5.98.746 2.16.739 3.56v11.101h-4.11v-10.48c0-1.17-.303-2.08-.909-2.74-.599-.659-1.43-.989-2.49-.989-.719 0-1.36.16-1.92.478-.553.31-.989.76-1.31 1.35-.311.59-.466 1.31-.466 2.15zm23.78-7.23v3.18h-10.03v-3.18zm-7.56-4.18h4.11v16.39c0 .553.08.977.25 1.27.174.29.402.49.682.59.28.11.591.16.932.16.257 0 .492-.19.7-.57.22-.38.39-.72.5-.102l.693 3.22a9.36 9.36 0 0 1 -.943.25c-.401.09-.894.14-1.48.159-1.03.03-1.96-.125-2.78-.466a4.34 4.34 0 0 1 -1.97-1.61c-.477-.727-.712-1.64-.705-2.73v-17.07zm15.17 11.41v10.23h-4.11v-23.27h4.02v8.78h.205c.409-.984 1.04-1.76 1.9-2.33.863-.576 1.96-.864 3.29-.864 1.21 0 2.27.254 3.17.762.9.507 1.6 1.25 2.09 2.23.5.98.75 2.17.75 3.58v11.112h-4.11v-10.48c0-1.18-.303-2.09-.909-2.74-.599-.659-1.44-.989-2.52-.989-.727 0-1.38.16-1.96.478a3.33 3.33 0 0 0 -1.34 1.35c-.319.59-.478 1.31-.478 2.15z" fill="#000"/><path d="m584.77 671.61v-1.25h8.73v1.25h-3.66v10.39h-1.41v-10.39zm9.82 10.39v-8.73h1.29v1.32h.091c.159-.432.45-.782.86-1.05a2.54 2.54 0 0 1 1.41-.404" fill="#7e8890"/><path d="m594.6 756.27v-32.73h2.1v32.73zm6.56-22.58c-.136-1.21-.699-2.15-1.69-2.81-.989-.674-2.23-1.01-3.73-1.01-1.07 0-2.17-2.79.511-.784" fill="#000"/><path d="m697.34 740.82-3.75 13.93h-1.23l3.75-13.93zm1.59 12.18v-8.73h1.3v1.36h.113c.182-.466.48-.827.88-1.08.405-.261.89-.392 1.46-.392.58 0 1.05.131 1.44.392.39.258.69.619.9 1.08h.091c.224-.45.56-.808 1.01-1.07.447-.268.98-.403 1.61-.403.78 0 1.42.244 1.92.733.5.485.74 1.24.744 2.27v5.84h-1.34v-5.84c0-.644-.176-1.1-.528-1.38a1.96 1.96 0 0 0 -1.25-.414c-.613 0-1.09.185-1.43.556-.337.37-.506.83-.506 1.4v5.678h-1.36v-5.98c0-.496-.161-.896-.483-1.2-.322-.307-.737-.46-1.24-.46-.349 0-.675.09-.978.28a2.11 2.11 0 0 0 -.727.77 2.28 2.28 0 0 0 -.273 1.13v5.46h-1.34zm17.45.182c-.788 0-1.48-.188-2.07-.563-.591-.375-1.05-.899-1.39-1.57-.33-.674-.494-1.46-.494-2.36 0-.909.16-1.7.494-2.38.333-.678.79-1.2 1.39-1.58.595-.375 1.29-.563 2.07-.563.79 0 1.48.188 2.07.563.6.375 1.06.901 1.39 1.58.333.68.5 1.47.5 2.38 0 .901-.167 1.69-.5 2.36-.33.67-.792 1.2-1.39 1.57-.591.38-1.28.563-2.07.563zm0-1.21c.599 0 1.09-.153 1.48-.46s.67-.71.86-1.21c.186-.5.28-1.04.279-1.62 0-.584-.093-1.13-.279-1.63a2.73 2.73 0 0 0 -.858-1.22c-.386-.311-.878-.466-1.48-.466-.598 0-1.09.155-1.48.466-.387.31-.673.72-.858 1.22a4.67 4.67 0 0 0 -.279 1.63c0 .583.09 1.12.279 1.62.185.5.471.9.858 1.21.386.31.879.46 1.48.46zm7.34-4.23v5.258h-1.34v-8.73h1.29v1.36h.114c.204-.443.51-.799.93-1.07.417-.273.95-.409 1.61-.409.59 0 1.11.121 1.55.364.44.238.79.602 1.03 1.09.247.48.37 1.1.37 1.84v5.555h-1.34v-5.46c0-.685-.178-1.22-.534-1.6-.356-.386-.845-.579-1.47-.579-.428 0-.811.09-1.15.278a1.99 1.99 0 0 0 -.79.81c-.193.36-.29.79-.29 1.29zm11.81-3.48v1.14h-4.52v-1.14zm-3.2-2.09h1.34v8.32c0 .379.06.663.16.852a.853.85 0 0 0 .432.38c.178.06.366.09.563.09.148 0 .269-.7.36-.023l.228-.45.27 1.21c-.9.03-.217.07-.38.1-.163.04-.37.06-.62.06-.378 0-.75-.082-1.11-.245a2.22 2.22 0 0 1 -.898-.744c-.235-.333-.352-.754-.352-1.26v-8.68zm6.75 5.57v5.258h-1.34v-11.64h1.34v4.27h.113c.205-.45.51-.808.92-1.07.413-.268.96-.403 1.65-.403.59 0 1.11.119 1.56.358a2.41 2.41 0 0 1 1.04 1.08c.25.48.375 1.1.375 1.85v5.555h-1.34v-5.46c0-.693-.18-1.23-.54-1.61-.356-.383-.85-.574-1.48-.574-.439 0-.833.09-1.18.278a2.04 2.04 0 0 0 -.818.81c-.197.36-.295.79-.295 1.29zm-150.45 31.7v-14.55h.932v14.55zm3.14-10.18a1.78 1.78 0 0 0 -.83-1.34c-.485-.318-1.08-.477-1.78-.477-.515 0-.966.08-1.35.25a2.15 2.15 0 0 0 -.898.69 1.65 1.65 0 0 0 -.318.99c0 .311.07.578.22.802.15.219.34.403.58.551.24.144.48.263.74.358.26.9.49.164.71.221l1.18.318c.303.08.64.19 1.01.33.38.14.73.331 1.07.574.35.238.63.545.85.92s.33.835.34 1.38c0 .629-.164 1.2-.494 1.7-.326.51-.803.91-1.43 1.21-.625.3-1.38.449-2.28.449-.833 0-1.55-.135-2.17-.404-.606-.269-1.08-.644-1.43-1.12a3.22 3.22 0 0 1 -.585-1.68h1.46c.38.44.185.8.443 1.09.261.28.591.5.988.64.402.14.834.21 1.3.205.54 0 1.02-.087 1.45-.262.43-.178.77-.424 1.02-.738.25-.318.38-.69.38-1.11 0-.386-.108-.701-.324-.943a2.39 2.39 0 0 0 -.852-.591 9.14 9.14 0 0 0 -1.14-.398l-1.43-.409c-.909-.261-1.63-.634-2.16-1.12-.531-.485-.796-1.12-.796-1.9 0-.652.18-1.22.529-1.71a3.5 3.5 0 0 1 1.43-1.14c.602-.273 1.27-.409 2.02-.409s1.42.134 2 .403c.58.265 1.04.629 1.39 1.09.345.46.526.99.545 1.57h-1.36zm7.73-2.91v11.648h-1.41v-10.16h-.068l-2.84 1.89v-1.43l2.91-1.93h1.41zm7.14 11.79c-.856 0-1.59-.233-2.19-.699-.602-.469-1.06-1.15-1.38-2.04-.318-.893-.477-1.97-.477-3.24 0-1.26.159-2.33.477-3.22.322-.894.78-1.58 1.39-2.04.606-.474 1.33-.71 2.18-.71s1.57.236 2.18.71c.61.469 1.07 1.15 1.39 2.04.322.89.483 1.96.483 3.22s-.159 2.35-.477 3.24-.779 1.57-1.38 2.04c-.602.47-1.33.699-2.19.699zm0-1.25c.848 0 1.51-.409 1.98-1.23.47-.818.7-1.99.704-3.5 0-1.01-.108-1.87-.323-2.57-.213-.708-.519-1.25-.921-1.62a2.03 2.03 0 0 0 -1.44-.557c-.841 0-1.5.415-1.97 1.24-.473.83-.71 1.99-.71 3.51 0 1.01.106 1.86.318 2.57s.517 1.24.915 1.61c.401.37.884.55 1.45.551zm6.8 1.18c-.28 0-.521-.1-.722-.301a.989.99 0 0 1 -.301-.722c0-.28.1-.521.3-.721a.986.99 0 0 1 .722-.302c.28 0 .521.1.722.3.2.2.301.44.301.72a.973.97 0 0 1 -.142.51c-.91.16-.214.28-.37.38a.981.98 0 0 1 -.511.14zm3.13-2.48v-1.16l5.11-8.09h.841v1.79h-.568l-3.86 6.11v.091h6.89v1.25h-8.41zm5.48 2.408v-11.64h1.34v11.64zm8.99-11.64v11.64h-1.41v-10.16h-.068l-2.84 1.89v-1.43l2.91-1.93h1.41zm11.98-.546-3.75 13.93h-1.23l3.75-13.93zm1.59 12.18v-8.73h1.29v1.36h.114c.182-.466.48-.827.88-1.08.405-.261.89-.392 1.46-.392.58 0 1.05.131 1.44.392.39.258.69.619.9 1.08h.091c.223-.45.56-.808 1-1.07.447-.268.98-.403 1.61-.403.78 0 1.42.244 1.92.733.5.485.74 1.24.744 2.27v5.846h-1.34v-5.84c0-.644-.177-1.1-.529-1.38a1.96 1.96 0 0 0 -1.24-.414c-.614 0-1.09.185-1.43.556-.337.37-.506.83-.506 1.4v5.678h-1.36v-5.98c0-.496-.161-.896-.483-1.2-.322-.307-.736-.46-1.24-.46-.348 0-.674.09-.977.28a2.1 2.1 0 0 0 -.727.77 2.28 2.28 0 0 0 -.273 1.13v5.46h-1.34zm17.45.182c-.788 0-1.48-.188-2.07-.563-.591-.375-1.05-.899-1.39-1.57-.329-.674-.494-1.46-.494-2.36 0-.909.16-1.7.494-2.38.334-.678.8-1.2 1.39-1.58.594-.375 1.29-.563 2.07-.563.79 0 1.48.188 2.07.563s1.06.901 1.39 1.58c.333.68.5 1.47.5 2.38 0 .901-.167 1.69-.5 2.36a3.77 3.77 0 0 1 -1.39 1.57c-.591.38-1.28.563-2.07.563zm0-1.21c.598 0 1.09-.153 1.48-.46a2.72 2.72 0 0 0 .858-1.21c.185-.5.28-1.04.278-1.62 0-.584-.093-1.13-.278-1.63a2.75 2.75 0 0 0 -.858-1.22c-.386-.311-.879-.466-1.48-.466-.599 0-1.09.155-1.48.466-.386.31-.672.72-.858 1.22a4.7 4.7 0 0 0 -.278 1.63c0 .583.09 1.12.278 1.62.186.5.472.9.858 1.21.387.31.879.46 1.48.46zm7.34-4.23v5.264h-1.34v-8.73h1.29v1.36h.114c.205-.443.51-.799.93-1.07.417-.273.95-.409 1.61-.409.59 0 1.11.121 1.55.364.44.238.79.602 1.03 1.09.246.48.369 1.1.369 1.84v5.555h-1.34v-5.46c0-.685-.178-1.22-.534-1.6-.356-.386-.845-.579-1.47-.579-.428 0-.81.09-1.15.278a1.99 1.99 0 0 0 -.789.81c-.193.36-.29.79-.29 1.29zm11.81-3.48v1.14h-4.52v-1.14zm-3.21-2.09h1.34v8.32c0 .379.06.663.16.852a.853.85 0 0 0 .432.38c.178.06.365.09.562.09.148 0 .269-.7.36-.023l.227-.45.27 1.21a2.74 2.74 0 0 1 -.381.1 2.79 2.79 0 0 1 -.619.06 2.7 2.7 0 0 1 -1.11-.245 2.21 2.21 0 0 1 -.897-.744c-.235-.333-.353-.754-.353-1.26v-8.68zm6.75 5.57v5.264h-1.34v-11.64h1.34v4.27h.114c.204-.45.51-.808.92-1.07.413-.268.96-.403 1.65-.403.6 0 1.12.119 1.56.358.45.235.79.597 1.04 1.08.25.48.375 1.1.375 1.85v5.555h-1.34v-5.46c0-.693-.179-1.23-.539-1.61-.356-.383-.851-.574-1.48-.574-.44 0-.834.09-1.18.278a2.03 2.03 0 0 0 -.818.81c-.197.36-.296.79-.296 1.29z" fill="#7e8890"/><path d="m584 772.76h107.66v1.09h-107.66z" fill="#7e8890"/><path d="m584 825.6c0-8.96 0-13.44 1.74-16.86a16 16 0 0 1 6.99-6.99c3.43-1.75 7.91-1.75 16.87-1.75h220.8c8.96 0 13.44 0 16.86 1.74a16 16 0 0 1 6.99 6.99c1.75 3.43 1.75 7.91 1.75 16.87v4.8c0 8.96 0 13.44-1.74 16.86a16 16 0 0 1 -6.99 6.99c-3.43 1.75-7.91 1.75-16.87 1.75h-220.8c-8.96 0-13.44 0-16.86-1.74a16 16 0 0 1 -6.99-6.99c-1.75-3.43-1.75-7.91-1.75-16.87z" fill="#000"/><path d="m688.32 825.56c-.053-.496-.276-.882-.67-1.16-.39-.276-.898-.414-1.52-.414-.439 0-.816.07-1.13.199-.314.13-.555.31-.721.54a1.31 1.31 0 0 0 -.256.78c0 .242.06.452.17.63s.27.33.46.455c.19.121.41.223.64.307.24.83.47.153.71.21l1.09.273c.44.1.862.24 1.27.414a4.47 4.47 0 0 1 1.1.66c.326.26.583.59.773.96.189.38.284.81.284 1.32 0 .682-.175 1.28-.523 1.8-.349.51-.852.92-1.51 1.21-.656.29-1.45.432-2.38.432-.905 0-1.69-.14-2.36-.42-.663-.281-1.18-.69-1.56-1.23-.371-.537-.572-1.19-.602-1.97h2.07c.3.41.155.74.375 1.01.219.27.505.47.858.6.356.13.753.2 1.19.199.46 0 .86-.068 1.2-.205.35-.14.62-.333.82-.579.2-.25.3-.542.3-.875-.004-.303-.093-.553-.267-.75-.175-.201-.419-.368-.733-.5a7.13 7.13 0 0 0 -1.09-.364l-1.32-.341c-.958-.246-1.72-.619-2.27-1.12-.553-.504-.829-1.17-.829-2.01 0-.685.18-1.29.556-1.8.375-.515.88-.915 1.53-1.2.644-.288 1.37-.431 2.19-.431.83 0 1.55.143 2.17.431.62.284 1.11.68 1.47 1.19.356.5.54 1.08.552 1.74h-2.03zm9.54 4.77v-5.06h2.06v8.73h-1.99v-1.55h-.091a2.63 2.63 0 0 1 -.971 1.2c-.447.31-.999.47-1.65.466-.572 0-1.08-.127-1.52-.381a2.65 2.65 0 0 1 -1.02-1.12c-.246-.493-.369-1.09-.369-1.78v-5.56h2.06v5.24c0 .553.15.993.45 1.32.303.32.701.49 1.19.488.3 0 .596-.74.88-.221a1.8 1.8 0 0 0 .699-.659c.186-.296.28-.665.28-1.11zm4.26 3.67v-11.64h2.06v4.35h.085c.106-.212.26-.438.45-.676.19-.243.46-.449.78-.62.33-.174.75-.261 1.26-.261.67 0 1.28.172 1.82.517.54.341.98.847 1.29 1.52.322.67.483 1.49.483 2.46 0 .958-.157 1.77-.472 2.44-.314.67-.742 1.18-1.28 1.53a3.3 3.3 0 0 1 -1.84.528c-.5 0-.914-.083-1.24-.25a2.5 2.5 0 0 1 -.795-.602 3.93 3.93 0 0 1 -.461-.676h-.119v1.38h-2.02zm2.02-4.36c0 .565.08 1.06.239 1.48.163.43.396.76.7.307.23.678.35 1.11.352.45 0 .836-.121 1.14-.364.31-.246.54-.581.69-1.159-.428.24-.915.24-1.46 0-.541-.077-1.02-.233-1.44-.155-.42-.386-.75-.693-.988-.307-.239-.689-.358-1.15-.358-.439 0-.812.12-1.12.346-.307.23-.54.55-.699.97-.155.42" fill="#fff"/><g clip-path="url(#c)"><path d="m452 888h536v280h-536z" fill="url(#f)"/></g><rect fill="#fb9130" height="32" rx="16" width="108" x="584" y="576"/><path d="m594.2 586.82h2.26l3.02 7.38h.12l3.02-7.38h2.26v10.18h-1.77v-7h-.095l-2.81 6.96h-1.32l-2.81-6.98h-.095v7.02h-1.77v-10.18zm15.94 10.33c-.745 0-1.39-.164-1.94-.492a3.34 3.34 0 0 1 -1.27-1.38c-.298-.59-.448-1.28-.448-2.07 0-.789.15-1.48.448-2.07a3.34 3.34 0 0 1 1.27-1.38c.546-.328 1.19-.492 1.94-.492s1.39.164 1.94.492c.55.329.97.789 1.27 1.38.302.59.453 1.28.453 2.07 0 .788-.151 1.48-.453 2.07a3.31 3.31 0 0 1 -1.27 1.38c-.547.33-1.19.492-1.94.492zm.01-1.44c.405 0 .743-.111 1.01-.333.27-.225.47-.527.61-.905a3.7 3.7 0 0 0 .204-1.26c0-.468-.068-.89-.204-1.27a2.01 2.01 0 0 0 -.606-.91c-.272-.225-.61-.338-1.01-.338-.414 0-.759.11-1.03.338a2.05 2.05 0 0 0 -.611.91 3.8 3.8 0 0 0 -.199 1.27c0 .464.07.885.2 1.26.136.38.34.68.611.9.275.22.62.33 1.03.333zm11.21-4.33-1.64.179a1.31 1.31 0 0 0 -.244-.467 1.2 1.2 0 0 0 -.457-.353 1.66 1.66 0 0 0 -.706-.134c-.375 0-.689.08-.945.24-.252.16-.376.37-.372.63a.655.65 0 0 0 .243.54c.169.14.448.25.835.34l1.3.279c.722.16 1.26.403 1.61.741s.53.78.54 1.33a2.08 2.08 0 0 1 -.423 1.27c-.275.36-.658.65-1.15.855-.491.2-1.05.308-1.69.308-.934 0-1.69-.195-2.26-.587-.57-.394-.91-.942-1.02-1.65l1.75-.169c.8.35.249.6.507.78.259.18.595.26 1.01.264.43 0 .771-.088 1.03-.264.26-.175.39-.392.39-.651a.678.68 0 0 0 -.253-.542c-.166-.142-.425-.252-.776-.328l-1.3-.273c-.732-.153-1.27-.41-1.62-.771-.352-.365-.526-.825-.522-1.38a1.95 1.95 0 0 1 .383-1.22c.261-.348.62-.617 1.09-.805.47-.193 1.01-.289 1.62-.289.89 0 1.6.191 2.11.572.52.381.84.896.96 1.55zm5.46-2.02v1.39h-4.39v-1.39zm-3.31-1.83h1.8v7.17c0 .242.04.428.11.557a.588.59 0 0 0 .298.26c.123.05.259.07.408.07a2.23 2.23 0 0 0 .527-.07l.303 1.41c-.96.03-.234.07-.413.11-.175.04-.391.06-.646.07a2.92 2.92 0 0 1 -1.22-.203 1.9 1.9 0 0 1 -.86-.706c-.209-.319-.312-.716-.308-1.19v-7.47zm8.36 9.47v-10.18h3.82c.783 0 1.44.146 1.97.438.53.291.94.692 1.21 1.2.275.51.413 1.08.413 1.73 0 .653-.138 1.23-.413 1.74a2.95 2.95 0 0 1 -1.22 1.2c-.537.29-1.2.433-1.98.433h-2.53v-1.52h2.28c.457 0 .832-.079 1.12-.238.29-.159.51-.378.65-.657a2.08 2.08 0 0 0 .214-.959c0-.361-.072-.68-.214-.955a1.45 1.45 0 0 0 -.651-.641c-.292-.156-.668-.234-1.13-.234h-1.69v8.643h-1.84zm12.15.149c-.746 0-1.39-.164-1.94-.492a3.34 3.34 0 0 1 -1.27-1.38c-.298-.59-.447-1.28-.447-2.07 0-.789.15-1.48.447-2.07a3.34 3.34 0 0 1 1.27-1.38c.547-.328 1.19-.492 1.94-.492s1.39.164 1.94.492c.547.33.969.79 1.27 1.38s.452 1.28.452 2.07c0 .788-.151 1.48-.452 2.07a3.31 3.31 0 0 1 -1.27 1.38c-.547.33-1.19.492-1.94.492zm.01-1.44c.404 0 .742-.111 1.01-.333.27-.225.47-.527.61-.905a3.7 3.7 0 0 0 .204-1.26c0-.468-.068-.89-.204-1.27a2.01 2.01 0 0 0 -.607-.91c-.272-.225-.61-.338-1.01-.338-.414 0-.759.11-1.03.338a2.04 2.04 0 0 0 -.612.91c-.132.38-.198.8-.198 1.27 0 .464.07.885.2 1.26.136.38.34.68.612.9.275.22.62.33 1.03.333zm5.18 4.16v-10.5h1.77v1.26h.104c.093-.185.22-.382.39-.591.17-.212.4-.393.69-.542.29-.153.66-.229 1.1-.229.59 0 1.12.151 1.6.453.48.298.86.74 1.13 1.33.282.58.422 1.3.422 2.15 0 .838-.137 1.55-.412 2.14s-.65 1.03-1.12 1.34a2.89 2.89 0 0 1 -1.61.462c-.437 0-.8-.073-1.09-.219a2.18 2.18 0 0 1 -.696-.527 3.36 3.36 0 0 1 -.403-.591h-.075v4.07h-1.8zm1.76-6.68c0 .494.07.926.21 1.3.143.37.347.66.612.87.268.21.593.31.974.31.398 0 .731-.106 1-.319a1.96 1.96 0 0 0 .606-.879 3.66 3.66 0 0 0 .209-1.28 3.63 3.63 0 0 0 -.204-1.26 1.9 1.9 0 0 0 -.606-.865c-.269-.209-.604-.313-1-.313-.384 0-.711.1-.979.3-.269.2-.472.49-.612.85-.136.37-.203.79-.203 1.29zm11.85.606v-4.42h1.8v7.625h-1.75v-1.36h-.08a2.3 2.3 0 0 1 -.85 1.05c-.391.27-.874.41-1.45.407-.5 0-.943-.111-1.33-.333a2.31 2.31 0 0 1 -.895-.979c-.216-.431-.323-.951-.323-1.56v-4.86h1.8v4.58c0 .484.13.869.4 1.15.265.29.613.43 1.04.427.26 0 .522-.64.77-.193.25-.13.45-.322.61-.577.16-.259.24-.582.24-.97zm5.45-6.97v10.175h-1.8v-10.18h1.8zm4.05 10.34c-.484 0-.92-.086-1.31-.258a2.13 2.13 0 0 1 -.915-.776c-.222-.341-.333-.762-.333-1.26 0-.431.08-.787.24-1.07.159-.281.38-.507.65-.676s.59-.296.93-.383a7.53 7.53 0 0 1 1.08-.193c.448-.47.81-.088 1.09-.125.28-.4.48-.99.61-.179.13-.83.19-.21.19-.383v-.029c0-.375-.111-.665-.333-.87-.222-.206-.542-.309-.959-.309-.441 0-.791.1-1.05.289a1.42 1.42 0 0 0 -.517.68l-1.68-.239c.133-.464.35-.852.66-1.16.305-.315.68-.55 1.12-.706a4.28 4.28 0 0 1 1.46-.239c.368 0 .734.04 1.1.129a3.11 3.11 0 0 1 1 .428c.301.2.543.46.726.8.185.34.278.76.278 1.27v5.094h-1.73v-1.05h-.06a2.19 2.19 0 0 1 -.462.6 2.24 2.24 0 0 1 -.741.44 2.99 2.99 0 0 1 -1.04.164zm.467-1.32c.362 0 .675-.72.94-.214.26-.146.47-.338.61-.577.14-.238.22-.499.22-.78v-.9a.853.85 0 0 1 -.288.13c-.133.04-.282.07-.448.1-.165.03-.329.06-.492.08l-.422.06a3.1 3.1 0 0 0 -.721.18c-.212.08-.38.2-.502.35-.123.14-.184.33-.184.57 0 .332.12.582.36.751s.55.254.92.254zm5.38 1.17v-7.64h1.75v1.27h.079c.139-.44.38-.78.72-1.02a1.97 1.97 0 0 1 1.17-.363c.1 0 .211.334.01.126" fill="#fff"/><path d="m928 593h240c17.12 0 31 13.88 31 31v512c0 17.12-13.88 31-31 31h-240c-17.12 0-31-13.88-31-31v-512c0-17.12 13.88-31 31-31z" stroke="#35ac67" stroke-width="2"/><path d="m912.71 628.73h4.76l5.69 10.3h.227l5.69-10.3h4.76l-8.47 14.59v8.68h-4.21v-8.68l-8.46-14.59zm28.1 23.61c-1.75 0-3.26-.364-4.53-1.09-1.26-.735-2.24-1.77-2.92-3.11-.682-1.35-1.02-2.94-1.02-4.76 0-1.79.341-3.37 1.02-4.73.689-1.36 1.65-2.42 2.89-3.18 1.24-.765 2.69-1.15 4.35-1.15 1.08 0 2.09.174 3.05.523.96.341 1.81.871 2.54 1.59.743.72 1.33 1.64 1.75 2.75.424 1.11.637 2.42.637 3.95v1.26h-14.31v-2.77h10.36c-.007-.788-.178-1.49-.511-2.1a3.71 3.71 0 0 0 -1.4-1.47c-.591-.356-1.28-.534-2.07-.534-.841 0-1.58.204-2.22.613a4.23 4.23 0 0 0 -1.49 1.59 4.58 4.58 0 0 0 -.535 2.15v2.42c0 1.02.186 1.89.557 2.61s.89 1.27 1.56 1.66c.667.38 1.45.568 2.34.568a4.97 4.97 0 0 0 1.62-.25 3.6 3.6 0 0 0 1.26-.761c.356-.333.62-.746.81-1.24l3.84.432a5.98 5.98 0 0 1 -1.39 2.66c-.675.75-1.54 1.33-2.59 1.75-1.05.409-2.26.614-3.61.614zm15.94.011c-1.11 0-2.1-.197-2.99-.591a4.87 4.87 0 0 1 -2.09-1.77c-.508-.781-.762-1.74-.762-2.89 0-.985.18-1.8.546-2.44a4.22 4.22 0 0 1 1.49-1.54 7.48 7.48 0 0 1 2.12-.875 17.22 17.22 0 0 1 2.46-.444c1.02-.106 1.85-.2 2.49-.284.64-.091 1.1-.227 1.39-.409.3-.189.44-.481.44-.875v-.068c0-.856-.254-1.52-.762-1.99-.507-.469-1.24-.704-2.19-.704-1.01 0-1.81.22-2.4.659-.583.44-.977.96-1.18 1.56l-3.84-.546c.303-1.06.803-1.95 1.5-2.66.697-.719 1.55-1.26 2.56-1.61 1.01-.364 2.12-.546 3.34-.546.84 0 1.68.099 2.51.296a7.06 7.06 0 0 1 2.28.977c.689.45 1.24 1.06 1.66 1.83.424.77.636 1.74.636 2.9v11.669h-3.95v-2.4h-.137c-.25.48-.602.94-1.06 1.36-.447.42-1.01.754-1.69 1.01-.674.25-1.47.375-2.38.375zm1.07-3.02c.825 0 1.54-.163 2.15-.489.61-.333 1.07-.773 1.4-1.32.333-.546.5-1.14.5-1.78v-2.06c-.129.11-.348.2-.659.29a9.26 9.26 0 0 1 -1.02.239c-.379.07-.754.13-1.12.182l-.966.14a7.18 7.18 0 0 0 -1.65.409c-.485.19-.868.46-1.15.796-.28.33-.421.76-.421 1.29 0 .758.28 1.33.83 1.72.553.39 1.26.58 2.11.58zm11.96 2.67v-17.45h3.99v2.91h.182c.318-1.01.864-1.78 1.64-2.33.781-.553 1.67-.83 2.67-.83.23 0 .481.01.761.03.288.01.527.04.716.08v3.78c-.174-.06-.451-.113-.829-.159a7.64 7.64 0 0 0 -1.08-.079c-.75 0-1.42.162-2.02.488a3.58 3.58 0 0 0 -1.4 1.33c-.341.57-.512 1.22-.512 1.97v10.259h-4.11z" fill="#000"/><path d="m913.41 682v-11.64h4.07c.811 0 1.48.14 2.01.42.53.277.92.65 1.18 1.12.258.47.386.98.386 1.55 0 .5-.89.91-.267 1.24a2.07 2.07 0 0 1 -.693.77 3.17 3.17 0 0 1 -.926.42v.12c.356.02.714.15 1.07.375.36.227.66.553.9.977.24.425.36.943.36 1.56 0 .583-.133 1.11-.398 1.57-.265.47-.683.84-1.25 1.11-.572.27-1.32.409-2.23.409h-4.21zm1.41-1.25h2.8c.92 0 1.57-.178 1.96-.534.39-.36.59-.796.59-1.31 0-.394-.1-.757-.301-1.09a2.19 2.19 0 0 0 -.858-.807c-.371-.204-.811-.306-1.32-.306h-2.86v4.04zm0-5.27h2.61c.424 0 .807-.083 1.15-.25.34-.166.62-.401.82-.704s.31-.659.31-1.07c0-.512-.178-.946-.535-1.3-.356-.359-.92-.539-1.69-.539h-2.66v3.86zm12.47 6.71c-.841 0-1.57-.186-2.18-.557a3.74 3.74 0 0 1 -1.4-1.57c-.326-.674-.489-1.46-.489-2.35 0-.894.16-1.68.489-2.36.33-.686.79-1.22 1.38-1.6.591-.387 1.28-.58 2.07-.58.45 0 .904.08 1.35.227.44.152.85.398 1.21.739.36.337.65.784.87 1.34.216.56.324 1.24.324 2.06v.568h-6.73v-1.16h5.36c0-.493-.099-.932-.296-1.32a2.22 2.22 0 0 0 -.829-.915c-.356-.224-.777-.335-1.26-.335-.534 0-.996.13-1.39.397a2.62 2.62 0 0 0 -.892 1.02 3.01 3.01 0 0 0 -.313 1.35v.773c0 .659.11 1.22.341 1.68s.551.8.96 1.04c.41.23.885.35 1.43.352.35 0 .67-.49.95-.147.29-.103.54-.254.74-.455.21-.205.37-.458.48-.761l1.3.363c-.136.44-.366.83-.688 1.16s-.719.59-1.19.773a4.42 4.42 0 0 1 -1.6.273zm11.84-6.96-1.21.341a2.2 2.2 0 0 0 -.335-.585 1.63 1.63 0 0 0 -.591-.477c-.25-.125-.57-.188-.96-.188-.534 0-.979.12-1.33.37-.353.24-.529.55-.529.93 0 .333.12.596.36.789.24.194.62.355 1.14.483l1.3.319c.78.19 1.36.479 1.74.869.38.386.57.884.57 1.49 0 .5-.144.95-.432 1.34-.284.39-.682.71-1.19.932-.511.23-1.11.341-1.78.341-.89 0-1.63-.193-2.21-.58-.584-.386-.953-.95-1.11-1.69l1.27-.318c.122.47.351.82.688 1.06.341.24.786.35 1.33.352.62 0 1.12-.133 1.49-.398.37-.269.56-.591.56-.966 0-.303-.106-.556-.319-.761-.212-.208-.537-.364-.977-.466l-1.45-.341c-.8-.189-1.39-.483-1.76-.88-.371-.402-.557-.904-.557-1.51 0-.493.14-.928.41-1.31a2.82 2.82 0 0 1 1.14-.892c.485-.216 1.03-.324 1.65-.324.86 0 1.54.189 2.03.568.5.379.85.879 1.06 1.5zm5.97-1.95v1.14h-4.52v-1.14zm-3.21-2.09h1.34v8.32c0 .379.06.663.16.852a.853.85 0 0 0 .432.38c.178.06.365.09.562.09.148 0 .269-.7.36-.023l.227-.45.27 1.21a2.74 2.74 0 0 1 -.381.1 2.79 2.79 0 0 1 -.619.06 2.7 2.7 0 0 1 -1.11-.245 2.21 2.21 0 0 1 -.897-.744c-.235-.333-.353-.754-.353-1.26v-8.68zm16.86 2.09-3.22 8.72h-1.36l-3.23-8.73h1.46l2.41 6.95h.091l2.41-6.95h1.45zm4.07 8.93a3.55 3.55 0 0 1 -1.51-.313 2.58 2.58 0 0 1 -1.07-.915c-.265-.401-.398-.886-.398-1.45 0-.5.1-.906.3-1.22.197-.315.46-.561.79-.739s.69-.31 1.09-.398c.4-.9.8-.162 1.21-.215.53-.69.96-.12 1.29-.154.33-.38.58-.1.73-.187.16-.87.23-.239.23-.455v-.045c0-.561-.154-.997-.46-1.31-.303-.311-.764-.466-1.38-.466-.64 0-1.14.14-1.51.42-.363.28-.619.58-.767.9l-1.27-.454c.228-.531.53-.944.91-1.24a3.4 3.4 0 0 1 1.25-.625 5.19 5.19 0 0 1 1.34-.182c.281 0 .603.03.966.1.368.06.722.2 1.06.404.35.204.63.513.86.926s.34.966.34 1.66v5.748h-1.34v-1.18h-.068a2.36 2.36 0 0 1 -.455.61c-.212.22-.494.4-.847.55-.352.15-.782.23-1.29.228zm.204-1.21c.531 0 .978-.104 1.34-.312.37-.209.64-.478.83-.807.19-.33.28-.676.28-1.04v-1.23c-.57.07-.182.13-.375.19-.19.05-.409.1-.659.14-.247.04-.487.07-.722.1-.231.03-.418.05-.562.07a5.11 5.11 0 0 0 -.978.22 1.69 1.69 0 0 0 -.727.45c-.182.2-.273.47-.273.81 0 .466.17.818.52 1.06.349.24.79.35 1.32.352zm7.58-10.64v11.64h-1.34v-11.64zm7.96 8.07v-5.16h1.34v8.73h-1.34v-1.48h-.091a2.86 2.86 0 0 1 -.954 1.13c-.432.31-.978.46-1.64.461a2.92 2.92 0 0 1 -1.45-.358c-.425-.243-.758-.606-1-1.09-.243-.489-.364-1.1-.364-1.85v-5.54h1.34v5.45c0 .637.18 1.14.534 1.52.36.38.818.57 1.38.568.33 0 .672-.085 1.02-.256.35-.17.64-.431.88-.784.24-.352.36-.801.36-1.35zm7.46 3.75c-.841 0-1.57-.186-2.18-.557a3.74 3.74 0 0 1 -1.4-1.57c-.325-.674-.488-1.46-.488-2.35 0-.894.16-1.68.488-2.36.33-.686.79-1.22 1.38-1.6.591-.387 1.28-.58 2.07-.58.45 0 .903.08 1.35.227.44.152.85.398 1.21.739.36.337.65.784.87 1.34.216.56.324 1.24.324 2.06v.568h-6.73v-1.16h5.36c0-.493-.098-.932-.295-1.32a2.23 2.23 0 0 0 -.83-.915c-.356-.224-.777-.335-1.26-.335-.534 0-.997.13-1.39.397a2.63 2.63 0 0 0 -.892 1.02 3.01 3.01 0 0 0 -.312 1.35v.773c0 .659.11 1.22.341 1.68s.551.8.96 1.04.884.35 1.43.352c.35 0 .67-.49.95-.147.29-.103.54-.254.74-.455.21-.205.37-.458.48-.761l1.29.363a2.86 2.86 0 0 1 -.687 1.16c-.322.33-.72.59-1.19.773a4.42 4.42 0 0 1 -1.6.273zm10.15 3.09v-12h1.3v1.39h.159c.098-.151.24-.345.41-.579.18-.239.43-.451.76-.637.33-.189.78-.284 1.35-.284.73 0 1.38.184 1.94.551.56.368 1 .888 1.31 1.56.32.67.47 1.47.47 2.39 0 .924-.15 1.73-.47 2.4-.31.68-.75 1.2-1.3 1.57-.56.37-1.2.551-1.93.551-.56 0-1.01-.093-1.35-.279-.337-.189-.597-.403-.779-.642a8.61 8.61 0 0 1 -.42-.602h-.114v4.61h-1.34zm1.32-7.64c0 .659.1 1.24.289 1.75.194.5.476.89.847 1.18.371.28.826.42 1.36.42.56 0 1.03-.147 1.4-.443.38-.299.66-.701.85-1.2.2-.508.29-1.07.29-1.69 0-.613-.09-1.17-.28-1.66-.19-.496-.47-.888-.85-1.18-.37-.292-.84-.437-1.41-.437-.546 0-1.138-1.38.414-.372.27-.652.66-.841 1.15-.19" fill="#7e8890"/><path d="m922.6 756.27v-32.73h2.1v32.73zm6.56-22.58c-.136-1.21-.699-2.15-1.69-2.81-.989-.674-2.23-1.01-3.73-1.01-1.07 0-2.17-2.79.511-.784" fill="#000"/><path d="m1047.34 740.82-3.75 13.93h-1.23l3.75-13.93zm2.45 15.46c-.22 0-.43-.019-.6-.057a1.47 1.47 0 0 1 -.37-.102l.34-1.18c.32.08.61.11.86.09.25-.23.47-.135.67-.335.19-.197.37-.518.54-.961l.25-.682-3.23-8.77h1.45l2.41 6.95h.09l2.41-6.95h1.46l-3.71 10c-.16.45-.37.82-.62 1.12a2.25 2.25 0 0 1 -.86.67c-.32.14-.68.22-1.09.216zm11.39-3.09c-.84 0-1.56-.186-2.17-.557a3.73 3.73 0 0 1 -1.41-1.57c-.32-.674-.48-1.46-.48-2.35 0-.894.16-1.68.48-2.36.33-.686.79-1.22 1.38-1.6.59-.387 1.28-.58 2.07-.58.45 0 .9.08 1.34.227.45.152.85.398 1.21.739.37.337.66.784.87 1.34.22.56.33 1.24.33 2.06v.568h-6.73v-1.16h5.36c0-.493-.1-.932-.29-1.32-.2-.387-.47-.692-.83-.915-.36-.224-.78-.335-1.26-.335-.54 0-1 .132-1.39.397-.39.26-.68.6-.89 1.02s-.31.87-.31 1.35v.773c0 .659.11 1.22.34 1.68.23.45.55.8.96 1.04.41.23.88.35 1.42.352.36 0 .67-.49.96-.147.29-.103.53-.254.74-.455.21-.205.37-.458.49-.761l1.29.363c-.14.44-.37.83-.69 1.16s-.72.59-1.19.773a4.43 4.43 0 0 1 -1.6.273zm8.22.023c-.55 0-1.05-.105-1.5-.313a2.54 2.54 0 0 1 -1.07-.915c-.27-.401-.4-.886-.4-1.45 0-.5.1-.906.29-1.22a2.1 2.1 0 0 1 .79-.739c.33-.178.7-.31 1.09-.398.41-.9.81-.162 1.21-.215.53-.69.96-.12 1.29-.154.34-.38.58-.1.73-.187.16-.87.23-.239.23-.455v-.045c0-.561-.15-.997-.46-1.31-.3-.311-.76-.466-1.38-.466-.64 0-1.14.14-1.5.42-.37.28-.62.58-.77.9l-1.27-.454c.22-.531.53-.944.91-1.24.38-.299.8-.508 1.25-.625.45-.121.9-.182 1.34-.182.28 0 .6.03.96.1.37.06.73.2 1.07.404s.63.513.85.926c.23.413.34.966.34 1.66v5.745h-1.34v-1.18h-.06c-.1.19-.25.39-.46.61s-.49.4-.85.55c-.35.15-.78.23-1.29.228zm.21-1.21c.53 0 .98-.104 1.34-.312.37-.209.64-.478.83-.807.19-.33.28-.676.28-1.04v-1.23c-.5.07-.18.13-.37.19-.19.05-.41.1-.66.14a34.44 34.44 0 0 1 -1.28.171 5.06 5.06 0 0 0 -.98.22c-.3.1-.54.25-.73.45-.18.2-.27.47-.27.81 0 .466.17.818.52 1.06.34.23.79.35 1.32.352zm6.24 1v-8.73h1.3v1.32h.09c.16-.432.45-.782.86-1.05a2.56 2.56 0 0 1 1.41-.404" fill="#7e8890"/><path d="m912 772.76h104.25v1.09h-104.25z" fill="#7e8890"/><path d="m912 825.6c0-8.96 0-13.44 1.74-16.86a16 16 0 0 1 6.99-6.99c3.43-1.75 7.91-1.75 16.87-1.75h220.8c8.96 0 13.44 0 16.86 1.74a16.05 16.05 0 0 1 7 6.99c1.74 3.42 1.74 7.9 1.74 16.86v4.8c0 8.96 0 13.44-1.74 16.86a16.05 16.05 0 0 1 -7 6.99c-3.42 1.74-7.9 1.74-16.86 1.74h-220.8c-8.96 0-13.44 0-16.86-1.74a16 16 0 0 1 -6.99-6.99c-1.75-3.41-1.75-7.89-1.75-16.85z" fill="#000"/><path d="m1016.32 825.56c-.05-.496-.27-.882-.67-1.16-.39-.276-.9-.414-1.52-.414-.44 0-.82.07-1.13.199-.32.13-.56.31-.72.54-.17.23-.25.49-.26.78 0 .242.06.452.17.63s.26.33.46.455c.19.121.4.223.64.307.23.83.47.153.71.21l1.09.273c.44.1.86.24 1.27.414.41.175.77.394 1.09.66.33.265.59.585.78.96s.28.814.28 1.32c0 .682-.17 1.28-.52 1.8s-.85.92-1.51 1.21-1.45.432-2.38.432c-.91 0-1.7-.14-2.36-.42-.66-.281-1.18-.69-1.56-1.23-.37-.537-.57-1.19-.6-1.97h2.07c.3.41.16.74.38 1.01s.5.47.86.6c.35.13.75.2 1.19.199.46 0 .86-.068 1.2-.205.35-.14.62-.333.82-.579.2-.25.3-.542.3-.875 0-.303-.09-.553-.26-.75a1.98 1.98 0 0 0 -.74-.5 6.94 6.94 0 0 0 -1.09-.364l-1.32-.341c-.96-.246-1.72-.619-2.27-1.12-.56-.504-.83-1.17-.83-2.01 0-.685.18-1.29.55-1.8.38-.515.89-.915 1.53-1.2.64-.288 1.37-.431 2.19-.431s1.55.143 2.17.431c.62.284 1.11.68 1.47 1.19.36.5.54 1.08.55 1.74h-2.03zm9.54 4.77v-5.06h2.06v8.73h-2v-1.55h-.09c-.19.49-.52.89-.97 1.2s-1 .466-1.65.466c-.57 0-1.08-.127-1.52-.381a2.64 2.64 0 0 1 -1.02-1.12c-.25-.493-.37-1.09-.37-1.78v-5.56h2.06v5.24c0 .553.15.993.45 1.32.3.33.7.49 1.19.488.31 0 .6-.74.88-.221.29-.148.52-.368.7-.659.19-.296.28-.665.28-1.11zm4.26 3.67v-11.64h2.06v4.35h.09c.1-.212.25-.438.45-.676.19-.243.45-.449.78-.62.33-.174.75-.261 1.26-.261.67 0 1.28.172 1.82.517.55.341.98.847 1.3 1.52.32.67.48 1.49.48 2.46 0 .958-.15 1.77-.47 2.44-.31.67-.74 1.18-1.28 1.53a3.31 3.31 0 0 1 -1.84.528c-.5 0-.92-.083-1.25-.25a2.48 2.48 0 0 1 -.79-.602c-.2-.239-.35-.464-.46-.676h-.12v1.38zm2.02-4.36c0 .565.08 1.06.24 1.48.16.43.4.76.8.31.23.68.35 1.11.352.46 0 .84-.121 1.14-.364.31-.246.54-.581.7-1.16-.428.24-.915.24-1.46 0-.541-.08-1.02-.24-1.44-.15-.42-.38-.75-.69-.988-.31-.239-.69-.358-1.15-.358-.44 0-.81.11-1.12.346-.3.23-.54.55-.7.97-.15.42" fill="#fff"/><g clip-path="url(#d)"><path d="m780 888h536v280h-536z" fill="url(#g)"/></g><rect fill="#35ac67" height="32" rx="16" width="83" x="912" y="576"/><path d="m922.45 597v-10.18h3.9c.736 0 1.35.116 1.83.348.49.229.86.542 1.1.94.25.398.37.848.37 1.35 0 .414-.79.77-.238 1.06a2 2 0 0 1 -.642.71 2.73 2.73 0 0 1 -.899.39v.099c.361.02.707.13 1.04.333.33.199.61.481.82.845.21.365.32.806.32 1.32 0 .527-.127 1-.383 1.42-.255.42-.639.75-1.15.989s-1.16.363-1.94.363h-4.12zm1.84-1.54h1.98c.669 0 1.15-.128 1.45-.383.3-.259.45-.59.45-.994a1.52 1.52 0 0 0 -.86-1.39c-.275-.143-.603-.214-.985-.214h-2.03v2.98zm0-4.31h1.82c.318 0 .604-.58.86-.174.25-.119.45-.286.6-.502.15-.218.22-.477.22-.775 0-.395-.139-.719-.418-.975-.275-.255-.684-.383-1.23-.383h-1.86v2.81zm10.66 6c-.766 0-1.43-.159-1.98-.477a3.25 3.25 0 0 1 -1.28-1.36c-.298-.59-.447-1.28-.447-2.08 0-.786.15-1.48.447-2.07a3.4 3.4 0 0 1 1.26-1.39c.541-.334 1.18-.502 1.9-.502.47 0 .915.08 1.33.229a3 3 0 0 1 1.11.696c.325.31.58.72.766 1.2s.278 1.06.278 1.73v.552h-6.26v-1.21h4.53a1.94 1.94 0 0 0 -.223-.92 1.63 1.63 0 0 0 -.612-.641 1.72 1.72 0 0 0 -.905-.234c-.368 0-.691.09-.969.27a1.83 1.83 0 0 0 -.651.7 1.99 1.99 0 0 0 -.234.94v1.06c0 .444.08.826.24 1.14.163.31.39.56.682.73.291.17.633.25 1.02.248.26 0 .499-.36.71-.109.21-.76.4-.187.55-.333s.27-.327.35-.542l1.68.189a2.61 2.61 0 0 1 -.607 1.16 2.96 2.96 0 0 1 -1.13.766c-.461.18-.988.27-1.58.268zm10.95-5.77-1.64.179a1.33 1.33 0 0 0 -.244-.467 1.2 1.2 0 0 0 -.457-.353 1.66 1.66 0 0 0 -.706-.134c-.375 0-.689.08-.945.24-.252.16-.376.37-.373.63a.66.66 0 0 0 .244.54c.169.14.448.25.835.34l1.3.279c.722.16 1.26.403 1.61.741s.53.78.54 1.33a2.08 2.08 0 0 1 -.423 1.27c-.275.36-.658.65-1.15.855-.491.2-1.05.308-1.69.308-.934 0-1.69-.195-2.26-.587-.57-.394-.91-.942-1.02-1.65l1.75-.169c.79.34.248.6.507.78s.595.26 1.01.264c.43 0 .771-.088 1.03-.264.26-.175.39-.392.39-.651a.678.68 0 0 0 -.253-.542c-.166-.142-.425-.252-.776-.328l-1.3-.273c-.732-.153-1.27-.41-1.62-.771-.352-.365-.526-.825-.522-1.38a1.95 1.95 0 0 1 .383-1.22c.261-.348.62-.617 1.09-.805.47-.193 1.01-.289 1.62-.289.89 0 1.6.191 2.11.572.52.381.84.896.96 1.55zm5.46-2.02v1.39h-4.39v-1.39zm-3.31-1.83h1.8v7.17c0 .242.04.428.11.557a.584.58 0 0 0 .298.26c.123.05.259.07.408.07a2.23 2.23 0 0 0 .527-.07l.303 1.41c-.96.03-.234.07-.413.11-.175.04-.391.06-.646.07a2.92 2.92 0 0 1 -1.22-.203 1.9 1.9 0 0 1 -.86-.706c-.209-.319-.312-.716-.308-1.19v-7.47zm11.83 9.47h-3.45v-10.18h3.52c1.01 0 1.88.204 2.6.612a4.09 4.09 0 0 1 1.68 1.75c.391.76.586 1.67.586 2.72 0 1.06-.197 1.97-.591 2.73a4.09 4.09 0 0 1 -1.7 1.75c-.736.41-1.62.612-2.65.612zm-1.6-1.6h1.52c.709 0 1.3-.129 1.77-.388.47-.262.83-.651 1.07-1.17.238-.52.36-1.17.358-1.95 0-.779-.12-1.43-.358-1.94a2.44 2.44 0 0 0 -1.06-1.16c-.464-.259-1.04-.388-1.73-.388h-1.57v6.99zm11.6 1.75c-.766 0-1.43-.159-1.98-.477a3.25 3.25 0 0 1 -1.28-1.36c-.298-.59-.447-1.28-.447-2.08 0-.786.15-1.48.447-2.07a3.4 3.4 0 0 1 1.26-1.39c.54-.334 1.18-.502 1.9-.502.47 0 .915.08 1.33.229a3 3 0 0 1 1.11.696c.325.31.58.72.766 1.2s.278 1.06.278 1.73v.552h-6.26v-1.21h4.53a1.94 1.94 0 0 0 -.223-.92 1.63 1.63 0 0 0 -.612-.641 1.72 1.72 0 0 0 -.905-.234c-.368 0-.691.09-.969.27a1.84 1.84 0 0 0 -.652.7c-.152.28-.23.6-.233.94v1.06c0 .444.08.826.24 1.14.163.31.39.56.682.73.291.17.633.25 1.02.248.26 0 .499-.36.71-.109.21-.76.4-.187.55-.333.16-.146.27-.327.35-.542l1.68.189a2.61 2.61 0 0 1 -.607 1.16 2.97 2.97 0 0 1 -1.13.766c-.461.18-.988.27-1.58.268zm7.12.005c-.483 0-.919-.086-1.31-.258a2.13 2.13 0 0 1 -.915-.776c-.222-.341-.333-.762-.333-1.26 0-.431.08-.787.24-1.07.159-.281.38-.507.65-.676s.59-.296.93-.383a7.51 7.51 0 0 1 1.08-.193c.448-.47.81-.088 1.09-.125.28-.4.48-.99.61-.179.13-.83.19-.21.19-.383v-.029c0-.375-.111-.665-.333-.87-.222-.206-.542-.309-.96-.309-.441 0-.79.1-1.05.289a1.43 1.43 0 0 0 -.517.68l-1.68-.239c.132-.464.35-.852.66-1.16a2.86 2.86 0 0 1 1.12-.706 4.28 4.28 0 0 1 1.46-.239c.368 0 .734.04 1.1.129.36.87.7.23.428.3.196.54.462.73.8.19" fill="#fff"/></g></svg>