<svg width="89" height="58" viewBox="0 0 89 58" fill="none" xmlns="http://www.w3.org/2000/svg">
<path d="M2.33465 12.7399C2.22798 12.7399 2.12132 12.7066 2.01465 12.6399C1.92132 12.5733 1.86132 12.4799 1.83465 12.3599C1.80798 12.2666 1.78798 12.1599 1.77465 12.0399C1.76132 11.9333 1.75465 11.8133 1.75465 11.6799C1.75465 11.2266 1.80798 10.6866 1.91465 10.0599C2.03465 9.43327 2.15465 8.77327 2.27465 8.07994C2.42132 7.26661 2.56798 6.55327 2.71465 5.93994C2.87465 5.32661 3.03465 4.75327 3.19465 4.21994C3.36798 3.68661 3.54132 3.13327 3.71465 2.55994C3.76798 2.39994 3.84798 2.27994 3.95465 2.19994C4.06132 2.11994 4.16132 2.07994 4.25465 2.07994C4.41465 2.07994 4.49465 2.16661 4.49465 2.33994C4.49465 2.40661 4.48798 2.45994 4.47465 2.49994L4.45465 2.51994C4.17465 3.43994 3.93465 4.26661 3.73465 4.99994C3.54798 5.73327 3.36132 6.53994 3.17465 7.41994C3.04132 8.00661 2.92132 8.58661 2.81465 9.15994C2.72132 9.71994 2.68132 10.2399 2.69465 10.7199C3.08132 10.1199 3.47465 9.52661 3.87465 8.93994C4.27465 8.33994 4.64132 7.79994 4.97465 7.31994C5.64132 6.34661 6.39465 5.41327 7.23465 4.51994C8.08798 3.62661 8.97465 2.79994 9.89465 2.03994C9.93465 1.99994 9.98798 1.97327 10.0547 1.95994C10.1213 1.94661 10.1813 1.93994 10.2347 1.93994C10.4213 1.93994 10.6013 1.99994 10.7747 2.11994C10.948 2.22661 11.0213 2.35994 10.9947 2.51994C10.9813 2.78661 10.9413 2.99327 10.8747 3.13994C10.808 3.28661 10.7413 3.41994 10.6747 3.53994C10.608 3.64661 10.548 3.79994 10.4947 3.99994C10.4147 4.37327 10.3413 4.80661 10.2747 5.29994C10.208 5.79327 10.1747 6.29327 10.1747 6.79994C10.1747 7.54661 10.268 8.23994 10.4547 8.87994C10.6547 9.51994 11.0013 9.94661 11.4947 10.1599C11.6547 10.2266 11.8147 10.2599 11.9747 10.2599C12.4547 10.2599 12.9747 10.0599 13.5347 9.65994C14.108 9.24661 14.6013 8.69994 15.0147 8.01994C15.628 7.04661 16.1213 6.15994 16.4947 5.35994C16.8813 4.55994 17.1813 3.78661 17.3947 3.03994C17.608 2.27994 17.7547 1.47327 17.8347 0.619941C17.8747 0.206608 18.0013 -5.8651e-05 18.2147 -5.8651e-05C18.348 -5.8651e-05 18.468 0.0999413 18.5747 0.299941C18.628 0.393274 18.6547 0.566607 18.6547 0.81994C18.6547 1.17994 18.5947 1.65994 18.4747 2.25994C18.3547 2.84661 18.1613 3.51327 17.8947 4.25994C17.6413 4.99327 17.3147 5.75994 16.9147 6.55994C16.528 7.35994 16.0547 8.13994 15.4947 8.89994C14.9347 9.65994 14.268 10.2466 13.4947 10.6599C12.7213 11.0733 11.968 11.2466 11.2347 11.1799C10.7947 11.1399 10.4413 10.9866 10.1747 10.7199C9.92132 10.4399 9.72798 10.0999 9.59465 9.69994C9.47465 9.29994 9.39465 8.87994 9.35465 8.43994C9.31465 7.98661 9.29465 7.55994 9.29465 7.15994V6.45994C9.29465 6.16661 9.32132 5.79327 9.37465 5.33994C9.44132 4.88661 9.51465 4.43327 9.59465 3.97994C9.67465 3.51327 9.72798 3.14661 9.75465 2.87994C9.28798 3.30661 8.78798 3.83994 8.25465 4.47994C7.72132 5.10661 7.20798 5.74661 6.71465 6.39994C6.23465 7.05327 5.82132 7.62661 5.47465 8.11994C5.02132 8.77327 4.56132 9.47994 4.09465 10.2399C3.64132 10.9866 3.18132 11.7466 2.71465 12.5199C2.62132 12.6666 2.49465 12.7399 2.33465 12.7399ZM20.1292 11.5599C20.0492 11.5599 19.9692 11.5599 19.8892 11.5599C19.8092 11.5466 19.7292 11.5333 19.6492 11.5199C19.1025 11.4533 18.6758 11.1933 18.3692 10.7399C18.0758 10.2733 17.9292 9.75327 17.9292 9.17994C17.9292 8.80661 18.0025 8.41327 18.1492 7.99994C18.3092 7.57327 18.5558 7.18661 18.8892 6.83994C19.2225 6.47994 19.6092 6.19327 20.0492 5.97994C20.4892 5.76661 20.9358 5.65994 21.3892 5.65994C21.6158 5.65994 21.8292 5.68661 22.0292 5.73994C22.2425 5.79327 22.3492 5.89994 22.3492 6.05994C22.3492 6.16661 22.2892 6.27327 22.1692 6.37994C22.0625 6.47327 21.9158 6.49994 21.7292 6.45994C21.6758 6.44661 21.5892 6.43994 21.4692 6.43994C21.1492 6.43994 20.8225 6.52661 20.4892 6.69994C20.1558 6.87327 19.8558 7.10661 19.5892 7.39994C19.3225 7.67994 19.1292 7.99327 19.0092 8.33994C18.9158 8.60661 18.8692 8.87327 18.8692 9.13994C18.8692 9.55327 18.9625 9.90661 19.1492 10.1999C19.3492 10.4933 19.5758 10.6399 19.8292 10.6399C19.8958 10.6533 19.9558 10.6599 20.0092 10.6599C20.0758 10.6599 20.1358 10.6599 20.1892 10.6599C20.7758 10.6599 21.3358 10.4999 21.8692 10.1799C22.4158 9.84661 22.8358 9.48661 23.1292 9.09994C23.2758 8.87327 23.3758 8.67327 23.4292 8.49994C23.4825 8.31327 23.5092 8.15994 23.5092 8.03994C23.5092 7.77327 23.4292 7.59327 23.2692 7.49994C23.1092 7.40661 22.9625 7.36661 22.8292 7.37994C22.6158 7.40661 22.4092 7.43994 22.2092 7.47994C22.0092 7.50661 21.8358 7.55327 21.6892 7.61994C21.6092 7.64661 21.5492 7.65994 21.5092 7.65994C21.3758 7.65994 21.2625 7.60661 21.1692 7.49994C21.0892 7.39327 21.0492 7.27994 21.0492 7.15994C21.0492 6.94661 21.1492 6.80661 21.3492 6.73994C21.5358 6.67327 21.7558 6.61327 22.0092 6.55994C22.2625 6.50661 22.5225 6.46661 22.7892 6.43994C22.8425 6.42661 22.8892 6.41994 22.9292 6.41994C22.9692 6.41994 23.0158 6.41994 23.0692 6.41994C23.5492 6.41994 23.9225 6.56661 24.1892 6.85994C24.4558 7.13994 24.5892 7.48661 24.5892 7.89994C24.5892 8.15327 24.5292 8.42661 24.4092 8.71994C24.2892 9.01327 24.0958 9.29327 23.8292 9.55994C23.5892 9.86661 23.2825 10.1733 22.9092 10.4799C22.5358 10.7866 22.1158 11.0466 21.6492 11.2599C21.1825 11.4599 20.6758 11.5599 20.1292 11.5599ZM26.0668 11.6199C25.9468 11.6199 25.8335 11.5733 25.7268 11.4799C25.6335 11.3733 25.5868 11.1999 25.5868 10.9599C25.5868 10.9066 25.5868 10.8533 25.5868 10.7999C25.6002 10.7333 25.6135 10.6666 25.6268 10.5999C25.7468 10.0133 25.9002 9.39327 26.0868 8.73994C26.2868 8.08661 26.4868 7.47327 26.6868 6.89994C26.8868 6.31327 27.0335 5.85327 27.1268 5.51994C27.1935 5.30661 27.2868 5.15327 27.4068 5.05994C27.5402 4.96661 27.6735 4.91994 27.8068 4.91994C27.9535 4.91994 28.0735 4.96661 28.1668 5.05994C28.2735 5.13994 28.3268 5.25327 28.3268 5.39994C28.3268 5.51994 28.2868 5.65327 28.2068 5.79994C28.1268 5.94661 28.0268 6.17994 27.9068 6.49994C27.8002 6.81994 27.6935 7.13994 27.5868 7.45994C27.4802 7.77994 27.3868 8.01994 27.3068 8.17994C27.7735 7.72661 28.1935 7.35327 28.5668 7.05994C28.9402 6.76661 29.4335 6.47994 30.0468 6.19994C30.3135 6.06661 30.6602 5.99994 31.0868 5.99994C31.3935 5.99994 31.7002 6.05994 32.0068 6.17994C32.3135 6.29994 32.5668 6.51327 32.7668 6.81994C32.9668 7.12661 33.0668 7.55994 33.0668 8.11994C33.0668 8.33327 32.9468 8.43994 32.7068 8.43994C32.6135 8.43994 32.5135 8.39994 32.4068 8.31994C32.3135 8.23994 32.2335 8.10661 32.1668 7.91994C32.0735 7.61327 31.9268 7.37327 31.7268 7.19994C31.5402 7.01327 31.2935 6.91994 30.9868 6.91994C30.8002 6.91994 30.5868 6.95994 30.3468 7.03994C30.0535 7.13327 29.6868 7.31327 29.2468 7.57994C28.8068 7.83327 28.3535 8.15327 27.8868 8.53994C27.4335 8.92661 27.0135 9.36661 26.6268 9.85994C26.6268 9.95327 26.6068 10.0599 26.5668 10.1799C26.5402 10.2999 26.5268 10.4333 26.5268 10.5799C26.5268 10.6066 26.5402 10.6733 26.5668 10.7799C26.5935 10.8866 26.6068 10.9933 26.6068 11.0999C26.6068 11.2466 26.5468 11.3733 26.4268 11.4799C26.3202 11.5733 26.2002 11.6199 26.0668 11.6199ZM34.1648 12.5399C33.9781 12.5399 33.7981 12.4733 33.6248 12.3399C33.4515 12.2199 33.3648 11.9999 33.3648 11.6799C33.3648 11.6399 33.3648 11.5999 33.3648 11.5599C33.3648 11.5066 33.3715 11.4533 33.3848 11.3999C33.6781 9.74661 34.0315 8.31994 34.4448 7.11994C34.8581 5.91994 35.2915 4.87327 35.7448 3.97994C36.1981 3.08661 36.6115 2.27994 36.9848 1.55994C37.0915 1.35994 37.2315 1.21327 37.4048 1.11994C37.5915 1.01327 37.7648 0.959941 37.9248 0.959941C38.2181 0.959941 38.3648 1.07327 38.3648 1.29994C38.3648 1.45994 38.2848 1.63994 38.1248 1.83994C37.8448 2.15994 37.5315 2.62661 37.1848 3.23994C36.8515 3.85327 36.5181 4.53994 36.1848 5.29994C35.8515 6.04661 35.5581 6.79994 35.3048 7.55994C35.4115 7.49327 35.5181 7.43327 35.6248 7.37994C35.7315 7.31327 35.8315 7.25327 35.9248 7.19994C36.2448 7.03994 36.6115 6.86661 37.0248 6.67994C37.4515 6.47994 37.8781 6.30661 38.3048 6.15994C38.7315 5.99994 39.1115 5.89327 39.4448 5.83994C39.5115 5.82661 39.5848 5.81327 39.6648 5.79994C39.7581 5.78661 39.8448 5.77994 39.9248 5.77994C40.0181 5.77994 40.0915 5.80661 40.1448 5.85994C40.2115 5.91327 40.2448 6.01327 40.2448 6.15994C40.2448 6.42661 40.1715 6.59994 40.0248 6.67994C39.8915 6.75994 39.7448 6.81327 39.5848 6.83994C39.3315 6.86661 39.0048 6.95327 38.6048 7.09994C38.2181 7.23327 37.8181 7.39327 37.4048 7.57994C37.0048 7.75327 36.6515 7.91994 36.3448 8.07994C36.1581 8.14661 35.9915 8.25327 35.8448 8.39994C35.6981 8.53327 35.5915 8.65327 35.5248 8.75994C35.4581 8.85327 35.4515 8.88661 35.5048 8.85994C35.5448 8.99327 35.6581 9.15994 35.8448 9.35994C36.0315 9.55994 36.2515 9.75994 36.5048 9.95994C36.7715 10.1466 37.0315 10.3199 37.2848 10.4799C37.5515 10.6266 37.7715 10.7333 37.9448 10.7999C38.2515 10.8933 38.4648 11.0066 38.5848 11.1399C38.7181 11.2599 38.7848 11.3733 38.7848 11.4799C38.7848 11.5866 38.7315 11.6799 38.6248 11.7599C38.5315 11.8399 38.4115 11.8799 38.2648 11.8799C38.2115 11.8799 38.1448 11.8666 38.0648 11.8399C37.7715 11.7333 37.3981 11.5666 36.9448 11.3399C36.5048 11.1133 36.0781 10.8466 35.6648 10.5399C35.2515 10.2333 34.9381 9.91994 34.7248 9.59994H34.7048C34.6515 9.89327 34.5848 10.2266 34.5048 10.5999C34.4381 10.9733 34.4115 11.2733 34.4248 11.4999C34.4248 11.5799 34.4781 11.6733 34.5848 11.7799C34.7048 11.8733 34.7648 11.9799 34.7648 12.0999C34.7648 12.2199 34.6915 12.3333 34.5448 12.4399C34.4381 12.5066 34.3115 12.5399 34.1648 12.5399ZM39.7617 12.7199C39.6683 12.7199 39.5617 12.7133 39.4417 12.6999C39.335 12.6866 39.2217 12.6666 39.1017 12.6399C38.9283 12.5999 38.8417 12.4733 38.8417 12.2599C38.8417 12.1399 38.8883 12.0333 38.9817 11.9399C39.075 11.8333 39.2083 11.7933 39.3817 11.8199C39.5283 11.8333 39.7617 11.7999 40.0817 11.7199C40.415 11.6399 40.7817 11.5333 41.1817 11.3999C41.7683 11.1866 42.2483 10.9599 42.6217 10.7199C42.995 10.4799 43.3017 10.1999 43.5417 9.87994C43.795 9.55994 43.9217 9.25327 43.9217 8.95994C43.9217 8.82661 43.895 8.69994 43.8417 8.57994C43.7883 8.44661 43.6883 8.31994 43.5417 8.19994C43.315 7.99994 43.0417 7.81327 42.7217 7.63994C42.4017 7.46661 42.0883 7.28661 41.7817 7.09994C41.475 6.89994 41.215 6.67994 41.0017 6.43994C40.8017 6.18661 40.7017 5.87994 40.7017 5.51994C40.7017 5.19994 40.815 4.92661 41.0417 4.69994C41.2683 4.45994 41.5283 4.26661 41.8217 4.11994C42.1283 3.95994 42.3883 3.84661 42.6017 3.77994C42.815 3.71327 43.0283 3.66661 43.2417 3.63994C43.455 3.59994 43.6683 3.57994 43.8817 3.57994C44.135 3.57994 44.375 3.61327 44.6017 3.67994C44.8417 3.73327 45.0683 3.83327 45.2817 3.97994C45.4017 4.05994 45.4883 4.15327 45.5417 4.25994C45.595 4.36661 45.6217 4.47327 45.6217 4.57994C45.6217 4.72661 45.575 4.85994 45.4817 4.97994C45.4017 5.08661 45.2883 5.13994 45.1417 5.13994C45.035 5.13994 44.895 5.08661 44.7217 4.97994H44.7417C44.4483 4.76661 44.1083 4.65994 43.7217 4.65994C43.5083 4.65994 43.315 4.68661 43.1417 4.73994C42.8617 4.80661 42.5883 4.89327 42.3217 4.99994C42.055 5.10661 41.8883 5.27327 41.8217 5.49994C41.7817 5.67327 41.8817 5.86661 42.1217 6.07994C42.375 6.27994 42.6883 6.48661 43.0617 6.69994C43.435 6.89994 43.7817 7.09994 44.1017 7.29994C44.4083 7.47327 44.655 7.70661 44.8417 7.99994C45.0283 8.29327 45.1217 8.60661 45.1217 8.93994C45.1217 9.35327 44.9683 9.75327 44.6617 10.1399C44.1683 10.7399 43.655 11.2066 43.1217 11.5399C42.6017 11.8733 42.015 12.1466 41.3617 12.3599C41.0017 12.4799 40.7017 12.5666 40.4617 12.6199C40.2217 12.6866 39.9883 12.7199 39.7617 12.7199ZM55.7286 4.27994C55.6619 4.35994 55.5752 4.36661 55.4686 4.29994C55.3752 4.23327 55.2952 4.13327 55.2286 3.99994C55.1619 3.85327 55.1419 3.71327 55.1686 3.57994H55.1886C55.2419 3.37994 55.3086 3.21327 55.3886 3.07994C55.4686 2.94661 55.5752 2.81327 55.7086 2.67994C55.7886 2.59994 55.8952 2.55994 56.0286 2.55994C56.1486 2.55994 56.2552 2.59994 56.3486 2.67994C56.4552 2.74661 56.5086 2.83327 56.5086 2.93994C56.5086 2.99327 56.4886 3.05327 56.4486 3.11994C56.4086 3.17327 56.3286 3.31327 56.2086 3.53994C56.1019 3.76661 55.9419 4.01327 55.7286 4.27994ZM53.2086 11.6599C52.9952 11.6599 52.7819 11.5799 52.5686 11.4199C52.3686 11.2466 52.2886 10.9733 52.3286 10.5999C52.3819 10.0799 52.4552 9.63994 52.5486 9.27994C52.6419 8.91994 52.7486 8.59327 52.8686 8.29994C52.9886 7.99327 53.1152 7.66661 53.2486 7.31994C53.3952 6.97327 53.5419 6.55327 53.6886 6.05994C53.7686 5.83327 53.9352 5.71994 54.1886 5.71994C54.3619 5.71994 54.5152 5.77327 54.6486 5.87994C54.7819 5.98661 54.8219 6.13327 54.7686 6.31994C54.5952 6.87994 54.4219 7.33327 54.2486 7.67994C54.0752 8.02661 53.9152 8.33327 53.7686 8.59994C53.6219 8.85327 53.4952 9.13327 53.3886 9.43994C53.2952 9.73327 53.2352 10.1133 53.2086 10.5799C53.2086 10.6199 53.2952 10.7066 53.4686 10.8399C53.6419 10.9599 53.7286 11.0999 53.7286 11.2599C53.7286 11.3799 53.6619 11.4866 53.5286 11.5799C53.4619 11.6333 53.3552 11.6599 53.2086 11.6599ZM62.4929 12.0999C62.2929 12.0999 62.1063 11.9866 61.9329 11.7599C61.7596 11.5199 61.6729 11.2199 61.6729 10.8599C61.6729 10.6333 61.6929 10.3466 61.7329 9.99994C61.7729 9.65327 61.8329 9.30661 61.9129 8.95994C61.9929 8.59994 62.0863 8.29327 62.1929 8.03994C62.4063 7.55994 62.5129 7.17994 62.5129 6.89994C62.5129 6.55327 62.3529 6.37994 62.0329 6.37994C61.9929 6.37994 61.9463 6.37994 61.8929 6.37994C61.8396 6.37994 61.7863 6.39327 61.7329 6.41994C61.4663 6.49994 61.1063 6.67994 60.6529 6.95994C60.1996 7.22661 59.7196 7.53994 59.2129 7.89994C58.7196 8.25994 58.2529 8.61994 57.8129 8.97994C57.3729 9.33994 57.0329 9.65327 56.7929 9.91994C56.4596 10.2933 56.2396 10.5799 56.1329 10.7799C56.0263 10.9799 55.9729 11.0799 55.9729 11.0799C55.8663 11.2266 55.7463 11.2999 55.6129 11.2999C55.4929 11.2999 55.3929 11.2399 55.3129 11.1199C55.2329 10.9866 55.2129 10.8133 55.2529 10.5999C55.4396 9.50661 55.6396 8.57327 55.8529 7.79994C56.0796 7.02661 56.3396 6.35994 56.6329 5.79994C56.7529 5.58661 56.9196 5.47994 57.1329 5.47994C57.2529 5.47994 57.3596 5.52661 57.4529 5.61994C57.5463 5.69994 57.5929 5.82661 57.5929 5.99994C57.5929 6.09327 57.5529 6.27327 57.4729 6.53994C57.4063 6.80661 57.3196 7.02661 57.2129 7.19994C57.0796 7.41327 56.9663 7.65994 56.8729 7.93994C56.7929 8.20661 56.6929 8.57994 56.5729 9.05994C56.7196 8.83327 56.8463 8.67327 56.9529 8.57994C57.0596 8.47327 57.1996 8.33327 57.3729 8.15994C57.9196 7.61327 58.5663 7.11994 59.3129 6.67994C60.0729 6.22661 60.7996 5.84661 61.4929 5.53994C61.6396 5.47327 61.8263 5.40661 62.0529 5.33994C62.2796 5.27327 62.5063 5.23994 62.7329 5.23994C62.9996 5.23994 63.2396 5.31327 63.4529 5.45994C63.6663 5.60661 63.7729 5.88661 63.7729 6.29994C63.7729 6.51327 63.7329 6.77327 63.6529 7.07994C63.5863 7.38661 63.4663 7.74661 63.2929 8.15994C63.0796 8.65327 62.9396 9.16661 62.8729 9.69994C62.8196 10.2333 62.7929 10.6866 62.7929 11.0599C62.7929 11.1666 62.7929 11.2733 62.7929 11.3799C62.8063 11.4733 62.8129 11.5599 62.8129 11.6399C62.8129 11.7733 62.7929 11.8799 62.7529 11.9599C62.7129 12.0533 62.6263 12.0999 62.4929 12.0999ZM71.8506 11.4999C71.4773 11.4999 71.1106 11.4199 70.7506 11.2599C70.4039 11.0999 70.1173 10.8799 69.8906 10.5999C69.6639 10.3199 69.5506 9.99994 69.5506 9.63994C69.5506 9.10661 69.6906 8.63994 69.9706 8.23994C70.2506 7.83994 70.6039 7.49994 71.0306 7.21994C71.4706 6.93994 71.9173 6.72661 72.3706 6.57994C72.8106 6.43327 73.2906 6.35994 73.8106 6.35994C74.3573 6.35994 74.8839 6.45994 75.3906 6.65994C75.9106 6.84661 76.2773 7.17327 76.4906 7.63994C76.5973 7.29327 76.6773 6.95327 76.7306 6.61994C76.7839 6.27327 76.8106 5.97327 76.8106 5.71994C76.8106 5.29327 76.7239 4.96661 76.5506 4.73994C76.3906 4.51327 76.0973 4.39994 75.6706 4.39994C75.4973 4.39994 75.2973 4.46661 75.0706 4.59994C74.8439 4.71994 74.6239 4.87994 74.4106 5.07994C74.3306 5.15994 74.2706 5.21327 74.2306 5.23994C74.2039 5.26661 74.1306 5.27994 74.0106 5.27994C73.8773 5.27994 73.7706 5.23327 73.6906 5.13994C73.6239 5.04661 73.5906 4.93994 73.5906 4.81994C73.5906 4.65994 73.6506 4.51994 73.7706 4.39994C73.8906 4.27994 74.0239 4.14661 74.1706 3.99994C74.3173 3.85327 74.5039 3.72661 74.7306 3.61994C74.9706 3.49994 75.2706 3.43994 75.6306 3.43994C76.3773 3.43994 76.9239 3.61327 77.2706 3.95994C77.6173 4.30661 77.7906 4.87327 77.7906 5.65994C77.7906 6.04661 77.7373 6.44661 77.6306 6.85994C77.5373 7.27327 77.4239 7.71327 77.2906 8.17994C77.2106 8.47327 77.0973 8.80661 76.9506 9.17994C76.8173 9.53994 76.6439 9.89994 76.4306 10.2599C76.2173 10.6199 75.9573 10.9266 75.6506 11.1799C75.5573 11.2599 75.4573 11.2999 75.3506 11.2999C75.2173 11.2999 75.1039 11.2533 75.0106 11.1599C74.9173 11.0666 74.8706 10.9599 74.8706 10.8399C74.8706 10.7199 74.9306 10.5999 75.0506 10.4799C75.1973 10.3599 75.3506 10.1666 75.5106 9.89994C75.6839 9.63327 75.8439 9.29994 75.9906 8.89994C75.9506 8.35327 75.6906 7.95327 75.2106 7.69994C74.7439 7.44661 74.2239 7.31994 73.6506 7.31994C73.3173 7.31994 72.9973 7.35994 72.6906 7.43994C72.3573 7.53327 72.0239 7.69327 71.6906 7.91994C71.3573 8.13327 71.0773 8.38661 70.8506 8.67994C70.6373 8.97327 70.5306 9.27994 70.5306 9.59994C70.5306 9.85327 70.6573 10.0799 70.9106 10.2799C71.1773 10.4799 71.4906 10.5799 71.8506 10.5799C72.1573 10.5799 72.3973 10.5733 72.5706 10.5599C72.7573 10.5466 72.9306 10.5066 73.0906 10.4399C73.2639 10.3599 73.4839 10.2199 73.7506 10.0199C73.8706 9.93994 73.9706 9.89994 74.0506 9.89994C74.1573 9.89994 74.2439 9.93327 74.3106 9.99994C74.3773 10.0666 74.4106 10.1533 74.4106 10.2599C74.4106 10.4066 74.3373 10.5333 74.1906 10.6399C73.7373 11.0133 73.3373 11.2533 72.9906 11.3599C72.6573 11.4533 72.2773 11.4999 71.8506 11.4999ZM79.5136 12.5199C79.3002 12.5199 79.0869 12.4333 78.8736 12.2599C78.6736 12.0999 78.5869 11.8333 78.6136 11.4599C78.6536 11.1133 78.7469 10.6533 78.8936 10.0799C79.0536 9.49327 79.2536 8.84661 79.4936 8.13994C79.7469 7.43327 80.0136 6.70661 80.2936 5.95994C80.5869 5.19994 80.8802 4.46661 81.1736 3.75994C81.4669 3.03994 81.7469 2.39327 82.0136 1.81994C82.2802 1.23327 82.5069 0.759941 82.6936 0.399941C82.8136 0.186607 82.9802 0.0799403 83.1936 0.0799403C83.3136 0.0799403 83.4202 0.126607 83.5136 0.219941C83.6069 0.299941 83.6536 0.419941 83.6536 0.579941C83.6536 0.633274 83.6336 0.746608 83.5936 0.919941C83.5669 1.09327 83.5202 1.27327 83.4536 1.45994C83.4002 1.64661 83.3402 1.79994 83.2736 1.91994C83.1402 2.13327 82.9802 2.35327 82.7936 2.57994C82.6069 2.80661 82.4402 3.07327 82.2936 3.37994C81.9736 4.07327 81.6536 4.80661 81.3336 5.57994C81.0136 6.33994 80.7202 7.08661 80.4536 7.81994C80.1869 8.55327 79.9669 9.21327 79.7936 9.79994C79.6336 10.3866 79.5402 10.8533 79.5136 11.1999C79.5136 11.2933 79.5536 11.3933 79.6336 11.4999C79.7269 11.6066 79.8136 11.7133 79.8936 11.8199C79.9869 11.9266 80.0336 12.0333 80.0336 12.1399C80.0336 12.2466 79.9669 12.3466 79.8336 12.4399C79.7669 12.4933 79.6602 12.5199 79.5136 12.5199ZM83.3518 12.5199C83.1385 12.5199 82.9252 12.4333 82.7118 12.2599C82.5118 12.0999 82.4252 11.8333 82.4518 11.4599C82.4918 11.1133 82.5852 10.6533 82.7318 10.0799C82.8918 9.49327 83.0918 8.84661 83.3318 8.13994C83.5852 7.43327 83.8518 6.70661 84.1318 5.95994C84.4252 5.19994 84.7185 4.46661 85.0118 3.75994C85.3052 3.03994 85.5852 2.39327 85.8518 1.81994C86.1185 1.23327 86.3452 0.759941 86.5318 0.399941C86.6518 0.186607 86.8185 0.0799403 87.0318 0.0799403C87.1518 0.0799403 87.2585 0.126607 87.3518 0.219941C87.4452 0.299941 87.4918 0.419941 87.4918 0.579941C87.4918 0.633274 87.4718 0.746608 87.4318 0.919941C87.4052 1.09327 87.3585 1.27327 87.2918 1.45994C87.2385 1.64661 87.1785 1.79994 87.1118 1.91994C86.9785 2.13327 86.8185 2.35327 86.6318 2.57994C86.4452 2.80661 86.2785 3.07327 86.1318 3.37994C85.8118 4.07327 85.4918 4.80661 85.1718 5.57994C84.8518 6.33994 84.5585 7.08661 84.2918 7.81994C84.0252 8.55327 83.8052 9.21327 83.6318 9.79994C83.4718 10.3866 83.3785 10.8533 83.3518 11.1999C83.3518 11.2933 83.3918 11.3933 83.4718 11.4999C83.5652 11.6066 83.6518 11.7133 83.7318 11.8199C83.8252 11.9266 83.8718 12.0333 83.8718 12.1399C83.8718 12.2466 83.8052 12.3466 83.6718 12.4399C83.6052 12.4933 83.4985 12.5199 83.3518 12.5199ZM4.01762 32.7399C3.28428 32.7399 2.59762 32.6066 1.95762 32.3399C1.33095 32.0733 0.817618 31.6866 0.417618 31.1799C0.377618 31.1133 0.357618 31.0533 0.357618 30.9999C0.357618 30.8666 0.430951 30.7466 0.577618 30.6399C0.724285 30.5333 0.870951 30.4799 1.01762 30.4799C1.16428 30.4799 1.27762 30.5266 1.35762 30.6199C1.67762 31.0333 2.07095 31.3399 2.53762 31.5399C3.01762 31.7266 3.52428 31.8199 4.05762 31.8199C4.16428 31.8199 4.27095 31.8199 4.37762 31.8199C4.48428 31.8066 4.59095 31.7933 4.69762 31.7799C5.24428 31.6999 5.79095 31.5199 6.33762 31.2399C6.88428 30.9599 7.37762 30.5466 7.81762 29.9999C8.27095 29.4533 8.61095 28.7333 8.83762 27.8399C8.86429 27.7066 8.88429 27.5866 8.89762 27.4799C8.92429 27.3599 8.93762 27.2466 8.93762 27.1399C8.93762 26.5933 8.70429 26.1733 8.23762 25.8799C7.78428 25.5866 7.09095 25.3733 6.15762 25.2399C5.78429 25.1733 5.35095 25.1399 4.85762 25.1399C4.36428 25.1266 3.83762 25.1199 3.27762 25.1199C3.06428 25.1199 2.89762 25.0666 2.77762 24.9599C2.67095 24.8533 2.61762 24.7133 2.61762 24.5399C2.61762 24.4999 2.61762 24.4599 2.61762 24.4199C2.63095 24.3799 2.64428 24.3333 2.65762 24.2799V24.2399C2.77762 24.0133 2.97762 23.6733 3.25762 23.2199C3.53762 22.7666 3.92428 22.2066 4.41762 21.5399V21.5999C4.64428 21.3199 4.89095 21.0133 5.15762 20.6799C5.42428 20.3333 5.73095 20.0933 6.07762 19.9599C6.97095 19.9599 7.75095 19.9599 8.41762 19.9599C9.08428 19.9466 9.65762 19.9399 10.1376 19.9399C10.591 19.9399 10.991 19.9599 11.3376 19.9999C11.6976 20.0399 12.0043 20.1333 12.2576 20.2799C12.4043 20.3466 12.4776 20.4599 12.4776 20.6199C12.4776 20.7533 12.4176 20.8799 12.2976 20.9999C12.1776 21.1199 12.0376 21.1799 11.8776 21.1799C11.851 21.1799 11.8176 21.1799 11.7776 21.1799C11.7376 21.1666 11.7043 21.1533 11.6776 21.1399C11.4643 21.0333 11.2243 20.9666 10.9576 20.9399C10.7043 20.8999 10.3843 20.8799 9.99762 20.8799H6.07762C5.95762 21.0533 5.77762 21.2799 5.53762 21.5599C5.31095 21.8399 5.10428 22.1333 4.91762 22.4399L4.89762 22.4599C4.68428 22.7533 4.48428 23.0599 4.29762 23.3799C4.12428 23.6866 3.98428 23.9599 3.87762 24.1999C4.38428 24.1999 4.85762 24.2066 5.29762 24.2199C5.75095 24.2199 6.14429 24.2466 6.47762 24.2999C7.63762 24.4466 8.52428 24.7533 9.13762 25.2199C9.75095 25.6733 10.0576 26.2866 10.0576 27.0599C10.0576 27.3266 10.0176 27.6199 9.93762 27.9399C9.67095 28.9533 9.25762 29.7999 8.69762 30.4799C8.15095 31.1466 7.53762 31.6599 6.85762 32.0199C6.17762 32.3799 5.49095 32.6066 4.79762 32.6999C4.66428 32.7133 4.53095 32.7199 4.39762 32.7199C4.27762 32.7333 4.15095 32.7399 4.01762 32.7399ZM14.4281 32.6799C13.7881 32.6799 13.2681 32.5266 12.8681 32.2199C12.4681 31.9266 12.1748 31.5333 11.9881 31.0399C11.8148 30.5333 11.7281 29.9866 11.7281 29.3999C11.7281 28.9066 11.7814 28.4066 11.8881 27.8999C12.0081 27.3799 12.1681 26.8933 12.3681 26.4399V26.4199C12.8748 25.3799 13.4681 24.4333 14.1481 23.5799C14.8414 22.7266 15.5614 21.9999 16.3081 21.3999C17.0548 20.7999 17.7814 20.3466 18.4881 20.0399C19.2081 19.7333 19.8481 19.6066 20.4081 19.6599C21.1548 19.8066 21.6814 20.1866 21.9881 20.7999C22.2948 21.3999 22.4481 22.0999 22.4481 22.8999C22.4481 23.5133 22.3748 24.1533 22.2281 24.8199C22.0948 25.4733 21.9148 26.0999 21.6881 26.6999V26.7199C21.4614 27.3333 21.1414 27.9866 20.7281 28.6799C20.3148 29.3733 19.8081 30.0266 19.2081 30.6399C18.6081 31.2399 17.9081 31.7266 17.1081 32.0999C16.3214 32.4866 15.4348 32.6799 14.4481 32.6799H14.4281ZM14.4881 31.9999C15.2481 31.9999 15.9481 31.8266 16.5881 31.4799C17.2414 31.1199 17.8281 30.6666 18.3481 30.1199C18.8814 29.5599 19.3348 28.9599 19.7081 28.3199C20.0948 27.6799 20.3948 27.0799 20.6081 26.5199C20.8481 25.8933 21.0414 25.2333 21.1881 24.5399C21.3481 23.8333 21.4281 23.1799 21.4281 22.5799C21.4281 21.9666 21.3281 21.4533 21.1281 21.0399C20.9414 20.6266 20.6281 20.4066 20.1881 20.3799C20.1481 20.3666 20.0948 20.3599 20.0281 20.3599C19.7348 20.3599 19.3681 20.4799 18.9281 20.7199C18.4881 20.9599 18.0081 21.2866 17.4881 21.6999C16.9681 22.1133 16.4481 22.5933 15.9281 23.1399C15.4081 23.6733 14.9214 24.2466 14.4681 24.8599C14.0281 25.4599 13.6614 26.0666 13.3681 26.6799C13.1548 27.1333 12.9948 27.5999 12.8881 28.0799C12.7814 28.5599 12.7281 29.0199 12.7281 29.4599C12.7281 30.1666 12.8748 30.7666 13.1681 31.2599C13.4614 31.7533 13.9014 31.9999 14.4881 31.9999ZM28.1257 32.7199C28.0324 32.7199 27.9257 32.7133 27.8057 32.6999C27.6991 32.6866 27.5857 32.6666 27.4657 32.6399C27.2924 32.5999 27.2057 32.4733 27.2057 32.2599C27.2057 32.1399 27.2524 32.0333 27.3457 31.9399C27.4391 31.8333 27.5724 31.7933 27.7457 31.8199C27.8924 31.8333 28.1257 31.7999 28.4457 31.7199C28.7791 31.6399 29.1457 31.5333 29.5457 31.3999C30.1324 31.1866 30.6124 30.9599 30.9857 30.7199C31.3591 30.4799 31.6657 30.1999 31.9057 29.8799C32.1591 29.5599 32.2857 29.2533 32.2857 28.9599C32.2857 28.8266 32.2591 28.6999 32.2057 28.5799C32.1524 28.4466 32.0524 28.3199 31.9057 28.1999C31.6791 27.9999 31.4057 27.8133 31.0857 27.6399C30.7657 27.4666 30.4524 27.2866 30.1457 27.0999C29.8391 26.8999 29.5791 26.6799 29.3657 26.4399C29.1657 26.1866 29.0657 25.8799 29.0657 25.5199C29.0657 25.1999 29.1791 24.9266 29.4057 24.6999C29.6324 24.4599 29.8924 24.2666 30.1857 24.1199C30.4924 23.9599 30.7524 23.8466 30.9657 23.7799C31.1791 23.7133 31.3924 23.6666 31.6057 23.6399C31.8191 23.5999 32.0324 23.5799 32.2457 23.5799C32.4991 23.5799 32.7391 23.6133 32.9657 23.6799C33.2057 23.7333 33.4324 23.8333 33.6457 23.9799C33.7657 24.0599 33.8524 24.1533 33.9057 24.2599C33.9591 24.3666 33.9857 24.4733 33.9857 24.5799C33.9857 24.7266 33.9391 24.8599 33.8457 24.9799C33.7657 25.0866 33.6524 25.1399 33.5057 25.1399C33.3991 25.1399 33.2591 25.0866 33.0857 24.9799H33.1057C32.8124 24.7666 32.4724 24.6599 32.0857 24.6599C31.8724 24.6599 31.6791 24.6866 31.5057 24.7399C31.2257 24.8066 30.9524 24.8933 30.6857 24.9999C30.4191 25.1066 30.2524 25.2733 30.1857 25.4999C30.1457 25.6733 30.2457 25.8666 30.4857 26.0799C30.7391 26.2799 31.0524 26.4866 31.4257 26.6999C31.7991 26.8999 32.1457 27.0999 32.4657 27.2999C32.7724 27.4733 33.0191 27.7066 33.2057 27.9999C33.3924 28.2933 33.4857 28.6066 33.4857 28.9399C33.4857 29.3533 33.3324 29.7533 33.0257 30.1399C32.5324 30.7399 32.0191 31.2066 31.4857 31.5399C30.9657 31.8733 30.3791 32.1466 29.7257 32.3599C29.3657 32.4799 29.0657 32.5666 28.8257 32.6199C28.5857 32.6866 28.3524 32.7199 28.1257 32.7199ZM37.5942 33.0399C37.5408 33.0399 37.4942 33.0333 37.4542 33.0199C37.4142 33.0199 37.3675 33.0133 37.3142 32.9999C36.9408 32.9066 36.5742 32.7599 36.2142 32.5599C35.8675 32.3599 35.5808 32.0666 35.3542 31.6799C35.1275 31.2799 35.0142 30.7599 35.0142 30.1199C35.0142 29.8666 35.0342 29.5933 35.0742 29.2999C35.1408 28.8333 35.2608 28.2866 35.4342 27.6599C35.6208 27.0199 35.8408 26.3533 36.0942 25.6599H36.0742C35.9942 25.6599 35.9208 25.6733 35.8542 25.6999C35.7875 25.7266 35.7208 25.7399 35.6542 25.7399C35.4408 25.7399 35.3342 25.6133 35.3342 25.3599C35.3342 25.2133 35.3942 25.0733 35.5142 24.9399C35.6342 24.8066 35.7475 24.7399 35.8542 24.7399L36.4542 24.7199C36.7875 23.8533 37.1208 23.0333 37.4542 22.2599C37.8008 21.4733 38.0942 20.8533 38.3342 20.3999C38.4008 20.2799 38.4942 20.1933 38.6142 20.1399C38.7475 20.0733 38.8808 20.0399 39.0142 20.0399C39.1475 20.0399 39.2608 20.0733 39.3542 20.1399C39.4608 20.1933 39.5142 20.2733 39.5142 20.3799C39.5142 20.4066 39.5008 20.4599 39.4742 20.5399L38.2342 23.2399C38.1142 23.4933 38.0008 23.7333 37.8942 23.9599C37.8008 24.1866 37.7008 24.4133 37.5942 24.6399C37.8608 24.6399 38.1342 24.6466 38.4142 24.6599C38.7075 24.6733 39.0342 24.6999 39.3942 24.7399C39.4608 24.7533 39.5275 24.7999 39.5942 24.8799C39.6608 24.9599 39.6942 25.0466 39.6942 25.1399C39.6942 25.2066 39.6675 25.2733 39.6142 25.3399C39.5742 25.3933 39.4808 25.4266 39.3342 25.4399C39.0142 25.4799 38.6608 25.5066 38.2742 25.5199C37.8875 25.5199 37.5408 25.5266 37.2342 25.5399C36.9275 26.3533 36.6808 27.0933 36.4942 27.7599C36.3208 28.4266 36.1808 29.0533 36.0742 29.6399C36.0608 29.7333 36.0475 29.8266 36.0342 29.9199C36.0342 30.0133 36.0342 30.0999 36.0342 30.1799C36.0342 30.7799 36.1942 31.2266 36.5142 31.5199C36.8342 31.8133 37.1942 32.0199 37.5942 32.1399C37.8342 32.2199 38.0008 32.2999 38.0942 32.3799C38.2008 32.4733 38.2542 32.5599 38.2542 32.6399C38.2542 32.7466 38.1875 32.8399 38.0542 32.9199C37.9342 32.9999 37.7808 33.0399 37.5942 33.0399ZM41.4732 31.4999C41.0999 31.4999 40.7332 31.4199 40.3732 31.2599C40.0266 31.0999 39.7399 30.8799 39.5132 30.5999C39.2866 30.3199 39.1732 29.9999 39.1732 29.6399C39.1732 29.1066 39.3132 28.6399 39.5932 28.2399C39.8732 27.8399 40.2266 27.4999 40.6532 27.2199C41.0932 26.9399 41.5399 26.7266 41.9932 26.5799C42.4332 26.4333 42.9132 26.3599 43.4332 26.3599C43.9799 26.3599 44.5066 26.4599 45.0132 26.6599C45.5332 26.8466 45.8999 27.1733 46.1132 27.6399C46.2199 27.2933 46.2999 26.9533 46.3532 26.6199C46.4066 26.2733 46.4332 25.9733 46.4332 25.7199C46.4332 25.2933 46.3466 24.9666 46.1732 24.7399C46.0132 24.5133 45.7199 24.3999 45.2932 24.3999C45.1199 24.3999 44.9199 24.4666 44.6932 24.5999C44.4666 24.7199 44.2466 24.8799 44.0332 25.0799C43.9532 25.1599 43.8932 25.2133 43.8532 25.2399C43.8266 25.2666 43.7532 25.2799 43.6332 25.2799C43.4999 25.2799 43.3932 25.2333 43.3132 25.1399C43.2466 25.0466 43.2132 24.9399 43.2132 24.8199C43.2132 24.6599 43.2732 24.5199 43.3932 24.3999C43.5132 24.2799 43.6466 24.1466 43.7932 23.9999C43.9399 23.8533 44.1266 23.7266 44.3532 23.6199C44.5932 23.4999 44.8932 23.4399 45.2532 23.4399C45.9999 23.4399 46.5466 23.6133 46.8932 23.9599C47.2399 24.3066 47.4132 24.8733 47.4132 25.6599C47.4132 26.0466 47.3599 26.4466 47.2532 26.8599C47.1599 27.2733 47.0466 27.7133 46.9132 28.1799C46.8332 28.4733 46.7199 28.8066 46.5732 29.1799C46.4399 29.5399 46.2666 29.8999 46.0532 30.2599C45.8399 30.6199 45.5799 30.9266 45.2732 31.1799C45.1799 31.2599 45.0799 31.2999 44.9732 31.2999C44.8399 31.2999 44.7266 31.2533 44.6332 31.1599C44.5399 31.0666 44.4932 30.9599 44.4932 30.8399C44.4932 30.7199 44.5532 30.5999 44.6732 30.4799C44.8199 30.3599 44.9732 30.1666 45.1332 29.8999C45.3066 29.6333 45.4666 29.2999 45.6132 28.8999C45.5732 28.3533 45.3132 27.9533 44.8332 27.6999C44.3666 27.4466 43.8466 27.3199 43.2732 27.3199C42.9399 27.3199 42.6199 27.3599 42.3132 27.4399C41.9799 27.5333 41.6466 27.6933 41.3132 27.9199C40.9799 28.1333 40.6999 28.3866 40.4732 28.6799C40.2599 28.9733 40.1532 29.2799 40.1532 29.5999C40.1532 29.8533 40.2799 30.0799 40.5332 30.2799C40.7999 30.4799 41.1132 30.5799 41.4732 30.5799C41.7799 30.5799 42.0199 30.5733 42.1932 30.5599C42.3799 30.5466 42.5532 30.5066 42.7132 30.4399C42.8866 30.3599 43.1066 30.2199 43.3732 30.0199C43.4932 29.9399 43.5932 29.8999 43.6732 29.8999C43.7799 29.8999 43.8666 29.9333 43.9332 29.9999C43.9999 30.0666 44.0332 30.1533 44.0332 30.2599C44.0332 30.4066 43.9599 30.5333 43.8132 30.6399C43.3599 31.0133 42.9599 31.2533 42.6132 31.3599C42.2799 31.4533 41.8999 31.4999 41.4732 31.4999ZM50.8762 33.0399C50.8229 33.0399 50.7762 33.0333 50.7362 33.0199C50.6962 33.0199 50.6495 33.0133 50.5962 32.9999C50.2229 32.9066 49.8562 32.7599 49.4962 32.5599C49.1495 32.3599 48.8629 32.0666 48.6362 31.6799C48.4095 31.2799 48.2962 30.7599 48.2962 30.1199C48.2962 29.8666 48.3162 29.5933 48.3562 29.2999C48.4229 28.8333 48.5429 28.2866 48.7162 27.6599C48.9029 27.0199 49.1229 26.3533 49.3762 25.6599H49.3562C49.2762 25.6599 49.2029 25.6733 49.1362 25.6999C49.0695 25.7266 49.0029 25.7399 48.9362 25.7399C48.7229 25.7399 48.6162 25.6133 48.6162 25.3599C48.6162 25.2133 48.6762 25.0733 48.7962 24.9399C48.9162 24.8066 49.0295 24.7399 49.1362 24.7399L49.7362 24.7199C50.0695 23.8533 50.4029 23.0333 50.7362 22.2599C51.0829 21.4733 51.3762 20.8533 51.6162 20.3999C51.6829 20.2799 51.7762 20.1933 51.8962 20.1399C52.0295 20.0733 52.1629 20.0399 52.2962 20.0399C52.4295 20.0399 52.5429 20.0733 52.6362 20.1399C52.7429 20.1933 52.7962 20.2733 52.7962 20.3799C52.7962 20.4066 52.7829 20.4599 52.7562 20.5399L51.5162 23.2399C51.3962 23.4933 51.2829 23.7333 51.1762 23.9599C51.0829 24.1866 50.9829 24.4133 50.8762 24.6399C51.1429 24.6399 51.4162 24.6466 51.6962 24.6599C51.9895 24.6733 52.3162 24.6999 52.6762 24.7399C52.7429 24.7533 52.8095 24.7999 52.8762 24.8799C52.9429 24.9599 52.9762 25.0466 52.9762 25.1399C52.9762 25.2066 52.9495 25.2733 52.8962 25.3399C52.8562 25.3933 52.7629 25.4266 52.6162 25.4399C52.2962 25.4799 51.9429 25.5066 51.5562 25.5199C51.1695 25.5199 50.8229 25.5266 50.5162 25.5399C50.2095 26.3533 49.9629 27.0933 49.7762 27.7599C49.6029 28.4266 49.4629 29.0533 49.3562 29.6399C49.3429 29.7333 49.3295 29.8266 49.3162 29.9199C49.3162 30.0133 49.3162 30.0999 49.3162 30.1799C49.3162 30.7799 49.4762 31.2266 49.7962 31.5199C50.1162 31.8133 50.4762 32.0199 50.8762 32.1399C51.1162 32.2199 51.2829 32.2999 51.3762 32.3799C51.4829 32.4733 51.5362 32.5599 51.5362 32.6399C51.5362 32.7466 51.4695 32.8399 51.3362 32.9199C51.2162 32.9999 51.0629 33.0399 50.8762 33.0399ZM55.4353 33.0799C55.3286 33.0799 55.2019 33.0599 55.0553 33.0199C54.2419 32.7533 53.6486 32.3133 53.2753 31.6999C52.9019 31.0733 52.7153 30.4133 52.7153 29.7199C52.7153 29.6133 52.7153 29.5133 52.7153 29.4199C52.7286 29.3133 52.7419 29.2133 52.7553 29.1199C52.8753 28.3599 53.1286 27.6866 53.5153 27.0999C53.9153 26.5133 54.3619 26.0333 54.8553 25.6599C55.3619 25.2733 55.8219 25.0266 56.2353 24.9199C56.5019 24.8533 56.7686 24.7999 57.0353 24.7599C57.3019 24.7066 57.5619 24.6799 57.8153 24.6799C58.4553 24.6799 59.0019 24.8199 59.4553 25.0999C59.9086 25.3799 60.1353 25.8399 60.1353 26.4799C60.1353 26.8399 60.0219 27.1666 59.7953 27.4599C59.5819 27.7533 59.3086 28.0066 58.9753 28.2199C58.6553 28.4199 58.3419 28.5799 58.0353 28.6999C57.5686 28.8866 57.0353 29.0266 56.4353 29.1199C55.8486 29.2133 55.2953 29.2599 54.7753 29.2599C54.4419 29.2599 54.1353 29.2399 53.8553 29.1999V29.2199C53.8553 29.2733 53.8486 29.3266 53.8353 29.3799C53.8219 29.4199 53.8153 29.4666 53.8153 29.5199C53.8019 29.5733 53.7953 29.6266 53.7953 29.6799C53.7953 29.7199 53.7953 29.7599 53.7953 29.7999C53.7953 30.2133 53.8753 30.5799 54.0353 30.8999C54.2086 31.2066 54.4086 31.4733 54.6353 31.6999C54.8619 31.9133 55.0486 32.0866 55.1953 32.2199C55.4353 32.3399 55.6019 32.4533 55.6953 32.5599C55.8019 32.6799 55.8553 32.7733 55.8553 32.8399C55.8553 32.9999 55.7153 33.0799 55.4353 33.0799ZM55.3153 28.3599C55.7153 28.3599 56.1353 28.3333 56.5753 28.2799C57.0153 28.2133 57.4219 28.0933 57.7953 27.9199C58.0886 27.7733 58.3619 27.5799 58.6153 27.3399C58.8686 27.0866 58.9953 26.7866 58.9953 26.4399C58.9953 26.1733 58.8886 25.9733 58.6753 25.8399C58.4619 25.7066 58.1619 25.6399 57.7753 25.6399C57.3353 25.6399 56.8553 25.7199 56.3353 25.8799C56.1486 25.9333 55.9153 26.0599 55.6353 26.2599C55.3686 26.4599 55.0953 26.7333 54.8153 27.0799C54.5353 27.4133 54.3019 27.8133 54.1153 28.2799C54.2753 28.2933 54.4553 28.3133 54.6553 28.3399C54.8686 28.3533 55.0886 28.3599 55.3153 28.3599ZM60.7546 32.7199C60.6613 32.7199 60.5546 32.7133 60.4346 32.6999C60.328 32.6866 60.2146 32.6666 60.0946 32.6399C59.9213 32.5999 59.8346 32.4733 59.8346 32.2599C59.8346 32.1399 59.8813 32.0333 59.9746 31.9399C60.068 31.8333 60.2013 31.7933 60.3746 31.8199C60.5213 31.8333 60.7546 31.7999 61.0746 31.7199C61.408 31.6399 61.7746 31.5333 62.1746 31.3999C62.7613 31.1866 63.2413 30.9599 63.6146 30.7199C63.988 30.4799 64.2946 30.1999 64.5346 29.8799C64.788 29.5599 64.9146 29.2533 64.9146 28.9599C64.9146 28.8266 64.888 28.6999 64.8346 28.5799C64.7813 28.4466 64.6813 28.3199 64.5346 28.1999C64.308 27.9999 64.0346 27.8133 63.7146 27.6399C63.3946 27.4666 63.0813 27.2866 62.7746 27.0999C62.468 26.8999 62.208 26.6799 61.9946 26.4399C61.7946 26.1866 61.6946 25.8799 61.6946 25.5199C61.6946 25.1999 61.808 24.9266 62.0346 24.6999C62.2613 24.4599 62.5213 24.2666 62.8146 24.1199C63.1213 23.9599 63.3813 23.8466 63.5946 23.7799C63.808 23.7133 64.0213 23.6666 64.2346 23.6399C64.448 23.5999 64.6613 23.5799 64.8746 23.5799C65.128 23.5799 65.368 23.6133 65.5946 23.6799C65.8346 23.7333 66.0613 23.8333 66.2746 23.9799C66.3946 24.0599 66.4813 24.1533 66.5346 24.2599C66.588 24.3666 66.6146 24.4733 66.6146 24.5799C66.6146 24.7266 66.568 24.8599 66.4746 24.9799C66.3946 25.0866 66.2813 25.1399 66.1346 25.1399C66.028 25.1399 65.888 25.0866 65.7146 24.9799H65.7346C65.4413 24.7666 65.1013 24.6599 64.7146 24.6599C64.5013 24.6599 64.308 24.6866 64.1346 24.7399C63.8546 24.8066 63.5813 24.8933 63.3146 24.9999C63.048 25.1066 62.8813 25.2733 62.8146 25.4999C62.7746 25.6733 62.8746 25.8666 63.1146 26.0799C63.368 26.2799 63.6813 26.4866 64.0546 26.6999C64.428 26.8999 64.7746 27.0999 65.0946 27.2999C65.4013 27.4733 65.648 27.7066 65.8346 27.9999C66.0213 28.2933 66.1146 28.6066 66.1146 28.9399C66.1146 29.3533 65.9613 29.7533 65.6546 30.1399C65.1613 30.7399 64.648 31.2066 64.1146 31.5399C63.5946 31.8733 63.008 32.1466 62.3546 32.3599C61.9946 32.4799 61.6946 32.5666 61.4546 32.6199C61.2146 32.6866 60.9813 32.7199 60.7546 32.7199ZM78.9215 31.7999C78.4149 31.7999 77.9215 31.7733 77.4415 31.7199C76.9749 31.6533 76.5482 31.5866 76.1615 31.5199C75.9882 31.4799 75.7682 31.4133 75.5015 31.3199C75.2349 31.2133 74.9682 31.0799 74.7015 30.9199C74.4482 30.7599 74.2349 30.5733 74.0615 30.3599C73.8882 30.1333 73.8015 29.8799 73.8015 29.5999C73.8015 29.3866 73.8682 29.1666 74.0015 28.9399C74.1882 28.6199 74.4815 28.3333 74.8815 28.0799C75.2949 27.8266 75.7482 27.6066 76.2415 27.4199C76.7482 27.2333 77.2349 27.0733 77.7015 26.9399C78.1815 26.8066 78.5682 26.6999 78.8615 26.6199C78.4349 26.5799 77.9815 26.5199 77.5015 26.4399C77.1815 26.3599 76.8082 26.2466 76.3815 26.0999C75.9682 25.9399 75.6082 25.7266 75.3015 25.4599C74.9949 25.1933 74.8415 24.8666 74.8415 24.4799C74.8415 24.2133 74.9282 23.9266 75.1015 23.6199C75.4615 23.0066 75.9282 22.4799 76.5015 22.0399C77.0882 21.5866 77.7215 21.2199 78.4015 20.9399C79.0949 20.6466 79.7749 20.4333 80.4415 20.2999C81.1215 20.1533 81.7282 20.0799 82.2615 20.0799C82.5682 20.0799 82.8415 20.0999 83.0815 20.1399C83.5882 20.2333 84.0882 20.4066 84.5815 20.6599C85.0882 20.8999 85.4615 21.2333 85.7015 21.6599C85.7282 21.6999 85.7482 21.7399 85.7615 21.7799C85.7749 21.8199 85.7815 21.8599 85.7815 21.8999C85.7815 22.0199 85.7415 22.1266 85.6615 22.2199C85.5815 22.2999 85.4882 22.3399 85.3815 22.3399C85.2615 22.3399 85.1615 22.2666 85.0815 22.1199C84.8815 21.7333 84.5349 21.4599 84.0415 21.2999C83.5482 21.1266 83.0682 20.9933 82.6015 20.8999C82.3615 20.8599 82.1082 20.8399 81.8415 20.8399C81.2415 20.8399 80.5949 20.9466 79.9015 21.1599C79.2082 21.3599 78.5549 21.6733 77.9415 22.0999C77.3282 22.5133 76.8282 23.0399 76.4415 23.6799C76.2949 23.9333 76.2215 24.1799 76.2215 24.4199C76.2215 24.6999 76.3082 24.9333 76.4815 25.1199C76.6682 25.3066 76.8882 25.4599 77.1415 25.5799C77.4082 25.6866 77.6549 25.7599 77.8815 25.7999C78.3482 25.8799 78.7949 25.9399 79.2215 25.9799C79.6482 26.0199 80.1082 26.0399 80.6015 26.0399C80.7615 26.0399 80.8415 26.1333 80.8415 26.3199C80.8415 26.4133 80.8082 26.5133 80.7415 26.6199C80.6882 26.7266 80.5882 26.7933 80.4415 26.8199C80.2682 26.8599 80.0015 26.9333 79.6415 27.0399C79.2815 27.1466 78.8749 27.2799 78.4215 27.4399C77.9815 27.5866 77.5415 27.7533 77.1015 27.9399C76.6615 28.1133 76.2749 28.2933 75.9415 28.4799C75.6215 28.6666 75.4082 28.8466 75.3015 29.0199C75.2349 29.1533 75.2015 29.2599 75.2015 29.3399C75.2015 29.5799 75.3215 29.7933 75.5615 29.9799C75.8015 30.1533 76.0682 30.2933 76.3615 30.3999C76.6549 30.4933 76.8682 30.5533 77.0015 30.5799C77.4415 30.6599 77.8749 30.7399 78.3015 30.8199C78.7282 30.8866 79.1615 30.9199 79.6015 30.9199C80.2149 30.9199 80.8415 30.8133 81.4815 30.5999C82.1349 30.3866 82.8282 29.9933 83.5615 29.4199C83.9349 29.1266 84.1815 28.8199 84.3015 28.4999C84.4349 28.1666 84.5015 27.8666 84.5015 27.5999C84.5015 27.4133 84.4815 27.2533 84.4415 27.1199C84.4149 26.9733 84.3882 26.8533 84.3615 26.7599V26.6199C83.6682 26.8999 82.9949 27.2933 82.3415 27.7999C81.7015 28.3066 81.0149 28.7733 80.2815 29.1999C80.1349 29.2933 80.0149 29.2733 79.9215 29.1399C79.8415 28.9933 79.8015 28.8266 79.8015 28.6399C79.8015 28.5066 79.8215 28.3799 79.8615 28.2599C79.9149 28.1399 79.9949 28.0533 80.1015 27.9999C80.9949 27.4533 81.8082 27.0133 82.5415 26.6799C83.2882 26.3333 83.9082 26.0533 84.4015 25.8399C85.0015 25.5866 85.5482 25.3466 86.0415 25.1199C86.5482 24.8799 86.9482 24.6333 87.2415 24.3799C87.5482 24.1266 87.6949 23.8333 87.6815 23.4999C87.6682 23.3533 87.7282 23.2266 87.8615 23.1199C87.9949 23.0133 88.1215 22.9599 88.2415 22.9599C88.3882 22.9599 88.4615 23.0399 88.4615 23.1999C88.4615 23.6399 88.3549 24.0399 88.1415 24.3999C87.9282 24.7466 87.6482 25.0533 87.3015 25.3199C86.9682 25.5866 86.6082 25.8133 86.2215 25.9999C85.8482 26.1733 85.4949 26.2999 85.1615 26.3799C85.2815 26.6999 85.3415 27.0333 85.3415 27.3799C85.3415 27.8733 85.1882 28.3866 84.8815 28.9199C84.5882 29.4533 84.0949 29.9733 83.4015 30.4799C82.7215 30.9866 81.9882 31.3333 81.2015 31.5199C80.4282 31.7066 79.6682 31.7999 78.9215 31.7999ZM0.58004 52.6999C0.433373 52.6999 0.30004 52.6533 0.18004 52.5599C0.0600399 52.4799 0.0267065 52.3666 0.0800399 52.2199C0.44004 51.0999 0.853373 49.9733 1.32004 48.8399C1.80004 47.7066 2.28004 46.6199 2.76004 45.5799C3.24004 44.5266 3.66671 43.5533 4.04004 42.6599C4.41337 41.7666 4.68004 40.9999 4.84004 40.3599C4.86671 40.2399 4.93337 40.1533 5.04004 40.0999C5.14671 40.0333 5.26004 39.9999 5.38004 39.9999C5.52671 39.9999 5.64671 40.0399 5.74004 40.1199C5.84671 40.1999 5.88004 40.3133 5.84004 40.4599H5.86004C5.68671 41.1133 5.40671 41.8933 5.02004 42.7999C4.64671 43.6933 4.22671 44.6666 3.76004 45.7199C3.29337 46.7733 2.82004 47.8666 2.34004 48.9999C1.86004 50.1333 1.43337 51.2599 1.06004 52.3799C1.00671 52.5933 0.846707 52.6999 0.58004 52.6999ZM8.74504 52.9999C8.05171 52.9999 7.45171 52.8799 6.94504 52.6399C6.43837 52.4133 6.01837 52.1133 5.68504 51.7399C5.23171 51.2466 5.00504 50.6733 5.00504 50.0199C5.00504 49.7666 5.04504 49.5133 5.12504 49.2599C5.15171 49.1533 5.21837 49.0733 5.32504 49.0199C5.43171 48.9666 5.54504 48.9399 5.66504 48.9399C5.82504 48.9399 5.96504 48.9799 6.08504 49.0599C6.20504 49.1266 6.24504 49.2333 6.20504 49.3799C6.19171 49.4733 6.17171 49.5666 6.14504 49.6599C6.13171 49.7399 6.12504 49.8266 6.12504 49.9199C6.12504 50.3733 6.29171 50.7999 6.62504 51.1999C6.85171 51.4533 7.15837 51.6666 7.54504 51.8399C7.94504 51.9999 8.41171 52.0799 8.94504 52.0799C9.54504 52.0799 10.125 51.9599 10.685 51.7199C11.245 51.4799 11.745 51.1466 12.185 50.7199C12.6384 50.2933 12.9917 49.8066 13.245 49.2599C13.5117 48.7133 13.645 48.1399 13.645 47.5399C13.645 47.4066 13.6384 47.2799 13.625 47.1599C13.6117 47.0266 13.5917 46.8933 13.565 46.7599C13.4717 46.3999 13.325 46.1466 13.125 45.9999C12.9384 45.8533 12.6917 45.7133 12.385 45.5799C12.065 45.4333 11.7117 45.3533 11.325 45.3399C10.9517 45.3266 10.6517 45.2933 10.425 45.2399C10.225 45.1999 10.085 45.1466 10.005 45.0799C9.92504 44.9999 9.88504 44.9199 9.88504 44.8399C9.88504 44.7333 9.93837 44.6266 10.045 44.5199C10.1517 44.4133 10.2517 44.3466 10.345 44.3199C10.4917 44.2666 10.725 44.2066 11.045 44.1399C11.3784 44.0733 11.705 43.9999 12.025 43.9199C12.3584 43.8399 12.5984 43.7533 12.745 43.6599C13.1184 43.6199 13.465 43.5066 13.785 43.3199C14.1184 43.1199 14.385 42.8866 14.585 42.6199C14.7984 42.3399 14.905 42.0666 14.905 41.7999C14.905 41.5333 14.7917 41.3066 14.565 41.1199C14.2984 40.8933 13.8984 40.7799 13.365 40.7799C13.125 40.7799 12.865 40.8066 12.585 40.8599C12.3184 40.9133 12.0384 40.9933 11.745 41.0999C11.3984 41.2199 11.0784 41.3866 10.785 41.5999C10.505 41.7999 10.1517 42.0333 9.72504 42.2999C9.59171 42.3799 9.46504 42.4199 9.34504 42.4199C9.21171 42.4199 9.09171 42.3799 8.98504 42.2999C8.89171 42.2066 8.84504 42.0999 8.84504 41.9799C8.84504 41.8466 8.93171 41.7199 9.10504 41.5999C9.51837 41.3333 9.92504 41.0599 10.325 40.7799C10.7384 40.4999 11.1917 40.2933 11.685 40.1599C12.325 39.9599 12.925 39.8599 13.485 39.8599C14.2717 39.8599 14.885 40.0399 15.325 40.3999C15.725 40.7199 15.925 41.1666 15.925 41.7399C15.925 41.9533 15.8917 42.2066 15.825 42.4999C15.7317 42.8599 15.505 43.1866 15.145 43.4799C14.785 43.7733 14.3784 44.0199 13.925 44.2199C13.485 44.4199 13.0984 44.5533 12.765 44.6199C13.1917 44.6999 13.5784 44.9266 13.925 45.2999C14.285 45.6733 14.525 46.0733 14.645 46.4999C14.7384 46.8199 14.785 47.1599 14.785 47.5199C14.785 48.2266 14.605 48.9066 14.245 49.5599C13.885 50.2133 13.405 50.7999 12.805 51.3199C12.2184 51.8399 11.5717 52.2466 10.865 52.5399C10.1584 52.8466 9.45171 52.9999 8.74504 52.9999ZM21.0697 57.0799C20.8564 57.0799 20.6497 56.9933 20.4497 56.8199C20.2364 56.6466 20.1497 56.3733 20.1897 55.9999C20.2164 55.6533 20.3097 55.1866 20.4697 54.5999C20.6297 54.0266 20.8297 53.3866 21.0697 52.6799C21.3097 51.9733 21.5764 51.2466 21.8697 50.4999C22.1631 49.7399 22.4564 49.0066 22.7497 48.2999C23.0431 47.5799 23.3231 46.9333 23.5897 46.3599C23.8564 45.7733 24.0831 45.2999 24.2697 44.9399C24.3897 44.7266 24.5564 44.6199 24.7697 44.6199C24.9031 44.6199 25.0164 44.6666 25.1097 44.7599C25.2031 44.8399 25.2497 44.9666 25.2497 45.1399C25.2497 45.2466 25.2097 45.4199 25.1297 45.6599C25.0497 45.8866 24.9497 46.0799 24.8297 46.2399C24.6431 46.4799 24.4431 46.7799 24.2297 47.1399C24.0164 47.4866 23.8164 47.8533 23.6297 48.2399C24.3231 47.2666 25.0497 46.5066 25.8097 45.9599C26.5697 45.4133 27.3964 45.0133 28.2897 44.7599C28.4231 44.7199 28.5497 44.6933 28.6697 44.6799C28.7897 44.6666 28.9031 44.6599 29.0097 44.6599C29.5564 44.6599 29.9431 44.8466 30.1697 45.2199C30.4097 45.5933 30.5297 45.9933 30.5297 46.4199C30.5297 46.8866 30.4297 47.2733 30.2297 47.5799C29.8697 48.3133 29.4497 48.9199 28.9697 49.3999C28.4897 49.8666 27.9697 50.2533 27.4097 50.5599C26.8631 50.8533 26.2897 51.1266 25.6897 51.3799C25.3964 51.5133 25.1364 51.6066 24.9097 51.6599C24.6964 51.6999 24.5097 51.7199 24.3497 51.7199C24.1097 51.7199 23.9431 51.6666 23.8497 51.5599C23.7564 51.4533 23.7097 51.3333 23.7097 51.1999C23.7097 51.0133 23.7631 50.8399 23.8697 50.6799C23.9764 50.5199 24.0764 50.4533 24.1697 50.4799C24.2631 50.4933 24.3764 50.5133 24.5097 50.5399C24.6431 50.5666 24.7831 50.5799 24.9297 50.5799C25.2764 50.5799 25.5697 50.5199 25.8097 50.3999C26.1964 50.1999 26.5964 49.9733 27.0097 49.7199C27.4364 49.4666 27.8497 49.1399 28.2497 48.7399C28.6631 48.3266 29.0231 47.7999 29.3297 47.1599C29.4097 46.9333 29.4497 46.7133 29.4497 46.4999C29.4497 46.2733 29.3897 46.0799 29.2697 45.9199C29.1631 45.7599 28.9764 45.6799 28.7097 45.6799C28.2697 45.6799 27.7097 45.8799 27.0297 46.2799C26.3497 46.6666 25.6364 47.2133 24.8897 47.9199C24.1431 48.6266 23.4364 49.4466 22.7697 50.3799C22.4764 51.1266 22.2031 51.8599 21.9497 52.5799C21.7097 53.2999 21.5164 53.9399 21.3697 54.4999C21.2231 55.0733 21.1364 55.4933 21.1097 55.7599C21.0964 55.9066 21.1764 56.0599 21.3497 56.2199C21.5231 56.3799 21.6097 56.5399 21.6097 56.6999C21.6097 56.8066 21.5431 56.9066 21.4097 56.9999C21.3431 57.0533 21.2297 57.0799 21.0697 57.0799ZM31.7368 51.6199C31.6168 51.6199 31.5034 51.5733 31.3968 51.4799C31.3034 51.3733 31.2568 51.1999 31.2568 50.9599C31.2568 50.9066 31.2568 50.8533 31.2568 50.7999C31.2701 50.7333 31.2834 50.6666 31.2968 50.5999C31.4168 50.0133 31.5701 49.3933 31.7568 48.7399C31.9568 48.0866 32.1568 47.4733 32.3568 46.8999C32.5568 46.3133 32.7034 45.8533 32.7968 45.5199C32.8634 45.3066 32.9568 45.1533 33.0768 45.0599C33.2101 44.9666 33.3434 44.9199 33.4768 44.9199C33.6234 44.9199 33.7434 44.9666 33.8368 45.0599C33.9434 45.1399 33.9968 45.2533 33.9968 45.3999C33.9968 45.5199 33.9568 45.6533 33.8768 45.7999C33.7968 45.9466 33.6968 46.1799 33.5768 46.4999C33.4701 46.8199 33.3634 47.1399 33.2568 47.4599C33.1501 47.7799 33.0568 48.0199 32.9768 48.1799C33.4434 47.7266 33.8634 47.3533 34.2368 47.0599C34.6101 46.7666 35.1034 46.4799 35.7168 46.1999C35.9834 46.0666 36.3301 45.9999 36.7568 45.9999C37.0634 45.9999 37.3701 46.0599 37.6768 46.1799C37.9834 46.2999 38.2368 46.5133 38.4368 46.8199C38.6368 47.1266 38.7368 47.5599 38.7368 48.1199C38.7368 48.3333 38.6168 48.4399 38.3768 48.4399C38.2834 48.4399 38.1834 48.3999 38.0768 48.3199C37.9834 48.2399 37.9034 48.1066 37.8368 47.9199C37.7434 47.6133 37.5968 47.3733 37.3968 47.1999C37.2101 47.0133 36.9634 46.9199 36.6568 46.9199C36.4701 46.9199 36.2568 46.9599 36.0168 47.0399C35.7234 47.1333 35.3568 47.3133 34.9168 47.5799C34.4768 47.8333 34.0234 48.1533 33.5568 48.5399C33.1034 48.9266 32.6834 49.3666 32.2968 49.8599C32.2968 49.9533 32.2768 50.0599 32.2368 50.1799C32.2101 50.2999 32.1968 50.4333 32.1968 50.5799C32.1968 50.6066 32.2101 50.6733 32.2368 50.7799C32.2634 50.8866 32.2768 50.9933 32.2768 51.0999C32.2768 51.2466 32.2168 51.3733 32.0968 51.4799C31.9901 51.5733 31.8701 51.6199 31.7368 51.6199ZM41.4054 51.5599C41.3254 51.5599 41.2454 51.5599 41.1654 51.5599C41.0854 51.5466 41.0054 51.5333 40.9254 51.5199C40.3787 51.4533 39.952 51.1933 39.6454 50.7399C39.352 50.2733 39.2054 49.7533 39.2054 49.1799C39.2054 48.8066 39.2787 48.4133 39.4254 47.9999C39.5854 47.5733 39.832 47.1866 40.1654 46.8399C40.4987 46.4799 40.8854 46.1933 41.3254 45.9799C41.7654 45.7666 42.212 45.6599 42.6654 45.6599C42.892 45.6599 43.1054 45.6866 43.3054 45.7399C43.5187 45.7933 43.6254 45.8999 43.6254 46.0599C43.6254 46.1666 43.5654 46.2733 43.4454 46.3799C43.3387 46.4733 43.192 46.4999 43.0054 46.4599C42.952 46.4466 42.8654 46.4399 42.7454 46.4399C42.4254 46.4399 42.0987 46.5266 41.7654 46.6999C41.432 46.8733 41.132 47.1066 40.8654 47.3999C40.5987 47.6799 40.4054 47.9933 40.2854 48.3399C40.192 48.6066 40.1454 48.8733 40.1454 49.1399C40.1454 49.5533 40.2387 49.9066 40.4254 50.1999C40.6254 50.4933 40.852 50.6399 41.1054 50.6399C41.172 50.6533 41.232 50.6599 41.2854 50.6599C41.352 50.6599 41.412 50.6599 41.4654 50.6599C42.052 50.6599 42.612 50.4999 43.1454 50.1799C43.692 49.8466 44.112 49.4866 44.4054 49.0999C44.552 48.8733 44.652 48.6733 44.7054 48.4999C44.7587 48.3133 44.7854 48.1599 44.7854 48.0399C44.7854 47.7733 44.7054 47.5933 44.5454 47.4999C44.3854 47.4066 44.2387 47.3666 44.1054 47.3799C43.892 47.4066 43.6854 47.4399 43.4854 47.4799C43.2854 47.5066 43.112 47.5533 42.9654 47.6199C42.8854 47.6466 42.8254 47.6599 42.7854 47.6599C42.652 47.6599 42.5387 47.6066 42.4454 47.4999C42.3654 47.3933 42.3254 47.2799 42.3254 47.1599C42.3254 46.9466 42.4254 46.8066 42.6254 46.7399C42.812 46.6733 43.032 46.6133 43.2854 46.5599C43.5387 46.5066 43.7987 46.4666 44.0654 46.4399C44.1187 46.4266 44.1654 46.4199 44.2054 46.4199C44.2454 46.4199 44.292 46.4199 44.3454 46.4199C44.8254 46.4199 45.1987 46.5666 45.4654 46.8599C45.732 47.1399 45.8654 47.4866 45.8654 47.8999C45.8654 48.1533 45.8054 48.4266 45.6854 48.7199C45.5654 49.0133 45.372 49.2933 45.1054 49.5599C44.8654 49.8666 44.5587 50.1733 44.1854 50.4799C43.812 50.7866 43.392 51.0466 42.9254 51.2599C42.4587 51.4599 41.952 51.5599 41.4054 51.5599ZM48.823 51.5799C48.7297 51.5799 48.6297 51.5533 48.523 51.4999C48.4297 51.4466 48.3563 51.3666 48.303 51.2599C48.0897 50.7399 47.9163 50.2733 47.783 49.8599C47.663 49.4466 47.5497 48.9666 47.443 48.4199C47.3363 47.8999 47.243 47.3866 47.163 46.8799C47.0963 46.3733 47.063 45.9133 47.063 45.4999C47.063 45.2199 47.083 44.9599 47.123 44.7199C47.1497 44.5599 47.223 44.4399 47.343 44.3599C47.4763 44.2666 47.6097 44.2199 47.743 44.2199C47.8763 44.2199 47.9897 44.2599 48.083 44.3399C48.1763 44.4199 48.2097 44.5399 48.183 44.6999C48.1697 44.7666 48.143 44.9133 48.103 45.1399C48.0763 45.3533 48.0697 45.5066 48.083 45.5999C48.0697 45.6799 48.063 45.7666 48.063 45.8599C48.063 45.9399 48.063 46.0199 48.063 46.0999C48.063 46.4199 48.083 46.7599 48.123 47.1199C48.1763 47.4799 48.243 47.8666 48.323 48.2799C48.403 48.6533 48.503 48.9866 48.623 49.2799C48.743 49.5733 48.863 49.8733 48.983 50.1799C49.223 49.8199 49.5097 49.3999 49.843 48.9199C50.1897 48.4266 50.5563 47.9399 50.943 47.4599C51.3297 46.9666 51.703 46.5333 52.063 46.1599C52.4363 45.7733 52.7697 45.5133 53.063 45.3799C53.2497 45.2733 53.443 45.2199 53.643 45.2199C53.803 45.2199 53.9097 45.2666 53.963 45.3599C54.0163 45.4533 53.9897 45.5733 53.883 45.7199C53.7763 45.8533 53.6697 45.9599 53.563 46.0399C52.723 46.6799 51.943 47.4799 51.223 48.4399C50.5163 49.3999 49.8563 50.3799 49.243 51.3799C49.163 51.5133 49.023 51.5799 48.823 51.5799ZM56.7985 44.2799C56.7318 44.3599 56.6451 44.3666 56.5385 44.2999C56.4451 44.2333 56.3651 44.1333 56.2985 43.9999C56.2318 43.8533 56.2118 43.7133 56.2385 43.5799H56.2585C56.3118 43.3799 56.3785 43.2133 56.4585 43.0799C56.5385 42.9466 56.6451 42.8133 56.7785 42.6799C56.8585 42.5999 56.9651 42.5599 57.0985 42.5599C57.2185 42.5599 57.3251 42.5999 57.4185 42.6799C57.5251 42.7466 57.5785 42.8333 57.5785 42.9399C57.5785 42.9933 57.5585 43.0533 57.5185 43.1199C57.4785 43.1733 57.3985 43.3133 57.2785 43.5399C57.1718 43.7666 57.0118 44.0133 56.7985 44.2799ZM54.2785 51.6599C54.0651 51.6599 53.8518 51.5799 53.6385 51.4199C53.4385 51.2466 53.3585 50.9733 53.3985 50.5999C53.4518 50.0799 53.5251 49.6399 53.6185 49.2799C53.7118 48.9199 53.8185 48.5933 53.9385 48.2999C54.0585 47.9933 54.1851 47.6666 54.3185 47.3199C54.4651 46.9733 54.6118 46.5533 54.7585 46.0599C54.8385 45.8333 55.0051 45.7199 55.2585 45.7199C55.4318 45.7199 55.5851 45.7733 55.7185 45.8799C55.8518 45.9866 55.8918 46.1333 55.8385 46.3199C55.6651 46.8799 55.4918 47.3333 55.3185 47.6799C55.1451 48.0266 54.9851 48.3333 54.8385 48.5999C54.6918 48.8533 54.5651 49.1333 54.4585 49.4399C54.3651 49.7333 54.3051 50.1133 54.2785 50.5799C54.2785 50.6199 54.3651 50.7066 54.5385 50.8399C54.7118 50.9599 54.7985 51.0999 54.7985 51.2599C54.7985 51.3799 54.7318 51.4866 54.5985 51.5799C54.5318 51.6333 54.4251 51.6599 54.2785 51.6599ZM63.5629 52.0999C63.3629 52.0999 63.1762 51.9866 63.0029 51.7599C62.8295 51.5199 62.7429 51.2199 62.7429 50.8599C62.7429 50.6333 62.7629 50.3466 62.8029 49.9999C62.8429 49.6533 62.9029 49.3066 62.9829 48.9599C63.0629 48.5999 63.1562 48.2933 63.2629 48.0399C63.4762 47.5599 63.5829 47.1799 63.5829 46.8999C63.5829 46.5533 63.4229 46.3799 63.1029 46.3799C63.0629 46.3799 63.0162 46.3799 62.9629 46.3799C62.9095 46.3799 62.8562 46.3933 62.8029 46.4199C62.5362 46.4999 62.1762 46.6799 61.7229 46.9599C61.2695 47.2266 60.7895 47.5399 60.2829 47.8999C59.7895 48.2599 59.3229 48.6199 58.8829 48.9799C58.4429 49.3399 58.1029 49.6533 57.8629 49.9199C57.5295 50.2933 57.3095 50.5799 57.2029 50.7799C57.0962 50.9799 57.0429 51.0799 57.0429 51.0799C56.9362 51.2266 56.8162 51.2999 56.6829 51.2999C56.5629 51.2999 56.4629 51.2399 56.3829 51.1199C56.3029 50.9866 56.2829 50.8133 56.3229 50.5999C56.5095 49.5066 56.7095 48.5733 56.9229 47.7999C57.1495 47.0266 57.4095 46.3599 57.7029 45.7999C57.8229 45.5866 57.9895 45.4799 58.2029 45.4799C58.3229 45.4799 58.4295 45.5266 58.5229 45.6199C58.6162 45.6999 58.6629 45.8266 58.6629 45.9999C58.6629 46.0933 58.6229 46.2733 58.5429 46.5399C58.4762 46.8066 58.3895 47.0266 58.2829 47.1999C58.1495 47.4133 58.0362 47.6599 57.9429 47.9399C57.8629 48.2066 57.7629 48.5799 57.6429 49.0599C57.7895 48.8333 57.9162 48.6733 58.0229 48.5799C58.1295 48.4733 58.2695 48.3333 58.4429 48.1599C58.9895 47.6133 59.6362 47.1199 60.3829 46.6799C61.1429 46.2266 61.8695 45.8466 62.5629 45.5399C62.7095 45.4733 62.8962 45.4066 63.1229 45.3399C63.3495 45.2733 63.5762 45.2399 63.8029 45.2399C64.0695 45.2399 64.3095 45.3133 64.5229 45.4599C64.7362 45.6066 64.8429 45.8866 64.8429 46.2999C64.8429 46.5133 64.8029 46.7733 64.7229 47.0799C64.6562 47.3866 64.5362 47.7466 64.3629 48.1599C64.1495 48.6533 64.0095 49.1666 63.9429 49.6999C63.8895 50.2333 63.8629 50.6866 63.8629 51.0599C63.8629 51.1666 63.8629 51.2733 63.8629 51.3799C63.8762 51.4733 63.8829 51.5599 63.8829 51.6399C63.8829 51.7733 63.8629 51.8799 63.8229 51.9599C63.7829 52.0533 63.6962 52.0999 63.5629 52.0999ZM67.5421 52.4599C67.0221 52.4599 66.5954 52.3399 66.2621 52.0999C65.9287 51.8599 65.6754 51.5599 65.5021 51.1999C65.3421 50.8266 65.2621 50.4466 65.2621 50.0599C65.2621 49.6199 65.3621 49.1933 65.5621 48.7799C65.7621 48.3533 66.0087 47.9533 66.3021 47.5799C66.5954 47.2066 66.8821 46.8733 67.1621 46.5799C67.8687 45.8466 68.5287 45.3066 69.1421 44.9599C69.7687 44.6133 70.2687 44.4399 70.6421 44.4399C71.0154 44.4399 71.2954 44.4999 71.4821 44.6199C71.6687 44.7399 71.7954 44.8866 71.8621 45.0599C71.9421 45.2333 71.9887 45.3933 72.0021 45.5399C72.0287 45.7799 71.9954 45.9799 71.9021 46.1399C71.8087 46.2866 71.6821 46.3599 71.5221 46.3599C71.3754 46.3599 71.2287 46.2933 71.0821 46.1599C70.9354 46.0266 70.8087 45.8799 70.7021 45.7199C70.3554 45.7999 70.0554 45.8799 69.8021 45.9599C69.5487 46.0266 69.3021 46.1333 69.0621 46.2799C68.8354 46.4133 68.5687 46.6133 68.2621 46.8799C67.7154 47.3733 67.2421 47.8933 66.8421 48.4399C66.4554 48.9866 66.2621 49.5733 66.2621 50.1999C66.2621 51.0533 66.7021 51.4799 67.5821 51.4799C68.1554 51.4799 68.7487 51.3333 69.3621 51.0399C69.9754 50.7333 70.5087 50.3399 70.9621 49.8599C71.0687 49.7533 71.1887 49.6999 71.3221 49.6999C71.4287 49.6999 71.5154 49.7333 71.5821 49.7999C71.6621 49.8666 71.7021 49.9533 71.7021 50.0599C71.7021 50.1799 71.6487 50.2866 71.5421 50.3799C70.9021 50.9933 70.2621 51.4933 69.6221 51.8799C68.9954 52.2666 68.3021 52.4599 67.5421 52.4599ZM75.4169 53.0799C75.3102 53.0799 75.1836 53.0599 75.0369 53.0199C74.2236 52.7533 73.6302 52.3133 73.2569 51.6999C72.8836 51.0733 72.6969 50.4133 72.6969 49.7199C72.6969 49.6133 72.6969 49.5133 72.6969 49.4199C72.7102 49.3133 72.7236 49.2133 72.7369 49.1199C72.8569 48.3599 73.1102 47.6866 73.4969 47.0999C73.8969 46.5133 74.3436 46.0333 74.8369 45.6599C75.3436 45.2733 75.8036 45.0266 76.2169 44.9199C76.4836 44.8533 76.7502 44.7999 77.0169 44.7599C77.2836 44.7066 77.5436 44.6799 77.7969 44.6799C78.4369 44.6799 78.9836 44.8199 79.4369 45.0999C79.8902 45.3799 80.1169 45.8399 80.1169 46.4799C80.1169 46.8399 80.0036 47.1666 79.7769 47.4599C79.5636 47.7533 79.2902 48.0066 78.9569 48.2199C78.6369 48.4199 78.3236 48.5799 78.0169 48.6999C77.5502 48.8866 77.0169 49.0266 76.4169 49.1199C75.8302 49.2133 75.2769 49.2599 74.7569 49.2599C74.4236 49.2599 74.1169 49.2399 73.8369 49.1999V49.2199C73.8369 49.2733 73.8302 49.3266 73.8169 49.3799C73.8036 49.4199 73.7969 49.4666 73.7969 49.5199C73.7836 49.5733 73.7769 49.6266 73.7769 49.6799C73.7769 49.7199 73.7769 49.7599 73.7769 49.7999C73.7769 50.2133 73.8569 50.5799 74.0169 50.8999C74.1902 51.2066 74.3902 51.4733 74.6169 51.6999C74.8436 51.9133 75.0302 52.0866 75.1769 52.2199C75.4169 52.3399 75.5836 52.4533 75.6769 52.5599C75.7836 52.6799 75.8369 52.7733 75.8369 52.8399C75.8369 52.9999 75.6969 53.0799 75.4169 53.0799ZM75.2969 48.3599C75.6969 48.3599 76.1169 48.3333 76.5569 48.2799C76.9969 48.2133 77.4036 48.0933 77.7769 47.9199C78.0702 47.7733 78.3436 47.5799 78.5969 47.3399C78.8502 47.0866 78.9769 46.7866 78.9769 46.4399C78.9769 46.1733 78.8702 45.9733 78.6569 45.8399C78.4436 45.7066 78.1436 45.6399 77.7569 45.6399C77.3169 45.6399 76.8369 45.7199 76.3169 45.8799C76.1302 45.9333 75.8969 46.0599 75.6169 46.2599C75.3502 46.4599 75.0769 46.7333 74.7969 47.0799C74.5169 47.4133 74.2836 47.8133 74.0969 48.2799C74.2569 48.2933 74.4369 48.3133 74.6369 48.3399C74.8502 48.3533 75.0702 48.3599 75.2969 48.3599ZM80.7363 52.7199C80.643 52.7199 80.5363 52.7133 80.4163 52.6999C80.3096 52.6866 80.1963 52.6666 80.0763 52.6399C79.903 52.5999 79.8163 52.4733 79.8163 52.2599C79.8163 52.1399 79.863 52.0333 79.9563 51.9399C80.0496 51.8333 80.183 51.7933 80.3563 51.8199C80.503 51.8333 80.7363 51.7999 81.0563 51.7199C81.3896 51.6399 81.7563 51.5333 82.1563 51.3999C82.743 51.1866 83.223 50.9599 83.5963 50.7199C83.9696 50.4799 84.2763 50.1999 84.5163 49.8799C84.7696 49.5599 84.8963 49.2533 84.8963 48.9599C84.8963 48.8266 84.8696 48.6999 84.8163 48.5799C84.763 48.4466 84.663 48.3199 84.5163 48.1999C84.2896 47.9999 84.0163 47.8133 83.6963 47.6399C83.3763 47.4666 83.063 47.2866 82.7563 47.0999C82.4496 46.8999 82.1896 46.6799 81.9763 46.4399C81.7763 46.1866 81.6763 45.8799 81.6763 45.5199C81.6763 45.1999 81.7896 44.9266 82.0163 44.6999C82.243 44.4599 82.503 44.2666 82.7963 44.1199C83.103 43.9599 83.363 43.8466 83.5763 43.7799C83.7896 43.7133 84.003 43.6666 84.2163 43.6399C84.4296 43.5999 84.643 43.5799 84.8563 43.5799C85.1096 43.5799 85.3496 43.6133 85.5763 43.6799C85.8163 43.7333 86.043 43.8333 86.2563 43.9799C86.3763 44.0599 86.463 44.1533 86.5163 44.2599C86.5696 44.3666 86.5963 44.4733 86.5963 44.5799C86.5963 44.7266 86.5496 44.8599 86.4563 44.9799C86.3763 45.0866 86.263 45.1399 86.1163 45.1399C86.0096 45.1399 85.8696 45.0866 85.6963 44.9799H85.7163C85.423 44.7666 85.083 44.6599 84.6963 44.6599C84.483 44.6599 84.2896 44.6866 84.1163 44.7399C83.8363 44.8066 83.563 44.8933 83.2963 44.9999C83.0296 45.1066 82.863 45.2733 82.7963 45.4999C82.7563 45.6733 82.8563 45.8666 83.0963 46.0799C83.3496 46.2799 83.663 46.4866 84.0363 46.6999C84.4096 46.8999 84.7563 47.0999 85.0763 47.2999C85.383 47.4733 85.6296 47.7066 85.8163 47.9999C86.003 48.2933 86.0963 48.6066 86.0963 48.9399C86.0963 49.3533 85.943 49.7533 85.6363 50.1399C85.143 50.7399 84.6296 51.2066 84.0963 51.5399C83.5763 51.8733 82.9896 52.1466 82.3363 52.3599C81.9763 52.4799 81.6763 52.5666 81.4363 52.6199C81.1963 52.6866 80.963 52.7199 80.7363 52.7199Z" fill="#9192A1"/>
</svg>
