<svg width="239" height="169" viewBox="0 0 239 169" fill="none" xmlns="http://www.w3.org/2000/svg">
<path opacity="0.6" d="M0.477343 68.069C0.201483 68.0815 -0.0120032 68.3153 0.000511048 68.5911C0.0130254 68.867 0.246799 69.0805 0.522654 69.0679L0.499998 68.5685L0.477343 68.069ZM235.411 160L235.84 160.256L235.411 160ZM230.41 0.493736C230.407 0.217618 230.18 -0.00339414 229.904 8.92589e-05L225.405 0.0569203C225.128 0.0604091 224.907 0.287075 224.911 0.563193C224.914 0.839316 225.141 1.06033 225.417 1.05684L229.417 1.00632L229.467 5.006C229.471 5.28213 229.698 5.50314 229.974 5.49965C230.25 5.49617 230.471 5.2695 230.467 4.99338L230.41 0.493736ZM0.499998 68.5685L0.522654 69.0679C1.86795 69.0069 3.21422 68.9529 4.56126 68.9057L4.54376 68.406L4.52626 67.9063C3.17581 67.9536 1.8261 68.0078 0.477343 68.069L0.499998 68.5685ZM12.6433 68.2046L12.6507 68.7045C15.3463 68.6645 18.0434 68.6513 20.7402 68.664L20.7426 68.164L20.7449 67.6641C18.0417 67.6513 15.3381 67.6645 12.6359 67.7046L12.6433 68.2046ZM28.8434 68.2799L28.8315 68.7797C31.5289 68.8439 34.2245 68.9334 36.9165 69.0475L36.9377 68.548L36.9588 68.0484C34.2607 67.934 31.559 67.8443 28.8553 67.78L28.8434 68.2799ZM45.0287 68.965L44.9984 69.4641C47.6959 69.6277 50.3881 69.8155 53.0735 70.0266L53.1127 69.5281L53.1519 69.0297C50.4606 68.8181 47.7624 68.6299 45.059 68.4659L45.0287 68.965ZM61.1787 70.2341L61.1307 70.7318C63.8222 70.9913 66.505 71.2737 69.1774 71.5785L69.2341 71.0817L69.2907 70.585C66.6126 70.2795 63.924 69.9964 61.2267 69.7364L61.1787 70.2341ZM77.2811 72.0703L77.2158 72.5661C79.8991 72.9194 82.5699 73.2948 85.2265 73.6914L85.3003 73.1969L85.3742 72.7024C82.7119 72.3049 80.0354 71.9287 77.3464 71.5746L77.2811 72.0703ZM93.2905 74.4607L93.2081 74.9539C95.8865 75.4014 98.5481 75.8702 101.191 76.3595L101.282 75.8679L101.373 75.3762C98.7244 74.8859 96.057 74.416 93.3729 73.9676L93.2905 74.4607ZM109.237 77.4133L109.138 77.9033C111.794 78.4438 114.429 79.0048 117.04 79.5853L117.149 79.0972L117.257 78.6092C114.64 78.0273 111.999 77.4651 109.337 76.9234L109.237 77.4133ZM125.039 80.9273L124.921 81.4133C127.569 82.0535 130.19 82.7136 132.782 83.3926L132.909 82.9089L133.035 82.4253C130.438 81.7446 127.81 81.083 125.156 80.4413L125.039 80.9273ZM140.727 85.0396L140.59 85.5207C143.208 86.2623 145.793 87.0231 148.34 87.802L148.486 87.3239L148.633 86.8457C146.078 86.0647 143.488 85.302 140.863 84.5585L140.727 85.0396ZM156.187 89.7696L156.031 90.2445C158.632 91.1024 161.191 91.9792 163.703 92.8736L163.871 92.4025L164.038 91.9315C161.518 91.0344 158.953 90.1551 156.344 89.2948L156.187 89.7696ZM171.48 95.2187L171.3 95.6853C173.86 96.6705 176.366 97.6739 178.813 98.694L179.005 98.2325L179.197 97.771C176.742 96.7472 174.228 95.7404 171.659 94.752L171.48 95.2187ZM186.434 101.463L186.228 101.918C188.736 103.056 191.171 104.211 193.53 105.382L193.753 104.934L193.975 104.487C191.605 103.31 189.159 102.15 186.641 101.008L186.434 101.463ZM200.936 108.679L200.696 109.118C203.129 110.451 205.461 111.801 207.688 113.165L207.949 112.739L208.211 112.312C205.969 110.939 203.622 109.581 201.177 108.241L200.936 108.679ZM214.734 117.167L214.448 117.577C216.743 119.178 218.888 120.793 220.876 122.419L221.193 122.032L221.509 121.645C219.5 120.001 217.334 118.371 215.02 116.757L214.734 117.167ZM227.18 127.436L226.825 127.788C228.841 129.818 230.601 131.855 232.09 133.891L232.493 133.596L232.897 133.301C231.374 131.218 229.581 129.143 227.535 127.084L227.18 127.436ZM236.53 140.574L236.07 140.769C237.16 143.342 237.784 145.897 237.916 148.421L238.415 148.395L238.915 148.369C238.776 145.714 238.12 143.045 236.991 140.379L236.53 140.574ZM237.178 156.343L236.709 156.167C236.26 157.367 235.686 158.56 234.981 159.744L235.411 160L235.84 160.256C236.574 159.023 237.175 157.776 237.646 156.518L237.178 156.343ZM235.411 160L234.981 159.744C234.216 161.03 233.437 162.147 232.648 163.103L233.034 163.421L233.42 163.739C234.245 162.738 235.053 161.578 235.84 160.256L235.411 160ZM226.266 168.017L226.167 167.526C223.76 168.009 221.284 167.311 218.809 165.523L218.517 165.928L218.224 166.334C220.856 168.235 223.611 169.059 226.364 168.507L226.266 168.017ZM212.825 159.899L213.233 159.61C211.795 157.582 210.403 155.208 209.079 152.528L208.631 152.75L208.182 152.971C209.525 155.689 210.944 158.11 212.418 160.188L212.825 159.899ZM205.341 145.083L205.81 144.908C204.891 142.449 204.026 139.832 203.226 137.076L202.746 137.216L202.266 137.355C203.072 140.133 203.945 142.774 204.873 145.258L205.341 145.083ZM200.68 129.149L201.168 129.04C200.579 126.408 200.047 123.685 199.579 120.884L199.086 120.966L198.593 121.049C199.064 123.868 199.599 126.609 200.193 129.258L200.68 129.149ZM197.928 112.752L198.425 112.695C198.113 109.997 197.86 107.244 197.673 104.447L197.174 104.481L196.676 104.514C196.864 107.327 197.117 110.096 197.431 112.809L197.928 112.752ZM196.817 96.1778L197.317 96.1681C197.264 93.4329 197.275 90.667 197.354 87.8796L196.854 87.8655L196.354 87.8513C196.274 90.6548 196.264 93.4366 196.317 96.1874L196.817 96.1778ZM197.291 79.5641L197.789 79.6026C198.001 76.8634 198.281 74.1124 198.633 71.3581L198.137 71.2946L197.641 71.231C197.286 74.0024 197.005 76.7701 196.792 79.5256L197.291 79.5641ZM199.409 63.08L199.901 63.1696C200.394 60.46 200.962 57.7553 201.608 55.0635L201.122 54.9467L200.636 54.83C199.985 57.5404 199.413 60.2632 198.917 62.9904L199.409 63.08ZM203.298 46.9254L203.776 47.0706C204.577 44.4329 205.458 41.8157 206.425 39.2268L205.957 39.0518L205.488 38.8769C204.514 41.4861 203.626 44.1231 202.819 46.7802L203.298 46.9254ZM209.119 31.3677L209.575 31.5735C210.709 29.0636 211.93 26.5893 213.243 24.1582L212.803 23.9206L212.363 23.6829C211.039 26.1355 209.807 28.6311 208.664 31.1619L209.119 31.3677ZM217.021 16.7633L217.442 17.0333C218.925 14.7218 220.501 12.4599 222.174 10.255L221.776 9.95275L221.378 9.65047C219.688 11.8768 218.097 14.1603 216.6 16.4933L217.021 16.7633ZM227.062 3.54672L227.434 3.88051C228.354 2.8542 229.299 1.84344 230.269 0.84911L229.911 0.500051L229.553 0.150993C228.573 1.15539 227.619 2.17633 226.69 3.21293L227.062 3.54672Z" fill="#9192A1"/>
</svg>
