<svg width="239" height="106" viewBox="0 0 239 106" fill="none" xmlns="http://www.w3.org/2000/svg">
<path opacity="0.6" d="M0.562 103.507C0.286 103.494 0.073 103.26 0.085 102.985C0.098 102.709 0.332 102.495 0.608 102.508L0.585 103.007L0.562 103.507ZM235.496 11.5757L235.925 11.3199L235.496 11.5757ZM235.967 102.836C236.062 103.095 235.928 103.382 235.669 103.477L231.441 105.019C231.181 105.113 230.894 104.98 230.8 104.72C230.705 104.461 230.839 104.174 231.098 104.079L234.856 102.709L233.486 98.951C233.391 98.6916 233.525 98.4046 233.784 98.31C234.044 98.2153 234.331 98.349 234.425 98.6084L235.967 102.836ZM0.585 103.007L0.608 102.508C1.953 102.569 3.299 102.623 4.646 102.67L4.629 103.17L4.611 103.669C3.261 103.622 1.911 103.568 0.562 103.507L0.585 103.007ZM12.728 103.371L12.736 102.871C15.431 102.911 18.128 102.924 20.825 102.912L20.828 103.412L20.83 103.912C18.127 103.924 15.423 103.911 12.721 103.871L12.728 103.371ZM28.928 103.296L28.916 102.796C31.614 102.732 34.309 102.642 37.001 102.528L37.023 103.028L37.044 103.527C34.346 103.642 31.644 103.731 28.94 103.796L28.928 103.296ZM45.114 102.611L45.083 102.112C47.781 101.948 50.473 101.76 53.158 101.549L53.198 102.048L53.237 102.546C50.546 102.758 47.847 102.946 45.144 103.11L45.114 102.611ZM61.264 101.342L61.216 100.844C63.907 100.584 66.59 100.302 69.262 99.9972L69.319 100.494L69.376 100.991C66.698 101.296 64.009 101.579 61.312 101.839L61.264 101.342ZM77.366 99.5054L77.301 99.0096C79.984 98.6563 82.655 98.281 85.311 97.8843L85.385 98.3788L85.459 98.8733C82.797 99.2708 80.12 99.647 77.431 100.001L77.366 99.5054ZM93.375 97.115L93.293 96.6218C95.971 96.1743 98.633 95.7055 101.276 95.2162L101.367 95.7078L101.458 96.1995C98.809 96.6898 96.142 97.1597 93.458 97.6081L93.375 97.115ZM109.322 94.1624L109.223 93.6724C111.879 93.1319 114.514 92.5709 117.125 91.9904L117.234 92.4785L117.342 92.9666C114.725 93.5484 112.084 94.1106 109.422 94.6524L109.322 94.1624ZM125.124 90.6484L125.006 90.1624C127.654 89.5223 130.275 88.8622 132.867 88.1831L132.994 88.6668L133.12 89.1505C130.523 89.8311 127.895 90.4928 125.241 91.1344L125.124 90.6484ZM140.812 86.5361L140.675 86.055C143.293 85.3134 145.877 84.5526 148.425 83.7737L148.571 84.2518L148.718 84.73C146.163 85.511 143.573 86.2737 140.948 87.0172L140.812 86.5361ZM156.273 81.8061L156.116 81.3312C158.717 80.4733 161.276 79.5965 163.788 78.7021L163.956 79.1732L164.123 79.6442C161.604 80.5413 159.038 81.4206 156.429 82.2809L156.273 81.8061ZM171.565 76.357L171.385 75.8904C173.945 74.9052 176.45 73.9018 178.897 72.8817L179.09 73.3432L179.282 73.8046C176.827 74.8285 174.313 75.8353 171.744 76.8237L171.565 76.357ZM186.519 70.1128L186.313 69.6574C188.821 68.5198 191.256 67.3645 193.615 66.1934L193.837 66.6413L194.06 67.0891C191.69 68.2656 189.244 69.4259 186.726 70.5681L186.519 70.1128ZM201.021 62.8966L200.781 62.4581C203.214 61.1249 205.547 59.7748 207.773 58.4107L208.035 58.837L208.296 59.2634C206.054 60.6365 203.708 61.9946 201.262 63.3351L201.021 62.8966ZM214.819 54.4088L214.533 53.9987C216.828 52.3979 218.973 50.7825 220.962 49.1565L221.278 49.5436L221.595 49.9306C219.585 51.5742 217.419 53.2049 215.105 54.8188L214.819 54.4088ZM227.265 44.1396L226.91 43.7872C228.926 41.7578 230.686 39.7209 232.175 37.6842L232.578 37.9793L232.982 38.2743C231.46 40.3572 229.666 42.4321 227.62 44.492L227.265 44.1396ZM236.615 31.0016L236.155 30.8066C237.245 28.2336 237.869 25.6783 238.001 23.1541L238.5 23.1802L238.999 23.2063C238.861 25.8612 238.205 28.5305 237.076 31.1966L236.615 31.0016ZM237.263 15.2328L236.794 15.4081C236.345 14.2087 235.771 13.0159 235.066 11.8314L235.496 11.5757L235.925 11.3199C236.659 12.5529 237.26 13.7994 237.731 15.0576L237.263 15.2328ZM235.496 11.5757L235.066 11.8314C234.361 10.6467 233.626 9.56864 232.867 8.59257L233.262 8.28562L233.656 7.97867C234.443 8.98964 235.2 10.1022 235.925 11.3199L235.496 11.5757ZM227.494 2.95632L227.231 3.38117C224.914 1.94326 222.482 1.17736 220.016 0.997351L220.053 0.498673L220.089 -5.01741e-06C222.718 0.191931 225.305 1.0094 227.758 2.53148L227.494 2.95632ZM212.299 1.70733L212.476 2.17524C210.186 3.03755 207.93 4.33932 205.777 6.02212L205.469 5.62816L205.161 5.2342C207.383 3.49766 209.726 2.14204 212.123 1.23942L212.299 1.70733ZM199.849 11.167L200.235 11.4845C198.639 13.4272 197.162 15.5952 195.846 17.9508L195.409 17.7069L194.973 17.4629C196.317 15.0578 197.827 12.8403 199.462 10.8496L199.849 11.167ZM192.122 24.8896L192.592 25.0614C191.715 27.4575 190.998 29.9746 190.47 32.585L189.98 32.4859L189.49 32.3868C190.028 29.7265 190.758 27.1608 191.652 24.7177L192.122 24.8896ZM188.997 40.3286L189.496 40.3535C189.369 42.9109 189.427 45.5254 189.694 48.1754L189.196 48.2255L188.699 48.2756C188.427 45.5747 188.368 42.9101 188.498 40.3037L188.997 40.3286ZM190.571 55.9984L191.055 55.875C191.684 58.3419 192.505 60.8214 193.536 63.2971L193.075 63.4894L192.613 63.6817C191.563 61.161 190.727 58.6354 190.087 56.1219L190.571 55.9984ZM196.618 70.5627L197.049 70.3089C198.329 72.4816 199.788 74.6394 201.437 76.7708L201.041 77.0768L200.646 77.3828C198.971 75.2186 197.489 73.026 196.187 70.8165L196.618 70.5627ZM206.225 83.0295L206.583 82.6807C208.345 84.4906 210.262 86.2723 212.342 88.0179L212.021 88.4009L211.699 88.7839C209.594 87.0174 207.653 85.213 205.866 83.3783L206.225 83.0295ZM218.295 93.2028L218.582 92.7931C220.655 94.2427 222.856 95.6598 225.192 97.0392L224.937 97.4697L224.683 97.9002C222.326 96.5083 220.103 95.0774 218.009 93.6126L218.295 93.2028ZM231.865 101.248L232.09 100.802C233.267 101.395 234.473 101.979 235.708 102.554L235.497 103.007L235.286 103.461C234.042 102.881 232.826 102.293 231.64 101.695L231.865 101.248Z" fill="#9192A1"/>
</svg>