<svg fill="none" height="560" viewBox="0 0 960 560" width="960" xmlns="http://www.w3.org/2000/svg" xmlns:xlink="http://www.w3.org/1999/xlink"><clipPath id="a"><path d="m0 32c0-17.67 14.33-32 32-32h240c17.67 0 32 14.33 32 32v496c0 17.67-14.33 32-32 32h-240c-17.67 0-32-14.33-32-32z"/></clipPath><clipPath id="b"><path d="m0 280h304v280h-304z"/></clipPath><clipPath id="c"><path d="m328 32c0-17.67 14.33-32 32-32h240c17.67 0 32 14.33 32 32v496c0 17.67-14.33 32-32 32h-240c-17.67 0-32-14.33-32-32z"/></clipPath><clipPath id="d"><path d="m328 280h304v280h-304z"/></clipPath><clipPath id="e"><path d="m656 32c0-17.67 14.33-32 32-32h240c17.67 0 32 14.33 32 32v496c0 17.67-14.33 32-32 32h-240c-17.67 0-32-14.33-32-32z"/></clipPath><clipPath id="f"><path d="m656 280h304v280h-304z"/></clipPath><pattern id="g" height="1" patternContentUnits="objectBoundingBox" width="1"/><pattern id="h" height="1" patternContentUnits="objectBoundingBox" width="1"/><pattern id="i" height="1" patternContentUnits="objectBoundingBox" width="1"/><g clip-path="url(#a)"><path d="m0 32c0-17.67 14.33-32 32-32h240c17.67 0 32 14.33 32 32v496c0 17.67-14.33 32-32 32h-240c-17.67 0-32-14.33-32-32z" fill="#fff"/><path d="m24.67 40.25v-3.53h18.56v3.53h-7.19v19.75h-4.17v-19.75zm29.18 12.42v-10.14h4.11v17.47h-3.98v-3.11h-.188a5.32 5.32 0 0 1 -1.94 2.41c-.896.62-2 .932-3.31.922-1.15 0-2.16-.25-3.03-.75-.865-.51-1.55-1.25-2.05-2.23-.49-.99-.734-2.18-.734-3.58v-11.132h4.11v10.5c0 1.09.301 1.97.905 2.62.615.66 1.42.98 2.41.969.6 0 1.19-.146 1.75-.438a3.54 3.54 0 0 0 1.41-1.31c.365-.583.55-1.32.547-2.2zm6.84 7.33v-17.47h3.98v2.94h.188c.313-1.02.86-1.8 1.64-2.34.782-.552 1.67-.828 2.67-.828.22 0 .47.01.75.03.292.02.532.05.72.08v3.78c-.178-.063-.454-.115-.829-.157a9.79 9.79 0 0 0 -1.08-.062c-.76 0-1.44.161-2.03.484a3.67 3.67 0 0 0 -1.41 1.33c-.334.56-.5 1.22-.5 1.97v10.243h-4.11zm15.29-10.22v10.22h-4.11v-17.47h4.03v2.98h.204c.395-.98 1.01-1.76 1.86-2.33.854-.584 1.94-.876 3.25-.876 1.21 0 2.26.256 3.16.766s1.59 1.26 2.08 2.25c.5.98.75 2.17.75 3.56v11.12h-4.11v-10.47c0-1.17-.301-2.08-.905-2.73-.605-.667-1.44-1-2.5-1-.72 0-1.36.156-1.92.469a3.37 3.37 0 0 0 -1.31 1.36c-.312.58-.468 1.3-.468 2.16zm30.67 10.53c-2.03 0-3.86-.474-5.48-1.42-1.61-.948-2.89-2.31-3.83-4.09-.928-1.78-1.39-3.92-1.39-6.42 0-2.51.463-4.66 1.39-6.44.938-1.79 2.21-3.16 3.83-4.11 1.62-.948 3.45-1.42 5.48-1.42 2.04 0 3.87.474 5.47 1.42s2.88 2.32 3.81 4.11c.938 1.78 1.41 3.93 1.41 6.44 0 2.5-.469 4.64-1.41 6.42-.937 1.78-2.21 3.15-3.81 4.09-1.6.948-3.43 1.42-5.47 1.42zm0-3.78c1.26 0 2.38-.312 3.34-.937.97-.625 1.73-1.54 2.28-2.75.552-1.22.828-2.71.828-4.47 0-1.77-.276-3.27-.828-4.48-.552-1.22-1.31-2.14-2.28-2.77-.969-.625-2.08-.938-3.34-.938s-2.38.313-3.36.938c-.969.62-1.73 1.55-2.28 2.77-.552 1.22-.828 2.71-.828 4.48 0 1.76.276 3.25.828 4.47.552 1.21 1.31 2.12 2.28 2.75.979.62 2.1.937 3.36.937zm12.98 3.47v-17.47h3.98v2.94h.188c.312-1.02.859-1.8 1.64-2.34.782-.552 1.67-.828 2.67-.828.22 0 .469.01.75.03.292.02.532.05.719.08v3.78c-.177-.063-.453-.115-.828-.157a9.78 9.78 0 0 0 -1.08-.062c-.761 0-1.44.161-2.03.484a3.67 3.67 0 0 0 -1.41 1.33c-.333.56-.5 1.22-.5 1.97v10.243h-4.11zm18.02 6.91c-2.22 0-3.96-.432-5.24-1.3-1.27-.854-2.09-1.89-2.45-3.11l3.69-.906c.166.34.411.68.734 1.01.323.34.755.62 1.3.844.54.23 1.22.344 2.05.344 1.17 0 2.13-.287 2.89-.86.77-.562 1.16-1.48 1.16-2.77v-3.3h-.235c-.198.42-.5.85-.906 1.3-.406.44-.943.81-1.61 1.12-.657.3-1.49.453-2.5.453-1.33 0-2.55-.318-3.64-.953-1.08-.636-1.95-1.58-2.59-2.84-.635-1.26-.953-2.84-.953-4.73 0-1.92.318-3.54.953-4.86.646-1.32 1.52-2.33 2.61-3.02 1.09-.688 2.31-1.03 3.66-1.03 1.02 0 1.86.172 2.53.516s1.2.76 1.59 1.25c.396.48.703.93.922 1.34h.219v-2.89h4.01v17.75c0 1.49-.354 2.72-1.06 3.7-.709.98-1.68 1.71-2.92 2.19-1.23.49-2.63.734-4.2.734zm.031-10.39c1.31 0 2.32-.47 3.03-1.41.719-.948 1.08-2.25 1.08-3.92 0-1.1-.156-2.07-.468-2.89-.313-.823-.777-1.46-1.39-1.92-.615-.458-1.36-.688-2.25-.688-.917 0-1.68.24-2.3.72-.615.48-1.08 1.14-1.39 1.97-.302.82-.453 1.76-.453 2.81 0 1.06.157 1.99.469 2.8.313.8.776 1.43 1.39 1.88.625.44 1.39.657 2.28.657zm15.9 3.84c-1.11 0-2.12-.198-3-.593a4.86 4.86 0 0 1 -2.09-1.78c-.511-.78-.766-1.74-.766-2.89 0-.98.18-1.79.547-2.44a4.24 4.24 0 0 1 1.49-1.55 7.69 7.69 0 0 1 2.14-.875 15.7 15.7 0 0 1 2.45-.437 138.34 138.34 0 0 0 2.5-.297c.636-.083 1.09-.219 1.38-.406.29-.188.44-.48.44-.875v-.078c0-.844-.25-1.5-.75-1.97-.5-.468-1.23-.702-2.19-.702-1.01 0-1.81.218-2.41.656-.583.44-.979.95-1.19 1.55l-3.83-.547c.302-1.06.802-1.95 1.5-2.66a6.53 6.53 0 0 1 2.55-1.61c1.01-.364 2.12-.547 3.34-.547.83 0 1.67.1 2.5.297.83.188 1.6.51 2.3.97a5.02 5.02 0 0 1 1.67 1.84c.416.77.625 1.73.625 2.89v11.694h-3.95v-2.41h-.125c-.25.48-.605.93-1.06 1.36-.448.42-1.01.754-1.69 1.01-.667.26-1.46.39-2.38.39zm1.05-3.03c.833 0 1.55-.162 2.16-.485a3.72 3.72 0 0 0 1.41-1.31c.333-.552.5-1.15.5-1.8v-2.05c-.135.1-.354.2-.656.3-.302.08-.646.16-1.03.235-.386.07-.766.13-1.14.187-.365.05-.682.09-.953.12a6.87 6.87 0 0 0 -1.66.422c-.48.19-.86.45-1.14.781-.281.33-.422.77-.422 1.3 0 .76.28 1.33.828 1.72.552.38 1.25.578 2.11.578zm14.99-7.55v10.22h-4.11v-17.47h4.03v2.98h.203c.396-.98 1.02-1.76 1.86-2.33.855-.584 1.94-.876 3.25-.876 1.21 0 2.26.256 3.16.766.89.51 1.59 1.26 2.08 2.25.5.98.75 2.17.75 3.56v11.12h-4.11v-10.47c0-1.17-.302-2.08-.906-2.73-.604-.667-1.44-1-2.5-1-.719 0-1.36.156-1.92.469a3.37 3.37 0 0 0 -1.31 1.36c-.313.58-.469 1.3-.469 2.16zm13.949 10.22v-17.47h4.11v17.47zm2.06-19.92a2.38 2.38 0 0 1 -1.69-.656c-.469-.438-.703-.964-.703-1.58 0-.625.23-1.16.703-1.59a2.38 2.38 0 0 1 1.69-.656c.646 0 1.2.218 1.67.656s.7.964.7 1.58c0 .625-.234 1.16-.703 1.59a2.37 2.37 0 0 1 -1.67.656zm4.55 19.92v-2.61l8.98-11.3v-.157h-8.7v-3.41h13.73v2.83l-8.55 11.08v.157h8.84v3.41h-14.31zm23.91.344c-1.75 0-3.26-.365-4.53-1.09-1.27-.74-2.25-1.78-2.94-3.12-.677-1.34-1.02-2.93-1.02-4.75 0-1.8.339-3.38 1.02-4.73.677-1.36 1.63-2.43 2.86-3.19s2.68-1.14 4.34-1.14a8.96 8.96 0 0 1 3.05.515 6.98 6.98 0 0 1 2.56 1.59c.75.72 1.34 1.64 1.77 2.75.427 1.1.641 2.42.641 3.95v1.28h-14.31v-2.77h12.27l-1.92.812c0-.99-.151-1.85-.453-2.58-.302-.74-.75-1.32-1.34-1.73-.594-.417-1.33-.625-2.22-.625-.885 0-1.64.208-2.27.625a3.95 3.95 0 0 0 -1.42 1.69c-.323.7-.485 1.48-.485 2.34v1.92c0 1.06.183 1.97.547 2.73.375.75.896 1.32 1.56 1.72.677.4 1.46.594 2.36.594.58 0 1.11-.084 1.59-.25a3.29 3.29 0 0 0 1.25-.75c.354-.344.62-.766.81-1.27l3.84.453a6.16 6.16 0 0 1 -1.39 2.66c-.666.75-1.53 1.33-2.58 1.75-1.04.407-2.24.61-3.59.61zm16.1-.032c-1.36 0-2.59-.348-3.69-1.05-1.08-.709-1.94-1.74-2.56-3.08-.625-1.34-.937-2.97-.937-4.89 0-1.95.318-3.59.953-4.92.646-1.33 1.51-2.34 2.59-3.03 1.08-.688 2.3-1.03 3.64-1.03 1.03 0 1.88.172 2.53.516.66.344 1.18.76 1.56 1.25.396.48.698.93.906 1.34h.172v-8.7h4.09v23.282h-4.02v-2.77h-.25c-.218.43-.526.88-.922 1.36-.395.47-.921.88-1.58 1.22-.656.33-1.49.5-2.5.5zm1.14-3.37c.875 0 1.61-.235 2.22-.704.61-.479 1.08-1.14 1.41-1.98.323-.854.48-1.84.484-2.97 0-1.14-.161-2.12-.484-2.95-.313-.844-.776-1.5-1.39-1.95-.604-.458-1.35-.688-2.23-.688-.906 0-1.67.24-2.28.72-.615.48-1.08 1.14-1.39 1.98-.302.84-.453 1.81-.453 2.89s.156 2.05.469 2.91c.312.85.771 1.53 1.38 2.02.614.49 1.38.734 2.28.734zm-205.64 35.058v-23.28h8.73c1.79 0 3.29.312 4.5.937 1.22.625 2.14 1.5 2.77 2.62.624 1.11.937 2.41.937 3.89 0 1.49-.318 2.78-.953 3.88-.625 1.09-1.55 1.94-2.78 2.53-1.23.594-2.74.89-4.53.89h-6.2v-3.48h5.62c1.05 0 1.91-.145 2.58-.437.68-.292 1.17-.719 1.49-1.28.323-.573.48-1.27.484-2.09s-.161-1.53-.484-2.11c-.323-.593-.818-1.04-1.49-1.34-.666-.313-1.53-.469-2.59-.469h-3.86v19.739h-4.22zm13.08 0-5.64-10.56h4.59l5.76 10.56h-4.72zm13.54.344c-1.75 0-3.26-.365-4.53-1.09-1.27-.74-2.25-1.78-2.94-3.12-.677-1.34-1.01-2.93-1.01-4.75 0-1.8.338-3.38 1.01-4.73.677-1.36 1.63-2.43 2.86-3.19s2.68-1.14 4.34-1.14c1.07 0 2.09.171 3.05.515a6.99 6.99 0 0 1 2.56 1.59c.75.72 1.34 1.64 1.76 2.75.428 1.1.641 2.42.641 3.95v1.28h-14.311v-2.77h12.27l-1.92.812c0-.99-.15-1.85-.453-2.58-.302-.74-.75-1.32-1.34-1.73-.593-.417-1.33-.625-2.22-.625-.886 0-1.64.208-2.27.625a3.95 3.95 0 0 0 -1.42 1.69c-.323.7-.484 1.48-.484 2.34v1.92c0 1.06.182 1.97.547 2.73.375.75.896 1.32 1.56 1.72.677.4 1.46.594 2.36.594a4.84 4.84 0 0 0 1.59-.25 3.29 3.29 0 0 0 1.25-.75 3.41 3.41 0 0 0 .813-1.27l3.84.453a6.15 6.15 0 0 1 -1.39 2.66c-.667.75-1.53 1.33-2.58 1.75-1.04.407-2.24.61-3.59.61zm17.27 0c-1.74 0-3.23-.38-4.49-1.14-1.25-.772-2.21-1.83-2.88-3.19-.666-1.35-1-2.91-1-4.67 0-1.78.339-3.35 1.02-4.7.677-1.35 1.64-2.41 2.89-3.17 1.25-.771 2.73-1.16 4.42-1.16 1.43 0 2.69.26 3.78.78 1.09.522 1.96 1.26 2.61 2.2.655.94 1.03 2.04 1.12 3.3h-3.94a3.97 3.97 0 0 0 -.61-1.52 3.25 3.25 0 0 0 -1.19-1.06c-.48-.26-1.05-.391-1.72-.391-.844 0-1.58.23-2.22.688-.625.45-1.11 1.09-1.47 1.94-.354.84-.53 1.85-.53 3.03 0 1.19.171 2.21.515 3.08.344.86.833 1.52 1.47 1.99.635.46 1.38.687 2.23.687.91 0 1.67-.265 2.3-.797.63-.53 1.04-1.26 1.22-2.2h3.94c-.094 1.24-.458 2.33-1.09 3.28-.635.95-1.49 1.69-2.58 2.23-1.08.531-2.35.797-3.81.797zm17.12 0c-1.75 0-3.26-.365-4.53-1.09-1.27-.74-2.25-1.78-2.94-3.12-.677-1.34-1.01-2.93-1.01-4.75 0-1.8.338-3.38 1.02-4.73.677-1.36 1.63-2.43 2.86-3.19s2.68-1.14 4.34-1.14c1.07 0 2.09.171 3.05.515a6.99 6.99 0 0 1 2.56 1.59c.75.72 1.34 1.64 1.77 2.75.427 1.1.64 2.42.64 3.95v1.28h-14.33v-2.77h12.27l-1.92.812c0-.99-.151-1.85-.454-2.58-.302-.74-.75-1.32-1.34-1.73-.594-.417-1.33-.625-2.22-.625-.885 0-1.64.208-2.27.625a3.95 3.95 0 0 0 -1.42 1.69c-.323.7-.484 1.48-.484 2.34v1.92c0 1.06.182 1.97.547 2.73.375.75.896 1.32 1.56 1.72.677.4 1.46.594 2.36.594a4.85 4.85 0 0 0 1.59-.25c.49-.167.91-.417 1.25-.75.35-.344.62-.766.81-1.27l3.84.453a6.15 6.15 0 0 1 -1.39 2.66c-.668.75-1.53 1.33-2.58 1.75-1.04.407-2.24.61-3.59.61zm9.66-.344v-17.47h4.11v17.47zm2.06-19.92a2.39 2.39 0 0 1 -1.69-.656c-.47-.438-.704-.964-.704-1.58 0-.625.24-1.16.704-1.59a2.39 2.39 0 0 1 1.69-.656 2.37 2.37 0 0 1 1.67.656c.469.44.703.96.703 1.58 0 .625-.234 1.16-.703 1.59a2.37 2.37 0 0 1 -1.67.656zm4.77 26.45v-24h4.03v2.89h.25c.208-.416.5-.864.89-1.34.385-.49.91-.906 1.56-1.25.667-.344 1.52-.516 2.55-.516 1.34 0 2.56.344 3.64 1.03 1.08.687 1.94 1.7 2.58 3.03.646 1.33.969 2.97.969 4.92 0 1.92-.313 3.55-.938 4.89s-1.48 2.37-2.58 3.08c-1.08.697-2.31 1.05-3.69 1.05-.99 0-1.82-.166-2.48-.5-.656-.343-1.19-.75-1.59-1.22-.395-.48-.698-.932-.906-1.36h-.172v9.3h-4.11zm8.14-9.59c.906 0 1.66-.244 2.27-.734.62-.49 1.08-1.16 1.39-2.02.312-.854.47-1.82.469-2.91 0-1.08-.157-2.05-.469-2.89-.313-.844-.771-1.51-1.38-1.99-.604-.479-1.36-.719-2.28-.719-.886 0-1.64.23-2.25.688-.605.46-1.07 1.11-1.39 1.95-.313.83-.469 1.82-.469 2.95 0 1.12.156 2.12.469 2.97.323.84.792 1.5 1.41 1.98.615.47 1.36.704 2.23.704zm18.99-14.41v3.19h-10.02v-3.19zm-7.56-4.16h4.11v16.38c0 .688.15 1.2.453 1.53.302.32.781.49 1.44.485.18 0 .375-.16.59-.47.22-.31.42-.68.59-.11l.703 3.22c-.437.13-.88.23-1.33.296-.448.07-.896.11-1.34.11-1.62 0-2.9-.428-3.83-1.28-.927-.865-1.39-2.04-1.39-3.53v-16.621zm23.04 8.8-3.73.39c-.157-.572-.495-1.08-1.02-1.51-.521-.448-1.25-.672-2.2-.672-.854 0-1.57.188-2.16.563-.573.37-.86.85-.86 1.44 0 .51.19.932.56 1.27.385.32 1.02.583 1.91.78l2.98.626c1.64.344 2.86.906 3.67 1.69.813.78 1.22 1.79 1.22 3.03 0 1.09-.318 2.06-.953 2.91-.636.84-1.52 1.5-2.64 1.97-1.11.468-2.4.703-3.86.703-2.14 0-3.85-.448-5.16-1.34-1.29-.906-2.07-2.16-2.33-3.77l4.02-.375c.177.78.563 1.38 1.16 1.78.604.39 1.38.593 2.31.593.98 0 1.76-.197 2.36-.593.59-.407.89-.901.89-1.49 0-.979-.781-1.65-2.34-2l-2.98-.625c-1.68-.364-2.92-.953-3.72-1.76-.802-.823-1.2-1.87-1.2-3.14 0-1.08.297-2.02.89-2.81.594-.791 1.42-1.41 2.48-1.84 1.06-.438 2.29-.656 3.69-.656 2.05 0 3.66.442 4.83 1.33 1.18.875 1.91 2.05 2.19 3.53zm8.71 12.83v-17.47h4.11v17.47zm2.06-19.92a2.38 2.38 0 0 1 -1.69-.656c-.469-.438-.704-.964-.704-1.58 0-.625.24-1.16.704-1.59a2.38 2.38 0 0 1 1.69-.656 2.37 2.37 0 0 1 1.67.656c.469.44.703.96.703 1.58 0 .625-.234 1.16-.703 1.59a2.37 2.37 0 0 1 -1.67.656zm8.88 9.7v10.22h-4.11v-17.47h4.03v2.98h.203c.396-.98 1.02-1.76 1.86-2.33.854-.583 1.94-.874 3.25-.874 1.21 0 2.26.255 3.16.765s1.59 1.26 2.08 2.25c.5.98.75 2.17.75 3.56v11.119h-4.11v-10.47c0-1.17-.302-2.08-.907-2.73-.604-.667-1.44-1-2.5-1-.718 0-1.36.156-1.92.469a3.36 3.36 0 0 0 -1.31 1.36c-.312.58-.469 1.3-.469 2.16zm22.65-7.25v3.19h-10.02v-3.19zm-7.56-4.16h4.11v16.38c0 .688.15 1.2.453 1.53.302.32.781.49 1.44.485.18 0 .375-.16.59-.47.22-.31.42-.68.59-.11l.703 3.22c-.437.13-.88.23-1.33.296-.448.07-.896.11-1.34.11-1.62 0-2.9-.428-3.83-1.28-.927-.865-1.39-2.04-1.39-3.53v-16.621zm16.93 21.97c-1.71 0-3.19-.375-4.44-1.12-1.25-.75-2.22-1.8-2.91-3.16-.677-1.35-1.02-2.93-1.02-4.72 0-1.8.339-3.38 1.02-4.73.687-1.36 1.66-2.42 2.91-3.17s2.73-1.13 4.44-1.13 3.19.376 4.44 1.13c1.25.75 2.22 1.81 2.91 3.17.688 1.35 1.03 2.93 1.03 4.74 0 1.79-.344 3.36-1.03 4.72-.687 1.35-1.66 2.41-2.91 3.16s-2.73 1.12-4.44 1.12zm0-3.31c.947 0 1.73-.25 2.34-.75.61-.51 1.07-1.2 1.38-2.06.313-.865.47-1.82.469-2.88 0-1.07-.156-2.04-.469-2.91-.302-.865-.76-1.55-1.38-2.05-.614-.51-1.4-.766-2.34-.766-.928 0-1.7.255-2.33.766-.625.5-1.09 1.18-1.41 2.05-.302.87-.453 1.83-.453 2.91 0 1.05.151 2.01.453 2.88.313.86.781 1.55 1.41 2.06.625.5 1.4.75 2.33.75zm-168.78 34.97h-4.51l8.22-23.28h5.19l8.19 23.28h-4.5l-6.22-18.5h-.188zm.157-9.12h12.27v3.38h-12.277v-3.38zm29.45 1.8v-10.14h4.11v17.46h-3.98v-3.11h-.187a5.32 5.32 0 0 1 -1.94 2.41c-.895.62-2 .932-3.31.922-1.15 0-2.16-.25-3.03-.75-.865-.511-1.55-1.25-2.05-2.23-.49-.989-.735-2.18-.735-3.58v-11.12h4.11v10.5c0 1.09.302 1.97.906 2.62.615.66 1.42.979 2.41.969.6 0 1.19-.146 1.75-.437a3.54 3.54 0 0 0 1.41-1.31c.364-.583.55-1.32.546-2.2zm13.27 7.64c-1.36 0-2.59-.348-3.69-1.05-1.08-.709-1.94-1.74-2.56-3.08-.625-1.34-.937-2.97-.937-4.89 0-1.95.317-3.59.953-4.92.646-1.33 1.51-2.34 2.59-3.03 1.08-.688 2.3-1.03 3.64-1.03 1.03 0 1.88.172 2.53.516.66.344 1.18.761 1.56 1.25.396.48.698.93.906 1.34h.172v-8.7h4.09v23.274h-4.02v-2.77h-.25a7.65 7.65 0 0 1 -.922 1.36c-.396.47-.922.88-1.58 1.22-.656.33-1.49.5-2.5.5zm1.14-3.37c.876 0 1.61-.235 2.22-.704.61-.479 1.08-1.14 1.41-1.98.323-.854.48-1.84.484-2.97 0-1.14-.161-2.12-.484-2.95-.313-.844-.776-1.5-1.39-1.95-.605-.458-1.35-.687-2.23-.687-.906 0-1.67.239-2.28.718-.615.48-1.08 1.14-1.39 1.99-.302.84-.453 1.81-.453 2.89s.156 2.05.469 2.91c.312.85.77 1.53 1.37 2.02.615.49 1.38.735 2.28.735zm10.853 3.05v-17.47h4.11v17.47zm2.06-19.92a2.39 2.39 0 0 1 -1.69-.656c-.47-.438-.703-.964-.703-1.58 0-.625.23-1.16.703-1.59a2.39 2.39 0 0 1 1.69-.656 2.37 2.37 0 0 1 1.67.656c.469.44.703.96.703 1.58 0 .625-.234 1.16-.703 1.59a2.37 2.37 0 0 1 -1.67.656zm13.48 2.45v3.19h-10.02v-3.19zm-7.56-4.16h4.11v16.38c0 .688.15 1.2.453 1.53.302.32.781.49 1.44.485.18 0 .374-.16.59-.47.22-.31.42-.68.59-.11l.703 3.22c-.437.14-.88.23-1.33.297a8.34 8.34 0 0 1 -1.34.109c-1.62 0-2.9-.427-3.83-1.28-.927-.864-1.39-2.04-1.39-3.53v-17.05zm19.51 10.25v3.38h-10.47v-3.38zm2.97 11.38v-23.28h8.73c1.79 0 3.29.312 4.5.937 1.22.625 2.14 1.5 2.77 2.62.625 1.11.937 2.41.937 3.89 0 1.49-.318 2.78-.953 3.88-.625 1.09-1.55 1.94-2.78 2.53-1.23.594-2.74.891-4.53.891h-6.2v-3.48h5.62c1.05 0 1.91-.145 2.58-.437.68-.292 1.17-.719 1.49-1.28.323-.573.48-1.27.484-2.09s-.161-1.53-.484-2.11c-.323-.593-.818-1.04-1.49-1.34-.666-.313-1.53-.469-2.59-.469h-3.86v19.738h-4.22zm13.08 0-5.64-10.56h4.59l5.76 10.56h-4.72zm13.54.344c-1.75 0-3.26-.365-4.53-1.09-1.27-.74-2.25-1.78-2.94-3.12-.677-1.34-1.01-2.93-1.01-4.75 0-1.8.338-3.38 1.01-4.73.677-1.36 1.63-2.43 2.86-3.19s2.68-1.14 4.34-1.14c1.07 0 2.09.172 3.05.516a6.99 6.99 0 0 1 2.56 1.59c.75.72 1.34 1.64 1.76 2.75.427 1.1.641 2.42.641 3.95v1.28h-14.31v-2.77h12.27l-1.92.812c0-.989-.151-1.85-.453-2.58-.302-.74-.75-1.32-1.34-1.73-.593-.417-1.33-.625-2.22-.625-.886 0-1.64.208-2.27.625a3.95 3.95 0 0 0 -1.42 1.69c-.323.7-.484 1.48-.484 2.34v1.92c0 1.06.182 1.97.547 2.73.375.75.895 1.32 1.56 1.72.677.4 1.46.594 2.36.594a4.84 4.84 0 0 0 1.59-.25 3.29 3.29 0 0 0 1.25-.75 3.41 3.41 0 0 0 .813-1.27l3.84.453a6.15 6.15 0 0 1 -1.39 2.66c-.667.75-1.53 1.33-2.58 1.75-1.04.407-2.24.61-3.59.61zm14.7.015c-1.11 0-2.12-.198-3-.593-.886-.407-1.58-1-2.09-1.78-.511-.781-.766-1.74-.766-2.89 0-.979.18-1.79.547-2.44a4.24 4.24 0 0 1 1.49-1.55 7.7 7.7 0 0 1 2.14-.875 15.7 15.7 0 0 1 2.45-.437 138.34 138.34 0 0 0 2.5-.297c.636-.083 1.09-.219 1.38-.406.29-.188.44-.479.44-.875v-.078c0-.844-.25-1.5-.75-1.97-.5-.469-1.23-.703-2.19-.703-1.01 0-1.81.219-2.41.656-.583.44-.979.95-1.19 1.55l-3.83-.547c.302-1.06.802-1.95 1.5-2.66.698-.719 1.55-1.25 2.55-1.61 1.01-.364 2.12-.547 3.34-.547.83 0 1.67.099 2.5.297a6.93 6.93 0 0 1 2.3.969 5.01 5.01 0 0 1 1.67 1.84c.416.77.625 1.73.625 2.89v11.697h-3.95v-2.41h-.125c-.25.48-.605.93-1.06 1.36-.448.42-1.01.755-1.69 1.02-.667.26-1.46.39-2.38.39zm1.05-3.03c.833 0 1.55-.161 2.16-.484.6-.334 1.07-.771 1.41-1.31.333-.552.5-1.15.5-1.8v-2.05c-.135.1-.354.2-.656.3-.302.08-.646.16-1.03.235-.386.07-.766.13-1.14.187-.365.05-.682.09-.953.12a6.89 6.89 0 0 0 -1.66.422c-.48.19-.86.45-1.14.781-.281.33-.422.77-.422 1.3 0 .761.28 1.33.828 1.72.552.38 1.25.578 2.11.578zm17.32 2.98c-1.36 0-2.59-.348-3.69-1.05-1.08-.709-1.94-1.74-2.56-3.08-.625-1.34-.937-2.97-.937-4.89 0-1.95.317-3.59.953-4.92.646-1.33 1.51-2.34 2.59-3.03 1.08-.688 2.3-1.03 3.64-1.03 1.03 0 1.88.172 2.53.516.66.344 1.18.761 1.56 1.25.396.48.698.93.906 1.34h.172v-8.7h4.09v23.285h-4.02v-2.77h-.25a7.66 7.66 0 0 1 -.922 1.36c-.396.47-.922.88-1.58 1.22-.656.33-1.49.5-2.5.5zm1.14-3.37c.875 0 1.61-.235 2.22-.704.62-.479 1.08-1.14 1.41-1.98.323-.854.48-1.84.484-2.97 0-1.14-.161-2.12-.484-2.95-.313-.844-.776-1.5-1.39-1.95-.604-.458-1.35-.687-2.23-.687-.907 0-1.67.239-2.28.718-.614.48-1.08 1.14-1.39 1.99-.302.84-.453 1.81-.453 2.89s.156 2.05.468 2.91c.313.85.771 1.53 1.38 2.02.615.49 1.38.735 2.28.735zm13.41 9.59a7.37 7.37 0 0 1 -1.56-.125 6.08 6.08 0 0 1 -1.14-.297l.969-3.2.203.06c.833.22 1.54.234 2.12.47.59-.188 1.07-.756 1.42-1.7l.344-.937-6.31-17.84h4.36l4.02 13.2h.188l4.03-13.2h4.39l-7 19.58c-.323.93-.75 1.72-1.28 2.38a5.11 5.11 0 0 1 -1.97 1.52c-.781.35-1.71.531-2.78.531zm-162.57 25.471v-23.28h8.73c1.79 0 3.29.312 4.5.937 1.22.625 2.14 1.5 2.77 2.62.624 1.11.937 2.41.937 3.89 0 1.49-.318 2.78-.953 3.88-.625 1.09-1.55 1.94-2.78 2.53-1.23.594-2.74.891-4.53.891h-6.2v-3.48h5.62c1.05 0 1.91-.145 2.58-.437.68-.292 1.17-.719 1.49-1.28.323-.573.48-1.27.484-2.09s-.161-1.53-.484-2.11c-.323-.593-.818-1.04-1.49-1.34-.666-.313-1.53-.469-2.59-.469h-3.86v19.738h-4.22zm13.08 0-5.64-10.56h4.59l5.76 10.56h-4.72zm13.54.344c-1.75 0-3.26-.365-4.53-1.09-1.27-.74-2.25-1.78-2.94-3.12-.677-1.34-1.01-2.93-1.01-4.75 0-1.8.338-3.38 1.01-4.73.677-1.36 1.63-2.43 2.86-3.19s2.68-1.14 4.34-1.14a8.95 8.95 0 0 1 3.05.516 6.99 6.99 0 0 1 2.56 1.59c.75.72 1.34 1.64 1.76 2.75.428 1.1.641 2.42.641 3.95v1.28h-14.311v-2.77h12.27l-1.92.812c0-.989-.15-1.85-.453-2.58-.302-.74-.75-1.32-1.34-1.73-.593-.417-1.33-.625-2.22-.625-.886 0-1.64.208-2.27.625a3.95 3.95 0 0 0 -1.42 1.69c-.323.7-.484 1.48-.484 2.34v1.92c0 1.06.182 1.97.547 2.73.375.75.896 1.32 1.56 1.72.677.4 1.46.594 2.36.594a4.84 4.84 0 0 0 1.59-.25 3.29 3.29 0 0 0 1.25-.75 3.41 3.41 0 0 0 .813-1.27l3.84.453a6.15 6.15 0 0 1 -1.39 2.66c-.667.75-1.53 1.33-2.58 1.75-1.04.407-2.24.61-3.59.61zm9.66 6.19v-24h4.03v2.89h.25c.208-.417.5-.865.89-1.34.386-.489.91-.906 1.56-1.25.666-.344 1.51-.516 2.55-.516 1.34 0 2.56.344 3.64 1.03 1.08.687 1.94 1.7 2.58 3.03.646 1.33.97 2.97.97 4.92 0 1.92-.313 3.55-.938 4.89s-1.49 2.37-2.58 3.08c-1.08.698-2.31 1.05-3.69 1.05-.99 0-1.82-.166-2.48-.5-.657-.343-1.19-.75-1.59-1.22a6.99 6.99 0 0 1 -.906-1.36h-.172v9.3h-4.11zm8.14-9.59c.906 0 1.66-.245 2.27-.735.61-.489 1.08-1.16 1.39-2.02.313-.855.47-1.82.469-2.91 0-1.08-.156-2.05-.469-2.89-.312-.844-.77-1.51-1.38-1.99-.604-.479-1.36-.718-2.28-.718-.885 0-1.64.229-2.25.687-.604.46-1.07 1.11-1.39 1.95-.313.83-.47 1.82-.47 2.95 0 1.12.157 2.12.47 2.97.322.84.791 1.5 1.41 1.98.614.47 1.36.704 2.23.704zm17.9 3.41c-1.71 0-3.19-.375-4.44-1.12-1.25-.75-2.22-1.8-2.91-3.16-.677-1.35-1.02-2.93-1.02-4.72 0-1.8.339-3.38 1.02-4.74.688-1.36 1.66-2.42 2.91-3.17s2.73-1.13 4.44-1.13 3.19.376 4.44 1.13c1.25.75 2.22 1.81 2.91 3.17.687 1.35 1.03 2.93 1.03 4.74 0 1.79-.343 3.36-1.03 4.72-.688 1.35-1.66 2.41-2.91 3.16s-2.73 1.12-4.44 1.12zm0-3.31c.948 0 1.73-.25 2.34-.75.61-.51 1.07-1.2 1.38-2.06.312-.865.47-1.82.468-2.88 0-1.07-.156-2.04-.468-2.91-.303-.865-.76-1.55-1.38-2.05-.615-.511-1.4-.766-2.34-.766-.927 0-1.7.255-2.33.766-.625.5-1.09 1.18-1.41 2.05-.302.86-.453 1.83-.453 2.91 0 1.05.151 2.01.453 2.88.313.86.782 1.55 1.41 2.06.625.5 1.4.75 2.33.75zm10.32 2.956v-17.47h3.98v2.94h.187c.313-1.02.86-1.8 1.64-2.34.781-.552 1.67-.828 2.67-.828.22 0 .469.01.75.03.291.02.531.05.719.08v3.78c-.178-.063-.454-.115-.829-.157a9.93 9.93 0 0 0 -1.08-.062c-.76 0-1.44.161-2.03.484a3.67 3.67 0 0 0 -1.41 1.33c-.334.56-.5 1.22-.5 1.97v10.243h-4.11zm20.82-17.47v3.19h-10.02v-3.19zm-7.56-4.16h4.11v16.38c0 .688.15 1.2.453 1.53.302.32.781.49 1.44.485.18 0 .375-.16.59-.47.22-.31.42-.68.59-.11l.703 3.22c-.437.14-.88.23-1.33.297a8.34 8.34 0 0 1 -1.34.109c-1.62 0-2.9-.427-3.83-1.28-.927-.864-1.39-2.04-1.39-3.53v-17.05zm23.04 8.8-3.73.39c-.157-.572-.495-1.08-1.02-1.51-.521-.448-1.25-.672-2.2-.672-.854 0-1.57.187-2.16.563-.573.37-.86.85-.86 1.44 0 .51.19.932.56 1.27.385.32 1.02.583 1.91.781l2.98.625c1.64.344 2.86.906 3.67 1.69.813.78 1.22 1.79 1.22 3.03 0 1.09-.318 2.06-.953 2.91-.636.84-1.52 1.5-2.64 1.97-1.11.468-2.4.703-3.86.703-2.14 0-3.85-.448-5.16-1.34-1.29-.906-2.07-2.16-2.33-3.77l4.02-.375c.177.78.563 1.38 1.16 1.78.604.39 1.38.593 2.31.593.98 0 1.76-.198 2.36-.593.59-.407.89-.901.89-1.49 0-.979-.781-1.65-2.34-2l-2.98-.625c-1.68-.364-2.92-.953-3.72-1.76-.802-.823-1.2-1.87-1.2-3.14 0-1.08.297-2.02.89-2.81.594-.791 1.42-1.41 2.48-1.84 1.06-.438 2.29-.657 3.69-.657 2.05 0 3.66.443 4.83 1.33 1.18.875 1.91 2.05 2.19 3.53z" fill="#000"/><path d="m25.03 186v-11.64h7.03v1.25h-5.63v3.89h5.25v1.25h-5.25v4h5.7v1.25h-7.11zm9.64-8.73 2.08 3.58 2.09-3.58h1.55l-2.81 4.38 2.81 4.35h-1.55l-2.09-3.39-2.08 3.39h-1.55l2.77-4.36-2.77-4.38h1.55zm6.89 12v-12h1.28v1.39h.16c.099-.151.24-.344.41-.578.18-.239.43-.453.77-.64.33-.188.78-.282 1.35-.282.74 0 1.38.185 1.94.555.56.365.99.885 1.3 1.56.318.67.477 1.47.477 2.38 0 .922-.156 1.72-.469 2.41-.312.68-.747 1.2-1.3 1.57-.558.37-1.2.555-1.93.555-.557 0-1-.094-1.34-.282-.338-.192-.599-.409-.781-.648a10.36 10.36 0 0 1 -.422-.602h-.11v4.61h-1.33zm3.81-4.28c.557 0 1.02-.148 1.4-.445.38-.302.66-.706.84-1.21a4.7 4.7 0 0 0 .29-1.69 4.65 4.65 0 0 0 -.282-1.66c-.188-.495-.469-.888-.844-1.18-.37-.292-.838-.438-1.41-.438-.547 0-1.138-1.38.414-.37.27-.651.65-.844 1.15-.187.49-.281 1.06-.281 1.72 0 .656.1 1.24.29 1.74.192.5.473.89.843 1.18.375" fill="#7e8890"/><g clip-path="url(#b)"><path d="m-116 282.5h532v278h-532z" fill="url(#g)"/></g></g><g clip-path="url(#c)"><path d="m328 32c0-17.67 14.33-32 32-32h240c17.67 0 32 14.33 32 32v496c0 17.67-14.33 32-32 32h-240c-17.67 0-32-14.33-32-32z" fill="#fff"/><path d="m357.91 36.72v23.28h-4.22v-23.28zm6.99 13.06v10.22h-4.11v-17.47h4.03v2.98h.203c.396-.98 1.01-1.76 1.86-2.33.854-.584 1.94-.876 3.25-.876 1.21 0 2.26.256 3.16.766s1.59 1.26 2.08 2.25c.5.98.75 2.17.75 3.56v11.12h-4.11v-10.47c0-1.17-.302-2.08-.906-2.73-.604-.667-1.44-1-2.5-1-.719 0-1.36.156-1.92.469-.552.31-.99.77-1.31 1.36-.312.58-.468 1.3-.468 2.16zm28.91-7.25-6.22 17.47h-4.56l-6.2-17.47h4.39l4.05 12.98h.188l4.01-12.98h4.34zm1.34 17.47v-17.47h4.11v17.47zm2.06-19.92a2.39 2.39 0 0 1 -1.69-.656c-.468-.438-.703-.964-.703-1.58 0-.625.24-1.16.703-1.59a2.39 2.39 0 0 1 1.69-.656c.646 0 1.2.218 1.67.656s.7.964.7 1.58c0 .625-.234 1.16-.703 1.59a2.37 2.37 0 0 1 -1.67.656zm13.48 2.45v3.19h-10.02v-3.19zm-7.56-4.16h4.11v16.38c0 .688.15 1.2.453 1.53.302.32.781.49 1.44.485.18 0 .375-.16.59-.47.22-.32.42-.68.59-.11l.703 3.22a8.53 8.53 0 0 1 -1.33.296c-.448.07-.896.11-1.34.11-1.62 0-2.9-.428-3.83-1.28-.927-.864-1.39-2.04-1.39-3.53v-16.621zm17.05 21.97c-1.75 0-3.26-.365-4.53-1.09-1.27-.74-2.25-1.78-2.94-3.12-.678-1.34-1.02-2.93-1.02-4.75 0-1.8.338-3.38 1.02-4.73.677-1.36 1.63-2.43 2.86-3.19s2.68-1.14 4.34-1.14a8.96 8.96 0 0 1 3.05.515 7 7 0 0 1 2.56 1.59c.75.72 1.34 1.64 1.77 2.75.427 1.1.64 2.42.64 3.95v1.28h-14.31v-2.77h12.27l-1.92.812c0-.99-.152-1.85-.454-2.58-.302-.74-.75-1.32-1.34-1.73-.594-.417-1.33-.625-2.22-.625-.886 0-1.64.208-2.27.625a3.95 3.95 0 0 0 -1.42 1.69c-.323.7-.484 1.48-.484 2.34v1.92c0 1.06.182 1.97.547 2.73.375.75.896 1.32 1.56 1.72.677.4 1.46.594 2.36.594a4.85 4.85 0 0 0 1.59-.25 3.29 3.29 0 0 0 1.25-.75c.354-.344.62-.766.81-1.27l3.84.453a6.16 6.16 0 0 1 -1.39 2.66c-.667.75-1.53 1.33-2.58 1.75-1.04.407-2.24.61-3.59.61zm14.67-23.62h4.76l5.69 10.31h.25l5.69-10.31h4.77l-8.48 14.59v8.69h-4.2v-8.69l-8.47-14.59zm26.84 23.62c-1.71 0-3.19-.375-4.44-1.12-1.25-.75-2.22-1.8-2.91-3.16-.677-1.35-1.01-2.93-1.01-4.72 0-1.8.338-3.38 1.01-4.74.688-1.36 1.66-2.42 2.91-3.17s2.73-1.12 4.44-1.12 3.19.374 4.44 1.12c1.25.75 2.22 1.81 2.91 3.17.687 1.35 1.03 2.93 1.03 4.74 0 1.79-.344 3.36-1.03 4.72-.688 1.35-1.66 2.41-2.91 3.16s-2.73 1.12-4.44 1.12zm0-3.31c.948 0 1.73-.25 2.34-.75.61-.51 1.07-1.2 1.38-2.06.312-.865.47-1.82.469-2.88 0-1.07-.157-2.04-.469-2.91-.302-.864-.761-1.55-1.38-2.05-.615-.51-1.4-.766-2.34-.766-.927 0-1.7.255-2.33.766-.625.5-1.09 1.18-1.41 2.05-.302.86-.453 1.83-.453 2.91 0 1.05.151 2.01.453 2.88.312.86.781 1.55 1.41 2.06.625.5 1.4.75 2.33.75zm21.45-4.36v-10.14h4.11v17.47h-3.98v-3.11h-.188a5.32 5.32 0 0 1 -1.94 2.41c-.896.62-2 .932-3.31.922-1.15 0-2.16-.25-3.03-.75-.865-.51-1.55-1.25-2.05-2.23-.49-.99-.734-2.18-.734-3.58v-11.132h4.11v10.5c0 1.09.302 1.97.906 2.62.615.66 1.42.98 2.41.969.6 0 1.19-.146 1.75-.438a3.54 3.54 0 0 0 1.41-1.31c.364-.583.55-1.32.547-2.2zm6.83 7.33v-17.47h3.98v2.94h.188c.312-1.02.859-1.8 1.64-2.34.782-.552 1.67-.828 2.67-.828.22 0 .469.01.75.03.292.02.532.05.719.08v3.78c-.177-.063-.453-.115-.828-.157a9.78 9.78 0 0 0 -1.08-.062c-.761 0-1.44.161-2.03.484a3.67 3.67 0 0 0 -1.41 1.33c-.333.56-.5 1.22-.5 1.97v10.243h-4.11zm-133.28 32h-4.52l8.22-23.28h5.19l8.2 23.28h-4.5l-6.22-18.5h-.187zm.156-9.12h12.27v3.38h-12.27zm25.4 9.47c-1.74 0-3.23-.38-4.49-1.14-1.25-.772-2.21-1.83-2.88-3.19-.667-1.35-1-2.91-1-4.67 0-1.78.339-3.35 1.02-4.7.677-1.35 1.64-2.41 2.89-3.17 1.25-.771 2.72-1.16 4.42-1.16 1.43 0 2.69.26 3.78.78 1.09.522 1.96 1.26 2.61 2.2.656.94 1.03 2.04 1.12 3.3h-3.94a3.97 3.97 0 0 0 -.609-1.52 3.25 3.25 0 0 0 -1.19-1.06c-.48-.26-1.05-.391-1.72-.391-.844 0-1.58.23-2.22.688-.625.45-1.11 1.09-1.47 1.94-.354.84-.531 1.85-.531 3.03 0 1.19.172 2.21.516 3.08.343.86.833 1.52 1.47 1.99.636.46 1.38.687 2.23.687.91 0 1.67-.265 2.3-.797.63-.53 1.04-1.26 1.22-2.2h3.94c-.094 1.24-.458 2.33-1.09 3.28-.635.95-1.5 1.69-2.58 2.23-1.08.531-2.35.797-3.81.797zm16.99 0c-1.74 0-3.23-.38-4.48-1.14-1.25-.772-2.21-1.83-2.88-3.19-.667-1.35-1-2.91-1-4.67 0-1.78.338-3.35 1.01-4.7.677-1.35 1.64-2.41 2.89-3.17 1.25-.771 2.72-1.16 4.42-1.16 1.43 0 2.69.26 3.78.78 1.09.522 1.96 1.26 2.61 2.2.657.94 1.03 2.04 1.12 3.3h-3.94a3.97 3.97 0 0 0 -.609-1.52 3.25 3.25 0 0 0 -1.19-1.06c-.479-.26-1.05-.391-1.72-.391-.843 0-1.58.23-2.22.688-.625.45-1.11 1.09-1.47 1.94-.354.84-.531 1.85-.531 3.03 0 1.19.171 2.21.515 3.08.344.86.833 1.52 1.47 1.99.635.46 1.38.687 2.23.687.91 0 1.67-.265 2.3-.797.64-.53 1.04-1.26 1.22-2.2h3.94c-.093 1.24-.458 2.33-1.09 3.28-.636.95-1.5 1.69-2.58 2.23-1.08.531-2.35.797-3.81.797zm16.99 0c-1.71 0-3.19-.375-4.44-1.12-1.25-.75-2.22-1.8-2.91-3.16-.677-1.35-1.02-2.93-1.02-4.72 0-1.8.339-3.38 1.02-4.73.687-1.36 1.66-2.42 2.91-3.17s2.73-1.13 4.44-1.13 3.19.376 4.44 1.13c1.25.75 2.22 1.81 2.91 3.17.688 1.35 1.03 2.93 1.03 4.74 0 1.79-.344 3.36-1.03 4.72-.687 1.35-1.66 2.41-2.91 3.16s-2.73 1.12-4.44 1.12zm0-3.31c.947 0 1.73-.25 2.34-.75.61-.51 1.07-1.2 1.38-2.06.313-.865.47-1.82.469-2.88 0-1.07-.156-2.04-.469-2.91-.302-.865-.76-1.55-1.38-2.05-.614-.51-1.4-.766-2.34-.766-.928 0-1.7.255-2.33.766-.625.5-1.09 1.18-1.41 2.05-.302.87-.453 1.83-.453 2.91 0 1.05.151 2.01.453 2.88.313.86.781 1.55 1.41 2.06.625.5 1.4.75 2.33.75zm21.45-4.36v-10.14h4.11v17.46h-3.98v-3.11h-.187a5.32 5.32 0 0 1 -1.94 2.41c-.896.62-2 .932-3.31.922-1.15 0-2.16-.25-3.03-.75-.864-.51-1.55-1.25-2.05-2.23-.49-.99-.735-2.18-.735-3.58v-11.132h4.11v10.5c0 1.09.302 1.97.906 2.62.614.66 1.42.98 2.41.969.6 0 1.19-.146 1.75-.438a3.53 3.53 0 0 0 1.41-1.31c.365-.583.55-1.32.547-2.2zm10.95-2.89v10.21h-4.11v-17.47h4.03v2.98h.203c.396-.98 1.01-1.76 1.86-2.33.854-.583 1.94-.874 3.25-.874 1.21 0 2.26.255 3.16.765s1.59 1.26 2.08 2.25c.5.98.75 2.17.75 3.56v11.119h-4.11v-10.47c0-1.17-.302-2.08-.906-2.73-.604-.667-1.44-1-2.5-1-.719 0-1.36.156-1.92.469-.552.31-.99.77-1.31 1.36-.313.58-.469 1.3-.469 2.16zm22.65-7.25v3.19h-10.02v-3.2h10.02zm-7.56-4.16h4.11v16.37c0 .688.15 1.2.454 1.53.302.32.781.49 1.44.485.18 0 .375-.16.59-.47.22-.31.42-.68.59-.11l.703 3.22a8.46 8.46 0 0 1 -1.33.296c-.448.07-.896.11-1.34.11-1.62 0-2.9-.428-3.83-1.28-.927-.865-1.39-2.04-1.39-3.53v-16.621zm14.54 21.98c-1.11 0-2.11-.197-3-.593a4.86 4.86 0 0 1 -2.09-1.78c-.511-.78-.766-1.74-.766-2.89 0-.98.18-1.79.547-2.44a4.22 4.22 0 0 1 1.48-1.55 7.71 7.71 0 0 1 2.14-.875 15.67 15.67 0 0 1 2.45-.437c1.03-.115 1.86-.214 2.5-.297.63-.083 1.09-.219 1.38-.406.29-.188.44-.48.44-.875v-.078c0-.844-.25-1.5-.75-1.97-.5-.468-1.23-.702-2.19-.702-1.01 0-1.81.219-2.41.656-.584.44-.979.95-1.19 1.55l-3.83-.547c.302-1.06.802-1.95 1.5-2.66a6.53 6.53 0 0 1 2.55-1.61c1.01-.364 2.12-.546 3.34-.546.83 0 1.67.099 2.5.296.83.188 1.6.51 2.3.97a5.02 5.02 0 0 1 1.67 1.84c.416.77.625 1.73.625 2.89v11.694h-3.95v-2.41h-.125a5.11 5.11 0 0 1 -1.06 1.36c-.448.42-1.01.754-1.69 1.01-.666.26-1.46.39-2.38.39zm1.05-3.03c.834 0 1.55-.162 2.16-.485a3.73 3.73 0 0 0 1.41-1.31c.333-.552.5-1.15.5-1.8v-2.05c-.136.1-.354.2-.656.3-.303.08-.646.16-1.03.235-.385.07-.765.13-1.14.187-.365.05-.683.09-.953.12a6.89 6.89 0 0 0 -1.66.422c-.479.19-.859.45-1.14.781-.282.33-.422.77-.422 1.3 0 .76.28 1.33.828 1.72.552.38 1.25.578 2.11.578zm14.99-7.55v10.22h-4.11v-17.47h4.03v2.98h.203c.396-.98 1.01-1.76 1.86-2.33.854-.583 1.94-.874 3.25-.874 1.21 0 2.26.255 3.16.765s1.59 1.26 2.08 2.25c.5.98.75 2.17.75 3.56v11.119h-4.11v-10.47c0-1.17-.302-2.08-.906-2.73-.604-.667-1.44-1-2.5-1-.719 0-1.36.156-1.92.469-.552.31-.99.77-1.31 1.36-.313.58-.469 1.3-.469 2.16zm22.65-7.25v3.19h-10.02v-3.19zm-7.56-4.16h4.11v16.38c0 .688.15 1.2.453 1.53.303.32.782.49 1.44.485.18 0 .375-.16.59-.47.22-.31.42-.68.59-.11l.704 3.22a8.44 8.44 0 0 1 -1.33.296c-.447.07-.895.11-1.34.11-1.62 0-2.9-.428-3.83-1.28-.927-.865-1.39-2.04-1.39-3.53v-16.621zm24.81 4.16v3.19h-10.3v-3.19zm-7.746 17.47v-19.11c0-1.18.245-2.16.734-2.94a4.57 4.57 0 0 1 1.97-1.75c.833-.385 1.75-.578 2.75-.578.72 0 1.35.057 1.91.172s.97.219 1.23.312l-.843 3.19a4.23 4.23 0 0 0 -.641-.172 3.83 3.83 0 0 0 -.891-.094c-.76 0-1.31.188-1.64.563-.323.38-.485.91-.485 1.59v18.817h-4.09zm16.43.344c-1.71 0-3.19-.375-4.44-1.12-1.25-.75-2.22-1.8-2.91-3.16-.677-1.35-1.02-2.93-1.02-4.72 0-1.8.339-3.38 1.02-4.73.688-1.36 1.66-2.42 2.91-3.17s2.73-1.13 4.44-1.13 3.19.376 4.44 1.13c1.25.75 2.22 1.81 2.91 3.17.687 1.35 1.03 2.93 1.03 4.74 0 1.79-.344 3.36-1.03 4.72-.688 1.35-1.66 2.41-2.91 3.16s-2.73 1.12-4.44 1.12zm0-3.31c.948 0 1.73-.25 2.34-.75.61-.51 1.07-1.2 1.38-2.06.312-.865.47-1.82.468-2.88 0-1.07-.156-2.04-.468-2.91-.303-.865-.761-1.55-1.38-2.05-.615-.51-1.4-.766-2.34-.766-.927 0-1.7.255-2.33.766-.625.5-1.09 1.18-1.41 2.05-.302.87-.453 1.83-.453 2.91 0 1.05.151 2.01.453 2.88.313.86.782 1.55 1.41 2.06.625.5 1.4.75 2.33.75zm10.32 2.966v-17.47h3.98v2.94h.187c.313-1.02.86-1.8 1.64-2.34.781-.552 1.67-.828 2.67-.828.22 0 .468.01.75.03.291.02.531.05.718.08v3.78c-.177-.062-.453-.114-.828-.156a9.78 9.78 0 0 0 -1.08-.062c-.76 0-1.44.161-2.03.484a3.66 3.66 0 0 0 -1.41 1.33c-.334.56-.5 1.22-.5 1.97v10.242h-4.11zm-199.51 8.72h5.17l6.91 16.86h.265l6.92-16.86h5.24v23.28h-4.14v-16h-.188l-6.47 15.92h-3.03l-6.39-15.95h-.219v16.03h-4.06v-23.28zm32.41 23.64c-1.11 0-2.12-.198-3-.593a4.87 4.87 0 0 1 -2.09-1.78c-.51-.781-.765-1.74-.765-2.89 0-.979.18-1.79.546-2.44a4.24 4.24 0 0 1 1.49-1.55 7.71 7.71 0 0 1 2.14-.875c.792-.208 1.61-.354 2.45-.437 1.03-.115 1.86-.214 2.5-.297.63-.083 1.09-.219 1.38-.406.29-.188.44-.479.44-.875v-.078c0-.844-.25-1.5-.75-1.97-.5-.469-1.23-.703-2.19-.703-1.01 0-1.81.219-2.41.656-.583.44-.979.95-1.19 1.55l-3.83-.547c.302-1.06.802-1.95 1.5-2.66.698-.719 1.55-1.25 2.55-1.61 1.01-.364 2.12-.547 3.34-.547.83 0 1.67.099 2.5.297a6.92 6.92 0 0 1 2.3.969 5.01 5.01 0 0 1 1.67 1.84c.417.77.625 1.73.625 2.89v11.696h-3.95v-2.41h-.125c-.25.48-.604.93-1.06 1.36-.448.42-1.01.755-1.69 1.02-.667.26-1.46.39-2.38.39zm1.05-3.03c.833 0 1.55-.161 2.16-.484.6-.334 1.07-.771 1.41-1.31.334-.552.5-1.15.5-1.8v-2.05c-.135.1-.354.2-.656.3-.302.08-.646.16-1.03.235a35.09 35.09 0 0 1 -2.09.312 6.89 6.89 0 0 0 -1.66.422c-.479.19-.86.45-1.14.781-.281.33-.422.77-.422 1.3 0 .761.28 1.33.828 1.72.552.38 1.26.578 2.11.578zm14.24-14.8 3.52 6.47 3.58-6.47h4.36l-5.25 8.75 5.34 8.72h-4.33l-3.7-6.28-3.64 6.28h-4.36l5.3-8.72-5.17-8.75h4.36zm16.13 17.73c-.708 0-1.31-.24-1.8-.719a2.45 2.45 0 0 1 -.719-1.78c0-.698.24-1.29.719-1.77.489-.49 1.09-.734 1.8-.734s1.3.244 1.78.734c.49.479.73 1.07.734 1.77s-.245 1.29-.734 1.78c-.48.48-1.07.719-1.78.719zm11.6-.266v-23.28h15.16v3.53h-10.94v6.25h10.12v3.48h-10.12v6.49h11v3.536h-15.22zm26.63-17.47v3.19h-10.3v-3.19zm-7.73 17.476v-19.11c0-1.18.244-2.16.734-2.94a4.57 4.57 0 0 1 1.97-1.75c.833-.385 1.75-.578 2.75-.578a9.45 9.45 0 0 1 1.91.172c.562.12.974.22 1.23.312l-.843 3.19a4.19 4.19 0 0 0 -.641-.172 3.81 3.81 0 0 0 -.891-.094c-.76 0-1.31.188-1.64.563-.323.38-.485.91-.485 1.59v18.817h-4.09zm18.35-17.47v3.19h-10.3v-3.19zm-7.74 17.47v-19.11c0-1.18.245-2.16.734-2.94a4.58 4.58 0 0 1 1.97-1.75c.833-.385 1.75-.578 2.75-.578.72 0 1.35.057 1.91.172s.97.219 1.24.312l-.844 3.19a4.16 4.16 0 0 0 -.641-.172 3.8 3.8 0 0 0 -.89-.094c-.761 0-1.31.188-1.64.563-.323.38-.484.91-.484 1.59v18.817h-4.09zm9.48 0v-17.47h4.11v17.47zm2.06-19.92a2.39 2.39 0 0 1 -1.69-.656c-.469-.438-.703-.964-.703-1.58 0-.625.23-1.16.703-1.59a2.39 2.39 0 0 1 1.69-.656c.646 0 1.2.219 1.67.656.47.438.7.964.7 1.58 0 .625-.234 1.16-.703 1.59a2.37 2.37 0 0 1 -1.67.656zm12.38 20.27c-1.74 0-3.23-.38-4.49-1.14-1.25-.771-2.21-1.83-2.88-3.19-.667-1.35-1-2.91-1-4.67 0-1.78.339-3.35 1.02-4.7.677-1.35 1.64-2.41 2.89-3.17 1.25-.771 2.72-1.16 4.42-1.16 1.43 0 2.69.261 3.78.782s1.96 1.25 2.61 2.2c.656.94 1.03 2.04 1.12 3.3h-3.94a3.97 3.97 0 0 0 -.609-1.52 3.24 3.24 0 0 0 -1.19-1.06c-.48-.261-1.05-.391-1.72-.391-.844 0-1.58.229-2.22.687-.625.45-1.11 1.09-1.47 1.94-.354.84-.531 1.85-.531 3.03 0 1.19.172 2.21.516 3.08.343.86.833 1.52 1.47 1.99.636.46 1.38.687 2.23.687.91 0 1.67-.265 2.3-.797.63-.531 1.04-1.26 1.22-2.2h3.94c-.094 1.24-.458 2.33-1.09 3.28-.635.95-1.5 1.69-2.58 2.23-1.08.531-2.35.797-3.81.797zm9.38-.344v-17.47h4.11v17.464h-4.11zm2.06-19.92a2.39 2.39 0 0 1 -1.69-.656c-.469-.438-.703-.964-.703-1.58 0-.625.23-1.16.703-1.59a2.38 2.38 0 0 1 1.69-.656 2.37 2.37 0 0 1 1.67.656c.469.44.703.96.703 1.58 0 .625-.234 1.16-.703 1.59a2.37 2.37 0 0 1 -1.67.656zm12.51 20.27c-1.75 0-3.26-.365-4.53-1.09-1.27-.74-2.25-1.78-2.94-3.12-.677-1.34-1.01-2.93-1.01-4.75 0-1.8.338-3.38 1.01-4.73.678-1.36 1.63-2.43 2.86-3.19s2.68-1.14 4.34-1.14c1.07 0 2.09.172 3.05.516a6.99 6.99 0 0 1 2.56 1.59c.75.72 1.34 1.64 1.77 2.75.427 1.1.64 2.42.64 3.95v1.28h-14.31v-2.77h12.27l-1.92.812c0-.989-.151-1.85-.453-2.58-.302-.74-.75-1.32-1.34-1.73-.594-.417-1.33-.625-2.22-.625-.886 0-1.64.208-2.27.625a3.95 3.95 0 0 0 -1.42 1.69c-.323.7-.484 1.48-.484 2.34v1.92c0 1.06.182 1.97.547 2.73.375.75.896 1.32 1.56 1.72.677.4 1.46.594 2.36.594a4.84 4.84 0 0 0 1.59-.25 3.29 3.29 0 0 0 1.25-.75c.355-.344.62-.766.81-1.27l3.84.453a6.15 6.15 0 0 1 -1.39 2.66c-.667.75-1.53 1.33-2.58 1.75-1.04.407-2.24.61-3.59.61zm13.77-10.56v10.204h-4.11v-17.47h4.03v2.98h.203c.396-.98 1.02-1.76 1.86-2.33.855-.584 1.94-.876 3.25-.876 1.21 0 2.26.256 3.16.766.89.511 1.59 1.26 2.08 2.25.5.98.75 2.17.75 3.56v11.12h-4.11v-10.47c0-1.17-.302-2.08-.906-2.73-.604-.667-1.44-1-2.5-1-.719 0-1.36.156-1.92.469a3.37 3.37 0 0 0 -1.31 1.36c-.313.58-.469 1.3-.469 2.16zm21.55 10.56c-1.74 0-3.23-.38-4.48-1.14-1.25-.771-2.21-1.83-2.88-3.19-.667-1.35-1-2.91-1-4.67 0-1.78.338-3.35 1.01-4.7.677-1.35 1.64-2.41 2.89-3.17 1.25-.771 2.72-1.16 4.42-1.16 1.43 0 2.69.261 3.78.782s1.96 1.25 2.61 2.2c.657.94 1.03 2.04 1.12 3.3h-3.94a3.95 3.95 0 0 0 -.61-1.52 3.23 3.23 0 0 0 -1.19-1.06c-.479-.261-1.05-.391-1.72-.391-.844 0-1.58.229-2.22.687-.625.45-1.11 1.09-1.47 1.94-.354.84-.532 1.85-.532 3.03 0 1.19.172 2.21.516 3.08.344.86.833 1.52 1.47 1.99.635.46 1.38.687 2.23.687.91 0 1.67-.265 2.3-.797.64-.531 1.04-1.26 1.22-2.2h3.94c-.093 1.24-.458 2.33-1.09 3.28-.636.95-1.5 1.69-2.58 2.23-1.08.531-2.35.797-3.81.797zm11.35 6.19a7.38 7.38 0 0 1 -1.56-.125 6.07 6.07 0 0 1 -1.14-.297l.969-3.2.203.06c.833.22 1.54.234 2.12.47.59-.188 1.07-.756 1.42-1.7l.343-.937-6.31-17.84h4.36l4.02 13.2h.187l4.03-13.2h4.39l-7 19.58c-.323.93-.75 1.72-1.28 2.38a5.12 5.12 0 0 1 -1.97 1.52c-.781.35-1.71.531-2.78.531z" fill="#000"/><path d="m353.03 154v-11.64h3.94c.911 0 1.66.157 2.23.469.58.307 1.02.732 1.3 1.27.281.54.422 1.15.422 1.84 0 .682-.141 1.29-.422 1.82-.276.53-.706.95-1.29 1.25-.578.3-1.32.445-2.23.445h-3.17v-1.26h3.13c.624 0 1.13-.092 1.51-.274s.66-.44.83-.773c.17-.339.26-.74.26-1.2 0-.469-.088-.878-.265-1.23a1.79 1.79 0 0 0 -.828-.813c-.381-.192-.886-.289-1.52-.289h-2.48v10.385h-1.41zm6.7 0-2.81-5.23h1.59l2.86 5.23zm6.17.188c-.838 0-1.56-.188-2.18-.563a3.71 3.71 0 0 1 -1.41-1.57c-.328-.677-.492-1.46-.492-2.35 0-.896.16-1.69.484-2.37.323-.682.78-1.22 1.36-1.6.588-.385 1.28-.578 2.06-.578.45 0 .904.08 1.35.227.45.151.85.396 1.22.734.37.339.66.787.88 1.34.218.56.328 1.24.328 2.06v.578h-6.74v-1.16h6.01l-.617.44c0-.583-.091-1.1-.274-1.55a2.35 2.35 0 0 0 -.82-1.07c-.359-.26-.807-.391-1.34-.391-.536 0-.997.13-1.38.399-.381.26-.672.6-.875 1.02a3.08 3.08 0 0 0 -.305 1.36v.765c0 .662.11 1.22.344 1.68.229.46.549.81.961 1.05.411.23.888.35 1.43.351a2.9 2.9 0 0 0 .953-.148c.287-.104.53-.258.74-.461.21-.208.37-.464.48-.766l1.3.375a2.86 2.86 0 0 1 -.687 1.16 3.33 3.33 0 0 1 -1.19.773 4.42 4.42 0 0 1 -1.59.274zm8.41 0c-.812 0-1.51-.193-2.11-.579a3.88 3.88 0 0 1 -1.37-1.6c-.318-.677-.477-1.45-.477-2.32 0-.891.16-1.68.493-2.35.328-.682.79-1.22 1.38-1.6.593-.385 1.28-.578 2.07-.578.61 0 1.17.115 1.66.344.5.224.9.542 1.21.953.32.412.51.891.59 1.44h-1.34a2.08 2.08 0 0 0 -.367-.75 1.89 1.89 0 0 0 -.703-.563c-.287-.146-.628-.219-1.02-.219-.52 0-.976.14-1.37.407-.39.27-.695.65-.914 1.15-.219.49-.328 1.06-.328 1.73 0 .671.11 1.26.32 1.76.214.5.516.89.907 1.16.396.28.856.41 1.38.414.53 0 .977-.135 1.35-.406a1.94 1.94 0 0 0 .742-1.12h1.34c-.73.52-.26.98-.562 1.39a3.19 3.19 0 0 1 -1.18.984c-.485.24-1.05.36-1.7.36zm8.36 0c-.839 0-1.56-.188-2.18-.563a3.71 3.71 0 0 1 -1.41-1.57c-.328-.677-.492-1.46-.492-2.35 0-.896.16-1.69.484-2.37.323-.682.78-1.22 1.36-1.6.588-.385 1.28-.578 2.06-.578.45 0 .904.08 1.35.227.45.151.85.396 1.22.734.37.339.66.787.88 1.34.219.56.328 1.24.328 2.06v.578h-6.73v-1.16h6.01l-.617.44c0-.583-.092-1.1-.274-1.55a2.36 2.36 0 0 0 -.82-1.07c-.36-.26-.808-.391-1.34-.391s-.997.13-1.38.399c-.38.26-.672.6-.875 1.02a3.1 3.1 0 0 0 -.304 1.36v.765c0 .662.11 1.22.343 1.68.229.46.55.81.961 1.05.412.23.888.35 1.43.351a2.9 2.9 0 0 0 .953-.148c.286-.104.53-.258.74-.461.21-.208.37-.464.48-.766l1.3.375a2.86 2.86 0 0 1 -.688 1.16 3.33 3.33 0 0 1 -1.19.773 4.42 4.42 0 0 1 -1.59.274zm4.88-.188v-8.73h1.33v8.73zm.672-10.19a.943.94 0 0 1 -.672-.265.85.848 0 0 1 -.281-.641c0-.25.09-.463.28-.64a.944.94 0 0 1 .672-.266c.26 0 .484.09.672.27a.85.85 0 0 1 .281.64c0 .25-.94.46-.281.64a.946.95 0 0 1 -.672.26zm2.38 13.45v-12h1.28v1.39h.156c.099-.151.24-.344.41-.578.18-.239.43-.453.77-.64.33-.188.78-.282 1.35-.282.74 0 1.38.185 1.94.555.56.365.99.885 1.3 1.56.317.67.476 1.47.476 2.38 0 .922-.156 1.72-.469 2.41-.312.68-.747 1.2-1.3 1.57-.557.37-1.2.555-1.93.555-.557 0-1-.094-1.34-.282-.338-.192-.599-.409-.781-.648a10.52 10.52 0 0 1 -.422-.602h-.109v4.61h-1.33zm3.81-4.28c.558 0 1.02-.148 1.4-.445.38-.302.66-.706.84-1.21.193-.505.29-1.07.29-1.69a4.65 4.65 0 0 0 -.282-1.66c-.187-.495-.468-.888-.844-1.18-.369-.292-.838-.438-1.41-.438-.547 0-1.138-1.38.414-.37.27-.651.65-.843 1.15-.188.49-.282 1.06-.282 1.72 0 .656.1 1.24.289 1.74.193.5.474.89.844 1.18.375" fill="#7e8890"/><g clip-path="url(#d)"><path d="m212 280h536v280h-536z" fill="url(#h)"/></g></g><g clip-path="url(#e)"><path d="m656 32c0-17.67 14.33-32 32-32h240c17.67 0 32 14.33 32 32v496c0 17.67-14.33 32-32 32h-240c-17.67 0-32-14.33-32-32z" fill="#fff"/><path d="m681.69 60v-23.28h8.73c1.79 0 3.29.333 4.5 1 1.22.666 2.14 1.58 2.77 2.75.624 1.17.937 2.49.937 3.97 0 1.49-.318 2.82-.953 3.98-.625 1.16-1.55 2.07-2.78 2.73-1.23.657-2.74.985-4.53.985h-5.78v-3.47h5.2c1.05 0 1.91-.176 2.58-.53.68-.365 1.17-.865 1.49-1.5.323-.646.48-1.38.484-2.2 0-.834-.161-1.56-.484-2.19-.313-.635-.808-1.12-1.49-1.47-.666-.354-1.53-.531-2.59-.531h-3.86v19.756h-4.22zm23.02-23.28v23.28h-4.11v-23.28zm13.85 15.95v-10.14h4.11v17.47h-3.98v-3.11h-.187a5.32 5.32 0 0 1 -1.94 2.41c-.896.62-2 .932-3.31.922-1.15 0-2.16-.25-3.03-.75-.864-.51-1.55-1.25-2.05-2.23-.49-.99-.735-2.18-.735-3.58v-11.132h4.11v10.5c0 1.09.302 1.97.906 2.62.614.66 1.42.98 2.41.969.6 0 1.19-.146 1.75-.438a3.53 3.53 0 0 0 1.41-1.31c.365-.583.55-1.32.547-2.2zm14.4 14.23c-2.22 0-3.96-.432-5.23-1.3-1.27-.854-2.09-1.89-2.45-3.11l3.69-.906c.167.34.411.68.734 1.01.323.34.755.62 1.3.844.54.23 1.22.344 2.05.344 1.17 0 2.13-.287 2.89-.86.77-.562 1.16-1.48 1.16-2.77v-3.3h-.234c-.198.42-.5.85-.907 1.3-.406.44-.942.81-1.61 1.12-.656.3-1.49.453-2.5.453-1.33 0-2.55-.318-3.64-.953-1.08-.636-1.95-1.58-2.59-2.84-.636-1.26-.954-2.84-.954-4.73 0-1.92.318-3.54.954-4.86.645-1.32 1.51-2.33 2.61-3.02 1.09-.688 2.31-1.03 3.66-1.03 1.02 0 1.86.172 2.53.516s1.2.76 1.59 1.25c.396.48.703.93.922 1.34h.219v-2.89h4.01v17.75c0 1.49-.354 2.72-1.06 3.7-.708.98-1.68 1.71-2.92 2.19-1.23.49-2.63.734-4.2.734zm.031-10.39c1.31 0 2.32-.47 3.03-1.41.719-.948 1.08-2.25 1.08-3.92 0-1.1-.157-2.07-.469-2.89-.313-.823-.776-1.46-1.39-1.92-.614-.458-1.36-.688-2.25-.688-.917 0-1.68.24-2.3.72-.614.48-1.08 1.14-1.39 1.97-.302.82-.453 1.76-.453 2.81 0 1.06.156 1.99.468 2.8.313.8.776 1.43 1.39 1.88.625.44 1.39.657 2.28.657zm17.469 3.49v-23.28h8.73c1.79 0 3.29.312 4.5.937 1.22.625 2.14 1.5 2.77 2.62.625 1.11.937 2.41.937 3.89 0 1.49-.318 2.78-.953 3.88-.625 1.09-1.55 1.94-2.78 2.53-1.23.594-2.74.89-4.53.89h-6.2v-3.48h5.62c1.05 0 1.91-.145 2.58-.437.68-.292 1.17-.719 1.49-1.28.323-.573.48-1.27.484-2.09s-.161-1.53-.484-2.11c-.323-.593-.818-1.04-1.49-1.34-.666-.313-1.53-.469-2.59-.469h-3.86v19.739h-4.22zm13.08 0-5.64-10.56h4.59l5.77 10.56zm13.54.344c-1.75 0-3.26-.365-4.53-1.09-1.27-.74-2.25-1.78-2.94-3.12-.677-1.34-1.01-2.93-1.01-4.75 0-1.8.338-3.38 1.01-4.73.677-1.36 1.63-2.43 2.86-3.19s2.68-1.14 4.34-1.14c1.07 0 2.09.171 3.05.515a6.99 6.99 0 0 1 2.56 1.59c.75.72 1.34 1.64 1.76 2.75.427 1.1.641 2.42.641 3.95v1.28h-14.31v-2.77h12.27l-1.92.812c0-.99-.151-1.85-.453-2.58-.302-.74-.75-1.32-1.34-1.73-.593-.417-1.33-.625-2.22-.625-.886 0-1.64.208-2.27.625a3.95 3.95 0 0 0 -1.42 1.69c-.323.7-.484 1.48-.484 2.34v1.92c0 1.06.182 1.97.547 2.73.375.75.895 1.32 1.56 1.72.677.4 1.46.594 2.36.594a4.84 4.84 0 0 0 1.59-.25 3.28 3.28 0 0 0 1.25-.75 3.41 3.41 0 0 0 .813-1.27l3.84.453a6.16 6.16 0 0 1 -1.39 2.66c-.667.75-1.53 1.33-2.58 1.75-1.04.407-2.24.61-3.59.61zm17.27 0c-1.74 0-3.23-.38-4.49-1.14-1.25-.772-2.21-1.83-2.88-3.19-.666-1.35-1-2.91-1-4.67 0-1.78.339-3.35 1.02-4.7.677-1.35 1.64-2.41 2.89-3.17 1.25-.771 2.72-1.16 4.42-1.16 1.43 0 2.69.26 3.78.782 1.09.52 1.96 1.25 2.61 2.2.656.94 1.03 2.04 1.12 3.3h-3.94a3.99 3.99 0 0 0 -.61-1.52 3.25 3.25 0 0 0 -1.19-1.06c-.479-.26-1.05-.391-1.72-.391-.844 0-1.58.23-2.22.688-.625.45-1.11 1.09-1.47 1.94-.355.84-.532 1.85-.532 3.03 0 1.19.172 2.21.516 3.08.344.86.833 1.52 1.47 1.99.635.46 1.38.687 2.23.687.91 0 1.67-.265 2.3-.797.63-.53 1.04-1.26 1.22-2.2h3.94c-.094 1.24-.458 2.33-1.09 3.28-.635.95-1.49 1.69-2.58 2.23-1.08.531-2.35.797-3.81.797zm17.12 0c-1.75 0-3.26-.365-4.53-1.09-1.27-.74-2.25-1.78-2.94-3.12-.678-1.34-1.02-2.93-1.02-4.75 0-1.8.338-3.38 1.02-4.73.677-1.36 1.63-2.43 2.86-3.19s2.68-1.14 4.34-1.14a8.96 8.96 0 0 1 3.05.515 7 7 0 0 1 2.56 1.59c.75.72 1.34 1.64 1.77 2.75.427 1.1.64 2.42.64 3.95v1.28h-14.31v-2.77h12.27l-1.92.812c0-.99-.152-1.85-.454-2.58-.302-.74-.75-1.32-1.34-1.73-.594-.417-1.33-.625-2.22-.625-.886 0-1.64.208-2.27.625a3.95 3.95 0 0 0 -1.42 1.69c-.323.7-.484 1.48-.484 2.34v1.92c0 1.06.182 1.97.547 2.73.375.75.896 1.32 1.56 1.72.677.4 1.46.594 2.36.594a4.85 4.85 0 0 0 1.59-.25 3.29 3.29 0 0 0 1.25-.75c.354-.344.62-.766.81-1.27l3.84.453a6.16 6.16 0 0 1 -1.39 2.66c-.667.75-1.53 1.33-2.58 1.75-1.04.407-2.24.61-3.59.61zm9.66-.344v-17.47h4.11v17.47zm2.06-19.92a2.38 2.38 0 0 1 -1.69-.656c-.469-.438-.704-.964-.704-1.58 0-.625.24-1.16.704-1.59a2.38 2.38 0 0 1 1.69-.656c.646 0 1.2.218 1.67.656s.7.964.7 1.58c0 .625-.234 1.16-.703 1.59a2.37 2.37 0 0 1 -1.67.656zm4.77 26.45v-24h4.03v2.89h.25c.208-.416.5-.864.89-1.34.385-.49.91-.906 1.56-1.25.667-.344 1.52-.516 2.55-.516 1.34 0 2.56.344 3.64 1.03 1.08.687 1.94 1.7 2.58 3.03.646 1.33.969 2.97.969 4.92 0 1.92-.313 3.55-.938 4.89s-1.48 2.37-2.58 3.08c-1.08.698-2.31 1.05-3.69 1.05-.99 0-1.82-.167-2.48-.5-.656-.344-1.19-.75-1.59-1.22-.395-.478-.698-.932-.906-1.36h-.172v9.3h-4.11zm8.14-9.59c.906 0 1.66-.244 2.27-.734.62-.49 1.08-1.16 1.39-2.02.312-.854.47-1.82.469-2.91 0-1.08-.157-2.05-.469-2.89-.313-.844-.771-1.51-1.38-1.99-.604-.479-1.36-.718-2.28-.718-.886 0-1.64.229-2.25.687-.605.46-1.07 1.11-1.39 1.95-.313.83-.469 1.82-.469 2.95 0 1.12.156 2.12.469 2.97.323.84.792 1.5 1.41 1.98.615.47 1.36.703 2.23.703zm18.99-14.41v3.19h-10.02v-3.19zm-7.56-4.16h4.11v16.38c0 .688.15 1.2.453 1.53.302.32.781.49 1.44.485.18 0 .375-.16.59-.47.22-.32.42-.68.59-.11l.703 3.22c-.437.13-.88.23-1.33.296-.448.07-.896.11-1.34.11-1.62 0-2.9-.428-3.83-1.28-.927-.864-1.39-2.04-1.39-3.53v-16.621zm19.81 21.94c-2.03 0-3.86-.474-5.49-1.42-1.61-.948-2.89-2.31-3.83-4.09-.927-1.78-1.39-3.92-1.39-6.42 0-2.51.464-4.66 1.39-6.44.938-1.79 2.21-3.16 3.83-4.11 1.62-.948 3.45-1.42 5.49-1.42s3.86.474 5.47 1.42 2.88 2.32 3.81 4.11c.937 1.78 1.41 3.93 1.41 6.44 0 2.5-.469 4.64-1.41 6.42-.938 1.78-2.21 3.15-3.81 4.09-1.6.948-3.43 1.42-5.47 1.42zm0-3.78c1.26 0 2.38-.312 3.34-.937.97-.625 1.73-1.54 2.28-2.75.552-1.22.828-2.71.828-4.47 0-1.77-.276-3.27-.828-4.48-.553-1.22-1.31-2.14-2.28-2.77-.968-.625-2.08-.938-3.34-.938s-2.38.313-3.36.938c-.969.62-1.73 1.55-2.28 2.77-.552 1.22-.828 2.71-.828 4.48 0 1.76.276 3.25.828 4.47.552 1.21 1.31 2.12 2.28 2.75.979.62 2.1.937 3.36.937zm17.09-6.75v10.22h-4.11v-17.47h4.03v2.98h.203c.396-.98 1.01-1.76 1.86-2.33.854-.584 1.94-.876 3.25-.876 1.21 0 2.26.256 3.16.766s1.59 1.26 2.08 2.25c.5.98.75 2.17.75 3.56v11.12h-4.11v-10.47c0-1.17-.302-2.08-.906-2.73-.604-.667-1.44-1-2.5-1-.719 0-1.36.156-1.92.469-.552.31-.99.77-1.31 1.36-.312.58-.468 1.3-.468 2.16zm21.68 10.56c-1.75 0-3.26-.365-4.53-1.09-1.27-.74-2.25-1.78-2.94-3.12-.677-1.34-1.02-2.93-1.02-4.75 0-1.8.339-3.38 1.02-4.73.677-1.36 1.63-2.43 2.86-3.19s2.68-1.14 4.34-1.14c1.07 0 2.09.171 3.05.515a6.99 6.99 0 0 1 2.56 1.59c.75.72 1.34 1.64 1.76 2.75.427 1.1.641 2.42.641 3.95v1.28h-14.31v-2.77h12.27l-1.92.812c0-.99-.151-1.85-.453-2.58-.302-.74-.75-1.32-1.34-1.73-.594-.417-1.33-.625-2.22-.625-.885 0-1.64.208-2.27.625a3.95 3.95 0 0 0 -1.42 1.69c-.323.7-.484 1.48-.484 2.34v1.92c0 1.06.182 1.97.546 2.73.375.75.896 1.32 1.56 1.72.677.4 1.46.594 2.36.594.58 0 1.11-.084 1.59-.25.49-.167.91-.417 1.25-.75a3.41 3.41 0 0 0 .813-1.27l3.84.453a6.15 6.15 0 0 1 -1.39 2.66c-.667.75-1.53 1.33-2.58 1.75-1.04.407-2.24.61-3.59.61zm-220.21 8.38v23.28h-4.22v-23.28zm6.99 13.06v10.22h-4.11v-17.47h4.03v2.98h.203c.396-.98 1.01-1.76 1.86-2.33.854-.583 1.94-.874 3.25-.874 1.21 0 2.26.255 3.16.765s1.59 1.26 2.08 2.25c.5.98.75 2.17.75 3.56v11.119h-4.11v-10.47c0-1.17-.302-2.08-.906-2.73-.604-.667-1.44-1-2.5-1-.719 0-1.36.156-1.92.469-.552.31-.99.77-1.31 1.36-.312.58-.468 1.3-.468 2.16zm22.65-7.25v3.19h-10.02v-3.19zm-7.56-4.16h4.11v16.38c0 .688.15 1.2.454 1.53.302.32.781.49 1.44.485.18 0 .375-.16.59-.47.22-.31.42-.68.59-.11l.703 3.22a8.46 8.46 0 0 1 -1.33.296c-.448.07-.896.11-1.34.11-1.62 0-2.9-.428-3.83-1.28-.927-.865-1.39-2.04-1.39-3.53v-16.621zm16.93 21.97c-1.71 0-3.19-.375-4.44-1.12-1.25-.75-2.22-1.8-2.91-3.16-.677-1.35-1.01-2.93-1.01-4.72 0-1.8.338-3.38 1.01-4.73.688-1.36 1.66-2.42 2.91-3.17s2.73-1.13 4.44-1.13 3.19.376 4.44 1.13c1.25.75 2.22 1.81 2.91 3.17.687 1.35 1.03 2.93 1.03 4.74 0 1.79-.344 3.36-1.03 4.72-.688 1.35-1.66 2.41-2.91 3.16s-2.73 1.12-4.44 1.12zm0-3.31c.948 0 1.73-.25 2.34-.75.61-.51 1.07-1.2 1.38-2.06.312-.865.47-1.82.469-2.88 0-1.07-.157-2.04-.469-2.91-.302-.865-.761-1.55-1.38-2.05-.615-.51-1.4-.766-2.34-.766-.927 0-1.7.255-2.33.766-.625.5-1.09 1.18-1.41 2.05-.302.87-.453 1.83-.453 2.91 0 1.05.151 2.01.453 2.88.312.86.781 1.55 1.41 2.06.625.5 1.4.75 2.33.75zm15.33-20.31h4.76l5.69 10.31h.25l5.69-10.31h4.77l-8.48 14.59v8.69h-4.2v-8.69l-8.47-14.59zm26.84 23.62c-1.71 0-3.19-.375-4.44-1.12-1.25-.75-2.22-1.8-2.91-3.16-.677-1.35-1.01-2.93-1.01-4.72 0-1.8.338-3.38 1.01-4.73.688-1.36 1.66-2.42 2.91-3.17s2.73-1.13 4.44-1.13 3.19.376 4.44 1.13c1.25.75 2.22 1.81 2.91 3.17.687 1.35 1.03 2.93 1.03 4.74 0 1.79-.344 3.36-1.03 4.72-.688 1.35-1.66 2.41-2.91 3.16s-2.73 1.12-4.44 1.12zm0-3.31c.948 0 1.73-.25 2.34-.75.61-.51 1.07-1.2 1.38-2.06.312-.865.47-1.82.469-2.88 0-1.07-.157-2.04-.469-2.91-.302-.865-.761-1.55-1.38-2.05-.615-.51-1.4-.766-2.34-.766-.927 0-1.7.255-2.33.766-.625.5-1.09 1.18-1.41 2.05-.302.87-.453 1.83-.453 2.91 0 1.05.151 2.01.453 2.88.312.86.781 1.55 1.41 2.06.625.5 1.4.75 2.33.75zm21.45-4.36v-10.14h4.11v17.47h-3.98v-3.11h-.188a5.32 5.32 0 0 1 -1.94 2.41c-.896.62-2 .932-3.31.922-1.15 0-2.16-.25-3.03-.75-.865-.51-1.55-1.25-2.05-2.23-.49-.99-.734-2.18-.734-3.58v-11.132h4.11v10.5c0 1.09.302 1.97.906 2.62.615.66 1.42.98 2.41.969.6 0 1.19-.146 1.75-.438a3.54 3.54 0 0 0 1.41-1.31c.364-.583.55-1.32.547-2.2zm6.83 7.33v-17.47h3.98v2.94h.188c.312-1.02.859-1.8 1.64-2.34.782-.552 1.67-.828 2.67-.828.22 0 .469.01.75.03.292.02.532.05.719.08v3.78c-.177-.062-.453-.114-.828-.156a9.78 9.78 0 0 0 -1.08-.062c-.761 0-1.44.161-2.03.484a3.67 3.67 0 0 0 -1.41 1.33c-.333.56-.5 1.22-.5 1.97v10.242h-4.11zm-108.74 32-6.56-23.28h4.53l4.2 17.11h.21l4.48-17.11h4.14l4.45 17.12h.234l4.17-17.12h4.56l-6.564 23.28h-4.17l-4.66-16.31h-.188l-4.642 16.31zm31.71.344c-1.71 0-3.19-.375-4.44-1.12-1.25-.75-2.22-1.8-2.91-3.16-.678-1.35-1.02-2.93-1.02-4.72 0-1.8.338-3.38 1.02-4.74.687-1.36 1.66-2.42 2.91-3.17s2.73-1.13 4.44-1.13 3.19.376 4.44 1.13c1.25.75 2.22 1.81 2.91 3.17.688 1.35 1.03 2.93 1.03 4.74 0 1.79-.343 3.36-1.03 4.72-.687 1.35-1.66 2.41-2.91 3.16s-2.73 1.12-4.44 1.12zm0-3.31c.948 0 1.73-.25 2.34-.75.61-.51 1.07-1.2 1.38-2.06.313-.865.47-1.82.469-2.88 0-1.07-.156-2.04-.469-2.91-.302-.865-.76-1.55-1.38-2.05-.615-.511-1.4-.766-2.34-.766-.927 0-1.7.255-2.33.766-.625.5-1.09 1.18-1.41 2.05-.302.86-.453 1.83-.453 2.91 0 1.05.151 2.01.453 2.88.312.86.781 1.55 1.41 2.06.625.5 1.4.75 2.33.75zm10.33 2.966v-17.47h3.98v2.94h.188c.312-1.02.859-1.8 1.64-2.34.782-.552 1.67-.828 2.67-.828.22 0 .469.01.75.03.292.02.532.05.719.08v3.78c-.177-.063-.453-.115-.828-.157a9.93 9.93 0 0 0 -1.08-.062c-.761 0-1.44.161-2.03.484a3.68 3.68 0 0 0 -1.41 1.33c-.333.56-.5 1.22-.5 1.97v10.243h-4.11zm14.93-5.47-.016-4.98h.672l6.27-7.02h4.81l-7.72 8.61h-.86l-3.16 3.39zm-3.75 5.47v-23.28h4.11v23.28zm10.95 0-5.69-7.94 2.78-2.91 7.83 10.85zm14.6-17.47v3.19h-10.3v-3.19zm-7.73 17.47v-19.11c0-1.18.244-2.16.734-2.94a4.57 4.57 0 0 1 1.97-1.75c.833-.385 1.75-.578 2.75-.578a9.45 9.45 0 0 1 1.91.172c.562.12.974.22 1.23.312l-.843 3.19a4.19 4.19 0 0 0 -.641-.172 3.81 3.81 0 0 0 -.891-.094c-.76 0-1.31.188-1.64.563-.323.38-.485.91-.485 1.59v18.817h-4.09zm13.59-23.28v23.28h-4.11v-23.28zm10.34 23.62c-1.71 0-3.19-.375-4.44-1.12-1.25-.75-2.22-1.8-2.91-3.16-.677-1.35-1.01-2.93-1.01-4.72 0-1.8.338-3.38 1.01-4.74.688-1.36 1.66-2.42 2.91-3.17s2.73-1.13 4.44-1.13 3.19.376 4.44 1.13c1.25.75 2.22 1.81 2.91 3.17.687 1.35 1.03 2.93 1.03 4.74 0 1.79-.344 3.36-1.03 4.72-.688 1.35-1.66 2.41-2.91 3.16s-2.73 1.12-4.44 1.12zm0-3.31c.948 0 1.73-.25 2.34-.75.61-.51 1.07-1.2 1.38-2.06.312-.865.47-1.82.469-2.88 0-1.07-.157-2.04-.469-2.91-.302-.865-.761-1.55-1.38-2.05-.615-.511-1.4-.766-2.34-.766-.927 0-1.7.255-2.33.766-.625.5-1.09 1.18-1.41 2.05-.302.86-.453 1.83-.453 2.91 0 1.05.151 2.01.453 2.88.312.86.781 1.55 1.41 2.06.625.5 1.4.75 2.33.75zm13.42 2.97-4.94-17.47h4.19l3.08 12.28h.156l3.14-12.28h4.14l3.14 12.23h.157l3.03-12.23h4.2l-4.933 17.47h-4.3l-3.28-11.8h-.218l-3.282 11.8z" fill="#000"/><path d="m684.72 154.2c-.834 0-1.55-.133-2.16-.398-.61-.271-1.09-.646-1.44-1.12a3.26 3.26 0 0 1 -.586-1.68h1.45c.42.44.19.8.446 1.09.26.29.591.5.992.64s.833.21 1.3.211c.54 0 1.02-.089 1.45-.266s.77-.425 1.02-.742c.25-.318.37-.69.37-1.12 0-.385-.109-.697-.328-.937a2.42 2.42 0 0 0 -.859-.586 8.74 8.74 0 0 0 -1.14-.398l-1.42-.407c-.911-.26-1.63-.632-2.16-1.12-.526-.489-.789-1.13-.789-1.91 0-.651.17-1.22.524-1.7.354-.49.83-.87 1.43-1.14a4.89 4.89 0 0 1 2.02-.406c.75 0 1.42.136 2 .406.58.266 1.05.631 1.39 1.09.343.46.526.98.547 1.56h-1.38a1.78 1.78 0 0 0 -.829-1.34c-.479-.318-1.07-.477-1.78-.477-.51 0-.958.08-1.34.25-.386.17-.685.4-.899.69-.213.29-.32.62-.32 1 0 .411.13.744.38 1 .255.25.557.45.906.59.354.14.674.25.961.34l1.17.329c.302.08.638.2 1.01.336.38.14.73.33 1.08.57.35.239.63.547.86.922.22.37.34.828.34 1.38 0 .625-.164 1.19-.492 1.7-.328.5-.805.91-1.43 1.21s-1.39.445-2.28.445zm5.59-.203v-8.73h1.33v8.733h-1.33zm.672-10.19a.946.95 0 0 1 -.672-.265.85.852 0 0 1 -.281-.641.85.85 0 0 1 .281-.64.95.947 0 0 1 .672-.266c.261 0 .485.09.672.27.188.18.282.39.282.64s-.94.46-.282.64a.943.94 0 0 1 -.672.26zm2.378 10.193v-8.73h1.28v1.38h.125c.182-.469.48-.834.88-1.09.407-.261.89-.391 1.46-.391s1.05.13 1.43.391c.38.26.68.625.9 1.09h.093a2.61 2.61 0 0 1 1.01-1.08c.448-.27.98-.406 1.6-.406.78 0 1.42.245 1.92.735.5.484.75 1.24.75 2.27v5.831h-1.34v-5.84c0-.646-.177-1.11-.531-1.38a1.98 1.98 0 0 0 -1.25-.414c-.61 0-1.08.188-1.42.563-.334.37-.5.83-.5 1.39v5.681h-1.38v-5.98c0-.495-.159-.894-.477-1.2-.318-.307-.732-.461-1.24-.461-.349 0-.675.09-.977.28a2.13 2.13 0 0 0 -.734.77 2.3 2.3 0 0 0 -.273 1.13v5.461h-1.33zm13.17 3.27v-12h1.28v1.39h.157c.099-.151.24-.344.41-.578.18-.239.43-.453.76-.64.33-.188.78-.282 1.35-.282.73 0 1.38.185 1.94.555.56.365.99.885 1.3 1.56.318.67.477 1.47.477 2.38 0 .922-.157 1.72-.469 2.41-.312.68-.747 1.2-1.3 1.57-.557.37-1.2.555-1.93.555-.558 0-1.01-.094-1.34-.282-.339-.192-.599-.409-.781-.648a10.03 10.03 0 0 1 -.422-.602h-.11v4.61h-1.33zm3.81-4.28c.557 0 1.02-.148 1.4-.445.38-.302.66-.706.84-1.21a4.7 4.7 0 0 0 .289-1.69c0-.615-.094-1.17-.281-1.66-.188-.495-.469-.888-.844-1.18-.37-.292-.839-.438-1.41-.438-.547 0-1.138-1.38.414-.37.27-.651.65-.844 1.15-.187.49-.281 1.06-.281 1.72 0 .656.1 1.24.289 1.74.193.5.474.89.844 1.18.375" fill="#7e8890"/><g clip-path="url(#f)"><path d="m540 280h536v280h-536z" fill="url(#i)"/></g></g></svg>