<svg fill="none" height="560" viewBox="0 0 960 560" width="960" xmlns="http://www.w3.org/2000/svg" xmlns:xlink="http://www.w3.org/1999/xlink"><clipPath id="a"><path d="m0 32c0-17.67 14.33-32 32-32h240c17.67 0 32 14.33 32 32v496c0 17.67-14.33 32-32 32h-240c-17.67 0-32-14.33-32-32z"/></clipPath><clipPath id="b"><path d="m0 280h304v280h-304z"/></clipPath><clipPath id="c"><path d="m328 32c0-17.67 14.33-32 32-32h240c17.67 0 32 14.33 32 32v496c0 17.67-14.33 32-32 32h-240c-17.67 0-32-14.33-32-32z"/></clipPath><clipPath id="d"><path d="m328 280h304v280h-304z"/></clipPath><clipPath id="e"><path d="m656 32c0-17.67 14.33-32 32-32h240c17.67 0 32 14.33 32 32v496c0 17.67-14.33 32-32 32h-240c-17.67 0-32-14.33-32-32z"/></clipPath><clipPath id="f"><path d="m656 280h304v280h-304z"/></clipPath><pattern id="g" height="1" patternContentUnits="objectBoundingBox" width="1"/><pattern id="h" height="1" patternContentUnits="objectBoundingBox" width="1"/><pattern id="i" height="1" patternContentUnits="objectBoundingBox" width="1"/><g clip-path="url(#a)"><path d="m0 32c0-17.67 14.33-32 32-32h240c17.67 0 32 14.33 32 32v496c0 17.67-14.33 32-32 32h-240c-17.67 0-32-14.33-32-32z" fill="#fff"/><path d="m25.69 60v-23.28h8.94c1.68 0 3.07.265 4.19.797 1.11.52 1.95 1.24 2.5 2.16.552.91.828 1.93.828 3.08 0 .948-.183 1.76-.547 2.44a4.46 4.46 0 0 1 -1.45 1.62 6.35 6.35 0 0 1 -2.06.907v.234a4.76 4.76 0 0 1 2.38.75c.76.46 1.38 1.1 1.86 1.94.49.83.734 1.84.734 3.02 0 1.21-.292 2.29-.875 3.25-.573.95-1.45 1.7-2.62 2.27-1.17.552-2.64.828-4.42.828h-9.44zm4.22-3.52h4.53c1.53 0 2.63-.297 3.31-.89.69-.594 1.03-1.35 1.03-2.27a3.48 3.48 0 0 0 -.515-1.88c-.344-.552-.834-.99-1.47-1.31-.624-.323-1.36-.485-2.22-.485h-4.67v6.83zm0-9.86h4.19c.718 0 1.37-.135 1.95-.406a3.31 3.31 0 0 0 1.38-1.14c.344-.5.52-1.09.516-1.77 0-.895-.318-1.64-.954-2.22-.635-.594-1.57-.89-2.8-.89h-4.28v6.42zm26.26 6.05v-10.14h4.11v17.47h-3.98v-3.11h-.187a5.32 5.32 0 0 1 -1.94 2.41c-.895.62-2 .932-3.31.922-1.15 0-2.16-.25-3.03-.75-.865-.51-1.55-1.25-2.05-2.23-.49-.99-.735-2.18-.735-3.58v-11.132h4.11v10.5c0 1.09.302 1.97.906 2.62.615.66 1.42.98 2.41.969.6 0 1.19-.146 1.75-.438a3.54 3.54 0 0 0 1.41-1.31c.364-.583.55-1.32.546-2.2zm6.83 7.33v-17.47h4.11v17.47zm2.06-19.92a2.39 2.39 0 0 1 -1.69-.656c-.47-.438-.703-.964-.703-1.58 0-.625.23-1.16.703-1.59a2.39 2.39 0 0 1 1.69-.656c.646 0 1.2.218 1.67.656s.7.964.7 1.58c0 .625-.234 1.16-.703 1.59a2.37 2.37 0 0 1 -1.67.656zm8.88-3.36v23.28h-4.11v-23.28zm9.16 23.59c-1.36 0-2.59-.348-3.69-1.05-1.08-.709-1.94-1.74-2.56-3.08-.625-1.34-.938-2.97-.938-4.89 0-1.95.318-3.59.953-4.92.646-1.33 1.51-2.34 2.59-3.03 1.08-.688 2.3-1.03 3.64-1.03 1.03 0 1.88.172 2.53.516.66.344 1.18.76 1.56 1.25.396.48.698.93.907 1.34h.171v-8.7h4.09v23.284h-4.01v-2.77h-.25a7.75 7.75 0 0 1 -.922 1.36c-.396.47-.922.88-1.58 1.22-.657.33-1.49.5-2.5.5zm1.14-3.37c.875 0 1.61-.235 2.22-.704.62-.479 1.08-1.14 1.41-1.98.323-.854.49-1.84.485-2.97 0-1.14-.162-2.12-.485-2.95-.312-.844-.776-1.5-1.39-1.95-.605-.458-1.35-.688-2.23-.688-.906 0-1.67.24-2.28.72-.615.48-1.08 1.14-1.39 1.98-.303.84-.454 1.81-.454 2.89s.156 2.05.469 2.91c.313.85.77 1.53 1.38 2.02.615.49 1.38.734 2.28.734zm17.46 3.06v-23.28h15.16v3.53h-10.94v6.25h10.12v3.48h-10.12v6.49h11v3.53zm21.12-17.47 3.52 6.47 3.58-6.47h4.36l-5.25 8.75 5.34 8.72h-4.33l-3.7-6.28-3.64 6.28h-4.36l5.3-8.72-5.17-8.75h4.36zm13.13 24v-24h4.03v2.89h.25c.208-.416.5-.864.89-1.34.385-.49.91-.906 1.56-1.25.667-.344 1.52-.516 2.55-.516 1.34 0 2.56.344 3.64 1.03 1.08.687 1.94 1.7 2.58 3.03.645 1.33.968 2.97.968 4.92 0 1.92-.312 3.55-.937 4.89s-1.48 2.37-2.58 3.08c-1.08.698-2.31 1.05-3.69 1.05-.989 0-1.82-.167-2.48-.5-.656-.344-1.19-.75-1.59-1.22a6.93 6.93 0 0 1 -.906-1.36h-.172v9.3h-4.11zm8.14-9.59c.907 0 1.66-.244 2.27-.734s1.08-1.16 1.39-2.02c.312-.854.47-1.82.468-2.91 0-1.08-.156-2.05-.468-2.89-.313-.844-.771-1.51-1.38-1.99-.605-.479-1.36-.718-2.28-.718-.885 0-1.64.229-2.25.687-.604.46-1.07 1.11-1.39 1.95-.313.83-.469 1.82-.469 2.95 0 1.12.156 2.12.469 2.97.323.84.791 1.5 1.41 1.98.614.47 1.36.703 2.23.703zm18.02 3.41c-1.75 0-3.26-.365-4.53-1.09-1.27-.74-2.25-1.78-2.94-3.12-.677-1.34-1.01-2.93-1.01-4.75 0-1.8.338-3.38 1.01-4.73.677-1.36 1.63-2.43 2.86-3.19s2.68-1.14 4.34-1.14c1.07 0 2.09.171 3.05.515a6.99 6.99 0 0 1 2.56 1.59c.75.72 1.34 1.64 1.76 2.75.427 1.1.641 2.42.641 3.95v1.28h-14.31v-2.77h12.27l-1.92.812c0-.99-.151-1.85-.453-2.58-.302-.74-.75-1.32-1.34-1.73-.593-.417-1.33-.625-2.22-.625-.886 0-1.64.208-2.27.625a3.95 3.95 0 0 0 -1.42 1.69c-.323.7-.484 1.48-.484 2.34v1.92c0 1.06.182 1.97.547 2.73.375.75.895 1.32 1.56 1.72.677.4 1.46.594 2.36.594.58 0 1.11-.084 1.59-.25.49-.167.91-.417 1.25-.75a3.41 3.41 0 0 0 .813-1.27l3.84.453a6.15 6.15 0 0 1 -1.39 2.66c-.667.75-1.53 1.33-2.58 1.75-1.04.407-2.24.61-3.59.61zm13.77-10.56v10.21h-4.11v-17.47h4.03v2.98h.203c.396-.98 1.01-1.76 1.86-2.33.854-.584 1.94-.876 3.25-.876 1.21 0 2.26.256 3.16.766s1.59 1.26 2.08 2.25c.5.98.75 2.17.75 3.56v11.12h-4.11v-10.47c0-1.17-.302-2.08-.906-2.73-.604-.667-1.44-1-2.5-1-.719 0-1.36.156-1.92.469-.552.31-.99.77-1.31 1.36-.313.58-.469 1.3-.469 2.16zm27.73-2.61-3.73.392c-.156-.573-.495-1.08-1.01-1.52-.521-.448-1.26-.672-2.2-.672-.854 0-1.57.188-2.16.563-.573.37-.859.85-.859 1.44 0 .51.19.932.56 1.27.386.32 1.02.583 1.91.78l2.98.626c1.64.344 2.86.906 3.67 1.69.812.78 1.22 1.79 1.22 3.03 0 1.09-.318 2.06-.954 2.91-.635.84-1.51 1.5-2.64 1.97-1.11.468-2.4.703-3.86.703-2.13 0-3.85-.448-5.16-1.34-1.29-.906-2.07-2.16-2.33-3.77l4.02-.375c.177.78.562 1.38 1.16 1.78.604.39 1.38.593 2.31.593.98 0 1.77-.198 2.36-.593.59-.407.89-.901.89-1.49 0-.979-.781-1.65-2.34-2l-2.98-.625c-1.68-.364-2.92-.953-3.72-1.76-.802-.823-1.2-1.87-1.2-3.14 0-1.08.297-2.02.891-2.81.594-.791 1.42-1.41 2.48-1.84 1.06-.438 2.29-.657 3.69-.657 2.05 0 3.66.443 4.83 1.33 1.18.875 1.91 2.05 2.19 3.53zm10.01 13.17c-1.75 0-3.26-.365-4.53-1.09-1.27-.74-2.25-1.78-2.94-3.12-.677-1.34-1.02-2.93-1.02-4.75 0-1.8.339-3.38 1.02-4.73.677-1.36 1.63-2.43 2.86-3.19s2.68-1.14 4.34-1.14c1.07 0 2.09.171 3.05.515a6.99 6.99 0 0 1 2.56 1.59c.75.72 1.34 1.64 1.76 2.75.427 1.1.641 2.42.641 3.95v1.28h-14.31v-2.77h12.27l-1.92.812c0-.99-.151-1.85-.453-2.58-.302-.74-.75-1.32-1.34-1.73-.594-.417-1.33-.625-2.22-.625-.885 0-1.64.208-2.27.625a3.95 3.95 0 0 0 -1.42 1.69c-.323.7-.484 1.48-.484 2.34v1.92c0 1.06.182 1.97.546 2.73.375.75.896 1.32 1.56 1.72.677.4 1.46.594 2.36.594.58 0 1.11-.084 1.59-.25.49-.167.91-.417 1.25-.75a3.41 3.41 0 0 0 .813-1.27l3.84.453a6.15 6.15 0 0 1 -1.39 2.66c-.667.75-1.53 1.33-2.58 1.75-1.04.407-2.24.61-3.59.61zm-187.93 31.65v-23.28h8.73c1.79 0 3.29.312 4.5.937 1.22.625 2.14 1.5 2.77 2.62.624 1.11.937 2.41.937 3.89 0 1.49-.318 2.78-.953 3.88-.625 1.09-1.55 1.94-2.78 2.53-1.23.594-2.74.89-4.53.89h-6.2v-3.48h5.62c1.05 0 1.91-.145 2.58-.437.68-.292 1.17-.719 1.49-1.28.323-.573.48-1.27.484-2.09s-.161-1.53-.484-2.11c-.323-.593-.818-1.04-1.49-1.34-.666-.313-1.53-.469-2.59-.469h-3.86v19.739h-4.22zm13.08 0-5.64-10.56h4.59l5.76 10.56h-4.72zm13.54.344c-1.75 0-3.26-.365-4.53-1.09-1.27-.74-2.25-1.78-2.94-3.12-.677-1.34-1.01-2.93-1.01-4.75 0-1.8.338-3.38 1.01-4.73.677-1.36 1.63-2.43 2.86-3.19s2.68-1.14 4.34-1.14c1.07 0 2.09.171 3.05.515a6.99 6.99 0 0 1 2.56 1.59c.75.72 1.34 1.64 1.76 2.75.428 1.1.641 2.42.641 3.95v1.28h-14.311v-2.77h12.27l-1.92.812c0-.99-.15-1.85-.453-2.58-.302-.74-.75-1.32-1.34-1.73-.593-.417-1.33-.625-2.22-.625-.886 0-1.64.208-2.27.625a3.95 3.95 0 0 0 -1.42 1.69c-.323.7-.484 1.48-.484 2.34v1.92c0 1.06.182 1.97.547 2.73.375.75.896 1.32 1.56 1.72.677.4 1.46.594 2.36.594a4.84 4.84 0 0 0 1.59-.25 3.29 3.29 0 0 0 1.25-.75 3.41 3.41 0 0 0 .813-1.27l3.84.453a6.15 6.15 0 0 1 -1.39 2.66c-.667.75-1.53 1.33-2.58 1.75-1.04.407-2.24.61-3.59.61zm9.66 6.19v-24h4.03v2.89h.25c.208-.416.5-.864.89-1.34.386-.49.91-.906 1.56-1.25.666-.344 1.51-.516 2.55-.516 1.34 0 2.56.344 3.64 1.03 1.08.687 1.94 1.7 2.58 3.03.646 1.33.97 2.97.97 4.92 0 1.92-.313 3.55-.938 4.89s-1.49 2.37-2.58 3.08c-1.08.697-2.31 1.05-3.69 1.05-.99 0-1.82-.166-2.48-.5-.657-.343-1.19-.75-1.59-1.22a6.99 6.99 0 0 1 -.906-1.36h-.172v9.3h-4.11zm8.14-9.59c.906 0 1.66-.244 2.27-.734s1.08-1.16 1.39-2.02c.313-.854.47-1.82.469-2.91 0-1.08-.156-2.05-.469-2.89-.312-.844-.77-1.51-1.38-1.99-.604-.479-1.36-.719-2.28-.719-.885 0-1.64.23-2.25.688-.604.46-1.07 1.11-1.39 1.95-.313.83-.47 1.82-.47 2.95 0 1.12.157 2.12.47 2.97.322.84.791 1.5 1.41 1.98.614.47 1.36.704 2.23.704zm17.9 3.41c-1.71 0-3.19-.375-4.44-1.12-1.25-.75-2.22-1.8-2.91-3.16-.677-1.35-1.02-2.93-1.02-4.72 0-1.8.339-3.38 1.02-4.73.688-1.36 1.66-2.42 2.91-3.17s2.73-1.13 4.44-1.13 3.19.376 4.44 1.13c1.25.75 2.22 1.81 2.91 3.17.687 1.35 1.03 2.93 1.03 4.74 0 1.79-.343 3.36-1.03 4.72-.688 1.35-1.66 2.41-2.91 3.16s-2.73 1.12-4.44 1.12zm0-3.31c.948 0 1.73-.25 2.34-.75.61-.51 1.07-1.2 1.38-2.06.312-.865.47-1.82.468-2.88 0-1.07-.156-2.04-.468-2.91-.303-.865-.76-1.55-1.38-2.05-.615-.51-1.4-.766-2.34-.766-.927 0-1.7.255-2.33.766-.625.5-1.09 1.18-1.41 2.05-.302.87-.453 1.83-.453 2.91 0 1.05.151 2.01.453 2.88.313.86.782 1.55 1.41 2.06.625.5 1.4.75 2.33.75zm10.32 2.956v-17.47h3.98v2.94h.187c.313-1.02.86-1.8 1.64-2.34.781-.552 1.67-.828 2.67-.828.22 0 .469.01.75.03.291.02.531.05.719.08v3.78c-.178-.062-.454-.114-.829-.156a9.78 9.78 0 0 0 -1.08-.062c-.76 0-1.44.161-2.03.484a3.67 3.67 0 0 0 -1.41 1.33c-.334.56-.5 1.22-.5 1.97v10.242h-4.11zm20.82-17.47v3.19h-10.02v-3.19zm-7.56-4.16h4.11v16.38c0 .688.15 1.2.453 1.53.302.32.781.49 1.44.485.18 0 .375-.16.59-.47.22-.31.42-.68.59-.11l.703 3.22c-.437.13-.88.23-1.33.296-.448.07-.896.11-1.34.11-1.62 0-2.9-.428-3.83-1.28-.927-.865-1.39-2.04-1.39-3.53v-16.621zm23.04 8.8-3.73.39c-.157-.572-.495-1.08-1.02-1.51-.521-.448-1.25-.672-2.2-.672-.854 0-1.57.188-2.16.563-.573.37-.86.85-.86 1.44 0 .51.19.932.56 1.27.385.32 1.02.583 1.91.78l2.98.626c1.64.344 2.86.906 3.67 1.69.813.78 1.22 1.79 1.22 3.03 0 1.09-.318 2.06-.953 2.91-.636.84-1.52 1.5-2.64 1.97-1.11.468-2.4.703-3.86.703-2.14 0-3.85-.448-5.16-1.34-1.29-.906-2.07-2.16-2.33-3.77l4.02-.375c.177.78.563 1.38 1.16 1.78.604.39 1.38.593 2.31.593.98 0 1.76-.197 2.36-.593.59-.407.89-.901.89-1.49 0-.979-.781-1.65-2.34-2l-2.98-.625c-1.68-.364-2.92-.953-3.72-1.76-.802-.823-1.2-1.87-1.2-3.14 0-1.08.297-2.02.89-2.81.594-.791 1.42-1.41 2.48-1.84 1.06-.438 2.29-.656 3.69-.656 2.05 0 3.66.442 4.83 1.33 1.18.875 1.91 2.05 2.19 3.53zm7.86-6.92v-3.53h18.56v3.53h-7.19v19.75h-4.17v-19.75zm24.54 9.53v10.22h-4.11v-23.28h4.01v8.8h.219c.406-.99 1.04-1.77 1.89-2.34.854-.573 1.95-.86 3.3-.86 1.21 0 2.26.256 3.16.766.91.51 1.61 1.25 2.11 2.23s.75 2.17.75 3.58v11.104h-4.12v-10.47c0-1.19-.302-2.1-.906-2.75-.604-.656-1.45-.984-2.53-.984-.729 0-1.38.156-1.95.469a3.34 3.34 0 0 0 -1.33 1.36c-.323.58-.485 1.3-.485 2.16zm19.07 10.58c-1.11 0-2.12-.197-3-.593a4.86 4.86 0 0 1 -2.09-1.78c-.51-.78-.765-1.74-.765-2.89 0-.98.18-1.79.546-2.44a4.24 4.24 0 0 1 1.49-1.55 7.7 7.7 0 0 1 2.14-.875 15.68 15.68 0 0 1 2.45-.437 134.4 134.4 0 0 0 2.5-.297c.635-.083 1.09-.219 1.38-.406.29-.188.44-.48.44-.875v-.078c0-.844-.25-1.5-.75-1.97-.5-.468-1.23-.702-2.19-.702-1.01 0-1.81.219-2.41.656-.583.44-.979.95-1.19 1.55l-3.83-.547c.302-1.06.802-1.95 1.5-2.66a6.53 6.53 0 0 1 2.55-1.61c1.01-.364 2.12-.546 3.34-.546.83 0 1.67.099 2.5.296.83.188 1.6.51 2.3.97a5.02 5.02 0 0 1 1.67 1.84c.417.77.625 1.73.625 2.89v11.694h-3.95v-2.41h-.125c-.25.48-.604.93-1.06 1.36-.448.42-1.01.754-1.69 1.01-.667.26-1.46.39-2.38.39zm1.05-3.03c.833 0 1.55-.162 2.16-.485a3.72 3.72 0 0 0 1.41-1.31c.334-.552.5-1.15.5-1.8v-2.05c-.135.1-.354.2-.656.3-.302.08-.646.16-1.03.235a35.09 35.09 0 0 1 -2.09.312 6.87 6.87 0 0 0 -1.66.422c-.479.19-.86.45-1.14.781-.281.33-.422.77-.422 1.3 0 .76.28 1.33.828 1.72.552.38 1.26.578 2.11.578zm19.58-14.8v3.19h-10.02v-3.19zm-7.56-4.16h4.11v16.38c0 .688.15 1.2.453 1.53.302.32.781.49 1.44.485.18 0 .375-.16.59-.47.22-.31.42-.68.59-.11l.703 3.22c-.437.13-.88.23-1.33.296-.448.07-.896.11-1.34.11-1.62 0-2.9-.428-3.83-1.28-.927-.865-1.39-2.04-1.39-3.53v-16.621zm-173.48 30.34h5.17l6.91 16.86h.265l6.92-16.86h5.23v23.29h-4.14v-16h-.188l-6.47 15.92h-3.03l-6.39-15.95h-.219v16.03h-4.06v-23.28zm32.41 23.64c-1.11 0-2.12-.198-3-.593-.885-.407-1.58-1-2.09-1.78-.51-.781-.766-1.74-.766-2.89 0-.979.18-1.79.547-2.44a4.23 4.23 0 0 1 1.49-1.55 7.71 7.71 0 0 1 2.14-.875 15.7 15.7 0 0 1 2.45-.437 138.34 138.34 0 0 0 2.5-.297c.636-.083 1.09-.219 1.38-.406.29-.188.44-.479.44-.875v-.078c0-.844-.25-1.5-.75-1.97-.5-.469-1.23-.703-2.19-.703-1.01 0-1.81.219-2.41.656-.583.44-.979.95-1.19 1.55l-3.83-.547c.302-1.06.802-1.95 1.5-2.66.698-.719 1.55-1.25 2.55-1.61 1.01-.364 2.12-.547 3.34-.547.83 0 1.67.099 2.5.297a6.93 6.93 0 0 1 2.3.969 5.01 5.01 0 0 1 1.67 1.84c.417.77.625 1.73.625 2.89v11.706h-3.95v-2.41h-.125c-.25.48-.604.93-1.06 1.36-.447.42-1.01.755-1.69 1.02-.667.26-1.46.39-2.38.39zm1.05-3.03c.833 0 1.55-.161 2.16-.484.6-.334 1.07-.771 1.41-1.31.334-.552.5-1.15.5-1.8v-2.05c-.135.1-.354.2-.656.3a12.72 12.72 0 0 1 -1.03.235c-.386.07-.766.13-1.14.187-.365.05-.683.09-.954.12a6.9 6.9 0 0 0 -1.66.422c-.48.19-.86.45-1.14.781-.282.33-.423.77-.423 1.3 0 .761.28 1.33.828 1.72.553.38 1.26.578 2.11.578zm14.63-2.8-.016-4.98h.672l6.27-7.02h4.81l-7.72 8.61h-.859l-3.16 3.39zm-3.75 5.47v-23.28h4.11v23.29h-4.11zm10.95 0-5.69-7.94 2.78-2.91 7.84 10.86h-4.92zm12.74.344c-1.75 0-3.26-.365-4.53-1.09-1.27-.74-2.25-1.78-2.94-3.12-.677-1.34-1.02-2.93-1.02-4.75 0-1.8.339-3.38 1.02-4.73.677-1.36 1.63-2.43 2.86-3.19s2.68-1.14 4.34-1.14a8.95 8.95 0 0 1 3.05.516 6.99 6.99 0 0 1 2.56 1.59c.75.72 1.34 1.64 1.77 2.75.427 1.1.641 2.42.641 3.95v1.28h-14.301v-2.77h12.27l-1.92.812c0-.989-.151-1.85-.453-2.58-.302-.74-.75-1.32-1.34-1.73-.594-.417-1.33-.625-2.22-.625-.885 0-1.64.208-2.27.625a3.95 3.95 0 0 0 -1.42 1.69c-.323.7-.485 1.48-.485 2.34v1.92c0 1.06.183 1.97.547 2.73.375.75.896 1.32 1.56 1.72.677.4 1.46.594 2.36.594.58 0 1.11-.084 1.59-.25.49-.167.91-.417 1.25-.75.35-.344.62-.766.81-1.27l3.84.453a6.15 6.15 0 0 1 -1.39 2.66c-.667.75-1.53 1.33-2.58 1.75-1.04.407-2.24.61-3.59.61zm14.67-23.62h4.77l5.69 10.31h.25l5.69-10.31h4.76l-8.48 14.59v8.696h-4.2v-8.69l-8.47-14.59zm26.84 23.62c-1.71 0-3.19-.375-4.44-1.12-1.25-.75-2.22-1.8-2.91-3.16-.678-1.35-1.02-2.93-1.02-4.72 0-1.8.338-3.38 1.02-4.74.687-1.36 1.66-2.42 2.91-3.17s2.73-1.13 4.44-1.13 3.19.376 4.44 1.13c1.25.75 2.22 1.81 2.91 3.17.688 1.35 1.03 2.93 1.03 4.74 0 1.79-.343 3.36-1.03 4.72-.687 1.35-1.66 2.41-2.91 3.16s-2.73 1.12-4.44 1.12zm0-3.31c.948 0 1.73-.25 2.34-.75.61-.51 1.07-1.2 1.38-2.06.313-.865.47-1.82.469-2.88 0-1.07-.156-2.04-.469-2.91-.302-.865-.76-1.55-1.38-2.05-.615-.511-1.4-.766-2.34-.766-.927 0-1.7.255-2.33.766-.625.5-1.09 1.18-1.41 2.05-.302.86-.453 1.83-.453 2.91 0 1.05.151 2.01.453 2.88.312.86.781 1.55 1.41 2.06.625.5 1.4.75 2.33.75zm21.45-4.36v-10.14h4.11v17.476h-3.98v-3.11h-.188c-.395.98-1.04 1.78-1.94 2.41-.896.62-2 .932-3.31.922-1.15 0-2.16-.25-3.03-.75-.864-.511-1.55-1.25-2.05-2.23-.489-.989-.734-2.18-.734-3.58v-11.12h4.11v10.5c0 1.09.302 1.97.907 2.62.614.66 1.42.979 2.41.969.6 0 1.19-.146 1.75-.437a3.54 3.54 0 0 0 1.41-1.31c.365-.583.55-1.32.547-2.2zm13.44 7.336v-23.28h4.22v19.75h10.27v3.53zm24.02.344c-1.71 0-3.19-.375-4.44-1.12-1.25-.75-2.22-1.8-2.91-3.16-.677-1.35-1.02-2.93-1.02-4.72 0-1.8.339-3.38 1.02-4.74.688-1.36 1.66-2.42 2.91-3.17s2.73-1.13 4.44-1.13 3.19.376 4.44 1.13c1.25.75 2.22 1.81 2.91 3.17.687 1.35 1.03 2.93 1.03 4.74 0 1.79-.344 3.36-1.03 4.72-.688 1.35-1.66 2.41-2.91 3.16s-2.73 1.12-4.44 1.12zm0-3.31c.948 0 1.73-.25 2.34-.75.61-.51 1.07-1.2 1.38-2.06.312-.865.47-1.82.468-2.88 0-1.07-.156-2.04-.468-2.91-.303-.865-.761-1.55-1.38-2.05-.615-.511-1.4-.766-2.34-.766-.927 0-1.7.255-2.33.766-.625.5-1.09 1.18-1.41 2.05-.302.86-.453 1.83-.453 2.91 0 1.05.151 2.01.453 2.88.313.86.782 1.55 1.41 2.06.625.5 1.4.75 2.33.75zm17.93 3.31c-1.71 0-3.19-.375-4.44-1.12-1.25-.75-2.22-1.8-2.91-3.16-.677-1.35-1.02-2.93-1.02-4.72 0-1.8.339-3.38 1.02-4.74.687-1.36 1.66-2.42 2.91-3.17s2.73-1.13 4.44-1.13 3.19.376 4.44 1.13c1.25.75 2.22 1.81 2.91 3.17.688 1.35 1.03 2.93 1.03 4.74 0 1.79-.344 3.36-1.03 4.72-.687 1.35-1.66 2.41-2.91 3.16s-2.73 1.12-4.44 1.12zm0-3.31c.948 0 1.73-.25 2.34-.75.61-.51 1.07-1.2 1.38-2.06.313-.865.47-1.82.469-2.88 0-1.07-.156-2.04-.469-2.91-.302-.865-.76-1.55-1.38-2.05-.614-.511-1.4-.766-2.34-.766-.927 0-1.7.255-2.33.766-.625.5-1.09 1.18-1.41 2.05-.302.86-.453 1.83-.453 2.91 0 1.05.151 2.01.453 2.88.313.86.782 1.55 1.41 2.06.625.5 1.4.75 2.33.75zm14.07-2.5-.015-4.98h.672l6.26-7.02h4.81l-7.72 8.61h-.859l-3.16 3.39zm-3.75 5.47v-23.28h4.11v23.276h-4.11zm10.95 0-5.69-7.94 2.78-2.91 7.84 10.846h-4.92zm-207.66 32v-23.28h4.22v19.75h10.27v3.526h-14.48zm16.41 0v-17.47h4.11v17.466h-4.11zm2.06-19.92a2.39 2.39 0 0 1 -1.69-.656c-.469-.438-.703-.964-.703-1.58 0-.625.23-1.16.703-1.59a2.38 2.38 0 0 1 1.69-.656c.646 0 1.2.218 1.67.656s.7.964.7 1.58c0 .625-.234 1.16-.703 1.59a2.37 2.37 0 0 1 -1.67.656zm8.52 14.45-.016-4.98h.672l6.27-7.02h4.81l-7.72 8.61h-.859l-3.16 3.39zm-3.73 5.466v-23.28h4.11v23.28zm10.95 0-5.69-7.94 2.78-2.91 7.83 10.85zm12.74.344c-1.75 0-3.26-.365-4.53-1.09-1.27-.74-2.25-1.78-2.94-3.12-.677-1.34-1.02-2.93-1.02-4.75 0-1.8.339-3.38 1.02-4.73.677-1.36 1.63-2.43 2.86-3.19s2.68-1.14 4.34-1.14a8.95 8.95 0 0 1 3.05.516 6.99 6.99 0 0 1 2.56 1.59c.75.72 1.34 1.64 1.76 2.75.427 1.1.64 2.42.64 3.95v1.28h-14.3v-2.77h12.27l-1.92.812c0-.989-.151-1.85-.453-2.58-.302-.74-.75-1.32-1.34-1.73-.594-.417-1.33-.625-2.22-.625-.885 0-1.64.208-2.27.625a3.95 3.95 0 0 0 -1.42 1.69c-.323.7-.484 1.48-.484 2.34v1.92c0 1.06.182 1.97.546 2.73.375.75.896 1.32 1.56 1.72.677.4 1.46.594 2.36.594a4.84 4.84 0 0 0 1.59-.25c.49-.167.91-.417 1.25-.75a3.4 3.4 0 0 0 .813-1.27l3.84.453a6.15 6.15 0 0 1 -1.39 2.66c-.667.75-1.53 1.33-2.58 1.75-1.04.407-2.24.61-3.59.61z" fill="#000"/><path d="m25.03 186v-11.64h3.94c.911 0 1.66.157 2.23.469.58.307 1.02.732 1.3 1.27.281.54.422 1.15.422 1.84 0 .682-.14 1.29-.422 1.82-.276.53-.706.95-1.29 1.25-.577.3-1.32.445-2.23.445h-3.17v-1.26h3.12c.625 0 1.13-.092 1.51-.274s.66-.44.83-.773c.17-.339.26-.74.26-1.2 0-.469-.088-.878-.265-1.23a1.79 1.79 0 0 0 -.828-.813c-.38-.192-.886-.289-1.52-.289h-2.48v10.385h-1.41zm6.7 0-2.81-5.23h1.59l2.87 5.23h-1.64zm6.17.188c-.838 0-1.56-.188-2.18-.563a3.71 3.71 0 0 1 -1.41-1.57c-.328-.677-.492-1.46-.492-2.35 0-.896.16-1.69.484-2.37.323-.682.78-1.22 1.36-1.6.588-.385 1.28-.578 2.06-.578.45 0 .904.08 1.35.227.45.151.85.396 1.22.734.37.339.66.787.88 1.34.218.56.328 1.24.328 2.06v.578h-6.72v-1.16h6.01l-.617.44c0-.583-.091-1.1-.274-1.55a2.36 2.36 0 0 0 -.82-1.07c-.36-.26-.807-.391-1.34-.391-.536 0-.997.13-1.38.399-.38.26-.672.6-.875 1.02a3.09 3.09 0 0 0 -.305 1.36v.765c0 .662.11 1.22.344 1.68.229.46.55.81.96 1.05.412.23.889.35 1.43.351.35 0 .667-.49.95-.148.29-.104.53-.258.74-.461.21-.208.37-.464.48-.766l1.3.375a2.86 2.86 0 0 1 -.688 1.16 3.33 3.33 0 0 1 -1.19.773 4.42 4.42 0 0 1 -1.59.274zm8.41 0c-.813 0-1.52-.193-2.11-.579a3.88 3.88 0 0 1 -1.37-1.6c-.318-.677-.477-1.45-.477-2.32 0-.891.16-1.68.493-2.35.328-.682.79-1.22 1.38-1.6.593-.385 1.28-.578 2.07-.578.61 0 1.17.115 1.66.344.5.224.9.542 1.21.953.32.412.51.891.59 1.44h-1.34a2.09 2.09 0 0 0 -.367-.75 1.89 1.89 0 0 0 -.703-.563c-.286-.146-.628-.219-1.02-.219-.521 0-.977.14-1.37.407-.39.27-.695.65-.914 1.15-.218.49-.328 1.06-.328 1.73 0 .671.11 1.26.32 1.76.214.5.516.89.907 1.16.395.28.856.41 1.38.414.53 0 .976-.135 1.35-.406a1.94 1.94 0 0 0 .742-1.12h1.34c-.73.52-.26.98-.563 1.39-.296.41-.69.74-1.18.984-.484.24-1.05.36-1.69.36zm8.36 0c-.839 0-1.56-.188-2.18-.563a3.71 3.71 0 0 1 -1.41-1.57c-.328-.677-.492-1.46-.492-2.35 0-.896.16-1.69.484-2.37.323-.682.78-1.22 1.36-1.6.588-.385 1.28-.578 2.06-.578.45 0 .904.08 1.35.227a3.35 3.35 0 0 1 1.22.734c.37.34.664.79.883 1.34.219.56.328 1.24.328 2.06v.578h-6.73v-1.16h6.01l-.617.44c0-.583-.092-1.1-.274-1.55a2.36 2.36 0 0 0 -.82-1.07c-.36-.26-.808-.391-1.34-.391s-.997.13-1.38.399c-.38.26-.672.6-.875 1.02a3.09 3.09 0 0 0 -.304 1.36v.765c0 .662.11 1.22.343 1.68.23.46.55.81.961 1.05.412.23.888.35 1.43.351a2.9 2.9 0 0 0 .953-.148c.286-.104.53-.258.74-.461.21-.208.37-.464.48-.766l1.3.375a2.86 2.86 0 0 1 -.688 1.16 3.33 3.33 0 0 1 -1.19.773 4.42 4.42 0 0 1 -1.59.274zm4.88-.188v-8.73h1.33v8.73zm.672-10.19a.944.94 0 0 1 -.672-.265.85.85 0 0 1 -.281-.641c0-.25.09-.463.28-.64a.945.95 0 0 1 .673-.266c.26 0 .484.09.672.27.187.18.28.39.28.64a.85.85 0 0 1 -.28.64.944.94 0 0 1 -.672.26zm2.38 13.45v-12h1.28v1.39h.156c.1-.151.24-.344.41-.578.18-.239.43-.453.77-.64.33-.188.78-.282 1.35-.282.73 0 1.38.185 1.94.555.56.365.99.885 1.3 1.56.317.67.476 1.47.476 2.38 0 .922-.156 1.72-.469 2.41-.312.68-.747 1.2-1.3 1.57-.557.37-1.2.555-1.93.555-.557 0-1-.094-1.34-.282-.338-.192-.599-.409-.78-.648a10.36 10.36 0 0 1 -.423-.602h-.11v4.61h-1.33zm3.81-4.28c.557 0 1.02-.148 1.4-.445.38-.302.66-.706.84-1.21.193-.505.29-1.07.29-1.69a4.66 4.66 0 0 0 -.282-1.66 2.64 2.64 0 0 0 -.844-1.18c-.37-.292-.838-.438-1.41-.438-.547 0-1.138-1.38.414-.37.27-.65.65-.844 1.15-.187.49-.28 1.06-.28 1.72 0 .656.1 1.24.288 1.74.193.5.474.89.844 1.18.375" fill="#7e8890"/><g clip-path="url(#b)"><path d="m-116 282.5h532v278h-532z" fill="url(#g)"/></g></g><g clip-path="url(#c)"><path d="m328 32c0-17.67 14.33-32 32-32h240c17.67 0 32 14.33 32 32v496c0 17.67-14.33 32-32 32h-240c-17.67 0-32-14.33-32-32z" fill="#fff"/><path d="m353.69 60v-23.28h15.16v3.53h-10.94v6.25h10.12v3.48h-10.12v6.49h11v3.53zm22.79.36c-1.11 0-2.12-.199-3-.594a4.86 4.86 0 0 1 -2.09-1.78c-.51-.78-.765-1.74-.765-2.89 0-.98.18-1.79.546-2.44a4.24 4.24 0 0 1 1.49-1.55 7.7 7.7 0 0 1 2.14-.875 15.68 15.68 0 0 1 2.45-.437 134.4 134.4 0 0 0 2.5-.297c.635-.083 1.09-.219 1.38-.406.29-.188.44-.48.44-.875v-.078c0-.844-.25-1.5-.75-1.97-.5-.468-1.23-.702-2.19-.702-1.01 0-1.81.218-2.41.656-.583.44-.979.95-1.19 1.55l-3.83-.547c.302-1.06.802-1.95 1.5-2.66a6.53 6.53 0 0 1 2.55-1.61c1.01-.364 2.12-.547 3.34-.547.83 0 1.67.1 2.5.297.83.188 1.6.51 2.3.97a5.02 5.02 0 0 1 1.67 1.84c.417.77.625 1.73.625 2.89v11.695h-3.95v-2.41h-.125c-.25.48-.604.93-1.06 1.36-.448.42-1.01.754-1.69 1.01-.667.26-1.46.39-2.38.39zm1.05-3.03c.833 0 1.55-.161 2.16-.484a3.72 3.72 0 0 0 1.41-1.31c.334-.552.5-1.15.5-1.8v-2.05c-.135.1-.354.2-.656.3-.302.08-.646.16-1.03.235a35.09 35.09 0 0 1 -2.09.312 6.87 6.87 0 0 0 -1.66.422c-.479.19-.86.45-1.14.781-.281.33-.422.77-.422 1.3 0 .76.28 1.33.828 1.72.552.38 1.26.578 2.11.578zm10.88 2.67v-17.47h3.98v2.94h.188c.312-1.02.859-1.8 1.64-2.34.782-.552 1.67-.828 2.67-.828.22 0 .469.01.75.03.292.02.532.05.719.08v3.78c-.177-.063-.453-.115-.828-.157a9.78 9.78 0 0 0 -1.08-.062c-.761 0-1.44.161-2.03.484a3.67 3.67 0 0 0 -1.41 1.33c-.333.56-.5 1.22-.5 1.97v10.243h-4.11zm15.29-10.22v10.22h-4.11v-17.47h4.03v2.98h.203c.396-.98 1.02-1.76 1.86-2.33.854-.584 1.94-.876 3.25-.876 1.21 0 2.26.256 3.16.766s1.59 1.26 2.08 2.25c.5.98.75 2.17.75 3.56v11.12h-4.11v-10.47c0-1.17-.302-2.08-.907-2.73-.604-.667-1.44-1-2.5-1-.718 0-1.36.156-1.92.469a3.36 3.36 0 0 0 -1.31 1.36c-.312.58-.469 1.3-.469 2.16zm20.55-13.06h5.17l6.91 16.86h.266l6.92-16.86h5.24v23.28h-4.14v-16h-.187l-6.47 15.92h-3.03l-6.39-15.95h-.219v16.03h-4.06v-23.28zm34.99 23.62c-1.71 0-3.19-.375-4.44-1.12-1.25-.75-2.22-1.8-2.91-3.16-.678-1.35-1.02-2.93-1.02-4.72 0-1.8.338-3.38 1.02-4.74.687-1.36 1.66-2.42 2.91-3.17s2.73-1.12 4.44-1.12 3.19.374 4.44 1.12c1.25.75 2.22 1.81 2.91 3.17.688 1.35 1.03 2.93 1.03 4.74 0 1.79-.343 3.36-1.03 4.72-.687 1.35-1.66 2.41-2.91 3.16s-2.73 1.12-4.44 1.12zm0-3.31c.948 0 1.73-.25 2.34-.75.61-.51 1.07-1.2 1.38-2.06.313-.865.47-1.82.469-2.88 0-1.07-.156-2.04-.469-2.91-.302-.864-.76-1.55-1.38-2.05-.615-.51-1.4-.766-2.34-.766-.927 0-1.7.255-2.33.766-.625.5-1.09 1.18-1.41 2.05-.302.86-.453 1.83-.453 2.91 0 1.05.151 2.01.453 2.88.312.86.781 1.55 1.41 2.06.625.5 1.4.75 2.33.75zm10.32 2.97v-17.47h3.98v2.94h.188c.312-1.02.859-1.8 1.64-2.34.782-.552 1.67-.828 2.67-.828.22 0 .469.01.75.03.292.02.532.05.719.08v3.78c-.177-.063-.453-.115-.828-.157a9.78 9.78 0 0 0 -1.08-.062c-.761 0-1.44.161-2.03.484a3.67 3.67 0 0 0 -1.41 1.33c-.333.56-.5 1.22-.5 1.97v10.243h-4.11zm18.2.344c-1.75 0-3.26-.365-4.53-1.09-1.27-.74-2.25-1.78-2.94-3.12-.677-1.34-1.02-2.93-1.02-4.75 0-1.8.339-3.38 1.02-4.73.677-1.36 1.63-2.43 2.86-3.19s2.68-1.14 4.34-1.14a8.96 8.96 0 0 1 3.05.515 6.98 6.98 0 0 1 2.56 1.59c.75.72 1.34 1.64 1.77 2.75.427 1.1.641 2.42.641 3.95v1.28h-14.321v-2.77h12.27l-1.92.812c0-.99-.151-1.85-.453-2.58-.302-.74-.75-1.32-1.34-1.73-.594-.417-1.33-.625-2.22-.625-.885 0-1.64.208-2.27.625a3.95 3.95 0 0 0 -1.42 1.69c-.323.7-.485 1.48-.485 2.34v1.92c0 1.06.183 1.97.547 2.73.375.75.896 1.32 1.56 1.72.677.4 1.46.594 2.36.594.58 0 1.11-.084 1.59-.25a3.29 3.29 0 0 0 1.25-.75c.354-.344.62-.766.81-1.27l3.84.453a6.16 6.16 0 0 1 -1.39 2.66c-.666.75-1.53 1.33-2.58 1.75-1.04.407-2.24.61-3.59.61zm16.26-.344v-23.28h14.94v3.53h-10.72v6.98h9.67v3.48h-9.67v9.29zm16.82 0v-17.47h3.98v2.94h.187c.313-1.02.86-1.8 1.64-2.34.781-.552 1.67-.828 2.67-.828.22 0 .468.01.75.03.291.02.531.05.718.08v3.78c-.177-.063-.453-.115-.828-.157a9.78 9.78 0 0 0 -1.08-.062c-.76 0-1.44.161-2.03.484a3.66 3.66 0 0 0 -1.41 1.33c-.334.56-.5 1.22-.5 1.97v10.243h-4.11zm18.07.344c-1.71 0-3.19-.375-4.44-1.12-1.25-.75-2.22-1.8-2.91-3.16-.677-1.35-1.01-2.93-1.01-4.72 0-1.8.338-3.38 1.01-4.74.688-1.36 1.66-2.42 2.91-3.17s2.73-1.12 4.44-1.12 3.19.374 4.44 1.12c1.25.75 2.22 1.81 2.91 3.17.687 1.35 1.03 2.93 1.03 4.74 0 1.79-.344 3.36-1.03 4.72-.688 1.35-1.66 2.41-2.91 3.16s-2.73 1.12-4.44 1.12zm0-3.31c.948 0 1.73-.25 2.34-.75.61-.51 1.07-1.2 1.38-2.06.312-.865.47-1.82.469-2.88 0-1.07-.157-2.04-.469-2.91-.302-.864-.761-1.55-1.38-2.05-.615-.51-1.4-.766-2.34-.766-.927 0-1.7.255-2.33.766-.625.5-1.09 1.18-1.41 2.05-.302.86-.453 1.83-.453 2.91 0 1.05.151 2.01.453 2.88.312.86.781 1.55 1.41 2.06.625.5 1.4.75 2.33.75zm10.32 2.966v-17.47h3.92v2.98h.219c.365-1 .969-1.78 1.81-2.34.843-.573 1.84-.86 3-.86 1.19 0 2.19.287 3 .86s1.38 1.35 1.7 2.34h.187c.396-.97 1.05-1.75 1.97-2.33.917-.584 2.01-.876 3.28-.876 1.6 0 2.91.51 3.92 1.53 1.02 1.01 1.53 2.49 1.53 4.44v11.726h-4.12v-11.09c0-1.07-.291-1.86-.875-2.36-.572-.51-1.28-.765-2.11-.765-.989 0-1.76.313-2.31.938-.552.61-.829 1.41-.829 2.38v10.897h-4.06v-11.25c0-.906-.266-1.62-.797-2.16-.531-.542-1.23-.813-2.11-.813-.594 0-1.14.151-1.62.453-.49.3-.88.72-1.17 1.27-.281.54-.422 1.17-.422 1.88v10.62h-4.11zm-195.54 32v-23.28h15.16v3.53h-10.94v6.25h10.12v3.48h-10.12v6.49h11v3.53zm33.35-17.47-6.22 17.47h-4.56l-6.2-17.47h4.39l4.05 12.98h.187l4.02-12.98h4.34zm8.48 17.81c-1.75 0-3.26-.365-4.53-1.09-1.27-.74-2.25-1.78-2.94-3.12-.678-1.34-1.02-2.93-1.02-4.75 0-1.8.338-3.38 1.02-4.73.677-1.36 1.63-2.43 2.86-3.19s2.68-1.14 4.34-1.14a8.96 8.96 0 0 1 3.05.515 7 7 0 0 1 2.56 1.59c.75.72 1.34 1.64 1.77 2.75.427 1.1.64 2.42.64 3.95v1.28h-14.31v-2.77h12.27l-1.92.812c0-.99-.152-1.85-.454-2.58-.302-.74-.75-1.32-1.34-1.73-.594-.417-1.33-.625-2.22-.625-.886 0-1.64.208-2.27.625a3.95 3.95 0 0 0 -1.42 1.69c-.323.7-.484 1.48-.484 2.34v1.92c0 1.06.182 1.97.547 2.73.375.75.896 1.32 1.56 1.72.677.4 1.46.594 2.36.594a4.85 4.85 0 0 0 1.59-.25 3.29 3.29 0 0 0 1.25-.75c.354-.344.62-.766.81-1.27l3.84.453a6.16 6.16 0 0 1 -1.39 2.66c-.667.75-1.53 1.33-2.58 1.75-1.04.407-2.24.61-3.59.61zm9.66-.344v-17.466h3.98v2.94h.188c.312-1.02.859-1.8 1.64-2.34.781-.552 1.67-.828 2.67-.828.22 0 .469.01.75.03.292.02.531.05.719.08v3.78c-.177-.062-.453-.114-.828-.156a9.8 9.8 0 0 0 -1.08-.062c-.761 0-1.44.161-2.03.484a3.68 3.68 0 0 0 -1.41 1.33c-.333.56-.5 1.22-.5 1.97v10.242h-4.11zm14.27 6.53a7.41 7.41 0 0 1 -1.56-.125 6.14 6.14 0 0 1 -1.14-.297l.969-3.2.203.06c.833.22 1.54.234 2.12.47.59-.188 1.07-.756 1.42-1.7l.344-.937-6.31-17.84h4.36l4.01 13.2h.188l4.03-13.2h4.39l-7 19.58c-.323.93-.75 1.72-1.28 2.38a5.11 5.11 0 0 1 -1.954 1.083c-.782.35-1.71.531-2.78.531zm20.97-6.526v-23.28h4.22v10.7h.281l9.09-10.7h5.14l-9 10.45 9.089 12.83h-5.08l-6.94-9.97-2.58 3.05v6.92zm21.07 0v-17.47h4.11v17.47zm2.06-19.92a2.39 2.39 0 0 1 -1.69-.656c-.468-.438-.703-.964-.703-1.58 0-.625.24-1.16.703-1.59a2.39 2.39 0 0 1 1.69-.656 2.37 2.37 0 0 1 1.67.656c.469.44.703.96.703 1.58 0 .625-.234 1.16-.703 1.59a2.37 2.37 0 0 1 -1.67.656zm8.88-3.36v23.28h-4.11v-23.28zm10.34 23.63c-1.71 0-3.19-.375-4.44-1.12-1.25-.75-2.22-1.8-2.91-3.16-.678-1.35-1.02-2.93-1.02-4.72 0-1.8.338-3.38 1.02-4.73.687-1.36 1.66-2.42 2.91-3.17s2.73-1.13 4.44-1.13 3.19.376 4.44 1.13c1.25.75 2.22 1.81 2.91 3.17.688 1.35 1.03 2.93 1.03 4.74 0 1.79-.343 3.36-1.03 4.72-.687 1.35-1.66 2.41-2.91 3.16s-2.73 1.12-4.44 1.12zm0-3.31c.948 0 1.73-.25 2.34-.75.61-.51 1.07-1.2 1.38-2.06.313-.865.47-1.82.469-2.88 0-1.07-.156-2.04-.469-2.91-.302-.865-.76-1.55-1.38-2.05-.615-.51-1.4-.766-2.34-.766-.927 0-1.7.255-2.33.766-.625.5-1.09 1.18-1.41 2.05-.302.87-.453 1.83-.453 2.91 0 1.05.151 2.01.453 2.88.312.86.781 1.55 1.41 2.06.625.5 1.4.75 2.33.75zm10.33 2.96v-17.47h3.92v2.98h.219c.364-1 .968-1.78 1.81-2.34.844-.573 1.84-.86 3-.86 1.19 0 2.19.287 3 .86s1.38 1.35 1.7 2.34h.188c.395-.97 1.05-1.75 1.97-2.33.917-.583 2.01-.874 3.28-.874 1.6 0 2.91.51 3.92 1.53 1.02 1.01 1.53 2.49 1.53 4.44v11.724h-4.12v-11.09c0-1.07-.292-1.86-.875-2.36-.573-.51-1.28-.765-2.11-.765-.989 0-1.76.313-2.31.938-.552.61-.828 1.41-.828 2.38v10.897h-4.06v-11.25c0-.906-.265-1.62-.797-2.16-.531-.542-1.23-.813-2.11-.813-.594 0-1.14.151-1.62.453-.49.3-.88.72-1.17 1.27-.281.54-.422 1.17-.422 1.88v10.62h-4.11zm35.01.344c-1.75 0-3.26-.365-4.53-1.09-1.27-.74-2.25-1.78-2.94-3.12-.677-1.34-1.01-2.93-1.01-4.75 0-1.8.338-3.38 1.01-4.73.677-1.36 1.63-2.43 2.86-3.19s2.68-1.14 4.34-1.14c1.07 0 2.09.171 3.05.515a6.99 6.99 0 0 1 2.56 1.59c.75.72 1.34 1.64 1.76 2.75.427 1.1.641 2.42.641 3.95v1.28h-14.31v-2.77h12.27l-1.92.812c0-.99-.151-1.85-.453-2.58-.302-.74-.75-1.32-1.34-1.73-.593-.417-1.33-.625-2.22-.625-.886 0-1.64.208-2.27.625a3.95 3.95 0 0 0 -1.42 1.69c-.323.7-.484 1.48-.484 2.34v1.92c0 1.06.182 1.97.547 2.73.375.75.895 1.32 1.56 1.72.677.4 1.46.594 2.36.594.58 0 1.11-.084 1.59-.25.49-.167.91-.417 1.25-.75a3.41 3.41 0 0 0 .813-1.27l3.84.453a6.15 6.15 0 0 1 -1.39 2.66c-.667.75-1.53 1.33-2.58 1.75-1.04.407-2.24.61-3.59.61zm18.37-17.81v3.19h-10.02v-3.194h10.02zm-7.56-4.16h4.11v16.376c0 .688.15 1.2.454 1.53.302.32.781.49 1.44.485.18 0 .375-.16.59-.47.22-.31.42-.68.59-.11l.703 3.22a8.46 8.46 0 0 1 -1.33.296c-.448.07-.896.11-1.34.11-1.62 0-2.9-.428-3.83-1.28-.927-.865-1.39-2.04-1.39-3.53v-16.621zm17.05 21.97c-1.75 0-3.26-.365-4.53-1.09-1.27-.74-2.25-1.78-2.94-3.12-.677-1.34-1.01-2.93-1.01-4.75 0-1.8.338-3.38 1.01-4.73.677-1.36 1.63-2.43 2.86-3.19s2.68-1.14 4.34-1.14c1.07 0 2.09.171 3.05.515a6.99 6.99 0 0 1 2.56 1.59c.75.72 1.34 1.64 1.76 2.75.427 1.1.641 2.42.641 3.95v1.28h-14.31v-2.77h12.27l-1.92.812c0-.99-.151-1.85-.453-2.58-.302-.74-.75-1.32-1.34-1.73-.593-.417-1.33-.625-2.22-.625-.886 0-1.64.208-2.27.625a3.95 3.95 0 0 0 -1.42 1.69c-.323.7-.484 1.48-.484 2.34v1.92c0 1.06.182 1.97.547 2.73.375.75.895 1.32 1.56 1.72.677.4 1.46.594 2.36.594.58 0 1.11-.084 1.59-.25.49-.167.91-.417 1.25-.75a3.41 3.41 0 0 0 .813-1.27l3.84.453a6.15 6.15 0 0 1 -1.39 2.66c-.667.75-1.53 1.33-2.58 1.75-1.04.407-2.24.61-3.59.61zm9.66-.344v-17.47h3.98v2.94h.187c.313-1.02.86-1.8 1.64-2.34.781-.552 1.67-.828 2.67-.828.22 0 .469.01.75.03.291.02.531.05.719.08v3.78c-.178-.062-.454-.114-.829-.156a9.78 9.78 0 0 0 -1.08-.062c-.76 0-1.44.161-2.03.484a3.67 3.67 0 0 0 -1.41 1.33c-.334.56-.5 1.22-.5 1.97v10.242h-4.11zm-213.53 8.72h4.76l5.69 10.31h.25l5.69-10.31h4.77l-8.48 14.59v8.69h-4.2v-8.69l-8.47-14.59zm26.84 23.62c-1.71 0-3.19-.375-4.44-1.12-1.25-.75-2.22-1.8-2.91-3.16-.677-1.35-1.01-2.93-1.01-4.72 0-1.8.338-3.38 1.01-4.74.688-1.36 1.66-2.42 2.91-3.17s2.73-1.13 4.44-1.13 3.19.376 4.44 1.13c1.25.75 2.22 1.81 2.91 3.17.687 1.35 1.03 2.93 1.03 4.74 0 1.79-.344 3.36-1.03 4.72-.688 1.35-1.66 2.41-2.91 3.16s-2.73 1.12-4.44 1.12zm0-3.31c.948 0 1.73-.25 2.34-.75.61-.51 1.07-1.2 1.38-2.06.312-.865.47-1.82.469-2.88 0-1.07-.157-2.04-.469-2.91-.302-.865-.761-1.55-1.38-2.05-.615-.511-1.4-.766-2.34-.766-.927 0-1.7.255-2.33.766-.625.5-1.09 1.18-1.41 2.05-.302.86-.453 1.83-.453 2.91 0 1.05.151 2.01.453 2.88.312.86.781 1.55 1.41 2.06.625.5 1.4.75 2.33.75zm21.45-4.36v-10.14h4.11v17.47h-3.98v-3.11h-.188a5.32 5.32 0 0 1 -1.94 2.41c-.896.62-2 .932-3.31.922-1.15 0-2.16-.25-3.03-.75-.865-.511-1.55-1.25-2.05-2.23-.49-.989-.734-2.18-.734-3.58v-11.12h4.11v10.5c0 1.09.302 1.97.906 2.62.615.66 1.42.979 2.41.969.6 0 1.19-.146 1.75-.437a3.55 3.55 0 0 0 1.41-1.31c.364-.583.55-1.32.547-2.2zm21.33 7.33h-5.91v-3.66h5.69c1.61 0 2.96-.292 4.05-.875 1.09-.594 1.91-1.49 2.45-2.67.552-1.19.828-2.67.828-4.45s-.27-3.26-.812-4.44-1.35-2.06-2.42-2.64c-1.07-.594-2.4-.891-3.98-.891h-5.92v-3.66h6.17c2.31 0 4.3.463 5.95 1.39 1.67.927 2.95 2.26 3.84 4 .895 1.74 1.34 3.82 1.34 6.24s-.448 4.5-1.34 6.25c-.896 1.74-2.19 3.08-3.88 4.01-1.68.927-3.7 1.39-6.06 1.39zm-3.69-23.28v23.28h-4.22v-23.28zm17.26 23.28v-17.47h3.98v2.94h.188c.312-1.02.859-1.8 1.64-2.34.781-.552 1.67-.828 2.67-.828.22 0 .469.01.75.03.292.02.531.05.719.08v3.78c-.177-.063-.453-.115-.828-.157a9.94 9.94 0 0 0 -1.08-.062c-.761 0-1.44.161-2.03.484a3.68 3.68 0 0 0 -1.41 1.33c-.333.56-.5 1.22-.5 1.97v10.243h-4.11zm11.18 0v-17.47h4.11v17.47zm2.06-19.92a2.39 2.39 0 0 1 -1.69-.656c-.469-.438-.703-.964-.703-1.58 0-.625.23-1.16.703-1.59a2.38 2.38 0 0 1 1.69-.656 2.37 2.37 0 0 1 1.67.656c.469.44.703.96.703 1.58 0 .625-.234 1.16-.703 1.59a2.37 2.37 0 0 1 -1.67.656zm20.37 2.45-6.22 17.47h-4.56l-6.2-17.47h4.39l4.05 12.98h.187l4.02-12.98h4.34zm8.48 17.81c-1.75 0-3.26-.365-4.53-1.09-1.27-.74-2.25-1.78-2.94-3.12-.677-1.34-1.02-2.93-1.02-4.75 0-1.8.339-3.38 1.02-4.73.677-1.36 1.63-2.43 2.86-3.19s2.68-1.14 4.34-1.14c1.07 0 2.09.172 3.05.516a6.98 6.98 0 0 1 2.56 1.59c.75.72 1.34 1.64 1.77 2.75.427 1.1.641 2.42.641 3.95v1.28h-14.31v-2.77h12.27l-1.92.812c0-.989-.151-1.85-.453-2.58-.302-.74-.75-1.32-1.34-1.73-.594-.417-1.33-.625-2.22-.625-.885 0-1.64.208-2.27.625a3.95 3.95 0 0 0 -1.42 1.69c-.323.7-.485 1.48-.485 2.34v1.92c0 1.06.183 1.97.547 2.73.375.75.896 1.32 1.56 1.72.677.4 1.46.594 2.36.594.58 0 1.11-.084 1.59-.25a3.3 3.3 0 0 0 1.25-.75c.354-.344.62-.766.81-1.27l3.84.453a6.15 6.15 0 0 1 -1.39 2.66c-.666.75-1.53 1.33-2.58 1.75-1.04.407-2.24.61-3.59.61z" fill="#000"/><path d="m357.27 150.36h1.55l1.3 1.7.329.45 1.94 2.58h-1.55l-1.27-1.7-.328-.438-1.97-2.59zm.461 3.8c-.99 0-1.87-.242-2.65-.726-.776-.485-1.39-1.17-1.84-2.06-.443-.896-.664-1.96-.664-3.18 0-1.23.221-2.29.664-3.19.448-.896 1.06-1.59 1.84-2.07.776-.485 1.66-.727 2.65-.727s1.88.242 2.65.727c.77.484 1.38 1.17 1.82 2.07.443.9.664 1.96.664 3.19 0 1.22-.221 2.28-.664 3.18-.442.89-1.05 1.58-1.82 2.06-.771.48-1.65.726-2.65.726zm0-1.31c.703 0 1.34-.177 1.91-.532.57-.359 1.03-.885 1.36-1.58.339-.692.51-1.54.508-2.55 0-1.01-.169-1.86-.508-2.56-.333-.698-.786-1.22-1.36-1.58a3.48 3.48 0 0 0 -1.91-.539c-.704 0-1.34.179-1.92.539-.572.35-1.03.88-1.37 1.58-.338.69-.507 1.54-.507 2.56 0 1.169 1.85.507 2.55.339" fill="#7e8890"/><g clip-path="url(#d)"><path d="m212 280h536v280h-536z" fill="url(#h)"/></g></g><g clip-path="url(#e)"><path d="m656 32c0-17.67 14.33-32 32-32h240c17.67 0 32 14.33 32 32v496c0 17.67-14.33 32-32 32h-240c-17.67 0-32-14.33-32-32z" fill="#fff"/><path d="m680.67 40.25v-3.53h18.56v3.53h-7.19v19.75h-4.17v-19.75zm29.18 12.42v-10.14h4.11v17.47h-3.98v-3.11h-.188c-.395.98-1.04 1.78-1.94 2.41-.896.62-2 .932-3.31.922-1.15 0-2.16-.25-3.03-.75-.864-.51-1.55-1.25-2.05-2.23-.489-.99-.734-2.18-.734-3.58v-11.132h4.11v10.5c0 1.09.302 1.97.907 2.62.614.66 1.42.98 2.41.969.6 0 1.19-.146 1.75-.438a3.54 3.54 0 0 0 1.41-1.31c.365-.583.55-1.32.547-2.2zm6.84 7.33v-17.47h3.98v2.94h.187c.313-1.02.859-1.8 1.64-2.34.781-.552 1.67-.828 2.67-.828.22 0 .468.01.75.03.291.02.531.05.718.08v3.78c-.177-.063-.453-.115-.828-.157a9.78 9.78 0 0 0 -1.08-.062c-.76 0-1.44.161-2.03.484a3.66 3.66 0 0 0 -1.41 1.33c-.334.56-.5 1.22-.5 1.97v10.243h-4.11zm15.29-10.22v10.22h-4.11v-17.47h4.03v2.98h.204a5.01 5.01 0 0 1 1.86-2.33c.854-.584 1.94-.876 3.25-.876 1.21 0 2.26.256 3.16.766s1.59 1.26 2.08 2.25c.5.98.75 2.17.75 3.56v11.12h-4.11v-10.47c0-1.17-.302-2.08-.906-2.73-.605-.667-1.44-1-2.5-1-.719 0-1.36.156-1.92.469-.552.31-.99.77-1.31 1.36-.312.58-.468 1.3-.468 2.16zm18.95-13.06h4.77l5.69 10.31h.25l5.69-10.31h4.77l-8.48 14.59v8.69h-4.22v-8.69zm26.84 23.62c-1.71 0-3.19-.375-4.44-1.12-1.25-.75-2.22-1.8-2.91-3.16-.677-1.35-1.02-2.93-1.02-4.72 0-1.8.339-3.38 1.02-4.74.687-1.36 1.66-2.42 2.91-3.17s2.73-1.12 4.44-1.12 3.19.374 4.44 1.12c1.25.75 2.22 1.81 2.91 3.17.688 1.35 1.03 2.93 1.03 4.74 0 1.79-.344 3.36-1.03 4.72-.687 1.35-1.66 2.41-2.91 3.16s-2.73 1.12-4.44 1.12zm0-3.31c.947 0 1.73-.25 2.34-.75.61-.51 1.07-1.2 1.38-2.06.313-.865.47-1.82.469-2.88 0-1.07-.156-2.04-.469-2.91-.302-.864-.76-1.55-1.38-2.05-.614-.51-1.4-.766-2.34-.766-.928 0-1.7.255-2.33.766-.625.5-1.09 1.18-1.41 2.05-.302.86-.453 1.83-.453 2.91 0 1.05.151 2.01.453 2.88.313.86.781 1.55 1.41 2.06.625.5 1.4.75 2.33.75zm21.45-4.36v-10.14h4.11v17.47h-3.98v-3.11h-.187a5.32 5.32 0 0 1 -1.94 2.41c-.896.62-2 .932-3.31.922-1.15 0-2.16-.25-3.03-.75-.864-.51-1.55-1.25-2.05-2.23-.49-.99-.735-2.18-.735-3.58v-11.132h4.11v10.5c0 1.09.302 1.97.906 2.62.614.66 1.42.98 2.41.969.6 0 1.19-.146 1.75-.438a3.53 3.53 0 0 0 1.41-1.31c.365-.583.55-1.32.547-2.2zm6.83 7.33v-17.47h3.98v2.94h.187c.313-1.02.86-1.8 1.64-2.34.781-.552 1.67-.828 2.67-.828.22 0 .469.01.75.03.291.02.531.05.719.08v3.78c-.178-.063-.454-.115-.829-.157a9.78 9.78 0 0 0 -1.08-.062c-.76 0-1.44.161-2.03.484a3.67 3.67 0 0 0 -1.41 1.33c-.334.56-.5 1.22-.5 1.97v10.243h-4.11zm17.78 0v-23.28h4.22v9.86h10.78v-9.86h4.22v23.28h-4.22v-9.88h-10.78v9.88zm29.71.344c-1.71 0-3.19-.375-4.44-1.12-1.25-.75-2.22-1.8-2.91-3.16-.677-1.35-1.02-2.93-1.02-4.72 0-1.8.339-3.38 1.02-4.74.687-1.36 1.66-2.42 2.91-3.17s2.73-1.12 4.44-1.12 3.19.374 4.44 1.12c1.25.75 2.22 1.81 2.91 3.17.688 1.35 1.03 2.93 1.03 4.74 0 1.79-.343 3.36-1.03 4.72-.687 1.35-1.66 2.41-2.91 3.16s-2.73 1.12-4.44 1.12zm0-3.31c.948 0 1.73-.25 2.34-.75.61-.51 1.07-1.2 1.38-2.06.313-.865.47-1.82.469-2.88 0-1.07-.156-2.04-.469-2.91-.302-.864-.76-1.55-1.38-2.05-.614-.51-1.4-.766-2.34-.766-.927 0-1.7.255-2.33.766-.625.5-1.09 1.18-1.41 2.05-.302.86-.453 1.83-.453 2.91 0 1.05.151 2.01.453 2.88.313.86.781 1.55 1.41 2.06.625.5 1.4.75 2.33.75zm10.32 2.966v-17.47h3.92v2.98h.219c.364-1 .969-1.78 1.81-2.34.844-.573 1.84-.86 3-.86 1.19 0 2.19.287 3 .86s1.38 1.35 1.7 2.34h.188c.396-.97 1.05-1.75 1.97-2.33.916-.584 2.01-.876 3.28-.876 1.6 0 2.91.51 3.92 1.53 1.02 1.01 1.53 2.49 1.53 4.44v11.726h-4.12v-11.09c0-1.07-.292-1.86-.875-2.36-.573-.51-1.28-.765-2.11-.765-.99 0-1.76.313-2.31.938-.552.61-.828 1.41-.828 2.38v10.897h-4.06v-11.25c0-.906-.266-1.62-.797-2.16-.532-.542-1.24-.813-2.11-.813-.593 0-1.14.151-1.62.453-.489.3-.88.72-1.17 1.27-.281.54-.421 1.17-.421 1.88v10.62h-4.11zm35.01.344c-1.75 0-3.26-.365-4.53-1.09-1.27-.74-2.25-1.78-2.94-3.12-.677-1.34-1.01-2.93-1.01-4.75 0-1.8.338-3.38 1.01-4.73.678-1.36 1.63-2.43 2.86-3.19s2.68-1.14 4.34-1.14a8.95 8.95 0 0 1 3.05.515 6.99 6.99 0 0 1 2.56 1.59c.75.72 1.34 1.64 1.77 2.75.427 1.1.64 2.42.64 3.95v1.28h-14.31v-2.77h12.27l-1.92.812c0-.99-.151-1.85-.453-2.58-.302-.74-.75-1.32-1.34-1.73-.594-.417-1.33-.625-2.22-.625-.886 0-1.64.208-2.27.625a3.95 3.95 0 0 0 -1.42 1.69c-.323.7-.484 1.48-.484 2.34v1.92c0 1.06.182 1.97.547 2.73.375.75.896 1.32 1.56 1.72.677.4 1.46.594 2.36.594a4.84 4.84 0 0 0 1.59-.25 3.28 3.28 0 0 0 1.25-.75c.355-.344.62-.766.81-1.27l3.84.453a6.16 6.16 0 0 1 -1.39 2.66c-.667.75-1.53 1.33-2.58 1.75-1.04.407-2.24.61-3.59.61zm-207.06 31.966c-2.03 0-3.86-.474-5.48-1.42-1.61-.948-2.89-2.31-3.83-4.09-.927-1.78-1.39-3.92-1.39-6.42 0-2.51.464-4.66 1.39-6.44.938-1.79 2.21-3.16 3.83-4.11 1.62-.948 3.45-1.42 5.48-1.42 2.04 0 3.87.474 5.47 1.42s2.88 2.32 3.81 4.11c.937 1.78 1.41 3.93 1.41 6.44 0 2.5-.469 4.64-1.41 6.42-.938 1.78-2.21 3.15-3.81 4.09-1.6.947-3.43 1.42-5.47 1.42zm0-3.78c1.26 0 2.38-.313 3.34-.938.97-.625 1.73-1.54 2.28-2.75.552-1.22.828-2.71.828-4.47 0-1.77-.276-3.27-.828-4.48-.553-1.22-1.31-2.14-2.28-2.77-.968-.625-2.08-.938-3.34-.938s-2.38.313-3.36.938c-.969.62-1.73 1.55-2.28 2.77-.552 1.22-.828 2.71-.828 4.48 0 1.76.276 3.25.828 4.47.552 1.21 1.31 2.12 2.28 2.75.979.62 2.1.937 3.36.937zm21.85-14v3.19h-10.3v-3.19zm-7.73 17.47v-19.11c0-1.18.245-2.16.734-2.94a4.57 4.57 0 0 1 1.97-1.75c.833-.385 1.75-.578 2.75-.578.72 0 1.35.057 1.91.172s.97.219 1.24.312l-.844 3.19a4.23 4.23 0 0 0 -.641-.172 3.83 3.83 0 0 0 -.89-.094c-.761 0-1.31.188-1.64.563-.323.38-.484.91-.484 1.59v18.817h-4.09zm18.35-17.47v3.19h-10.3v-3.19zm-7.73 17.47v-19.11c0-1.18.244-2.16.734-2.94a4.57 4.57 0 0 1 1.97-1.75c.833-.385 1.75-.578 2.75-.578a9.45 9.45 0 0 1 1.91.172c.562.12.974.22 1.23.312l-.843 3.19a4.27 4.27 0 0 0 -.641-.172 3.83 3.83 0 0 0 -.891-.094c-.76 0-1.31.188-1.64.563-.323.38-.485.91-.485 1.59v18.817h-4.09zm9.48 0v-17.47h4.11v17.47zm2.06-19.92a2.39 2.39 0 0 1 -1.69-.656c-.468-.438-.703-.964-.703-1.58 0-.625.24-1.16.703-1.59a2.39 2.39 0 0 1 1.69-.656 2.37 2.37 0 0 1 1.67.656c.469.44.703.96.703 1.58 0 .625-.234 1.16-.703 1.59a2.37 2.37 0 0 1 -1.67.656zm12.38 20.27c-1.74 0-3.23-.38-4.48-1.14-1.25-.772-2.21-1.83-2.88-3.19-.667-1.35-1-2.91-1-4.67 0-1.78.338-3.35 1.01-4.7.677-1.35 1.64-2.41 2.89-3.17 1.25-.771 2.72-1.16 4.42-1.16 1.43 0 2.69.26 3.78.78 1.09.522 1.96 1.26 2.61 2.2.657.94 1.03 2.04 1.12 3.3h-3.94a3.97 3.97 0 0 0 -.609-1.52 3.25 3.25 0 0 0 -1.19-1.06c-.479-.26-1.05-.391-1.72-.391-.843 0-1.58.23-2.22.688-.625.45-1.11 1.09-1.47 1.94-.354.84-.531 1.85-.531 3.03 0 1.19.171 2.21.515 3.08.344.86.833 1.52 1.47 1.99.635.46 1.38.687 2.23.687.91 0 1.67-.265 2.3-.797.64-.53 1.04-1.26 1.22-2.2h3.94c-.093 1.24-.458 2.33-1.09 3.28-.636.95-1.5 1.69-2.58 2.23-1.08.531-2.35.797-3.81.797zm17.12 0c-1.75 0-3.26-.365-4.53-1.09-1.27-.74-2.25-1.78-2.94-3.12-.677-1.34-1.02-2.93-1.02-4.75 0-1.8.339-3.38 1.02-4.73.677-1.36 1.63-2.43 2.86-3.19s2.68-1.14 4.34-1.14a8.96 8.96 0 0 1 3.05.515 6.98 6.98 0 0 1 2.56 1.59c.75.72 1.34 1.64 1.77 2.75.427 1.1.641 2.42.641 3.95v1.28h-14.31v-2.77h12.27l-1.92.812c0-.99-.151-1.85-.453-2.58-.302-.74-.75-1.32-1.34-1.73-.594-.417-1.33-.625-2.22-.625-.885 0-1.64.208-2.27.625a3.95 3.95 0 0 0 -1.42 1.69c-.323.7-.485 1.48-.485 2.34v1.92c0 1.06.183 1.97.547 2.73.375.75.896 1.32 1.56 1.72.677.4 1.46.594 2.36.594.58 0 1.11-.084 1.59-.25a3.29 3.29 0 0 0 1.25-.75c.354-.344.62-.766.81-1.27l3.84.453a6.16 6.16 0 0 1 -1.39 2.66c-.666.75-1.53 1.33-2.58 1.75-1.04.407-2.24.61-3.59.61zm20.48-23.62v23.27h-4.22v-23.28h4.22zm6.99 13.06v10.21h-4.11v-17.47h4.03v2.98h.203c.396-.98 1.02-1.76 1.86-2.33.855-.583 1.94-.874 3.25-.874 1.21 0 2.26.255 3.16.765.89.51 1.59 1.26 2.08 2.25.5.98.75 2.17.75 3.56v11.119h-4.11v-10.47c0-1.17-.302-2.08-.906-2.73-.604-.667-1.44-1-2.5-1-.719 0-1.36.156-1.92.469a3.37 3.37 0 0 0 -1.31 1.36c-.313.58-.469 1.3-.469 2.16zm22.65-7.25v3.19h-10.02v-3.2h10.02zm-7.56-4.16h4.11v16.37c0 .688.15 1.2.453 1.53.302.32.781.49 1.44.485.18 0 .375-.16.59-.47.22-.31.42-.68.59-.11l.703 3.22c-.438.13-.88.23-1.33.296-.448.07-.896.11-1.34.11-1.62 0-2.9-.428-3.83-1.28-.927-.865-1.39-2.04-1.39-3.53v-16.621zm16.93 21.97c-1.71 0-3.19-.375-4.44-1.12-1.25-.75-2.22-1.8-2.91-3.16-.678-1.35-1.02-2.93-1.02-4.72 0-1.8.338-3.38 1.02-4.73.687-1.36 1.66-2.42 2.91-3.17s2.73-1.13 4.44-1.13 3.19.376 4.44 1.13c1.25.75 2.22 1.81 2.91 3.17.688 1.35 1.03 2.93 1.03 4.74 0 1.79-.343 3.36-1.03 4.72-.687 1.35-1.66 2.41-2.91 3.16s-2.73 1.12-4.44 1.12zm0-3.31c.948 0 1.73-.25 2.34-.75.61-.51 1.07-1.2 1.38-2.06.313-.865.47-1.82.469-2.88 0-1.07-.156-2.04-.469-2.91-.302-.865-.76-1.55-1.38-2.05-.615-.51-1.4-.766-2.34-.766-.927 0-1.7.255-2.33.766-.625.5-1.09 1.18-1.41 2.05-.302.87-.453 1.83-.453 2.91 0 1.05.151 2.01.453 2.88.312.86.781 1.55 1.41 2.06.625.5 1.4.75 2.33.75zm16.92 2.96v-23.28h8.73c1.79 0 3.29.312 4.5.937 1.22.625 2.14 1.5 2.77 2.62.625 1.11.937 2.41.937 3.89 0 1.49-.317 2.78-.953 3.88-.625 1.09-1.55 1.94-2.78 2.53-1.23.594-2.74.89-4.53.89h-6.2v-3.48h5.62c1.05 0 1.91-.145 2.58-.437.68-.292 1.17-.719 1.48-1.28.323-.573.48-1.27.484-2.09s-.161-1.53-.484-2.11c-.323-.593-.818-1.04-1.48-1.34-.667-.313-1.53-.469-2.59-.469h-3.86v19.739h-4.22zm13.08 0-5.64-10.56h4.59l5.77 10.56zm13.54.344c-1.75 0-3.26-.365-4.53-1.09-1.27-.74-2.25-1.78-2.94-3.12-.677-1.34-1.01-2.93-1.01-4.75 0-1.8.338-3.38 1.01-4.73.678-1.36 1.63-2.43 2.86-3.19s2.68-1.14 4.34-1.14a8.95 8.95 0 0 1 3.05.515 6.99 6.99 0 0 1 2.56 1.59c.75.72 1.34 1.64 1.77 2.75.427 1.1.64 2.42.64 3.95v1.28h-14.31v-2.77h12.27l-1.92.812c0-.99-.151-1.85-.453-2.58-.302-.74-.75-1.32-1.34-1.73-.594-.417-1.33-.625-2.22-.625-.886 0-1.64.208-2.27.625a3.95 3.95 0 0 0 -1.42 1.69c-.323.7-.484 1.48-.484 2.34v1.92c0 1.06.182 1.97.547 2.73.375.75.896 1.32 1.56 1.72.677.4 1.46.594 2.36.594a4.84 4.84 0 0 0 1.59-.25 3.28 3.28 0 0 0 1.25-.75c.355-.344.62-.766.81-1.27l3.84.453a6.16 6.16 0 0 1 -1.39 2.66c-.667.75-1.53 1.33-2.58 1.75-1.04.407-2.24.61-3.59.61zm14.7.015c-1.11 0-2.12-.197-3-.593a4.86 4.86 0 0 1 -2.09-1.78c-.51-.78-.765-1.74-.765-2.89 0-.98.18-1.79.546-2.44a4.24 4.24 0 0 1 1.49-1.55 7.7 7.7 0 0 1 2.14-.875 15.68 15.68 0 0 1 2.45-.437 134.4 134.4 0 0 0 2.5-.297c.635-.083 1.09-.219 1.38-.406.29-.188.44-.48.44-.875v-.078c0-.844-.25-1.5-.75-1.97-.5-.468-1.23-.702-2.19-.702-1.01 0-1.81.219-2.41.656-.583.44-.979.95-1.19 1.55l-3.83-.547c.302-1.06.802-1.95 1.5-2.66a6.53 6.53 0 0 1 2.55-1.61c1.01-.364 2.12-.546 3.34-.546.83 0 1.67.099 2.5.296.83.188 1.6.51 2.3.97a5.02 5.02 0 0 1 1.67 1.84c.417.77.625 1.73.625 2.89v11.695h-3.95v-2.41h-.125c-.25.48-.604.93-1.06 1.36-.448.42-1.01.754-1.69 1.01-.667.26-1.46.39-2.38.39zm1.05-3.03c.833 0 1.55-.162 2.16-.485a3.72 3.72 0 0 0 1.41-1.31c.334-.552.5-1.15.5-1.8v-2.05c-.135.1-.354.2-.656.3-.302.08-.646.16-1.03.235a35.09 35.09 0 0 1 -2.09.312 6.87 6.87 0 0 0 -1.66.422c-.479.19-.86.45-1.14.781-.281.33-.422.77-.422 1.3 0 .76.28 1.33.828 1.72.552.38 1.26.578 2.11.578zm14.99-20.61v23.281h-4.11v-23.28h4.11zm-201.77 55.281h-5.91v-3.66h5.69c1.61 0 2.96-.292 4.05-.875 1.09-.594 1.91-1.49 2.45-2.67.552-1.19.828-2.67.828-4.45s-.271-3.26-.812-4.44c-.542-1.18-1.35-2.06-2.42-2.64-1.07-.594-2.4-.891-3.98-.891h-5.92v-3.66h6.17c2.31 0 4.3.463 5.95 1.39 1.67.927 2.95 2.26 3.84 4 .896 1.74 1.34 3.82 1.34 6.24s-.448 4.5-1.34 6.25c-.896 1.74-2.19 3.08-3.88 4.01-1.68.927-3.7 1.39-6.06 1.39zm-3.69-23.28v23.28h-4.22v-23.28zm24.99 23.62c-1.75 0-3.26-.365-4.53-1.09-1.27-.74-2.25-1.78-2.94-3.12-.677-1.34-1.02-2.93-1.02-4.75 0-1.8.339-3.38 1.02-4.73.677-1.36 1.63-2.43 2.86-3.19s2.68-1.14 4.34-1.14c1.07 0 2.09.172 3.05.516a6.99 6.99 0 0 1 2.56 1.59c.75.72 1.34 1.64 1.76 2.75.427 1.1.641 2.42.641 3.95v1.28h-14.31v-2.77h12.27l-1.92.812c0-.989-.151-1.85-.453-2.58-.302-.74-.75-1.32-1.34-1.73-.594-.417-1.33-.625-2.22-.625-.885 0-1.64.208-2.27.625a3.95 3.95 0 0 0 -1.42 1.69c-.323.7-.484 1.48-.484 2.34v1.92c0 1.06.182 1.97.546 2.73.375.75.896 1.32 1.56 1.72.677.4 1.46.594 2.36.594.58 0 1.11-.084 1.59-.25.49-.167.91-.417 1.25-.75a3.41 3.41 0 0 0 .813-1.27l3.84.453a6.15 6.15 0 0 1 -1.39 2.66c-.667.75-1.53 1.33-2.58 1.75-1.04.407-2.24.61-3.59.61zm16.1-.032c-1.36 0-2.59-.348-3.69-1.05-1.08-.709-1.94-1.74-2.56-3.08-.625-1.34-.938-2.97-.938-4.89 0-1.95.318-3.59.953-4.92.646-1.33 1.51-2.34 2.59-3.03 1.08-.688 2.3-1.03 3.64-1.03 1.03 0 1.88.172 2.53.516.66.344 1.18.761 1.56 1.25.396.48.698.93.907 1.34h.172v-8.7h4.09v23.286h-4.01v-2.77h-.25a7.66 7.66 0 0 1 -.922 1.36c-.396.47-.922.88-1.58 1.22-.657.33-1.49.5-2.5.5zm1.14-3.37c.875 0 1.61-.235 2.22-.704.62-.479 1.08-1.14 1.41-1.98.323-.854.49-1.84.485-2.97 0-1.14-.162-2.12-.485-2.95-.312-.844-.776-1.5-1.39-1.95-.605-.458-1.35-.687-2.23-.687-.906 0-1.67.239-2.28.718-.615.48-1.08 1.14-1.39 1.99-.302.84-.453 1.81-.453 2.89s.157 2.05.469 2.91c.313.85.771 1.53 1.38 2.02.615.49 1.38.735 2.28.735zm21.98-4.27v-10.14h4.11v17.472h-3.98v-3.11h-.187a5.32 5.32 0 0 1 -1.94 2.41c-.896.62-2 .932-3.31.922-1.15 0-2.16-.25-3.03-.75-.864-.511-1.55-1.25-2.05-2.23-.49-.989-.735-2.18-.735-3.58v-11.12h4.11v10.5c0 1.09.302 1.97.906 2.62.614.66 1.42.979 2.41.969.6 0 1.19-.146 1.75-.437a3.54 3.54 0 0 0 1.41-1.31c.365-.583.55-1.32.547-2.2zm14.45 7.67c-1.74 0-3.23-.38-4.49-1.14-1.25-.771-2.21-1.83-2.88-3.19-.666-1.35-1-2.91-1-4.67 0-1.78.339-3.35 1.02-4.7.677-1.35 1.64-2.41 2.89-3.17 1.25-.771 2.72-1.16 4.42-1.16 1.43 0 2.69.261 3.78.782s1.96 1.25 2.61 2.2c.656.94 1.03 2.04 1.12 3.3h-3.94a3.98 3.98 0 0 0 -.61-1.52 3.24 3.24 0 0 0 -1.19-1.06c-.479-.261-1.05-.391-1.72-.391-.844 0-1.58.229-2.22.687-.625.45-1.11 1.09-1.47 1.94-.355.84-.532 1.85-.532 3.03 0 1.19.172 2.21.516 3.08.344.86.833 1.52 1.47 1.99.635.46 1.38.687 2.23.687.91 0 1.67-.265 2.3-.797.63-.531 1.04-1.26 1.22-2.2h3.94c-.094 1.24-.458 2.33-1.09 3.28-.635.95-1.49 1.69-2.58 2.23-1.08.531-2.35.797-3.81.797zm18.09-17.81v3.19h-10.02v-3.19zm-7.56-4.16h4.11v16.38c0 .688.15 1.2.453 1.53.302.32.781.49 1.44.485.18 0 .375-.16.59-.47.22-.31.42-.68.59-.11l.703 3.22c-.437.14-.88.23-1.33.297a8.34 8.34 0 0 1 -1.34.109c-1.62 0-2.9-.427-3.83-1.28-.927-.864-1.39-2.04-1.39-3.53v-17.05zm9.51 21.632v-17.47h4.11v17.47zm2.06-19.92a2.39 2.39 0 0 1 -1.69-.656c-.469-.438-.703-.964-.703-1.58 0-.625.23-1.16.703-1.59a2.38 2.38 0 0 1 1.69-.656 2.37 2.37 0 0 1 1.67.656c.469.44.703.96.703 1.58 0 .625-.234 1.16-.703 1.59a2.37 2.37 0 0 1 -1.67.656zm12.38 20.27c-1.71 0-3.19-.375-4.44-1.12-1.25-.75-2.22-1.8-2.91-3.16-.678-1.35-1.02-2.93-1.02-4.72 0-1.8.338-3.38 1.02-4.74.687-1.36 1.66-2.42 2.91-3.17s2.73-1.13 4.44-1.13 3.19.376 4.44 1.13c1.25.75 2.22 1.81 2.91 3.17.688 1.35 1.03 2.93 1.03 4.74 0 1.79-.343 3.36-1.03 4.72-.687 1.35-1.66 2.41-2.91 3.16s-2.73 1.12-4.44 1.12zm0-3.31c.948 0 1.73-.25 2.34-.75.61-.51 1.07-1.2 1.38-2.06.313-.865.47-1.82.469-2.88 0-1.07-.156-2.04-.469-2.91-.302-.865-.76-1.55-1.38-2.05-.615-.511-1.4-.766-2.34-.766-.927 0-1.7.255-2.33.766-.625.5-1.09 1.18-1.41 2.05-.302.86-.453 1.83-.453 2.91 0 1.05.151 2.01.453 2.88.312.86.781 1.55 1.41 2.06.625.5 1.4.75 2.33.75zm14.43-7.25v10.21h-4.11v-17.47h4.03v2.98h.203c.396-.98 1.02-1.76 1.86-2.33.854-.584 1.94-.876 3.25-.876 1.21 0 2.26.256 3.16.766.9.511 1.59 1.26 2.08 2.25.5.98.75 2.17.75 3.56v11.12h-4.11v-10.47c0-1.17-.302-2.08-.907-2.73-.604-.667-1.44-1-2.5-1-.718 0-1.36.156-1.92.469a3.36 3.36 0 0 0 -1.31 1.36c-.312.58-.469 1.3-.469 2.16zm27.73-2.61-3.73.39c-.157-.572-.495-1.08-1.02-1.51-.521-.448-1.25-.672-2.2-.672-.854 0-1.57.187-2.16.563-.573.37-.86.85-.86 1.44 0 .51.19.932.56 1.27.385.32 1.02.583 1.91.781l2.98.625c1.64.344 2.86.906 3.67 1.69.813.78 1.22 1.79 1.22 3.03 0 1.09-.318 2.06-.953 2.91-.635.84-1.52 1.5-2.64 1.97-1.11.468-2.4.703-3.86.703-2.13 0-3.85-.448-5.16-1.34-1.29-.906-2.07-2.16-2.33-3.77l4.01-.375c.177.78.563 1.38 1.16 1.78.605.39 1.38.593 2.31.593.98 0 1.77-.198 2.36-.593.59-.407.89-.901.89-1.49 0-.979-.781-1.65-2.34-2l-2.98-.625c-1.68-.364-2.92-.953-3.72-1.76-.802-.823-1.2-1.87-1.2-3.14 0-1.08.297-2.02.891-2.81.593-.791 1.42-1.41 2.48-1.84 1.06-.438 2.29-.657 3.69-.657 2.05 0 3.66.443 4.83 1.33 1.18.875 1.91 2.05 2.19 3.53z" fill="#000"/><path d="m681.03 154v-11.64h3.94c.911 0 1.66.157 2.23.469.58.307 1.02.732 1.3 1.27.281.54.422 1.15.422 1.84 0 .682-.141 1.29-.422 1.82-.276.53-.706.95-1.29 1.25-.578.3-1.32.445-2.23.445h-3.17v-1.26h3.13c.624 0 1.13-.092 1.51-.274s.66-.44.83-.773c.17-.339.26-.74.26-1.2 0-.469-.088-.878-.265-1.23a1.79 1.79 0 0 0 -.828-.813c-.381-.192-.886-.289-1.52-.289h-2.48v10.385h-1.41zm6.7 0-2.81-5.23h1.59l2.86 5.23zm6.17.188c-.838 0-1.56-.188-2.18-.563a3.71 3.71 0 0 1 -1.41-1.57c-.328-.677-.492-1.46-.492-2.35 0-.896.16-1.69.484-2.37.323-.682.78-1.22 1.36-1.6.588-.385 1.28-.578 2.06-.578.45 0 .904.08 1.35.227.45.151.85.396 1.22.734.37.339.66.787.88 1.34.218.56.328 1.24.328 2.06v.578h-6.74v-1.16h6.01l-.617.44c0-.583-.091-1.1-.274-1.55a2.35 2.35 0 0 0 -.82-1.07c-.359-.26-.807-.391-1.34-.391-.536 0-.997.13-1.38.399-.381.26-.672.6-.875 1.02a3.08 3.08 0 0 0 -.305 1.36v.765c0 .662.11 1.22.344 1.68.229.46.549.81.961 1.05.411.23.888.35 1.43.351a2.9 2.9 0 0 0 .953-.148c.287-.104.53-.258.74-.461.21-.208.37-.464.48-.766l1.3.375a2.86 2.86 0 0 1 -.687 1.16 3.33 3.33 0 0 1 -1.19.773 4.42 4.42 0 0 1 -1.59.274zm8.41 0c-.812 0-1.51-.193-2.11-.579a3.88 3.88 0 0 1 -1.37-1.6c-.318-.677-.477-1.45-.477-2.32 0-.891.16-1.68.493-2.35.328-.682.79-1.22 1.38-1.6.593-.385 1.28-.578 2.07-.578.61 0 1.17.115 1.66.344.5.224.9.542 1.21.953.32.412.51.891.59 1.44h-1.34a2.08 2.08 0 0 0 -.367-.75 1.89 1.89 0 0 0 -.703-.563c-.287-.146-.628-.219-1.02-.219-.52 0-.976.14-1.37.407-.39.27-.695.65-.914 1.15-.219.49-.328 1.06-.328 1.73 0 .671.11 1.26.32 1.76.214.5.516.89.907 1.16.396.28.856.41 1.38.414.53 0 .977-.135 1.35-.406a1.94 1.94 0 0 0 .742-1.12h1.34c-.73.52-.26.98-.562 1.39a3.19 3.19 0 0 1 -1.18.984c-.485.24-1.05.36-1.7.36zm8.36 0c-.839 0-1.56-.188-2.18-.563a3.71 3.71 0 0 1 -1.41-1.57c-.328-.677-.492-1.46-.492-2.35 0-.896.16-1.69.484-2.37.323-.682.78-1.22 1.36-1.6.588-.385 1.28-.578 2.06-.578.45 0 .904.08 1.35.227.45.151.85.396 1.22.734.37.339.66.787.88 1.34.219.56.328 1.24.328 2.06v.578h-6.73v-1.16h6.01l-.617.44c0-.583-.092-1.1-.274-1.55a2.36 2.36 0 0 0 -.82-1.07c-.36-.26-.808-.391-1.34-.391s-.997.13-1.38.399c-.38.26-.672.6-.875 1.02a3.1 3.1 0 0 0 -.304 1.36v.765c0 .662.11 1.22.343 1.68.229.46.55.81.961 1.05.412.23.888.35 1.43.351a2.9 2.9 0 0 0 .953-.148c.286-.104.53-.258.74-.461.21-.208.37-.464.48-.766l1.3.375a2.86 2.86 0 0 1 -.688 1.16 3.33 3.33 0 0 1 -1.19.773 4.42 4.42 0 0 1 -1.59.274zm4.88-.188v-8.73h1.33v8.73zm.672-10.19a.943.94 0 0 1 -.672-.265.85.848 0 0 1 -.281-.641c0-.25.09-.463.28-.64a.944.94 0 0 1 .672-.266c.26 0 .484.09.672.27a.85.85 0 0 1 .281.64c0 .25-.94.46-.281.64a.946.95 0 0 1 -.672.26zm2.38 13.45v-12h1.28v1.39h.156c.099-.151.24-.344.41-.578.18-.239.43-.453.77-.64.33-.188.78-.282 1.35-.282.74 0 1.38.185 1.94.555.56.365.99.885 1.3 1.56.317.67.476 1.47.476 2.38 0 .922-.156 1.72-.469 2.41-.312.68-.747 1.2-1.3 1.57-.557.37-1.2.555-1.93.555-.557 0-1-.094-1.34-.282-.338-.192-.599-.409-.781-.648a10.52 10.52 0 0 1 -.422-.602h-.109v4.61h-1.33zm3.81-4.28c.558 0 1.02-.148 1.4-.445.38-.302.66-.706.84-1.21.193-.505.29-1.07.29-1.69a4.65 4.65 0 0 0 -.282-1.66c-.187-.495-.468-.888-.844-1.18-.369-.292-.838-.438-1.41-.438-.547 0-1.138-1.38.414-.37.27-.651.65-.843 1.15-.188.49-.282 1.06-.282 1.72 0 .656.1 1.24.289 1.74.193.5.474.89.844 1.18.375" fill="#7e8890"/><g clip-path="url(#f)"><path d="m540 280h536v280h-536z" fill="url(#i)"/></g></g></svg>