<svg xmlns="http://www.w3.org/2000/svg" width="960" height="336" fill="none" viewBox="0 0 960 336">
  <path fill="#000" d="M42.951 15.5V8.437h37.125V15.5H65.701V55h-8.343V15.5H42.95ZM80.186 55V20.062h7.969v5.875h.375c.625-2.041 1.719-3.604 3.281-4.687 1.563-1.104 3.344-1.656 5.344-1.656.438 0 .938.02 1.5.062a15.88 15.88 0 0 1 1.438.157v7.562c-.355-.125-.907-.23-1.657-.313a19.554 19.554 0 0 0-2.156-.125c-1.52 0-2.875.323-4.063.97a7.342 7.342 0 0 0-2.812 2.655c-.667 1.125-1 2.438-1 3.938V55h-8.219Zm31.798.719c-2.229 0-4.229-.396-6-1.188-1.771-.812-3.167-2-4.188-3.562-1.021-1.563-1.531-3.49-1.531-5.782 0-1.958.365-3.583 1.094-4.874a8.458 8.458 0 0 1 2.969-3.094c1.27-.771 2.697-1.354 4.281-1.75a31.347 31.347 0 0 1 4.906-.875c2.063-.23 3.729-.427 5-.594 1.271-.167 2.188-.438 2.75-.813.583-.374.875-.958.875-1.75v-.156c0-1.687-.5-3-1.5-3.937-1-.938-2.458-1.407-4.375-1.407-2.021 0-3.625.438-4.812 1.313-1.167.875-1.959 1.906-2.375 3.094l-7.657-1.094c.604-2.125 1.604-3.896 3-5.313 1.396-1.437 3.094-2.51 5.094-3.218 2.021-.73 4.25-1.094 6.688-1.094 1.666 0 3.333.198 5 .594a13.827 13.827 0 0 1 4.593 1.937c1.396.917 2.511 2.146 3.344 3.688.833 1.541 1.25 3.468 1.25 5.781V55h-7.906v-4.813h-.25c-.5.959-1.209 1.865-2.125 2.72-.896.833-2.021 1.51-3.375 2.03-1.334.521-2.917.782-4.75.782Zm2.094-6.063c1.666 0 3.104-.323 4.312-.968 1.208-.667 2.146-1.542 2.813-2.626a6.834 6.834 0 0 0 1-3.593v-4.094c-.271.208-.709.406-1.313.594-.604.166-1.292.323-2.062.468a47.36 47.36 0 0 1-2.282.376c-.729.104-1.364.187-1.906.25-1.229.166-2.333.447-3.312.843-.959.375-1.719.896-2.282 1.563-.562.666-.843 1.531-.843 2.593 0 1.521.552 2.667 1.656 3.438 1.104.77 2.51 1.156 4.219 1.156Zm36.985 6.032c-3.48 0-6.469-.76-8.969-2.282-2.5-1.541-4.417-3.666-5.75-6.375-1.334-2.708-2-5.823-2-9.343 0-3.563.677-6.698 2.031-9.407 1.354-2.708 3.281-4.823 5.781-6.343 2.5-1.542 5.448-2.313 8.844-2.313 2.854 0 5.375.52 7.563 1.563 2.187 1.041 3.927 2.51 5.218 4.406 1.313 1.875 2.063 4.073 2.25 6.593h-7.875a7.939 7.939 0 0 0-1.218-3.03 6.501 6.501 0 0 0-2.375-2.126c-.959-.52-2.105-.781-3.438-.781-1.687 0-3.167.458-4.437 1.375-1.25.896-2.23 2.188-2.938 3.875-.708 1.688-1.062 3.708-1.062 6.063 0 2.374.343 4.427 1.031 6.156.687 1.708 1.666 3.031 2.937 3.968 1.271.917 2.761 1.376 4.469 1.376 1.813 0 3.344-.532 4.594-1.594 1.271-1.063 2.083-2.532 2.437-4.407h7.875c-.187 2.48-.916 4.667-2.187 6.563s-2.99 3.385-5.156 4.469c-2.167 1.062-4.709 1.593-7.625 1.593Zm26.266-11.626-.031-9.968h1.343l12.532-14.032h9.625l-15.438 17.22h-1.719l-6.312 6.78ZM169.829 55V8.437h8.219V55h-8.219Zm21.906 0L180.36 39.125l5.563-5.813L201.579 55h-9.844Zm39.783.688c-3.5 0-6.521-.73-9.063-2.188-2.542-1.48-4.5-3.563-5.875-6.25-1.354-2.688-2.031-5.854-2.031-9.5 0-3.604.677-6.76 2.031-9.469 1.354-2.729 3.26-4.854 5.719-6.375 2.458-1.52 5.354-2.281 8.687-2.281 2.146 0 4.177.344 6.094 1.031a13.974 13.974 0 0 1 5.125 3.188c1.5 1.437 2.677 3.27 3.531 5.5.854 2.208 1.282 4.843 1.282 7.906v2.563h-28.625V34.28h24.531l-3.844 1.625c0-1.979-.302-3.698-.906-5.156-.604-1.48-1.5-2.635-2.688-3.469-1.187-.833-2.666-1.25-4.437-1.25-1.771 0-3.281.417-4.531 1.25-1.25.834-2.198 1.959-2.844 3.375-.646 1.396-.969 2.959-.969 4.688v3.843c0 2.126.365 3.948 1.094 5.47.75 1.5 1.791 2.645 3.125 3.437 1.354.791 2.927 1.187 4.719 1.187 1.166 0 2.229-.166 3.187-.5.979-.333 1.813-.833 2.5-1.5.708-.687 1.25-1.531 1.625-2.531l7.688.906c-.5 2.021-1.428 3.792-2.782 5.313-1.333 1.5-3.052 2.666-5.156 3.5-2.083.812-4.479 1.218-7.187 1.218Zm24.735-35.626L263.284 33l7.156-12.938h8.719l-10.5 17.5L279.346 55h-8.656l-7.406-12.563L256.003 55h-8.719l10.594-17.438-10.344-17.5h8.719Zm26.266 48v-48h8.062v5.782h.5c.417-.834 1.011-1.73 1.782-2.688.77-.979 1.812-1.812 3.125-2.5 1.333-.687 3.031-1.031 5.093-1.031 2.688 0 5.115.688 7.282 2.063 2.166 1.375 3.885 3.395 5.156 6.062 1.291 2.667 1.937 5.948 1.937 9.844 0 3.833-.625 7.093-1.875 9.781-1.25 2.688-2.968 4.74-5.156 6.156-2.167 1.396-4.625 2.094-7.375 2.094-1.979 0-3.635-.333-4.969-1-1.312-.688-2.375-1.5-3.187-2.438-.792-.958-1.396-1.864-1.813-2.718h-.343v18.593h-8.219ZM298.8 48.876c1.813 0 3.323-.49 4.531-1.469 1.229-.979 2.157-2.323 2.782-4.031.625-1.708.937-3.646.937-5.813 0-2.166-.312-4.093-.937-5.78-.625-1.688-1.542-3.011-2.75-3.97-1.209-.958-2.73-1.437-4.563-1.437-1.771 0-3.271.458-4.5 1.375-1.208.917-2.135 2.219-2.781 3.906-.625 1.667-.938 3.636-.938 5.907 0 2.25.313 4.229.938 5.937.646 1.688 1.583 3.01 2.812 3.969 1.229.937 2.719 1.406 4.469 1.406Zm36.048 6.813c-3.5 0-6.521-.73-9.063-2.188-2.542-1.48-4.5-3.563-5.875-6.25-1.354-2.688-2.031-5.854-2.031-9.5 0-3.604.677-6.76 2.031-9.469 1.354-2.729 3.26-4.854 5.719-6.375 2.458-1.52 5.354-2.281 8.687-2.281 2.146 0 4.177.344 6.094 1.031a13.974 13.974 0 0 1 5.125 3.188c1.5 1.437 2.677 3.27 3.531 5.5.854 2.208 1.282 4.843 1.282 7.906v2.563h-28.625V34.28h24.531l-3.844 1.625c0-1.979-.302-3.698-.906-5.156-.604-1.48-1.5-2.635-2.688-3.469-1.187-.833-2.666-1.25-4.437-1.25-1.771 0-3.281.417-4.531 1.25-1.25.834-2.198 1.959-2.844 3.375-.646 1.396-.969 2.959-.969 4.688v3.843c0 2.126.365 3.948 1.094 5.47.75 1.5 1.791 2.645 3.125 3.437 1.354.791 2.927 1.187 4.719 1.187 1.166 0 2.229-.166 3.187-.5.979-.333 1.813-.833 2.5-1.5.708-.687 1.25-1.531 1.625-2.531l7.688.906c-.5 2.021-1.428 3.792-2.782 5.313-1.333 1.5-3.052 2.666-5.156 3.5-2.083.812-4.479 1.218-7.187 1.218Zm27.547-21.126V55h-8.219V20.062h8.063v5.97h.406c.792-1.96 2.031-3.511 3.719-4.657 1.708-1.167 3.875-1.75 6.5-1.75 2.416 0 4.521.51 6.312 1.531 1.792 1.021 3.177 2.521 4.157 4.5 1 1.959 1.5 4.334 1.5 7.125V55h-8.219V34.062c0-2.333-.604-4.156-1.813-5.468-1.208-1.334-2.875-2-5-2-1.437 0-2.718.312-3.843.937-1.105.625-1.98 1.532-2.625 2.719-.625 1.167-.938 2.604-.938 4.313Zm55.454-5.218-7.469.781c-.312-1.146-.99-2.156-2.031-3.031-1.042-.896-2.511-1.344-4.406-1.344-1.709 0-3.146.375-4.313 1.125-1.146.75-1.719 1.708-1.719 2.875 0 1.02.375 1.865 1.125 2.531.771.646 2.042 1.167 3.813 1.563l5.969 1.25c3.27.687 5.718 1.812 7.343 3.375 1.625 1.562 2.438 3.583 2.438 6.062 0 2.188-.636 4.125-1.906 5.813-1.271 1.687-3.032 3-5.282 3.937-2.229.938-4.802 1.407-7.718 1.407-4.271 0-7.709-.896-10.313-2.688-2.583-1.813-4.135-4.323-4.656-7.531l8.031-.75c.354 1.562 1.125 2.75 2.313 3.562 1.208.792 2.75 1.188 4.625 1.188 1.958 0 3.531-.396 4.718-1.188 1.188-.812 1.782-1.802 1.782-2.968 0-1.959-1.563-3.292-4.688-4l-5.969-1.25c-3.354-.73-5.833-1.907-7.437-3.532-1.604-1.646-2.406-3.74-2.406-6.281 0-2.167.593-4.042 1.781-5.625 1.187-1.583 2.844-2.813 4.969-3.688 2.125-.875 4.583-1.312 7.375-1.312 4.104 0 7.322.885 9.656 2.656 2.354 1.75 3.812 4.104 4.375 7.063Zm20.016 26.343c-3.5 0-6.521-.729-9.062-2.187-2.542-1.48-4.5-3.563-5.875-6.25-1.355-2.688-2.032-5.854-2.032-9.5 0-3.604.677-6.76 2.032-9.469 1.354-2.729 3.26-4.854 5.718-6.375 2.459-1.52 5.354-2.281 8.688-2.281 2.146 0 4.177.344 6.094 1.031a13.99 13.99 0 0 1 5.125 3.188c1.5 1.437 2.677 3.27 3.531 5.5.854 2.208 1.281 4.843 1.281 7.906v2.563H424.74V34.28h24.531l-3.843 1.625c0-1.979-.303-3.698-.907-5.156-.604-1.48-1.5-2.635-2.687-3.469-1.188-.833-2.667-1.25-4.438-1.25s-3.281.417-4.531 1.25c-1.25.834-2.198 1.959-2.844 3.375-.646 1.396-.968 2.959-.968 4.688v3.843c0 2.126.364 3.948 1.093 5.47.75 1.5 1.792 2.645 3.125 3.437 1.354.791 2.927 1.187 4.719 1.187 1.167 0 2.229-.166 3.188-.5.979-.333 1.812-.833 2.5-1.5.708-.687 1.25-1.531 1.625-2.531l7.687.906c-.5 2.021-1.427 3.792-2.781 5.313-1.334 1.5-3.052 2.666-5.156 3.5-2.084.812-4.48 1.218-7.188 1.218Zm46.891-26.343-7.468.781c-.313-1.146-.99-2.156-2.032-3.031-1.041-.896-2.51-1.344-4.406-1.344-1.708 0-3.146.375-4.312 1.125-1.146.75-1.719 1.708-1.719 2.875 0 1.02.375 1.865 1.125 2.531.771.646 2.041 1.167 3.812 1.563l5.969 1.25c3.271.687 5.719 1.812 7.344 3.375 1.625 1.562 2.437 3.583 2.437 6.062 0 2.188-.635 4.125-1.906 5.813-1.271 1.687-3.031 3-5.281 3.937-2.229.938-4.802 1.407-7.719 1.407-4.271 0-7.708-.896-10.312-2.688-2.584-1.813-4.136-4.323-4.657-7.531l8.032-.75c.354 1.562 1.125 2.75 2.312 3.562 1.208.792 2.75 1.188 4.625 1.188 1.958 0 3.531-.396 4.719-1.188 1.187-.812 1.781-1.802 1.781-2.968 0-1.959-1.562-3.292-4.687-4l-5.969-1.25c-3.354-.73-5.834-1.907-7.438-3.532-1.604-1.646-2.406-3.74-2.406-6.281 0-2.167.594-4.042 1.781-5.625 1.188-1.583 2.844-2.813 4.969-3.688 2.125-.875 4.583-1.312 7.375-1.312 4.104 0 7.323.885 9.656 2.656 2.354 1.75 3.813 4.104 4.375 7.063Zm4.142 37.625 2.75-18.875h8.437l-5.469 18.875h-5.718Zm57.751-37.625-7.469.781c-.312-1.146-.99-2.156-2.031-3.031-1.042-.896-2.511-1.344-4.406-1.344-1.709 0-3.146.375-4.313 1.125-1.146.75-1.719 1.708-1.719 2.875 0 1.02.375 1.865 1.125 2.531.771.646 2.042 1.167 3.813 1.563l5.969 1.25c3.27.687 5.718 1.812 7.343 3.375 1.625 1.562 2.438 3.583 2.438 6.062 0 2.188-.636 4.125-1.906 5.813-1.271 1.687-3.032 3-5.282 3.937-2.229.938-4.802 1.407-7.718 1.407-4.271 0-7.709-.896-10.313-2.688-2.583-1.813-4.135-4.323-4.656-7.531l8.031-.75c.354 1.562 1.125 2.75 2.313 3.562 1.208.792 2.75 1.188 4.625 1.188 1.958 0 3.531-.396 4.718-1.188 1.188-.812 1.782-1.802 1.782-2.968 0-1.959-1.563-3.292-4.688-4l-5.969-1.25c-3.354-.73-5.833-1.907-7.437-3.532-1.604-1.646-2.406-3.74-2.406-6.281 0-2.167.593-4.042 1.781-5.625 1.187-1.583 2.844-2.813 4.969-3.688 2.125-.875 4.583-1.312 7.375-1.312 4.104 0 7.322.885 9.656 2.656 2.354 1.75 3.812 4.104 4.375 7.063Zm21.954-9.282v6.375h-20.032v-6.375h20.032Zm-15.125-8.312h8.218V44.5c0 1.375.302 2.396.907 3.063.604.645 1.562.968 2.875.968.354 0 .75-.031 1.187-.093.438-.063.833-.136 1.188-.22l1.406 6.438c-.875.271-1.761.469-2.656.594a16.71 16.71 0 0 1-2.688.219c-3.25 0-5.802-.854-7.656-2.563-1.854-1.729-2.781-4.083-2.781-7.062V11.75Zm33.86 43.938c-3.417 0-6.375-.75-8.875-2.25s-4.438-3.605-5.813-6.313c-1.354-2.708-2.031-5.854-2.031-9.438 0-3.604.677-6.76 2.031-9.468 1.375-2.73 3.313-4.844 5.813-6.344 2.5-1.5 5.458-2.25 8.875-2.25 3.416 0 6.375.75 8.875 2.25s4.437 3.615 5.812 6.344c1.375 2.708 2.063 5.864 2.063 9.468 0 3.584-.688 6.73-2.063 9.438-1.375 2.708-3.312 4.813-5.812 6.313-2.5 1.5-5.459 2.25-8.875 2.25Zm0-6.626c1.895 0 3.458-.5 4.687-1.5 1.229-1.02 2.146-2.395 2.75-4.124.625-1.73.938-3.646.938-5.75 0-2.146-.313-4.084-.938-5.813-.604-1.73-1.521-3.094-2.75-4.094-1.229-1.02-2.792-1.531-4.687-1.531-1.855 0-3.407.51-4.657 1.531-1.25 1-2.187 2.365-2.812 4.094-.604 1.73-.906 3.667-.906 5.813 0 2.104.302 4.02.906 5.75.625 1.729 1.562 3.104 2.812 4.124 1.25 1 2.802 1.5 4.657 1.5ZM607.979 55V20.062h7.969v5.875h.375c.625-2.041 1.718-3.604 3.281-4.687 1.562-1.104 3.344-1.656 5.344-1.656.437 0 .937.02 1.5.062a15.96 15.96 0 0 1 1.437.157v7.562c-.354-.125-.906-.23-1.656-.313a19.556 19.556 0 0 0-2.156-.125c-1.521 0-2.875.323-4.063.97a7.341 7.341 0 0 0-2.812 2.655c-.667 1.125-1 2.438-1 3.938V55h-8.219Zm36.391.688c-3.5 0-6.521-.73-9.063-2.188-2.541-1.48-4.5-3.563-5.875-6.25-1.354-2.688-2.031-5.854-2.031-9.5 0-3.604.677-6.76 2.031-9.469 1.355-2.729 3.261-4.854 5.719-6.375 2.459-1.52 5.354-2.281 8.688-2.281 2.146 0 4.177.344 6.093 1.031a13.974 13.974 0 0 1 5.125 3.188c1.5 1.437 2.678 3.27 3.532 5.5.854 2.208 1.281 4.843 1.281 7.906v2.563h-28.625V34.28h24.531l-3.844 1.625c0-1.979-.302-3.698-.906-5.156-.604-1.48-1.5-2.635-2.687-3.469-1.188-.833-2.667-1.25-4.438-1.25s-3.281.417-4.531 1.25c-1.25.834-2.198 1.959-2.844 3.375-.646 1.396-.969 2.959-.969 4.688v3.843c0 2.126.365 3.948 1.094 5.47.75 1.5 1.792 2.645 3.125 3.437 1.354.791 2.927 1.187 4.719 1.187 1.167 0 2.229-.166 3.187-.5.98-.333 1.813-.833 2.5-1.5.709-.687 1.25-1.531 1.625-2.531l7.688.906c-.5 2.021-1.427 3.792-2.781 5.313-1.334 1.5-3.052 2.666-5.157 3.5-2.083.812-4.479 1.218-7.187 1.218ZM676.559 55V20.062h7.968v5.875h.375c.625-2.041 1.719-3.604 3.282-4.687 1.562-1.104 3.343-1.656 5.343-1.656.438 0 .938.02 1.5.062a15.84 15.84 0 0 1 1.438.157v7.562c-.354-.125-.906-.23-1.656-.313a19.56 19.56 0 0 0-2.157-.125c-1.52 0-2.875.323-4.062.97a7.344 7.344 0 0 0-2.813 2.655c-.666 1.125-1 2.438-1 3.938V55h-8.218Zm36.391.688c-3.5 0-6.521-.73-9.062-2.188-2.542-1.48-4.5-3.563-5.875-6.25-1.355-2.688-2.032-5.854-2.032-9.5 0-3.604.677-6.76 2.032-9.469 1.354-2.729 3.26-4.854 5.718-6.375 2.459-1.52 5.354-2.281 8.688-2.281 2.146 0 4.177.344 6.094 1.031a13.99 13.99 0 0 1 5.125 3.188c1.5 1.437 2.677 3.27 3.531 5.5.854 2.208 1.281 4.843 1.281 7.906v2.563h-28.625V34.28h24.531l-3.843 1.625c0-1.979-.303-3.698-.907-5.156-.604-1.48-1.5-2.635-2.687-3.469-1.188-.833-2.667-1.25-4.438-1.25s-3.281.417-4.531 1.25c-1.25.834-2.198 1.959-2.844 3.375-.646 1.396-.968 2.959-.968 4.688v3.843c0 2.126.364 3.948 1.093 5.47.75 1.5 1.792 2.645 3.125 3.437 1.354.791 2.927 1.187 4.719 1.187 1.167 0 2.229-.166 3.188-.5.979-.333 1.812-.833 2.5-1.5.708-.687 1.25-1.531 1.625-2.531l7.687.906c-.5 2.021-1.427 3.792-2.781 5.313-1.334 1.5-3.052 2.666-5.156 3.5-2.084.812-4.48 1.218-7.188 1.218Zm34.548 0c-3.48 0-6.469-.76-8.969-2.282-2.5-1.541-4.417-3.666-5.75-6.375-1.334-2.708-2-5.823-2-9.343 0-3.563.677-6.698 2.031-9.407 1.354-2.708 3.281-4.823 5.781-6.343 2.5-1.542 5.448-2.313 8.844-2.313 2.854 0 5.375.52 7.563 1.563 2.187 1.041 3.927 2.51 5.218 4.406 1.313 1.875 2.063 4.073 2.25 6.593h-7.875a7.939 7.939 0 0 0-1.218-3.03 6.501 6.501 0 0 0-2.375-2.126c-.959-.52-2.105-.781-3.438-.781-1.687 0-3.167.458-4.437 1.375-1.25.896-2.23 2.188-2.938 3.875-.708 1.688-1.062 3.708-1.062 6.063 0 2.374.343 4.427 1.031 6.156.687 1.708 1.666 3.031 2.937 3.968 1.271.917 2.761 1.376 4.469 1.376 1.813 0 3.344-.532 4.594-1.594 1.271-1.063 2.083-2.532 2.437-4.407h7.875c-.187 2.48-.916 4.667-2.187 6.563s-2.99 3.385-5.156 4.469c-2.167 1.062-4.709 1.593-7.625 1.593Zm34.235 0c-3.5 0-6.521-.73-9.063-2.188-2.542-1.48-4.5-3.563-5.875-6.25-1.354-2.688-2.031-5.854-2.031-9.5 0-3.604.677-6.76 2.031-9.469 1.354-2.729 3.26-4.854 5.719-6.375 2.458-1.52 5.354-2.281 8.687-2.281 2.146 0 4.177.344 6.094 1.031a13.974 13.974 0 0 1 5.125 3.188c1.5 1.437 2.677 3.27 3.531 5.5.854 2.208 1.282 4.843 1.282 7.906v2.563h-28.625V34.28h24.531l-3.844 1.625c0-1.979-.302-3.698-.906-5.156-.604-1.48-1.5-2.635-2.688-3.469-1.187-.833-2.666-1.25-4.437-1.25-1.771 0-3.281.417-4.531 1.25-1.25.834-2.198 1.959-2.844 3.375-.646 1.396-.969 2.959-.969 4.688v3.843c0 2.126.365 3.948 1.094 5.47.75 1.5 1.791 2.645 3.125 3.437 1.354.791 2.927 1.187 4.719 1.187 1.166 0 2.229-.166 3.187-.5.979-.333 1.813-.833 2.5-1.5.708-.687 1.25-1.531 1.625-2.531l7.688.906c-.5 2.021-1.428 3.792-2.782 5.313-1.333 1.5-3.052 2.666-5.156 3.5-2.083.812-4.479 1.218-7.187 1.218ZM801.061 55V20.062h8.219V55h-8.219Zm4.125-39.844c-1.312 0-2.437-.437-3.375-1.312-.937-.875-1.406-1.927-1.406-3.156 0-1.25.469-2.313 1.406-3.188.938-.875 2.063-1.313 3.375-1.313 1.292 0 2.407.438 3.344 1.313.938.875 1.406 1.927 1.406 3.156 0 1.25-.468 2.313-1.406 3.188-.937.875-2.052 1.312-3.344 1.312Zm9.548 52.907v-48h8.062v5.78h.5c.417-.833 1.011-1.728 1.782-2.687.77-.979 1.812-1.812 3.125-2.5 1.333-.687 3.031-1.031 5.093-1.031 2.688 0 5.115.688 7.282 2.063 2.166 1.375 3.885 3.395 5.156 6.062 1.291 2.667 1.937 5.948 1.937 9.844 0 3.833-.625 7.093-1.875 9.781-1.25 2.688-2.968 4.74-5.156 6.156-2.167 1.396-4.625 2.094-7.375 2.094-1.979 0-3.635-.333-4.969-1-1.312-.688-2.375-1.5-3.187-2.438-.792-.958-1.396-1.864-1.813-2.718h-.343v18.593h-8.219Zm16.281-19.188c1.813 0 3.323-.49 4.531-1.469 1.229-.979 2.157-2.323 2.782-4.031.625-1.708.937-3.646.937-5.813 0-2.166-.312-4.093-.937-5.78-.625-1.688-1.542-3.011-2.75-3.97-1.209-.958-2.73-1.437-4.563-1.437-1.771 0-3.271.458-4.5 1.375-1.208.917-2.135 2.219-2.781 3.906-.625 1.667-.938 3.636-.938 5.907 0 2.25.313 4.229.938 5.937.646 1.688 1.583 3.01 2.812 3.969 1.229.937 2.719 1.406 4.469 1.406ZM869 20.062v6.375h-20.031v-6.375H869Zm-15.125-8.312h8.219V44.5c0 1.375.302 2.396.906 3.063.604.645 1.562.968 2.875.968.354 0 .75-.031 1.187-.093.438-.063.834-.136 1.188-.22l1.406 6.438c-.875.271-1.76.469-2.656.594a16.71 16.71 0 0 1-2.688.219c-3.25 0-5.802-.854-7.656-2.563-1.854-1.729-2.781-4.083-2.781-7.062V11.75Zm46.079 17.594-7.469.781c-.313-1.146-.99-2.156-2.031-3.031-1.042-.896-2.511-1.344-4.407-1.344-1.708 0-3.145.375-4.312 1.125-1.146.75-1.719 1.708-1.719 2.875 0 1.02.375 1.865 1.125 2.531.771.646 2.042 1.167 3.813 1.563l5.968 1.25c3.271.687 5.719 1.812 7.344 3.375 1.625 1.562 2.438 3.583 2.438 6.062 0 2.188-.636 4.125-1.907 5.813-1.27 1.687-3.031 3-5.281 3.937-2.229.938-4.802 1.407-7.719 1.407-4.27 0-7.708-.896-10.312-2.688-2.583-1.813-4.135-4.323-4.656-7.531l8.031-.75c.354 1.562 1.125 2.75 2.312 3.562 1.209.792 2.75 1.188 4.625 1.188 1.959 0 3.532-.396 4.719-1.188 1.188-.812 1.781-1.802 1.781-2.968 0-1.959-1.562-3.292-4.687-4l-5.969-1.25c-3.354-.73-5.833-1.907-7.437-3.532-1.604-1.646-2.407-3.74-2.407-6.281 0-2.167.594-4.042 1.782-5.625 1.187-1.583 2.843-2.813 4.968-3.688s4.584-1.312 7.375-1.312c4.105 0 7.323.885 9.657 2.656 2.354 1.75 3.812 4.104 4.375 7.063Zm4.141 37.625 2.75-18.875h8.437l-5.468 18.875h-5.719Zm-872.574 52.75c-2.229 0-4.229-.396-6-1.188-1.77-.812-3.166-2-4.187-3.562-1.021-1.563-1.532-3.49-1.532-5.781 0-1.959.365-3.584 1.094-4.876a8.464 8.464 0 0 1 2.969-3.093c1.27-.771 2.698-1.354 4.281-1.75a31.35 31.35 0 0 1 4.907-.875 270.96 270.96 0 0 0 5-.594c1.27-.167 2.187-.438 2.75-.813.583-.374.875-.958.875-1.75v-.156c0-1.687-.5-3-1.5-3.937-1-.938-2.459-1.406-4.375-1.406-2.021 0-3.625.437-4.813 1.312-1.167.875-1.958 1.906-2.375 3.094l-7.656-1.094c.604-2.125 1.604-3.896 3-5.313 1.396-1.437 3.093-2.51 5.093-3.218 2.021-.73 4.25-1.094 6.688-1.094 1.667 0 3.333.198 5 .594a13.823 13.823 0 0 1 4.594 1.937c1.396.917 2.51 2.146 3.343 3.688.834 1.541 1.25 3.469 1.25 5.781V119h-7.906v-4.812h-.25c-.5.958-1.208 1.864-2.125 2.718-.896.834-2.02 1.511-3.375 2.032-1.333.52-2.916.781-4.75.781Zm2.094-6.063c1.667 0 3.104-.323 4.313-.968 1.208-.667 2.145-1.542 2.812-2.626a6.826 6.826 0 0 0 1-3.593v-4.094c-.27.208-.708.406-1.313.594-.604.166-1.291.323-2.062.469-.77.145-1.531.27-2.281.374a67.38 67.38 0 0 1-1.907.25c-1.229.167-2.333.448-3.312.844-.958.375-1.719.896-2.281 1.563-.563.666-.844 1.531-.844 2.593 0 1.521.552 2.667 1.656 3.438 1.104.771 2.51 1.156 4.219 1.156ZM63.6 98.562V119h-8.219V84.062h8.063v5.97h.406c.792-1.96 2.031-3.511 3.719-4.657 1.708-1.167 3.875-1.75 6.5-1.75 2.416 0 4.52.51 6.312 1.531 1.792 1.021 3.177 2.521 4.156 4.5 1 1.959 1.5 4.334 1.5 7.125V119H77.82V98.062c0-2.333-.604-4.156-1.813-5.468-1.208-1.334-2.875-2-5-2-1.437 0-2.719.312-3.844.937-1.104.625-1.979 1.531-2.625 2.719-.625 1.167-.937 2.604-.937 4.313Zm40.766 21.063c-2.729 0-5.187-.698-7.375-2.094-2.166-1.416-3.875-3.469-5.125-6.156s-1.875-5.948-1.875-9.781c0-3.896.636-7.177 1.906-9.844 1.292-2.667 3.021-4.688 5.188-6.063 2.167-1.374 4.594-2.062 7.281-2.062 2.063 0 3.75.344 5.063 1.031 1.312.688 2.354 1.521 3.125 2.5.791.959 1.396 1.854 1.812 2.688h.344V72.438h8.187V119h-8.031v-5.531h-.5c-.437.854-1.052 1.76-1.844 2.719-.791.937-1.843 1.75-3.156 2.437-1.312.667-2.979 1-5 1Zm2.281-6.75c1.75 0 3.23-.469 4.438-1.406 1.229-.959 2.167-2.281 2.812-3.969.646-1.708.969-3.688.969-5.938 0-2.27-.323-4.24-.969-5.906-.625-1.687-1.552-2.99-2.781-3.906-1.208-.917-2.698-1.375-4.469-1.375-1.812 0-3.333.48-4.562 1.438s-2.156 2.28-2.781 3.968c-.604 1.688-.907 3.615-.907 5.781 0 2.167.313 4.105.938 5.813.625 1.708 1.542 3.052 2.75 4.031 1.229.979 2.75 1.469 4.562 1.469Zm49.689 19.937c-4.437 0-7.927-.864-10.469-2.593-2.541-1.709-4.177-3.781-4.906-6.219l7.375-1.812c.334.687.823 1.364 1.469 2.031.646.687 1.51 1.25 2.594 1.687 1.083.459 2.448.688 4.093.688 2.334 0 4.261-.573 5.782-1.719 1.541-1.125 2.312-2.969 2.312-5.531v-6.594h-.469c-.395.833-1 1.698-1.812 2.594-.813.875-1.885 1.625-3.219 2.25-1.312.604-2.979.906-5 .906-2.666 0-5.094-.635-7.281-1.906-2.167-1.271-3.896-3.167-5.188-5.688-1.27-2.521-1.906-5.677-1.906-9.468 0-3.834.636-7.073 1.906-9.72 1.292-2.645 3.032-4.656 5.219-6.03 2.188-1.376 4.625-2.063 7.313-2.063 2.041 0 3.729.344 5.062 1.031 1.334.688 2.396 1.521 3.188 2.5.791.959 1.406 1.854 1.843 2.688h.438v-5.781h8.031v35.499c0 2.98-.708 5.448-2.125 7.407-1.416 1.958-3.364 3.416-5.844 4.375-2.458.979-5.26 1.468-8.406 1.468Zm.063-20.781c2.625 0 4.646-.937 6.062-2.812 1.438-1.896 2.156-4.511 2.156-7.844 0-2.208-.312-4.135-.937-5.781s-1.552-2.927-2.781-3.844c-1.229-.917-2.729-1.375-4.5-1.375-1.834 0-3.365.48-4.594 1.438s-2.156 2.27-2.781 3.937c-.604 1.646-.907 3.52-.907 5.625 0 2.125.313 3.99.938 5.594s1.552 2.854 2.781 3.75c1.25.875 2.771 1.312 4.563 1.312Zm37.203 7.657c-3.5 0-6.52-.73-9.062-2.188-2.542-1.479-4.5-3.562-5.875-6.25-1.354-2.688-2.031-5.854-2.031-9.5 0-3.604.677-6.76 2.031-9.469 1.354-2.729 3.26-4.854 5.719-6.375 2.458-1.52 5.354-2.281 8.687-2.281 2.146 0 4.177.344 6.094 1.031a13.982 13.982 0 0 1 5.125 3.188c1.5 1.437 2.677 3.27 3.531 5.5.854 2.208 1.281 4.844 1.281 7.906v2.562h-28.625v-5.53h24.532l-3.844 1.624c0-1.979-.302-3.698-.906-5.156-.604-1.48-1.5-2.635-2.688-3.469-1.187-.833-2.666-1.25-4.437-1.25-1.771 0-3.282.417-4.532 1.25-1.25.834-2.197 1.959-2.843 3.375-.646 1.396-.969 2.959-.969 4.688v3.844c0 2.124.365 3.947 1.094 5.468.75 1.5 1.791 2.646 3.125 3.438 1.354.791 2.927 1.187 4.718 1.187 1.167 0 2.23-.166 3.188-.5.979-.333 1.812-.833 2.5-1.5.708-.687 1.25-1.531 1.625-2.531l7.687.906c-.5 2.021-1.427 3.792-2.781 5.313-1.333 1.5-3.052 2.666-5.156 3.5-2.083.812-4.479 1.219-7.188 1.219Zm27.548-21.126V119h-8.219V84.062h8.063v5.97h.406c.792-1.96 2.031-3.511 3.719-4.657 1.708-1.167 3.875-1.75 6.5-1.75 2.416 0 4.521.51 6.312 1.531 1.792 1.021 3.177 2.521 4.156 4.5 1 1.959 1.5 4.334 1.5 7.125V119h-8.218V98.062c0-2.333-.604-4.156-1.813-5.468-1.208-1.334-2.875-2-5-2-1.437 0-2.719.312-3.844.937-1.104.625-1.979 1.531-2.625 2.719-.625 1.167-.937 2.604-.937 4.313Zm43.36 21.126c-3.5 0-6.521-.73-9.063-2.188-2.541-1.479-4.5-3.562-5.875-6.25-1.354-2.688-2.031-5.854-2.031-9.5 0-3.604.677-6.76 2.031-9.469 1.355-2.729 3.261-4.854 5.719-6.375 2.459-1.52 5.354-2.281 8.688-2.281 2.146 0 4.177.344 6.093 1.031a13.974 13.974 0 0 1 5.125 3.188c1.5 1.437 2.678 3.27 3.532 5.5.854 2.208 1.281 4.844 1.281 7.906v2.562h-28.625v-5.53h24.531l-3.844 1.624c0-1.979-.302-3.698-.906-5.156-.604-1.48-1.5-2.635-2.687-3.469-1.188-.833-2.667-1.25-4.438-1.25s-3.281.417-4.531 1.25c-1.25.834-2.198 1.959-2.844 3.375-.646 1.396-.969 2.959-.969 4.688v3.844c0 2.124.365 3.947 1.094 5.468.75 1.5 1.792 2.646 3.125 3.438 1.354.791 2.927 1.187 4.719 1.187 1.167 0 2.229-.166 3.187-.5.98-.333 1.813-.833 2.5-1.5.709-.687 1.25-1.531 1.625-2.531l7.688.906c-.5 2.021-1.427 3.792-2.781 5.313-1.334 1.5-3.052 2.666-5.157 3.5-2.083.812-4.479 1.219-7.187 1.219Zm19.329-.688V84.062h7.968v5.876h.375c.625-2.042 1.719-3.605 3.282-4.688 1.562-1.104 3.343-1.656 5.343-1.656.438 0 .938.02 1.5.062a16.26 16.26 0 0 1 1.438.156v7.563c-.354-.125-.906-.23-1.656-.313a19.56 19.56 0 0 0-2.157-.124c-1.52 0-2.875.322-4.062.968a7.344 7.344 0 0 0-2.813 2.656c-.666 1.126-1 2.438-1 3.938V119h-8.218Zm31.797.719c-2.229 0-4.229-.396-6-1.188-1.771-.812-3.166-2-4.187-3.562-1.021-1.563-1.532-3.49-1.532-5.781 0-1.959.365-3.584 1.094-4.876a8.463 8.463 0 0 1 2.969-3.093c1.271-.771 2.698-1.354 4.281-1.75a31.368 31.368 0 0 1 4.906-.875 264.9 264.9 0 0 0 5-.594c1.271-.167 2.188-.438 2.75-.813.584-.374.875-.958.875-1.75v-.156c0-1.687-.5-3-1.5-3.937-1-.938-2.458-1.406-4.375-1.406-2.02 0-3.625.437-4.812 1.312-1.167.875-1.958 1.906-2.375 3.094l-7.656-1.094c.604-2.125 1.604-3.896 3-5.313 1.396-1.437 3.093-2.51 5.093-3.218 2.021-.73 4.25-1.094 6.688-1.094 1.667 0 3.333.198 5 .594a13.824 13.824 0 0 1 4.594 1.937c1.396.917 2.51 2.146 3.343 3.688.834 1.541 1.25 3.469 1.25 5.781V119h-7.906v-4.812h-.25c-.5.958-1.208 1.864-2.125 2.718-.896.834-2.021 1.511-3.375 2.032-1.333.52-2.916.781-4.75.781Zm2.094-6.063c1.667 0 3.104-.323 4.312-.968 1.209-.667 2.146-1.542 2.813-2.626a6.823 6.823 0 0 0 1-3.593v-4.094c-.271.208-.708.406-1.313.594-.604.166-1.291.323-2.062.469-.771.145-1.531.27-2.281.374-.729.105-1.365.188-1.907.25-1.229.167-2.333.448-3.312.844-.958.375-1.719.896-2.281 1.563-.563.666-.844 1.531-.844 2.593 0 1.521.552 2.667 1.656 3.438 1.104.771 2.511 1.156 4.219 1.156Zm39.172-29.594v6.376h-20.031v-6.376h20.031Zm-15.125-8.312h8.219v32.75c0 1.375.302 2.396.906 3.062.605.646 1.563.969 2.875.969.355 0 .75-.031 1.188-.093.437-.063.833-.136 1.187-.219l1.407 6.437c-.875.271-1.761.469-2.657.594-.895.146-1.791.219-2.687.219-3.25 0-5.802-.854-7.656-2.563-1.854-1.729-2.782-4.083-2.782-7.062V75.75Zm34.11 43.938c-3.5 0-6.52-.73-9.062-2.188-2.542-1.479-4.5-3.562-5.875-6.25-1.354-2.688-2.031-5.854-2.031-9.5 0-3.604.677-6.76 2.031-9.469 1.354-2.729 3.26-4.854 5.719-6.375 2.458-1.52 5.354-2.281 8.687-2.281 2.146 0 4.177.344 6.094 1.031a13.982 13.982 0 0 1 5.125 3.188c1.5 1.437 2.677 3.27 3.531 5.5.854 2.208 1.281 4.844 1.281 7.906v2.562h-28.625v-5.53h24.532l-3.844 1.624c0-1.979-.302-3.698-.906-5.156-.604-1.48-1.5-2.635-2.688-3.469-1.187-.833-2.666-1.25-4.437-1.25-1.771 0-3.282.417-4.532 1.25-1.25.834-2.197 1.959-2.843 3.375-.646 1.396-.969 2.959-.969 4.688v3.844c0 2.124.365 3.947 1.094 5.468.75 1.5 1.791 2.646 3.125 3.438 1.354.791 2.927 1.187 4.718 1.187 1.167 0 2.23-.166 3.188-.5.979-.333 1.812-.833 2.5-1.5.708-.687 1.25-1.531 1.625-2.531l7.687.906c-.5 2.021-1.427 3.792-2.781 5.313-1.333 1.5-3.052 2.666-5.156 3.5-2.083.812-4.479 1.219-7.188 1.219Zm49.595-35.626v6.376h-20.031v-6.376h20.031Zm-15.125-8.312h8.219v32.75c0 1.375.302 2.396.906 3.062.605.646 1.563.969 2.875.969.355 0 .75-.031 1.188-.093.437-.063.833-.136 1.187-.219l1.407 6.437c-.875.271-1.761.469-2.657.594-.895.146-1.791.219-2.687.219-3.25 0-5.802-.854-7.656-2.563-1.854-1.729-2.782-4.083-2.782-7.062V75.75Zm29.079 43.969c-2.229 0-4.229-.396-6-1.188-1.771-.812-3.166-2-4.187-3.562-1.021-1.563-1.532-3.49-1.532-5.781 0-1.959.365-3.584 1.094-4.876a8.463 8.463 0 0 1 2.969-3.093c1.271-.771 2.698-1.354 4.281-1.75a31.368 31.368 0 0 1 4.906-.875 264.9 264.9 0 0 0 5-.594c1.271-.167 2.188-.438 2.75-.813.584-.374.875-.958.875-1.75v-.156c0-1.687-.5-3-1.5-3.937-1-.938-2.458-1.406-4.375-1.406-2.02 0-3.625.437-4.812 1.312-1.167.875-1.958 1.906-2.375 3.094l-7.656-1.094c.604-2.125 1.604-3.896 3-5.313 1.396-1.437 3.093-2.51 5.093-3.218 2.021-.73 4.25-1.094 6.688-1.094 1.667 0 3.333.198 5 .594a13.824 13.824 0 0 1 4.594 1.937c1.396.917 2.51 2.146 3.343 3.688.834 1.541 1.25 3.469 1.25 5.781V119h-7.906v-4.812h-.25c-.5.958-1.208 1.864-2.125 2.718-.896.834-2.021 1.511-3.375 2.032-1.333.52-2.916.781-4.75.781Zm2.094-6.063c1.667 0 3.104-.323 4.312-.968 1.209-.667 2.146-1.542 2.813-2.626a6.823 6.823 0 0 0 1-3.593v-4.094c-.271.208-.708.406-1.313.594-.604.166-1.291.323-2.062.469-.771.145-1.531.27-2.281.374-.729.105-1.365.188-1.907.25-1.229.167-2.333.448-3.312.844-.958.375-1.719.896-2.281 1.563-.563.666-.844 1.531-.844 2.593 0 1.521.552 2.667 1.656 3.438 1.104.771 2.511 1.156 4.219 1.156Zm28.485-29.594L477.046 97l7.156-12.938h8.719l-10.5 17.5L493.109 119h-8.657l-7.406-12.562L469.765 119h-8.719l10.594-17.438-10.344-17.5h8.719Zm45.954 12.188V103h-20.938v-6.75h20.938Zm5.61 22.75V84.062h7.968v5.876h.375c.625-2.042 1.719-3.605 3.282-4.688 1.562-1.104 3.343-1.656 5.343-1.656.438 0 .938.02 1.5.062a16.26 16.26 0 0 1 1.438.156v7.563c-.354-.125-.906-.23-1.656-.313a19.56 19.56 0 0 0-2.157-.124c-1.52 0-2.875.322-4.062.968a7.344 7.344 0 0 0-2.813 2.656c-.666 1.126-1 2.438-1 3.938V119h-8.218Zm36.391.688c-3.5 0-6.521-.73-9.063-2.188-2.541-1.479-4.5-3.562-5.875-6.25-1.354-2.688-2.031-5.854-2.031-9.5 0-3.604.677-6.76 2.031-9.469 1.355-2.729 3.261-4.854 5.719-6.375 2.459-1.52 5.354-2.281 8.688-2.281 2.146 0 4.177.344 6.093 1.031a13.974 13.974 0 0 1 5.125 3.188c1.5 1.437 2.678 3.27 3.532 5.5.854 2.208 1.281 4.844 1.281 7.906v2.562h-28.625v-5.53h24.531l-3.844 1.624c0-1.979-.302-3.698-.906-5.156-.604-1.48-1.5-2.635-2.687-3.469-1.188-.833-2.667-1.25-4.438-1.25s-3.281.417-4.531 1.25c-1.25.834-2.198 1.959-2.844 3.375-.646 1.396-.969 2.959-.969 4.688v3.844c0 2.124.365 3.947 1.094 5.468.75 1.5 1.792 2.646 3.125 3.438 1.354.791 2.927 1.187 4.719 1.187 1.167 0 2.229-.166 3.187-.5.98-.333 1.813-.833 2.5-1.5.709-.687 1.25-1.531 1.625-2.531l7.688.906c-.5 2.021-1.427 3.792-2.781 5.313-1.334 1.5-3.052 2.666-5.157 3.5-2.083.812-4.479 1.219-7.187 1.219Zm29.391.031c-2.229 0-4.229-.396-6-1.188-1.771-.812-3.166-2-4.187-3.562-1.021-1.563-1.531-3.49-1.531-5.781 0-1.959.364-3.584 1.093-4.876a8.463 8.463 0 0 1 2.969-3.093c1.271-.771 2.698-1.354 4.281-1.75a31.36 31.36 0 0 1 4.907-.875 266.92 266.92 0 0 0 5-.594c1.27-.167 2.187-.438 2.75-.813.583-.374.875-.958.875-1.75v-.156c0-1.687-.5-3-1.5-3.937-1-.938-2.459-1.406-4.375-1.406-2.021 0-3.625.437-4.813 1.312-1.167.875-1.958 1.906-2.375 3.094l-7.656-1.094c.604-2.125 1.604-3.896 3-5.313 1.396-1.437 3.094-2.51 5.094-3.218 2.02-.73 4.25-1.094 6.687-1.094 1.667 0 3.333.198 5 .594a13.824 13.824 0 0 1 4.594 1.937c1.396.917 2.51 2.146 3.344 3.688.833 1.541 1.25 3.469 1.25 5.781V119h-7.907v-4.812h-.25c-.5.958-1.208 1.864-2.125 2.718-.896.834-2.021 1.511-3.375 2.032-1.333.52-2.916.781-4.75.781Zm2.094-6.063c1.667 0 3.104-.323 4.313-.968 1.208-.667 2.145-1.542 2.812-2.626a6.823 6.823 0 0 0 1-3.593v-4.094c-.271.208-.708.406-1.312.594-.605.166-1.292.323-2.063.469-.771.145-1.531.27-2.281.374-.729.105-1.365.188-1.906.25-1.23.167-2.334.448-3.313.844-.958.375-1.719.896-2.281 1.563-.563.666-.844 1.531-.844 2.593 0 1.521.552 2.667 1.656 3.438 1.104.771 2.511 1.156 4.219 1.156Zm34.641 5.969c-2.729 0-5.187-.698-7.375-2.094-2.166-1.416-3.875-3.469-5.125-6.156s-1.875-5.948-1.875-9.781c0-3.896.636-7.177 1.907-9.844 1.291-2.667 3.02-4.688 5.187-6.063 2.167-1.374 4.594-2.062 7.281-2.062 2.063 0 3.75.344 5.063 1.031 1.312.688 2.354 1.521 3.125 2.5.791.959 1.396 1.854 1.812 2.688h.344V72.438h8.188V119h-8.032v-5.531h-.5c-.437.854-1.052 1.76-1.843 2.719-.792.937-1.844 1.75-3.157 2.437-1.312.667-2.979 1-5 1Zm2.282-6.75c1.75 0 3.229-.469 4.437-1.406 1.229-.959 2.167-2.281 2.813-3.969.645-1.708.968-3.688.968-5.938 0-2.27-.323-4.24-.968-5.906-.625-1.687-1.553-2.99-2.782-3.906-1.208-.917-2.698-1.375-4.468-1.375-1.813 0-3.334.48-4.563 1.438-1.229.958-2.156 2.28-2.781 3.968-.604 1.688-.906 3.615-.906 5.781 0 2.167.312 4.105.937 5.813.625 1.708 1.542 3.052 2.75 4.031 1.229.979 2.75 1.469 4.563 1.469Zm26.828 19.187a14.808 14.808 0 0 1-3.125-.25c-.937-.166-1.698-.364-2.281-.593l1.937-6.407.407.126c1.666.437 3.083.468 4.25.093 1.187-.375 2.135-1.51 2.843-3.406l.688-1.875L645.3 84.062h8.719l8.031 26.407h.375l8.062-26.406h8.782l-14 39.156c-.646 1.854-1.5 3.437-2.563 4.75a10.236 10.236 0 0 1-3.937 3.031c-1.563.708-3.417 1.062-5.563 1.062ZM694.801 119V84.062h7.969v5.876h.375c.625-2.042 1.719-3.605 3.281-4.688 1.563-1.104 3.344-1.656 5.344-1.656.438 0 .938.02 1.5.062.583.042 1.063.094 1.438.156v7.563c-.355-.125-.907-.23-1.657-.313a19.542 19.542 0 0 0-2.156-.124c-1.521 0-2.875.322-4.062.968a7.344 7.344 0 0 0-2.813 2.656c-.667 1.126-1 2.438-1 3.938V119h-8.219Zm36.392.688c-3.5 0-6.521-.73-9.063-2.188-2.542-1.479-4.5-3.562-5.875-6.25-1.354-2.688-2.031-5.854-2.031-9.5 0-3.604.677-6.76 2.031-9.469 1.354-2.729 3.26-4.854 5.719-6.375 2.458-1.52 5.354-2.281 8.687-2.281 2.146 0 4.177.344 6.094 1.031a13.974 13.974 0 0 1 5.125 3.188c1.5 1.437 2.677 3.27 3.531 5.5.854 2.208 1.282 4.844 1.282 7.906v2.562h-28.625v-5.53h24.531l-3.844 1.624c0-1.979-.302-3.698-.906-5.156-.604-1.48-1.5-2.635-2.688-3.469-1.187-.833-2.666-1.25-4.437-1.25-1.771 0-3.281.417-4.531 1.25-1.25.834-2.198 1.959-2.844 3.375-.646 1.396-.969 2.959-.969 4.688v3.844c0 2.124.365 3.947 1.094 5.468.75 1.5 1.791 2.646 3.125 3.438 1.354.791 2.927 1.187 4.719 1.187 1.166 0 2.229-.166 3.187-.5.979-.333 1.813-.833 2.5-1.5.708-.687 1.25-1.531 1.625-2.531l7.688.906c-.5 2.021-1.428 3.792-2.782 5.313-1.333 1.5-3.052 2.666-5.156 3.5-2.083.812-4.479 1.219-7.187 1.219Zm19.328 12.374v-48h8.063v5.782h.5c.416-.834 1.01-1.73 1.781-2.688.771-.979 1.812-1.812 3.125-2.5 1.333-.687 3.031-1.031 5.094-1.031 2.687 0 5.114.688 7.281 2.063 2.167 1.374 3.885 3.395 5.156 6.062 1.292 2.667 1.938 5.948 1.938 9.844 0 3.833-.625 7.094-1.875 9.781-1.25 2.687-2.969 4.74-5.157 6.156-2.166 1.396-4.625 2.094-7.375 2.094-1.979 0-3.635-.333-4.968-1-1.313-.687-2.375-1.5-3.188-2.437-.791-.959-1.396-1.865-1.812-2.719h-.344v18.593h-8.219Zm16.281-19.187c1.813 0 3.323-.49 4.532-1.469 1.229-.979 2.156-2.323 2.781-4.031.625-1.708.937-3.646.937-5.813 0-2.166-.312-4.093-.937-5.78-.625-1.688-1.542-3.011-2.75-3.97-1.208-.958-2.729-1.437-4.563-1.437-1.77 0-3.27.458-4.5 1.375-1.208.917-2.135 2.219-2.781 3.906-.625 1.667-.937 3.636-.937 5.906 0 2.25.312 4.23.937 5.938.646 1.688 1.584 3.01 2.813 3.969 1.229.937 2.718 1.406 4.468 1.406Zm35.798 6.813c-3.417 0-6.375-.75-8.875-2.25s-4.438-3.605-5.813-6.313c-1.354-2.708-2.031-5.854-2.031-9.437 0-3.605.677-6.76 2.031-9.47 1.375-2.728 3.313-4.843 5.813-6.343 2.5-1.5 5.458-2.25 8.875-2.25s6.375.75 8.875 2.25 4.437 3.615 5.812 6.344c1.375 2.708 2.063 5.864 2.063 9.469 0 3.583-.688 6.729-2.063 9.437-1.375 2.708-3.312 4.813-5.812 6.313-2.5 1.5-5.458 2.25-8.875 2.25Zm0-6.626c1.896 0 3.458-.5 4.687-1.5 1.23-1.02 2.146-2.395 2.75-4.124.625-1.73.938-3.646.938-5.75 0-2.146-.313-4.084-.938-5.813-.604-1.73-1.52-3.094-2.75-4.094-1.229-1.02-2.791-1.531-4.687-1.531-1.854 0-3.406.51-4.656 1.531-1.25 1-2.188 2.365-2.813 4.094-.604 1.73-.906 3.667-.906 5.813 0 2.104.302 4.02.906 5.75.625 1.729 1.563 3.104 2.813 4.124 1.25 1 2.802 1.5 4.656 1.5ZM823.241 119V84.062h7.969v5.876h.375c.625-2.042 1.719-3.605 3.281-4.688 1.563-1.104 3.344-1.656 5.344-1.656.437 0 .937.02 1.5.062a15.96 15.96 0 0 1 1.437.156v7.563c-.354-.125-.906-.23-1.656-.313a19.556 19.556 0 0 0-2.156-.124c-1.521 0-2.875.322-4.063.968a7.341 7.341 0 0 0-2.812 2.656c-.667 1.126-1 2.438-1 3.938V119h-8.219Zm41.642-34.938v6.376h-20.032v-6.376h20.032Zm-15.125-8.312h8.218v32.75c0 1.375.302 2.396.907 3.062.604.646 1.562.969 2.875.969.354 0 .75-.031 1.187-.093.438-.063.833-.136 1.188-.219l1.406 6.437c-.875.271-1.761.469-2.656.594-.896.146-1.792.219-2.688.219-3.25 0-5.802-.854-7.656-2.563-1.854-1.729-2.781-4.083-2.781-7.062V75.75Zm46.078 17.594-7.469.781c-.312-1.146-.989-2.156-2.031-3.031-1.041-.896-2.51-1.344-4.406-1.344-1.708 0-3.146.375-4.313 1.125-1.145.75-1.718 1.708-1.718 2.875 0 1.02.375 1.865 1.125 2.531.771.646 2.041 1.167 3.812 1.563l5.969 1.25c3.271.687 5.719 1.812 7.344 3.375 1.625 1.562 2.437 3.583 2.437 6.062 0 2.188-.635 4.125-1.906 5.813-1.271 1.687-3.031 3-5.281 3.937-2.229.938-4.802 1.407-7.719 1.407-4.271 0-7.708-.896-10.313-2.688-2.583-1.812-4.135-4.323-4.656-7.531l8.031-.75c.355 1.562 1.125 2.75 2.313 3.562 1.208.792 2.75 1.188 4.625 1.188 1.958 0 3.531-.396 4.719-1.188 1.187-.812 1.781-1.802 1.781-2.969 0-1.958-1.563-3.291-4.688-4l-5.968-1.25c-3.354-.729-5.834-1.906-7.438-3.531-1.604-1.646-2.406-3.74-2.406-6.281 0-2.167.594-4.042 1.781-5.625 1.188-1.583 2.844-2.813 4.969-3.688 2.125-.874 4.583-1.312 7.375-1.312 4.104 0 7.323.885 9.656 2.656 2.354 1.75 3.813 4.104 4.375 7.063Zm46.376 2.906V103h-32v-6.75h32Zm-654.256 87.469c-2.229 0-4.229-.396-6-1.188-1.771-.812-3.166-2-4.187-3.562-1.021-1.563-1.532-3.49-1.532-5.781 0-1.959.365-3.584 1.094-4.876a8.463 8.463 0 0 1 2.969-3.093c1.271-.771 2.698-1.354 4.281-1.75a31.264 31.264 0 0 1 4.906-.875c2.063-.229 3.73-.427 5-.594 1.271-.167 2.188-.438 2.75-.812.584-.376.875-.959.875-1.75v-.157c0-1.687-.5-3-1.5-3.937-1-.938-2.458-1.406-4.375-1.406-2.02 0-3.625.437-4.812 1.312-1.167.875-1.958 1.906-2.375 3.094l-7.656-1.094c.604-2.125 1.604-3.896 3-5.312 1.396-1.438 3.093-2.511 5.093-3.219 2.021-.729 4.25-1.094 6.688-1.094 1.667 0 3.333.198 5 .594a13.835 13.835 0 0 1 4.594 1.937c1.396.917 2.51 2.146 3.343 3.688.834 1.541 1.25 3.468 1.25 5.781V183h-7.906v-4.812h-.25c-.5.958-1.208 1.864-2.125 2.718-.896.834-2.021 1.511-3.375 2.032-1.333.52-2.916.781-4.75.781Zm2.094-6.063c1.667 0 3.104-.323 4.312-.968 1.209-.667 2.146-1.542 2.813-2.626a6.823 6.823 0 0 0 1-3.593v-4.094c-.271.208-.708.406-1.313.594-.604.166-1.291.323-2.062.469-.771.145-1.531.27-2.281.374-.729.105-1.365.188-1.907.25-1.229.167-2.333.448-3.312.844-.958.375-1.719.896-2.281 1.563-.563.666-.844 1.531-.844 2.593 0 1.521.552 2.667 1.656 3.438 1.104.771 2.511 1.156 4.219 1.156Zm29.985-41.218V183h-8.219v-46.562h8.219Zm13.672 0V183h-8.218v-46.562h8.218ZM352.021 183v-34.938h8.219V183h-8.219Zm4.125-39.844c-1.312 0-2.437-.437-3.375-1.312-.937-.875-1.406-1.927-1.406-3.156 0-1.25.469-2.313 1.406-3.188.938-.875 2.063-1.312 3.375-1.312 1.292 0 2.406.437 3.344 1.312.937.875 1.406 1.927 1.406 3.156 0 1.25-.469 2.313-1.406 3.188-.938.875-2.052 1.312-3.344 1.312Zm17.766 19.406V183h-8.218v-34.938h8.062v5.969h.406c.792-1.958 2.032-3.51 3.719-4.656 1.709-1.167 3.875-1.75 6.5-1.75 2.417 0 4.521.51 6.313 1.531 1.791 1.021 3.177 2.521 4.156 4.5 1 1.959 1.5 4.334 1.5 7.125V183h-8.219v-20.938c0-2.333-.604-4.156-1.812-5.468-1.209-1.334-2.875-2-5-2-1.438 0-2.719.312-3.844.937-1.104.625-1.979 1.531-2.625 2.719-.625 1.167-.938 2.604-.938 4.312Zm55.971 21.126c-3.417 0-6.375-.75-8.875-2.25s-4.438-3.605-5.813-6.313c-1.354-2.708-2.031-5.854-2.031-9.437 0-3.605.677-6.761 2.031-9.469 1.375-2.729 3.313-4.844 5.813-6.344 2.5-1.5 5.458-2.25 8.875-2.25 3.416 0 6.375.75 8.875 2.25s4.437 3.615 5.812 6.344c1.375 2.708 2.063 5.864 2.063 9.469 0 3.583-.688 6.729-2.063 9.437-1.375 2.708-3.312 4.813-5.812 6.313-2.5 1.5-5.459 2.25-8.875 2.25Zm0-6.626c1.895 0 3.458-.5 4.687-1.5 1.229-1.02 2.146-2.395 2.75-4.124.625-1.73.938-3.646.938-5.75 0-2.146-.313-4.084-.938-5.813-.604-1.729-1.521-3.094-2.75-4.094-1.229-1.021-2.792-1.531-4.687-1.531-1.855 0-3.407.51-4.657 1.531-1.25 1-2.187 2.365-2.812 4.094-.604 1.729-.906 3.667-.906 5.813 0 2.104.302 4.02.906 5.75.625 1.729 1.562 3.104 2.812 4.124 1.25 1 2.802 1.5 4.657 1.5Zm28.859-14.5V183h-8.218v-34.938h8.062v5.969h.406c.792-1.958 2.032-3.51 3.719-4.656 1.709-1.167 3.875-1.75 6.5-1.75 2.417 0 4.521.51 6.313 1.531 1.791 1.021 3.177 2.521 4.156 4.5 1 1.959 1.5 4.334 1.5 7.125V183h-8.219v-20.938c0-2.333-.604-4.156-1.812-5.468-1.209-1.334-2.875-2-5-2-1.438 0-2.719.312-3.844.937-1.104.625-1.979 1.531-2.625 2.719-.625 1.167-.938 2.604-.938 4.312Zm43.36 21.126c-3.5 0-6.52-.73-9.062-2.188-2.542-1.479-4.5-3.562-5.875-6.25-1.354-2.688-2.031-5.854-2.031-9.5 0-3.604.677-6.76 2.031-9.469 1.354-2.729 3.26-4.854 5.719-6.375 2.458-1.521 5.354-2.281 8.687-2.281 2.146 0 4.177.344 6.094 1.031a13.983 13.983 0 0 1 5.125 3.188c1.5 1.437 2.677 3.271 3.531 5.5.854 2.208 1.281 4.844 1.281 7.906v2.562h-28.625v-5.531h24.532l-3.844 1.625c0-1.979-.302-3.698-.906-5.156-.604-1.479-1.5-2.635-2.688-3.469-1.187-.833-2.666-1.25-4.437-1.25-1.771 0-3.282.417-4.532 1.25-1.25.834-2.197 1.959-2.843 3.375-.646 1.396-.969 2.959-.969 4.688v3.844c0 2.124.365 3.947 1.094 5.468.75 1.5 1.791 2.646 3.125 3.438 1.354.791 2.927 1.187 4.718 1.187 1.167 0 2.23-.166 3.188-.5.979-.333 1.812-.833 2.5-1.5.708-.687 1.25-1.531 1.625-2.531l7.687.906c-.5 2.021-1.427 3.792-2.781 5.313-1.333 1.5-3.052 2.666-5.156 3.5-2.083.812-4.479 1.219-7.188 1.219Zm32.189 12.374v-48h8.063v5.782h.5c.416-.834 1.01-1.729 1.781-2.688.771-.979 1.813-1.812 3.125-2.5 1.333-.687 3.031-1.031 5.094-1.031 2.687 0 5.114.687 7.281 2.063 2.167 1.374 3.885 3.395 5.156 6.062 1.292 2.667 1.938 5.948 1.938 9.844 0 3.833-.625 7.094-1.875 9.781-1.25 2.687-2.969 4.74-5.156 6.156-2.167 1.396-4.625 2.094-7.375 2.094-1.98 0-3.636-.333-4.969-1-1.313-.687-2.375-1.5-3.188-2.437-.791-.959-1.396-1.865-1.812-2.719h-.344v18.593h-8.219Zm16.282-19.187c1.812 0 3.322-.49 4.531-1.469 1.229-.979 2.156-2.323 2.781-4.031.625-1.708.938-3.646.938-5.813 0-2.166-.313-4.093-.938-5.781-.625-1.687-1.542-3.01-2.75-3.969-1.208-.958-2.729-1.437-4.562-1.437-1.771 0-3.271.458-4.5 1.375-1.209.917-2.136 2.219-2.782 3.906-.625 1.667-.937 3.636-.937 5.906 0 2.25.312 4.23.937 5.938.646 1.688 1.584 3.01 2.813 3.969 1.229.937 2.719 1.406 4.469 1.406Zm28.797-40.437V183h-8.219v-46.562h8.219Zm15.516 47.281c-2.229 0-4.229-.396-6-1.188-1.771-.812-3.166-2-4.187-3.562-1.021-1.563-1.532-3.49-1.532-5.781 0-1.959.365-3.584 1.094-4.876a8.463 8.463 0 0 1 2.969-3.093c1.271-.771 2.698-1.354 4.281-1.75a31.264 31.264 0 0 1 4.906-.875c2.063-.229 3.73-.427 5-.594 1.271-.167 2.188-.438 2.75-.812.584-.376.875-.959.875-1.75v-.157c0-1.687-.5-3-1.5-3.937-1-.938-2.458-1.406-4.375-1.406-2.02 0-3.625.437-4.812 1.312-1.167.875-1.958 1.906-2.375 3.094l-7.656-1.094c.604-2.125 1.604-3.896 3-5.312 1.396-1.438 3.093-2.511 5.093-3.219 2.021-.729 4.25-1.094 6.688-1.094 1.667 0 3.333.198 5 .594a13.835 13.835 0 0 1 4.594 1.937c1.396.917 2.51 2.146 3.343 3.688.834 1.541 1.25 3.468 1.25 5.781V183h-7.906v-4.812h-.25c-.5.958-1.208 1.864-2.125 2.718-.896.834-2.021 1.511-3.375 2.032-1.333.52-2.916.781-4.75.781Zm2.094-6.063c1.667 0 3.104-.323 4.312-.968 1.209-.667 2.146-1.542 2.813-2.626a6.823 6.823 0 0 0 1-3.593v-4.094c-.271.208-.708.406-1.313.594-.604.166-1.291.323-2.062.469-.771.145-1.531.27-2.281.374-.729.105-1.365.188-1.907.25-1.229.167-2.333.448-3.312.844-.958.375-1.719.896-2.281 1.563-.563.666-.844 1.531-.844 2.593 0 1.521.552 2.667 1.656 3.438 1.104.771 2.511 1.156 4.219 1.156Zm36.985 6.032c-3.479 0-6.469-.761-8.969-2.282-2.5-1.541-4.416-3.666-5.75-6.375-1.333-2.708-2-5.823-2-9.343 0-3.563.677-6.698 2.031-9.407 1.355-2.708 3.282-4.823 5.782-6.343 2.5-1.542 5.448-2.313 8.843-2.313 2.855 0 5.375.521 7.563 1.563 2.187 1.041 3.927 2.51 5.219 4.406 1.312 1.875 2.062 4.073 2.25 6.594h-7.875a7.953 7.953 0 0 0-1.219-3.032 6.492 6.492 0 0 0-2.375-2.125c-.958-.521-2.104-.781-3.438-.781-1.687 0-3.166.458-4.437 1.375-1.25.896-2.229 2.187-2.938 3.875-.708 1.688-1.062 3.708-1.062 6.062 0 2.376.344 4.428 1.031 6.157.688 1.708 1.667 3.031 2.938 3.969 1.271.916 2.76 1.374 4.468 1.374 1.813 0 3.344-.531 4.594-1.593 1.271-1.063 2.084-2.531 2.438-4.407h7.875c-.188 2.48-.917 4.667-2.188 6.563-1.271 1.896-2.989 3.385-5.156 4.469-2.167 1.062-4.708 1.594-7.625 1.594Zm34.235 0c-3.5 0-6.521-.73-9.063-2.188-2.541-1.479-4.5-3.562-5.875-6.25-1.354-2.688-2.031-5.854-2.031-9.5 0-3.604.677-6.76 2.031-9.469 1.355-2.729 3.261-4.854 5.719-6.375 2.459-1.521 5.354-2.281 8.688-2.281 2.146 0 4.177.344 6.093 1.031a13.975 13.975 0 0 1 5.125 3.188c1.5 1.437 2.678 3.271 3.532 5.5.854 2.208 1.281 4.844 1.281 7.906v2.562h-28.625v-5.531h24.531l-3.844 1.625c0-1.979-.302-3.698-.906-5.156-.604-1.479-1.5-2.635-2.687-3.469-1.188-.833-2.667-1.25-4.438-1.25s-3.281.417-4.531 1.25c-1.25.834-2.198 1.959-2.844 3.375-.646 1.396-.969 2.959-.969 4.688v3.844c0 2.124.365 3.947 1.094 5.468.75 1.5 1.792 2.646 3.125 3.438 1.354.791 2.927 1.187 4.719 1.187 1.167 0 2.229-.166 3.187-.5.98-.333 1.813-.833 2.5-1.5.709-.687 1.25-1.531 1.625-2.531l7.688.906c-.5 2.021-1.427 3.792-2.781 5.313-1.334 1.5-3.052 2.666-5.157 3.5-2.083.812-4.479 1.219-7.187 1.219Z"/>
  <path fill="#9192A1" d="M294.4 229v-14.551h5.098c1.009 0 1.842.176 2.5.528.657.345 1.145.81 1.464 1.396a3.93 3.93 0 0 1 .489 1.943c0 .625-.111 1.143-.332 1.553a2.72 2.72 0 0 1-.869.967c-.358.234-.746.41-1.163.527v.137c.45.026.899.182 1.348.469.449.286.824.693 1.123 1.22.306.528.459 1.176.459 1.944 0 .729-.166 1.387-.498 1.972-.332.58-.856 1.042-1.572 1.387-.71.339-1.641.508-2.793.508H294.4Zm1.758-1.562h3.496c1.152 0 1.969-.225 2.451-.674.488-.45.732-.993.732-1.631 0-.495-.126-.951-.38-1.367a2.744 2.744 0 0 0-1.065-1.006c-.462-.254-1.009-.381-1.64-.381h-3.594v5.059Zm0-6.583h3.281c.527 0 1.006-.104 1.436-.312a2.547 2.547 0 0 0 1.015-.889 2.37 2.37 0 0 0 .381-1.338c0-.638-.221-1.181-.664-1.63-.443-.45-1.146-.674-2.109-.674h-3.34v4.843Zm16.572 3.692v-6.465h1.661V229h-1.661v-1.855h-.117a3.668 3.668 0 0 1-1.201 1.416c-.534.39-1.214.582-2.041.576-.684 0-1.289-.147-1.816-.44-.528-.299-.944-.755-1.25-1.367-.3-.612-.45-1.383-.45-2.314v-6.934h1.661v6.836c0 .788.224 1.419.673 1.894.456.476 1.032.71 1.729.704.417 0 .84-.105 1.269-.313.437-.215.801-.54 1.094-.976.3-.443.449-1.003.449-1.68Zm3.409 4.453v-10.918h1.66V229h-1.66Zm.84-12.734c-.326 0-.606-.111-.84-.332a1.066 1.066 0 0 1-.352-.801c0-.313.118-.58.352-.801.234-.221.514-.332.84-.332.325 0 .605.111.84.332.234.221.351.488.351.801 0 .312-.117.579-.351.801a1.184 1.184 0 0 1-.84.332Zm4.229-1.817V229h-1.66v-14.551h1.66Zm6.475 3.633v1.426h-5.645v-1.426h5.645Zm-4.004-2.598h1.66v10.391c0 .566.117.983.352 1.25.234.26.605.391 1.113.391a3.1 3.1 0 0 0 .342-.02c.123-.013.257-.032.4-.058l.352 1.503a2.738 2.738 0 0 1-.577.137 3.863 3.863 0 0 1-.673.059c-.879 0-1.595-.261-2.149-.782-.547-.52-.82-1.197-.82-2.031v-10.84Zm14.337 2.598v1.426h-5.879v-1.426h5.879ZM333.895 229v-12.422c0-.625.146-1.146.439-1.562.299-.417.684-.73 1.152-.938a3.6 3.6 0 0 1 1.475-.312c.417 0 .755.035 1.016.107.266.065.462.127.585.186l-.488 1.445a3.558 3.558 0 0 0-.351-.108 2.03 2.03 0 0 0-.586-.068c-.554 0-.957.143-1.211.43-.248.28-.371.69-.371 1.23V229h-1.66Zm9.111.234c-.983 0-1.845-.234-2.588-.703-.742-.469-1.321-1.126-1.738-1.972-.41-.847-.615-1.83-.615-2.95 0-1.139.205-2.132.615-2.978.417-.853.996-1.514 1.738-1.983.743-.468 1.605-.703 2.588-.703.99 0 1.856.235 2.598.703.742.469 1.322 1.13 1.738 1.983.417.846.625 1.839.625 2.978 0 1.12-.208 2.103-.625 2.95-.416.846-.996 1.503-1.738 1.972-.742.469-1.608.703-2.598.703Zm0-1.504c.755 0 1.374-.192 1.856-.576.481-.384.84-.888 1.074-1.513a5.804 5.804 0 0 0 .351-2.032c0-.735-.117-1.419-.351-2.05-.234-.632-.593-1.14-1.074-1.524-.482-.39-1.101-.586-1.856-.586-.742 0-1.354.196-1.836.586-.481.384-.84.892-1.074 1.524a5.853 5.853 0 0 0-.351 2.05c0 .723.117 1.4.351 2.032a3.428 3.428 0 0 0 1.074 1.513c.482.384 1.094.576 1.836.576Zm6.182 1.27v-10.918h1.602v1.66h.117c.202-.54.563-.976 1.084-1.308a3.2 3.2 0 0 1 1.768-.508c.123 0 .276.003.459.01.182 0 .322.003.419.009v1.7a5.523 5.523 0 0 0-.39-.059 5.058 5.058 0 0 0-.645-.039c-.527 0-.999.111-1.416.332a2.556 2.556 0 0 0-.986.908 2.484 2.484 0 0 0-.352 1.318V229h-1.66Zm15.235-10.918v1.426h-5.878v-1.426h5.878ZM360.302 229v-12.422c0-.625.147-1.146.44-1.562.299-.417.683-.73 1.152-.938.469-.208.96-.312 1.475-.312.416 0 .755.035 1.015.107.267.065.463.127.586.186l-.488 1.445a3.592 3.592 0 0 0-.352-.108 2.018 2.018 0 0 0-.585-.068c-.554 0-.958.143-1.211.43-.248.28-.372.69-.372 1.23V229h-1.66Zm5.147 0v-10.918h1.602v1.66h.117c.202-.54.563-.976 1.084-1.308a3.198 3.198 0 0 1 1.768-.508c.123 0 .276.003.459.01.182 0 .322.003.419.009v1.7a5.523 5.523 0 0 0-.39-.059 5.058 5.058 0 0 0-.645-.039c-.527 0-.999.111-1.416.332a2.556 2.556 0 0 0-.986.908 2.484 2.484 0 0 0-.352 1.318V229h-1.66Zm10.342.234c-1.048 0-1.956-.234-2.724-.703a4.636 4.636 0 0 1-1.758-1.963c-.41-.846-.615-1.826-.615-2.939 0-1.12.202-2.106.605-2.959.404-.853.97-1.52 1.699-2.002.736-.482 1.595-.723 2.579-.723.566 0 1.129.095 1.689.284a4.17 4.17 0 0 1 1.523.917c.463.424.831.984 1.104 1.68.273.697.41 1.553.41 2.569v.722h-8.418v-1.445h7.51l-.772.547c0-.729-.114-1.377-.341-1.944-.228-.566-.57-1.012-1.026-1.337-.449-.326-1.009-.489-1.679-.489-.671 0-1.247.166-1.729.498-.475.326-.84.752-1.094 1.28a3.861 3.861 0 0 0-.381 1.699v.957c0 .827.144 1.527.43 2.099.287.573.687 1.01 1.201 1.309.515.293 1.11.439 1.787.439.437 0 .834-.061 1.192-.185a2.57 2.57 0 0 0 .928-.576c.26-.261.459-.58.595-.957l1.621.468a3.563 3.563 0 0 1-.859 1.446c-.397.41-.892.732-1.484.967-.593.227-1.257.341-1.993.341Zm10.264 0c-1.048 0-1.956-.234-2.724-.703a4.636 4.636 0 0 1-1.758-1.963c-.41-.846-.615-1.826-.615-2.939 0-1.12.202-2.106.605-2.959.404-.853.97-1.52 1.699-2.002.736-.482 1.596-.723 2.579-.723.566 0 1.129.095 1.689.284.56.188 1.068.494 1.524.917.462.424.83.984 1.103 1.68.273.697.41 1.553.41 2.569v.722h-8.418v-1.445h7.51l-.772.547c0-.729-.113-1.377-.341-1.944-.228-.566-.57-1.012-1.026-1.337-.449-.326-1.009-.489-1.679-.489-.671 0-1.247.166-1.729.498-.475.326-.84.752-1.094 1.28a3.861 3.861 0 0 0-.381 1.699v.957c0 .827.144 1.527.43 2.099.287.573.687 1.01 1.201 1.309.515.293 1.11.439 1.787.439.437 0 .834-.061 1.192-.185a2.57 2.57 0 0 0 .928-.576c.26-.261.459-.58.595-.957l1.621.468a3.563 3.563 0 0 1-.859 1.446c-.397.41-.892.732-1.484.967-.593.227-1.257.341-1.993.341Zm7.354-14.785V229h-1.66v-14.551h1.66Zm4.952 14.805c-.69 0-1.318-.13-1.885-.391a3.235 3.235 0 0 1-1.347-1.152c-.333-.501-.499-1.107-.499-1.816 0-.625.124-1.13.372-1.514.247-.391.576-.697.986-.918a5.205 5.205 0 0 1 1.367-.508 17.299 17.299 0 0 1 1.514-.264c.664-.084 1.201-.149 1.611-.195.417-.045.719-.124.908-.234.196-.111.293-.3.293-.567v-.058c0-.697-.192-1.237-.576-1.621-.378-.391-.954-.586-1.728-.586-.795 0-1.42.175-1.875.527-.456.345-.775.716-.957 1.113l-1.602-.566c.286-.664.667-1.182 1.143-1.553a4.406 4.406 0 0 1 1.562-.781 6.503 6.503 0 0 1 1.67-.225c.352 0 .755.043 1.211.127a3.79 3.79 0 0 1 1.328.508c.436.254.794.641 1.074 1.162.287.515.43 1.205.43 2.07V229h-1.68v-1.484h-.078c-.111.234-.299.488-.566.761-.267.267-.622.498-1.065.694-.436.189-.973.283-1.611.283Zm.254-1.504c.664 0 1.224-.13 1.68-.391.455-.26.8-.595 1.035-1.005a2.62 2.62 0 0 0 .351-1.299v-1.543c-.071.084-.228.162-.469.234a7.975 7.975 0 0 1-.82.176c-.306.052-.605.098-.898.137l-.703.078a6.286 6.286 0 0 0-1.221.283 2.157 2.157 0 0 0-.918.557c-.228.247-.342.585-.342 1.015 0 .58.215 1.019.645 1.319.436.293.989.439 1.66.439Zm8.155-5.312V229h-1.661v-10.918h1.602v1.719h.156a3.112 3.112 0 0 1 1.162-1.348c.521-.338 1.195-.508 2.022-.508.735 0 1.38.15 1.933.45.554.299.983.755 1.289 1.367.313.605.469 1.373.469 2.304V229h-1.66v-6.816c0-.853-.225-1.521-.674-2.002-.449-.489-1.061-.733-1.836-.733-.534 0-1.012.117-1.435.352a2.559 2.559 0 0 0-1.006 1.015c-.241.443-.361.983-.361 1.622Zm13.135 6.796c-1.016 0-1.895-.241-2.637-.722-.736-.489-1.305-1.156-1.709-2.002-.397-.847-.596-1.813-.596-2.901 0-1.113.205-2.093.616-2.939.41-.853.983-1.52 1.718-2.002.742-.482 1.605-.723 2.588-.723.768 0 1.458.144 2.07.43a3.86 3.86 0 0 1 1.514 1.191c.397.515.641 1.114.733 1.797h-1.68a2.63 2.63 0 0 0-.459-.937 2.352 2.352 0 0 0-.879-.703c-.358-.183-.785-.274-1.279-.274-.651 0-1.221.169-1.709.508-.489.339-.869.817-1.143 1.436-.273.612-.41 1.331-.41 2.158 0 .84.133 1.575.4 2.207.267.625.645 1.11 1.133 1.455.495.345 1.071.517 1.729.517.657 0 1.22-.169 1.689-.507.469-.345.778-.814.928-1.407h1.68a3.797 3.797 0 0 1-.704 1.739 3.968 3.968 0 0 1-1.474 1.23c-.606.3-1.312.449-2.119.449Zm10.049 0c-1.048 0-1.956-.234-2.725-.703a4.649 4.649 0 0 1-1.758-1.963c-.41-.846-.615-1.826-.615-2.939 0-1.12.202-2.106.606-2.959.403-.853.97-1.52 1.699-2.002.736-.482 1.595-.723 2.578-.723.566 0 1.13.095 1.69.284a4.187 4.187 0 0 1 1.523.917c.462.424.83.984 1.103 1.68.274.697.411 1.553.411 2.569v.722h-8.418v-1.445h7.509l-.771.547c0-.729-.114-1.377-.342-1.944-.228-.566-.57-1.012-1.025-1.337-.449-.326-1.009-.489-1.68-.489s-1.247.166-1.728.498c-.476.326-.84.752-1.094 1.28a3.861 3.861 0 0 0-.381 1.699v.957c0 .827.143 1.527.43 2.099.286.573.686 1.01 1.201 1.309.514.293 1.11.439 1.787.439a3.62 3.62 0 0 0 1.191-.185c.358-.13.668-.322.928-.576.26-.261.459-.58.596-.957l1.621.468a3.565 3.565 0 0 1-.86 1.446c-.397.41-.891.732-1.484.967-.592.227-1.256.341-1.992.341Zm5.694-.234v-10.918h1.601v1.66h.117c.202-.54.564-.976 1.084-1.308a3.202 3.202 0 0 1 1.768-.508c.124 0 .277.003.459.01.182 0 .322.003.42.009v1.7a5.693 5.693 0 0 0-1.035-.098c-.528 0-1 .111-1.416.332a2.552 2.552 0 0 0-.987.908 2.483 2.483 0 0 0-.351 1.318V229h-1.66Zm13.818-8.457-1.504.41c-.143-.371-.39-.723-.742-1.055-.345-.338-.885-.507-1.621-.507-.664 0-1.217.156-1.66.468-.443.306-.664.69-.664 1.153 0 .416.15.748.449.996.306.247.781.449 1.426.605l1.621.391c.97.234 1.693.596 2.168 1.084.482.488.723 1.11.723 1.865 0 .625-.179 1.185-.537 1.68-.358.495-.857.885-1.495 1.172-.638.286-1.38.429-2.226.429-1.113 0-2.035-.244-2.764-.732-.722-.488-1.181-1.195-1.377-2.119l1.582-.391c.15.586.437 1.026.86 1.319.429.293.989.439 1.679.439.775 0 1.394-.166 1.856-.498.469-.339.703-.739.703-1.201 0-.768-.54-1.283-1.621-1.543l-1.817-.43c-1.002-.241-1.738-.609-2.207-1.103-.468-.495-.703-1.117-.703-1.866 0-.618.173-1.165.518-1.64.351-.476.83-.847 1.435-1.114.606-.273 1.289-.41 2.051-.41 1.087 0 1.937.241 2.549.723a3.842 3.842 0 0 1 1.318 1.875Zm1.104 11.914.86-5.488h1.933l-1.504 5.488h-1.289Zm16.915-11.914-1.504.41c-.143-.371-.39-.723-.742-1.055-.345-.338-.885-.507-1.621-.507-.664 0-1.217.156-1.66.468-.443.306-.664.69-.664 1.153 0 .416.149.748.449.996.306.247.781.449 1.426.605l1.621.391c.97.234 1.693.596 2.168 1.084.482.488.722 1.11.722 1.865 0 .625-.179 1.185-.537 1.68-.358.495-.856.885-1.494 1.172-.638.286-1.38.429-2.226.429-1.114 0-2.035-.244-2.764-.732-.723-.488-1.182-1.195-1.377-2.119l1.582-.391c.15.586.436 1.026.859 1.319.43.293.99.439 1.68.439.775 0 1.393-.166 1.856-.498.468-.339.703-.739.703-1.201 0-.768-.541-1.283-1.621-1.543l-1.817-.43c-1.002-.241-1.738-.609-2.207-1.103-.469-.495-.703-1.117-.703-1.866 0-.618.173-1.165.518-1.64.351-.476.83-.847 1.435-1.114.606-.273 1.289-.41 2.051-.41 1.087 0 1.937.241 2.549.723a3.849 3.849 0 0 1 1.318 1.875Zm5.967 8.691c-1.048 0-1.956-.234-2.724-.703a4.636 4.636 0 0 1-1.758-1.963c-.41-.846-.615-1.826-.615-2.939 0-1.12.201-2.106.605-2.959.404-.853.97-1.52 1.699-2.002.736-.482 1.595-.723 2.578-.723.567 0 1.13.095 1.69.284a4.17 4.17 0 0 1 1.523.917c.463.424.83.984 1.104 1.68.273.697.41 1.553.41 2.569v.722h-8.418v-1.445h7.51l-.772.547c0-.729-.114-1.377-.341-1.944-.228-.566-.57-1.012-1.026-1.337-.449-.326-1.009-.489-1.68-.489-.67 0-1.246.166-1.728.498-.475.326-.84.752-1.094 1.28a3.861 3.861 0 0 0-.381 1.699v.957c0 .827.144 1.527.43 2.099.287.573.687 1.01 1.201 1.309.515.293 1.11.439 1.787.439.437 0 .834-.061 1.192-.185.358-.13.667-.322.927-.576.261-.261.459-.58.596-.957l1.621.468a3.563 3.563 0 0 1-.859 1.446c-.397.41-.892.732-1.484.967-.593.227-1.257.341-1.993.341Zm7.354-14.785V229h-1.66v-14.551h1.66Zm6.592 3.633v1.426h-5.878v-1.426h5.878ZM483.277 229v-12.422c0-.625.147-1.146.44-1.562.299-.417.683-.73 1.152-.938.469-.208.96-.312 1.475-.312.416 0 .755.035 1.015.107.267.065.463.127.586.186l-.488 1.445a3.592 3.592 0 0 0-.352-.108 2.018 2.018 0 0 0-.585-.068c-.554 0-.958.143-1.211.43-.248.28-.371.69-.371 1.23V229h-1.661Zm10.811-7.012v1.563h-6.367v-1.563h6.367Zm6.182 7.246c-1.048 0-1.956-.234-2.724-.703a4.636 4.636 0 0 1-1.758-1.963c-.41-.846-.615-1.826-.615-2.939 0-1.12.201-2.106.605-2.959.404-.853.97-1.52 1.699-2.002.736-.482 1.595-.723 2.578-.723.567 0 1.13.095 1.69.284a4.17 4.17 0 0 1 1.523.917c.463.424.83.984 1.104 1.68.273.697.41 1.553.41 2.569v.722h-8.418v-1.445h7.51l-.772.547c0-.729-.114-1.377-.341-1.944-.228-.566-.57-1.012-1.026-1.337-.449-.326-1.009-.489-1.68-.489-.67 0-1.246.166-1.728.498-.475.326-.84.752-1.094 1.28a3.861 3.861 0 0 0-.381 1.699v.957c0 .827.144 1.527.43 2.099.286.573.687 1.01 1.201 1.309.515.293 1.11.439 1.787.439.437 0 .834-.061 1.192-.185.358-.13.667-.322.927-.576.261-.261.459-.58.596-.957l1.621.468a3.563 3.563 0 0 1-.859 1.446c-.397.41-.892.732-1.485.967-.592.227-1.256.341-1.992.341Zm5.694-.234v-10.918h1.602v1.719h.156a2.77 2.77 0 0 1 1.103-1.367c.508-.326 1.117-.489 1.827-.489.716 0 1.311.163 1.787.489.481.325.856.781 1.123 1.367h.117a3.252 3.252 0 0 1 1.26-1.348c.56-.338 1.227-.508 2.002-.508.976 0 1.777.306 2.402.918.625.606.937 1.55.937 2.832V229h-1.679v-7.305c0-.807-.222-1.383-.664-1.728-.443-.345-.964-.518-1.563-.518-.762 0-1.354.235-1.777.703-.417.463-.625 1.042-.625 1.739V229h-1.719v-7.48c0-.619-.198-1.117-.596-1.495-.397-.384-.914-.576-1.552-.576-.437 0-.843.117-1.221.352a2.66 2.66 0 0 0-.918.967c-.228.41-.342.882-.342 1.416V229h-1.66Zm16.065 4.082v-15h1.601v1.738h.196c.123-.188.296-.429.517-.722.222-.3.541-.567.957-.801.417-.235.98-.352 1.69-.352.918 0 1.725.231 2.422.694.696.455 1.24 1.106 1.631 1.953.397.84.595 1.832.595 2.978 0 1.153-.195 2.155-.586 3.008-.39.846-.934 1.501-1.631 1.963-.696.462-1.5.693-2.412.693-.696 0-1.256-.117-1.679-.351-.423-.241-.749-.511-.977-.811a12.116 12.116 0 0 1-.527-.752h-.137v5.762h-1.66Zm4.766-5.352c.696 0 1.279-.185 1.748-.556.468-.378.82-.882 1.054-1.514.241-.631.362-1.334.362-2.109 0-.768-.118-1.462-.352-2.08-.234-.619-.586-1.11-1.055-1.475-.462-.364-1.048-.547-1.757-.547-.684 0-1.257.173-1.719.518-.462.338-.814.817-1.055 1.435-.234.612-.351 1.328-.351 2.149 0 .82.12 1.546.361 2.178.241.625.592 1.116 1.055 1.474.468.352 1.038.527 1.709.527Zm7.725-13.281V229h-1.661v-14.551h1.661Zm6.162 14.785c-.983 0-1.846-.234-2.588-.703s-1.321-1.126-1.738-1.972c-.41-.847-.615-1.83-.615-2.95 0-1.139.205-2.132.615-2.978.417-.853.996-1.514 1.738-1.983.742-.468 1.605-.703 2.588-.703.99 0 1.855.235 2.598.703.742.469 1.321 1.13 1.738 1.983.417.846.625 1.839.625 2.978 0 1.12-.208 2.103-.625 2.95-.417.846-.996 1.503-1.738 1.972-.743.469-1.608.703-2.598.703Zm0-1.504c.755 0 1.374-.192 1.855-.576.482-.384.84-.888 1.075-1.513a5.804 5.804 0 0 0 .351-2.032c0-.735-.117-1.419-.351-2.05-.235-.632-.593-1.14-1.075-1.524-.481-.39-1.1-.586-1.855-.586-.742 0-1.354.196-1.836.586-.482.384-.84.892-1.074 1.524a5.83 5.83 0 0 0-.352 2.05c0 .723.117 1.4.352 2.032a3.42 3.42 0 0 0 1.074 1.513c.482.384 1.094.576 1.836.576Zm6.866 5.352a3.36 3.36 0 0 1-.762-.059 2.122 2.122 0 0 1-.469-.136l.43-1.465.166.039c.56.13 1.029.101 1.406-.088.384-.182.72-.667 1.006-1.455l.313-.859-4.024-10.977h1.816l3.008 8.711h.117l3.008-8.711h1.817l-4.629 12.5c-.209.566-.466 1.035-.772 1.406s-.66.645-1.064.821c-.404.182-.86.273-1.367.273Zm12.9-3.848c-1.048 0-1.956-.234-2.724-.703a4.636 4.636 0 0 1-1.758-1.963c-.41-.846-.615-1.826-.615-2.939 0-1.12.202-2.106.605-2.959.404-.853.97-1.52 1.699-2.002.736-.482 1.596-.723 2.579-.723.566 0 1.129.095 1.689.284a4.17 4.17 0 0 1 1.523.917c.463.424.831.984 1.104 1.68.273.697.41 1.553.41 2.569v.722h-8.418v-1.445h7.51l-.772.547c0-.729-.113-1.377-.341-1.944-.228-.566-.57-1.012-1.026-1.337-.449-.326-1.009-.489-1.679-.489-.671 0-1.247.166-1.729.498-.475.326-.84.752-1.094 1.28a3.861 3.861 0 0 0-.381 1.699v.957c0 .827.144 1.527.43 2.099.287.573.687 1.01 1.201 1.309.515.293 1.11.439 1.787.439.437 0 .834-.061 1.192-.185a2.57 2.57 0 0 0 .928-.576c.26-.261.459-.58.595-.957l1.621.468a3.563 3.563 0 0 1-.859 1.446c-.397.41-.892.732-1.484.967-.593.227-1.257.341-1.993.341Zm9.796 0c-.912 0-1.716-.231-2.412-.693-.697-.462-1.241-1.117-1.631-1.963-.391-.853-.586-1.855-.586-3.008 0-1.146.195-2.138.586-2.978.397-.847.944-1.498 1.64-1.953.697-.463 1.504-.694 2.422-.694.716 0 1.28.117 1.69.352.416.234.735.501.957.801.221.293.394.534.517.722h.137v-5.371h1.66V229h-1.601v-1.68h-.196c-.123.196-.299.446-.527.752-.228.3-.553.57-.977.811-.416.234-.976.351-1.679.351Zm.215-1.504c.677 0 1.246-.175 1.709-.527.462-.358.813-.849 1.054-1.474.241-.632.362-1.358.362-2.178 0-.821-.118-1.537-.352-2.149-.234-.618-.586-1.097-1.055-1.435-.462-.345-1.035-.518-1.718-.518-.704 0-1.289.183-1.758.547-.469.365-.821.856-1.055 1.475-.234.618-.351 1.312-.351 2.08 0 .775.117 1.478.351 2.109.241.632.596 1.136 1.065 1.514.468.371 1.051.556 1.748.556Zm6.221 4.727.859-5.488h1.934l-1.504 5.488h-1.289Zm12.403-3.203a4.45 4.45 0 0 1-1.885-.391 3.238 3.238 0 0 1-1.348-1.152c-.332-.501-.498-1.107-.498-1.816 0-.625.124-1.13.371-1.514.248-.391.577-.697.987-.918a5.192 5.192 0 0 1 1.367-.508 17.299 17.299 0 0 1 1.514-.264c.664-.084 1.201-.149 1.611-.195.417-.045.719-.124.908-.234.195-.111.293-.3.293-.567v-.058c0-.697-.192-1.237-.576-1.621-.378-.391-.954-.586-1.729-.586-.794 0-1.419.175-1.875.527-.455.345-.774.716-.957 1.113l-1.601-.566c.286-.664.667-1.182 1.142-1.553a4.419 4.419 0 0 1 1.563-.781 6.503 6.503 0 0 1 1.67-.225c.351 0 .755.043 1.211.127.455.078.898.248 1.328.508.436.254.794.641 1.074 1.162.287.515.43 1.205.43 2.07V229h-1.68v-1.484h-.078c-.111.234-.299.488-.566.761-.267.267-.622.498-1.065.694-.436.189-.973.283-1.611.283Zm.254-1.504c.664 0 1.224-.13 1.679-.391.456-.26.801-.595 1.036-1.005a2.62 2.62 0 0 0 .351-1.299v-1.543c-.072.084-.228.162-.469.234a7.975 7.975 0 0 1-.82.176c-.306.052-.605.098-.898.137a172 172 0 0 0-.704.078 6.276 6.276 0 0 0-1.22.283 2.157 2.157 0 0 0-.918.557c-.228.247-.342.585-.342 1.015 0 .58.215 1.019.645 1.319.436.293.989.439 1.66.439Zm8.154-5.312V229h-1.66v-10.918h1.602v1.719h.156a3.112 3.112 0 0 1 1.162-1.348c.521-.338 1.195-.508 2.022-.508.735 0 1.38.15 1.933.45.554.299.983.755 1.289 1.367.313.605.469 1.373.469 2.304V229h-1.66v-6.816c0-.853-.225-1.521-.674-2.002-.449-.489-1.061-.733-1.836-.733-.534 0-1.012.117-1.435.352a2.552 2.552 0 0 0-1.006 1.015c-.241.443-.362.983-.362 1.622Zm12.823 6.796c-.911 0-1.715-.231-2.412-.693-.697-.462-1.24-1.117-1.631-1.963-.391-.853-.586-1.855-.586-3.008 0-1.146.195-2.138.586-2.978.397-.847.944-1.498 1.641-1.953.696-.463 1.504-.694 2.422-.694.716 0 1.279.117 1.689.352.417.234.736.501.957.801.221.293.394.534.518.722h.136v-5.371h1.661V229h-1.602v-1.68h-.195c-.124.196-.3.446-.528.752-.228.3-.553.57-.976.811-.417.234-.977.351-1.68.351Zm.215-1.504c.677 0 1.247-.175 1.709-.527.462-.358.814-.849 1.055-1.474.24-.632.361-1.358.361-2.178 0-.821-.117-1.537-.352-2.149-.234-.618-.586-1.097-1.054-1.435-.463-.345-1.036-.518-1.719-.518-.703 0-1.289.183-1.758.547-.469.365-.82.856-1.055 1.475-.234.618-.351 1.312-.351 2.08 0 .775.117 1.478.351 2.109.241.632.596 1.136 1.065 1.514.469.371 1.051.556 1.748.556Zm18.516-7.187-1.504.41c-.143-.371-.39-.723-.742-1.055-.345-.338-.885-.507-1.621-.507-.664 0-1.217.156-1.66.468-.443.306-.664.69-.664 1.153 0 .416.15.748.449.996.306.247.781.449 1.426.605l1.621.391c.97.234 1.693.596 2.168 1.084.482.488.723 1.11.723 1.865 0 .625-.179 1.185-.537 1.68-.359.495-.857.885-1.495 1.172-.638.286-1.38.429-2.226.429-1.113 0-2.035-.244-2.764-.732-.723-.488-1.181-1.195-1.377-2.119l1.582-.391c.15.586.436 1.026.86 1.319.429.293.989.439 1.679.439.775 0 1.394-.166 1.856-.498.469-.339.703-.739.703-1.201 0-.768-.54-1.283-1.621-1.543l-1.817-.43c-1.002-.241-1.738-.609-2.207-1.103-.468-.495-.703-1.117-.703-1.866 0-.618.173-1.165.518-1.64.351-.476.83-.847 1.435-1.114.606-.273 1.289-.41 2.051-.41 1.087 0 1.937.241 2.549.723a3.849 3.849 0 0 1 1.318 1.875Zm1.397 8.457v-10.918h1.602v1.719h.156a2.77 2.77 0 0 1 1.103-1.367c.508-.326 1.117-.489 1.827-.489.716 0 1.312.163 1.787.489.482.325.856.781 1.123 1.367h.117a3.252 3.252 0 0 1 1.26-1.348c.56-.338 1.227-.508 2.002-.508.976 0 1.777.306 2.402.918.625.606.938 1.55.938 2.832V229h-1.68v-7.305c0-.807-.221-1.383-.664-1.728-.443-.345-.964-.518-1.563-.518-.761 0-1.354.235-1.777.703-.417.463-.625 1.042-.625 1.739V229h-1.719v-7.48c0-.619-.198-1.117-.595-1.495-.398-.384-.915-.576-1.553-.576a2.27 2.27 0 0 0-1.221.352 2.66 2.66 0 0 0-.918.967c-.228.41-.342.882-.342 1.416V229h-1.66Zm19.268.254c-.69 0-1.318-.13-1.885-.391a3.235 3.235 0 0 1-1.347-1.152c-.332-.501-.498-1.107-.498-1.816 0-.625.123-1.13.371-1.514.247-.391.576-.697.986-.918a5.205 5.205 0 0 1 1.367-.508 17.364 17.364 0 0 1 1.514-.264c.664-.084 1.201-.149 1.611-.195.417-.045.72-.124.908-.234.196-.111.293-.3.293-.567v-.058c0-.697-.192-1.237-.576-1.621-.377-.391-.953-.586-1.728-.586-.795 0-1.42.175-1.875.527-.456.345-.775.716-.957 1.113l-1.602-.566c.287-.664.667-1.182 1.143-1.553a4.414 4.414 0 0 1 1.562-.781 6.509 6.509 0 0 1 1.67-.225c.352 0 .755.043 1.211.127.456.078.899.248 1.328.508.436.254.795.641 1.074 1.162.287.515.43 1.205.43 2.07V229h-1.68v-1.484h-.078c-.11.234-.299.488-.566.761-.267.267-.622.498-1.065.694-.436.189-.973.283-1.611.283Zm.254-1.504c.664 0 1.224-.13 1.68-.391a2.7 2.7 0 0 0 1.035-1.005 2.62 2.62 0 0 0 .351-1.299v-1.543c-.071.084-.227.162-.468.234a8.057 8.057 0 0 1-.821.176c-.306.052-.605.098-.898.137l-.703.078a6.303 6.303 0 0 0-1.221.283 2.17 2.17 0 0 0-.918.557c-.228.247-.342.585-.342 1.015 0 .58.215 1.019.645 1.319.436.293.989.439 1.66.439Zm8.155-13.301V229h-1.66v-14.551h1.66Zm3.408 0V229h-1.66v-14.551h1.66ZM358.52 257.234c-.697 0-1.257-.117-1.68-.351-.423-.241-.748-.511-.976-.811a12.66 12.66 0 0 1-.528-.752h-.195V257h-1.602v-14.551h1.661v5.371h.136c.124-.188.297-.429.518-.722.221-.3.54-.567.957-.801.417-.235.98-.352 1.689-.352.918 0 1.726.231 2.422.694.697.455 1.24 1.106 1.631 1.953.397.84.596 1.832.596 2.978 0 1.153-.195 2.155-.586 3.008-.391.846-.934 1.501-1.631 1.963-.697.462-1.501.693-2.412.693Zm-.215-1.504c.697 0 1.279-.185 1.748-.556.469-.378.82-.882 1.055-1.514.241-.631.361-1.334.361-2.109 0-.768-.117-1.462-.351-2.08-.235-.619-.586-1.11-1.055-1.475-.462-.364-1.048-.547-1.758-.547-.684 0-1.256.173-1.719.518-.462.338-.813.817-1.054 1.435-.235.612-.352 1.328-.352 2.149 0 .82.121 1.546.361 2.178.241.625.593 1.116 1.055 1.474.469.352 1.039.527 1.709.527Zm12.94-3.183v-6.465h1.66V257h-1.66v-1.855h-.117a3.676 3.676 0 0 1-1.201 1.416c-.534.39-1.215.582-2.041.576-.684 0-1.29-.147-1.817-.44-.527-.299-.944-.755-1.25-1.367-.299-.612-.449-1.383-.449-2.314v-6.934h1.66v6.836c0 .788.225 1.419.674 1.894.456.476 1.032.71 1.728.704.417 0 .84-.105 1.27-.313.436-.215.801-.54 1.094-.976.299-.443.449-1.003.449-1.68Zm11.123-4.004-1.504.41c-.143-.371-.39-.723-.742-1.055-.345-.338-.885-.507-1.621-.507-.664 0-1.217.156-1.66.468-.443.306-.664.69-.664 1.153 0 .416.15.748.449.996.306.247.781.449 1.426.605l1.621.391c.97.234 1.693.596 2.168 1.084.482.488.723 1.11.723 1.865 0 .625-.179 1.185-.537 1.68-.359.495-.857.885-1.495 1.172-.638.286-1.38.429-2.226.429-1.113 0-2.035-.244-2.764-.732-.722-.488-1.181-1.195-1.377-2.119l1.582-.391c.15.586.436 1.026.86 1.319.429.293.989.439 1.679.439.775 0 1.394-.166 1.856-.498.469-.339.703-.739.703-1.201 0-.768-.54-1.283-1.621-1.543l-1.817-.43c-1.002-.241-1.738-.609-2.207-1.103-.468-.495-.703-1.117-.703-1.866 0-.618.173-1.165.518-1.64.351-.476.83-.847 1.435-1.114.606-.273 1.289-.41 2.051-.41 1.087 0 1.937.241 2.549.723a3.849 3.849 0 0 1 1.318 1.875Zm1.397 8.457v-10.918h1.66V257h-1.66Zm.84-12.734c-.325 0-.605-.111-.84-.332a1.065 1.065 0 0 1-.351-.801c0-.313.117-.58.351-.801.235-.221.515-.332.84-.332.326 0 .606.111.84.332.234.221.351.488.351.801 0 .312-.117.579-.351.801a1.181 1.181 0 0 1-.84.332Zm4.229 6.172V257h-1.66v-10.918h1.601v1.719h.157a3.112 3.112 0 0 1 1.162-1.348c.521-.338 1.194-.508 2.021-.508.736 0 1.38.15 1.934.45.553.299.983.755 1.289 1.367.312.605.469 1.373.469 2.304V257h-1.661v-6.816c0-.853-.224-1.521-.673-2.002-.45-.489-1.062-.733-1.836-.733-.534 0-1.013.117-1.436.352a2.565 2.565 0 0 0-1.006 1.015c-.241.443-.361.983-.361 1.622Zm13.291 6.796c-1.048 0-1.956-.234-2.724-.703a4.636 4.636 0 0 1-1.758-1.963c-.41-.846-.615-1.826-.615-2.939 0-1.12.202-2.106.605-2.959.404-.853.97-1.52 1.699-2.002.736-.482 1.595-.723 2.579-.723.566 0 1.129.095 1.689.284a4.17 4.17 0 0 1 1.523.917c.463.424.831.984 1.104 1.68.273.697.41 1.553.41 2.569v.722h-8.418v-1.445h7.51l-.772.547c0-.729-.114-1.377-.341-1.944-.228-.566-.57-1.012-1.026-1.337-.449-.326-1.009-.489-1.679-.489-.671 0-1.247.166-1.729.498-.475.326-.84.752-1.094 1.28a3.861 3.861 0 0 0-.381 1.699v.957c0 .827.144 1.527.43 2.099.287.573.687 1.01 1.201 1.309.515.293 1.11.439 1.787.439.437 0 .834-.061 1.192-.185a2.57 2.57 0 0 0 .928-.576c.26-.261.459-.58.595-.957l1.621.468a3.563 3.563 0 0 1-.859 1.446c-.397.41-.892.732-1.484.967-.593.227-1.257.341-1.993.341Zm13.409-8.691-1.504.41c-.143-.371-.391-.723-.742-1.055-.345-.338-.886-.507-1.621-.507-.664 0-1.218.156-1.66.468-.443.306-.664.69-.664 1.153 0 .416.149.748.449.996.306.247.781.449 1.426.605l1.621.391c.97.234 1.692.596 2.168 1.084.481.488.722 1.11.722 1.865 0 .625-.179 1.185-.537 1.68-.358.495-.856.885-1.494 1.172-.638.286-1.38.429-2.227.429-1.113 0-2.034-.244-2.763-.732-.723-.488-1.182-1.195-1.377-2.119l1.582-.391c.15.586.436 1.026.859 1.319.43.293.99.439 1.68.439.775 0 1.393-.166 1.855-.498.469-.339.704-.739.704-1.201 0-.768-.541-1.283-1.622-1.543l-1.816-.43c-1.003-.241-1.738-.609-2.207-1.103-.469-.495-.703-1.117-.703-1.866 0-.618.172-1.165.517-1.64.352-.476.831-.847 1.436-1.114.605-.273 1.289-.41 2.051-.41 1.087 0 1.937.241 2.549.723a3.849 3.849 0 0 1 1.318 1.875Zm9.112 0-1.504.41c-.143-.371-.391-.723-.742-1.055-.345-.338-.886-.507-1.621-.507-.665 0-1.218.156-1.661.468-.442.306-.664.69-.664 1.153 0 .416.15.748.45.996.306.247.781.449 1.425.605l1.621.391c.97.234 1.693.596 2.168 1.084.482.488.723 1.11.723 1.865 0 .625-.179 1.185-.537 1.68-.358.495-.856.885-1.494 1.172-.638.286-1.38.429-2.227.429-1.113 0-2.034-.244-2.763-.732-.723-.488-1.182-1.195-1.377-2.119l1.582-.391c.149.586.436 1.026.859 1.319.43.293.99.439 1.68.439.774 0 1.393-.166 1.855-.498.469-.339.703-.739.703-1.201 0-.768-.54-1.283-1.621-1.543l-1.816-.43c-1.003-.241-1.739-.609-2.207-1.103-.469-.495-.703-1.117-.703-1.866 0-.618.172-1.165.517-1.64.352-.476.83-.847 1.436-1.114.605-.273 1.289-.41 2.051-.41 1.087 0 1.936.241 2.548.723a3.85 3.85 0 0 1 1.319 1.875Zm5.967 8.691c-1.048 0-1.956-.234-2.725-.703a4.649 4.649 0 0 1-1.758-1.963c-.41-.846-.615-1.826-.615-2.939 0-1.12.202-2.106.606-2.959.403-.853.97-1.52 1.699-2.002.736-.482 1.595-.723 2.578-.723.566 0 1.13.095 1.689.284.56.188 1.068.494 1.524.917.462.424.83.984 1.103 1.68.274.697.411 1.553.411 2.569v.722h-8.418v-1.445h7.509l-.771.547c0-.729-.114-1.377-.342-1.944-.228-.566-.57-1.012-1.025-1.337-.449-.326-1.009-.489-1.68-.489s-1.247.166-1.728.498c-.476.326-.84.752-1.094 1.28a3.861 3.861 0 0 0-.381 1.699v.957c0 .827.143 1.527.43 2.099.286.573.686 1.01 1.201 1.309.514.293 1.11.439 1.787.439a3.62 3.62 0 0 0 1.191-.185c.358-.13.668-.322.928-.576.26-.261.459-.58.596-.957l1.621.468a3.565 3.565 0 0 1-.86 1.446c-.397.41-.891.732-1.484.967-.592.227-1.256.341-1.992.341Zm13.408-8.691-1.503.41c-.144-.371-.391-.723-.743-1.055-.345-.338-.885-.507-1.621-.507-.664 0-1.217.156-1.66.468-.443.306-.664.69-.664 1.153 0 .416.15.748.449.996.306.247.782.449 1.426.605l1.621.391c.97.234 1.693.596 2.168 1.084.482.488.723 1.11.723 1.865 0 .625-.179 1.185-.537 1.68-.358.495-.856.885-1.494 1.172-.638.286-1.381.429-2.227.429-1.113 0-2.035-.244-2.764-.732-.722-.488-1.181-1.195-1.377-2.119l1.582-.391c.15.586.437 1.026.86 1.319.429.293.989.439 1.679.439.775 0 1.394-.166 1.856-.498.469-.339.703-.739.703-1.201 0-.768-.54-1.283-1.621-1.543l-1.816-.43c-1.003-.241-1.739-.609-2.207-1.103-.469-.495-.704-1.117-.704-1.866 0-.618.173-1.165.518-1.64.352-.476.83-.847 1.436-1.114.605-.273 1.289-.41 2.05-.41 1.088 0 1.937.241 2.549.723a3.842 3.842 0 0 1 1.318 1.875Zm5.685 8.457v-10.918h1.66V257h-1.66Zm.84-12.734c-.326 0-.606-.111-.84-.332a1.062 1.062 0 0 1-.352-.801c0-.313.117-.58.352-.801.234-.221.514-.332.84-.332.325 0 .605.111.84.332.234.221.351.488.351.801 0 .312-.117.579-.351.801a1.184 1.184 0 0 1-.84.332Zm4.229 6.172V257h-1.661v-10.918h1.602v1.719h.156a3.118 3.118 0 0 1 1.162-1.348c.521-.338 1.195-.508 2.022-.508.736 0 1.38.15 1.933.45.554.299.984.755 1.29 1.367.312.605.468 1.373.468 2.304V257h-1.66v-6.816c0-.853-.225-1.521-.674-2.002-.449-.489-1.061-.733-1.836-.733-.534 0-1.012.117-1.435.352a2.559 2.559 0 0 0-1.006 1.015c-.241.443-.361.983-.361 1.622Zm17.735-4.356v1.426h-5.645v-1.426h5.645Zm-4.004-2.598h1.66v10.391c0 .566.117.983.352 1.25.234.26.605.391 1.113.391.111 0 .224-.007.342-.02.123-.013.257-.032.4-.058l.352 1.503a2.738 2.738 0 0 1-.577.137 3.871 3.871 0 0 1-.673.059c-.879 0-1.595-.261-2.149-.782-.547-.52-.82-1.197-.82-2.031v-10.84Zm7.1 6.954V257h-1.66v-14.551h1.66v5.352h.156a3.076 3.076 0 0 1 1.143-1.348c.514-.338 1.201-.508 2.06-.508.742 0 1.393.15 1.953.45.56.293.996.745 1.309 1.357.312.605.469 1.377.469 2.314V257h-1.68v-6.816c0-.873-.225-1.547-.674-2.022-.449-.475-1.071-.713-1.865-.713-.553 0-1.045.117-1.475.352a2.61 2.61 0 0 0-1.025 1.015c-.247.443-.371.983-.371 1.622Zm13.408 6.796c-1.048 0-1.956-.234-2.724-.703a4.636 4.636 0 0 1-1.758-1.963c-.41-.846-.615-1.826-.615-2.939 0-1.12.202-2.106.605-2.959.404-.853.97-1.52 1.699-2.002.736-.482 1.596-.723 2.579-.723.566 0 1.129.095 1.689.284.56.188 1.068.494 1.524.917.462.424.83.984 1.103 1.68.273.697.41 1.553.41 2.569v.722h-8.418v-1.445h7.51l-.772.547c0-.729-.113-1.377-.341-1.944-.228-.566-.57-1.012-1.026-1.337-.449-.326-1.009-.489-1.679-.489-.671 0-1.247.166-1.729.498-.475.326-.84.752-1.094 1.28a3.861 3.861 0 0 0-.381 1.699v.957c0 .827.144 1.527.43 2.099.287.573.687 1.01 1.201 1.309.515.293 1.11.439 1.787.439.437 0 .834-.061 1.192-.185a2.57 2.57 0 0 0 .928-.576c.26-.261.459-.58.595-.957l1.621.468a3.563 3.563 0 0 1-.859 1.446c-.397.41-.892.732-1.484.967-.593.227-1.257.341-1.993.341Zm19.747-14.785h1.758v9.629c0 .996-.234 1.885-.703 2.666-.462.775-1.117 1.387-1.963 1.836-.846.449-1.839.674-2.978.674-1.14 0-2.136-.225-2.989-.674-.846-.449-1.504-1.061-1.972-1.836-.469-.781-.703-1.67-.703-2.666v-9.629h1.757v9.492c0 .71.157 1.342.469 1.895.313.553.762.99 1.348 1.309.586.312 1.282.468 2.09.468.807 0 1.5-.156 2.08-.468a3.372 3.372 0 0 0 1.338-1.309c.312-.553.468-1.185.468-1.895v-9.492Zm8.546 14.805c-1.042 0-1.944-.166-2.705-.498-.762-.339-1.361-.807-1.797-1.406-.43-.606-.674-1.306-.733-2.1h1.817c.052.547.237.999.556 1.357.326.358.739.625 1.241.801a4.856 4.856 0 0 0 1.621.264c.67 0 1.272-.111 1.806-.332.541-.222.967-.531 1.28-.928.312-.397.468-.863.468-1.396 0-.482-.136-.873-.41-1.172-.273-.3-.631-.544-1.074-.733a11.31 11.31 0 0 0-1.426-.498l-1.777-.508c-1.139-.325-2.041-.791-2.705-1.396-.658-.612-.987-1.41-.987-2.393 0-.813.219-1.523.655-2.128.442-.612 1.038-1.088 1.787-1.426.755-.339 1.595-.508 2.519-.508.938 0 1.771.169 2.5.508.73.332 1.309.787 1.739 1.367.429.573.657 1.224.683 1.953h-1.719a2.218 2.218 0 0 0-1.035-1.67c-.599-.397-1.341-.596-2.226-.596-.638 0-1.198.105-1.68.313-.482.208-.856.495-1.123.859-.267.365-.4.782-.4 1.25 0 .515.159.931.478 1.25.319.313.697.557 1.133.733.443.175.843.315 1.201.42l1.465.41c.378.104.798.244 1.26.42.469.175.918.413 1.347.713a3.63 3.63 0 0 1 1.075 1.152c.28.462.42 1.035.42 1.719 0 .781-.206 1.491-.616 2.129-.41.631-1.006 1.136-1.787 1.513-.781.371-1.732.557-2.851.557Zm14.981-.059c-.951 0-1.774-.172-2.471-.517-.69-.352-1.224-.834-1.601-1.446-.371-.612-.557-1.311-.557-2.099 0-.606.133-1.14.4-1.602a5.12 5.12 0 0 1 1.084-1.289c.463-.403.983-.82 1.563-1.25l2.109-1.562c.397-.293.72-.586.967-.879.254-.3.381-.697.381-1.192 0-.371-.163-.729-.488-1.074-.319-.351-.743-.527-1.27-.527-.364 0-.69.094-.976.283-.28.182-.502.417-.665.703a1.838 1.838 0 0 0-.234.889c0 .338.094.683.283 1.035.189.352.43.71.723 1.074l.908 1.113 6.68 8.145h-2.031l-5.508-6.641c-.508-.618-.97-1.178-1.387-1.679a8.415 8.415 0 0 1-.996-1.485 3.453 3.453 0 0 1-.371-1.582c0-.657.146-1.233.439-1.728a3.006 3.006 0 0 1 1.231-1.153c.527-.28 1.142-.42 1.845-.42.736 0 1.368.14 1.895.42.527.28.931.651 1.211 1.114.286.462.43.966.43 1.513 0 .69-.176 1.289-.528 1.797-.345.508-.813.983-1.406 1.426l-2.91 2.168c-.651.482-1.091.951-1.318 1.406-.228.456-.342.782-.342.977 0 .456.117.882.351 1.279.241.391.576.71 1.006.957.43.241.934.361 1.514.361.547 0 1.081-.117 1.601-.351.521-.241.99-.583 1.407-1.025a4.912 4.912 0 0 0 1.006-1.602c.253-.632.38-1.338.38-2.119h1.621c0 .963-.11 1.751-.332 2.363-.221.612-.472 1.091-.752 1.436-.279.345-.504.602-.673.771a4.44 4.44 0 0 0-.166.215 4.566 4.566 0 0 1-.147.215 4.366 4.366 0 0 1-1.787 1.181 6.308 6.308 0 0 1-2.119.381Zm17.716 0c-1.237 0-2.341-.302-3.311-.908-.97-.605-1.732-1.465-2.285-2.578-.554-1.12-.83-2.445-.83-3.975 0-1.536.276-2.864.83-3.984.553-1.12 1.315-1.982 2.285-2.588.97-.605 2.074-.908 3.311-.908.729 0 1.416.107 2.06.322a5.718 5.718 0 0 1 1.758.938c.521.403.954.901 1.299 1.494a5.78 5.78 0 0 1 .722 1.992h-1.757a3.69 3.69 0 0 0-1.485-2.305 3.875 3.875 0 0 0-1.211-.595 4.66 4.66 0 0 0-1.386-.205c-.879 0-1.677.224-2.393.673-.716.443-1.286 1.101-1.709 1.973-.417.866-.625 1.93-.625 3.193 0 1.257.208 2.318.625 3.184.423.866.993 1.523 1.709 1.973a4.466 4.466 0 0 0 2.393.664c.481 0 .944-.065 1.386-.196a4.18 4.18 0 0 0 1.211-.595 3.727 3.727 0 0 0 1.485-2.315h1.757a5.781 5.781 0 0 1-.722 2.002 5.308 5.308 0 0 1-1.299 1.494 5.824 5.824 0 0 1-1.758.928 6.465 6.465 0 0 1-2.06.322Zm10.342.059a4.45 4.45 0 0 1-1.885-.391 3.238 3.238 0 0 1-1.348-1.152c-.332-.501-.498-1.107-.498-1.816 0-.625.124-1.13.371-1.514.248-.391.576-.697.987-.918a5.192 5.192 0 0 1 1.367-.508 17.299 17.299 0 0 1 1.514-.264c.664-.084 1.201-.149 1.611-.195.417-.045.719-.124.908-.234.195-.111.293-.3.293-.567v-.058c0-.697-.192-1.237-.576-1.621-.378-.391-.954-.586-1.729-.586-.794 0-1.419.175-1.875.527-.455.345-.774.716-.957 1.113l-1.601-.566c.286-.664.667-1.182 1.142-1.553a4.419 4.419 0 0 1 1.563-.781 6.503 6.503 0 0 1 1.67-.225c.351 0 .755.043 1.211.127.455.078.898.248 1.328.508.436.254.794.641 1.074 1.162.286.515.43 1.205.43 2.07V257h-1.68v-1.484h-.078c-.111.234-.3.488-.567.761-.266.267-.621.498-1.064.694-.436.189-.973.283-1.611.283Zm.254-1.504c.664 0 1.224-.13 1.679-.391.456-.26.801-.595 1.035-1.005a2.61 2.61 0 0 0 .352-1.299v-1.543c-.072.084-.228.162-.469.234a8.033 8.033 0 0 1-.82.176c-.306.052-.606.098-.898.137a172 172 0 0 0-.704.078 6.276 6.276 0 0 0-1.22.283 2.157 2.157 0 0 0-.918.557c-.228.247-.342.585-.342 1.015 0 .58.215 1.019.644 1.319.437.293.99.439 1.661.439Zm8.154-5.312V257h-1.66v-10.918h1.602v1.719h.156a3.112 3.112 0 0 1 1.162-1.348c.521-.338 1.195-.508 2.022-.508.735 0 1.38.15 1.933.45.554.299.983.755 1.289 1.367.313.605.469 1.373.469 2.304V257h-1.66v-6.816c0-.853-.225-1.521-.674-2.002-.449-.489-1.061-.733-1.836-.733a2.91 2.91 0 0 0-1.436.352 2.556 2.556 0 0 0-1.005 1.015c-.241.443-.362.983-.362 1.622Zm11.925 6.816c-.691 0-1.319-.13-1.885-.391a3.232 3.232 0 0 1-1.348-1.152c-.332-.501-.498-1.107-.498-1.816 0-.625.124-1.13.371-1.514a2.62 2.62 0 0 1 .986-.918 5.212 5.212 0 0 1 1.368-.508 17.342 17.342 0 0 1 1.513-.264 119.99 119.99 0 0 1 1.612-.195c.416-.045.719-.124.908-.234.195-.111.293-.3.293-.567v-.058c0-.697-.192-1.237-.576-1.621-.378-.391-.954-.586-1.729-.586-.794 0-1.419.175-1.875.527-.456.345-.775.716-.957 1.113l-1.601-.566c.286-.664.667-1.182 1.142-1.553a4.419 4.419 0 0 1 1.563-.781 6.503 6.503 0 0 1 1.67-.225c.351 0 .755.043 1.21.127.456.078.899.248 1.329.508.436.254.794.641 1.074 1.162.286.515.43 1.205.43 2.07V257h-1.68v-1.484h-.078c-.111.234-.3.488-.567.761-.267.267-.621.498-1.064.694-.436.189-.973.283-1.611.283Zm.253-1.504c.664 0 1.224-.13 1.68-.391.456-.26.801-.595 1.035-1.005a2.61 2.61 0 0 0 .352-1.299v-1.543c-.072.084-.228.162-.469.234a8.033 8.033 0 0 1-.82.176c-.306.052-.606.098-.899.137l-.703.078a6.276 6.276 0 0 0-1.22.283 2.157 2.157 0 0 0-.918.557c-.228.247-.342.585-.342 1.015 0 .58.215 1.019.644 1.319.436.293.99.439 1.66.439Zm10.597 1.484c-.912 0-1.716-.231-2.413-.693-.696-.462-1.24-1.117-1.63-1.963-.391-.853-.586-1.855-.586-3.008 0-1.146.195-2.138.586-2.978.397-.847.944-1.498 1.64-1.953.697-.463 1.504-.694 2.422-.694.716 0 1.279.117 1.689.352.417.234.736.501.958.801.221.293.393.534.517.722h.137v-5.371h1.66V257h-1.602v-1.68h-.195c-.124.196-.299.446-.527.752-.228.3-.554.57-.977.811-.416.234-.976.351-1.679.351Zm.214-1.504c.677 0 1.247-.175 1.709-.527.463-.358.814-.849 1.055-1.474.241-.632.361-1.358.361-2.178 0-.821-.117-1.537-.351-2.149-.235-.618-.586-1.097-1.055-1.435-.462-.345-1.035-.518-1.719-.518-.703 0-1.289.183-1.757.547-.469.365-.821.856-1.055 1.475-.235.618-.352 1.312-.352 2.08 0 .775.117 1.478.352 2.109.241.632.596 1.136 1.064 1.514.469.371 1.052.556 1.748.556Zm9.718 1.524c-.691 0-1.319-.13-1.885-.391a3.232 3.232 0 0 1-1.348-1.152c-.332-.501-.498-1.107-.498-1.816 0-.625.124-1.13.371-1.514a2.62 2.62 0 0 1 .986-.918 5.212 5.212 0 0 1 1.368-.508 17.342 17.342 0 0 1 1.513-.264 119.99 119.99 0 0 1 1.612-.195c.416-.045.719-.124.908-.234.195-.111.293-.3.293-.567v-.058c0-.697-.192-1.237-.576-1.621-.378-.391-.954-.586-1.729-.586-.794 0-1.419.175-1.875.527-.456.345-.775.716-.957 1.113l-1.601-.566c.286-.664.667-1.182 1.142-1.553a4.419 4.419 0 0 1 1.563-.781 6.503 6.503 0 0 1 1.67-.225c.351 0 .755.043 1.211.127.455.078.898.248 1.328.508.436.254.794.641 1.074 1.162.286.515.43 1.205.43 2.07V257h-1.68v-1.484h-.078c-.111.234-.3.488-.567.761-.267.267-.621.498-1.064.694-.436.189-.973.283-1.611.283Zm.253-1.504c.665 0 1.224-.13 1.68-.391.456-.26.801-.595 1.035-1.005a2.61 2.61 0 0 0 .352-1.299v-1.543c-.072.084-.228.162-.469.234a8.033 8.033 0 0 1-.82.176c-.306.052-.606.098-.899.137l-.703.078a6.276 6.276 0 0 0-1.22.283 2.157 2.157 0 0 0-.918.557c-.228.247-.342.585-.342 1.015 0 .58.215 1.019.644 1.319.436.293.99.439 1.66.439Z"/>
  <path fill="#000" d="M362.5 305.6c0-8.961 0-13.441 1.744-16.864a16.005 16.005 0 0 1 6.992-6.992C374.659 280 379.139 280 388.1 280h183.8c8.961 0 13.441 0 16.864 1.744a16.005 16.005 0 0 1 6.992 6.992c1.744 3.423 1.744 7.903 1.744 16.864v4.8c0 8.961 0 13.441-1.744 16.864a16.005 16.005 0 0 1-6.992 6.992C585.341 336 580.861 336 571.9 336H388.1c-8.961 0-13.441 0-16.864-1.744a16.005 16.005 0 0 1-6.992-6.992c-1.744-3.423-1.744-7.903-1.744-16.864v-4.8Z"/>
  <path fill="#fff" d="M416.391 314.156c-1.021 0-1.935-.237-2.743-.711-.802-.474-1.434-1.156-1.898-2.047-.458-.89-.688-1.96-.688-3.21 0-1.256.232-2.329.696-3.219.469-.896 1.104-1.581 1.906-2.055.807-.474 1.716-.711 2.727-.711.64 0 1.239.091 1.797.274.562.182 1.062.45 1.5.804.437.349.794.779 1.07 1.289.281.506.466 1.081.554 1.727h-2.124a2.574 2.574 0 0 0-.336-.938c-.162-.27-.365-.5-.61-.687a2.418 2.418 0 0 0-.82-.43 3.216 3.216 0 0 0-.992-.148c-.636 0-1.198.159-1.688.476-.489.313-.872.776-1.148 1.391-.276.609-.414 1.351-.414 2.227 0 .885.138 1.632.414 2.242.281.604.664 1.062 1.148 1.375.49.307 1.05.461 1.68.461.349 0 .674-.045.976-.133.303-.094.576-.232.821-.414.25-.188.455-.412.617-.672.167-.266.284-.57.352-.914h2.124a4.613 4.613 0 0 1-1.546 2.851 4.753 4.753 0 0 1-1.485.86 5.458 5.458 0 0 1-1.89.312Zm8.242-11.797V314h-2.055v-11.641h2.055Zm4.039 11.821a3.638 3.638 0 0 1-1.5-.297 2.427 2.427 0 0 1-1.047-.891c-.255-.39-.383-.872-.383-1.445 0-.49.091-.896.274-1.219a2.1 2.1 0 0 1 .742-.773 3.843 3.843 0 0 1 1.07-.438 7.905 7.905 0 0 1 1.227-.219c.515-.057.932-.106 1.25-.148.317-.042.547-.109.687-.203.146-.094.219-.24.219-.438v-.039c0-.422-.125-.75-.375-.984-.25-.234-.615-.352-1.094-.352-.505 0-.906.11-1.203.328-.292.219-.49.477-.594.774l-1.914-.274a3.04 3.04 0 0 1 .75-1.328 3.27 3.27 0 0 1 1.274-.804 4.875 4.875 0 0 1 1.672-.274c.416 0 .833.05 1.25.149.416.093.799.255 1.148.484.349.229.628.537.836.922.208.385.312.867.312 1.445V314h-1.976v-1.203h-.063a2.563 2.563 0 0 1-.531.68 2.582 2.582 0 0 1-.844.507c-.333.131-.729.196-1.187.196Zm.523-1.516c.417 0 .776-.081 1.078-.242.303-.167.537-.386.704-.656.166-.276.25-.576.25-.899v-1.023a1.105 1.105 0 0 1-.329.148 6.118 6.118 0 0 1-.515.117c-.193.037-.383.068-.571.094-.182.026-.341.047-.476.063a3.411 3.411 0 0 0-.828.211c-.24.093-.43.224-.57.39-.141.167-.211.383-.211.649 0 .38.138.666.414.859.276.193.627.289 1.054.289Zm5.602 1.336v-8.734h2.055V314h-2.055Zm1.031-9.961c-.328 0-.609-.109-.844-.328a1.043 1.043 0 0 1-.351-.789c0-.313.117-.578.351-.797.235-.219.516-.328.844-.328.323 0 .602.109.836.328.234.219.352.482.352.789 0 .313-.118.578-.352.797a1.182 1.182 0 0 1-.836.328Zm2.547 9.961v-8.734h1.961v1.492h.109c.183-.5.485-.891.907-1.172.421-.287.921-.43 1.5-.43.593 0 1.093.143 1.5.43.406.286.69.677.851 1.172h.094c.198-.485.526-.873.984-1.164.459-.292 1.005-.438 1.641-.438.802 0 1.456.255 1.961.766.51.505.765 1.245.765 2.219V314h-2.062v-5.547c0-.536-.146-.93-.438-1.18-.286-.255-.638-.382-1.054-.382-.495 0-.88.156-1.156.468-.277.308-.415.703-.415 1.188V314h-2.031v-5.625c0-.453-.133-.813-.398-1.078-.266-.271-.617-.406-1.055-.406-.297 0-.568.075-.812.226a1.63 1.63 0 0 0-.586.633 2.001 2.001 0 0 0-.211.938V314h-2.055Zm18.453 3.266a3.712 3.712 0 0 1-.781-.063 3.085 3.085 0 0 1-.57-.148l.484-1.602.101.031c.417.11.771.118 1.063.024.297-.094.534-.378.711-.852l.172-.468-3.156-8.922h2.179l2.008 6.601h.094l2.015-6.601h2.196l-3.5 9.789a3.92 3.92 0 0 1-.641 1.187 2.552 2.552 0 0 1-.984.758c-.391.177-.854.266-1.391.266Zm10.852-3.094c-.854 0-1.594-.188-2.219-.563a3.806 3.806 0 0 1-1.453-1.578c-.339-.677-.508-1.463-.508-2.359 0-.901.169-1.69.508-2.367a3.791 3.791 0 0 1 1.453-1.586c.625-.375 1.365-.563 2.219-.563.854 0 1.593.188 2.218.563.625.375 1.11.903 1.454 1.586.343.677.515 1.466.515 2.367 0 .896-.172 1.682-.515 2.359a3.808 3.808 0 0 1-1.454 1.578c-.625.375-1.364.563-2.218.563Zm0-1.656c.474 0 .864-.125 1.172-.375.307-.256.536-.599.687-1.032.156-.432.234-.911.234-1.437 0-.537-.078-1.021-.234-1.453-.151-.433-.38-.774-.687-1.024-.308-.255-.698-.383-1.172-.383-.464 0-.852.128-1.164.383-.313.25-.547.591-.704 1.024a4.383 4.383 0 0 0-.226 1.453c0 .526.075 1.005.226 1.437.157.433.391.776.704 1.032.312.25.7.375 1.164.375Zm10.882-2.18v-5.07h2.055V314h-1.992v-1.555h-.094c-.198.49-.521.891-.969 1.203-.447.313-1 .467-1.656.461-.573 0-1.078-.125-1.515-.375a2.66 2.66 0 0 1-1.024-1.117c-.245-.495-.367-1.091-.367-1.789v-5.562h2.055v5.25c0 .546.151.984.453 1.312.307.328.708.49 1.203.484.302 0 .594-.072.875-.218.286-.146.521-.365.703-.656.182-.292.273-.659.273-1.102Zm3.579 3.664v-8.734h1.992v1.468h.094c.156-.51.429-.901.82-1.172a2.259 2.259 0 0 1 1.336-.414 5.422 5.422 0 0 1 .734.055v1.891a1.901 1.901 0 0 0-.414-.078 4.842 4.842 0 0 0-.539-.032c-.38 0-.719.081-1.016.243a1.833 1.833 0 0 0-.703.664c-.166.281-.25.609-.25.984V314h-2.054Zm13.562-8.734v1.593h-5.148v-1.593h5.148ZM491.836 314v-9.555c0-.588.122-1.078.367-1.468.245-.391.573-.683.985-.875.416-.193.874-.29 1.374-.29a4.933 4.933 0 0 1 1.571.243l-.422 1.593a2.259 2.259 0 0 0-.32-.086 1.941 1.941 0 0 0-.446-.046c-.38 0-.653.093-.82.281-.161.187-.242.453-.242.797V314h-2.047Zm4.898 0v-8.734h1.993v1.468h.093c.157-.51.43-.901.821-1.172.39-.276.836-.414 1.336-.414a5.422 5.422 0 0 1 .734.055v1.891a1.927 1.927 0 0 0-.414-.078 4.856 4.856 0 0 0-.539-.032c-.38 0-.719.081-1.016.243a1.826 1.826 0 0 0-.703.664 1.89 1.89 0 0 0-.25.984V314h-2.055Zm9.258.172c-.875 0-1.63-.182-2.265-.547a3.734 3.734 0 0 1-1.469-1.563c-.339-.671-.508-1.463-.508-2.374 0-.902.169-1.691.508-2.368a3.82 3.82 0 0 1 1.43-1.593c.614-.381 1.338-.571 2.171-.571.537 0 1.045.086 1.524.258.484.172.911.438 1.281.797.375.359.669.818.883 1.375.213.552.32 1.211.32 1.976v.641h-7.156v-1.383h6.133l-.961.407c0-.495-.076-.925-.227-1.289a1.916 1.916 0 0 0-.672-.868c-.296-.208-.666-.312-1.109-.312-.443 0-.82.104-1.133.312a1.99 1.99 0 0 0-.711.844c-.161.349-.242.74-.242 1.172v.961c0 .531.091.987.273 1.367.188.375.448.662.782.859.338.198.732.297 1.179.297.292 0 .558-.041.797-.125.245-.083.453-.208.625-.375.177-.172.313-.382.407-.632l1.921.226a3.071 3.071 0 0 1-.695 1.328 3.324 3.324 0 0 1-1.289.875c-.521.203-1.12.305-1.797.305Zm8.86 0c-.875 0-1.631-.182-2.266-.547a3.74 3.74 0 0 1-1.469-1.563c-.338-.671-.508-1.463-.508-2.374 0-.902.17-1.691.508-2.368a3.828 3.828 0 0 1 1.43-1.593c.614-.381 1.338-.571 2.172-.571.536 0 1.044.086 1.523.258a3.49 3.49 0 0 1 1.281.797c.375.359.67.818.883 1.375.214.552.321 1.211.321 1.976v.641h-7.157v-1.383h6.133l-.961.407c0-.495-.075-.925-.226-1.289a1.916 1.916 0 0 0-.672-.868c-.297-.208-.667-.312-1.11-.312-.442 0-.82.104-1.132.312-.313.209-.55.49-.711.844-.162.349-.243.74-.243 1.172v.961c0 .531.092.987.274 1.367.187.375.448.662.781.859.339.198.732.297 1.18.297.291 0 .557-.041.797-.125.244-.083.453-.208.625-.375a1.7 1.7 0 0 0 .406-.632l1.922.226a3.082 3.082 0 0 1-.695 1.328 3.335 3.335 0 0 1-1.29.875c-.52.203-1.119.305-1.796.305Zm12.718-8.906v1.593h-5.008v-1.593h5.008Zm-3.781-2.078h2.055v8.187c0 .344.075.599.226.766.151.161.391.242.719.242a3.199 3.199 0 0 0 .594-.078l.351 1.609a4.13 4.13 0 0 1-.664.148 4.116 4.116 0 0 1-.672.055c-.812 0-1.45-.213-1.914-.64-.463-.433-.695-1.021-.695-1.766v-8.523ZM528.703 314v-8.734h1.992v1.468h.094c.156-.51.43-.901.82-1.172a2.259 2.259 0 0 1 1.336-.414 5.372 5.372 0 0 1 .735.055v1.891a1.927 1.927 0 0 0-.414-.078 4.87 4.87 0 0 0-.539-.032c-.381 0-.719.081-1.016.243a1.826 1.826 0 0 0-.703.664 1.89 1.89 0 0 0-.25.984V314h-2.055Zm5.75 0v-8.734h2.055V314h-2.055Zm1.031-9.961a1.19 1.19 0 0 1-.843-.328 1.04 1.04 0 0 1-.352-.789c0-.313.117-.578.352-.797a1.19 1.19 0 0 1 .843-.328c.323 0 .602.109.836.328.235.219.352.482.352.789 0 .313-.117.578-.352.797a1.182 1.182 0 0 1-.836.328Zm5.063 10.141a3.638 3.638 0 0 1-1.5-.297 2.427 2.427 0 0 1-1.047-.891c-.255-.39-.383-.872-.383-1.445 0-.49.091-.896.274-1.219a2.1 2.1 0 0 1 .742-.773 3.843 3.843 0 0 1 1.07-.438 7.905 7.905 0 0 1 1.227-.219c.515-.057.932-.106 1.25-.148.317-.042.547-.109.687-.203.146-.094.219-.24.219-.438v-.039c0-.422-.125-.75-.375-.984-.25-.234-.615-.352-1.094-.352-.505 0-.906.11-1.203.328-.292.219-.49.477-.594.774l-1.914-.274a3.04 3.04 0 0 1 .75-1.328 3.27 3.27 0 0 1 1.274-.804 4.875 4.875 0 0 1 1.672-.274c.416 0 .833.05 1.25.149.416.093.799.255 1.148.484.349.229.628.537.836.922.208.385.312.867.312 1.445V314h-1.976v-1.203h-.063a2.563 2.563 0 0 1-.531.68 2.582 2.582 0 0 1-.844.507c-.333.131-.729.196-1.187.196Zm.523-1.516c.417 0 .776-.081 1.078-.242.303-.167.537-.386.704-.656.166-.276.25-.576.25-.899v-1.023a1.105 1.105 0 0 1-.329.148 6.118 6.118 0 0 1-.515.117c-.193.037-.383.068-.57.094-.183.026-.342.047-.477.063a3.411 3.411 0 0 0-.828.211c-.24.093-.43.224-.571.39-.14.167-.21.383-.21.649 0 .38.138.666.414.859.276.193.627.289 1.054.289Zm7.657-10.305V314h-2.055v-11.641h2.055Z"/>
</svg>
