<svg xmlns="http://www.w3.org/2000/svg" width="960" height="364" fill="none" viewBox="0 0 960 364">
  <path fill="#000" d="M9.184 15.523V8.455h37.137v7.068H31.934V55h-8.363V15.523H9.184ZM48.851 55V20.09h7.977v5.82h.364c.636-2.016 1.727-3.57 3.273-4.66 1.56-1.106 3.34-1.66 5.34-1.66.455 0 .963.024 1.523.07.576.03 1.053.082 1.432.158v7.568c-.348-.12-.901-.227-1.659-.318a15.26 15.26 0 0 0-2.16-.159c-1.5 0-2.848.326-4.044.977a7.152 7.152 0 0 0-2.796 2.66c-.682 1.136-1.023 2.446-1.023 3.931V55h-8.227Zm34.156.705c-2.213 0-4.205-.394-5.978-1.182-1.757-.803-3.151-1.985-4.182-3.546-1.015-1.56-1.522-3.485-1.522-5.772 0-1.97.363-3.599 1.09-4.887a8.442 8.442 0 0 1 2.978-3.09c1.257-.773 2.674-1.357 4.25-1.75a34.44 34.44 0 0 1 4.932-.887c2.045-.212 3.704-.402 4.977-.568 1.273-.182 2.197-.455 2.773-.819.59-.378.886-.962.886-1.75v-.136c0-1.712-.507-3.038-1.523-3.977-1.015-.94-2.477-1.41-4.386-1.41-2.015 0-3.614.44-4.796 1.319-1.166.879-1.954 1.917-2.363 3.114l-7.682-1.091c.606-2.122 1.606-3.894 3-5.319 1.394-1.439 3.099-2.515 5.114-3.227 2.015-.727 4.242-1.09 6.681-1.09 1.682 0 3.357.196 5.023.59a14.13 14.13 0 0 1 4.568 1.955c1.38.894 2.485 2.114 3.319 3.659.848 1.545 1.272 3.477 1.272 5.795V55h-7.909v-4.795h-.272c-.5.97-1.205 1.878-2.114 2.727-.894.833-2.023 1.507-3.386 2.023-1.349.5-2.932.75-4.75.75Zm2.136-6.046c1.651 0 3.083-.326 4.295-.977 1.212-.667 2.144-1.546 2.796-2.637.666-1.09 1-2.28 1-3.568v-4.113c-.258.212-.697.409-1.318.59-.606.182-1.288.341-2.046.478-.757.136-1.507.257-2.25.363-.742.106-1.386.197-1.932.273-1.227.167-2.325.44-3.295.818-.97.38-1.735.91-2.296 1.591-.56.667-.84 1.53-.84 2.591 0 1.515.552 2.66 1.659 3.432 1.106.773 2.515 1.16 4.227 1.16Zm39.155 6.023c-3.485 0-6.477-.765-8.977-2.296-2.485-1.53-4.401-3.644-5.75-6.34-1.333-2.713-2-5.834-2-9.364 0-3.546.682-6.674 2.045-9.387 1.364-2.727 3.288-4.848 5.773-6.363 2.5-1.53 5.455-2.296 8.864-2.296 2.833 0 5.341.523 7.523 1.569 2.197 1.03 3.947 2.492 5.25 4.386 1.303 1.879 2.045 4.076 2.227 6.59h-7.864c-.318-1.681-1.076-3.082-2.273-4.204-1.181-1.136-2.765-1.704-4.75-1.704-1.681 0-3.159.454-4.431 1.363-1.273.894-2.265 2.182-2.978 3.864-.697 1.682-1.045 3.697-1.045 6.045 0 2.38.348 4.425 1.045 6.137.697 1.697 1.675 3.007 2.932 3.932 1.273.909 2.765 1.363 4.477 1.363 1.213 0 2.296-.227 3.25-.681a6.53 6.53 0 0 0 2.432-2.023c.652-.88 1.099-1.947 1.341-3.205h7.864c-.197 2.47-.924 4.66-2.182 6.568-1.258 1.894-2.97 3.38-5.136 4.455-2.167 1.06-4.712 1.59-7.637 1.59Zm28.571-11.637-.023-9.931h1.318l12.545-14.023h9.614l-15.432 17.182h-1.704l-6.318 6.772ZM145.369 55V8.455h8.227V55h-8.227Zm21.909 0-11.364-15.886 5.545-5.796L177.119 55h-9.841Zm44.578.682c-3.5 0-6.523-.727-9.069-2.182-2.53-1.47-4.477-3.545-5.841-6.227-1.363-2.697-2.045-5.872-2.045-9.523 0-3.59.682-6.742 2.045-9.454 1.379-2.728 3.304-4.849 5.773-6.364 2.47-1.53 5.371-2.296 8.705-2.296 2.151 0 4.182.349 6.091 1.046a13.77 13.77 0 0 1 5.091 3.182c1.484 1.439 2.651 3.272 3.5 5.5.848 2.212 1.272 4.848 1.272 7.909v2.522h-28.613V34.25h20.727c-.015-1.576-.356-2.977-1.023-4.204a7.43 7.43 0 0 0-2.795-2.932c-1.182-.713-2.561-1.069-4.137-1.069-1.681 0-3.159.41-4.431 1.228a8.456 8.456 0 0 0-2.978 3.181c-.697 1.304-1.053 2.735-1.068 4.296v4.84c0 2.031.371 3.774 1.114 5.228.742 1.44 1.78 2.546 3.113 3.318 1.334.758 2.894 1.137 4.682 1.137 1.197 0 2.281-.167 3.25-.5a7.209 7.209 0 0 0 2.523-1.523c.712-.667 1.25-1.492 1.614-2.477l7.681.863c-.484 2.03-1.409 3.803-2.772 5.319-1.349 1.5-3.076 2.666-5.182 3.5-2.106.818-4.515 1.227-7.227 1.227Zm27.82-35.591 7.045 12.886 7.159-12.886h8.705l-10.523 17.454L262.767 55h-8.659l-7.387-12.568L239.403 55h-8.727l10.636-17.455-10.363-17.454h8.727Zm28.633 48v-48h8.09v5.773h.478c.424-.849 1.022-1.75 1.795-2.705.773-.97 1.818-1.795 3.137-2.477 1.318-.697 3-1.046 5.045-1.046 2.697 0 5.129.69 7.295 2.069 2.182 1.363 3.91 3.386 5.182 6.068 1.288 2.666 1.932 5.94 1.932 9.818 0 3.833-.629 7.09-1.886 9.773-1.258 2.681-2.97 4.727-5.137 6.136-2.166 1.41-4.621 2.114-7.363 2.114-2 0-3.659-.334-4.978-1-1.318-.667-2.378-1.47-3.181-2.41-.788-.954-1.402-1.855-1.841-2.704h-.341v18.59h-8.227Zm8.068-30.545c0 2.257.318 4.234.954 5.931.652 1.697 1.584 3.023 2.796 3.978 1.227.939 2.712 1.409 4.454 1.409 1.818 0 3.341-.485 4.568-1.455 1.228-.985 2.152-2.326 2.773-4.023.637-1.712.955-3.659.955-5.84 0-2.167-.311-4.091-.932-5.773-.621-1.682-1.546-3-2.773-3.955-1.227-.954-2.757-1.432-4.591-1.432-1.757 0-3.25.463-4.477 1.387-1.227.924-2.159 2.22-2.795 3.886-.622 1.667-.932 3.629-.932 5.886Zm46.746 18.136c-3.5 0-6.523-.727-9.068-2.182-2.53-1.47-4.477-3.545-5.841-6.227-1.364-2.697-2.045-5.872-2.045-9.523 0-3.59.681-6.742 2.045-9.454 1.379-2.728 3.303-4.849 5.773-6.364 2.469-1.53 5.371-2.296 8.704-2.296 2.152 0 4.182.349 6.091 1.046a13.77 13.77 0 0 1 5.091 3.182c1.485 1.439 2.652 3.272 3.5 5.5.849 2.212 1.273 4.848 1.273 7.909v2.522h-28.614V34.25h20.727c-.015-1.576-.356-2.977-1.022-4.204a7.44 7.44 0 0 0-2.796-2.932c-1.182-.713-2.56-1.069-4.136-1.069-1.682 0-3.159.41-4.432 1.228a8.454 8.454 0 0 0-2.977 3.181c-.697 1.304-1.053 2.735-1.068 4.296v4.84c0 2.031.371 3.774 1.113 5.228.743 1.44 1.781 2.546 3.114 3.318 1.333.758 2.894 1.137 4.682 1.137 1.197 0 2.28-.167 3.25-.5a7.214 7.214 0 0 0 2.522-1.523c.713-.667 1.25-1.492 1.614-2.477l7.682.863c-.485 2.03-1.409 3.803-2.773 5.319-1.348 1.5-3.076 2.666-5.182 3.5-2.106.818-4.515 1.227-7.227 1.227Zm30.07-21.137V55h-8.227V20.09h7.864v5.933h.409c.803-1.955 2.083-3.508 3.841-4.66 1.772-1.15 3.962-1.727 6.568-1.727 2.409 0 4.507.515 6.295 1.546 1.803 1.03 3.197 2.523 4.182 4.477 1 1.955 1.493 4.326 1.477 7.114V55h-8.227V34.045c0-2.333-.606-4.159-1.818-5.477-1.197-1.318-2.856-1.977-4.977-1.977-1.44 0-2.72.318-3.841.954-1.106.622-1.978 1.523-2.614 2.705-.621 1.182-.932 2.614-.932 4.295Zm57.724-5.227-7.5.818A6.015 6.015 0 0 0 402.303 28c-.515-.667-1.212-1.204-2.091-1.614-.878-.409-1.954-.613-3.227-.613-1.712 0-3.151.37-4.318 1.113-1.152.743-1.72 1.705-1.705 2.887-.015 1.015.356 1.84 1.114 2.477.773.636 2.045 1.16 3.818 1.568l5.955 1.273c3.303.712 5.757 1.84 7.363 3.386 1.622 1.546 2.44 3.569 2.455 6.069-.015 2.196-.659 4.136-1.932 5.818-1.257 1.666-3.007 2.97-5.25 3.909-2.242.94-4.818 1.409-7.727 1.409-4.273 0-7.712-.894-10.318-2.682-2.606-1.803-4.159-4.31-4.659-7.523l8.022-.772c.364 1.575 1.137 2.765 2.318 3.568 1.182.803 2.72 1.204 4.614 1.204 1.955 0 3.523-.401 4.705-1.204 1.197-.803 1.795-1.796 1.795-2.978 0-1-.386-1.825-1.159-2.477-.758-.651-1.939-1.151-3.545-1.5l-5.955-1.25c-3.348-.697-5.826-1.871-7.432-3.523-1.606-1.666-2.401-3.772-2.386-6.318-.015-2.151.568-4.015 1.75-5.59 1.197-1.591 2.856-2.819 4.977-3.683 2.136-.878 4.599-1.318 7.386-1.318 4.091 0 7.311.872 9.66 2.614 2.363 1.742 3.825 4.099 4.386 7.068Zm22.349 26.364c-3.5 0-6.523-.727-9.069-2.182-2.53-1.47-4.477-3.545-5.841-6.227-1.363-2.697-2.045-5.872-2.045-9.523 0-3.59.682-6.742 2.045-9.454 1.379-2.728 3.304-4.849 5.773-6.364 2.47-1.53 5.371-2.296 8.705-2.296 2.151 0 4.182.349 6.091 1.046a13.77 13.77 0 0 1 5.091 3.182c1.484 1.439 2.651 3.272 3.5 5.5.848 2.212 1.272 4.848 1.272 7.909v2.522h-28.613V34.25h20.727c-.015-1.576-.356-2.977-1.023-4.204a7.43 7.43 0 0 0-2.795-2.932c-1.182-.713-2.561-1.069-4.137-1.069-1.681 0-3.159.41-4.431 1.228a8.456 8.456 0 0 0-2.978 3.181c-.697 1.304-1.053 2.735-1.068 4.296v4.84c0 2.031.371 3.774 1.114 5.228.742 1.44 1.78 2.546 3.113 3.318 1.334.758 2.894 1.137 4.682 1.137 1.197 0 2.281-.167 3.25-.5a7.209 7.209 0 0 0 2.523-1.523c.712-.667 1.25-1.492 1.614-2.477l7.681.863c-.484 2.03-1.409 3.803-2.772 5.319-1.349 1.5-3.076 2.666-5.182 3.5-2.106.818-4.515 1.227-7.227 1.227Zm49.433-26.364-7.5.818A6.028 6.028 0 0 0 474.086 28c-.515-.667-1.212-1.204-2.091-1.614-.879-.409-1.955-.613-3.227-.613-1.713 0-3.152.37-4.319 1.113-1.151.743-1.719 1.705-1.704 2.887-.015 1.015.356 1.84 1.114 2.477.772.636 2.045 1.16 3.818 1.568l5.954 1.273c3.303.712 5.758 1.84 7.364 3.386 1.621 1.546 2.439 3.569 2.454 6.069-.015 2.196-.659 4.136-1.931 5.818-1.258 1.666-3.008 2.97-5.25 3.909-2.243.94-4.819 1.409-7.728 1.409-4.272 0-7.712-.894-10.318-2.682-2.606-1.803-4.159-4.31-4.659-7.523l8.023-.772c.363 1.575 1.136 2.765 2.318 3.568 1.182.803 2.72 1.204 4.614 1.204 1.954 0 3.522-.401 4.704-1.204 1.197-.803 1.796-1.796 1.796-2.978 0-1-.387-1.825-1.159-2.477-.758-.651-1.94-1.151-3.546-1.5l-5.954-1.25c-3.349-.697-5.826-1.871-7.432-3.523-1.606-1.666-2.402-3.772-2.387-6.318-.015-2.151.569-4.015 1.75-5.59 1.197-1.591 2.856-2.819 4.978-3.683 2.136-.878 4.598-1.318 7.386-1.318 4.091 0 7.311.872 9.659 2.614 2.364 1.742 3.826 4.099 4.386 7.068Zm16.554 19.318-.296 2.5a37.21 37.21 0 0 1-1.136 5.819 72.04 72.04 0 0 1-1.682 5.477 188.344 188.344 0 0 1-1.432 3.932h-5.545l.863-3.773a91.48 91.48 0 0 0 1.091-5.364c.349-1.985.584-4 .705-6.045l.159-2.546h7.273Zm49.964-19.318-7.5.818A6.015 6.015 0 0 0 540.603 28c-.515-.667-1.212-1.204-2.091-1.614-.878-.409-1.954-.613-3.227-.613-1.712 0-3.151.37-4.318 1.113-1.152.743-1.72 1.705-1.705 2.887-.015 1.015.357 1.84 1.114 2.477.773.636 2.046 1.16 3.818 1.568l5.955 1.273c3.303.712 5.757 1.84 7.363 3.386 1.622 1.546 2.44 3.569 2.455 6.069-.015 2.196-.659 4.136-1.932 5.818-1.257 1.666-3.007 2.97-5.25 3.909-2.242.94-4.818 1.409-7.727 1.409-4.273 0-7.712-.894-10.318-2.682-2.606-1.803-4.159-4.31-4.659-7.523l8.022-.772c.364 1.575 1.137 2.765 2.319 3.568 1.181.803 2.719 1.204 4.613 1.204 1.955 0 3.523-.401 4.705-1.204 1.197-.803 1.795-1.796 1.795-2.978 0-1-.386-1.825-1.159-2.477-.757-.651-1.939-1.151-3.545-1.5l-5.955-1.25c-3.348-.697-5.826-1.871-7.432-3.523-1.606-1.666-2.401-3.772-2.386-6.318-.015-2.151.568-4.015 1.75-5.59 1.197-1.591 2.856-2.819 4.977-3.683 2.137-.878 4.599-1.318 7.387-1.318 4.09 0 7.31.872 9.659 2.614 2.363 1.742 3.825 4.099 4.386 7.068Zm24.326-9.227v6.363h-20.068v-6.363h20.068Zm-15.114-8.364h8.228V44.5c0 1.106.166 1.955.5 2.545.348.576.803.97 1.363 1.182a5.232 5.232 0 0 0 1.864.319c.515 0 .985-.038 1.409-.114a12.25 12.25 0 0 0 1-.205l1.386 6.432c-.439.152-1.068.318-1.886.5-.803.182-1.788.288-2.955.318-2.06.06-3.916-.25-5.568-.931-1.651-.697-2.962-1.773-3.932-3.228-.954-1.454-1.424-3.273-1.409-5.454V11.727Zm36.207 43.955c-3.409 0-6.364-.75-8.864-2.25-2.5-1.5-4.439-3.599-5.818-6.296-1.364-2.697-2.045-5.848-2.045-9.454 0-3.606.681-6.765 2.045-9.478 1.379-2.712 3.318-4.818 5.818-6.318 2.5-1.5 5.455-2.25 8.864-2.25 3.409 0 6.363.75 8.863 2.25 2.5 1.5 4.432 3.606 5.796 6.319 1.379 2.712 2.068 5.87 2.068 9.477 0 3.606-.689 6.757-2.068 9.454-1.364 2.697-3.296 4.796-5.796 6.296-2.5 1.5-5.454 2.25-8.863 2.25Zm.045-6.591c1.849 0 3.394-.508 4.637-1.523 1.242-1.03 2.166-2.409 2.772-4.136.622-1.727.932-3.652.932-5.773 0-2.136-.31-4.068-.932-5.795-.606-1.743-1.53-3.13-2.772-4.16-1.243-1.03-2.788-1.545-4.637-1.545-1.894 0-3.469.515-4.727 1.546-1.242 1.03-2.174 2.416-2.795 4.159-.607 1.727-.91 3.659-.91 5.795 0 2.121.303 4.046.91 5.773.621 1.727 1.553 3.106 2.795 4.136 1.258 1.015 2.833 1.523 4.727 1.523ZM617.706 55V20.09h7.977v5.82h.364c.636-2.016 1.727-3.57 3.273-4.66 1.56-1.106 3.341-1.66 5.341-1.66.454 0 .962.024 1.522.07.576.03 1.053.082 1.432.158v7.568c-.348-.12-.901-.227-1.659-.318a15.254 15.254 0 0 0-2.159-.159c-1.5 0-2.849.326-4.046.977a7.156 7.156 0 0 0-2.795 2.66c-.682 1.136-1.023 2.446-1.023 3.931V55h-8.227Zm38.752.682c-3.5 0-6.523-.727-9.068-2.182-2.53-1.47-4.477-3.545-5.841-6.227-1.364-2.697-2.045-5.872-2.045-9.523 0-3.59.681-6.742 2.045-9.454 1.379-2.728 3.303-4.849 5.773-6.364 2.469-1.53 5.371-2.296 8.704-2.296 2.152 0 4.182.349 6.091 1.046a13.77 13.77 0 0 1 5.091 3.182c1.485 1.439 2.652 3.272 3.5 5.5.849 2.212 1.273 4.848 1.273 7.909v2.522h-28.614V34.25h20.727c-.015-1.576-.356-2.977-1.022-4.204a7.44 7.44 0 0 0-2.796-2.932c-1.182-.713-2.56-1.069-4.136-1.069-1.682 0-3.159.41-4.432 1.228a8.454 8.454 0 0 0-2.977 3.181c-.697 1.304-1.053 2.735-1.068 4.296v4.84c0 2.031.371 3.774 1.113 5.228.743 1.44 1.781 2.546 3.114 3.318 1.333.758 2.894 1.137 4.682 1.137 1.197 0 2.28-.167 3.25-.5a7.214 7.214 0 0 0 2.522-1.523c.713-.667 1.25-1.492 1.614-2.477l7.682.863c-.485 2.03-1.409 3.803-2.773 5.319-1.348 1.5-3.076 2.666-5.182 3.5-2.106.818-4.515 1.227-7.227 1.227ZM693.536 55V20.09h7.977v5.82h.364c.636-2.016 1.727-3.57 3.273-4.66 1.56-1.106 3.341-1.66 5.341-1.66.454 0 .962.024 1.522.07.576.03 1.053.082 1.432.158v7.568c-.348-.12-.901-.227-1.659-.318a15.254 15.254 0 0 0-2.159-.159c-1.5 0-2.849.326-4.046.977a7.156 7.156 0 0 0-2.795 2.66c-.682 1.136-1.023 2.446-1.023 3.931V55h-8.227Zm38.752.682c-3.5 0-6.523-.727-9.068-2.182-2.53-1.47-4.477-3.545-5.841-6.227-1.364-2.697-2.045-5.872-2.045-9.523 0-3.59.681-6.742 2.045-9.454 1.379-2.728 3.303-4.849 5.773-6.364 2.469-1.53 5.371-2.296 8.704-2.296 2.152 0 4.182.349 6.091 1.046a13.77 13.77 0 0 1 5.091 3.182c1.485 1.439 2.652 3.272 3.5 5.5.849 2.212 1.273 4.848 1.273 7.909v2.522h-28.614V34.25h20.728c-.016-1.576-.357-2.977-1.023-4.204a7.44 7.44 0 0 0-2.796-2.932c-1.181-.713-2.56-1.069-4.136-1.069-1.682 0-3.159.41-4.432 1.228a8.454 8.454 0 0 0-2.977 3.181c-.697 1.304-1.053 2.735-1.068 4.296v4.84c0 2.031.371 3.774 1.113 5.228.743 1.44 1.781 2.546 3.114 3.318 1.333.758 2.894 1.137 4.682 1.137 1.197 0 2.28-.167 3.25-.5a7.227 7.227 0 0 0 2.523-1.523c.712-.667 1.25-1.492 1.613-2.477l7.682.863c-.485 2.03-1.409 3.803-2.773 5.319-1.348 1.5-3.076 2.666-5.182 3.5-2.106.818-4.515 1.227-7.227 1.227Zm37.07 0c-3.484 0-6.477-.765-8.977-2.296-2.485-1.53-4.401-3.644-5.75-6.34-1.333-2.713-2-5.834-2-9.364 0-3.546.682-6.674 2.046-9.387 1.363-2.727 3.287-4.848 5.772-6.363 2.5-1.53 5.455-2.296 8.864-2.296 2.833 0 5.341.523 7.523 1.569 2.197 1.03 3.947 2.492 5.25 4.386 1.303 1.879 2.045 4.076 2.227 6.59h-7.864c-.318-1.681-1.075-3.082-2.272-4.204-1.182-1.136-2.766-1.704-4.75-1.704-1.682 0-3.16.454-4.432 1.363-1.273.894-2.265 2.182-2.978 3.864-.697 1.682-1.045 3.697-1.045 6.045 0 2.38.348 4.425 1.045 6.137.697 1.697 1.675 3.007 2.932 3.932 1.273.909 2.765 1.363 4.478 1.363 1.212 0 2.295-.227 3.25-.681a6.535 6.535 0 0 0 2.431-2.023c.652-.88 1.099-1.947 1.341-3.205h7.864c-.197 2.47-.924 4.66-2.182 6.568-1.257 1.894-2.97 3.38-5.136 4.455-2.167 1.06-4.712 1.59-7.637 1.59Zm36.525 0c-3.5 0-6.523-.727-9.068-2.182-2.53-1.47-4.477-3.545-5.841-6.227-1.364-2.697-2.045-5.872-2.045-9.523 0-3.59.681-6.742 2.045-9.454 1.379-2.728 3.303-4.849 5.773-6.364 2.469-1.53 5.371-2.296 8.704-2.296 2.152 0 4.182.349 6.091 1.046a13.77 13.77 0 0 1 5.091 3.182c1.485 1.439 2.652 3.272 3.5 5.5.849 2.212 1.273 4.848 1.273 7.909v2.522h-28.614V34.25h20.727c-.015-1.576-.356-2.977-1.022-4.204a7.44 7.44 0 0 0-2.796-2.932c-1.182-.713-2.56-1.069-4.136-1.069-1.682 0-3.159.41-4.432 1.228a8.454 8.454 0 0 0-2.977 3.181c-.697 1.304-1.053 2.735-1.068 4.296v4.84c0 2.031.371 3.774 1.113 5.228.743 1.44 1.781 2.546 3.114 3.318 1.333.758 2.894 1.137 4.682 1.137 1.197 0 2.28-.167 3.25-.5a7.214 7.214 0 0 0 2.522-1.523c.713-.667 1.25-1.492 1.614-2.477l7.682.863c-.485 2.03-1.409 3.803-2.773 5.319-1.348 1.5-3.076 2.666-5.182 3.5-2.106.818-4.515 1.227-7.227 1.227ZM827.726 55V20.09h8.227V55h-8.227Zm4.136-39.864c-1.303 0-2.424-.431-3.363-1.295-.94-.879-1.409-1.932-1.409-3.16 0-1.242.469-2.295 1.409-3.158.939-.88 2.06-1.318 3.363-1.318 1.319 0 2.44.439 3.364 1.318.939.863 1.409 1.916 1.409 3.159 0 1.227-.47 2.28-1.409 3.159-.924.864-2.045 1.295-3.364 1.295Zm11.912 52.955v-48h8.09v5.773h.478c.424-.849 1.022-1.75 1.795-2.705.773-.97 1.818-1.795 3.137-2.477 1.318-.697 3-1.046 5.045-1.046 2.697 0 5.129.69 7.295 2.069 2.182 1.363 3.91 3.386 5.182 6.068 1.288 2.666 1.932 5.94 1.932 9.818 0 3.833-.629 7.09-1.886 9.773-1.258 2.681-2.97 4.727-5.137 6.136-2.166 1.41-4.621 2.114-7.363 2.114-2 0-3.659-.334-4.978-1-1.318-.667-2.378-1.47-3.181-2.41-.788-.954-1.402-1.855-1.841-2.704h-.341v18.59h-8.227Zm8.068-30.545c0 2.257.318 4.234.954 5.931.652 1.697 1.584 3.023 2.796 3.978 1.227.939 2.712 1.409 4.454 1.409 1.818 0 3.341-.485 4.568-1.455 1.228-.985 2.152-2.326 2.773-4.023.637-1.712.955-3.659.955-5.84 0-2.167-.311-4.091-.932-5.773-.621-1.682-1.546-3-2.773-3.955-1.227-.954-2.757-1.432-4.591-1.432-1.757 0-3.25.463-4.477 1.387-1.227.924-2.159 2.22-2.795 3.886-.622 1.667-.932 3.629-.932 5.886Zm48.723-17.455v6.363h-20.068v-6.363h20.068Zm-15.113-8.364h8.227V44.5c0 1.106.167 1.955.5 2.545.348.576.803.97 1.364 1.182.56.212 1.181.319 1.863.319.515 0 .985-.038 1.409-.114.44-.076.773-.144 1-.205l1.387 6.432c-.44.152-1.068.318-1.887.5-.803.182-1.788.288-2.954.318-2.061.06-3.917-.25-5.568-.931-1.652-.697-2.963-1.773-3.932-3.228-.955-1.454-1.424-3.273-1.409-5.454V11.727Zm48.445 17.591-7.5.818A6.015 6.015 0 0 0 925.283 28c-.515-.667-1.212-1.204-2.091-1.614-.878-.409-1.954-.613-3.227-.613-1.712 0-3.151.37-4.318 1.113-1.152.743-1.72 1.705-1.705 2.887-.015 1.015.356 1.84 1.114 2.477.773.636 2.045 1.16 3.818 1.568l5.955 1.273c3.303.712 5.757 1.84 7.363 3.386 1.622 1.546 2.44 3.569 2.455 6.069-.015 2.196-.659 4.136-1.932 5.818-1.257 1.666-3.007 2.97-5.25 3.909-2.242.94-4.818 1.409-7.727 1.409-4.273 0-7.712-.894-10.318-2.682-2.606-1.803-4.159-4.31-4.659-7.523l8.022-.772c.364 1.575 1.137 2.765 2.318 3.568 1.182.803 2.72 1.204 4.614 1.204 1.955 0 3.523-.401 4.705-1.204 1.197-.803 1.795-1.796 1.795-2.978 0-1-.386-1.825-1.159-2.477-.758-.651-1.939-1.151-3.545-1.5l-5.955-1.25c-3.348-.697-5.826-1.871-7.432-3.523-1.606-1.666-2.401-3.772-2.386-6.318-.015-2.151.568-4.015 1.75-5.59 1.197-1.591 2.856-2.819 4.977-3.683 2.136-.878 4.599-1.318 7.386-1.318 4.091 0 7.311.872 9.66 2.614 2.363 1.742 3.825 4.099 4.386 7.068Zm16.553 19.318-.295 2.5a37.1 37.1 0 0 1-1.137 5.819 72.04 72.04 0 0 1-1.682 5.477 189.356 189.356 0 0 1-1.431 3.932h-5.546l.864-3.773a92.31 92.31 0 0 0 1.091-5.364c.348-1.985.583-4 .704-6.045l.159-2.546h7.273ZM18.779 119.705c-2.212 0-4.205-.394-5.977-1.182-1.758-.803-3.152-1.985-4.182-3.546-1.015-1.56-1.523-3.485-1.523-5.772 0-1.97.364-3.599 1.091-4.887a8.444 8.444 0 0 1 2.977-3.091c1.258-.772 2.675-1.356 4.25-1.75a34.562 34.562 0 0 1 4.932-.886c2.046-.212 3.705-.402 4.977-.568 1.273-.182 2.197-.455 2.773-.819.591-.378.886-.962.886-1.75v-.136c0-1.712-.507-3.038-1.522-3.977-1.015-.94-2.477-1.41-4.387-1.41-2.015 0-3.613.44-4.795 1.319-1.167.879-1.955 1.917-2.364 3.114l-7.681-1.091c.606-2.121 1.606-3.894 3-5.319 1.393-1.439 3.098-2.515 5.113-3.227 2.015-.727 4.243-1.09 6.682-1.09 1.682 0 3.356.196 5.023.59a14.13 14.13 0 0 1 4.568 1.955c1.379.894 2.485 2.114 3.318 3.659.849 1.545 1.273 3.477 1.273 5.795V119H29.3v-4.795h-.272c-.5.969-1.205 1.878-2.114 2.727-.894.833-2.022 1.507-3.386 2.023-1.349.5-2.932.75-4.75.75Zm2.136-6.046c1.652 0 3.084-.326 4.296-.977 1.212-.667 2.144-1.546 2.795-2.637a6.71 6.71 0 0 0 1-3.568v-4.113c-.257.212-.697.409-1.318.591a19.02 19.02 0 0 1-2.045.477c-.758.136-1.508.257-2.25.363-.743.107-1.387.197-1.932.273-1.227.167-2.326.44-3.296.818-.97.379-1.735.909-2.295 1.591-.56.667-.841 1.531-.841 2.591 0 1.515.553 2.659 1.66 3.432 1.105.773 2.514 1.159 4.226 1.159Zm32.156-15.114V119h-8.227V84.09h7.863v5.933h.41a9.975 9.975 0 0 1 3.84-4.66c1.773-1.15 3.962-1.727 6.568-1.727 2.41 0 4.508.516 6.296 1.546 1.803 1.03 3.197 2.522 4.182 4.477 1 1.955 1.492 4.326 1.477 7.114V119h-8.227V98.046c0-2.334-.606-4.16-1.819-5.478-1.197-1.318-2.856-1.977-4.977-1.977-1.44 0-2.72.318-3.84.955-1.107.62-1.978 1.522-2.614 2.704-.622 1.182-.932 2.614-.932 4.296Zm43.087 21.069c-2.742 0-5.197-.705-7.364-2.114-2.166-1.409-3.878-3.455-5.136-6.136-1.258-2.682-1.886-5.94-1.886-9.773 0-3.879.636-7.152 1.909-9.818 1.288-2.682 3.023-4.705 5.204-6.069 2.182-1.378 4.614-2.068 7.296-2.068 2.045 0 3.727.349 5.045 1.046 1.318.682 2.364 1.507 3.137 2.477.772.955 1.371 1.856 1.795 2.705h.341v-17.41h8.25V119h-8.091v-5.5h-.5c-.424.848-1.038 1.75-1.841 2.705-.803.939-1.863 1.742-3.182 2.409-1.318.666-2.977 1-4.977 1Zm2.296-6.75c1.742 0 3.227-.47 4.454-1.409 1.227-.955 2.159-2.281 2.796-3.978.636-1.697.954-3.674.954-5.932 0-2.257-.318-4.22-.954-5.886-.622-1.667-1.546-2.962-2.773-3.886-1.212-.924-2.705-1.387-4.477-1.387-1.834 0-3.364.478-4.591 1.432-1.228.955-2.152 2.273-2.773 3.955-.621 1.681-.932 3.606-.932 5.772 0 2.182.31 4.129.932 5.841.636 1.697 1.568 3.038 2.795 4.023 1.243.97 2.765 1.455 4.569 1.455Zm54.839 19.954c-2.955 0-5.493-.401-7.614-1.204-2.121-.788-3.826-1.849-5.113-3.182-1.288-1.334-2.182-2.811-2.682-4.432l7.409-1.795c.333.681.818 1.356 1.454 2.022.637.682 1.493 1.243 2.569 1.682 1.09.455 2.462.682 4.113.682 2.334 0 4.265-.568 5.796-1.705 1.53-1.121 2.295-2.969 2.295-5.545v-6.614h-.409c-.424.849-1.045 1.72-1.864 2.614-.803.894-1.871 1.644-3.204 2.25-1.318.606-2.977.909-4.977.909-2.682 0-5.114-.629-7.296-1.886-2.167-1.273-3.894-3.167-5.182-5.682-1.272-2.53-1.909-5.697-1.909-9.5 0-3.834.637-7.068 1.909-9.705 1.288-2.651 3.023-4.659 5.205-6.023 2.182-1.378 4.613-2.068 7.295-2.068 2.046 0 3.728.349 5.046 1.046 1.333.682 2.394 1.507 3.182 2.477.787.955 1.386 1.856 1.795 2.705h.455V84.09h8.113v35.477c0 2.985-.712 5.455-2.136 7.409-1.424 1.955-3.371 3.417-5.841 4.387-2.47.969-5.273 1.454-8.409 1.454Zm.068-20.773c1.742 0 3.227-.424 4.455-1.272 1.227-.849 2.159-2.068 2.795-3.659.636-1.591.955-3.5.955-5.728 0-2.197-.319-4.12-.955-5.772-.621-1.652-1.545-2.932-2.773-3.841-1.212-.924-2.704-1.387-4.477-1.387-1.833 0-3.364.478-4.591 1.432-1.227.955-2.151 2.265-2.773 3.932-.621 1.651-.931 3.53-.931 5.636 0 2.137.31 4.008.931 5.614.637 1.591 1.569 2.833 2.796 3.727 1.242.879 2.765 1.318 4.568 1.318Zm39.565 7.637c-3.5 0-6.523-.727-9.069-2.182-2.53-1.47-4.477-3.545-5.841-6.227-1.363-2.697-2.045-5.871-2.045-9.523 0-3.59.682-6.742 2.045-9.454 1.379-2.728 3.304-4.849 5.773-6.364 2.47-1.53 5.371-2.296 8.705-2.296 2.151 0 4.182.349 6.091 1.046a13.77 13.77 0 0 1 5.091 3.182c1.484 1.439 2.651 3.272 3.5 5.5.848 2.212 1.272 4.848 1.272 7.909v2.522h-28.613V98.25h20.727c-.015-1.576-.356-2.977-1.023-4.204a7.43 7.43 0 0 0-2.795-2.932c-1.182-.713-2.561-1.069-4.137-1.069-1.681 0-3.159.41-4.431 1.228a8.456 8.456 0 0 0-2.978 3.181c-.697 1.304-1.053 2.735-1.068 4.296v4.841c0 2.03.371 3.773 1.114 5.227.742 1.44 1.78 2.546 3.113 3.318 1.334.758 2.894 1.137 4.682 1.137 1.197 0 2.281-.167 3.25-.5a7.213 7.213 0 0 0 2.523-1.523c.712-.667 1.25-1.492 1.614-2.477l7.681.863c-.484 2.031-1.409 3.803-2.772 5.319-1.349 1.5-3.076 2.666-5.182 3.5-2.106.818-4.515 1.227-7.227 1.227Zm30.07-21.136V119h-8.227V84.09h7.863v5.933h.409a9.983 9.983 0 0 1 3.841-4.66c1.773-1.15 3.962-1.727 6.568-1.727 2.409 0 4.508.516 6.296 1.546 1.803 1.03 3.197 2.522 4.182 4.477 1 1.955 1.492 4.326 1.477 7.114V119h-8.227V98.046c0-2.334-.606-4.16-1.819-5.478-1.197-1.318-2.856-1.977-4.977-1.977-1.439 0-2.72.318-3.841.955-1.106.62-1.977 1.522-2.613 2.704-.622 1.182-.932 2.614-.932 4.296Zm45.587 21.136c-3.5 0-6.523-.727-9.068-2.182-2.53-1.47-4.477-3.545-5.841-6.227-1.364-2.697-2.045-5.871-2.045-9.523 0-3.59.681-6.742 2.045-9.454 1.379-2.728 3.303-4.849 5.773-6.364 2.469-1.53 5.371-2.296 8.704-2.296 2.152 0 4.182.349 6.091 1.046a13.77 13.77 0 0 1 5.091 3.182c1.485 1.439 2.652 3.272 3.5 5.5.849 2.212 1.273 4.848 1.273 7.909v2.522h-28.614V98.25h20.727c-.015-1.576-.356-2.977-1.022-4.204a7.44 7.44 0 0 0-2.796-2.932c-1.182-.713-2.56-1.069-4.136-1.069-1.682 0-3.159.41-4.432 1.228a8.454 8.454 0 0 0-2.977 3.181c-.697 1.304-1.053 2.735-1.068 4.296v4.841c0 2.03.371 3.773 1.113 5.227.743 1.44 1.781 2.546 3.114 3.318 1.333.758 2.894 1.137 4.682 1.137 1.197 0 2.28-.167 3.25-.5a7.217 7.217 0 0 0 2.522-1.523c.713-.667 1.25-1.492 1.614-2.477l7.682.863c-.485 2.031-1.409 3.803-2.773 5.319-1.348 1.5-3.076 2.666-5.182 3.5-2.106.818-4.515 1.227-7.227 1.227Zm21.843-.682V84.09h7.977v5.82h.364c.636-2.016 1.727-3.57 3.273-4.66 1.56-1.106 3.341-1.66 5.341-1.66.454 0 .962.024 1.522.07.576.03 1.053.082 1.432.158v7.568c-.348-.12-.901-.227-1.659-.318a15.254 15.254 0 0 0-2.159-.159c-1.5 0-2.849.326-4.046.977a7.156 7.156 0 0 0-2.795 2.66c-.682 1.136-1.023 2.446-1.023 3.931V119h-8.227Zm34.155.705c-2.212 0-4.204-.394-5.977-1.182-1.757-.803-3.151-1.985-4.182-3.546-1.015-1.56-1.522-3.485-1.522-5.772 0-1.97.363-3.599 1.091-4.887a8.438 8.438 0 0 1 2.977-3.091c1.257-.772 2.674-1.356 4.25-1.75a34.563 34.563 0 0 1 4.932-.886c2.045-.212 3.704-.402 4.977-.568 1.273-.182 2.197-.455 2.773-.819.591-.378.886-.962.886-1.75v-.136c0-1.712-.508-3.038-1.523-3.977-1.015-.94-2.477-1.41-4.386-1.41-2.015 0-3.614.44-4.796 1.319-1.166.879-1.954 1.917-2.363 3.114l-7.682-1.091c.606-2.121 1.606-3.894 3-5.319 1.394-1.439 3.099-2.515 5.114-3.227 2.015-.727 4.242-1.09 6.681-1.09 1.682 0 3.357.196 5.023.59a14.12 14.12 0 0 1 4.568 1.955c1.379.894 2.485 2.114 3.319 3.659.848 1.545 1.272 3.477 1.272 5.795V119h-7.909v-4.795h-.273c-.5.969-1.204 1.878-2.113 2.727-.894.833-2.023 1.507-3.387 2.023-1.348.5-2.931.75-4.75.75Zm2.137-6.046c1.651 0 3.083-.326 4.295-.977 1.212-.667 2.144-1.546 2.796-2.637.666-1.09 1-2.28 1-3.568v-4.113c-.258.212-.697.409-1.318.591-.606.181-1.288.34-2.046.477-.757.136-1.507.257-2.25.363-.742.107-1.386.197-1.932.273-1.227.167-2.325.44-3.295.818-.97.379-1.735.909-2.296 1.591-.56.667-.841 1.531-.841 2.591 0 1.515.554 2.659 1.66 3.432 1.106.773 2.515 1.159 4.227 1.159Zm41.36-29.568v6.364H348.01V84.09h20.068Zm-15.114-8.364h8.227V108.5c0 1.106.167 1.955.5 2.545.349.576.804.97 1.364 1.182a5.235 5.235 0 0 0 1.864.318 8.02 8.02 0 0 0 1.409-.113c.439-.076.773-.144 1-.205l1.386 6.432c-.439.152-1.068.318-1.886.5-.803.182-1.788.288-2.955.318-2.06.061-3.916-.25-5.568-.932-1.651-.697-2.962-1.772-3.932-3.227-.954-1.454-1.424-3.273-1.409-5.454V75.727Zm36.434 43.955c-3.5 0-6.523-.727-9.068-2.182-2.53-1.47-4.477-3.545-5.841-6.227-1.364-2.697-2.045-5.871-2.045-9.523 0-3.59.681-6.742 2.045-9.454 1.379-2.728 3.303-4.849 5.773-6.364 2.469-1.53 5.371-2.296 8.704-2.296 2.152 0 4.182.349 6.091 1.046a13.77 13.77 0 0 1 5.091 3.182c1.485 1.439 2.652 3.272 3.5 5.5.849 2.212 1.273 4.848 1.273 7.909v2.522h-28.614V98.25h20.727c-.015-1.576-.356-2.977-1.022-4.204a7.44 7.44 0 0 0-2.796-2.932c-1.182-.713-2.56-1.069-4.136-1.069-1.682 0-3.159.41-4.432 1.228a8.454 8.454 0 0 0-2.977 3.181c-.697 1.304-1.053 2.735-1.068 4.296v4.841c0 2.03.371 3.773 1.113 5.227.743 1.44 1.781 2.546 3.114 3.318 1.333.758 2.894 1.137 4.682 1.137 1.197 0 2.28-.167 3.25-.5a7.217 7.217 0 0 0 2.522-1.523c.713-.667 1.25-1.492 1.614-2.477l7.682.863c-.485 2.031-1.409 3.803-2.773 5.319-1.348 1.5-3.076 2.666-5.182 3.5-2.106.818-4.515 1.227-7.227 1.227Zm54.51-35.591v6.364H423.84V84.09h20.068Zm-15.114-8.364h8.227V108.5c0 1.106.167 1.955.5 2.545.349.576.804.97 1.364 1.182a5.235 5.235 0 0 0 1.864.318 8.02 8.02 0 0 0 1.409-.113c.439-.076.773-.144 1-.205l1.386 6.432c-.439.152-1.068.318-1.886.5-.803.182-1.788.288-2.955.318-2.06.061-3.916-.25-5.568-.932-1.651-.697-2.962-1.772-3.932-3.227-.954-1.454-1.424-3.273-1.409-5.454V75.727Zm31.4 43.978c-2.212 0-4.205-.394-5.977-1.182-1.758-.803-3.152-1.985-4.182-3.546-1.015-1.56-1.523-3.485-1.523-5.772 0-1.97.364-3.599 1.091-4.887a8.446 8.446 0 0 1 2.977-3.091c1.258-.772 2.675-1.356 4.25-1.75a34.563 34.563 0 0 1 4.932-.886c2.046-.212 3.705-.402 4.977-.568 1.273-.182 2.197-.455 2.773-.819.591-.378.887-.962.887-1.75v-.136c0-1.712-.508-3.038-1.523-3.977-1.015-.94-2.477-1.41-4.387-1.41-2.015 0-3.613.44-4.795 1.319-1.167.879-1.955 1.917-2.364 3.114l-7.681-1.091c.606-2.121 1.606-3.894 3-5.319 1.393-1.439 3.098-2.515 5.113-3.227 2.015-.727 4.243-1.09 6.682-1.09 1.682 0 3.356.196 5.023.59a14.138 14.138 0 0 1 4.568 1.955c1.379.894 2.485 2.114 3.318 3.659.849 1.545 1.273 3.477 1.273 5.795V119h-7.909v-4.795h-.273c-.5.969-1.205 1.878-2.114 2.727-.894.833-2.022 1.507-3.386 2.023-1.348.5-2.932.75-4.75.75Zm2.136-6.046c1.652 0 3.084-.326 4.296-.977 1.212-.667 2.144-1.546 2.795-2.637a6.71 6.71 0 0 0 1-3.568v-4.113c-.257.212-.697.409-1.318.591a19.02 19.02 0 0 1-2.045.477c-.758.136-1.508.257-2.25.363-.743.107-1.387.197-1.932.273-1.227.167-2.326.44-3.296.818-.969.379-1.734.909-2.295 1.591-.561.667-.841 1.531-.841 2.591 0 1.515.553 2.659 1.659 3.432 1.106.773 2.515 1.159 4.227 1.159Zm30.656-29.568 7.045 12.886 7.159-12.886h8.705l-10.523 17.454L516.077 119h-8.659l-7.387-12.568L492.713 119h-8.727l10.636-17.455-10.363-17.454h8.727Zm48.354 12.136V103h-20.954v-6.773h20.954ZM549.353 119V84.09h7.978v5.82h.363c.637-2.016 1.728-3.57 3.273-4.66 1.561-1.106 3.341-1.66 5.341-1.66.455 0 .962.024 1.523.07.576.03 1.053.082 1.432.158v7.568c-.349-.12-.902-.227-1.66-.318a15.254 15.254 0 0 0-2.159-.159c-1.5 0-2.848.326-4.045.977a7.152 7.152 0 0 0-2.796 2.66c-.681 1.136-1.022 2.446-1.022 3.931V119h-8.228Zm38.753.682c-3.5 0-6.523-.727-9.069-2.182-2.53-1.47-4.477-3.545-5.841-6.227-1.363-2.697-2.045-5.871-2.045-9.523 0-3.59.682-6.742 2.045-9.454 1.379-2.728 3.303-4.849 5.773-6.364 2.47-1.53 5.371-2.296 8.705-2.296 2.151 0 4.182.349 6.091 1.046a13.77 13.77 0 0 1 5.091 3.182c1.484 1.439 2.651 3.272 3.5 5.5.848 2.212 1.272 4.848 1.272 7.909v2.522h-28.613V98.25h20.727c-.015-1.576-.356-2.977-1.023-4.204a7.438 7.438 0 0 0-2.795-2.932c-1.182-.713-2.561-1.069-4.137-1.069-1.681 0-3.159.41-4.431 1.228a8.456 8.456 0 0 0-2.978 3.181c-.697 1.304-1.053 2.735-1.068 4.296v4.841c0 2.03.371 3.773 1.114 5.227.742 1.44 1.78 2.546 3.113 3.318 1.334.758 2.894 1.137 4.682 1.137 1.197 0 2.28-.167 3.25-.5a7.213 7.213 0 0 0 2.523-1.523c.712-.667 1.25-1.492 1.614-2.477l7.681.863c-.485 2.031-1.409 3.803-2.772 5.319-1.349 1.5-3.076 2.666-5.182 3.5-2.106.818-4.515 1.227-7.227 1.227Zm31.888.023c-2.212 0-4.205-.394-5.977-1.182-1.758-.803-3.152-1.985-4.182-3.546-1.015-1.56-1.523-3.485-1.523-5.772 0-1.97.364-3.599 1.091-4.887a8.446 8.446 0 0 1 2.977-3.091c1.258-.772 2.675-1.356 4.25-1.75a34.563 34.563 0 0 1 4.932-.886c2.046-.212 3.705-.402 4.977-.568 1.273-.182 2.197-.455 2.773-.819.591-.378.887-.962.887-1.75v-.136c0-1.712-.508-3.038-1.523-3.977-1.015-.94-2.477-1.41-4.387-1.41-2.015 0-3.613.44-4.795 1.319-1.167.879-1.955 1.917-2.364 3.114l-7.681-1.091c.606-2.121 1.606-3.894 3-5.319 1.394-1.439 3.098-2.515 5.113-3.227 2.015-.727 4.243-1.09 6.682-1.09 1.682 0 3.356.196 5.023.59a14.138 14.138 0 0 1 4.568 1.955c1.379.894 2.485 2.114 3.318 3.659.849 1.545 1.273 3.477 1.273 5.795V119h-7.909v-4.795h-.273c-.5.969-1.205 1.878-2.114 2.727-.894.833-2.022 1.507-3.386 2.023-1.348.5-2.932.75-4.75.75Zm2.136-6.046c1.652 0 3.084-.326 4.296-.977 1.212-.667 2.144-1.546 2.795-2.637a6.71 6.71 0 0 0 1-3.568v-4.113c-.257.212-.697.409-1.318.591a19.02 19.02 0 0 1-2.045.477c-.758.136-1.508.257-2.25.363-.743.107-1.387.197-1.932.273-1.227.167-2.326.44-3.296.818-.969.379-1.734.909-2.295 1.591-.561.667-.841 1.531-.841 2.591 0 1.515.553 2.659 1.659 3.432 1.106.773 2.515 1.159 4.227 1.159Zm36.883 5.955c-2.742 0-5.197-.705-7.364-2.114-2.166-1.409-3.878-3.455-5.136-6.136-1.257-2.682-1.886-5.94-1.886-9.773 0-3.879.636-7.152 1.909-9.818 1.288-2.682 3.023-4.705 5.204-6.069 2.182-1.378 4.614-2.068 7.296-2.068 2.045 0 3.727.349 5.045 1.046 1.318.682 2.364 1.507 3.137 2.477.772.955 1.371 1.856 1.795 2.705h.341v-17.41h8.25V119h-8.091v-5.5h-.5c-.424.848-1.038 1.75-1.841 2.705-.803.939-1.863 1.742-3.182 2.409-1.318.666-2.977 1-4.977 1Zm2.296-6.75c1.742 0 3.227-.47 4.454-1.409 1.227-.955 2.159-2.281 2.796-3.978.636-1.697.954-3.674.954-5.932 0-2.257-.318-4.22-.954-5.886-.622-1.667-1.546-2.962-2.773-3.886-1.212-.924-2.705-1.387-4.477-1.387-1.834 0-3.364.478-4.591 1.432-1.228.955-2.152 2.273-2.773 3.955-.621 1.681-.932 3.606-.932 5.772 0 2.182.311 4.129.932 5.841.636 1.697 1.568 3.038 2.795 4.023 1.243.97 2.766 1.455 4.569 1.455Zm29.536 19.227c-1.122 0-2.159-.091-3.114-.273-.939-.166-1.689-.363-2.25-.591l1.909-6.409c1.197.349 2.265.515 3.205.5a3.928 3.928 0 0 0 2.477-.886c.727-.561 1.341-1.5 1.841-2.818l.704-1.887-12.659-35.636h8.728l8.045 26.364h.364l8.068-26.364h8.75l-13.977 39.136c-.652 1.849-1.516 3.432-2.591 4.75a10.526 10.526 0 0 1-3.955 3.046c-1.545.712-3.394 1.068-5.545 1.068ZM737.201 119V84.09h7.977v5.82h.364c.636-2.016 1.727-3.57 3.273-4.66 1.56-1.106 3.341-1.66 5.341-1.66.454 0 .962.024 1.522.07.576.03 1.053.082 1.432.158v7.568c-.348-.12-.901-.227-1.659-.318a15.254 15.254 0 0 0-2.159-.159c-1.5 0-2.849.326-4.046.977a7.156 7.156 0 0 0-2.795 2.66c-.682 1.136-1.023 2.446-1.023 3.931V119h-8.227Zm38.752.682c-3.5 0-6.523-.727-9.068-2.182-2.53-1.47-4.477-3.545-5.841-6.227-1.364-2.697-2.045-5.871-2.045-9.523 0-3.59.681-6.742 2.045-9.454 1.379-2.728 3.303-4.849 5.773-6.364 2.469-1.53 5.371-2.296 8.704-2.296 2.152 0 4.182.349 6.091 1.046a13.77 13.77 0 0 1 5.091 3.182c1.485 1.439 2.652 3.272 3.5 5.5.849 2.212 1.273 4.848 1.273 7.909v2.522h-28.614V98.25h20.727c-.015-1.576-.356-2.977-1.022-4.204a7.44 7.44 0 0 0-2.796-2.932c-1.182-.713-2.56-1.069-4.136-1.069-1.682 0-3.159.41-4.432 1.228a8.454 8.454 0 0 0-2.977 3.181c-.697 1.304-1.053 2.735-1.068 4.296v4.841c0 2.03.371 3.773 1.113 5.227.743 1.44 1.781 2.546 3.114 3.318 1.333.758 2.894 1.137 4.682 1.137 1.197 0 2.28-.167 3.25-.5a7.217 7.217 0 0 0 2.522-1.523c.713-.667 1.25-1.492 1.614-2.477l7.682.863c-.485 2.031-1.409 3.803-2.773 5.319-1.348 1.5-3.076 2.666-5.182 3.5-2.106.818-4.515 1.227-7.227 1.227Zm21.843 12.409v-48h8.091v5.773h.477c.424-.849 1.023-1.75 1.796-2.705.772-.97 1.818-1.795 3.136-2.477 1.318-.697 3-1.046 5.045-1.046 2.697 0 5.129.69 7.296 2.069 2.182 1.363 3.909 3.386 5.182 6.068 1.288 2.666 1.932 5.94 1.932 9.818 0 3.833-.629 7.091-1.887 9.773-1.257 2.681-2.97 4.727-5.136 6.136-2.167 1.409-4.621 2.114-7.364 2.114-2 0-3.659-.334-4.977-1-1.318-.667-2.379-1.47-3.182-2.409-.788-.955-1.401-1.857-1.841-2.705h-.341v18.591h-8.227Zm8.068-30.546c0 2.258.318 4.235.955 5.932.651 1.697 1.583 3.023 2.795 3.978 1.227.939 2.712 1.409 4.455 1.409 1.818 0 3.341-.485 4.568-1.455 1.227-.985 2.151-2.326 2.773-4.023.636-1.712.954-3.659.954-5.841 0-2.166-.31-4.09-.932-5.772-.621-1.682-1.545-3-2.772-3.955-1.228-.954-2.758-1.432-4.591-1.432-1.758 0-3.25.463-4.478 1.387-1.227.924-2.159 2.22-2.795 3.886-.621 1.667-.932 3.629-.932 5.886Zm46.519 18.137c-3.409 0-6.363-.75-8.863-2.25-2.5-1.5-4.44-3.599-5.819-6.296-1.363-2.697-2.045-5.848-2.045-9.454 0-3.606.682-6.765 2.045-9.478 1.379-2.712 3.319-4.818 5.819-6.318s5.454-2.25 8.863-2.25 6.364.75 8.864 2.25c2.5 1.5 4.432 3.606 5.795 6.319 1.379 2.712 2.069 5.87 2.069 9.477 0 3.606-.69 6.757-2.069 9.454-1.363 2.697-3.295 4.796-5.795 6.296s-5.455 2.25-8.864 2.25Zm.046-6.591c1.848 0 3.394-.508 4.636-1.523 1.242-1.03 2.167-2.409 2.773-4.136.621-1.727.932-3.652.932-5.773 0-2.136-.311-4.068-.932-5.795-.606-1.743-1.531-3.13-2.773-4.16-1.242-1.03-2.788-1.545-4.636-1.545-1.894 0-3.47.515-4.728 1.545-1.242 1.03-2.174 2.417-2.795 4.16-.606 1.727-.909 3.659-.909 5.795 0 2.121.303 4.046.909 5.773.621 1.727 1.553 3.106 2.795 4.136 1.258 1.015 2.834 1.523 4.728 1.523ZM875.453 119V84.09h7.978v5.82h.363c.637-2.016 1.728-3.57 3.273-4.66 1.561-1.106 3.341-1.66 5.341-1.66.455 0 .962.024 1.523.07.575.03 1.053.082 1.432.158v7.568c-.349-.12-.902-.227-1.66-.318a15.254 15.254 0 0 0-2.159-.159c-1.5 0-2.848.326-4.045.977a7.152 7.152 0 0 0-2.796 2.66c-.681 1.136-1.022 2.446-1.022 3.931V119h-8.228Zm44.042-34.91v6.364h-20.068v-6.363h20.068Zm-15.113-8.363h8.227V108.5c0 1.106.167 1.955.5 2.545.349.576.803.97 1.364 1.182.56.212 1.181.318 1.863.318a8.02 8.02 0 0 0 1.409-.113c.44-.076.773-.144 1-.205l1.387 6.432c-.44.152-1.068.318-1.887.5-.803.182-1.787.288-2.954.318-2.061.061-3.917-.25-5.568-.932-1.652-.697-2.962-1.772-3.932-3.227-.955-1.454-1.424-3.273-1.409-5.454V75.727Zm48.445 17.591-7.5.818A6.015 6.015 0 0 0 944.213 92c-.515-.667-1.212-1.204-2.091-1.614-.878-.409-1.954-.613-3.227-.613-1.712 0-3.151.37-4.318 1.113-1.152.743-1.72 1.705-1.705 2.887-.015 1.015.356 1.84 1.114 2.477.773.636 2.046 1.16 3.818 1.568l5.955 1.273c3.303.712 5.757 1.841 7.363 3.386 1.622 1.546 2.44 3.568 2.455 6.068-.015 2.197-.659 4.137-1.932 5.819-1.257 1.666-3.007 2.969-5.25 3.909-2.242.939-4.818 1.409-7.727 1.409-4.273 0-7.712-.894-10.318-2.682-2.606-1.803-4.159-4.311-4.659-7.523l8.022-.772c.364 1.575 1.137 2.765 2.319 3.568 1.181.803 2.719 1.204 4.613 1.204 1.955 0 3.523-.401 4.705-1.204 1.197-.803 1.795-1.796 1.795-2.978 0-1-.386-1.825-1.159-2.477-.758-.651-1.939-1.151-3.545-1.5l-5.955-1.25c-3.348-.697-5.826-1.871-7.432-3.523-1.606-1.666-2.401-3.772-2.386-6.318-.015-2.151.568-4.015 1.75-5.59 1.197-1.591 2.856-2.819 4.977-3.683 2.137-.878 4.599-1.318 7.387-1.318 4.09 0 7.31.872 9.659 2.614 2.363 1.742 3.825 4.099 4.386 7.068ZM264.69 160.227V167h-32v-6.773h32Zm28.868 23.478c-2.212 0-4.205-.394-5.978-1.182-1.757-.803-3.151-1.985-4.181-3.546-1.016-1.56-1.523-3.485-1.523-5.772 0-1.97.364-3.599 1.091-4.887a8.446 8.446 0 0 1 2.977-3.091c1.258-.772 2.674-1.356 4.25-1.75a34.605 34.605 0 0 1 4.932-.886c2.045-.212 3.704-.402 4.977-.568 1.273-.182 2.197-.455 2.773-.818.591-.379.886-.963.886-1.75v-.137c0-1.712-.507-3.038-1.522-3.977-1.016-.939-2.478-1.409-4.387-1.409-2.015 0-3.613.439-4.795 1.318-1.167.879-1.955 1.917-2.364 3.114l-7.682-1.091c.606-2.121 1.606-3.894 3-5.318 1.394-1.44 3.099-2.516 5.114-3.228 2.015-.727 4.242-1.091 6.682-1.091 1.682 0 3.356.197 5.022.591a14.14 14.14 0 0 1 4.569 1.955c1.378.894 2.484 2.113 3.318 3.659.848 1.545 1.273 3.477 1.273 5.795V183h-7.91v-4.795h-.272c-.5.969-1.205 1.878-2.114 2.727-.894.833-2.023 1.507-3.386 2.023-1.349.5-2.932.75-4.75.75Zm2.136-6.046c1.652 0 3.083-.326 4.296-.977 1.212-.667 2.143-1.546 2.795-2.637a6.71 6.71 0 0 0 1-3.568v-4.113c-.258.212-.697.409-1.318.591-.606.181-1.288.34-2.046.477-.757.136-1.507.257-2.25.363-.742.107-1.386.197-1.931.273-1.228.167-2.326.44-3.296.818-.97.379-1.735.909-2.295 1.591-.561.667-.841 1.531-.841 2.591 0 1.515.553 2.659 1.659 3.432 1.106.773 2.515 1.159 4.227 1.159Zm32.156-41.204V183h-8.228v-46.545h8.228Zm16.047 0V183h-8.227v-46.545h8.227ZM366.952 183v-34.909h8.228V183h-8.228Zm4.137-39.864c-1.303 0-2.425-.431-3.364-1.295-.939-.879-1.409-1.932-1.409-3.159 0-1.243.47-2.296 1.409-3.159.939-.879 2.061-1.318 3.364-1.318 1.318 0 2.439.439 3.363 1.318.94.863 1.409 1.916 1.409 3.159 0 1.227-.469 2.28-1.409 3.159-.924.864-2.045 1.295-3.363 1.295Zm20.138 19.409V183H383v-34.909h7.863v5.932h.41c.803-1.955 2.083-3.508 3.84-4.659 1.773-1.152 3.963-1.728 6.569-1.728 2.409 0 4.507.516 6.295 1.546 1.803 1.03 3.197 2.523 4.182 4.477 1 1.955 1.492 4.326 1.477 7.114V183h-8.227v-20.955c0-2.333-.606-4.159-1.818-5.477-1.197-1.318-2.856-1.977-4.978-1.977-1.439 0-2.719.318-3.84.954-1.107.622-1.978 1.523-2.614 2.705-.621 1.182-.932 2.614-.932 4.295Zm60.595 21.137c-3.409 0-6.364-.75-8.864-2.25-2.5-1.5-4.439-3.599-5.818-6.296-1.363-2.697-2.045-5.848-2.045-9.454 0-3.606.682-6.765 2.045-9.477 1.379-2.713 3.318-4.819 5.818-6.319 2.5-1.5 5.455-2.25 8.864-2.25 3.409 0 6.364.75 8.864 2.25 2.5 1.5 4.431 3.606 5.795 6.319 1.379 2.712 2.068 5.871 2.068 9.477s-.689 6.757-2.068 9.454c-1.364 2.697-3.295 4.796-5.795 6.296s-5.455 2.25-8.864 2.25Zm.045-6.591c1.849 0 3.394-.508 4.637-1.523 1.242-1.03 2.167-2.409 2.773-4.136.621-1.727.931-3.652.931-5.773 0-2.136-.31-4.068-.931-5.795-.606-1.743-1.531-3.129-2.773-4.159-1.243-1.031-2.788-1.546-4.637-1.546-1.893 0-3.469.515-4.727 1.546-1.242 1.03-2.174 2.416-2.795 4.159-.606 1.727-.909 3.659-.909 5.795 0 2.121.303 4.046.909 5.773.621 1.727 1.553 3.106 2.795 4.136 1.258 1.015 2.834 1.523 4.727 1.523Zm31.253-14.546V183h-8.228v-34.909h7.864v5.932h.409c.803-1.955 2.083-3.508 3.841-4.659 1.773-1.152 3.962-1.728 6.568-1.728 2.409 0 4.508.516 6.296 1.546 1.803 1.03 3.197 2.523 4.181 4.477 1 1.955 1.493 4.326 1.478 7.114V183h-8.228v-20.955c0-2.333-.606-4.159-1.818-5.477-1.197-1.318-2.856-1.977-4.977-1.977-1.439 0-2.72.318-3.841.954-1.106.622-1.977 1.523-2.614 2.705-.621 1.182-.931 2.614-.931 4.295Zm45.587 21.137c-3.5 0-6.523-.727-9.068-2.182-2.531-1.47-4.478-3.545-5.841-6.227-1.364-2.697-2.046-5.871-2.046-9.523 0-3.591.682-6.742 2.046-9.455 1.379-2.727 3.303-4.848 5.772-6.363 2.47-1.53 5.372-2.296 8.705-2.296 2.152 0 4.182.349 6.091 1.046a13.766 13.766 0 0 1 5.091 3.182c1.485 1.439 2.651 3.272 3.5 5.5.848 2.212 1.273 4.848 1.273 7.909v2.522h-28.614v-5.545h20.727c-.015-1.576-.356-2.977-1.023-4.205a7.43 7.43 0 0 0-2.795-2.931c-1.182-.712-2.561-1.069-4.136-1.069-1.682 0-3.159.41-4.432 1.228a8.447 8.447 0 0 0-2.977 3.182c-.697 1.303-1.053 2.734-1.069 4.295v4.841c0 2.03.372 3.773 1.114 5.227.742 1.44 1.78 2.546 3.114 3.318 1.333.758 2.894 1.137 4.681 1.137 1.197 0 2.281-.167 3.25-.5a7.213 7.213 0 0 0 2.523-1.523c.712-.667 1.25-1.492 1.614-2.477l7.682.863c-.485 2.031-1.409 3.803-2.773 5.319-1.349 1.5-3.076 2.666-5.182 3.5-2.106.818-4.515 1.227-7.227 1.227Zm37.078 12.409v-48h8.091v5.773h.477c.424-.849 1.023-1.75 1.795-2.705.773-.97 1.819-1.795 3.137-2.477 1.318-.697 3-1.046 5.045-1.046 2.697 0 5.129.69 7.296 2.069 2.181 1.363 3.909 3.386 5.181 6.068 1.288 2.666 1.932 5.939 1.932 9.818 0 3.833-.628 7.091-1.886 9.773-1.258 2.681-2.97 4.727-5.136 6.136-2.167 1.409-4.622 2.114-7.364 2.114-2 0-3.659-.334-4.977-1-1.319-.667-2.379-1.47-3.182-2.409-.788-.955-1.402-1.857-1.841-2.705h-.341v18.591h-8.227Zm8.068-30.546c0 2.258.318 4.235.954 5.932.652 1.697 1.584 3.023 2.796 3.978 1.227.939 2.712 1.409 4.454 1.409 1.819 0 3.341-.485 4.569-1.455 1.227-.985 2.151-2.326 2.772-4.023.637-1.712.955-3.659.955-5.841 0-2.166-.311-4.09-.932-5.772-.621-1.682-1.545-3-2.773-3.955-1.227-.954-2.757-1.432-4.591-1.432-1.757 0-3.25.462-4.477 1.387-1.227.924-2.159 2.219-2.795 3.886-.621 1.667-.932 3.629-.932 5.886Zm39.519-29.09V183h-8.227v-46.545h8.227Zm17.866 47.25c-2.212 0-4.205-.394-5.978-1.182-1.757-.803-3.151-1.985-4.181-3.546-1.016-1.56-1.523-3.485-1.523-5.772 0-1.97.364-3.599 1.091-4.887a8.438 8.438 0 0 1 2.977-3.091c1.258-.772 2.674-1.356 4.25-1.75a34.605 34.605 0 0 1 4.932-.886c2.045-.212 3.704-.402 4.977-.568 1.273-.182 2.197-.455 2.773-.818.591-.379.886-.963.886-1.75v-.137c0-1.712-.507-3.038-1.522-3.977-1.016-.939-2.478-1.409-4.387-1.409-2.015 0-3.613.439-4.795 1.318-1.167.879-1.955 1.917-2.364 3.114l-7.682-1.091c.606-2.121 1.606-3.894 3-5.318 1.394-1.44 3.099-2.516 5.114-3.228 2.015-.727 4.242-1.091 6.682-1.091 1.682 0 3.356.197 5.022.591a14.14 14.14 0 0 1 4.569 1.955c1.378.894 2.484 2.113 3.318 3.659.848 1.545 1.273 3.477 1.273 5.795V183h-7.91v-4.795h-.272c-.5.969-1.205 1.878-2.114 2.727-.894.833-2.023 1.507-3.386 2.023-1.349.5-2.932.75-4.75.75Zm2.136-6.046c1.652 0 3.083-.326 4.296-.977 1.212-.667 2.143-1.546 2.795-2.637a6.71 6.71 0 0 0 1-3.568v-4.113c-.258.212-.697.409-1.318.591-.606.181-1.288.34-2.046.477-.757.136-1.507.257-2.25.363-.742.107-1.386.197-1.931.273-1.228.167-2.326.44-3.296.818-.97.379-1.735.909-2.295 1.591-.561.667-.841 1.531-.841 2.591 0 1.515.553 2.659 1.659 3.432 1.106.773 2.515 1.159 4.227 1.159Zm39.156 6.023c-3.485 0-6.478-.765-8.978-2.296-2.485-1.53-4.401-3.644-5.75-6.341-1.333-2.712-2-5.833-2-9.363 0-3.546.682-6.674 2.046-9.387 1.363-2.727 3.288-4.848 5.772-6.363 2.5-1.53 5.455-2.296 8.864-2.296 2.833 0 5.341.523 7.523 1.569 2.197 1.03 3.947 2.492 5.25 4.386 1.303 1.879 2.045 4.076 2.227 6.591h-7.864c-.318-1.682-1.075-3.084-2.272-4.205-1.182-1.136-2.765-1.704-4.75-1.704-1.682 0-3.159.454-4.432 1.363-1.273.894-2.265 2.182-2.977 3.864-.697 1.682-1.046 3.697-1.046 6.045 0 2.379.349 4.425 1.046 6.137.697 1.697 1.674 3.007 2.931 3.932 1.273.909 2.766 1.363 4.478 1.363 1.212 0 2.295-.227 3.25-.682a6.535 6.535 0 0 0 2.432-2.022c.651-.879 1.098-1.947 1.34-3.205h7.864c-.197 2.47-.924 4.659-2.182 6.568-1.257 1.894-2.969 3.379-5.136 4.455-2.167 1.061-4.712 1.591-7.636 1.591Zm36.524 0c-3.5 0-6.522-.727-9.068-2.182-2.53-1.47-4.477-3.545-5.841-6.227-1.363-2.697-2.045-5.871-2.045-9.523 0-3.591.682-6.742 2.045-9.455 1.379-2.727 3.303-4.848 5.773-6.363 2.47-1.53 5.371-2.296 8.704-2.296 2.152 0 4.182.349 6.091 1.046a13.75 13.75 0 0 1 5.091 3.182c1.485 1.439 2.652 3.272 3.5 5.5.849 2.212 1.273 4.848 1.273 7.909v2.522h-28.614v-5.545h20.728c-.015-1.576-.356-2.977-1.023-4.205a7.44 7.44 0 0 0-2.796-2.931c-1.181-.712-2.56-1.069-4.136-1.069-1.682 0-3.159.41-4.432 1.228a8.455 8.455 0 0 0-2.977 3.182c-.697 1.303-1.053 2.734-1.068 4.295v4.841c0 2.03.371 3.773 1.113 5.227.743 1.44 1.781 2.546 3.114 3.318 1.333.758 2.894 1.137 4.682 1.137 1.197 0 2.28-.167 3.25-.5a7.213 7.213 0 0 0 2.523-1.523c.712-.667 1.25-1.492 1.613-2.477l7.682.863c-.485 2.031-1.409 3.803-2.773 5.319-1.348 1.5-3.075 2.666-5.181 3.5-2.106.818-4.516 1.227-7.228 1.227Z"/>
  <path fill="#9192A1" d="M301.153 229v-14.545h5.085c1.013 0 1.849.175 2.507.525.658.346 1.148.812 1.47 1.399.322.583.483 1.229.483 1.939 0 .625-.111 1.141-.334 1.548-.217.408-.506.73-.866.966a3.944 3.944 0 0 1-1.158.526v.142c.445.028.893.185 1.343.469.449.284.826.691 1.129 1.221.303.531.454 1.179.454 1.946 0 .73-.165 1.385-.497 1.968-.331.582-.854 1.044-1.569 1.385-.715.341-1.646.511-2.792.511h-5.255Zm1.761-1.562h3.494c1.151 0 1.968-.223 2.451-.668.487-.45.731-.994.731-1.634a2.59 2.59 0 0 0-.376-1.363 2.723 2.723 0 0 0-1.073-1.009c-.464-.255-1.013-.383-1.647-.383h-3.58v5.057Zm0-6.591h3.267a3.23 3.23 0 0 0 1.435-.313 2.505 2.505 0 0 0 1.023-.881c.255-.378.383-.823.383-1.335a2.21 2.21 0 0 0-.668-1.626c-.445-.45-1.15-.675-2.116-.675h-3.324v4.83Zm17.494 3.693v-6.449h1.676V229h-1.676v-1.847h-.113a3.582 3.582 0 0 1-1.194 1.414c-.539.383-1.221.575-2.045.575-.682 0-1.288-.149-1.818-.447-.53-.303-.947-.758-1.25-1.364-.303-.611-.455-1.38-.455-2.308v-6.932h1.676v6.818c0 .796.223 1.43.668 1.903.45.474 1.023.711 1.719.711.416 0 .84-.107 1.271-.32.436-.213.8-.54 1.094-.98.298-.44.447-1.001.447-1.683Zm4.346 4.46v-10.909h1.677V229h-1.677Zm.853-12.727c-.327 0-.609-.112-.845-.334a1.07 1.07 0 0 1-.349-.803c0-.312.116-.58.349-.802.236-.223.518-.334.845-.334.326 0 .606.111.838.334.236.222.355.49.355.802 0 .313-.119.58-.355.803a1.17 1.17 0 0 1-.838.334Zm5.17-1.818V229H329.1v-14.545h1.677Zm7.414 3.636v1.42h-5.654v-1.42h5.654Zm-4.006-2.614h1.676v10.398c0 .473.069.829.206 1.065.142.232.322.389.54.469.223.076.457.114.703.114.185 0 .336-.01.455-.029l.284-.056.341 1.505a3.41 3.41 0 0 1-.476.128 3.529 3.529 0 0 1-.774.071c-.474 0-.938-.102-1.392-.305a2.764 2.764 0 0 1-1.122-.931c-.294-.416-.441-.942-.441-1.576v-10.853Zm16.21 2.614v1.42h-5.881v-1.42h5.881ZM346.276 229v-12.415c0-.625.147-1.146.44-1.562a2.735 2.735 0 0 1 1.144-.938 3.614 3.614 0 0 1 1.484-.312c.412 0 .748.033 1.009.099.26.066.454.128.582.185l-.483 1.449a7.973 7.973 0 0 0-.355-.107 2.181 2.181 0 0 0-.583-.064c-.553 0-.954.14-1.2.419-.241.28-.362.689-.362 1.229V229h-1.676Zm10.051.227c-.985 0-1.849-.234-2.592-.703-.739-.469-1.317-1.124-1.733-1.967-.412-.843-.618-1.828-.618-2.955 0-1.136.206-2.128.618-2.976.416-.847.994-1.505 1.733-1.974.743-.469 1.607-.703 2.592-.703.985 0 1.846.234 2.585.703.743.469 1.321 1.127 1.733 1.974.417.848.625 1.84.625 2.976 0 1.127-.208 2.112-.625 2.955-.412.843-.99 1.498-1.733 1.967-.739.469-1.6.703-2.585.703Zm0-1.505c.748 0 1.363-.192 1.846-.576a3.387 3.387 0 0 0 1.073-1.512 5.797 5.797 0 0 0 .348-2.032 5.85 5.85 0 0 0-.348-2.038 3.433 3.433 0 0 0-1.073-1.527c-.483-.388-1.098-.582-1.846-.582s-1.364.194-1.847.582c-.483.388-.84.897-1.072 1.527a5.85 5.85 0 0 0-.348 2.038c0 .729.116 1.407.348 2.032.232.625.589 1.129 1.072 1.512.483.384 1.099.576 1.847.576Zm7.102 1.278v-10.909h1.619v1.648h.114c.198-.54.558-.978 1.079-1.314a3.18 3.18 0 0 1 1.761-.505c.124 0 .277.003.462.008.185.004.324.011.419.021v1.704a5.436 5.436 0 0 0-.39-.064 3.87 3.87 0 0 0-.633-.049c-.53 0-1.003.111-1.42.334-.412.217-.739.52-.98.909a2.445 2.445 0 0 0-.355 1.314V229h-1.676Zm17.124-10.909v1.42h-5.881v-1.42h5.881ZM376.434 229v-12.415c0-.625.146-1.146.44-1.562a2.738 2.738 0 0 1 1.143-.938 3.623 3.623 0 0 1 1.485-.312c.412 0 .748.033 1.008.099.261.066.455.128.583.185l-.483 1.449a7.973 7.973 0 0 0-.355-.107 2.181 2.181 0 0 0-.583-.064c-.554 0-.954.14-1.2.419-.241.28-.362.689-.362 1.229V229h-1.676Zm6.068 0v-10.909h1.619v1.648h.114c.199-.54.559-.978 1.08-1.314a3.177 3.177 0 0 1 1.761-.505c.123 0 .277.003.462.008.184.004.324.011.419.021v1.704a5.397 5.397 0 0 0-.391-.064 3.867 3.867 0 0 0-.632-.049c-.53 0-1.004.111-1.421.334a2.51 2.51 0 0 0-.98.909 2.454 2.454 0 0 0-.355 1.314V229h-1.676Zm11.283.227c-1.051 0-1.958-.232-2.72-.696a4.677 4.677 0 0 1-1.754-1.96c-.407-.843-.611-1.823-.611-2.94 0-1.118.204-2.103.611-2.955.412-.857.985-1.524 1.719-2.003.738-.483 1.6-.724 2.585-.724.568 0 1.129.095 1.683.284a4.17 4.17 0 0 1 1.513.923c.454.422.817.98 1.087 1.676.269.696.404 1.553.404 2.571v.711h-8.409v-1.449h6.705c0-.616-.123-1.165-.37-1.648a2.78 2.78 0 0 0-1.036-1.143c-.446-.28-.971-.419-1.577-.419-.668 0-1.245.165-1.733.497a3.264 3.264 0 0 0-1.115 1.278 3.75 3.75 0 0 0-.391 1.69v.966c0 .824.142 1.523.426 2.096a3.07 3.07 0 0 0 1.201 1.299c.511.294 1.105.441 1.782.441.441 0 .838-.062 1.193-.185.36-.128.67-.317.931-.568.26-.256.462-.573.604-.952l1.619.455a3.595 3.595 0 0 1-.859 1.448c-.403.412-.9.734-1.492.966-.592.228-1.257.341-1.996.341Zm11.241 0c-1.051 0-1.958-.232-2.72-.696a4.672 4.672 0 0 1-1.755-1.96c-.407-.843-.61-1.823-.61-2.94 0-1.118.203-2.103.61-2.955.412-.857.985-1.524 1.719-2.003.739-.483 1.601-.724 2.585-.724.569 0 1.13.095 1.684.284a4.159 4.159 0 0 1 1.512.923c.455.422.817.98 1.087 1.676s.405 1.553.405 2.571v.711h-8.409v-1.449h6.704c0-.616-.123-1.165-.369-1.648a2.775 2.775 0 0 0-1.037-1.143c-.445-.28-.97-.419-1.577-.419-.667 0-1.245.165-1.732.497a3.275 3.275 0 0 0-1.116 1.278 3.762 3.762 0 0 0-.39 1.69v.966c0 .824.142 1.523.426 2.096a3.074 3.074 0 0 0 1.2 1.299c.512.294 1.106.441 1.783.441.44 0 .838-.062 1.193-.185.36-.128.67-.317.931-.568.26-.256.461-.573.603-.952l1.62.455a3.586 3.586 0 0 1-.86 1.448 4.18 4.18 0 0 1-1.491.966c-.592.228-1.257.341-1.996.341Zm8.343-14.772V229h-1.676v-14.545h1.676Zm5.88 14.801a4.438 4.438 0 0 1-1.882-.391 3.222 3.222 0 0 1-1.342-1.143c-.332-.502-.498-1.108-.498-1.819 0-.625.124-1.131.37-1.519a2.61 2.61 0 0 1 .987-.924 5.203 5.203 0 0 1 1.364-.497 16.346 16.346 0 0 1 1.512-.27 72.061 72.061 0 0 1 1.613-.192c.416-.047.719-.125.909-.234.194-.109.291-.298.291-.568v-.057c0-.701-.192-1.245-.575-1.633-.379-.389-.954-.583-1.726-.583-.8 0-1.428.175-1.882.526-.455.35-.775.724-.959 1.122l-1.591-.568c.284-.663.663-1.179 1.136-1.549a4.259 4.259 0 0 1 1.563-.781 6.508 6.508 0 0 1 1.676-.227c.35 0 .753.042 1.207.128.46.08.902.248 1.328.504.431.256.789.642 1.073 1.158.284.516.426 1.207.426 2.073V229h-1.676v-1.477h-.085c-.114.236-.303.49-.569.76-.265.27-.617.499-1.058.689-.44.189-.978.284-1.612.284Zm.256-1.506c.663 0 1.221-.13 1.676-.391.459-.26.805-.596 1.037-1.008.236-.412.355-.845.355-1.3v-1.534c-.071.085-.227.163-.469.234a7.689 7.689 0 0 1-.824.178c-.308.047-.608.09-.902.128-.289.033-.523.061-.703.085a6.396 6.396 0 0 0-1.221.277c-.375.123-.678.31-.91.561-.227.246-.34.582-.34 1.009 0 .582.215 1.022.646 1.321.435.293.987.44 1.655.44Zm9.079-5.312V229h-1.676v-10.909h1.62v1.704h.142a3.113 3.113 0 0 1 1.164-1.335c.521-.341 1.194-.511 2.017-.511.739 0 1.385.151 1.939.454.554.299.985.753 1.293 1.364.308.606.462 1.373.462 2.301V229h-1.676v-6.818c0-.857-.223-1.525-.668-2.003-.445-.483-1.056-.724-1.832-.724-.536 0-1.014.116-1.435.348-.417.232-.746.57-.987 1.015-.242.445-.363.985-.363 1.62Zm14.055 6.789c-1.022 0-1.903-.241-2.642-.724-.738-.483-1.307-1.148-1.704-1.996-.398-.847-.597-1.816-.597-2.905 0-1.108.204-2.085.611-2.933.412-.852.985-1.517 1.719-1.996.738-.483 1.6-.724 2.585-.724.767 0 1.458.142 2.074.426.615.284 1.12.682 1.513 1.193.393.512.636 1.108.731 1.79h-1.676c-.128-.497-.412-.938-.852-1.321-.436-.388-1.023-.582-1.762-.582-.653 0-1.226.17-1.718.511-.488.336-.869.812-1.144 1.427-.27.611-.405 1.329-.405 2.152 0 .843.133 1.577.398 2.202.27.625.649 1.11 1.136 1.456.493.346 1.07.519 1.733.519.436 0 .831-.076 1.186-.228a2.432 2.432 0 0 0 1.428-1.676h1.676a3.886 3.886 0 0 1-.703 1.74 3.92 3.92 0 0 1-1.47 1.222c-.606.298-1.312.447-2.117.447Zm10.914 0c-1.051 0-1.958-.232-2.72-.696a4.677 4.677 0 0 1-1.754-1.96c-.407-.843-.611-1.823-.611-2.94 0-1.118.204-2.103.611-2.955.412-.857.985-1.524 1.719-2.003.738-.483 1.6-.724 2.585-.724.568 0 1.129.095 1.683.284a4.17 4.17 0 0 1 1.513.923c.454.422.817.98 1.086 1.676.27.696.405 1.553.405 2.571v.711h-8.409v-1.449h6.705c0-.616-.123-1.165-.37-1.648a2.78 2.78 0 0 0-1.036-1.143c-.446-.28-.971-.419-1.577-.419-.668 0-1.245.165-1.733.497a3.264 3.264 0 0 0-1.115 1.278 3.75 3.75 0 0 0-.391 1.69v.966c0 .824.142 1.523.426 2.096a3.07 3.07 0 0 0 1.201 1.299c.511.294 1.105.441 1.782.441.441 0 .838-.062 1.193-.185.36-.128.67-.317.931-.568.26-.256.461-.573.604-.952l1.619.455a3.586 3.586 0 0 1-.86 1.448 4.18 4.18 0 0 1-1.491.966c-.592.228-1.257.341-1.996.341Zm6.667-.227v-10.909h1.619v1.648h.114c.199-.54.559-.978 1.08-1.314a3.175 3.175 0 0 1 1.761-.505c.123 0 .277.003.462.008.184.004.324.011.419.021v1.704a5.397 5.397 0 0 0-.391-.064 3.867 3.867 0 0 0-.632-.049c-.53 0-1.004.111-1.421.334a2.51 2.51 0 0 0-.98.909 2.454 2.454 0 0 0-.355 1.314V229h-1.676Zm14.769-8.466-1.506.426a2.78 2.78 0 0 0-.419-.731 2.025 2.025 0 0 0-.739-.597c-.312-.156-.712-.234-1.2-.234-.668 0-1.224.154-1.669.461-.44.303-.66.689-.66 1.158 0 .417.151.746.454.987.303.242.777.443 1.421.604l1.619.398c.975.236 1.702.599 2.18 1.086.478.483.718 1.106.718 1.868 0 .625-.18 1.184-.54 1.676-.355.493-.852.881-1.492 1.165-.639.284-1.382.426-2.23.426-1.112 0-2.033-.241-2.763-.724-.729-.483-1.19-1.189-1.385-2.117l1.591-.397c.152.587.438 1.027.86 1.321.426.293.982.44 1.669.44.781 0 1.401-.166 1.861-.497.464-.336.696-.739.696-1.208 0-.378-.133-.696-.398-.951-.265-.261-.672-.455-1.222-.583l-1.818-.426c-.999-.237-1.733-.603-2.202-1.101-.464-.502-.696-1.129-.696-1.882 0-.615.173-1.16.519-1.633.35-.474.826-.845 1.427-1.115.606-.27 1.293-.405 2.06-.405 1.08 0 1.927.237 2.543.71a3.839 3.839 0 0 1 1.321 1.875Zm4.822 6.477-.114.767a15.49 15.49 0 0 1-.369 1.733 31.724 31.724 0 0 1-.505 1.74c-.175.545-.319.978-.433 1.3h-1.278l.241-1.2c.1-.497.199-1.054.299-1.669.104-.611.189-1.236.255-1.875l.085-.796h1.819Zm15.657-6.477-1.505.426a2.808 2.808 0 0 0-.419-.731 2.025 2.025 0 0 0-.739-.597c-.312-.156-.713-.234-1.2-.234-.668 0-1.224.154-1.669.461-.441.303-.661.689-.661 1.158 0 .417.152.746.455.987.303.242.776.443 1.42.604l1.62.398c.975.236 1.702.599 2.18 1.086.478.483.717 1.106.717 1.868 0 .625-.18 1.184-.54 1.676-.355.493-.852.881-1.491 1.165-.639.284-1.383.426-2.23.426-1.113 0-2.034-.241-2.763-.724-.729-.483-1.191-1.189-1.385-2.117l1.591-.397c.152.587.438 1.027.859 1.321.427.293.983.44 1.669.44.782 0 1.402-.166 1.861-.497.464-.336.696-.739.696-1.208 0-.378-.132-.696-.397-.951-.266-.261-.673-.455-1.222-.583l-1.818-.426c-.999-.237-1.733-.603-2.202-1.101-.464-.502-.696-1.129-.696-1.882 0-.615.173-1.16.519-1.633.35-.474.826-.845 1.427-1.115.606-.27 1.293-.405 2.06-.405 1.079 0 1.927.237 2.542.71a3.826 3.826 0 0 1 1.321 1.875Zm6.896 8.693c-1.051 0-1.958-.232-2.72-.696-.758-.469-1.342-1.122-1.754-1.96-.407-.843-.611-1.823-.611-2.94 0-1.118.204-2.103.611-2.955.412-.857.985-1.524 1.719-2.003.738-.483 1.6-.724 2.585-.724.568 0 1.129.095 1.683.284a4.17 4.17 0 0 1 1.513.923c.454.422.817.98 1.086 1.676.27.696.405 1.553.405 2.571v.711h-8.409v-1.449h6.705c0-.616-.123-1.165-.37-1.648a2.775 2.775 0 0 0-1.037-1.143c-.445-.28-.97-.419-1.576-.419-.668 0-1.246.165-1.733.497a3.264 3.264 0 0 0-1.115 1.278 3.75 3.75 0 0 0-.391 1.69v.966c0 .824.142 1.523.426 2.096a3.07 3.07 0 0 0 1.201 1.299c.511.294 1.105.441 1.782.441.441 0 .838-.062 1.193-.185.36-.128.67-.317.931-.568.26-.256.461-.573.603-.952l1.62.455a3.586 3.586 0 0 1-.86 1.448 4.18 4.18 0 0 1-1.491.966c-.592.228-1.257.341-1.996.341Zm8.343-14.772V229h-1.676v-14.545h1.676Zm7.528 3.636v1.42h-5.881v-1.42h5.881ZM514.116 229v-12.415c0-.625.146-1.146.44-1.562a2.735 2.735 0 0 1 1.144-.938 3.614 3.614 0 0 1 1.484-.312c.412 0 .748.033 1.008.099.261.066.455.128.583.185l-.483 1.449a7.973 7.973 0 0 0-.355-.107 2.181 2.181 0 0 0-.583-.064c-.554 0-.954.14-1.2.419-.241.28-.362.689-.362 1.229V229h-1.676Zm11.752-7.017v1.562h-6.364v-1.562h6.364Zm7.123 7.244c-1.051 0-1.958-.232-2.72-.696a4.672 4.672 0 0 1-1.755-1.96c-.407-.843-.61-1.823-.61-2.94 0-1.118.203-2.103.61-2.955.412-.857.985-1.524 1.719-2.003.739-.483 1.6-.724 2.585-.724.568 0 1.13.095 1.684.284a4.159 4.159 0 0 1 1.512.923c.455.422.817.98 1.087 1.676s.405 1.553.405 2.571v.711h-8.409v-1.449h6.704c0-.616-.123-1.165-.369-1.648a2.782 2.782 0 0 0-1.037-1.143c-.445-.28-.971-.419-1.577-.419-.667 0-1.245.165-1.733.497a3.272 3.272 0 0 0-1.115 1.278 3.762 3.762 0 0 0-.39 1.69v.966c0 .824.142 1.523.426 2.096a3.074 3.074 0 0 0 1.2 1.299c.511.294 1.106.441 1.783.441.44 0 .838-.062 1.193-.185.36-.128.67-.317.93-.568.261-.256.462-.573.604-.952l1.619.455a3.584 3.584 0 0 1-.859 1.448 4.19 4.19 0 0 1-1.491.966c-.592.228-1.258.341-1.996.341Zm6.667-.227v-10.909h1.619v1.704h.142a2.739 2.739 0 0 1 1.101-1.356c.506-.327 1.115-.49 1.825-.49.72 0 1.319.163 1.797.49.483.322.859.774 1.129 1.356h.114a3.179 3.179 0 0 1 1.257-1.342c.559-.336 1.229-.504 2.01-.504.975 0 1.773.305 2.393.916.621.606.931 1.551.931 2.834V229H552.3v-7.301c0-.805-.221-1.38-.661-1.726-.44-.346-.959-.518-1.555-.518-.767 0-1.362.232-1.783.696-.421.459-.632 1.041-.632 1.747V229h-1.705v-7.472c0-.62-.201-1.119-.603-1.498-.403-.384-.921-.575-1.556-.575-.435 0-.843.116-1.221.348a2.633 2.633 0 0 0-.909.965c-.228.408-.341.879-.341 1.414V229h-1.676Zm16.982 4.091v-15h1.62v1.733h.199c.123-.19.293-.431.511-.725.222-.298.54-.563.952-.795.416-.237.98-.355 1.69-.355.919 0 1.728.23 2.429.689.701.459 1.248 1.11 1.641 1.953s.589 1.837.589 2.983c0 1.155-.196 2.157-.589 3.004-.393.843-.938 1.496-1.634 1.96-.696.46-1.499.689-2.408.689-.7 0-1.261-.116-1.683-.348-.421-.236-.746-.504-.973-.802a10.726 10.726 0 0 1-.525-.753h-.143v5.767h-1.676Zm1.648-9.546c0 .824.121 1.551.362 2.181.242.625.595 1.115 1.059 1.47.464.35 1.032.526 1.704.526.701 0 1.286-.185 1.754-.554.474-.374.829-.876 1.066-1.506.241-.635.362-1.34.362-2.117 0-.767-.118-1.458-.355-2.073-.232-.621-.585-1.111-1.058-1.471-.469-.364-1.059-.546-1.769-.546-.682 0-1.255.172-1.719.518-.464.341-.814.819-1.051 1.435-.237.61-.355 1.323-.355 2.137Zm11.816-9.09V229h-1.676v-14.545h1.676Zm7.102 14.772c-.985 0-1.849-.234-2.593-.703-.738-.469-1.316-1.124-1.733-1.967-.411-.843-.617-1.828-.617-2.955 0-1.136.206-2.128.617-2.976.417-.847.995-1.505 1.733-1.974.744-.469 1.608-.703 2.593-.703.985 0 1.846.234 2.585.703.743.469 1.321 1.127 1.733 1.974.417.848.625 1.84.625 2.976 0 1.127-.208 2.112-.625 2.955-.412.843-.99 1.498-1.733 1.967-.739.469-1.6.703-2.585.703Zm0-1.505c.748 0 1.363-.192 1.846-.576a3.387 3.387 0 0 0 1.073-1.512 5.797 5.797 0 0 0 .348-2.032 5.85 5.85 0 0 0-.348-2.038 3.433 3.433 0 0 0-1.073-1.527c-.483-.388-1.098-.582-1.846-.582s-1.364.194-1.847.582c-.483.388-.84.897-1.072 1.527a5.85 5.85 0 0 0-.348 2.038c0 .729.116 1.407.348 2.032.232.625.589 1.129 1.072 1.512.483.384 1.099.576 1.847.576Zm7.79 5.369c-.284 0-.537-.024-.759-.071a1.997 1.997 0 0 1-.462-.128l.426-1.477c.407.104.767.142 1.08.113.312-.028.589-.168.831-.419.246-.246.471-.646.674-1.2l.313-.852-4.034-10.966h1.818l3.011 8.693h.114l3.011-8.693h1.818l-4.63 12.5c-.209.563-.467 1.03-.774 1.399a2.908 2.908 0 0 1-1.073.831c-.402.18-.857.27-1.364.27Zm13.837-3.864c-1.051 0-1.958-.232-2.72-.696a4.672 4.672 0 0 1-1.755-1.96c-.407-.843-.61-1.823-.61-2.94 0-1.118.203-2.103.61-2.955.412-.857.985-1.524 1.719-2.003.739-.483 1.601-.724 2.585-.724.569 0 1.13.095 1.684.284a4.159 4.159 0 0 1 1.512.923c.455.422.817.98 1.087 1.676s.405 1.553.405 2.571v.711h-8.409v-1.449h6.704c0-.616-.123-1.165-.369-1.648a2.775 2.775 0 0 0-1.037-1.143c-.445-.28-.97-.419-1.577-.419-.667 0-1.245.165-1.732.497a3.275 3.275 0 0 0-1.116 1.278 3.762 3.762 0 0 0-.39 1.69v.966c0 .824.142 1.523.426 2.096a3.074 3.074 0 0 0 1.2 1.299c.512.294 1.106.441 1.783.441.44 0 .838-.062 1.193-.185.36-.128.67-.317.931-.568.26-.256.461-.573.603-.952l1.62.455a3.586 3.586 0 0 1-.86 1.448 4.18 4.18 0 0 1-1.491.966c-.592.228-1.257.341-1.996.341Zm10.786 0c-.909 0-1.712-.229-2.408-.689-.696-.464-1.24-1.117-1.633-1.96-.393-.847-.59-1.849-.59-3.004 0-1.146.197-2.14.59-2.983.393-.843.94-1.494 1.64-1.953.701-.459 1.511-.689 2.429-.689.711 0 1.272.118 1.684.355.416.232.734.497.951.795.223.294.396.535.519.725h.142v-5.369h1.676V229H613v-1.676h-.199c-.123.199-.298.45-.526.753-.227.298-.551.566-.973.802-.421.232-.982.348-1.683.348Zm.227-1.505c.673 0 1.241-.176 1.705-.526.464-.355.817-.845 1.058-1.47.242-.63.362-1.357.362-2.181 0-.814-.118-1.527-.355-2.137-.237-.616-.587-1.094-1.051-1.435-.464-.346-1.037-.518-1.719-.518-.71 0-1.302.182-1.775.546-.469.36-.822.85-1.058 1.471-.232.615-.348 1.306-.348 2.073 0 .777.118 1.482.355 2.117.241.63.596 1.132 1.065 1.506.473.369 1.061.554 1.761.554Zm10.176-.711-.114.767c-.081.54-.204 1.118-.369 1.733a31.724 31.724 0 0 1-.505 1.74c-.175.545-.319.978-.433 1.3h-1.278l.241-1.2c.1-.497.199-1.054.298-1.669.105-.611.19-1.236.256-1.875l.085-.796h1.819Zm11.14 2.245a4.442 4.442 0 0 1-1.882-.391 3.228 3.228 0 0 1-1.342-1.143c-.332-.502-.497-1.108-.497-1.819 0-.625.123-1.131.369-1.519a2.61 2.61 0 0 1 .987-.924 5.216 5.216 0 0 1 1.364-.497 16.367 16.367 0 0 1 1.513-.27c.663-.085 1.2-.149 1.612-.192.417-.047.72-.125.909-.234.194-.109.291-.298.291-.568v-.057c0-.701-.192-1.245-.575-1.633-.379-.389-.954-.583-1.726-.583-.8 0-1.428.175-1.882.526-.455.35-.774.724-.959 1.122l-1.591-.568c.284-.663.663-1.179 1.137-1.549a4.262 4.262 0 0 1 1.562-.781 6.508 6.508 0 0 1 1.676-.227c.351 0 .753.042 1.208.128.459.08.902.248 1.328.504.431.256.788.642 1.072 1.158.284.516.426 1.207.426 2.073V229h-1.676v-1.477h-.085c-.114.236-.303.49-.568.76-.265.27-.618.499-1.058.689-.441.189-.978.284-1.613.284Zm.256-1.506c.663 0 1.222-.13 1.676-.391.459-.26.805-.596 1.037-1.008.237-.412.355-.845.355-1.3v-1.534c-.071.085-.227.163-.469.234a7.666 7.666 0 0 1-.823.178c-.308.047-.609.09-.902.128-.289.033-.524.061-.704.085a6.413 6.413 0 0 0-1.221.277c-.374.123-.677.31-.909.561-.228.246-.341.582-.341 1.009 0 .582.215 1.022.646 1.321.436.293.987.44 1.655.44Zm9.08-5.312V229h-1.676v-10.909h1.619v1.704h.142a3.115 3.115 0 0 1 1.165-1.335c.521-.341 1.193-.511 2.017-.511.738 0 1.385.151 1.939.454.554.299.985.753 1.292 1.364.308.606.462 1.373.462 2.301V229h-1.676v-6.818c0-.857-.223-1.525-.668-2.003-.445-.483-1.056-.724-1.832-.724-.535 0-1.013.116-1.435.348-.417.232-.746.57-.987 1.015-.242.445-.362.985-.362 1.62Zm13.742 6.789c-.909 0-1.712-.229-2.408-.689-.696-.464-1.24-1.117-1.633-1.96-.393-.847-.59-1.849-.59-3.004 0-1.146.197-2.14.59-2.983.393-.843.94-1.494 1.641-1.953.7-.459 1.51-.689 2.429-.689.71 0 1.271.118 1.683.355.416.232.734.497.951.795.223.294.396.535.519.725h.142v-5.369h1.676V229h-1.619v-1.676h-.199c-.123.199-.298.45-.526.753-.227.298-.551.566-.973.802-.421.232-.982.348-1.683.348Zm.227-1.505c.673 0 1.241-.176 1.705-.526.464-.355.817-.845 1.058-1.47.242-.63.362-1.357.362-2.181 0-.814-.118-1.527-.355-2.137-.236-.616-.587-1.094-1.051-1.435-.464-.346-1.037-.518-1.719-.518-.71 0-1.302.182-1.775.546-.469.36-.822.85-1.058 1.471-.232.615-.348 1.306-.348 2.073 0 .777.118 1.482.355 2.117.241.63.596 1.132 1.065 1.506.474.369 1.061.554 1.761.554Zm-191.315 20.812-1.506.426a2.753 2.753 0 0 0-.419-.731 2.03 2.03 0 0 0-.738-.597c-.313-.156-.713-.234-1.201-.234-.667 0-1.224.154-1.669.461-.44.303-.66.689-.66 1.158 0 .417.151.746.454.987.303.242.777.443 1.421.604l1.619.398c.976.236 1.702.599 2.181 1.086.478.483.717 1.106.717 1.868 0 .625-.18 1.184-.54 1.676-.355.493-.852.881-1.491 1.165-.64.284-1.383.426-2.231.426-1.112 0-2.033-.241-2.762-.724-.729-.483-1.191-1.189-1.385-2.117l1.591-.397c.151.587.438 1.027.859 1.321.426.293.983.44 1.669.44.781 0 1.402-.166 1.861-.497.464-.336.696-.739.696-1.208 0-.378-.133-.696-.398-.951-.265-.261-.672-.455-1.221-.583l-1.819-.426c-.999-.237-1.733-.603-2.201-1.101-.464-.502-.696-1.129-.696-1.882 0-.615.172-1.16.518-1.633.351-.474.826-.845 1.428-1.115.606-.27 1.292-.405 2.059-.405 1.08 0 1.927.237 2.543.71a3.832 3.832 0 0 1 1.321 1.875Zm2.322 8.466v-10.909h1.619v1.704h.142a2.75 2.75 0 0 1 1.101-1.356c.507-.327 1.115-.49 1.825-.49.72 0 1.319.163 1.797.49.483.322.86.774 1.13 1.356h.113c.28-.563.699-1.01 1.257-1.342.559-.336 1.229-.504 2.01-.504.976 0 1.773.305 2.394.916.62.606.93 1.551.93 2.834V257h-1.676v-7.301c0-.805-.22-1.38-.661-1.726-.44-.346-.958-.518-1.555-.518-.767 0-1.361.232-1.783.696-.421.459-.632 1.041-.632 1.747V257h-1.704v-7.472c0-.62-.201-1.119-.604-1.498-.402-.384-.921-.575-1.555-.575-.436 0-.843.116-1.222.348a2.633 2.633 0 0 0-.909.965c-.227.408-.341.879-.341 1.414V257h-1.676Zm20.193.256a4.438 4.438 0 0 1-1.882-.391 3.222 3.222 0 0 1-1.342-1.143c-.332-.502-.498-1.108-.498-1.819 0-.625.123-1.131.37-1.519a2.61 2.61 0 0 1 .987-.924 5.203 5.203 0 0 1 1.364-.497 16.346 16.346 0 0 1 1.512-.27 72.061 72.061 0 0 1 1.613-.192c.416-.047.719-.125.909-.234.194-.109.291-.298.291-.568v-.057c0-.701-.192-1.245-.575-1.633-.379-.389-.955-.583-1.726-.583-.8 0-1.428.175-1.882.526-.455.35-.775.724-.959 1.122l-1.591-.568c.284-.663.663-1.179 1.136-1.549a4.259 4.259 0 0 1 1.563-.781 6.508 6.508 0 0 1 1.676-.227c.35 0 .753.042 1.207.128.46.08.902.248 1.328.504.431.256.789.642 1.073 1.158.284.516.426 1.207.426 2.073V257h-1.676v-1.477h-.085c-.114.236-.303.49-.569.76-.265.27-.617.499-1.058.689-.44.189-.978.284-1.612.284Zm.256-1.506c.663 0 1.221-.13 1.676-.391.459-.26.805-.596 1.037-1.008.236-.412.355-.845.355-1.3v-1.534c-.071.085-.227.163-.469.234a7.689 7.689 0 0 1-.824.178c-.308.047-.608.09-.902.128-.289.033-.523.061-.703.085a6.396 6.396 0 0 0-1.221.277c-.375.123-.678.31-.91.561-.227.246-.34.582-.34 1.009 0 .582.215 1.022.646 1.321.435.293.987.44 1.655.44Zm9.079-13.295V257h-1.676v-14.545h1.676Zm4.347 0V257h-1.677v-14.545h1.677ZM340.389 285v-14.545h1.676v5.369h.142c.123-.19.293-.431.511-.725.223-.298.54-.563.952-.795.417-.237.98-.355 1.69-.355.919 0 1.729.23 2.429.689.701.459 1.248 1.11 1.641 1.953s.589 1.837.589 2.983c0 1.155-.196 2.157-.589 3.004-.393.843-.938 1.496-1.634 1.96-.696.46-1.498.689-2.407.689-.701 0-1.262-.116-1.684-.348-.421-.236-.745-.504-.973-.802a10.726 10.726 0 0 1-.525-.753h-.199V285h-1.619Zm1.647-5.455c0 .824.121 1.551.363 2.181.241.625.594 1.115 1.058 1.47.464.35 1.032.526 1.704.526.701 0 1.286-.185 1.755-.554.473-.374.828-.876 1.065-1.506.242-.635.362-1.34.362-2.117 0-.767-.118-1.458-.355-2.073-.232-.621-.585-1.111-1.058-1.471-.469-.364-1.058-.546-1.769-.546-.681 0-1.254.172-1.718.518-.464.341-.815.819-1.051 1.435-.237.61-.356 1.323-.356 2.137Zm17.022.995v-6.449h1.676V285h-1.676v-1.847h-.113a3.582 3.582 0 0 1-1.194 1.414c-.539.383-1.221.575-2.045.575-.682 0-1.288-.149-1.818-.447-.53-.303-.947-.758-1.25-1.364-.303-.611-.455-1.38-.455-2.308v-6.932h1.676v6.818c0 .796.223 1.43.668 1.903.45.474 1.023.711 1.719.711.416 0 .84-.107 1.271-.32.436-.213.8-.54 1.094-.98.298-.44.447-1.001.447-1.683Zm12.074-4.006-1.506.426a2.78 2.78 0 0 0-.419-.731 2.025 2.025 0 0 0-.739-.597c-.312-.156-.712-.234-1.2-.234-.668 0-1.224.154-1.669.461-.44.303-.661.689-.661 1.158 0 .417.152.746.455.987.303.242.777.443 1.42.604l1.62.398c.975.236 1.702.599 2.18 1.086.478.483.718 1.106.718 1.868 0 .625-.18 1.184-.54 1.676-.355.493-.853.881-1.492 1.165-.639.284-1.382.426-2.23.426-1.113 0-2.033-.241-2.763-.724-.729-.483-1.19-1.189-1.385-2.117l1.591-.397c.152.587.438 1.027.86 1.321.426.293.982.44 1.669.44.781 0 1.401-.166 1.861-.497.464-.336.696-.739.696-1.208 0-.378-.133-.696-.398-.951-.265-.261-.672-.455-1.222-.583l-1.818-.426c-.999-.237-1.733-.603-2.202-1.101-.464-.502-.696-1.129-.696-1.882 0-.615.173-1.16.519-1.633.35-.474.826-.845 1.427-1.115.606-.27 1.293-.405 2.06-.405 1.08 0 1.927.237 2.543.71a3.839 3.839 0 0 1 1.321 1.875Zm2.322 8.466v-10.909h1.676V285h-1.676Zm.852-12.727c-.327 0-.609-.112-.845-.334a1.073 1.073 0 0 1-.348-.803c0-.312.116-.58.348-.802.236-.223.518-.334.845-.334.327 0 .606.111.838.334.237.222.355.49.355.802 0 .313-.118.58-.355.803a1.169 1.169 0 0 1-.838.334Zm5.17 6.165V285H377.8v-10.909h1.619v1.704h.142a3.115 3.115 0 0 1 1.165-1.335c.521-.341 1.193-.511 2.017-.511.739 0 1.385.151 1.939.454.554.299.985.753 1.292 1.364.308.606.462 1.373.462 2.301V285h-1.676v-6.818c0-.857-.223-1.525-.668-2.003-.445-.483-1.056-.724-1.832-.724-.535 0-1.013.116-1.435.348-.416.232-.745.57-.987 1.015-.241.445-.362.985-.362 1.62Zm14.197 6.789c-1.051 0-1.958-.232-2.72-.696a4.672 4.672 0 0 1-1.755-1.96c-.407-.843-.61-1.823-.61-2.94 0-1.118.203-2.103.61-2.955.412-.857.985-1.524 1.719-2.003.739-.483 1.601-.724 2.585-.724.569 0 1.13.095 1.684.284a4.159 4.159 0 0 1 1.512.923c.455.422.817.98 1.087 1.676s.405 1.553.405 2.571v.711h-8.409v-1.449h6.704c0-.616-.123-1.165-.369-1.648a2.775 2.775 0 0 0-1.037-1.143c-.445-.28-.971-.419-1.577-.419-.667 0-1.245.165-1.733.497a3.272 3.272 0 0 0-1.115 1.278 3.762 3.762 0 0 0-.39 1.69v.966c0 .824.142 1.523.426 2.096a3.074 3.074 0 0 0 1.2 1.299c.511.294 1.106.441 1.783.441.44 0 .838-.062 1.193-.185.36-.128.67-.317.93-.568.261-.256.462-.573.604-.952l1.619.455a3.584 3.584 0 0 1-.859 1.448 4.19 4.19 0 0 1-1.491.966c-.592.228-1.258.341-1.996.341Zm14.394-8.693-1.506.426a2.78 2.78 0 0 0-.419-.731 2.025 2.025 0 0 0-.739-.597c-.312-.156-.712-.234-1.2-.234-.667 0-1.224.154-1.669.461-.44.303-.66.689-.66 1.158 0 .417.151.746.454.987.303.242.777.443 1.421.604l1.619.398c.975.236 1.702.599 2.18 1.086.479.483.718 1.106.718 1.868 0 .625-.18 1.184-.54 1.676-.355.493-.852.881-1.492 1.165-.639.284-1.382.426-2.23.426-1.112 0-2.033-.241-2.762-.724-.73-.483-1.191-1.189-1.385-2.117l1.591-.397c.151.587.437 1.027.859 1.321.426.293.982.44 1.669.44.781 0 1.401-.166 1.861-.497.464-.336.696-.739.696-1.208 0-.378-.133-.696-.398-.951-.265-.261-.672-.455-1.222-.583l-1.818-.426c-.999-.237-1.733-.603-2.201-1.101-.464-.502-.696-1.129-.696-1.882 0-.615.172-1.16.518-1.633.35-.474.826-.845 1.428-1.115.606-.27 1.292-.405 2.059-.405 1.08 0 1.927.237 2.543.71a3.839 3.839 0 0 1 1.321 1.875Zm10.049 0-1.506.426a2.753 2.753 0 0 0-.419-.731 2.03 2.03 0 0 0-.738-.597c-.313-.156-.713-.234-1.201-.234-.667 0-1.224.154-1.669.461-.44.303-.66.689-.66 1.158 0 .417.151.746.454.987.303.242.777.443 1.421.604l1.619.398c.976.236 1.702.599 2.181 1.086.478.483.717 1.106.717 1.868 0 .625-.18 1.184-.54 1.676-.355.493-.852.881-1.491 1.165-.64.284-1.383.426-2.23.426-1.113 0-2.034-.241-2.763-.724-.729-.483-1.191-1.189-1.385-2.117l1.591-.397c.151.587.438 1.027.859 1.321.426.293.983.44 1.669.44.781 0 1.402-.166 1.861-.497.464-.336.696-.739.696-1.208 0-.378-.133-.696-.398-.951-.265-.261-.672-.455-1.221-.583l-1.819-.426c-.999-.237-1.732-.603-2.201-1.101-.464-.502-.696-1.129-.696-1.882a2.7 2.7 0 0 1 .518-1.633c.351-.474.826-.845 1.428-1.115.606-.27 1.292-.405 2.059-.405 1.08 0 1.928.237 2.543.71a3.832 3.832 0 0 1 1.321 1.875Zm6.896 8.693c-1.051 0-1.958-.232-2.72-.696a4.672 4.672 0 0 1-1.755-1.96c-.407-.843-.61-1.823-.61-2.94 0-1.118.203-2.103.61-2.955.412-.857.985-1.524 1.719-2.003.739-.483 1.601-.724 2.585-.724.569 0 1.13.095 1.684.284a4.159 4.159 0 0 1 1.512.923c.455.422.817.98 1.087 1.676s.405 1.553.405 2.571v.711h-8.409v-1.449h6.704c0-.616-.123-1.165-.369-1.648a2.775 2.775 0 0 0-1.037-1.143c-.445-.28-.971-.419-1.577-.419-.667 0-1.245.165-1.733.497a3.28 3.28 0 0 0-1.115 1.278 3.762 3.762 0 0 0-.39 1.69v.966c0 .824.142 1.523.426 2.096a3.074 3.074 0 0 0 1.2 1.299c.512.294 1.106.441 1.783.441.44 0 .838-.062 1.193-.185.36-.128.67-.317.93-.568.261-.256.462-.573.604-.952l1.619.455a3.573 3.573 0 0 1-.859 1.448 4.19 4.19 0 0 1-1.491.966c-.592.228-1.257.341-1.996.341Zm14.394-8.693-1.506.426a2.753 2.753 0 0 0-.419-.731 2.03 2.03 0 0 0-.738-.597c-.313-.156-.713-.234-1.201-.234-.667 0-1.224.154-1.669.461-.44.303-.66.689-.66 1.158 0 .417.151.746.454.987.303.242.777.443 1.421.604l1.619.398c.975.236 1.702.599 2.18 1.086.479.483.718 1.106.718 1.868 0 .625-.18 1.184-.54 1.676-.355.493-.852.881-1.491 1.165-.64.284-1.383.426-2.231.426-1.112 0-2.033-.241-2.762-.724-.73-.483-1.191-1.189-1.385-2.117l1.591-.397c.151.587.438 1.027.859 1.321.426.293.982.44 1.669.44.781 0 1.402-.166 1.861-.497.464-.336.696-.739.696-1.208 0-.378-.133-.696-.398-.951-.265-.261-.672-.455-1.222-.583l-1.818-.426c-.999-.237-1.733-.603-2.201-1.101-.464-.502-.696-1.129-.696-1.882 0-.615.172-1.16.518-1.633.35-.474.826-.845 1.428-1.115.606-.27 1.292-.405 2.059-.405 1.08 0 1.927.237 2.543.71a3.839 3.839 0 0 1 1.321 1.875Zm7.547 8.466v-10.909h1.676V285h-1.676Zm.852-12.727c-.327 0-.608-.112-.845-.334a1.073 1.073 0 0 1-.348-.803c0-.312.116-.58.348-.802a1.19 1.19 0 0 1 .845-.334c.327 0 .606.111.838.334.237.222.355.49.355.802 0 .313-.118.58-.355.803a1.169 1.169 0 0 1-.838.334Zm5.17 6.165V285h-1.676v-10.909h1.619v1.704h.142a3.115 3.115 0 0 1 1.165-1.335c.521-.341 1.193-.511 2.017-.511.739 0 1.385.151 1.939.454.554.299.985.753 1.293 1.364.307.606.461 1.373.461 2.301V285h-1.676v-6.818c0-.857-.222-1.525-.667-2.003-.446-.483-1.056-.724-1.833-.724-.535 0-1.013.116-1.434.348-.417.232-.746.57-.988 1.015-.241.445-.362.985-.362 1.62Zm19.592-4.347v1.42h-5.653v-1.42h5.653Zm-4.005-2.614h1.676v10.398c0 .473.069.829.206 1.065.142.232.322.389.54.469.222.076.457.114.703.114.184 0 .336-.01.454-.029l.284-.056.341 1.505a3.37 3.37 0 0 1-.476.128 3.516 3.516 0 0 1-.774.071c-.473 0-.937-.102-1.392-.305a2.764 2.764 0 0 1-1.122-.931c-.293-.416-.44-.942-.44-1.576v-10.853Zm8.037 6.961V285h-1.676v-14.545h1.676v5.34h.142c.256-.563.64-1.01 1.151-1.342.516-.336 1.203-.504 2.06-.504.743 0 1.394.149 1.953.447.558.294.992.746 1.299 1.357.313.606.469 1.378.469 2.315V285h-1.676v-6.818c0-.867-.225-1.537-.675-2.01-.445-.478-1.063-.717-1.853-.717-.55 0-1.042.116-1.478.348a2.54 2.54 0 0 0-1.022 1.015c-.247.445-.37.985-.37 1.62Zm14.314 6.789c-1.051 0-1.957-.232-2.72-.696a4.677 4.677 0 0 1-1.754-1.96c-.407-.843-.611-1.823-.611-2.94 0-1.118.204-2.103.611-2.955.412-.857.985-1.524 1.719-2.003.738-.483 1.6-.724 2.585-.724.568 0 1.129.095 1.683.284a4.17 4.17 0 0 1 1.513.923c.455.422.817.98 1.087 1.676s.404 1.553.404 2.571v.711h-8.409v-1.449h6.705c0-.616-.123-1.165-.369-1.648a2.788 2.788 0 0 0-1.037-1.143c-.445-.28-.971-.419-1.577-.419-.668 0-1.245.165-1.733.497a3.264 3.264 0 0 0-1.115 1.278 3.762 3.762 0 0 0-.391 1.69v.966c0 .824.142 1.523.426 2.096a3.07 3.07 0 0 0 1.201 1.299c.511.294 1.105.441 1.782.441.441 0 .839-.062 1.194-.185.359-.128.67-.317.93-.568.26-.256.462-.573.604-.952l1.619.455a3.584 3.584 0 0 1-.859 1.448c-.403.412-.9.734-1.492.966-.592.228-1.257.341-1.996.341Zm21.665-14.772h1.761v9.63c0 .995-.234 1.882-.703 2.664-.464.776-1.12 1.389-1.967 1.839-.848.445-1.842.668-2.983.668s-2.136-.223-2.983-.668c-.848-.45-1.506-1.063-1.975-1.839-.464-.782-.696-1.669-.696-2.664v-9.63h1.762v9.488c0 .71.156 1.343.469 1.896.312.55.757.983 1.335 1.3.582.313 1.278.469 2.088.469s1.506-.156 2.088-.469a3.299 3.299 0 0 0 1.335-1.3c.313-.553.469-1.186.469-1.896v-9.488Zm12.833 3.636a2.227 2.227 0 0 0-1.037-1.676c-.606-.398-1.349-.597-2.23-.597-.644 0-1.207.104-1.69.313-.478.208-.852.494-1.122.859a2.062 2.062 0 0 0-.398 1.243c0 .388.092.722.277 1.001.189.275.431.505.724.689.294.18.602.329.924.448.322.113.618.206.887.277l1.478.397c.379.1.8.237 1.264.412.469.176.916.415 1.342.718.431.298.786.682 1.066 1.15.279.469.419 1.044.419 1.726a3.83 3.83 0 0 1-.618 2.131c-.407.634-1.004 1.139-1.79 1.513-.781.374-1.731.561-2.848.561-1.042 0-1.944-.168-2.706-.505-.758-.336-1.354-.805-1.79-1.406-.431-.601-.675-1.3-.731-2.095h1.818c.047.549.232 1.004.554 1.364.327.355.738.62 1.236.795a4.986 4.986 0 0 0 1.619.256c.672 0 1.276-.109 1.811-.327.535-.222.959-.53 1.271-.923.313-.398.469-.862.469-1.392 0-.483-.135-.876-.405-1.179-.27-.303-.625-.549-1.065-.739-.44-.189-.916-.355-1.428-.497l-1.789-.511c-1.137-.327-2.036-.793-2.699-1.4-.663-.606-.995-1.399-.995-2.379 0-.814.221-1.524.661-2.13.445-.611 1.042-1.085 1.79-1.421.753-.341 1.593-.511 2.521-.511.937 0 1.771.168 2.5.504.729.331 1.307.786 1.733 1.364.431.577.658 1.233.682 1.967h-1.705Zm13.517 11.108c-.957 0-1.781-.175-2.472-.526-.691-.35-1.224-.831-1.598-1.441-.374-.611-.561-1.31-.561-2.096 0-.606.128-1.143.383-1.612a4.963 4.963 0 0 1 1.073-1.314c.459-.407.987-.814 1.584-1.221l2.102-1.563c.412-.27.741-.559.987-.866.251-.308.377-.711.377-1.208 0-.369-.164-.727-.49-1.072-.322-.346-.746-.519-1.272-.519-.369 0-.696.095-.98.284a2.025 2.025 0 0 0-.66.711 1.795 1.795 0 0 0-.235.88c0 .341.093.687.277 1.037.19.346.429.701.718 1.066.293.359.596.729.909 1.108l6.676 8.153h-2.017l-5.512-6.648-1.392-1.676a8.01 8.01 0 0 1-.994-1.484 3.47 3.47 0 0 1-.369-1.584c0-.653.144-1.226.433-1.719a3.015 3.015 0 0 1 1.229-1.157c.53-.28 1.15-.42 1.86-.42.73 0 1.357.143 1.883.427.525.279.93.651 1.214 1.115.284.459.426.958.426 1.498 0 .696-.173 1.3-.518 1.811-.346.512-.817.988-1.414 1.428l-2.897 2.159c-.654.483-1.096.952-1.328 1.406-.232.455-.348.781-.348.98 0 .455.118.879.355 1.272.236.393.57.71 1.001.951.431.242.935.363 1.513.363.549 0 1.084-.116 1.605-.348a4.507 4.507 0 0 0 1.413-1.023c.426-.445.763-.98 1.009-1.605.251-.625.376-1.328.376-2.11h1.62c0 .966-.112 1.755-.334 2.365-.223.611-.474 1.089-.753 1.435-.279.346-.504.604-.675.774a2.88 2.88 0 0 0-.156.213 2.88 2.88 0 0 1-.156.213 4.3 4.3 0 0 1-1.776 1.179 6.247 6.247 0 0 1-2.116.384ZM564.358 275h-1.761a3.658 3.658 0 0 0-1.485-2.301 3.985 3.985 0 0 0-1.214-.597 4.87 4.87 0 0 0-1.392-.199 4.44 4.44 0 0 0-2.394.668c-.71.445-1.276 1.101-1.697 1.967-.417.867-.625 1.93-.625 3.189 0 1.26.208 2.323.625 3.189.421.867.987 1.522 1.697 1.968a4.438 4.438 0 0 0 2.394.667c.483 0 .947-.066 1.392-.199a4.06 4.06 0 0 0 1.214-.589c.37-.265.682-.59.938-.973a3.74 3.74 0 0 0 .547-1.335h1.761a5.86 5.86 0 0 1-.724 1.995 5.468 5.468 0 0 1-1.307 1.499 5.733 5.733 0 0 1-1.754.93 6.542 6.542 0 0 1-2.067.32c-1.241 0-2.344-.303-3.31-.909-.966-.606-1.726-1.468-2.28-2.585-.554-1.118-.831-2.444-.831-3.978 0-1.534.277-2.86.831-3.977.554-1.117 1.314-1.979 2.28-2.585.966-.606 2.069-.909 3.31-.909.734 0 1.423.106 2.067.319a5.647 5.647 0 0 1 1.754.938c.521.407.956.904 1.307 1.491.35.583.592 1.248.724 1.996Zm5.429 10.256a4.442 4.442 0 0 1-1.882-.391 3.228 3.228 0 0 1-1.342-1.143c-.332-.502-.497-1.108-.497-1.819 0-.625.123-1.131.369-1.519a2.61 2.61 0 0 1 .987-.924 5.216 5.216 0 0 1 1.364-.497 16.367 16.367 0 0 1 1.513-.27c.663-.085 1.2-.149 1.612-.192.417-.047.72-.125.909-.234.194-.109.291-.298.291-.568v-.057c0-.701-.192-1.245-.575-1.633-.379-.389-.954-.583-1.726-.583-.8 0-1.428.175-1.882.526-.455.35-.774.724-.959 1.122l-1.591-.568c.284-.663.663-1.179 1.137-1.549a4.262 4.262 0 0 1 1.562-.781 6.508 6.508 0 0 1 1.676-.227c.351 0 .753.042 1.208.128.459.08.902.248 1.328.504.431.256.788.642 1.072 1.158.284.516.426 1.207.426 2.073V285h-1.676v-1.477h-.085c-.114.236-.303.49-.568.76-.265.27-.618.499-1.058.689-.441.189-.978.284-1.613.284Zm.256-1.506c.663 0 1.222-.13 1.676-.391.459-.26.805-.596 1.037-1.008.237-.412.355-.845.355-1.3v-1.534c-.071.085-.227.163-.469.234a7.666 7.666 0 0 1-.823.178c-.308.047-.609.09-.902.128-.289.033-.524.061-.704.085a6.413 6.413 0 0 0-1.221.277c-.374.123-.677.31-.909.561-.228.246-.341.582-.341 1.009 0 .582.215 1.022.646 1.321.436.293.987.44 1.655.44Zm9.08-5.312V285h-1.676v-10.909h1.619v1.704h.142a3.115 3.115 0 0 1 1.165-1.335c.521-.341 1.193-.511 2.017-.511.738 0 1.385.151 1.939.454.554.299.985.753 1.292 1.364.308.606.462 1.373.462 2.301V285h-1.676v-6.818c0-.857-.223-1.525-.668-2.003-.445-.483-1.056-.724-1.832-.724-.535 0-1.013.116-1.435.348-.417.232-.746.57-.987 1.015-.242.445-.362.985-.362 1.62Zm12.833 6.818a4.438 4.438 0 0 1-1.882-.391 3.222 3.222 0 0 1-1.342-1.143c-.332-.502-.498-1.108-.498-1.819 0-.625.124-1.131.37-1.519a2.61 2.61 0 0 1 .987-.924 5.203 5.203 0 0 1 1.364-.497 16.406 16.406 0 0 1 1.512-.27 72.061 72.061 0 0 1 1.613-.192c.416-.047.719-.125.909-.234.194-.109.291-.298.291-.568v-.057c0-.701-.192-1.245-.575-1.633-.379-.389-.954-.583-1.726-.583-.8 0-1.428.175-1.882.526-.455.35-.774.724-.959 1.122l-1.591-.568c.284-.663.663-1.179 1.136-1.549a4.266 4.266 0 0 1 1.563-.781 6.508 6.508 0 0 1 1.676-.227c.35 0 .753.042 1.207.128.46.08.902.248 1.328.504.431.256.789.642 1.073 1.158.284.516.426 1.207.426 2.073V285h-1.676v-1.477h-.085c-.114.236-.303.49-.568.76-.266.27-.618.499-1.059.689-.44.189-.977.284-1.612.284Zm.256-1.506c.663 0 1.221-.13 1.676-.391.459-.26.805-.596 1.037-1.008.237-.412.355-.845.355-1.3v-1.534c-.071.085-.227.163-.469.234a7.689 7.689 0 0 1-.824.178c-.307.047-.608.09-.902.128-.289.033-.523.061-.703.085a6.396 6.396 0 0 0-1.221.277c-.374.123-.677.31-.909.561-.228.246-.341.582-.341 1.009 0 .582.215 1.022.646 1.321.436.293.987.44 1.655.44Zm11.523 1.477c-.909 0-1.712-.229-2.408-.689-.696-.464-1.241-1.117-1.634-1.96-.393-.847-.589-1.849-.589-3.004 0-1.146.196-2.14.589-2.983.393-.843.94-1.494 1.641-1.953.701-.459 1.511-.689 2.429-.689.71 0 1.271.118 1.683.355.417.232.734.497.952.795.223.294.395.535.518.725h.143v-5.369h1.676V285h-1.62v-1.676h-.199c-.123.199-.298.45-.525.753-.227.298-.552.566-.973.802-.421.232-.983.348-1.683.348Zm.227-1.505c.672 0 1.24-.176 1.704-.526.465-.355.817-.845 1.059-1.47.241-.63.362-1.357.362-2.181 0-.814-.118-1.527-.355-2.137-.237-.616-.587-1.094-1.051-1.435-.464-.346-1.037-.518-1.719-.518-.71 0-1.302.182-1.776.546-.468.36-.821.85-1.058 1.471-.232.615-.348 1.306-.348 2.073 0 .777.119 1.482.355 2.117.242.63.597 1.132 1.066 1.506.473.369 1.06.554 1.761.554Zm10.885 1.534a4.442 4.442 0 0 1-1.882-.391 3.228 3.228 0 0 1-1.342-1.143c-.331-.502-.497-1.108-.497-1.819 0-.625.123-1.131.369-1.519a2.61 2.61 0 0 1 .987-.924 5.216 5.216 0 0 1 1.364-.497 16.367 16.367 0 0 1 1.513-.27c.663-.085 1.2-.149 1.612-.192.417-.047.72-.125.909-.234.194-.109.291-.298.291-.568v-.057c0-.701-.191-1.245-.575-1.633-.379-.389-.954-.583-1.726-.583-.8 0-1.427.175-1.882.526-.454.35-.774.724-.959 1.122l-1.591-.568c.284-.663.663-1.179 1.137-1.549a4.262 4.262 0 0 1 1.562-.781 6.508 6.508 0 0 1 1.676-.227c.351 0 .753.042 1.208.128.459.08.902.248 1.328.504.431.256.788.642 1.072 1.158.284.516.426 1.207.426 2.073V285h-1.676v-1.477h-.085c-.114.236-.303.49-.568.76-.265.27-.618.499-1.058.689-.441.189-.978.284-1.613.284Zm.256-1.506c.663 0 1.222-.13 1.676-.391.46-.26.805-.596 1.037-1.008.237-.412.355-.845.355-1.3v-1.534c-.071.085-.227.163-.468.234a7.743 7.743 0 0 1-.824.178c-.308.047-.609.09-.902.128a38.62 38.62 0 0 0-.703.085 6.406 6.406 0 0 0-1.222.277c-.374.123-.677.31-.909.561-.227.246-.341.582-.341 1.009 0 .582.215 1.022.646 1.321.436.293.988.44 1.655.44Z"/>
  <path fill="#000" d="M356 333.6c0-8.961 0-13.441 1.744-16.864a16.005 16.005 0 0 1 6.992-6.992C368.159 308 372.639 308 381.6 308h196.8c8.961 0 13.441 0 16.864 1.744a16.005 16.005 0 0 1 6.992 6.992C604 320.159 604 324.639 604 333.6v4.8c0 8.961 0 13.441-1.744 16.864a16.005 16.005 0 0 1-6.992 6.992C591.841 364 587.361 364 578.4 364H381.6c-8.961 0-13.441 0-16.864-1.744a16.005 16.005 0 0 1-6.992-6.992C356 351.841 356 347.361 356 338.4v-4.8Z"/>
  <path fill="#fff" d="M415.428 334.29h-2.125a2.626 2.626 0 0 0-.335-.926 2.492 2.492 0 0 0-.608-.694 2.546 2.546 0 0 0-.829-.426 3.256 3.256 0 0 0-.995-.147c-.632 0-1.193.159-1.682.477-.488.314-.871.776-1.147 1.386-.277.606-.415 1.347-.415 2.222 0 .89.138 1.64.415 2.25.28.606.663 1.064 1.147 1.375.489.307 1.048.46 1.677.46.348 0 .674-.045.977-.136.307-.095.581-.233.824-.415a2.53 2.53 0 0 0 .971-1.58l2.125.012a4.57 4.57 0 0 1-.517 1.557 4.609 4.609 0 0 1-1.028 1.284 4.744 4.744 0 0 1-1.489.863 5.542 5.542 0 0 1-1.892.307c-1.023 0-1.935-.237-2.739-.71-.803-.474-1.435-1.157-1.897-2.051-.462-.894-.693-1.966-.693-3.216 0-1.254.233-2.326.698-3.216.466-.894 1.101-1.578 1.904-2.051.803-.474 1.712-.71 2.727-.71.648 0 1.25.09 1.807.272a4.64 4.64 0 0 1 1.489.801c.435.349.793.777 1.073 1.284.285.504.47 1.08.557 1.728Zm3.897-3.926V342h-2.057v-11.636h2.057Zm4.626 11.812a3.639 3.639 0 0 1-1.494-.295 2.443 2.443 0 0 1-1.046-.887c-.254-.39-.38-.871-.38-1.443 0-.492.09-.899.272-1.221.182-.322.43-.58.745-.773a3.767 3.767 0 0 1 1.062-.438 8.628 8.628 0 0 1 1.233-.221c.511-.053.926-.101 1.244-.142.319-.046.55-.114.694-.205.147-.095.221-.24.221-.437v-.034c0-.428-.127-.76-.381-.995-.253-.235-.619-.352-1.096-.352-.504 0-.904.11-1.199.329-.292.22-.489.48-.591.779l-1.92-.273c.151-.53.401-.973.75-1.329.348-.36.774-.629 1.278-.807a4.888 4.888 0 0 1 1.67-.273c.421 0 .84.049 1.256.148.417.098.798.261 1.142.488.345.224.621.529.83.915.212.387.318.87.318 1.449V342h-1.977v-1.199h-.069c-.125.243-.301.47-.528.682a2.547 2.547 0 0 1-.847.506c-.337.125-.732.187-1.187.187Zm.534-1.511c.413 0 .771-.082 1.074-.245a1.8 1.8 0 0 0 .699-.659c.166-.272.25-.57.25-.892v-1.028a.98.98 0 0 1-.33.148 4.739 4.739 0 0 1-.511.119c-.189.034-.377.064-.563.091l-.483.068a3.59 3.59 0 0 0-.823.205 1.36 1.36 0 0 0-.574.397c-.14.167-.211.383-.211.648 0 .379.139.665.415.858.277.193.629.29 1.057.29Zm6.142 1.335v-8.727h2.057V342h-2.057Zm1.034-9.966a1.2 1.2 0 0 1-.841-.324 1.042 1.042 0 0 1-.352-.79c0-.31.117-.573.352-.789.235-.22.515-.33.841-.33.33 0 .61.11.841.33.235.216.352.479.352.789 0 .307-.117.571-.352.79a1.186 1.186 0 0 1-.841.324Zm3.138 9.966v-8.727h1.966v1.483h.102c.182-.5.483-.89.904-1.171.42-.284.922-.426 1.505-.426.591 0 1.089.144 1.495.432.409.284.697.672.863 1.165h.091c.193-.485.519-.872.977-1.159.463-.292 1.01-.438 1.642-.438.803 0 1.459.254 1.966.761.508.508.762 1.249.762 2.222V342h-2.063v-5.54c0-.541-.144-.937-.432-1.187-.287-.254-.64-.381-1.056-.381-.497 0-.885.155-1.165.466-.277.307-.415.706-.415 1.199V342h-2.017v-5.625c0-.451-.136-.811-.409-1.08-.269-.268-.621-.403-1.057-.403a1.5 1.5 0 0 0-.807.227 1.589 1.589 0 0 0-.579.631 1.968 1.968 0 0 0-.216.943V342h-2.057Zm19.607 3.273c-.281 0-.54-.023-.779-.068a2.88 2.88 0 0 1-.562-.148l.477-1.602c.299.087.566.128.801.125a.983.983 0 0 0 .619-.222c.182-.14.336-.375.461-.705l.176-.471-3.165-8.909h2.182l2.011 6.591h.091l2.017-6.591h2.188l-3.495 9.784a3.933 3.933 0 0 1-.647 1.187 2.638 2.638 0 0 1-.989.762c-.386.178-.849.267-1.386.267Zm11.45-3.103c-.852 0-1.591-.187-2.216-.562a3.825 3.825 0 0 1-1.455-1.574c-.341-.674-.511-1.462-.511-2.364 0-.901.17-1.691.511-2.369a3.814 3.814 0 0 1 1.455-1.579c.625-.375 1.364-.563 2.216-.563.852 0 1.591.188 2.216.563a3.774 3.774 0 0 1 1.449 1.579c.344.678.517 1.468.517 2.369 0 .902-.173 1.69-.517 2.364a3.785 3.785 0 0 1-1.449 1.574c-.625.375-1.364.562-2.216.562Zm.011-1.647c.462 0 .849-.127 1.159-.381.311-.258.542-.602.693-1.034.156-.432.233-.913.233-1.443 0-.534-.077-1.017-.233-1.449-.151-.436-.382-.782-.693-1.04-.31-.257-.697-.386-1.159-.386-.473 0-.867.129-1.182.386-.31.258-.543.604-.698 1.04a4.345 4.345 0 0 0-.228 1.449c0 .53.076 1.011.228 1.443.155.432.388.776.698 1.034.315.254.709.381 1.182.381Zm11.479-2.193v-5.057h2.057V342h-1.995v-1.551h-.091c-.196.488-.52.888-.971 1.199-.447.31-.998.466-1.654.466-.571 0-1.077-.127-1.517-.381a2.652 2.652 0 0 1-1.022-1.119c-.247-.493-.37-1.087-.37-1.784v-5.557h2.057v5.238c0 .553.152.993.455 1.319.303.325.701.488 1.193.488.303 0 .597-.074.881-.221a1.79 1.79 0 0 0 .698-.659c.186-.296.279-.665.279-1.108Zm4.172 3.67v-8.727h1.994v1.454h.091c.159-.504.432-.892.818-1.165.39-.276.835-.414 1.335-.414.114 0 .241.005.381.017.144.007.263.021.358.04v1.892a2.114 2.114 0 0 0-.415-.08 3.883 3.883 0 0 0-.54-.04c-.375 0-.712.082-1.011.245-.295.159-.528.38-.699.664-.17.284-.255.612-.255.983V342h-2.057Zm14.733-8.727v1.591h-5.159v-1.591h5.159Zm-3.87 8.727v-9.551c0-.587.122-1.076.364-1.466a2.3 2.3 0 0 1 .989-.875c.413-.193.871-.29 1.375-.29.356 0 .672.029.949.085.276.057.481.108.613.154l-.409 1.591a3.562 3.562 0 0 0-.329-.08 2.022 2.022 0 0 0-.444-.045c-.382 0-.653.093-.812.278-.155.182-.233.443-.233.784V342h-2.063Zm5.481 0v-8.727h1.994v1.454h.091c.159-.504.432-.892.818-1.165.39-.276.835-.414 1.335-.414.114 0 .241.005.381.017.144.007.263.021.358.04v1.892a2.13 2.13 0 0 0-.415-.08 3.906 3.906 0 0 0-.54-.04c-.375 0-.712.082-1.011.245a1.78 1.78 0 0 0-.699.664c-.17.284-.256.612-.256.983V342h-2.056Zm9.848.17c-.875 0-1.631-.181-2.268-.545a3.692 3.692 0 0 1-1.46-1.557c-.341-.674-.511-1.468-.511-2.38 0-.898.17-1.686.511-2.364a3.872 3.872 0 0 1 1.443-1.591c.618-.383 1.343-.574 2.177-.574a4.41 4.41 0 0 1 1.522.261c.481.171.906.436 1.273.796.371.36.663.818.875 1.375.212.553.318 1.212.318 1.977v.631h-7.153v-1.387h5.182a2.214 2.214 0 0 0-.256-1.051c-.167-.31-.4-.555-.699-.733a1.963 1.963 0 0 0-1.034-.267c-.42 0-.79.103-1.108.307a2.114 2.114 0 0 0-.744.796 2.267 2.267 0 0 0-.267 1.074v1.21c0 .507.092.943.278 1.307.186.359.445.636.778.829.334.189.724.284 1.171.284.299 0 .57-.041.812-.125.243-.087.453-.214.631-.381.178-.166.313-.373.404-.619l1.92.216a2.991 2.991 0 0 1-.693 1.33 3.385 3.385 0 0 1-1.296.875c-.526.204-1.128.306-1.806.306Zm9.484 0c-.875 0-1.631-.181-2.267-.545a3.686 3.686 0 0 1-1.46-1.557c-.341-.674-.512-1.468-.512-2.38 0-.898.171-1.686.512-2.364a3.858 3.858 0 0 1 1.443-1.591c.617-.383 1.343-.574 2.176-.574.538 0 1.045.087 1.523.261.481.171.905.436 1.272.796.372.36.663.818.875 1.375.213.553.319 1.212.319 1.977v.631h-7.154v-1.387h5.182a2.214 2.214 0 0 0-.256-1.051 1.854 1.854 0 0 0-.699-.733 1.963 1.963 0 0 0-1.034-.267c-.42 0-.789.103-1.108.307a2.114 2.114 0 0 0-.744.796 2.29 2.29 0 0 0-.267 1.074v1.21c0 .507.093.943.278 1.307.186.359.446.636.779.829.333.189.723.284 1.17.284.3 0 .57-.041.813-.125.242-.087.452-.214.63-.381.179-.166.313-.373.404-.619l1.92.216a2.991 2.991 0 0 1-.693 1.33 3.388 3.388 0 0 1-1.295.875c-.527.204-1.129.306-1.807.306Zm13.947-8.897v1.591h-5.017v-1.591h5.017Zm-3.778-2.091h2.057v8.193c0 .277.041.489.125.636a.676.676 0 0 0 .341.296c.14.053.295.079.466.079.128 0 .246-.009.352-.028.11-.019.193-.036.25-.051l.346 1.608a4.662 4.662 0 0 1-.471.125 3.86 3.86 0 0 1-.739.079 3.348 3.348 0 0 1-1.392-.233 2.169 2.169 0 0 1-.983-.806c-.238-.364-.356-.819-.352-1.364v-8.534ZM532.862 342v-8.727h1.994v1.454h.091c.159-.504.432-.892.818-1.165.39-.276.835-.414 1.335-.414.114 0 .241.005.381.017.144.007.263.021.358.04v1.892a2.13 2.13 0 0 0-.415-.08 3.906 3.906 0 0 0-.54-.04c-.375 0-.712.082-1.011.245a1.78 1.78 0 0 0-.699.664c-.17.284-.256.612-.256.983V342h-2.056Zm6.343 0v-8.727h2.057V342h-2.057Zm1.034-9.966c-.325 0-.606-.108-.841-.324a1.046 1.046 0 0 1-.352-.79c0-.31.118-.573.352-.789.235-.22.516-.33.841-.33.33 0 .61.11.841.33.235.216.353.479.353.789 0 .307-.118.571-.353.79a1.186 1.186 0 0 1-.841.324Zm5.649 10.142a3.639 3.639 0 0 1-1.494-.295 2.44 2.44 0 0 1-1.045-.887c-.254-.39-.381-.871-.381-1.443 0-.492.091-.899.273-1.221.182-.322.43-.58.744-.773a3.773 3.773 0 0 1 1.063-.438 8.579 8.579 0 0 1 1.233-.221c.511-.053.926-.101 1.244-.142.318-.046.549-.114.693-.205.148-.095.222-.24.222-.437v-.034c0-.428-.127-.76-.381-.995s-.619-.352-1.097-.352c-.503 0-.903.11-1.199.329a1.64 1.64 0 0 0-.59.779l-1.921-.273c.152-.53.402-.973.75-1.329.349-.36.775-.629 1.279-.807a4.88 4.88 0 0 1 1.67-.273c.42 0 .839.049 1.256.148.416.098.797.261 1.142.488.344.224.621.529.829.915.212.387.318.87.318 1.449V342h-1.977v-1.199h-.068c-.125.243-.301.47-.528.682a2.557 2.557 0 0 1-.847.506c-.337.125-.733.187-1.188.187Zm.535-1.511c.412 0 .77-.082 1.073-.245a1.8 1.8 0 0 0 .699-.659c.167-.272.25-.57.25-.892v-1.028a.973.973 0 0 1-.329.148 4.76 4.76 0 0 1-.512.119c-.189.034-.376.064-.562.091l-.483.068a3.6 3.6 0 0 0-.824.205 1.367 1.367 0 0 0-.574.397c-.14.167-.21.383-.21.648 0 .379.138.665.415.858.276.193.629.29 1.057.29Zm8.198-10.301V342h-2.056v-11.636h2.056Z"/>
</svg>
