<svg xmlns="http://www.w3.org/2000/svg" width="118" height="35" fill="none" viewBox="0 0 118 35">
  <path fill="#9192A1" d="M1.46 13.8a.75.75 0 0 1-.44-.14.33.33 0 0 1-.14-.38c.147-.347.32-.707.52-1.08.214-.387.434-.773.66-1.16.374-.64.787-1.293 1.24-1.96.454-.667.94-1.36 1.46-2.08a860.93 860.93 0 0 0 1.62-2.22c.547-.733 1.007-1.36 1.38-1.88l.32-.46c.094-.147.167-.267.22-.36a3.96 3.96 0 0 0-.5-.06A9.87 9.87 0 0 0 7.16 2c-.386 0-.793.02-1.22.06-.64.053-1.32.14-2.04.26a16.67 16.67 0 0 0-1.82.4h-.02c-.28.067-.52.14-.72.22-.186.067-.286.14-.3.22a.626.626 0 0 1-.48.22.674.674 0 0 1-.38-.12C.06 3.167 0 3.067 0 2.96c0-.053.034-.127.1-.22a2.22 2.22 0 0 1 .76-.54c.334-.16.74-.307 1.22-.44l.02.26c.294-.107.68-.22 1.16-.34a28.25 28.25 0 0 1 1.5-.36c.507-.107.92-.167 1.24-.18a22.02 22.02 0 0 1 1.44-.06c.28 0 .554.007.82.02.28.013.587.033.92.06.294.013.44.133.44.36 0 .213-.106.487-.32.82-.213.32-.426.647-.64.98-.146.213-.346.5-.6.86L7.24 5.3c-.28.4-.553.773-.82 1.12-.253.347-.466.633-.64.86l-.24.34c-.453.613-.9 1.24-1.34 1.88-.426.627-.82 1.253-1.18 1.88-.426.707-.78 1.407-1.06 2.1a.3.3 0 0 1-.18.24.634.634 0 0 1-.32.08Zm15.172-1.04c-.734 0-1.374-.127-1.92-.38-.534-.253-.954-.58-1.26-.98a2.24 2.24 0 0 1-.32-2.06c.093-.253.233-.493.42-.72.24-.307.54-.64.9-1 .373-.36.793-.7 1.26-1.02.48-.32 1.006-.58 1.58-.78a5.234 5.234 0 0 1 1.84-.32c.48 0 .806.04.98.12.186.08.313.187.38.32.066.12.146.24.24.36.16-.507.346-1.04.56-1.6.213-.56.42-1.087.62-1.58.2-.493.36-.893.48-1.2.08-.173.173-.38.28-.62.12-.253.22-.473.3-.66l.14-.3c.093-.227.266-.34.52-.34a.8.8 0 0 1 .52.2c.16.133.24.293.24.48a.722.722 0 0 1-.16.42h-.02l-.18.2c-.12.12-.254.273-.4.46a2.64 2.64 0 0 0-.3.52c-.16.4-.36.873-.6 1.42-.227.533-.46 1.12-.7 1.76-.24.64-.454 1.293-.64 1.96-.174.653-.28 1.3-.32 1.94a.306.306 0 0 1-.14.22.493.493 0 0 1-.28.08.81.81 0 0 1-.4-.1c-.12-.08-.167-.187-.14-.32a2.16 2.16 0 0 0 .12-.56c.026-.2.04-.387.04-.56 0-.373-.06-.693-.18-.96-.107-.28-.28-.453-.52-.52a1.406 1.406 0 0 0-.34-.08 3.34 3.34 0 0 0-.36-.02c-.427 0-.86.1-1.3.3-.44.187-.86.433-1.26.74-.387.293-.74.6-1.06.92-.32.32-.574.613-.76.88-.187.253-.28.527-.28.82 0 .347.166.68.5 1 .333.307.906.493 1.72.56.066.013.133.02.2.02h.22c.546 0 1.113-.067 1.7-.2.6-.147 1.126-.313 1.58-.5.36-.147.68-.32.96-.52.28-.2.526-.393.74-.58a.51.51 0 0 1 .34-.14c.12 0 .22.047.3.14a.36.36 0 0 1 .14.28c0 .133-.06.253-.18.36a26.04 26.04 0 0 1-.82.68c-.32.253-.707.473-1.16.66-.534.213-1.154.4-1.86.56-.707.16-1.36.24-1.96.24Zm8.668-.26c-.373 0-.74-.08-1.1-.24a2.36 2.36 0 0 1-.86-.66c-.226-.28-.34-.6-.34-.96 0-.533.14-1 .42-1.4.28-.4.634-.74 1.06-1.02.44-.28.887-.493 1.34-.64.44-.147.92-.22 1.44-.22.547 0 1.074.1 1.58.3.52.187.887.513 1.1.98.107-.347.187-.687.24-1.02a6.04 6.04 0 0 0 .08-.9c0-.427-.086-.753-.26-.98-.16-.227-.453-.34-.88-.34-.173 0-.373.067-.6.2-.226.12-.446.28-.66.48-.08.08-.14.133-.18.16-.026.027-.1.04-.22.04a.4.4 0 0 1-.32-.14.576.576 0 0 1 .08-.74l.4-.4c.147-.147.334-.273.56-.38.24-.12.54-.18.9-.18.747 0 1.294.173 1.64.52.347.347.52.913.52 1.7 0 .387-.053.787-.16 1.2-.093.413-.206.853-.34 1.32-.08.293-.193.627-.34 1-.133.36-.306.72-.52 1.08-.213.36-.473.667-.78.92a.463.463 0 0 1-.64-.02.44.44 0 0 1-.14-.32c0-.12.06-.24.18-.36.147-.12.3-.313.46-.58.174-.267.334-.6.48-1-.04-.547-.3-.947-.78-1.2a3.216 3.216 0 0 0-1.56-.38c-.333 0-.653.04-.96.12a3.43 3.43 0 0 0-1 .48 3.293 3.293 0 0 0-.84.76c-.213.293-.32.6-.32.92 0 .253.127.48.38.68.267.2.58.3.94.3.307 0 .547-.007.72-.02.187-.013.36-.053.52-.12.174-.08.394-.22.66-.42.12-.08.22-.12.3-.12.107 0 .194.033.26.1a.35.35 0 0 1 .1.26c0 .147-.073.273-.22.38-.453.373-.853.613-1.2.72-.333.093-.713.14-1.14.14Zm8.103 5.36c-.226 0-.44-.027-.64-.08-.266-.08-.48-.22-.64-.42a.984.984 0 0 1-.24-.62c0-.227.014-.38.04-.46.027-.08.087-.12.18-.12.08 0 .22.02.42.06.107 0 .214.087.32.26.107.187.227.313.36.38.174.067.32.1.44.1.24 0 .46-.06.66-.18.214-.12.394-.247.54-.38.48-.413.894-.84 1.24-1.28.347-.44.667-.94.96-1.5.307-.547.607-1.187.9-1.92.094-.213.18-.46.26-.74.094-.293.167-.567.22-.82.067-.267.094-.46.08-.58-.066.053-.14.113-.22.18a3.29 3.29 0 0 1-.22.2c-.306.28-.673.56-1.1.84-.413.28-.853.513-1.32.7-.466.187-.946.28-1.44.28-.44 0-.853-.087-1.24-.26-.453-.213-.773-.493-.96-.84a2.287 2.287 0 0 1-.28-1.1c0-.187.014-.367.04-.54.04-.173.087-.347.14-.52.107-.373.3-.713.58-1.02.28-.32.594-.587.94-.8.347-.213.68-.353 1-.42a.222.222 0 0 1 .1-.02h.1c.187 0 .34.053.46.16.12.093.18.193.18.3 0 .133-.093.24-.28.32-.32.12-.606.24-.86.36-.24.12-.453.28-.64.48-.173.2-.333.493-.48.88a2.565 2.565 0 0 0-.14.84c0 .253.04.5.12.74.094.24.247.393.46.46.267.08.527.12.78.12a3.54 3.54 0 0 0 1.72-.46 9.501 9.501 0 0 0 1.5-1.02c.587-.467.96-.853 1.12-1.16.174-.32.294-.593.36-.82.04-.147.114-.247.22-.3a.63.63 0 0 1 .34-.1c.147 0 .28.053.4.16.134.093.174.22.12.38-.2.733-.413 1.54-.64 2.42-.213.88-.493 1.767-.84 2.66-.333.893-.773 1.74-1.32 2.54a8.134 8.134 0 0 1-2.1 2.12 3.371 3.371 0 0 1-.76.38c-.293.107-.606.16-.94.16Zm6.735-4.14a2.942 2.942 0 0 1-.66-.08c-.173-.04-.26-.167-.26-.38a.44.44 0 0 1 .14-.32c.093-.107.227-.147.4-.12.147.013.38-.02.7-.1.333-.08.7-.187 1.1-.32.587-.213 1.067-.44 1.44-.68.373-.24.68-.52.92-.84.253-.32.38-.627.38-.92a.968.968 0 0 0-.38-.76c-.227-.2-.5-.387-.82-.56-.32-.173-.633-.353-.94-.54-.307-.2-.567-.42-.78-.66-.2-.253-.3-.56-.3-.92 0-.32.113-.593.34-.82.227-.24.487-.433.78-.58a5.01 5.01 0 0 1 .78-.34c.213-.067.427-.113.64-.14.213-.04.427-.06.64-.06.253 0 .493.033.72.1.24.053.467.153.68.3a.71.71 0 0 1 .34.6c0 .147-.047.28-.14.4a.4.4 0 0 1-.34.16c-.107 0-.247-.053-.42-.16h.02a1.688 1.688 0 0 0-1.02-.32c-.213 0-.407.027-.58.08-.28.067-.553.153-.82.26-.267.107-.433.273-.5.5-.04.173.06.367.3.58.253.2.567.407.94.62.373.2.72.4 1.04.6.307.173.553.407.74.7.187.293.28.607.28.94 0 .413-.153.813-.46 1.2-.493.6-1.007 1.067-1.54 1.4a7.636 7.636 0 0 1-1.76.82c-.36.12-.66.207-.9.26-.24.067-.473.1-.7.1Zm12.987.5c-.133 0-.26-.087-.38-.26-.107-.173-.16-.48-.16-.92 0-.533.08-1.18.24-1.94.173-.76.393-1.573.66-2.44.28-.867.573-1.713.88-2.54h-.02c-.133-.027-.207-.113-.22-.26-.053-.173-.013-.34.12-.5.133-.16.26-.24.38-.24h.12c.307-.76.593-1.433.86-2.02.28-.6.507-1.04.68-1.32.267-.427.587-.747.96-.96.373-.227.747-.34 1.12-.34.28 0 .547.067.8.2s.467.347.64.64c.227.347.373.653.44.92.08.253.133.607.16 1.06v.02a.27.27 0 0 1-.12.24.46.46 0 0 1-.26.08c-.187 0-.307-.087-.36-.26-.04-.187-.147-.447-.32-.78-.347-.693-.72-1.04-1.12-1.04-.413 0-.873.387-1.38 1.16-.08.107-.187.3-.32.58-.133.267-.273.56-.42.88-.147.32-.28.613-.4.88.12-.013.24-.02.36-.02h.36a12.628 12.628 0 0 1 1.56.1c.067.013.133.06.2.14.067.08.1.167.1.26 0 .053-.027.113-.08.18-.04.053-.127.087-.26.1-.453.053-.94.087-1.46.1-.507 0-.893.013-1.16.04-.2.52-.407 1.107-.62 1.76a42.14 42.14 0 0 0-.6 1.96c-.187.667-.34 1.293-.46 1.88-.107.573-.153 1.047-.14 1.42 0 .133.033.253.1.36.067.12.1.24.1.36a.36.36 0 0 1-.06.18.72.72 0 0 1-.22.24.572.572 0 0 1-.3.1Zm4.56-1.6a.51.51 0 0 1-.34-.14c-.093-.107-.14-.28-.14-.52v-.16l.04-.2c.12-.587.274-1.207.46-1.86.2-.653.4-1.267.6-1.84.2-.587.347-1.047.44-1.38.067-.213.16-.367.28-.46a.694.694 0 0 1 .4-.14c.147 0 .267.047.36.14a.4.4 0 0 1 .16.34.85.85 0 0 1-.12.4c-.08.147-.18.38-.3.7l-.32.96c-.106.32-.2.56-.28.72a16.49 16.49 0 0 1 1.26-1.12c.374-.293.867-.58 1.48-.86.267-.133.614-.2 1.04-.2.307 0 .614.06.92.18.307.12.56.333.76.64.2.307.3.74.3 1.3 0 .213-.12.32-.36.32a.51.51 0 0 1-.3-.12c-.093-.08-.173-.213-.24-.4-.093-.307-.24-.547-.44-.72-.186-.187-.433-.28-.74-.28-.186 0-.4.04-.64.12-.293.093-.66.273-1.1.54-.44.253-.893.573-1.36.96a9.135 9.135 0 0 0-1.26 1.32c0 .093-.02.2-.06.32-.026.12-.04.253-.04.4 0 .027.014.093.04.2.027.107.04.213.04.32 0 .147-.06.273-.18.38a.533.533 0 0 1-.36.14Zm10.329 1.46c-.107 0-.233-.02-.38-.06-.813-.267-1.407-.707-1.78-1.32a3.81 3.81 0 0 1-.56-1.98v-.3c.013-.107.027-.207.04-.3.12-.76.373-1.433.76-2.02a6.07 6.07 0 0 1 1.34-1.44c.507-.387.967-.633 1.38-.74.267-.067.533-.12.8-.16.267-.053.527-.08.78-.08.64 0 1.187.14 1.64.42.453.28.68.74.68 1.38 0 .36-.113.687-.34.98a2.996 2.996 0 0 1-.82.76 5.7 5.7 0 0 1-.94.48c-.467.187-1 .327-1.6.42-.587.093-1.14.14-1.66.14-.333 0-.64-.02-.92-.06v.02a.66.66 0 0 1-.02.16.444.444 0 0 0-.02.14.66.66 0 0 0-.02.16v.12c0 .413.08.78.24 1.1.173.307.373.573.6.8.227.213.413.387.56.52.24.12.407.233.5.34.107.12.16.213.16.28 0 .16-.14.24-.42.24Zm-.12-4.72c.4 0 .82-.027 1.26-.08.44-.067.847-.187 1.22-.36.293-.147.567-.34.82-.58a1.23 1.23 0 0 0 .38-.9c0-.267-.107-.467-.32-.6-.213-.133-.513-.2-.9-.2-.44 0-.92.08-1.44.24-.187.053-.42.18-.7.38-.267.2-.54.473-.82.82-.28.333-.513.733-.7 1.2.16.013.34.033.54.06.213.013.433.02.66.02Zm8.08 4.72a1.47 1.47 0 0 1-.38-.06c-.814-.267-1.407-.707-1.78-1.32a3.81 3.81 0 0 1-.56-1.98v-.3c.013-.107.026-.207.04-.3.12-.76.373-1.433.76-2.02.4-.587.846-1.067 1.34-1.44.506-.387.966-.633 1.38-.74.266-.067.533-.12.8-.16.266-.053.526-.08.78-.08.64 0 1.186.14 1.64.42.453.28.68.74.68 1.38 0 .36-.114.687-.34.98a2.997 2.997 0 0 1-.82.76c-.32.2-.634.36-.94.48-.467.187-1 .327-1.6.42-.587.093-1.14.14-1.66.14-.334 0-.64-.02-.92-.06v.02a.66.66 0 0 1-.02.16.441.441 0 0 0-.02.14.654.654 0 0 0-.02.16v.12c0 .413.08.78.24 1.1.173.307.373.573.6.8.226.213.413.387.56.52.24.12.406.233.5.34.106.12.16.213.16.28 0 .16-.14.24-.42.24Zm-.12-4.72c.4 0 .82-.027 1.26-.08.44-.067.846-.187 1.22-.36.293-.147.566-.34.82-.58a1.23 1.23 0 0 0 .38-.9c0-.267-.107-.467-.32-.6-.214-.133-.514-.2-.9-.2-.44 0-.92.08-1.44.24-.187.053-.42.18-.7.38-.267.2-.54.473-.82.82-.28.333-.514.733-.7 1.2.16.013.34.033.54.06.213.013.433.02.66.02Zm13.657 4.68a.444.444 0 0 1-.14-.02.59.59 0 0 1-.14-.02 4.515 4.515 0 0 1-1.1-.44 2.37 2.37 0 0 1-.86-.88c-.227-.4-.34-.92-.34-1.56 0-.253.02-.527.06-.82a13.35 13.35 0 0 1 .36-1.64c.187-.64.407-1.307.66-2h-.02a.587.587 0 0 0-.22.04.535.535 0 0 1-.2.04c-.213 0-.32-.127-.32-.38 0-.147.06-.287.18-.42s.234-.2.34-.2l.6-.02c.334-.867.667-1.687 1-2.46.347-.787.64-1.407.88-1.86a.587.587 0 0 1 .28-.26.887.887 0 0 1 .4-.1.57.57 0 0 1 .34.1c.107.053.16.133.16.24 0 .027-.013.08-.04.16l-1.24 2.7-.34.72c-.093.227-.193.453-.3.68a15.203 15.203 0 0 1 1.8.1c.067.013.133.06.2.14.067.08.1.167.1.26a.32.32 0 0 1-.08.2c-.04.053-.133.087-.28.1-.32.04-.673.067-1.06.08-.386 0-.733.007-1.04.02a26.947 26.947 0 0 0-.74 2.22 25.876 25.876 0 0 0-.42 1.88l-.04.28v.26c0 .6.16 1.047.48 1.34.32.293.68.5 1.08.62.24.08.407.16.5.24.107.093.16.18.16.26 0 .107-.067.2-.2.28a.813.813 0 0 1-.46.12Zm2.64-1.42a.51.51 0 0 1-.34-.14c-.094-.107-.14-.28-.14-.52v-.16l.04-.2c.12-.587.273-1.207.46-1.86.2-.653.4-1.267.6-1.84.2-.587.346-1.047.44-1.38.066-.213.16-.367.28-.46a.694.694 0 0 1 .4-.14.49.49 0 0 1 .36.14.4.4 0 0 1 .16.34.85.85 0 0 1-.12.4c-.08.147-.18.38-.3.7l-.32.96c-.107.32-.2.56-.28.72.466-.453.886-.827 1.26-1.12.373-.293.866-.58 1.48-.86.266-.133.613-.2 1.04-.2.306 0 .613.06.92.18.306.12.56.333.76.64.2.307.3.74.3 1.3 0 .213-.12.32-.36.32a.51.51 0 0 1-.3-.12c-.094-.08-.174-.213-.24-.4-.094-.307-.24-.547-.44-.72-.187-.187-.434-.28-.74-.28-.187 0-.4.04-.64.12-.294.093-.66.273-1.1.54-.44.253-.894.573-1.36.96a9.135 9.135 0 0 0-1.26 1.32c0 .093-.02.2-.06.32-.027.12-.04.253-.04.4 0 .027.013.093.04.2.026.107.04.213.04.32 0 .147-.06.273-.18.38a.532.532 0 0 1-.36.14Zm11.408-7.34c-.067.08-.154.087-.26.02a.783.783 0 0 1-.24-.3.674.674 0 0 1-.06-.42h.02c.053-.2.12-.367.2-.5.08-.133.186-.267.32-.4.08-.08.186-.12.32-.12.12 0 .226.04.32.12.106.067.16.153.16.26a.36.36 0 0 1-.06.18c-.04.053-.12.193-.24.42a3.85 3.85 0 0 1-.48.74Zm-2.52 7.38c-.214 0-.427-.08-.64-.24-.2-.173-.28-.447-.24-.82.053-.52.126-.96.22-1.32.093-.36.2-.687.32-.98l.38-.98c.146-.347.293-.767.44-1.26.08-.227.246-.34.5-.34.173 0 .326.053.46.16.133.107.173.253.12.44a9.305 9.305 0 0 1-.52 1.36 29.35 29.35 0 0 1-.48.92 4.782 4.782 0 0 0-.38.84c-.094.293-.154.673-.18 1.14 0 .04.086.127.26.26.173.12.26.26.26.42 0 .12-.067.227-.2.32-.067.053-.174.08-.32.08Zm4.344-.16c-.373 0-.74-.08-1.1-.24a2.368 2.368 0 0 1-.86-.66c-.226-.28-.34-.6-.34-.96 0-.533.14-1 .42-1.4.28-.4.634-.74 1.06-1.02.44-.28.887-.493 1.34-.64.44-.147.92-.22 1.44-.22.547 0 1.074.1 1.58.3.52.187.887.513 1.1.98.107-.347.187-.687.24-1.02.054-.347.08-.647.08-.9 0-.427-.086-.753-.26-.98-.16-.227-.453-.34-.88-.34-.173 0-.373.067-.6.2-.226.12-.446.28-.66.48-.08.08-.14.133-.18.16-.026.027-.1.04-.22.04a.4.4 0 0 1-.32-.14.576.576 0 0 1 .08-.74l.4-.4c.147-.147.334-.273.56-.38.24-.12.54-.18.9-.18.747 0 1.294.173 1.64.52.347.347.52.913.52 1.7 0 .387-.053.787-.16 1.2-.093.413-.206.853-.34 1.32-.08.293-.193.627-.34 1-.133.36-.306.72-.52 1.08-.213.36-.473.667-.78.92a.452.452 0 0 1-.3.12.465.465 0 0 1-.34-.14.442.442 0 0 1-.14-.32c0-.12.06-.24.18-.36.147-.12.3-.313.46-.58.174-.267.334-.6.48-1-.04-.547-.3-.947-.78-1.2a3.212 3.212 0 0 0-1.56-.38c-.333 0-.653.04-.96.12a3.442 3.442 0 0 0-1 .48 3.303 3.303 0 0 0-.84.76c-.213.293-.32.6-.32.92 0 .253.127.48.38.68.267.2.58.3.94.3.307 0 .547-.007.72-.02.187-.013.36-.053.52-.12.174-.08.394-.22.66-.42.12-.08.22-.12.3-.12a.35.35 0 0 1 .26.1.35.35 0 0 1 .1.26c0 .147-.073.273-.22.38-.453.373-.853.613-1.2.72-.333.093-.713.14-1.14.14Zm7.663 1.02c-.213 0-.426-.087-.64-.26-.2-.16-.286-.427-.26-.8.04-.347.134-.807.28-1.38.16-.587.36-1.233.6-1.94.254-.707.52-1.433.8-2.18.294-.76.587-1.493.88-2.2.294-.72.574-1.367.84-1.94.267-.587.494-1.06.68-1.42.12-.213.287-.32.5-.32a.44.44 0 0 1 .32.14c.094.08.14.2.14.36 0 .053-.02.167-.06.34a2.858 2.858 0 0 1-.14.54 2.17 2.17 0 0 1-.18.46 6.192 6.192 0 0 1-.48.66 3.94 3.94 0 0 0-.5.8 60 60 0 0 0-.96 2.2 48.78 48.78 0 0 0-.88 2.24 35.373 35.373 0 0 0-.66 1.98c-.16.587-.253 1.053-.28 1.4 0 .093.04.193.12.3.094.107.18.213.26.32.094.107.14.213.14.32 0 .107-.066.207-.2.3-.066.053-.173.08-.32.08ZM29.124 32.5c-.373 0-.74-.08-1.1-.24a2.36 2.36 0 0 1-.86-.66c-.226-.28-.34-.6-.34-.96 0-.533.14-1 .42-1.4.28-.4.634-.74 1.06-1.02.44-.28.887-.493 1.34-.64.44-.147.92-.22 1.44-.22.547 0 1.074.1 1.58.3.52.187.887.513 1.1.98a7.49 7.49 0 0 0 .24-1.02c.054-.347.08-.647.08-.9 0-.427-.086-.753-.26-.98-.16-.227-.453-.34-.88-.34-.173 0-.373.067-.6.2-.226.12-.446.28-.66.48a1.4 1.4 0 0 1-.18.16c-.026.027-.1.04-.22.04a.4.4 0 0 1-.32-.14.576.576 0 0 1 .08-.74l.4-.4c.147-.147.334-.273.56-.38.24-.12.54-.18.9-.18.747 0 1.294.173 1.64.52.347.347.52.913.52 1.7 0 .387-.053.787-.16 1.2-.093.413-.206.853-.34 1.32-.08.293-.193.627-.34 1-.133.36-.306.72-.52 1.08-.213.36-.473.667-.78.92a.463.463 0 0 1-.64-.02.44.44 0 0 1-.14-.32c0-.12.06-.24.18-.36.147-.12.3-.313.46-.58a5 5 0 0 0 .48-1c-.04-.547-.3-.947-.78-1.2a3.216 3.216 0 0 0-1.56-.38c-.333 0-.653.04-.96.12a3.429 3.429 0 0 0-1 .48 3.293 3.293 0 0 0-.84.76c-.213.293-.32.6-.32.92 0 .253.127.48.38.68.267.2.58.3.94.3.307 0 .547-.007.72-.02.187-.013.36-.053.52-.12.174-.08.394-.22.66-.42.12-.08.22-.12.3-.12.107 0 .194.033.26.1a.35.35 0 0 1 .1.26c0 .147-.073.273-.22.38-.453.373-.853.613-1.2.72-.333.093-.713.14-1.14.14Zm8.883.08a.675.675 0 0 1-.3-.08.55.55 0 0 1-.22-.24c-.213-.52-.387-.987-.52-1.4-.12-.413-.233-.893-.34-1.44-.107-.52-.2-1.033-.28-1.54a10.79 10.79 0 0 1-.1-1.38c0-.28.02-.54.06-.78.027-.16.1-.28.22-.36a.694.694 0 0 1 .4-.14c.133 0 .247.04.34.12.093.08.127.2.1.36-.013.067-.04.213-.08.44a1.96 1.96 0 0 0-.02.46c-.013.08-.02.167-.02.26v.24c0 .32.02.66.06 1.02.053.36.12.747.2 1.16.08.373.18.707.3 1 .12.293.24.593.36.9.24-.36.527-.78.86-1.26.347-.493.713-.98 1.1-1.46.387-.493.76-.927 1.12-1.3.373-.387.707-.647 1-.78.187-.107.38-.16.58-.16.16 0 .267.047.32.14.053.093.027.213-.08.36-.106.133-.213.24-.32.32-.84.64-1.62 1.44-2.34 2.4a42.47 42.47 0 0 0-1.98 2.94c-.08.133-.22.2-.42.2Zm6.02-.08c-.373 0-.74-.08-1.1-.24a2.36 2.36 0 0 1-.86-.66c-.226-.28-.34-.6-.34-.96 0-.533.14-1 .42-1.4.28-.4.634-.74 1.06-1.02.44-.28.887-.493 1.34-.64.44-.147.92-.22 1.44-.22.547 0 1.074.1 1.58.3.52.187.887.513 1.1.98a7.49 7.49 0 0 0 .24-1.02c.054-.347.08-.647.08-.9 0-.427-.086-.753-.26-.98-.16-.227-.453-.34-.88-.34-.173 0-.373.067-.6.2-.226.12-.446.28-.66.48a1.4 1.4 0 0 1-.18.16c-.026.027-.1.04-.22.04a.4.4 0 0 1-.32-.14.576.576 0 0 1 .08-.74l.4-.4c.147-.147.334-.273.56-.38.24-.12.54-.18.9-.18.747 0 1.294.173 1.64.52.347.347.52.913.52 1.7 0 .387-.053.787-.16 1.2-.093.413-.206.853-.34 1.32-.08.293-.193.627-.34 1-.133.36-.306.72-.52 1.08-.213.36-.473.667-.78.92a.463.463 0 0 1-.64-.02.44.44 0 0 1-.14-.32c0-.12.06-.24.18-.36.147-.12.3-.313.46-.58a5 5 0 0 0 .48-1c-.04-.547-.3-.947-.78-1.2a3.216 3.216 0 0 0-1.56-.38c-.333 0-.653.04-.96.12a3.429 3.429 0 0 0-1 .48 3.293 3.293 0 0 0-.84.76c-.213.293-.32.6-.32.92 0 .253.127.48.38.68.267.2.58.3.94.3.307 0 .547-.007.72-.02.187-.013.36-.053.52-.12.174-.08.394-.22.66-.42.12-.08.22-.12.3-.12.107 0 .194.033.26.1a.35.35 0 0 1 .1.26c0 .147-.073.273-.22.38-.453.373-.853.613-1.2.72-.333.093-.713.14-1.14.14Zm10.403-7.22c-.066.08-.153.087-.26.02a.797.797 0 0 1-.24-.3.678.678 0 0 1-.06-.42h.02c.054-.2.12-.367.2-.5.08-.133.187-.267.32-.4.08-.08.187-.12.32-.12.12 0 .227.04.32.12.107.067.16.153.16.26a.36.36 0 0 1-.06.18c-.04.053-.12.193-.24.42a3.822 3.822 0 0 1-.48.74Zm-2.52 7.38c-.213 0-.426-.08-.64-.24-.2-.173-.28-.447-.24-.82.054-.52.127-.96.22-1.32.094-.36.2-.687.32-.98.12-.307.247-.633.38-.98.147-.347.294-.767.44-1.26.08-.227.247-.34.5-.34.174 0 .327.053.46.16.134.107.174.253.12.44a9.193 9.193 0 0 1-.52 1.36c-.173.347-.333.653-.48.92a4.855 4.855 0 0 0-.38.84c-.093.293-.153.673-.18 1.14 0 .04.087.127.26.26.174.12.26.26.26.42 0 .12-.066.227-.2.32-.066.053-.173.08-.32.08Zm3.365.86c-.214 0-.427-.087-.64-.26-.2-.16-.287-.427-.26-.8.04-.347.133-.807.28-1.38.16-.587.36-1.233.6-1.94.253-.707.52-1.433.8-2.18.293-.76.586-1.493.88-2.2.293-.72.573-1.367.84-1.94.266-.587.493-1.06.68-1.42.12-.213.286-.32.5-.32a.44.44 0 0 1 .32.14c.093.08.14.2.14.36 0 .053-.02.167-.06.34a2.938 2.938 0 0 1-.14.54c-.054.187-.114.34-.18.46a6.285 6.285 0 0 1-.48.66 3.896 3.896 0 0 0-.5.8 60 60 0 0 0-.96 2.2c-.32.76-.614 1.507-.88 2.24a34.25 34.25 0 0 0-.66 1.98c-.16.587-.254 1.053-.28 1.4 0 .093.04.193.12.3.093.107.18.213.26.32a.49.49 0 0 1 .14.32c0 .107-.067.207-.2.3-.067.053-.174.08-.32.08Zm4.818-1.02c-.373 0-.74-.08-1.1-.24a2.358 2.358 0 0 1-.86-.66c-.227-.28-.34-.6-.34-.96 0-.533.14-1 .42-1.4.28-.4.633-.74 1.06-1.02.44-.28.887-.493 1.34-.64.44-.147.92-.22 1.44-.22.547 0 1.073.1 1.58.3.52.187.887.513 1.1.98a7.52 7.52 0 0 0 .24-1.02 6.04 6.04 0 0 0 .08-.9c0-.427-.087-.753-.26-.98-.16-.227-.453-.34-.88-.34-.173 0-.373.067-.6.2-.227.12-.447.28-.66.48a1.4 1.4 0 0 1-.18.16c-.027.027-.1.04-.22.04a.4.4 0 0 1-.32-.14.576.576 0 0 1 .08-.74l.4-.4c.147-.147.333-.273.56-.38.24-.12.54-.18.9-.18.747 0 1.293.173 1.64.52.347.347.52.913.52 1.7 0 .387-.053.787-.16 1.2-.093.413-.207.853-.34 1.32-.08.293-.193.627-.34 1-.133.36-.307.72-.52 1.08-.213.36-.473.667-.78.92a.463.463 0 0 1-.64-.02.44.44 0 0 1-.14-.32c0-.12.06-.24.18-.36.147-.12.3-.313.46-.58.173-.267.333-.6.48-1-.04-.547-.3-.947-.78-1.2a3.217 3.217 0 0 0-1.56-.38c-.333 0-.653.04-.96.12a3.427 3.427 0 0 0-1 .48 3.29 3.29 0 0 0-.84.76c-.213.293-.32.6-.32.92 0 .253.127.48.38.68.267.2.58.3.94.3.307 0 .547-.007.72-.02.187-.013.36-.053.52-.12.173-.08.393-.22.66-.42.12-.08.22-.12.3-.12.107 0 .193.033.26.1s.1.153.1.26c0 .147-.073.273-.22.38-.453.373-.853.613-1.2.72-.333.093-.713.14-1.14.14Zm8.003.66c-.36 0-.7-.047-1.02-.14a2.116 2.116 0 0 1-.86-.44.514.514 0 0 1-.14-.38c0-.187.06-.367.18-.54.133-.173.273-.26.42-.26.08 0 .16.04.24.12.08.093.173.207.28.34.12.133.287.233.5.3.067.013.14.027.22.04h.26c.2 0 .407-.013.62-.04.227-.027.407-.053.54-.08a8.36 8.36 0 0 0 1.9-.74 9.088 9.088 0 0 0 1.7-1.16 6.01 6.01 0 0 0 1.22-1.42c.307-.507.46-1.02.46-1.54 0-.387-.18-.58-.54-.58-.213 0-.493.053-.84.16a8.55 8.55 0 0 0-1.08.42 8.243 8.243 0 0 0-2.46 1.72l-1.2 1.24a.432.432 0 0 1-.32.12.77.77 0 0 1-.38-.1.368.368 0 0 1-.18-.32.49.49 0 0 1 .14-.32c.213-.267.433-.653.66-1.16.227-.507.447-1.067.66-1.68.227-.613.44-1.213.64-1.8.2-.6.387-1.127.56-1.58.213-.573.387-1.12.52-1.64.133-.52.267-.973.4-1.36.067-.2.207-.3.42-.3a.66.66 0 0 1 .42.16.43.43 0 0 1 .22.38c0 .013-.007.04-.02.08v.1c-.2.573-.433 1.193-.7 1.86-.267.653-.58 1.413-.94 2.28-.347.867-.753 1.887-1.22 3.06.28-.253.593-.507.94-.76a6.498 6.498 0 0 1 1.2-.72c.373-.187.807-.367 1.3-.54.493-.187.92-.28 1.28-.28.547 0 .933.187 1.16.56.227.36.34.753.34 1.18 0 .613-.193 1.227-.58 1.84a6.846 6.846 0 0 1-1.5 1.7c-.627.52-1.313.967-2.06 1.34a9.322 9.322 0 0 1-2.22.76 5.42 5.42 0 0 1-1.14.12Zm8.967.36c-.213 0-.427-.087-.64-.26-.2-.16-.287-.427-.26-.8.04-.347.133-.807.28-1.38.16-.587.36-1.233.6-1.94.253-.707.52-1.433.8-2.18.293-.76.587-1.493.88-2.2.293-.72.573-1.367.84-1.94.267-.587.493-1.06.68-1.42.12-.213.287-.32.5-.32a.44.44 0 0 1 .32.14c.093.08.14.2.14.36 0 .053-.02.167-.06.34a2.946 2.946 0 0 1-.14.54c-.053.187-.113.34-.18.46a6.314 6.314 0 0 1-.48.66 3.892 3.892 0 0 0-.5.8 60 60 0 0 0-.96 2.2c-.32.76-.613 1.507-.88 2.24a34.25 34.25 0 0 0-.66 1.98c-.16.587-.253 1.053-.28 1.4 0 .093.04.193.12.3.093.107.18.213.26.32a.49.49 0 0 1 .14.32c0 .107-.067.207-.2.3-.067.053-.173.08-.32.08Zm5.498.56c-.106 0-.233-.02-.38-.06-.813-.267-1.406-.707-1.78-1.32a3.81 3.81 0 0 1-.56-1.98v-.3l.04-.3c.12-.76.374-1.433.76-2.02.4-.587.847-1.067 1.34-1.44.507-.387.967-.633 1.38-.74.267-.067.534-.12.8-.16.267-.053.527-.08.78-.08.64 0 1.187.14 1.64.42.454.28.68.74.68 1.38 0 .36-.113.687-.34.98a2.994 2.994 0 0 1-.82.76 5.7 5.7 0 0 1-.94.48 7.35 7.35 0 0 1-1.6.42c-.586.093-1.14.14-1.66.14-.333 0-.64-.02-.92-.06v.02a.654.654 0 0 1-.02.16.444.444 0 0 0-.02.14.66.66 0 0 0-.02.16v.12c0 .413.08.78.24 1.1.174.307.374.573.6.8.227.213.414.387.56.52.24.12.407.233.5.34.107.12.16.213.16.28 0 .16-.14.24-.42.24Zm-.12-4.72c.4 0 .82-.027 1.26-.08.44-.067.847-.187 1.22-.36.294-.147.567-.34.82-.58a1.23 1.23 0 0 0 .38-.9c0-.267-.106-.467-.32-.6-.213-.133-.513-.2-.9-.2-.44 0-.92.08-1.44.24-.186.053-.42.18-.7.38-.266.2-.54.473-.82.82-.28.333-.513.733-.7 1.2.16.013.34.033.54.06.214.013.434.02.66.02Z"/>
</svg>
