<svg xmlns="http://www.w3.org/2000/svg" width="239" height="106" fill="none" viewBox="0 0 239 106">
  <path fill="#9192A1" d="M238.438 103.507a.501.501 0 0 0-.046-.999l.023.499.023.5ZM3.505 11.576l-.43-.256.43.256Zm-.472 91.26a.5.5 0 0 0 .298.641l4.228 1.542a.5.5 0 0 0 .343-.94l-3.758-1.37 1.37-3.758a.5.5 0 1 0-.94-.343l-1.541 4.228Zm235.382.171-.023-.499c-1.345.061-2.691.115-4.038.162l.017.5.018.499c1.35-.047 2.7-.101 4.049-.162l-.023-.5Zm-12.143.364-.008-.5c-2.695.04-5.392.053-8.089.041l-.003.5-.002.5c2.703.012 5.407-.001 8.109-.041l-.007-.5Zm-16.2-.075.012-.5a434.78 434.78 0 0 1-8.085-.268l-.022.5-.021.499c2.698.115 5.4.204 8.104.269l.012-.5Zm-16.186-.685.031-.499c-2.698-.164-5.39-.352-8.075-.563l-.04.499-.039.498c2.691.212 5.39.4 8.093.564l.03-.499Zm-16.15-1.269.048-.498c-2.691-.26-5.374-.542-8.046-.847l-.057.497-.057.497c2.678.305 5.367.588 8.064.848l.048-.497Zm-16.102-1.837.065-.495a466.663 466.663 0 0 1-8.01-1.126l-.074.495-.074.494c2.662.398 5.339.774 8.028 1.128l.065-.496Zm-16.009-2.39.082-.493c-2.678-.448-5.34-.916-7.983-1.406l-.091.492-.091.492c2.649.49 5.316.96 8 1.408l.083-.493Zm-15.947-2.953.099-.49a448.672 448.672 0 0 1-7.902-1.682l-.109.489-.108.488a450.72 450.72 0 0 0 7.92 1.685l.1-.49Zm-15.802-3.514.118-.486c-2.648-.64-5.269-1.3-7.861-1.979l-.127.484-.126.483a425.32 425.32 0 0 0 7.879 1.984l.117-.486Zm-15.688-4.112.137-.481a391.24 391.24 0 0 1-7.75-2.281l-.147.478-.146.478c2.555.781 5.145 1.544 7.77 2.287l.136-.48Zm-15.46-4.73.156-.475a345.942 345.942 0 0 1-7.672-2.629l-.168.471-.167.471c2.52.897 5.085 1.777 7.694 2.637l.157-.475Zm-15.293-5.449.18-.467a292.765 292.765 0 0 1-7.513-3.008l-.192.461-.192.462a297.212 297.212 0 0 0 7.538 3.019l.18-.467ZM52.48 70.113l.207-.456a231.323 231.323 0 0 1-7.302-3.464l-.223.448-.222.448a232.385 232.385 0 0 0 7.334 3.48l.206-.456Zm-14.5-7.216.24-.439a167.43 167.43 0 0 1-6.992-4.047l-.262.426-.26.426a168.57 168.57 0 0 0 7.033 4.072l.24-.438Zm-13.8-8.488.286-.41a105.61 105.61 0 0 1-6.428-4.843l-.317.388-.317.387a106.6 106.6 0 0 0 6.49 4.888l.286-.41Zm-12.446-10.27.355-.352c-2.016-2.03-3.776-4.066-5.265-6.103l-.403.295-.404.295c1.522 2.083 3.316 4.158 5.362 6.218l.355-.352Zm-9.35-13.137.46-.195c-1.09-2.573-1.714-5.129-1.846-7.653l-.5.026-.499.026c.14 2.655.795 5.325 1.924 7.99l.46-.194Zm-.647-15.77.468.176a22.216 22.216 0 0 1 1.728-3.577l-.43-.255-.43-.256a23.212 23.212 0 0 0-1.805 3.738l.469.175Zm1.767-3.656.43.255a31.579 31.579 0 0 1 2.198-3.238l-.395-.307-.395-.307a32.582 32.582 0 0 0-2.268 3.34l.43.257Zm8-8.62.264.425c2.317-1.438 4.75-2.204 7.215-2.384L18.947.5l-.035-.5c-2.629.192-5.216 1.01-7.669 2.531l.264.425ZM26.7 1.707l-.177.468c2.29.863 4.546 2.164 6.699 3.847l.308-.394.307-.394c-2.222-1.736-4.565-3.092-6.961-3.995l-.176.468Zm12.45 9.46-.386.318a44.016 44.016 0 0 1 4.39 6.466l.436-.244.436-.244a45.021 45.021 0 0 0-4.49-6.613l-.386.317Zm7.727 13.723-.47.171a51.782 51.782 0 0 1 2.122 7.524l.49-.1.49-.098a52.783 52.783 0 0 0-2.162-7.67l-.47.173Zm3.125 15.439-.5.024c.128 2.558.07 5.172-.197 7.822l.498.05.497.05c.272-2.7.331-5.365.201-7.971l-.499.025Zm-1.574 15.67-.485-.124a53.865 53.865 0 0 1-2.48 7.422l.461.192.462.193a54.862 54.862 0 0 0 2.526-7.56l-.484-.124Zm-6.047 14.564-.43-.254a61.957 61.957 0 0 1-4.389 6.462l.396.306.395.306a62.972 62.972 0 0 0 4.459-6.566l-.431-.254Zm-9.607 12.466-.358-.348a78.157 78.157 0 0 1-5.76 5.337l.322.383.321.383a79.148 79.148 0 0 0 5.833-5.406l-.358-.349Zm-12.07 10.174-.287-.41a102.473 102.473 0 0 1-6.61 4.246l.255.43.254.431a103.422 103.422 0 0 0 6.674-4.287l-.286-.41Zm-13.57 8.045-.225-.446a130.052 130.052 0 0 1-3.618 1.752l.21.453.212.454c1.244-.58 2.46-1.168 3.646-1.766l-.225-.447Z" opacity=".6"/>
</svg>
